<?xml version="1.0" encoding="UTF-8" standalone="no"?>
<!-- Created with Inkscape (http://www.inkscape.org/) -->

<svg
   width="210mm"
   height="297mm"
   viewBox="0 0 210 297"
   version="1.1"
   id="svg1"
   inkscape:version="1.3.2 (091e20e, 2023-11-25, custom)"
   sodipodi:docname="A_window200.svg"
   xmlns:inkscape="http://www.inkscape.org/namespaces/inkscape"
   xmlns:sodipodi="http://sodipodi.sourceforge.net/DTD/sodipodi-0.dtd"
   xmlns="http://www.w3.org/2000/svg"
   xmlns:svg="http://www.w3.org/2000/svg">
  <sodipodi:namedview
     id="namedview1"
     pagecolor="#ffffff"
     bordercolor="#999999"
     borderopacity="1"
     inkscape:showpageshadow="2"
     inkscape:pageopacity="0"
     inkscape:pagecheckerboard="0"
     inkscape:deskcolor="#d1d1d1"
     inkscape:document-units="mm"
     inkscape:zoom="0.73139029"
     inkscape:cx="396.50513"
     inkscape:cy="561.25984"
     inkscape:window-width="1920"
     inkscape:window-height="1017"
     inkscape:window-x="-8"
     inkscape:window-y="-8"
     inkscape:window-maximized="1"
     inkscape:current-layer="layer1" />
  <defs
     id="defs1">
    <pattern
       id="EMFhbasepattern"
       patternUnits="userSpaceOnUse"
       width="6"
       height="6"
       x="0"
       y="0" />
  </defs>
  <g
     inkscape:label="Слой 1"
     inkscape:groupmode="layer"
     id="layer1">
    <path
       style="fill:none;stroke:#000000;stroke-width:0.280333px;stroke-linecap:round;stroke-linejoin:round;stroke-miterlimit:4;stroke-dasharray:none;stroke-opacity:1"
       d="m 25.596842,108.12389 v 2.80333 h 1.401667 -1.401667 v 14.01667 h 1.401667 -1.401667 v 14.01666 h 1.401667 -1.401667 v 14.01667 h 1.401667 -1.401667 v 14.01667 h 1.401667 -1.401667 v 2.80333 h 2.803333 v -1.40167 1.40167 h 35.041667 v -1.40167 1.40167 h 35.04167 v -1.40167 1.40167 h 35.041658 v -1.40167 1.40167 h 35.04167 v -1.40167 1.40167 h 2.80333"
       id="path1" />
    <text
       xml:space="preserve"
       style="font-style:normal;font-variant:normal;font-weight:400;font-size:3.91914px;line-height:125%;font-family:Arial;text-align:start;letter-spacing:0px;word-spacing:0px;text-anchor:start;fill:#000000;fill-opacity:1;stroke:none;stroke-width:0.264583"
       x="27.839508"
       y="174.74678"
       id="text2"><tspan
         sodipodi:role="line"
         x="27.839508"
         y="174.74678"
         id="tspan2"
         style="stroke-width:0.264583"><tspan
           dx="0"
           dy="0"
           style="font-style:normal;font-variant:normal;font-weight:400;font-size:3.91914px;font-family:Arial;fill:#000000;stroke-width:0.264583"
           id="tspan1">1</tspan></tspan></text>
    <text
       xml:space="preserve"
       style="font-style:normal;font-variant:normal;font-weight:400;font-size:3.91914px;line-height:125%;font-family:Arial;text-align:start;letter-spacing:0px;word-spacing:0px;text-anchor:start;fill:#000000;fill-opacity:1;stroke:none;stroke-width:0.264583"
       x="60.077843"
       y="174.74678"
       id="text4"><tspan
         sodipodi:role="line"
         x="60.077843"
         y="174.74678"
         id="tspan4"
         style="stroke-width:0.264583"><tspan
           dx="0"
           dy="0"
           style="font-style:normal;font-variant:normal;font-weight:400;font-size:3.91914px;font-family:Arial;fill:#000000;stroke-width:0.264583"
           id="tspan3">1750</tspan></tspan></text>
    <text
       xml:space="preserve"
       style="font-style:normal;font-variant:normal;font-weight:400;font-size:3.91914px;line-height:125%;font-family:Arial;text-align:start;letter-spacing:0px;word-spacing:0px;text-anchor:start;fill:#000000;fill-opacity:1;stroke:none;stroke-width:0.264583"
       x="95.119514"
       y="174.74678"
       id="text6"><tspan
         sodipodi:role="line"
         x="95.119514"
         y="174.74678"
         id="tspan6"
         style="stroke-width:0.264583"><tspan
           dx="0"
           dy="0"
           style="font-style:normal;font-variant:normal;font-weight:400;font-size:3.91914px;font-family:Arial;fill:#000000;stroke-width:0.264583"
           id="tspan5">3501</tspan></tspan></text>
    <text
       xml:space="preserve"
       style="font-style:normal;font-variant:normal;font-weight:400;font-size:3.91914px;line-height:125%;font-family:Arial;text-align:start;letter-spacing:0px;word-spacing:0px;text-anchor:start;fill:#000000;fill-opacity:1;stroke:none;stroke-width:0.264583"
       x="130.16119"
       y="174.74678"
       id="text8"><tspan
         sodipodi:role="line"
         x="130.16119"
         y="174.74678"
         id="tspan8"
         style="stroke-width:0.264583"><tspan
           dx="0"
           dy="0"
           style="font-style:normal;font-variant:normal;font-weight:400;font-size:3.91914px;font-family:Arial;fill:#000000;stroke-width:0.264583"
           id="tspan7">5253</tspan></tspan></text>
    <text
       xml:space="preserve"
       style="font-style:normal;font-variant:normal;font-weight:400;font-size:3.91914px;line-height:125%;font-family:Arial;text-align:start;letter-spacing:0px;word-spacing:0px;text-anchor:start;fill:#000000;fill-opacity:1;stroke:none;stroke-width:0.264583"
       x="165.20287"
       y="174.74678"
       id="text10"><tspan
         sodipodi:role="line"
         x="165.20287"
         y="174.74678"
         id="tspan10"
         style="stroke-width:0.264583"><tspan
           dx="0"
           dy="0"
           style="font-style:normal;font-variant:normal;font-weight:400;font-size:3.91914px;font-family:Arial;fill:#000000;stroke-width:0.264583"
           id="tspan9">7002</tspan></tspan></text>
    <text
       xml:space="preserve"
       style="font-style:normal;font-variant:normal;font-weight:400;font-size:3.91914px;line-height:125%;font-family:Arial;text-align:start;letter-spacing:0px;word-spacing:0px;text-anchor:start;fill:#000000;fill-opacity:1;stroke:none;stroke-width:0.264583"
       x="57.55484"
       y="180.35344"
       id="text12"><tspan
         sodipodi:role="line"
         x="57.55484"
         y="180.35344"
         id="tspan12"
         style="stroke-width:0.264583"><tspan
           dx="0"
           dy="0"
           style="font-style:normal;font-variant:normal;font-weight:400;font-size:3.91914px;font-family:Arial;fill:#000000;stroke-width:0.264583"
           id="tspan11">Nucleotide position in relation to MZ493234/PAK/cattle/2018/A</tspan></tspan></text>
    <text
       xml:space="preserve"
       style="font-style:normal;font-variant:normal;font-weight:400;font-size:3.91914px;line-height:357.646%;font-family:Arial;text-align:start;letter-spacing:0px;word-spacing:0px;text-anchor:start;fill:#000000;fill-opacity:1;stroke:none;stroke-width:0.264583"
       x="14.383508"
       y="112.79311"
       id="text22"><tspan
         sodipodi:role="line"
         x="14.383508"
         y="112.79311"
         id="tspan14"
         style="stroke-width:0.264583"><tspan
           dx="0"
           dy="0"
           style="font-style:normal;font-variant:normal;font-weight:400;font-size:3.91914px;font-family:Arial;fill:#000000;stroke-width:0.264583"
           id="tspan13">9.00000</tspan></tspan><tspan
         sodipodi:role="line"
         x="14.383508"
         y="126.80976"
         id="tspan16"
         style="stroke-width:0.264583"><tspan
           dx="0"
           dy="0"
           style="font-style:normal;font-variant:normal;font-weight:400;font-size:3.91914px;font-family:Arial;fill:#000000;stroke-width:0.264583"
           id="tspan15">6,75.00</tspan></tspan><tspan
         sodipodi:role="line"
         x="14.383508"
         y="140.82642"
         id="tspan18"
         style="stroke-width:0.264583"><tspan
           dx="0"
           dy="0"
           style="font-style:normal;font-variant:normal;font-weight:400;font-size:3.91914px;font-family:Arial;fill:#000000;stroke-width:0.264583"
           id="tspan17">4,5.000</tspan></tspan><tspan
         sodipodi:role="line"
         x="14.383508"
         y="154.84306"
         id="tspan20"
         style="stroke-width:0.264583"><tspan
           dx="0"
           dy="0"
           style="font-style:normal;font-variant:normal;font-weight:400;font-size:3.91914px;font-family:Arial;fill:#000000;stroke-width:0.264583"
           id="tspan19">2,25.00</tspan></tspan><tspan
         sodipodi:role="line"
         x="14.383508"
         y="168.85971"
         id="tspan22"
         style="stroke-width:0.264583"><tspan
           dx="0"
           dy="0"
           style="font-style:normal;font-variant:normal;font-weight:400;font-size:3.91914px;font-family:Arial;fill:#000000;stroke-width:0.264583"
           id="tspan21">0.00000</tspan></tspan></text>
    <path
       style="fill:none;stroke:#000000;stroke-width:0.280333px;stroke-linecap:round;stroke-linejoin:round;stroke-miterlimit:4;stroke-dasharray:none;stroke-opacity:1"
       d="m 32.605175,105.32055 v 1.40167 m 3.083668,-1.40167 v 1.40167 m 3.364,-1.40167 v 1.40167 m 0.840999,-1.40167 v 1.40167 m 0.560666,-1.40167 v 1.40167 m 0.560668,-1.40167 v 1.40167 m 0.560665,-1.40167 v 1.40167 m 0.841002,-1.40167 v 1.40167 m 0,-1.40167 v 1.40167 m 0.280331,-1.40167 v 1.40167 m 1.962335,-1.40167 v 1.40167 m 24.949663,-1.40167 v 1.40167 m 8.12967,-1.40167 v 1.40167 m 1.12133,-1.40167 v 1.40167 m 5.60667,-1.40167 v 1.40167 m 0.56067,-1.40167 v 1.40167 m 0.28033,-1.40167 v 1.40167 m 1.12133,-1.40167 v 1.40167 m 0.28034,-1.40167 v 1.40167 m 0,-1.40167 v 1.40167 m 0.28033,-1.40167 v 1.40167 m 0.841,-1.40167 v 1.40167 m 0.841,-1.40167 v 1.40167 m 0.841,-1.40167 v 1.40167 m 0,-1.40167 v 1.40167 m 1.682,-1.40167 v 1.40167 m 0.28033,-1.40167 v 1.40167 m 0.28034,-1.40167 v 1.40167 m 0.56066,-1.40167 v 1.40167 m 1.682,-1.40167 v 1.40167 m 0.841,-1.40167 v 1.40167 m 5.606668,-1.40167 v 1.40167 m 2.523,-1.40167 v 1.40167 m 7.84933,-1.40167 v 1.40167 m 2.24267,-1.40167 v 1.40167 m 0,-1.40167 v 1.40167 m 1.12133,-1.40167 v 1.40167 m 2.523,-1.40167 v 1.40167 m 7.28867,-1.40167 v 1.40167 m 10.65267,-1.40167 v 1.40167 m 2.523,-1.40167 v 1.40167 m 3.364,-1.40167 v 1.40167 m 10.933,-1.40167 v 1.40167 m 1.682,-1.40167 v 1.40167 m 0.56066,-1.40167 v 1.40167 m 0.841,-1.40167 v 1.40167 m 5.887,-1.40167 v 1.40167"
       id="path22" />
    <path
       style="fill:none;stroke:#c6c6c6;stroke-width:0.280333px;stroke-linecap:round;stroke-linejoin:round;stroke-miterlimit:4;stroke-dasharray:none;stroke-opacity:1"
       d="m 175.57517,112.32889 h 2.80334"
       id="path23" />
    <text
       xml:space="preserve"
       style="font-style:normal;font-variant:normal;font-weight:400;font-size:3.91914px;line-height:125%;font-family:Arial;text-align:start;letter-spacing:0px;word-spacing:0px;text-anchor:start;fill:#000000;fill-opacity:1;stroke:none;stroke-width:0.264583"
       x="179.78018"
       y="113.6341"
       id="text24"><tspan
         sodipodi:role="line"
         x="179.78018"
         y="113.6341"
         id="tspan24"
         style="stroke-width:0.264583"><tspan
           dx="0"
           dy="0"
           style="font-style:normal;font-variant:normal;font-weight:400;font-size:3.91914px;font-family:Arial;fill:#000000;stroke-width:0.264583"
           id="tspan23">Breakpoint number</tspan></tspan></text>
    <path
       style="fill:none;stroke:#808080;stroke-width:0.280333px;stroke-linecap:round;stroke-linejoin:round;stroke-miterlimit:4;stroke-dasharray:none;stroke-opacity:1"
       d="m 175.57517,116.53389 h 2.80334"
       id="path24" />
    <text
       xml:space="preserve"
       style="font-style:normal;font-variant:normal;font-weight:400;font-size:3.91914px;line-height:125%;font-family:Arial;text-align:start;letter-spacing:0px;word-spacing:0px;text-anchor:start;fill:#000000;fill-opacity:1;stroke:none;stroke-width:0.264583"
       x="179.78018"
       y="117.83911"
       id="text26"><tspan
         sodipodi:role="line"
         x="179.78018"
         y="117.83911"
         id="tspan26"
         style="stroke-width:0.264583"><tspan
           dx="0"
           dy="0"
           style="font-style:normal;font-variant:normal;font-weight:400;font-size:3.91914px;font-family:Arial;fill:#000000;stroke-width:0.264583"
           id="tspan25">Local 95% confidence interval</tspan></tspan></text>
    <path
       style="fill:none;stroke:#000000;stroke-width:0.280333px;stroke-linecap:round;stroke-linejoin:round;stroke-miterlimit:4;stroke-dasharray:none;stroke-opacity:1"
       d="m 175.57517,120.73889 h 2.80334"
       id="path26" />
    <text
       xml:space="preserve"
       style="font-style:normal;font-variant:normal;font-weight:400;font-size:3.91914px;line-height:107.294%;font-family:Arial;text-align:start;letter-spacing:0px;word-spacing:0px;text-anchor:start;fill:#000000;fill-opacity:1;stroke:none;stroke-width:0.264583"
       x="179.78018"
       y="122.04411"
       id="text30"><tspan
         sodipodi:role="line"
         x="179.78018"
         y="122.04411"
         id="tspan28"
         style="stroke-width:0.264583"><tspan
           dx="0"
           dy="0"
           style="font-style:normal;font-variant:normal;font-weight:400;font-size:3.91914px;font-family:Arial;fill:#000000;stroke-width:0.264583"
           id="tspan27">Local 99% confidence interval</tspan></tspan><tspan
         sodipodi:role="line"
         x="179.78018"
         y="126.24911"
         id="tspan30"
         style="stroke-width:0.264583"><tspan
           dx="0"
           dy="0"
           style="font-style:normal;font-variant:normal;font-weight:400;font-size:3.91914px;font-family:Arial;fill:#000000;stroke-width:0.264583"
           id="tspan29">Global 95% confidence limit</tspan></tspan></text>
    <path
       style="fill:none;stroke:#000000;stroke-width:0.280333px;stroke-linecap:round;stroke-linejoin:round;stroke-miterlimit:4;stroke-dasharray:0.79375, 0.264583, 0.264583, 0.264583, 0.264583, 0.264583;stroke-dashoffset:0;stroke-opacity:1"
       d="m 175.57517,124.94389 h 2.80334"
       id="path30" />
    <text
       xml:space="preserve"
       style="font-style:normal;font-variant:normal;font-weight:400;font-size:3.91914px;line-height:125%;font-family:Arial;text-align:start;letter-spacing:0px;word-spacing:0px;text-anchor:start;fill:#000000;fill-opacity:1;stroke:none;stroke-width:0.264583"
       x="179.78018"
       y="130.45412"
       id="text32"><tspan
         sodipodi:role="line"
         x="179.78018"
         y="130.45412"
         id="tspan32"
         style="stroke-width:0.264583"><tspan
           dx="0"
           dy="0"
           style="font-style:normal;font-variant:normal;font-weight:400;font-size:3.91914px;font-family:Arial;fill:#000000;stroke-width:0.264583"
           id="tspan31">Global 99% confidence limit</tspan></tspan></text>
    <path
       style="fill:none;stroke:#000000;stroke-width:0.280333px;stroke-linecap:round;stroke-linejoin:round;stroke-miterlimit:4;stroke-dasharray:0.264583, 0.264583;stroke-dashoffset:0;stroke-opacity:1"
       d="m 175.57517,129.14889 h 2.80334"
       id="path32" />
    <path
       style="fill:none;stroke:#000000;stroke-width:0.280333px;stroke-linecap:round;stroke-linejoin:round;stroke-miterlimit:4;stroke-dasharray:none;stroke-opacity:1"
       d="m 174.17351,109.52555 h 48.778 v 21.866 h -48.778 v -21.866"
       id="path33" />
    <path
       style="fill:none;stroke:#000000;stroke-width:0.280333px;stroke-linecap:round;stroke-linejoin:round;stroke-miterlimit:4;stroke-dasharray:0.264583, 0.264583;stroke-dashoffset:0;stroke-opacity:1"
       d="M 25.596842,117.09455 H 171.37017"
       id="path34" />
    <path
       style="fill:none;stroke:#000000;stroke-width:0.280333px;stroke-linecap:round;stroke-linejoin:round;stroke-miterlimit:4;stroke-dasharray:0.79375, 0.264583, 0.264583, 0.264583, 0.264583, 0.264583;stroke-dashoffset:0;stroke-opacity:1"
       d="M 25.596842,123.26189 H 171.37017"
       id="path35" />
    <path
       style="fill:#c6c6c6;fill-opacity:1;fill-rule:evenodd;stroke:#c6c6c6;stroke-width:0.280333px;stroke-linecap:round;stroke-linejoin:round;stroke-miterlimit:4;stroke-dasharray:none;stroke-opacity:1"
       d="m 28.680509,160.82655 h 0.280333 0.280333 v -6.16733 h 0.280334 0.280333 0.280333 0.280334 0.280333 0.280333 v -6.44767 h 0.280334 0.280333 0.280333 l 0.280334,-6.16733 h 0.280333 0.280333 0.280334 0.280333 v -6.16733 h 0.280333 0.280334 v 6.16733 h 0.280333 0.280333 l 0.280334,-6.16733 v 6.16733 h 0.280333 0.280333 0.280334 0.280334 0.280331 0.280334 0.280334 0.280334 0.280332 0.280334 0.280334 0.280334 v -6.16733 h 0.280331 0.280334 0.280334 0.280334 0.280331 0.280334 0.280334 0.280334 0.280332 0.280334 v 6.16733 -6.16733 h 0.280334 0.280333 0.280332 0.280334 0.280334 v 6.16733 -6.16733 h 0.280334 v 6.16733 -6.16733 h 0.280331 v 6.16733 -6.16733 6.16733 l 0.280334,-6.16733 h 0.280334 0.280334 v 6.16733 -6.16733 l 0.280331,6.16733 h 0.280334 v -6.16733 l 0.280334,6.16733 v -6.16733 h 0.280334 v 6.16733 h 0.280334 0.280332 0.280334 0.280334 0.280334 v -6.16733 h 0.280331 0.280334 0.280334 v 6.16733 h 0.280334 v -6.16733 h 0.280331 0.280334 0.280334 0.280334 0.280331 0.280334 0.280334 0.280334 0.280332 0.280334 0.280334 0.280334 0.280331 0.280334 0.280334 l 0.280334,-6.16734 h 0.280331 v 6.16734 h 0.280334 0.280334 0.280334 0.280332 0.280333 0.280334 0.280334 0.280332 0.280334 0.280334 0.280334 0.280331 0.280334 0.280334 0.280334 0.280334 0.280331 0.280334 0.280334 0.280334 0.280332 0.280334 0.280334 0.280334 0.280331 0.280334 0.280334 0.280334 0.280331 0.280334 0.280334 0.280334 0.280331 0.280334 0.280334 0.280334 0.280332 0.280334 0.28033 0.28034 0.28033 0.28033 0.28034 v 6.16733 h 0.28033 v -6.16733 6.16733 -6.16733 h 0.28033 0.28034 0.28033 0.28033 0.28034 0.28033 0.28033 0.28034 0.28033 0.28033 0.28034 0.28033 0.28033 0.28034 0.28033 0.28033 0.28034 0.28033 0.28033 0.28034 0.28033 0.28033 0.28034 0.28033 0.28033 0.28034 0.28033 v -6.16734 h 0.28033 0.28034 v 6.16734 -6.16734 h 0.28033 0.28033 v 6.16734 h 0.28034 v -6.16734 6.16734 h 0.28033 0.28033 0.28034 0.28033 v -6.16734 h 0.28033 0.28034 0.28033 0.28033 v 6.16734 -6.16734 6.16734 h 0.28034 v -6.16734 h 0.28033 0.28033 0.28034 0.28033 v 6.16734 h 0.28033 v -6.16734 l 0.28034,6.16734 v -6.16734 6.16734 h 0.28033 0.28033 0.28033 v -6.16734 h 0.28034 0.28033 0.28034 0.28033 0.28033 v -6.44766 6.44766 h 0.28034 0.28033 v -6.44766 6.44766 -6.44766 h 0.28033 v 6.44766 h 0.28034 0.28033 0.28033 0.28034 v -6.44766 h 0.28033 v 6.44766 h 0.28033 0.28034 0.28033 0.28033 0.28034 0.28033 0.28033 v 6.16734 h 0.28034 0.28033 0.28033 v -6.16734 h 0.28034 0.28033 0.28033 v 6.16734 h 0.28034 0.28033 0.28033 0.28034 0.28033 0.28033 0.28034 0.28033 0.28033 0.28034 0.28033 0.28033 0.28034 v 6.16733 h 0.28033 v -6.16733 h 0.28033 0.28034 0.28033 v 6.16733 h 0.28033 0.28033 0.28034 v 6.16733 -6.16733 h 0.28033 0.28034 0.28033 0.28033 0.28034 0.28033 0.28033 v 6.16733 -6.16733 h 0.28034 0.28033 0.28033 0.28034 0.28033 0.28033 0.28034 0.28033 0.28033 0.28034 0.28033 0.28033 0.28034 0.28033 0.28033 0.28034 v -6.16733 h 0.28033 v 6.16733 h 0.28033 v -6.16733 h 0.28034 0.28033 0.28033 0.28034 0.28033 0.28033 0.280338 0.28033 0.28033 0.28034 0.28033 0.28033 0.28034 0.28033 0.28033 v 6.16733 h 0.28034 0.28033 0.28033 0.28033 v -6.16733 6.16733 h 0.28034 v -6.16733 h 0.28033 0.28034 0.28033 0.28033 0.28034 0.28033 v 6.16733 h 0.28033 v -6.16733 h 0.28034 0.28033 0.28033 0.28034 0.28033 0.28033 0.28034 0.28033 0.28033 0.28034 l 0.28033,6.16733 h 0.28033 0.28034 0.28033 0.28033 0.28034 v -6.16733 6.16733 h 0.28033 0.28033 v -6.16733 h 0.28034 0.28033 v 6.16733 h 0.28033 0.28034 v -6.16733 h 0.28033 0.28033 v 6.16733 -6.16733 6.16733 -6.16733 h 0.28034 0.28033 0.28033 0.28034 0.28033 0.28033 0.28034 0.28033 0.28033 0.28034 0.28033 0.28033 0.28034 0.28033 0.28033 0.28034 0.28033 0.28033 0.28034 0.28033 0.28033 0.28034 0.28033 0.28033 0.28034 0.28033 0.28033 0.28034 0.28033 0.28033 0.28034 0.28033 0.28033 v -6.16734 h 0.28034 v 6.16734 l 0.28033,-6.16734 v 6.16734 l 0.28033,-6.16734 h 0.28034 0.28033 0.28033 0.28034 0.28033 v 6.16734 h 0.28033 0.28034 0.28033 v 6.16733 h 0.28033 0.28034 0.28033 0.28033 0.28034 v -6.16733 l 0.28033,6.16733 h 0.28033 0.28034 v -6.16733 h 0.28033 v 6.16733 h 0.28033 0.28034 0.28033 0.28033 0.28034 0.28033 0.28033 0.28034 0.28033 0.28033 0.28034 0.28033 0.28033 0.28034 l 0.28033,6.16733 v -6.16733 h 0.28033 0.28034 v 6.16733 -6.16733 h 0.28033 v 6.16733 -6.16733 h 0.28033 0.28034 0.28033 0.28033 0.28034 0.28033 0.28033 0.28034 0.28033 0.28033 0.28034 0.28033 0.28033 v -6.16733 h 0.28034 v 6.16733 h 0.28033 0.28033 0.28034 0.28033 v -6.16733 6.16733 h 0.28033 0.28034 v -6.16733 h 0.28033 v 6.16733 -6.16733 h 0.28033 0.28034 v 6.16733 l 0.28033,-6.16733 h 0.28033 v 6.16733 -6.16733 h 0.28034 v 6.16733 h 0.28033 0.28033 0.28034 0.28033 0.28033 0.28034 0.28033 v -6.16733 6.16733 h 0.28033 0.28034 0.28033 0.28033 0.28034 0.28033 0.28033 0.28034 0.28033 0.28033 v -6.16733 l 0.28034,6.16733 v -6.16733 h 0.28033 v 6.16733 -6.16733 h 0.28033 0.28034 v 6.16733 -6.16733 h 0.28033 0.28033 0.28034 0.28033 0.28033 0.28034 v 6.16733 h 0.28033 v -6.16733 6.16733 h 0.28033 v -6.16733 h 0.28034 0.28033 0.28033 v 6.16733 h 0.28034 v -6.16733 l 0.28033,6.16733 h 0.28033 0.28034 0.28033 0.28033 0.28034 0.28033 0.28033 0.28034 0.28033 0.28033 0.28034 0.28033 0.28033 0.28034 0.28033 0.28033 0.28034 0.28033 0.28033 0.28034 0.28033 0.28033 0.28034 0.28033 0.28033 0.28034 0.28033 0.28033 0.28034 0.28033 0.28033 0.28034 0.28033 v 6.16733 -6.16733 h 0.28033 v 6.16733 h 0.28034 v -6.16733 h 0.28033 v 6.16733 h 0.28033 0.28034 v -6.16733 h 0.28033 v 6.16733 h 0.28033 0.28034 0.28033 0.28033 0.28034 0.28033 0.28033 0.28034 0.28033 0.28033 v 6.44767 h 0.28034 0.28033 0.28033 0.28034 0.28033 0.28033 v 6.16733 h 0.28034 0.28033 0.28033 0.28034 0.28033 0.28033 0.28034 0.28033 0.28033 0.28034 0.28033 0.28033 v 6.16734 h 0.28034 v -6.16734 h 0.28033 v 6.16734 h -0.28033 -0.28034 -0.28033 -0.28033 -0.28034 -0.28033 -0.28033 -0.28034 -0.28033 -0.28033 -0.28034 -0.28033 -0.28033 -0.28034 -0.28033 -0.28033 -0.28034 -0.28033 -0.28033 -0.28034 -0.28033 -0.28033 -0.28034 -0.28033 -0.28033 -0.28034 -0.28033 -0.28033 -0.28034 -0.28033 -0.28033 -0.28034 -0.28033 -0.28033 -0.28034 -0.28033 -0.28033 -0.28034 -0.28033 -0.28033 -0.28034 -0.28033 -0.28033 -0.28034 -0.28033 -0.28033 -0.28034 -0.28033 -0.28033 -0.28034 -0.28033 -0.28033 -0.28034 -0.28033 -0.28033 -0.28034 -0.28033 -0.28033 -0.28034 -0.28033 -0.28033 -0.28034 -0.28033 -0.28033 -0.28034 -0.28033 -0.28033 -0.28034 -0.28033 -0.28033 -0.28034 -0.28033 -0.28033 -0.28034 -0.28033 -0.28033 -0.28034 -0.28033 -0.28033 -0.28034 -0.28033 -0.28033 -0.28034 -0.28033 -0.28033 -0.28034 -0.28033 -0.28033 -0.28034 -0.28033 -0.28033 -0.28034 -0.28033 -0.28033 -0.28034 -0.28033 -0.28033 -0.28034 -0.28033 -0.28033 -0.28034 -0.28033 -0.28033 -0.28034 -0.28033 -0.28033 -0.28034 -0.28033 -0.28033 -0.28034 -0.28033 -0.28033 -0.28034 -0.28033 -0.28033 -0.28034 -0.28033 -0.28033 -0.28034 -0.28033 -0.28033 -0.28034 -0.28033 -0.28033 -0.28034 -0.28033 -0.28033 -0.28034 -0.28033 -0.28033 -0.28034 -0.28033 -0.28033 -0.28034 -0.28033 -0.28033 -0.28034 -0.28033 -0.28033 -0.28034 -0.28033 -0.28033 -0.28034 -0.28033 -0.28033 -0.28034 -0.28033 -0.28033 -0.28034 -0.28033 -0.28033 -0.28034 -0.28033 -0.28033 -0.28034 -0.28033 -0.28033 -0.28034 -0.28033 -0.28033 -0.28034 -0.28033 -0.28033 -0.28034 -0.28033 -0.28033 -0.28034 -0.28033 -0.28033 -0.28034 -0.28033 -0.28033 -0.28034 -0.28033 -0.28033 -0.28034 -0.28033 -0.28033 -0.28034 -0.28033 -0.28033 -0.28034 -0.28033 -0.28033 -0.28034 -0.28033 -0.28033 -0.28034 -0.28033 -0.28033 -0.28034 -0.28033 -0.28033 -0.28034 -0.28033 -0.28033 -0.28034 -0.28033 -0.28033 -0.28034 -0.28033 -0.28033 -0.28034 -0.28033 -0.28033 -0.28034 -0.28033 -0.28033 -0.28034 -0.28033 -0.28033 -0.28034 -0.28033 -0.28033 -0.28034 -0.28033 -0.28033 -0.28034 -0.28033 -0.28033 -0.28034 -0.28033 -0.28033 -0.28034 -0.28033 -0.28033 -0.28034 -0.28033 -0.28033 -0.28034 -0.28033 -0.28034 -0.28033 -0.28033 -0.28033 -0.28034 -0.28033 -0.28033 -0.28034 -0.28033 -0.28033 -0.28034 -0.28033 -0.28033 -0.280338 -0.28033 -0.28033 -0.28034 -0.28033 -0.28033 -0.28034 -0.28033 -0.28033 -0.28034 -0.28033 -0.28033 -0.28034 -0.28033 -0.28033 -0.28034 -0.28033 -0.28033 -0.28034 -0.28033 -0.28033 -0.28034 -0.28033 -0.28033 -0.28034 -0.28033 -0.28033 -0.28034 -0.28033 -0.28033 -0.28034 -0.28033 -0.28034 -0.28033 -0.28033 -0.28033 -0.28034 -0.28033 -0.28033 -0.28034 -0.28033 -0.28033 -0.28034 -0.28033 -0.28033 -0.28034 -0.28033 -0.28033 -0.28034 -0.28033 -0.28033 -0.28034 -0.28033 -0.28033 -0.28034 -0.28033 -0.28033 -0.28034 -0.28033 -0.28033 -0.28034 -0.28033 -0.28033 -0.28034 -0.28033 -0.28033 -0.28034 -0.28033 -0.28033 -0.28034 -0.28033 -0.28033 -0.28034 -0.28033 -0.28033 -0.28034 -0.28033 -0.28034 -0.28033 -0.28033 -0.28033 -0.28034 -0.28033 -0.28033 -0.28034 -0.28033 -0.28033 -0.28034 -0.28033 -0.28033 -0.28034 -0.28033 -0.28033 -0.28034 -0.28033 -0.28033 -0.28034 -0.28033 -0.28033 -0.28034 -0.28033 -0.28033 -0.28034 -0.28033 -0.28033 -0.28034 -0.28033 -0.28033 -0.28034 -0.28033 -0.28033 -0.28034 -0.28033 -0.28033 -0.28034 -0.28033 -0.28033 -0.28034 -0.28033 -0.28033 -0.28034 -0.28033 -0.28033 -0.28034 -0.28033 -0.28033 -0.28034 -0.28033 -0.28033 -0.28034 -0.28033 -0.28033 -0.28034 -0.28033 H 62.320508 62.040176 61.759842 61.479508 61.199174 60.918843 60.638509 60.358175 60.077841 59.79751 59.517176 59.236842 58.956508 58.676177 58.395843 58.115509 57.835175 57.554843 57.274509 56.994175 56.713841 56.43351 56.153176 55.872842 55.592508 55.312174 55.031843 54.751509 54.471175 54.190841 53.910509 53.630175 53.349841 53.069508 52.789176 52.508842 52.228508 51.948174 51.667843 51.387509 51.107175 50.826841 50.54651 50.266176 49.985842 49.705508 49.425176 49.144842 48.864508 48.584174 48.303843 48.023509 47.743175 47.462841 47.18251 46.902176 46.621842 46.341508 46.061177 45.780843 45.500509 45.220175 44.939843 44.659509 44.379175 44.098841 43.818507 43.538176 43.257842 42.977508 42.697174 42.416843 42.136509 41.856175 41.575841 41.295509 41.015176 40.734842 40.454508 40.174176 39.893842 39.613508 39.333174 39.052843 38.772509 38.492175 38.211841 37.93151 37.651176 37.370842 37.090508 36.810176 36.529842 36.249508 35.969174 35.688843 35.408509 35.128175 34.847842 34.567509 34.287175 34.006842 33.726509 33.446175 33.165842 32.885509 32.605175 32.324842 32.044509 31.764175 31.483842 31.203509 30.923175 30.642842 30.362509 30.082175 29.801842 29.521509 29.241175 28.960842 28.680509 Z"
       id="path36" />
    <path
       style="fill:#808080;fill-opacity:1;fill-rule:evenodd;stroke:#808080;stroke-width:0.280333px;stroke-linecap:round;stroke-linejoin:round;stroke-miterlimit:4;stroke-dasharray:none;stroke-opacity:1"
       d="m 28.680509,166.99389 v -6.16734 h 0.280333 0.280333 0.280334 0.280333 0.280333 l 0.280334,-6.16733 h 0.280333 0.280333 0.280334 0.280333 0.280333 v -6.44767 h 0.280334 0.280333 0.280333 0.280334 0.280333 0.280333 0.280334 0.280333 0.280333 0.280334 0.280333 0.280333 0.280334 0.280334 0.280331 0.280334 0.280334 0.280334 0.280332 0.280334 0.280334 0.280334 0.280331 v -6.16733 h 0.280334 v 6.16733 h 0.280334 0.280334 0.280331 0.280334 0.280334 0.280334 0.280332 0.280334 v -6.16733 h 0.280334 0.280333 0.280332 0.280334 0.280334 v 6.16733 h 0.280334 0.280331 0.280334 0.280334 0.280334 0.280331 0.280334 v -6.16733 h 0.280334 0.280334 0.280334 0.280332 v 6.16733 -6.16733 h 0.280334 v 6.16733 h 0.280334 0.280334 v -6.16733 l 0.280331,6.16733 h 0.280334 v -6.16733 6.16733 h 0.280334 0.280334 0.280331 0.280334 v -6.16733 h 0.280334 0.280334 0.280331 0.280334 0.280334 0.280334 0.280332 0.280334 0.280334 0.280334 0.280331 0.280334 0.280334 0.280334 0.280331 0.280334 0.280334 0.280334 0.280332 0.280333 0.280334 0.280334 0.280332 0.280334 0.280334 0.280334 0.280331 0.280334 0.280334 0.280334 0.280334 0.280331 0.280334 0.280334 0.280334 0.280332 0.280334 0.280334 0.280334 0.280331 0.280334 0.280334 v 6.16733 h 0.280334 v -6.16733 h 0.280331 0.280334 0.280334 0.280334 0.280331 0.280334 0.280334 0.280334 0.280332 0.280334 0.28033 0.28034 0.28033 0.28033 0.28034 0.28033 0.28033 0.28034 0.28033 0.28033 0.28034 0.28033 0.28033 0.28034 0.28033 0.28033 0.28034 0.28033 0.28033 0.28034 0.28033 0.28033 0.28034 0.28033 0.28033 0.28034 0.28033 0.28033 0.28034 0.28033 0.28033 0.28034 0.28033 0.28033 0.28034 0.28033 v -6.16733 6.16733 -6.16733 h 0.28033 v 6.16733 h 0.28034 0.28033 0.28033 0.28034 0.28033 0.28033 0.28034 0.28033 v -6.16733 l 0.28033,6.16733 h 0.28034 v -6.16733 h 0.28033 0.28033 0.28034 v 6.16733 h 0.28033 0.28033 0.28034 0.28033 0.28033 0.28034 v -6.16733 h 0.28033 0.28033 0.28034 0.28033 0.28033 0.28034 0.28033 0.28034 0.28033 0.28033 0.28033 0.28034 v -6.16734 h 0.28033 v 6.16734 h 0.28033 0.28034 0.28033 0.28033 0.28034 0.28033 0.28033 v 6.16733 h 0.28034 0.28033 0.28033 v -6.16733 6.16733 h 0.28034 0.28033 0.28033 0.28034 0.28033 0.28033 0.28034 0.28033 0.28033 0.28034 0.28033 0.28033 0.28034 v 6.16733 h 0.28033 0.28033 0.28034 0.28033 0.28033 0.28034 0.28033 0.28033 0.28033 0.28034 0.28033 0.28034 0.28033 0.28033 0.28034 0.28033 0.28033 0.28034 0.28033 0.28033 0.28034 0.28033 0.28033 0.28034 0.28033 0.28033 0.28034 0.28033 0.28033 0.28034 0.28033 0.28033 0.28034 0.28033 v -6.16733 6.16733 -6.16733 h 0.28033 0.28034 0.28033 0.28033 0.28034 0.28033 0.28033 0.280338 0.28033 0.28033 0.28034 0.28033 0.28033 0.28034 0.28033 0.28033 v 6.16733 h 0.28034 l 0.28033,-6.16733 v 6.16733 h 0.28033 0.28033 v -6.16733 h 0.28034 0.28033 0.28034 0.28033 0.28033 0.28034 0.28033 0.28033 0.28034 0.28033 0.28033 0.28034 0.28033 0.28033 0.28034 0.28033 0.28033 v 6.16733 h 0.28034 0.28033 0.28033 0.28034 0.28033 0.28033 0.28034 0.28033 0.28033 v -6.16733 6.16733 h 0.28034 0.28033 0.28033 v -6.16733 h 0.28034 v 6.16733 -6.16733 6.16733 h 0.28033 v -6.16733 6.16733 h 0.28033 v -6.16733 h 0.28034 v 6.16733 h 0.28033 v -6.16733 h 0.28033 0.28034 0.28033 0.28033 0.28034 0.28033 0.28033 0.28034 0.28033 0.28033 0.28034 0.28033 0.28033 0.28034 0.28033 0.28033 0.28034 0.28033 0.28033 0.28034 v 6.16733 -6.16733 6.16733 h 0.28033 v -6.16733 h 0.28033 0.28034 0.28033 0.28033 0.28034 0.28033 0.28033 0.28034 0.28033 0.28033 0.28034 0.28033 0.28033 0.28034 0.28033 0.28033 0.28034 0.28033 0.28033 0.28034 0.28033 v 6.16733 h 0.28033 0.28034 0.28033 0.28033 0.28034 0.28033 0.28033 0.28034 0.28033 0.28033 0.28034 0.28033 0.28033 0.28034 0.28033 0.28033 0.28034 0.28033 0.28033 0.28034 0.28033 0.28033 0.28034 0.28033 0.28033 v 6.44767 -6.44767 h 0.28034 0.28033 0.28033 0.28034 0.28033 0.28033 0.28034 0.28033 0.28033 0.28034 0.28033 0.28033 0.28034 0.28033 0.28033 0.28034 0.28033 0.28033 0.28034 0.28033 0.28033 0.28034 0.28033 0.28033 v -6.16733 h 0.28034 v 6.16733 h 0.28033 0.28033 0.28034 0.28033 0.28033 0.28034 0.28033 0.28033 0.28034 0.28033 0.28033 0.28034 0.28033 0.28033 0.28034 0.28033 0.28033 v -6.16733 h 0.28034 v 6.16733 h 0.28033 0.28033 v -6.16733 6.16733 h 0.28034 0.28033 0.28033 0.28034 v -6.16733 6.16733 h 0.28033 0.28033 v -6.16733 h 0.28034 0.28033 v 6.16733 -6.16733 6.16733 -6.16733 6.16733 h 0.28033 v -6.16733 h 0.28034 v 6.16733 h 0.28033 0.28033 v -6.16733 h 0.28034 v 6.16733 h 0.28033 0.28033 0.28034 0.28033 0.28033 0.28034 0.28033 0.28033 0.28034 0.28033 0.28033 0.28034 0.28033 0.28033 0.28034 0.28033 0.28033 0.28034 0.28033 0.28033 0.28034 0.28033 0.28033 0.28034 0.28033 0.28033 0.28034 0.28033 0.28033 0.28034 0.28033 0.28033 0.28034 0.28033 0.28033 0.28034 0.28033 0.28033 0.28034 v 6.44767 -6.44767 h 0.28033 0.28033 v 6.44767 h 0.28034 0.28033 0.28033 0.28034 0.28033 0.28033 0.28034 0.28033 0.28033 0.28034 0.28033 0.28033 0.28034 0.28033 0.28033 v 6.16733 h 0.28034 0.28033 0.28033 0.28034 0.28033 0.28033 0.28034 0.28033 v 6.16734 h 0.28033 0.28034 0.28033 0.28033 0.28034 0.28033 0.28033 0.28034 0.28033 v 0 h -0.28033 -0.28034 -0.28033 -0.28033 -0.28034 -0.28033 -0.28033 -0.28034 -0.28033 -0.28033 -0.28034 -0.28033 -0.28033 -0.28034 -0.28033 -0.28033 -0.28034 -0.28033 -0.28033 -0.28034 -0.28033 -0.28033 -0.28034 -0.28033 -0.28033 -0.28034 -0.28033 -0.28033 -0.28034 -0.28033 -0.28033 -0.28034 -0.28033 -0.28033 -0.28034 -0.28033 -0.28033 -0.28034 -0.28033 -0.28033 -0.28034 -0.28033 -0.28033 -0.28034 -0.28033 -0.28033 -0.28034 -0.28033 -0.28033 -0.28034 -0.28033 -0.28033 -0.28034 -0.28033 -0.28033 -0.28034 -0.28033 -0.28033 -0.28034 -0.28033 -0.28033 -0.28034 -0.28033 -0.28033 -0.28034 -0.28033 -0.28033 -0.28034 -0.28033 -0.28033 -0.28034 -0.28033 -0.28033 -0.28034 -0.28033 -0.28033 -0.28034 -0.28033 -0.28033 -0.28034 -0.28033 -0.28033 -0.28034 -0.28033 -0.28033 -0.28034 -0.28033 -0.28033 -0.28034 -0.28033 -0.28033 -0.28034 -0.28033 -0.28033 -0.28034 -0.28033 -0.28033 -0.28034 -0.28033 -0.28033 -0.28034 -0.28033 -0.28033 -0.28034 -0.28033 -0.28033 -0.28034 -0.28033 -0.28033 -0.28034 -0.28033 -0.28033 -0.28034 -0.28033 -0.28033 -0.28034 -0.28033 -0.28033 -0.28034 -0.28033 -0.28033 -0.28034 -0.28033 -0.28033 -0.28034 -0.28033 -0.28033 -0.28034 -0.28033 -0.28033 -0.28034 -0.28033 -0.28033 -0.28034 -0.28033 -0.28033 -0.28034 -0.28033 -0.28033 -0.28034 -0.28033 -0.28033 -0.28034 -0.28033 -0.28033 -0.28034 -0.28033 -0.28033 -0.28034 -0.28033 -0.28033 -0.28034 -0.28033 -0.28033 -0.28034 -0.28033 -0.28033 -0.28034 -0.28033 -0.28033 -0.28034 -0.28033 -0.28033 -0.28034 -0.28033 -0.28033 -0.28034 -0.28033 -0.28033 -0.28034 -0.28033 -0.28033 -0.28034 -0.28033 -0.28033 -0.28034 -0.28033 -0.28033 -0.28034 -0.28033 -0.28033 -0.28034 -0.28033 -0.28033 -0.28034 -0.28033 -0.28033 -0.28034 -0.28033 -0.28033 -0.28034 -0.28033 -0.28033 -0.28034 -0.28033 -0.28033 -0.28034 -0.28033 -0.28033 -0.28034 -0.28033 -0.28033 -0.28034 -0.28033 -0.28033 -0.28034 -0.28033 -0.28033 -0.28034 -0.28033 -0.28033 -0.28034 -0.28033 -0.28033 -0.28034 -0.28033 -0.28033 -0.28034 -0.28033 -0.28033 -0.28034 -0.28033 -0.28033 -0.28034 -0.28033 -0.28033 -0.28034 -0.28033 -0.28033 -0.28034 -0.28033 -0.28034 -0.28033 -0.28033 -0.28033 -0.28034 -0.28033 -0.28033 -0.28034 -0.28033 -0.28033 -0.28034 -0.28033 -0.28033 -0.280338 -0.28033 -0.28033 -0.28034 -0.28033 -0.28033 -0.28034 -0.28033 -0.28033 -0.28034 -0.28033 -0.28033 -0.28034 -0.28033 -0.28033 -0.28034 -0.28033 -0.28033 -0.28034 -0.28033 -0.28033 -0.28034 -0.28033 -0.28033 -0.28034 -0.28033 -0.28033 -0.28034 -0.28033 -0.28033 -0.28034 -0.28033 -0.28034 -0.28033 -0.28033 -0.28033 -0.28034 -0.28033 -0.28033 -0.28034 -0.28033 -0.28033 -0.28034 -0.28033 -0.28033 -0.28034 -0.28033 -0.28033 -0.28034 -0.28033 -0.28033 -0.28034 -0.28033 -0.28033 -0.28034 -0.28033 -0.28033 -0.28034 -0.28033 -0.28033 -0.28034 -0.28033 -0.28033 -0.28034 v -6.16734 6.16734 h -0.28033 v -6.16734 h -0.28033 v 6.16734 h -0.28034 -0.28033 -0.28033 -0.28034 -0.28033 -0.28033 -0.28034 -0.28033 -0.28033 -0.28034 -0.28033 -0.28034 -0.28033 -0.28033 -0.28033 -0.28034 -0.28033 -0.28033 -0.28034 -0.28033 -0.28033 -0.28034 -0.28033 -0.28033 -0.28034 -0.28033 -0.28033 -0.28034 -0.28033 -0.28033 -0.28034 -0.28033 -0.28033 -0.28034 -0.28033 -0.28033 -0.28034 -0.28033 -0.28033 -0.28034 -0.28033 -0.28033 -0.28034 -0.28033 -0.28033 -0.28034 -0.28033 -0.28033 -0.28034 -0.28033 -0.28033 -0.28034 -0.28033 -0.28033 -0.28034 -0.28033 -0.28033 -0.28034 -0.28033 -0.28033 -0.28034 -0.28033 -0.28033 -0.28034 -0.28033 -0.28033 -0.28034 -0.28033 H 62.320508 62.040176 61.759842 61.479508 61.199174 60.918843 60.638509 60.358175 60.077841 59.79751 59.517176 59.236842 58.956508 58.676177 58.395843 58.115509 57.835175 57.554843 57.274509 56.994175 56.713841 56.43351 56.153176 55.872842 55.592508 55.312174 55.031843 54.751509 54.471175 54.190841 53.910509 53.630175 53.349841 53.069508 52.789176 52.508842 52.228508 51.948174 51.667843 51.387509 51.107175 50.826841 50.54651 50.266176 49.985842 49.705508 49.425176 49.144842 48.864508 48.584174 48.303843 48.023509 47.743175 47.462841 47.18251 46.902176 46.621842 46.341508 46.061177 45.780843 45.500509 45.220175 44.939843 44.659509 44.379175 44.098841 43.818507 43.538176 43.257842 42.977508 42.697174 42.416843 42.136509 41.856175 41.575841 41.295509 41.015176 40.734842 40.454508 40.174176 39.893842 39.613508 39.333174 39.052843 38.772509 38.492175 38.211841 37.93151 37.651176 37.370842 37.090508 36.810176 36.529842 36.249508 35.969174 35.688843 35.408509 35.128175 34.847842 34.567509 34.287175 34.006842 33.726509 33.446175 33.165842 32.885509 32.605175 32.324842 32.044509 31.764175 31.483842 31.203509 30.923175 30.642842 30.362509 30.082175 29.801842 29.521509 29.241175 28.960842 Z"
       id="path37" />
    <path
       style="fill:none;stroke:#000000;stroke-width:0.280333px;stroke-linecap:round;stroke-linejoin:round;stroke-miterlimit:4;stroke-dasharray:none;stroke-opacity:1"
       d="m 28.400175,166.99389 v 0 0 0 0 0 0 h 0.280334 v 0 0 0 0 0 0 0 0 0 0 0 0 0 h 0.280333 v 0 0 0 0 0 0 0 0 0 0 0 0 0 h 0.280333 v 0 0 0 0 0 0 0 0 0 0 0 0 0 h 0.280334 v 0 0 0 0 0 0 0 0 0 0 0 0 0 h 0.280333 v 0 0 0 0 0 0 0 0 0 0 0 0 0 h 0.280333 v 0 0 0 0 0 0 0 0 0 0 0 0 0 h 0.280334 v 0 0 0 0 0 0 0 0 0 0 0 0 0 h 0.280333 v 0 0 0 0 -6.16734 0 0 0 0 0 0 0 0 h 0.280333 v 0 0 0 0 0 0 0 0 0 0 0 0 0 h 0.280334 v 0 0 0 0 0 0 0 0 0 0 0 0 0 h 0.280333 v 0 0 0 0 0 0 0 0 0 0 0 0 0 h 0.280333 v 0 0 0 0 0 0 0 0 0 0 0 0 0 h 0.280334 v 0 0 0 0 0 0 0 0 0 0 0 0 0 h 0.280333 v 0 0 0 0 0 0 0 0 0 0 0 0 0 h 0.280333 v 0 0 0 0 0 0 0 0 0 0 0 0 0 h 0.280334 v 0 0 0 0 0 0 0 0 0 0 0 0 0 h 0.280333 v 0 0 0 0 0 0 0 0 0 0 0 0 0 h 0.280333 v 0 0 0 0 0 0 0 0 0 0 0 0 0 h 0.280334 v -6.16733 0 0 0 0 0 0 0 0 0 0 0 0 h 0.280333 v 0 0 0 0 0 0 0 0 0 0 0 0 0 h 0.280333 v 0 0 0 0 0 0 0 0 0 0 0 0 0 h 0.280334 v 0 0 0 0 0 0 0 0 6.16733 0 0 0 0 h 0.280333 v 0 0 0 0 0 0 0 0 0 0 0 0 0 h 0.280333 v 0 0 0 0 0 0 0 0 0 0 0 0 0 h 0.280334 v 0 0 0 0 0 0 0 0 0 0 0 0 0 h 0.280334 v 0 0 0 0 0 0 0 0 0 0 0 0 0 h 0.280331 v 0 0 0 0 0 0 0 0 0 0 0 0 0 h 0.280334 v 0 0 0 0 0 0 0 0 0 0 0 0 0 h 0.280334 v 0 0 0 0 0 0 0 0 0 0 0 0 0 h 0.280334 v 0 0 0 0 0 0 0 0 0 0 0 0 0 h 0.280332 v 0 0 0 0 0 -6.16733 0 0 0 0 0 0 0 h 0.280334 v 0 0 0 0 0 0 0 0 0 0 0 0 0 h 0.280334 v 0 0 0 0 6.16733 0 0 0 0 0 0 0 0 h 0.280334 v 0 -6.16733 0 0 0 0 0 0 0 0 0 0 0 h 0.280331 v 0 0 0 0 0 0 0 0 0 0 0 0 0 h 0.280334 v 0 0 0 0 0 0 0 0 0 0 0 -6.44767 0 h 0.280334 v 0 0 0 0 0 0 0 0 0 0 0 0 0 l 0.280334,-6.16733 v 0 0 0 0 0 0 0 0 0 0 0 0 0 h 0.280331 v 0 0 0 0 0 0 0 0 0 0 0 0 0 h 0.280334 v 0 0 0 0 0 0 0 0 0 0 0 -6.16733 0 h 0.280334 v 0 0 0 0 0 0 0 0 0 0 0 0 0 h 0.280334 v 0 0 0 0 0 0 0 0 0 0 0 0 0 h 0.280332 v 0 0 -6.16734 0 0 -6.44766 0 0 0 0 0 0 0 h 0.280334 v -6.16734 0 0 0 0 0 0 0 0 0 0 0 0 h 0.280334 v 0 0 0 0 0 0 0 0 0 6.16734 0 0 0 h 0.280333 v 0 0 0 0 0 0 0 0 0 0 0 0 0 h 0.280332 v 0 0 0 0 0 0 0 0 0 0 0 0 0 h 0.280334 v 0 0 0 0 0 6.44766 0 0 0 0 0 0 0 h 0.280334 v 0 0 0 0 0 0 0 0 0 0 0 0 0 h 0.280334 v 0 0 0 0 0 0 0 0 0 0 0 0 -6.44766 h 0.280331 v 0 6.44766 0 0 0 0 0 0 0 0 0 0 0 h 0.280334 v 0 0 0 6.16734 0 0 0 0 0 0 0 0 0 h 0.280334 v 0 0 0 0 0 0 0 0 0 0 0 0 0 h 0.280334 v 0 0 0 0 0 0 0 0 0 0 0 0 0 h 0.280331 v 0 6.16733 0 0 0 0 0 0 0 0 0 0 0 h 0.280334 v 0 0 0 0 0 0 0 0 0 0 0 0 0 h 0.280334 v 0 0 0 0 0 0 6.16733 0 0 6.44767 0 0 0 h 0.280334 v 0 0 0 0 6.16733 0 0 0 0 0 0 0 0 h 0.280334 v 0 0 0 0 0 0 0 0 0 0 0 0 0 h 0.280332 v 0 0 0 0 0 0 0 0 0 0 0 0 0 h 0.280334 v 0 0 0 0 0 0 0 0 0 0 0 0 0 h 0.280334 v 0 0 0 0 0 0 0 0 0 0 0 0 0 h 0.280334 v 0 0 0 0 0 0 0 0 0 0 0 0 0 h 0.280331 v 0 0 0 0 0 0 0 0 0 0 0 0 0 h 0.280334 v 0 0 6.16734 0 0 0 0 0 0 0 0 0 0 h 0.280334 v 0 0 0 0 0 0 0 0 0 0 0 0 0 h 0.280334 v 0 0 0 0 0 0 0 0 0 0 0 0 0 h 0.280331 v 0 0 0 0 0 0 0 0 0 0 0 0 0 h 0.280334 v 0 0 0 0 0 0 0 0 0 0 0 0 0 h 0.280334 v 0 0 0 0 0 0 0 0 0 0 0 0 0 h 0.280334 v 0 0 0 0 0 0 0 0 0 0 0 0 0 h 0.280331 v 0 0 0 0 0 0 0 0 0 0 0 0 0 h 0.280334 v 0 0 0 0 0 0 0 0 0 0 0 0 0 h 0.280334 v 0 0 0 0 0 0 0 0 0 0 0 0 0 h 0.280334 v 0 0 0 0 0 0 0 0 0 0 0 0 0 h 0.280332 v 0 0 0 0 0 0 0 0 0 0 0 0 0 h 0.280334 v 0 0 0 0 0 0 0 0 0 0 0 0 0 h 0.280334 v 0 0 0 0 0 0 0 0 0 0 0 0 0 h 0.280334 v 0 0 0 0 0 0 0 0 0 0 0 0 0 h 0.280331 v 0 0 0 0 0 0 0 0 0 0 0 0 0 h 0.280334 v 0 0 0 0 0 0 0 0 0 0 0 0 0 h 0.280334 v 0 0 0 0 0 0 0 0 0 0 0 0 0 h 0.280334 v 0 0 0 0 0 0 0 0 0 0 0 0 0 h 0.280331 v 0 0 0 0 0 0 0 0 0 0 0 0 0 h 0.280334 v 0 0 0 0 0 0 0 0 0 0 0 0 0 h 0.280334 v 0 0 0 0 0 0 0 0 0 0 0 0 0 h 0.280334 v 0 0 0 0 0 0 0 0 0 0 0 0 0 h 0.280332 v 0 0 0 0 0 0 0 0 0 0 0 0 0 h 0.280333 v 0 0 0 0 0 0 0 0 0 0 0 0 0 h 0.280334 v 0 0 0 0 0 0 0 0 0 0 0 0 0 h 0.280334 v 0 0 0 0 0 0 0 0 0 0 0 0 0 h 0.280332 v 0 0 0 0 0 0 0 0 0 0 0 0 0 h 0.280334 v 0 0 0 0 0 0 0 0 0 0 0 0 0 h 0.280334 v 0 0 0 0 0 0 0 0 0 0 0 0 0 h 0.280334 v 0 0 0 0 0 0 0 0 0 0 0 0 0 h 0.280331 v 0 0 0 0 0 0 0 0 0 0 0 0 0 h 0.280334 v 0 0 0 0 0 0 0 0 0 0 0 0 0 h 0.280334 v 0 0 0 0 0 0 0 0 0 0 0 0 0 h 0.280334 v 0 0 0 0 0 0 0 0 0 0 0 0 0 h 0.280334 v 0 0 0 0 0 0 0 0 0 0 0 0 0 h 0.280331 v 0 0 0 0 0 0 0 0 0 0 0 0 0 h 0.280334 v 0 0 0 0 0 0 0 0 0 0 0 0 0 h 0.280334 v 0 0 0 0 0 0 0 0 0 0 0 0 0 h 0.280334 v 0 0 0 0 0 0 0 0 0 0 0 0 0 h 0.280332 v 0 0 0 0 0 0 0 0 0 0 0 0 0 h 0.280334 v 0 0 0 0 0 0 0 0 0 0 0 0 0 h 0.280334 v 0 0 0 0 0 0 0 0 0 0 0 0 0 h 0.280334 v 0 0 0 0 0 0 0 0 0 0 0 0 0 h 0.280331 v 0 0 0 0 0 0 0 0 0 0 0 0 0 h 0.280334 v 0 0 0 0 0 0 0 0 0 0 0 0 0 h 0.280334 v 0 0 0 0 0 0 0 0 0 0 0 0 0 h 0.280334 v 0 0 0 0 0 0 0 0 0 0 0 0 0 h 0.280331 v 0 0 0 0 0 0 0 0 0 0 0 0 0 h 0.280334 v 0 0 0 0 0 0 0 0 0 0 0 0 0 h 0.280334 v 0 0 0 0 0 0 0 0 0 0 0 0 0 h 0.280334 v 0 0 0 0 0 0 0 0 0 0 0 0 0 h 0.280331 v 0 0 0 0 0 0 0 0 0 0 0 0 0 h 0.280334 v 0 0 0 0 0 0 0 0 0 0 0 0 0 h 0.280334 v 0 0 0 0 0 0 0 0 0 0 0 0 0 h 0.280334 v 0 0 0 0 0 0 0 0 0 0 0 0 0 h 0.280332 v 0 0 0 0 0 0 0 0 0 0 0 0 0 h 0.280334 v 0 0 0 0 0 0 0 0 0 0 0 0 0 h 0.28033 v 0 0 0 0 0 0 0 0 0 0 0 0 0 h 0.28034 v 0 0 0 0 0 0 0 0 0 0 0 0 0 h 0.28033 v 0 0 0 0 0 0 0 0 0 0 0 0 0 h 0.28033 v 0 0 0 0 0 0 0 0 0 0 0 0 0 h 0.28034 v 0 0 0 0 0 0 0 0 0 0 0 0 0 h 0.28033 v 0 0 0 0 0 0 0 0 0 0 0 0 0 h 0.28033 v 0 0 0 0 0 0 0 0 0 0 0 0 0 h 0.28034 v 0 0 0 0 0 0 0 0 0 0 0 0 0 h 0.28033 v 0 0 0 0 0 0 0 0 0 0 0 0 0 h 0.28033 v 0 0 0 0 0 0 0 0 0 0 0 0 0 h 0.28034 v 0 0 0 0 0 0 0 0 0 0 0 0 0 h 0.28033 v 0 0 0 0 0 0 0 0 0 0 0 0 0 h 0.28033 v 0 0 0 0 0 0 0 0 0 0 0 0 0 h 0.28034 v 0 0 0 0 0 0 0 0 0 0 0 0 0 h 0.28033 v 0 0 0 0 0 0 0 0 0 0 0 0 0 h 0.28033 v 0 0 0 0 0 0 0 0 0 0 0 0 0 h 0.28034 v 0 0 0 0 0 0 0 0 0 0 0 0 0 h 0.28033 v 0 0 0 0 0 0 0 0 0 0 0 -6.16734 0 h 0.28033 v 0 0 0 0 0 0 0 0 0 0 0 0 0 h 0.28034 v 0 0 0 0 0 0 0 0 0 0 0 0 0 h 0.28033 v 0 0 0 0 0 0 0 0 0 0 0 0 0 h 0.28033 v 0 0 0 0 0 0 0 0 0 0 0 0 0 h 0.28034 v 0 0 0 0 0 0 0 0 0 0 0 0 0 h 0.28033 v 0 0 0 0 0 0 0 0 0 0 0 0 0 h 0.28033 v 0 0 0 0 0 0 0 0 0 0 0 0 0 h 0.28034 v 0 0 0 0 0 0 0 0 0 0 0 0 0 h 0.28033 v 0 0 0 0 0 0 0 0 0 0 0 0 0 h 0.28033 v 0 0 0 0 0 0 0 0 0 0 0 0 0 h 0.28034 v 0 0 0 0 0 0 0 0 0 0 0 0 0 h 0.28033 v 0 0 0 0 0 0 0 0 0 0 0 0 0 h 0.28033 v 0 0 0 0 0 0 0 0 0 0 0 0 0 h 0.28034 v 0 0 0 0 0 0 0 0 0 0 0 0 0 h 0.28033 v 0 6.16734 0 0 0 0 0 0 0 0 0 0 0 h 0.28033 v 0 0 0 0 0 0 0 0 0 0 0 0 0 h 0.28034 v 0 0 0 0 0 0 0 0 0 0 0 0 0 h 0.28033 v 0 0 0 0 0 0 0 0 0 0 0 0 0 h 0.28033 v 0 0 0 0 0 0 0 0 0 0 0 0 0 h 0.28034 v 0 0 0 0 0 0 0 0 0 0 0 0 0 h 0.28033 v 0 0 0 0 0 0 0 0 0 0 0 0 0 h 0.28033 v 0 0 0 0 0 0 0 0 0 0 0 0 0 h 0.28034 v 0 0 0 0 0 0 0 0 0 0 0 0 0 h 0.28033 v 0 0 0 0 0 0 0 0 0 0 0 0 0 h 0.28033 v 0 0 0 0 0 0 0 0 0 0 0 0 0 h 0.28034 v 0 0 0 0 0 0 0 0 0 0 0 0 0 h 0.28033 v 0 0 0 0 0 0 0 0 0 0 0 0 0 h 0.28033 v 0 0 0 0 0 0 0 0 0 0 0 0 0 h 0.28034 v 0 0 0 0 0 0 0 0 0 -6.16734 0 0 0 h 0.28033 v 0 0 0 0 0 0 0 0 0 0 0 0 0 h 0.28033 v 0 0 0 0 0 0 0 0 0 0 0 0 0 h 0.28034 v 0 0 0 0 0 0 0 0 0 0 0 0 0 l 0.28033,-6.16733 v 0 0 0 0 0 0 0 0 0 0 0 0 0 h 0.28033 v 0 0 0 0 0 0 0 0 0 0 0 0 0 h 0.28034 v 0 0 0 0 0 0 0 0 0 0 0 0 0 h 0.28033 v 0 0 0 0 0 0 0 0 0 0 0 0 0 h 0.28033 v 0 0 0 0 0 0 0 0 0 0 0 0 0 h 0.28033 v 0 0 0 0 0 0 0 0 0 0 0 0 0 h 0.28034 v 0 0 0 0 0 0 0 0 0 0 0 0 0 h 0.28033 v 0 0 0 0 0 0 0 0 0 0 0 0 0 h 0.28034 v 0 0 0 0 0 0 0 0 0 0 0 0 0 h 0.28033 v 0 0 0 0 0 0 0 0 0 0 0 0 0 h 0.28033 v 0 0 0 0 0 0 0 0 0 0 0 0 0 l 0.28034,6.16733 v 0 0 0 0 0 0 0 0 0 0 0 0 0 h 0.28033 v 0 0 0 0 0 0 0 0 0 0 0 0 0 h 0.28033 v 0 0 0 0 0 0 0 0 0 0 0 0 0 h 0.28034 v 0 0 0 6.16734 0 0 0 0 0 0 0 0 0 h 0.28033 v 0 0 0 0 0 0 0 0 0 0 0 0 0 h 0.28033 v 0 0 0 0 0 0 0 0 0 0 0 0 0 h 0.28034 v 0 0 0 0 0 0 0 0 0 0 0 0 0 h 0.28033 v 0 0 0 0 0 0 0 0 0 0 0 0 0 h 0.28033 v 0 0 0 0 0 0 0 0 0 0 0 0 0 h 0.28034 v 0 0 0 0 0 0 0 0 0 -6.16734 0 0 0 h 0.28033 v 0 0 0 0 0 0 0 0 0 0 0 0 0 h 0.28033 v 0 0 0 0 0 0 0 -6.16733 0 0 0 0 0 h 0.28034 v 0 0 0 0 0 0 -6.44767 0 0 0 0 0 0 h 0.28033 v 0 0 0 0 0 0 0 0 0 0 0 0 0 h 0.28033 v 0 0 0 0 0 0 0 0 0 0 0 0 0 h 0.28034 v 0 0 0 0 0 0 0 0 0 0 0 0 0 l 0.28033,-6.16733 v 0 0 0 0 0 0 0 0 0 0 0 0 0 h 0.28033 v 0 0 0 0 -6.16733 0 0 -6.16734 0 0 0 0 -6.44766 h 0.28034 v 0 0 0 0 0 0 0 0 0 0 0 0 0 h 0.28033 v 0 0 0 0 0 0 0 0 0 0 0 0 0 h 0.28033 v 0 0 0 0 0 0 0 0 0 0 0 0 0 h 0.28034 v 0 0 0 0 0 0 -6.16734 0 0 0 0 0 0 h 0.28033 v 0 0 0 0 0 0 0 0 0 0 0 0 0 h 0.28033 v 0 0 0 0 0 0 0 0 0 0 0 0 0 l 0.28034,6.16734 v 0 0 0 0 0 0 -12.33467 0 0 0 0 0 0 h 0.28033 v 0 0 0 0 0 0 0 0 0 0 0 6.16733 0 h 0.28033 v 0 0 0 0 0 0 0 0 0 0 6.16734 0 0 h 0.28034 v 0 0 0 0 -6.16734 0 0 0 0 0 -6.16733 0 0 h 0.28033 v 0 0 0 0 0 0 0 0 0 0 0 0 0 h 0.28033 v 0 0 0 0 0 0 0 0 0 0 0 0 0 h 0.28034 v 0 0 0 6.16733 0 0 0 0 0 0 0 0 0 h 0.28033 v 0 0 0 0 0 0 0 0 6.16734 0 0 6.44766 0 h 0.28033 v 0 0 6.16734 0 0 0 0 0 0 0 0 0 0 h 0.28034 v 0 0 0 0 0 0 -6.16734 0 0 0 0 0 0 h 0.28033 v 0 0 0 0 -6.44766 0 0 0 0 0 0 0 0 h 0.28033 v 0 0 0 0 0 0 0 0 -6.16734 0 6.16734 0 0 h 0.28034 v 0 0 0 0 0 0 0 0 0 0 0 0 0 h 0.28033 v 0 0 0 0 0 0 -6.16734 0 0 0 0 0 0 h 0.28033 v 0 0 0 0 0 0 0 0 0 0 12.615 0 0 h 0.28033 v 0 0 0 0 0 0 0 0 0 0 0 0 0 h 0.28034 v 0 0 0 0 0 0 0 0 0 0 0 0 0 h 0.28033 v 0 0 0 0 0 0 0 0 6.16734 0 0 0 0 h 0.28034 v 6.16733 0 0 0 0 0 0 0 0 0 0 0 -6.16733 h 0.28033 v 0 0 0 0 0 0 0 0 0 0 0 0 0 h 0.28033 v 0 0 0 0 0 0 0 0 0 0 0 0 0 h 0.28034 v 0 0 0 0 0 0 0 0 0 0 0 0 -6.16734 h 0.28033 v 0 0 0 0 0 0 0 0 0 0 0 0 0 h 0.28033 v 0 0 0 0 0 0 0 0 0 0 6.16734 0 0 h 0.28034 v 0 0 0 0 0 0 0 0 6.16733 0 0 0 0 h 0.28033 v 0 0 0 0 0 0 0 0 0 0 0 0 6.16733 h 0.28033 v 0 0 0 0 0 0 0 0 0 0 0 0 0 h 0.28034 v 0 0 0 0 0 0 0 0 0 0 6.44767 0 0 h 0.28033 v 0 0 0 0 0 0 0 0 0 0 0 0 0 h 0.28033 v 0 0 0 0 0 0 0 0 0 0 0 0 0 h 0.28034 v 0 0 0 0 0 0 0 0 0 0 0 0 0 h 0.28033 v 0 0 0 0 0 0 0 0 0 0 0 0 0 h 0.28033 v 0 0 0 0 0 0 0 0 0 0 0 0 0 h 0.28034 v 0 0 6.16733 0 0 0 0 0 0 0 0 0 0 h 0.28033 v 0 0 0 0 0 0 0 0 0 0 0 0 0 h 0.28033 v 0 0 0 0 0 0 0 0 0 0 0 0 0 h 0.28034 v 0 0 6.16734 0 0 0 0 0 0 0 0 0 0 h 0.28033 v 0 0 0 0 0 0 0 0 0 0 0 0 0 h 0.28033 v 0 0 0 0 0 0 0 0 0 0 0 0 0 h 0.28034 v 0 0 0 0 0 0 0 0 0 0 0 0 0 h 0.28033 v 0 0 0 0 0 0 0 0 0 0 0 0 0 h 0.28033 v 0 0 0 0 0 0 0 0 0 0 0 0 0 h 0.28034 v 0 0 0 0 -6.16734 0 0 0 0 0 0 0 0 0 h 0.28033 v 0 0 0 0 0 0 0 0 0 0 0 0 0 h 0.28033 v 0 0 0 0 0 0 0 0 0 0 0 0 0 h 0.28034 v 0 0 0 0 0 0 0 0 0 0 0 0 0 h 0.28033 v 0 0 0 0 0 0 0 0 0 0 0 0 0 h 0.28033 v 0 0 0 0 0 0 0 0 0 0 0 0 0 h 0.280338 v 0 0 0 0 0 0 0 0 0 0 0 0 0 h 0.28033 v 0 0 0 0 0 0 0 0 0 0 0 0 0 h 0.28033 v 0 0 0 0 0 0 0 0 0 0 0 0 -6.16733 h 0.28034 v 0 0 0 0 0 0 0 0 0 0 0 0 0 h 0.28033 v 0 0 0 0 0 0 0 0 0 0 0 0 0 h 0.28033 v 0 0 0 0 0 0 0 0 0 0 0 0 0 h 0.28034 v 0 0 0 0 0 0 0 0 0 0 0 0 0 h 0.28033 v 0 0 0 0 0 0 0 0 0 0 0 0 0 h 0.28033 v 0 0 0 0 0 0 0 6.16733 0 0 0 0 0 h 0.28034 v 0 0 0 0 0 0 0 0 0 0 0 0 0 h 0.28033 v 0 0 0 0 0 0 0 0 0 0 0 0 0 h 0.28033 v 0 0 0 0 0 0 0 0 0 0 0 0 0 h 0.28033 v 0 0 0 0 0 0 0 0 0 0 0 0 0 h 0.28034 v 0 0 0 0 0 0 0 0 0 0 0 0 0 h 0.28033 v 0 0 0 0 0 0 0 0 0 0 0 0 0 h 0.28034 v 0 0 0 0 0 0 0 0 0 0 0 0 0 h 0.28033 v 0 0 0 0 0 0 0 0 0 0 0 0 0 h 0.28033 v 0 0 0 6.16734 0 0 0 0 0 0 0 0 0 h 0.28034 v 0 0 0 0 0 0 0 0 0 0 0 0 0 h 0.28033 v 0 0 0 0 0 0 0 0 0 0 0 0 0 h 0.28033 v 0 0 0 0 0 0 0 0 0 0 0 0 0 h 0.28034 v 0 0 0 0 0 0 0 0 0 0 0 0 0 h 0.28033 v 0 0 0 0 0 0 0 0 0 0 0 0 0 h 0.28033 v 0 0 0 0 0 0 0 0 0 0 0 0 0 h 0.28034 v 0 0 0 0 0 0 0 0 0 0 0 0 0 h 0.28033 v 0 0 0 0 0 0 0 0 0 0 0 0 0 h 0.28033 v 0 0 0 0 0 0 0 0 0 0 0 0 0 h 0.28034 v 0 0 0 0 0 0 0 0 0 0 0 0 0 h 0.28033 v 0 0 0 0 0 0 0 0 0 0 0 0 0 h 0.28033 v 0 0 0 0 0 0 0 0 0 0 0 0 0 h 0.28034 v 0 0 0 0 0 0 0 0 0 0 0 0 0 h 0.28033 v 0 0 0 0 0 0 0 -6.16734 0 0 0 0 0 h 0.28033 v 0 0 0 0 0 0 0 0 0 0 0 0 0 h 0.28034 v 0 0 0 0 0 0 0 0 0 0 0 0 0 h 0.28033 v 0 0 0 0 0 0 0 0 0 0 0 0 0 h 0.28033 v 0 0 0 0 0 0 0 0 0 0 0 0 0 h 0.28034 v 0 0 0 0 0 0 0 0 0 0 0 0 0 h 0.28033 v 0 0 0 0 0 0 0 0 0 0 0 0 0 h 0.28033 v 0 0 0 0 0 0 0 0 0 0 0 0 0 h 0.28034 v 0 0 -6.16733 0 0 -6.44767 0 0 0 0 0 0 0 h 0.28033 v 0 0 0 0 0 0 0 0 0 0 0 0 0 h 0.28033 v 0 0 0 0 0 0 0 0 0 0 0 0 0 h 0.28034 v 0 0 0 0 0 0 0 0 0 0 0 0 0 l 0.28033,-6.16733 v 0 0 0 0 0 0 0 0 0 0 0 0 0 h 0.28033 v 0 0 0 0 0 0 0 0 0 0 0 0 0 h 0.28034 v 0 0 0 0 0 0 0 0 0 0 0 6.16733 0 h 0.28033 v 0 0 0 0 0 0 0 0 0 0 0 0 0 h 0.28033 v 0 0 0 0 0 0 0 0 0 0 0 0 0 h 0.28034 v 0 0 0 0 0 0 0 0 0 0 0 0 0 h 0.28033 v 0 0 0 0 0 0 0 0 0 0 0 0 0 h 0.28033 v 0 0 0 0 0 0 0 0 0 0 0 0 0 h 0.28034 v 0 0 0 0 0 0 0 0 0 0 0 0 0 h 0.28033 v 0 0 0 0 0 0 0 0 0 0 0 -6.16733 0 h 0.28033 v 0 0 0 0 0 0 6.16733 0 0 6.44767 0 0 0 h 0.28034 v 0 0 0 0 0 0 0 0 0 0 0 0 0 h 0.28033 v 0 0 0 0 0 0 0 0 0 0 0 0 0 h 0.28033 v 0 0 0 0 0 0 0 0 0 0 0 0 0 h 0.28034 v 0 0 0 6.16733 0 0 0 0 0 0 0 0 0 h 0.28033 v 0 0 0 0 0 0 0 0 0 0 0 0 0 h 0.28033 v 0 0 0 0 0 0 0 0 0 0 0 0 0 h 0.28034 v 0 0 0 0 0 0 0 0 0 0 0 0 0 h 0.28033 v 0 0 0 0 0 0 0 0 0 0 0 0 0 h 0.28033 v 0 0 0 0 0 0 0 0 0 0 0 0 0 h 0.28034 v 0 0 0 0 0 0 0 0 0 0 0 0 0 h 0.28033 v 0 0 0 0 0 0 0 0 0 0 0 0 0 h 0.28033 v 0 0 0 0 0 0 0 0 0 0 0 0 0 h 0.28034 v 0 0 0 0 0 0 0 0 0 0 0 0 0 h 0.28033 v 0 6.16734 0 0 0 0 0 0 0 0 0 0 0 h 0.28033 v 0 0 0 0 0 0 0 0 0 0 0 0 0 h 0.28034 v 0 0 0 0 0 0 0 0 0 0 0 0 0 h 0.28033 v 0 0 0 0 0 0 0 0 0 0 0 0 0 h 0.28033 v 0 0 0 0 0 0 0 0 0 0 0 0 0 h 0.28034 v 0 0 0 0 0 0 0 0 0 0 0 0 0 h 0.28033 v 0 0 0 0 0 0 0 0 0 0 0 0 0 h 0.28033 v 0 0 0 0 0 0 0 0 0 0 0 0 0 h 0.28034 v 0 0 0 0 0 0 0 0 0 0 0 0 0 h 0.28033 v 0 0 0 0 0 0 0 0 0 0 0 0 0 h 0.28033 v 0 0 0 0 0 0 0 0 0 0 0 0 0 h 0.28034 v 0 0 0 0 0 0 0 0 0 -6.16734 0 0 0 h 0.28033 v 0 0 0 0 0 0 0 0 0 0 0 0 0 h 0.28033 v 0 0 0 0 0 0 0 0 0 0 0 0 0 h 0.28034 v 0 0 0 0 0 0 0 0 0 0 0 0 0 h 0.28033 v 0 0 0 0 0 0 0 0 0 0 0 0 0 h 0.28033 v 0 0 0 0 0 0 0 0 0 0 0 0 0 h 0.28034 v 0 0 0 0 0 0 0 0 0 0 0 0 0 h 0.28033 v 0 0 0 0 0 0 0 0 0 0 0 0 0 h 0.28033 v 0 0 0 0 0 0 0 0 0 0 0 0 0 h 0.28034 v 0 0 0 0 0 0 0 0 0 0 0 0 0 h 0.28033 v 0 0 0 0 0 0 0 0 0 0 0 0 0 h 0.28033 v 0 0 0 0 0 0 0 0 0 0 0 0 0 h 0.28034 v 0 0 0 0 0 0 0 0 0 0 0 0 0 h 0.28033 v 0 0 0 0 0 0 0 0 0 0 0 0 0 h 0.28033 v 0 0 0 0 0 0 0 0 0 0 0 0 0 l 0.28034,6.16734 v 0 0 0 0 0 0 0 0 0 0 0 0 0 h 0.28033 v 0 0 0 0 0 0 0 0 0 0 0 0 0 h 0.28033 v 0 0 0 0 0 0 0 0 0 0 0 0 0 h 0.28034 v 0 0 0 0 0 0 0 0 0 0 0 0 0 h 0.28033 v 0 0 0 0 0 0 0 0 0 0 0 0 0 h 0.28033 v 0 0 0 0 0 0 0 0 0 0 0 0 0 h 0.28034 v 0 0 0 0 0 0 0 0 0 0 0 0 0 h 0.28033 v 0 0 0 0 0 0 0 0 0 0 0 0 0 h 0.28033 v 0 0 0 0 0 0 0 0 0 0 0 0 0 h 0.28034 v 0 0 0 0 0 0 0 0 0 0 0 0 0 h 0.28033 v 0 0 0 0 0 0 0 0 0 0 0 0 0 h 0.28033 v 0 0 0 0 0 0 0 0 0 0 0 0 0 h 0.28034 v 0 0 0 0 0 0 0 0 0 0 0 0 0 h 0.28033 v 0 0 0 0 0 0 0 0 0 0 0 0 0 h 0.28033 v 0 0 0 0 0 0 0 0 0 0 0 0 0 h 0.28034 v 0 0 0 0 0 0 0 0 0 0 0 0 0 h 0.28033 v 0 0 0 0 0 0 0 0 0 0 0 0 0 h 0.28033 v 0 0 0 0 0 0 0 0 0 0 0 0 0 h 0.28034 v 0 0 0 0 0 0 0 0 0 0 0 0 0 h 0.28033 v 0 0 0 0 0 0 0 0 0 0 0 0 0 h 0.28033 v 0 0 0 0 0 0 0 0 0 0 0 0 0 h 0.28034 v 0 0 0 0 0 0 0 0 0 0 0 0 0 h 0.28033 v 0 0 0 0 0 0 0 0 0 0 0 0 0 h 0.28033 v 0 0 0 0 0 0 0 0 -6.16734 0 0 0 0 h 0.28034 v 0 0 0 0 0 0 0 0 0 0 0 0 0 h 0.28033 v 0 0 0 0 0 0 0 0 0 0 0 0 0 h 0.28033 v 0 0 0 0 0 0 0 0 0 0 0 0 0 h 0.28034 v 0 0 0 0 0 0 0 0 0 0 0 0 0 h 0.28033 v 0 0 0 0 0 0 0 0 0 0 0 0 0 h 0.28033 v 0 0 0 0 0 0 0 0 0 0 0 0 0 h 0.28034 v 0 0 0 0 0 0 0 0 0 0 0 0 0 h 0.28033 v 0 0 0 0 0 0 0 0 0 0 0 0 0 h 0.28033 v 0 0 0 0 0 0 0 -6.16733 0 0 0 0 0 h 0.28034 v 0 0 0 0 0 0 0 0 0 0 0 0 0 h 0.28033 v 0 0 0 0 0 0 0 0 0 0 0 0 0 h 0.28033 v 0 0 0 0 0 0 0 0 0 0 0 0 0 h 0.28034 v 0 0 0 0 0 0 0 0 0 0 0 0 0 h 0.28033 v 0 0 0 0 0 0 0 0 0 0 0 0 6.16733 h 0.28033 v 0 0 0 0 0 0 0 0 0 0 0 0 0 h 0.28034 v 0 0 0 0 0 0 0 0 0 0 0 0 0 h 0.28033 v 0 0 0 0 0 0 0 0 0 0 0 0 0 h 0.28033 v 0 0 0 0 0 0 0 0 0 0 0 0 0 h 0.28034 v 0 0 0 0 0 0 0 0 0 0 0 0 0 h 0.28033 v 0 0 0 0 0 0 0 0 0 0 0 0 -6.16733 h 0.28033 v 0 0 0 0 0 0 0 0 0 0 0 0 0 h 0.28034 v 0 0 0 0 0 0 0 0 0 0 0 0 0 h 0.28033 v 0 0 0 0 0 0 0 0 0 0 0 6.16733 0 h 0.28033 v 0 0 0 0 0 0 0 0 0 0 0 0 0 h 0.28034 v 0 0 0 0 0 0 0 0 0 0 0 0 0 h 0.28033 v 0 0 0 0 0 0 0 0 0 0 0 0 0 h 0.28033 v 0 0 0 0 0 0 0 0 0 0 0 0 0 h 0.28034 v 0 0 0 0 0 0 0 0 0 0 0 0 0 h 0.28033 v 0 0 0 0 0 0 0 0 0 0 0 0 0 h 0.28033 v 0 0 0 0 0 0 0 0 0 0 0 0 0 h 0.28034 v 0 0 0 0 0 0 0 0 0 0 0 0 0 h 0.28033 v 0 0 0 0 0 0 0 0 0 0 0 0 0 h 0.28033 v 0 0 0 0 0 0 0 0 0 0 0 0 0 h 0.28034 v 0 0 0 0 0 0 0 0 0 0 0 0 0 h 0.28033 v 0 0 6.16734 0 0 0 0 0 0 0 0 0 0 h 0.28033 v 0 0 0 0 0 0 0 0 0 0 0 0 0 h 0.28034 v 0 0 0 0 0 0 0 0 0 0 0 0 0 h 0.28033 v 0 0 0 0 0 0 0 0 0 0 0 0 0 h 0.28033 v 0 0 0 0 0 0 0 0 0 0 0 0 0 h 0.28034 v 0 0 0 0 0 0 0 0 0 0 0 0 0 h 0.28033 v 0 0 0 0 0 0 0 0 0 0 0 0 0 h 0.28033 v 0 0 0 0 0 0 0 0 0 0 0 0 0 h 0.28034 v 0 0 0 0 0 0 0 0 0 0 0 0 0 h 0.28033 v 0 0 0 0 0 0 0 0 0 0 0 0 0 h 0.28033 v 0 0 0 0 0 0 0 0 0 0 0 0 0 h 0.28034 v 0 0 0 0 0 0 0 0 0 0 0 0 0 h 0.28033 v 0 0 0 0 0 0 0 0 0 0 0 0 0 h 0.28033 v 0 0 0 0 0 0 0 0 0 0 0 0 0 h 0.28034 v 0 0 0 0 0 0 0 0 0 0 0 0 0 h 0.28033 v 0 0 0 0 0 0 0 0 0 0 0 0 0 h 0.28033 v 0 0 0 0 0 0 0 0 0 0 0 0 0 h 0.28034 v 0 0 0 0 0 0 0 0 0 0 0 0 0 h 0.28033 v 0 0 0 0 0 0 0 0 0 0 0 0 0 h 0.28033 v 0 0 0 0 0 0 0 0 0 0 0 0 0 h 0.28034 v 0 0 0 0 0 0 0 0 0 0 0 0 0 h 0.28033 v 0 0 0 0 0 0 0 0 0 0 0 0 0 h 0.28033 v 0 0 0 0 0 0 0 0 0 0 0 0 0 h 0.28034 v 0 0 0 0 0 0 0 0 0 0 0 0 0 h 0.28033 v 0 0 0 0 0 0 0 0 0 0 0 0 0 h 0.28033 v 0 0 0 0 -6.16734 0 0 0 0 0 0 0 0 h 0.28034 v 0 0 0 0 0 0 0 0 0 0 0 0 0 h 0.28033 v 0 0 0 0 0 0 0 0 0 0 0 0 0 h 0.28033 v 0 0 0 0 0 0 0 0 0 0 0 0 0 h 0.28034 v 0 0 0 0 0 0 0 0 0 0 0 0 0 h 0.28033 v 0 0 0 0 0 0 0 0 0 0 0 0 0 h 0.28033 v 0 0 0 0 -6.16733 0 0 0 0 0 0 0 0 h 0.28034 v 0 0 0 0 0 0 0 0 0 0 0 0 0 h 0.28033 v 0 0 0 0 0 0 0 0 0 0 0 -6.44767 0 h 0.28033 v 0 0 0 0 0 0 0 0 0 0 0 0 0 h 0.28034 v 0 0 0 0 0 0 0 0 0 0 0 0 0 h 0.28033 v 0 0 0 0 0 0 0 0 -6.16733 0 0 0 0 h 0.28033 v 0 0 0 0 0 0 0 0 0 0 0 0 0 h 0.28034 v 0 0 0 0 0 0 0 0 0 0 0 0 0 h 0.28033 v 0 0 0 0 0 0 0 0 6.16733 0 0 0 0 h 0.28033 v 0 0 0 0 0 0 0 0 0 0 0 0 0 h 0.28034 v 0 0 0 0 0 0 0 0 0 0 0 0 0 h 0.28033 v 0 0 0 0 0 0 0 0 0 0 0 0 0 h 0.28033 v 0 0 0 0 0 0 0 0 0 0 0 0 0 h 0.28034 v 0 0 0 0 0 0 0 0 0 0 0 0 0 h 0.28033 v 0 0 0 0 0 0 0 0 6.44767 0 0 0 0 h 0.28033 v 0 0 0 0 0 0 0 0 0 0 0 0 0 h 0.28034 v 0 0 0 0 0 0 0 0 0 0 0 0 0 h 0.28033 v 0 6.16733 0 0 0 0 0 0 0 0 0 0 0 h 0.28033 v 0 0 0 0 0 0 0 0 0 0 0 0 0 h 0.28034 v 0 0 0 0 0 0 0 0 0 0 0 0 6.16734 h 0.28033 v 0 0 0 0 0 0 0 0 0 0 0 0 0 h 0.28033 v 0 0 0 0 0 0 0 0 0 0 0 0 0 h 0.28034 v 0 0 0 0 0 0 0 0 0 0 0 0 0 h 0.28033 v 0 0 0 0 0 0 0 0 0 0 0 0 0 h 0.28033 v 0 0 0 0 0 0 0 0 0 0 0 0 0 h 0.28034 v 0 0 0 0 0 0 0 0 0 0 0 0 0 h 0.28033 v 0 0 0 0 0 0 0 0 0 0 0 -6.16734 0 h 0.28033 v 0 0 0 0 0 0 0 0 0 0 0 0 0 h 0.28034 v 0 0 0 0 0 0 0 0 0 0 0 0 0 h 0.28033 v 0 0 0 0 0 0 0 0 0 0 0 0 0 h 0.28033 v 0 0 0 0 0 0 0 0 0 0 0 0 0 h 0.28034 v 0 0 0 0 0 0 0 0 0 0 0 0 0 h 0.28033 v 0 0 0 0 0 0 0 0 0 0 0 0 0 h 0.28033 v 0 0 0 0 0 0 0 0 0 0 0 0 0 h 0.28034 v 0 0 0 0 0 0 0 0 0 0 0 0 0 h 0.28033 v 0 0 0 0 0 0 0 0 0 0 0 0 0 h 0.28033 v 0 0 0 0 0 0 0 0 0 0 0 0 0 h 0.28034 v 0 0 0 0 0 0 0 0 0 0 0 0 0 h 0.28033 v 0 0 0 0 0 0 0 0 0 0 0 0 0 h 0.28033 v 0 0 0 0 0 0 0 0 0 0 0 0 0 h 0.28034 v 0 0 0 0 0 0 0 0 0 0 0 0 0 h 0.28033 v 0 6.16734 0 0 0 0 0 0 0 0 0 0 0 h 0.28033 v 0 0 0 0 0 0 0 0 0 0 0 0 0 h 0.28034 v 0 0 0 0 0 0 0 0 0 0 0 0 0 h 0.28033 v 0 0 0 0 0 0 0 0 0 0 0 0 0 h 0.28033 v 0 0 0 0 0 0 0 0 0 0 0 0 0 h 0.28034 v 0 0 0 0 0 0 0 0 0 0 0 0 0 h 0.28033 v 0 0 0 0 0 0 0 0 0 0 0 0 0 h 0.28033 v 0 0 0 0 0 0 0 0 0 0 0 0 0 h 0.28034 v 0 0 0 0 0 0 0 0 0 0 0 0 0 h 0.28033 v 0 0 0 0 0 0 0 0 0 0 0 0 0 h 0.28033 v 0 0 0 0 0 0 0 0 0 0 0 0 0 h 0.28034 v 0 0 0 0 0 0 0 0 0 0 0 0 0 h 0.28033 v 0 0 0 0 0 0 0 0 0 0 0 0 0 h 0.28033 v 0 0 0 0 0 0 0 0 0 0 0 0 0 h 0.28034 v 0 0 0 0 0 0 0 0 0 0 0 0 0 h 0.28033 v 0 0 0 0 0 0 0 0 0 0 0 0 0 h 0.28033 v 0 0 0 0 0 0 0 0 0 0 0 0 0 h 0.28034 v 0 0 0 0 0 0 0 0 0 0 0 0 0 h 0.28033 v 0 0 0 0 0 0 0 0 0 0 0 0 0 h 0.28033 v 0 0 0 0 0 0 0 0 0 0 0 0 0 h 0.28034 v 0 0 0 0 0 0 0 0 0 0 0 0 0 h 0.28033 v 0 0 0 0 0 0 0"
       id="path38" />
    <text
       xml:space="preserve"
       style="font-style:normal;font-variant:normal;font-weight:400;font-size:3.91914px;line-height:125%;font-family:Arial;text-align:start;letter-spacing:0px;word-spacing:0px;text-anchor:start;fill:#000000;fill-opacity:1;stroke:none;stroke-width:0.264583"
       transform="rotate(-90)"
       x="-162.22823"
       y="12.324739"
       id="text39"><tspan
         sodipodi:role="line"
         x="-162.22823"
         y="12.324739"
         id="tspan39"
         style="stroke-width:0.264583"><tspan
           dx="0"
           dy="0"
           style="font-style:normal;font-variant:normal;font-weight:400;font-size:3.91914px;font-family:Arial;fill:#000000;stroke-width:0.264583"
           id="tspan38">Breakpoints per 200 nt window</tspan></tspan></text>
  </g>
</svg>
