<?xml version="1.0" encoding="UTF-8" standalone="no"?>
<!-- Created with Inkscape (http://www.inkscape.org/) -->

<svg
   width="210mm"
   height="297mm"
   viewBox="0 0 210 297"
   version="1.1"
   id="svg1"
   inkscape:version="1.3.2 (091e20e, 2023-11-25, custom)"
   sodipodi:docname="Asia1.svg"
   xmlns:inkscape="http://www.inkscape.org/namespaces/inkscape"
   xmlns:sodipodi="http://sodipodi.sourceforge.net/DTD/sodipodi-0.dtd"
   xmlns="http://www.w3.org/2000/svg"
   xmlns:svg="http://www.w3.org/2000/svg">
  <sodipodi:namedview
     id="namedview1"
     pagecolor="#ffffff"
     bordercolor="#999999"
     borderopacity="1"
     inkscape:showpageshadow="2"
     inkscape:pageopacity="0"
     inkscape:pagecheckerboard="0"
     inkscape:deskcolor="#d1d1d1"
     inkscape:document-units="mm"
     inkscape:zoom="0.67405157"
     inkscape:cx="182.47862"
     inkscape:cy="533.34198"
     inkscape:window-width="1920"
     inkscape:window-height="1017"
     inkscape:window-x="-8"
     inkscape:window-y="-8"
     inkscape:window-maximized="1"
     inkscape:current-layer="layer1" />
  <defs
     id="defs1">
    <pattern
       id="EMFhbasepattern"
       patternUnits="userSpaceOnUse"
       width="6"
       height="6"
       x="0"
       y="0" />
  </defs>
  <g
     inkscape:label="Слой 1"
     inkscape:groupmode="layer"
     id="layer1">
    <path
       style="fill:none;stroke:#000000;stroke-width:0.280333px;stroke-linecap:round;stroke-linejoin:round;stroke-miterlimit:4;stroke-dasharray:none;stroke-opacity:1"
       d="m 21.527504,119.56651 v 2.80333 h 1.401667 -1.401667 v 14.01667 h 1.401667 -1.401667 v 14.01666 h 1.401667 -1.401667 v 14.01667 h 1.401667 -1.401667 v 14.01667 h 1.401667 -1.401667 v 2.80333 h 2.803333 v -1.40167 1.40167 h 35.041665 v -1.40167 1.40167 H 94.41417 v -1.40167 1.40167 h 35.04166 v -1.40167 1.40167 h 35.04167 v -1.40167 1.40167 h 2.80333"
       id="path1" />
    <text
       xml:space="preserve"
       style="font-style:normal;font-variant:normal;font-weight:400;font-size:3.91914px;line-height:125%;font-family:Arial;text-align:start;letter-spacing:0px;word-spacing:0px;text-anchor:start;fill:#000000;fill-opacity:1;stroke:none;stroke-width:0.264583"
       x="23.77017"
       y="186.18941"
       id="text2"><tspan
         sodipodi:role="line"
         x="23.77017"
         y="186.18941"
         id="tspan2"
         style="stroke-width:0.264583"><tspan
           dx="0"
           dy="0"
           style="font-style:normal;font-variant:normal;font-weight:400;font-size:3.91914px;font-family:Arial;fill:#000000;stroke-width:0.264583"
           id="tspan1">1</tspan></tspan></text>
    <text
       xml:space="preserve"
       style="font-style:normal;font-variant:normal;font-weight:400;font-size:3.91914px;line-height:125%;font-family:Arial;text-align:start;letter-spacing:0px;word-spacing:0px;text-anchor:start;fill:#000000;fill-opacity:1;stroke:none;stroke-width:0.264583"
       x="56.008507"
       y="186.18941"
       id="text4"><tspan
         sodipodi:role="line"
         x="56.008507"
         y="186.18941"
         id="tspan4"
         style="stroke-width:0.264583"><tspan
           dx="0"
           dy="0"
           style="font-style:normal;font-variant:normal;font-weight:400;font-size:3.91914px;font-family:Arial;fill:#000000;stroke-width:0.264583"
           id="tspan3">1748</tspan></tspan></text>
    <text
       xml:space="preserve"
       style="font-style:normal;font-variant:normal;font-weight:400;font-size:3.91914px;line-height:125%;font-family:Arial;text-align:start;letter-spacing:0px;word-spacing:0px;text-anchor:start;fill:#000000;fill-opacity:1;stroke:none;stroke-width:0.264583"
       x="91.050171"
       y="186.18941"
       id="text6"><tspan
         sodipodi:role="line"
         x="91.050171"
         y="186.18941"
         id="tspan6"
         style="stroke-width:0.264583"><tspan
           dx="0"
           dy="0"
           style="font-style:normal;font-variant:normal;font-weight:400;font-size:3.91914px;font-family:Arial;fill:#000000;stroke-width:0.264583"
           id="tspan5">3495</tspan></tspan></text>
    <text
       xml:space="preserve"
       style="font-style:normal;font-variant:normal;font-weight:400;font-size:3.91914px;line-height:125%;font-family:Arial;text-align:start;letter-spacing:0px;word-spacing:0px;text-anchor:start;fill:#000000;fill-opacity:1;stroke:none;stroke-width:0.264583"
       x="126.09184"
       y="186.18941"
       id="text8"><tspan
         sodipodi:role="line"
         x="126.09184"
         y="186.18941"
         id="tspan8"
         style="stroke-width:0.264583"><tspan
           dx="0"
           dy="0"
           style="font-style:normal;font-variant:normal;font-weight:400;font-size:3.91914px;font-family:Arial;fill:#000000;stroke-width:0.264583"
           id="tspan7">5244</tspan></tspan></text>
    <text
       xml:space="preserve"
       style="font-style:normal;font-variant:normal;font-weight:400;font-size:3.91914px;line-height:125%;font-family:Arial;text-align:start;letter-spacing:0px;word-spacing:0px;text-anchor:start;fill:#000000;fill-opacity:1;stroke:none;stroke-width:0.264583"
       x="161.13351"
       y="186.18941"
       id="text10"><tspan
         sodipodi:role="line"
         x="161.13351"
         y="186.18941"
         id="tspan10"
         style="stroke-width:0.264583"><tspan
           dx="0"
           dy="0"
           style="font-style:normal;font-variant:normal;font-weight:400;font-size:3.91914px;font-family:Arial;fill:#000000;stroke-width:0.264583"
           id="tspan9">6990</tspan></tspan></text>
    <text
       xml:space="preserve"
       style="font-style:normal;font-variant:normal;font-weight:400;font-size:3.91914px;line-height:125%;font-family:Arial;text-align:start;letter-spacing:0px;word-spacing:0px;text-anchor:start;fill:#000000;fill-opacity:1;stroke:none;stroke-width:0.264583"
       x="50.121502"
       y="191.79607"
       id="text12"><tspan
         sodipodi:role="line"
         x="50.121502"
         y="191.79607"
         id="tspan12"
         style="stroke-width:0.264583"><tspan
           dx="0"
           dy="0"
           style="font-style:normal;font-variant:normal;font-weight:400;font-size:3.91914px;font-family:Arial;fill:#000000;stroke-width:0.264583"
           id="tspan11">Nucleotide position in relation to DQ533483/CHN/Unknown/1958/Asia1</tspan></tspan></text>
    <text
       xml:space="preserve"
       style="font-style:normal;font-variant:normal;font-weight:400;font-size:3.91914px;line-height:357.646%;font-family:Arial;text-align:start;letter-spacing:0px;word-spacing:0px;text-anchor:start;fill:#000000;fill-opacity:1;stroke:none;stroke-width:0.264583"
       x="10.31417"
       y="124.23573"
       id="text22"><tspan
         sodipodi:role="line"
         x="10.31417"
         y="124.23573"
         id="tspan14"
         style="stroke-width:0.264583"><tspan
           dx="0"
           dy="0"
           style="font-style:normal;font-variant:normal;font-weight:400;font-size:3.91914px;font-family:Arial;fill:#000000;stroke-width:0.264583"
           id="tspan13">8.00000</tspan></tspan><tspan
         sodipodi:role="line"
         x="10.31417"
         y="138.25238"
         id="tspan16"
         style="stroke-width:0.264583"><tspan
           dx="0"
           dy="0"
           style="font-style:normal;font-variant:normal;font-weight:400;font-size:3.91914px;font-family:Arial;fill:#000000;stroke-width:0.264583"
           id="tspan15">6.00000</tspan></tspan><tspan
         sodipodi:role="line"
         x="10.31417"
         y="152.26903"
         id="tspan18"
         style="stroke-width:0.264583"><tspan
           dx="0"
           dy="0"
           style="font-style:normal;font-variant:normal;font-weight:400;font-size:3.91914px;font-family:Arial;fill:#000000;stroke-width:0.264583"
           id="tspan17">4.00000</tspan></tspan><tspan
         sodipodi:role="line"
         x="10.31417"
         y="166.28568"
         id="tspan20"
         style="stroke-width:0.264583"><tspan
           dx="0"
           dy="0"
           style="font-style:normal;font-variant:normal;font-weight:400;font-size:3.91914px;font-family:Arial;fill:#000000;stroke-width:0.264583"
           id="tspan19">2.00000</tspan></tspan><tspan
         sodipodi:role="line"
         x="10.31417"
         y="180.30232"
         id="tspan22"
         style="stroke-width:0.264583"><tspan
           dx="0"
           dy="0"
           style="font-style:normal;font-variant:normal;font-weight:400;font-size:3.91914px;font-family:Arial;fill:#000000;stroke-width:0.264583"
           id="tspan21">0.00000</tspan></tspan></text>
    <path
       style="fill:none;stroke:#000000;stroke-width:0.280333px;stroke-linecap:round;stroke-linejoin:round;stroke-miterlimit:4;stroke-dasharray:none;stroke-opacity:1"
       d="m 26.29317,116.76317 v 1.40167 m 3.083666,-1.40167 v 1.40167 m 6.167333,-1.40167 v 1.40167 m 0.841,-1.40167 v 1.40167 m 0.560668,-1.40167 v 1.40167 m 1.401667,-1.40167 v 1.40167 m 0,-1.40167 v 1.40167 m 0,-1.40167 v 1.40167 m 0.280331,-1.40167 v 1.40167 m 1.121333,-1.40167 v 1.40167 m 0.560668,-1.40167 v 1.40167 m 1.962333,-1.40167 v 1.40167 m 4.485333,-1.40167 v 1.40167 m 8.129667,-1.40167 v 1.40167 m 25.790668,-1.40167 v 1.40167 m 0,-1.40167 v 1.40167 m 0.280334,-1.40167 v 1.40167 m 0.280331,-1.40167 v 1.40167 m 0.841002,-1.40167 v 1.40167 m 0,-1.40167 v 1.40167 m 0.560665,-1.40167 v 1.40167 m 0,-1.40167 v 1.40167 m 0.560668,-1.40167 v 1.40167 m 0.280332,-1.40167 v 1.40167 m 0,-1.40167 v 1.40167 m 7.569001,-1.40167 v 1.40167 m 0.280334,-1.40167 v 1.40167 m 3.364,-1.40167 v 1.40167 m 1.121333,-1.40167 v 1.40167 m 0.280332,-1.40167 v 1.40167 m 2.523,-1.40167 v 1.40167 m 10.092001,-1.40167 v 1.40167 m 1.12133,-1.40167 v 1.40167 m 10.092,-1.40167 v 1.40167 m 4.48533,-1.40167 v 1.40167 m 9.81167,-1.40167 v 1.40167 m 3.364,-1.40167 v 1.40167 m 9.53133,-1.40167 v 1.40167 m 3.92467,-1.40167 v 1.40167 m 4.48533,-1.40167 v 1.40167"
       id="path22" />
    <path
       style="fill:none;stroke:#c6c6c6;stroke-width:0.280333px;stroke-linecap:round;stroke-linejoin:round;stroke-miterlimit:4;stroke-dasharray:none;stroke-opacity:1"
       d="m 171.50583,123.77151 h 2.80334"
       id="path23" />
    <text
       xml:space="preserve"
       style="font-style:normal;font-variant:normal;font-weight:400;font-size:3.91914px;line-height:125%;font-family:Arial;text-align:start;letter-spacing:0px;word-spacing:0px;text-anchor:start;fill:#000000;fill-opacity:1;stroke:none;stroke-width:0.264583"
       x="175.71083"
       y="125.07673"
       id="text24"><tspan
         sodipodi:role="line"
         x="175.71083"
         y="125.07673"
         id="tspan24"
         style="stroke-width:0.264583"><tspan
           dx="0"
           dy="0"
           style="font-style:normal;font-variant:normal;font-weight:400;font-size:3.91914px;font-family:Arial;fill:#000000;stroke-width:0.264583"
           id="tspan23">Breakpoint number</tspan></tspan></text>
    <path
       style="fill:none;stroke:#808080;stroke-width:0.280333px;stroke-linecap:round;stroke-linejoin:round;stroke-miterlimit:4;stroke-dasharray:none;stroke-opacity:1"
       d="m 171.50583,127.97651 h 2.80334"
       id="path24" />
    <text
       xml:space="preserve"
       style="font-style:normal;font-variant:normal;font-weight:400;font-size:3.91914px;line-height:125%;font-family:Arial;text-align:start;letter-spacing:0px;word-spacing:0px;text-anchor:start;fill:#000000;fill-opacity:1;stroke:none;stroke-width:0.264583"
       x="175.71083"
       y="129.28174"
       id="text26"><tspan
         sodipodi:role="line"
         x="175.71083"
         y="129.28174"
         id="tspan26"
         style="stroke-width:0.264583"><tspan
           dx="0"
           dy="0"
           style="font-style:normal;font-variant:normal;font-weight:400;font-size:3.91914px;font-family:Arial;fill:#000000;stroke-width:0.264583"
           id="tspan25">Local 95% confidence interval</tspan></tspan></text>
    <path
       style="fill:none;stroke:#000000;stroke-width:0.280333px;stroke-linecap:round;stroke-linejoin:round;stroke-miterlimit:4;stroke-dasharray:none;stroke-opacity:1"
       d="m 171.50583,132.18151 h 2.80334"
       id="path26" />
    <text
       xml:space="preserve"
       style="font-style:normal;font-variant:normal;font-weight:400;font-size:3.91914px;line-height:107.294%;font-family:Arial;text-align:start;letter-spacing:0px;word-spacing:0px;text-anchor:start;fill:#000000;fill-opacity:1;stroke:none;stroke-width:0.264583"
       x="175.71083"
       y="133.48674"
       id="text30"><tspan
         sodipodi:role="line"
         x="175.71083"
         y="133.48674"
         id="tspan28"
         style="stroke-width:0.264583"><tspan
           dx="0"
           dy="0"
           style="font-style:normal;font-variant:normal;font-weight:400;font-size:3.91914px;font-family:Arial;fill:#000000;stroke-width:0.264583"
           id="tspan27">Local 99% confidence interval</tspan></tspan><tspan
         sodipodi:role="line"
         x="175.71083"
         y="137.69174"
         id="tspan30"
         style="stroke-width:0.264583"><tspan
           dx="0"
           dy="0"
           style="font-style:normal;font-variant:normal;font-weight:400;font-size:3.91914px;font-family:Arial;fill:#000000;stroke-width:0.264583"
           id="tspan29">Global 95% confidence limit</tspan></tspan></text>
    <path
       style="fill:none;stroke:#000000;stroke-width:0.280333px;stroke-linecap:round;stroke-linejoin:round;stroke-miterlimit:4;stroke-dasharray:0.79375, 0.264583, 0.264583, 0.264583, 0.264583, 0.264583;stroke-dashoffset:0;stroke-opacity:1"
       d="m 171.50583,136.38651 h 2.80334"
       id="path30" />
    <text
       xml:space="preserve"
       style="font-style:normal;font-variant:normal;font-weight:400;font-size:3.91914px;line-height:125%;font-family:Arial;text-align:start;letter-spacing:0px;word-spacing:0px;text-anchor:start;fill:#000000;fill-opacity:1;stroke:none;stroke-width:0.264583"
       x="175.71083"
       y="141.89674"
       id="text32"><tspan
         sodipodi:role="line"
         x="175.71083"
         y="141.89674"
         id="tspan32"
         style="stroke-width:0.264583"><tspan
           dx="0"
           dy="0"
           style="font-style:normal;font-variant:normal;font-weight:400;font-size:3.91914px;font-family:Arial;fill:#000000;stroke-width:0.264583"
           id="tspan31">Global 99% confidence limit</tspan></tspan></text>
    <path
       style="fill:none;stroke:#000000;stroke-width:0.280333px;stroke-linecap:round;stroke-linejoin:round;stroke-miterlimit:4;stroke-dasharray:0.264583, 0.264583;stroke-dashoffset:0;stroke-opacity:1"
       d="m 171.50583,140.59151 h 2.80334"
       id="path32" />
    <path
       style="fill:none;stroke:#000000;stroke-width:0.280333px;stroke-linecap:round;stroke-linejoin:round;stroke-miterlimit:4;stroke-dasharray:none;stroke-opacity:1"
       d="m 170.10417,120.96817 h 48.778 v 21.866 h -48.778 v -21.866"
       id="path33" />
    <path
       style="fill:none;stroke:#000000;stroke-width:0.280333px;stroke-linecap:round;stroke-linejoin:round;stroke-miterlimit:4;stroke-dasharray:0.264583, 0.264583;stroke-dashoffset:0;stroke-opacity:1"
       d="M 21.527504,136.38651 H 167.30083"
       id="path34" />
    <path
       style="fill:none;stroke:#000000;stroke-width:0.280333px;stroke-linecap:round;stroke-linejoin:round;stroke-miterlimit:4;stroke-dasharray:0.79375, 0.264583, 0.264583, 0.264583, 0.264583, 0.264583;stroke-dashoffset:0;stroke-opacity:1"
       d="M 21.527504,143.39484 H 167.30083"
       id="path35" />
    <path
       style="fill:#c6c6c6;fill-opacity:1;fill-rule:evenodd;stroke:#c6c6c6;stroke-width:0.280333px;stroke-linecap:round;stroke-linejoin:round;stroke-miterlimit:4;stroke-dasharray:none;stroke-opacity:1"
       d="m 24.611171,178.43651 h 0.280333 0.280333 v -7.00834 h 0.280334 0.280332 0.280333 0.280334 0.280333 0.280333 0.280334 v -7.00833 h 0.280333 0.280333 0.280334 v -7.00833 h 0.280333 0.280333 0.280334 0.280333 0.280333 0.280334 v -7.00834 h 0.280333 v 7.00834 h 0.280333 0.280334 0.280333 0.280333 0.280334 0.280334 0.280331 0.280334 0.280334 v 7.00833 -7.00833 h 0.280334 v 7.00833 h 0.280332 0.280334 0.280334 v -7.00833 7.00833 h 0.280334 v -7.00833 h 0.280331 0.280334 0.280334 0.280334 0.280331 0.280334 0.280334 0.280334 0.280332 0.280334 0.280334 0.280333 v 7.00833 -7.00833 h 0.280332 v 7.00833 h 0.280334 v -7.00833 7.00833 -7.00833 h 0.280334 0.280334 0.280331 0.280334 0.280334 0.280334 0.280331 0.280334 0.280334 0.280334 0.280334 0.280332 v -7.00834 h 0.280334 v 7.00834 h 0.280334 v -7.00834 7.00834 h 0.280334 v -7.00834 l 0.280331,7.00834 v -7.00834 7.00834 -7.00834 h 0.280334 0.280334 0.280334 v 7.00834 -7.00834 h 0.280331 v 7.00834 -7.00834 7.00834 -7.00834 h 0.280334 v 7.00834 -7.00834 7.00834 -7.00834 h 0.280334 0.280334 0.280331 v 7.00834 -7.00834 h 0.280334 v 7.00834 h 0.280334 0.280334 0.280332 v -7.00834 h 0.280334 v 7.00834 h 0.280334 v -7.00834 7.00834 -7.00834 h 0.280334 v 7.00834 h 0.280331 0.280334 v -7.00834 7.00834 h 0.280334 0.280334 0.280331 0.280334 0.280334 0.280334 0.280332 0.280333 0.280334 v -7.00834 l 0.280334,7.00834 h 0.280332 0.280334 0.280334 0.280334 0.280331 0.280334 0.280334 0.280334 0.280334 0.280331 0.280334 0.280334 0.280334 0.280332 0.280334 0.280334 0.280334 0.280331 0.280334 0.280334 0.280334 0.280331 0.280334 0.280334 0.280334 0.280331 0.280334 0.280334 0.280334 v 7.00833 -7.00833 h 0.280332 0.280334 0.280334 0.280334 0.280331 0.280334 0.280334 0.280334 0.280331 v 7.00833 h 0.280334 v -7.00833 h 0.280334 0.280334 0.280331 0.280334 0.280334 0.280334 0.280332 v -7.00834 7.00834 -7.00834 7.00834 -7.00834 h 0.280334 v 7.00834 -7.00834 h 0.280334 v 7.00834 h 0.280334 0.280331 0.280334 0.280334 0.280334 0.280334 0.280331 0.280334 0.280334 0.280334 0.280332 0.280334 0.280333 v -7.00834 7.00834 -7.00834 h 0.280334 v 7.00834 h 0.280332 0.280334 v -7.00834 h 0.280334 0.280334 0.280331 0.280334 v 7.00834 h 0.280334 0.280334 0.280331 v -7.00834 h 0.280334 0.280334 0.280334 0.280332 0.280334 0.280334 v 7.00834 h 0.280334 0.280331 0.280334 0.280334 0.280334 0.280331 0.280334 v -7.00834 h 0.280334 0.280334 0.280331 0.280334 v 7.00834 h 0.280334 0.280334 v -7.00834 h 0.280332 0.280334 v -7.00833 h 0.280334 0.280334 v -7.00833 7.00833 -7.00833 h 0.280334 0.280331 0.280334 v 7.00833 h 0.280334 0.280334 v 7.00833 h 0.280331 0.280334 v 7.00834 h 0.280334 0.280334 0.280331 0.280334 0.280334 v -7.00834 h 0.280334 0.280332 0.280334 0.280334 v 7.00834 -7.00834 l 0.280334,7.00834 0.280331,-7.00834 v 7.00834 h 0.280334 0.280334 0.280334 0.280331 0.280334 0.280334 0.280334 0.280332 0.280334 0.280334 0.280334 0.280331 0.280334 0.280334 0.280334 0.280331 v 7.00833 -7.00833 7.00833 -7.00833 h 0.280334 v 7.00833 -7.00833 h 0.280334 v 7.00833 h 0.280334 0.280331 0.280334 0.280334 v -7.00833 h 0.280334 0.280334 v 7.00833 h 0.280332 0.280334 0.280334 0.280334 0.280331 0.280334 0.280334 0.280334 0.280331 0.280334 0.280334 v -7.00833 h 0.280334 0.280331 v 7.00833 h 0.280334 v -7.00833 7.00833 -7.00833 h 0.280334 v 7.00833 -7.00833 7.00833 h 0.280334 0.280332 v -7.00833 h 0.280334 v 7.00833 h 0.280334 v -7.00833 h 0.280334 v 7.00833 h 0.280331 v -7.00833 h 0.280334 0.280334 0.280334 0.280331 0.280334 0.280334 0.280334 0.280332 0.280334 0.280333 0.280334 0.280332 0.280334 0.280334 0.280334 0.280331 0.280334 0.280334 0.280334 0.280331 v 7.00833 h 0.280334 v -7.00833 h 0.280338 0.28033 0.28033 0.28034 0.28033 0.28033 0.28034 0.28033 0.28033 0.28034 0.28033 0.28033 0.28034 0.28033 0.28033 0.28034 0.28033 0.28033 0.28033 0.28034 0.28033 0.28033 0.28034 v 7.00833 h 0.28033 0.28033 0.28034 v -7.00833 7.00833 -7.00833 h 0.28033 0.28033 v 7.00833 h 0.28034 0.28033 0.28033 0.28034 v -7.00833 h 0.28033 0.28033 0.28034 v 7.00833 -7.00833 h 0.28033 0.28033 0.28034 0.28033 0.28033 v 7.00833 -7.00833 h 0.28034 0.28033 0.28033 v 7.00833 h 0.28034 v -7.00833 h 0.28033 0.28033 0.28034 0.28033 v 7.00833 h 0.28033 0.28034 0.28033 0.28033 0.28034 v -7.00833 h 0.28033 0.28033 v 7.00833 -7.00833 h 0.28034 0.28033 0.28033 0.28034 0.28033 0.28033 0.28034 0.28033 0.28033 v -7.00834 h 0.28034 v 7.00834 h 0.28033 0.28033 0.28034 0.28033 0.28033 0.28034 0.28033 0.28033 0.28034 0.28033 0.28033 v 7.00833 -7.00833 7.00833 h 0.28034 0.28033 0.28033 0.28034 0.28033 0.28033 0.28034 0.28033 v -7.00833 7.00833 l 0.28033,-7.00833 v 7.00833 -7.00833 7.00833 -7.00833 h 0.28034 0.28033 0.28033 0.28034 0.28033 0.28033 0.28034 0.28033 v 7.00833 -7.00833 7.00833 h 0.28033 0.28034 0.28033 0.28033 0.28034 0.28033 0.28033 0.28034 0.28033 0.28033 0.28034 v -7.00833 h 0.28033 0.28033 0.28034 0.28033 0.28033 0.28034 0.28033 0.28033 0.28034 v 7.00833 h 0.28033 0.28033 v -7.00833 h 0.28034 0.28033 0.28033 0.28034 0.28033 0.28033 0.28034 0.28033 0.28033 0.28034 0.28033 0.28033 0.28034 0.28033 0.28033 0.28034 0.28033 0.28033 0.28034 0.28033 0.28033 0.28034 0.28033 0.28033 0.28034 v -7.00834 7.00834 h 0.28033 0.28033 0.28034 v -7.00834 7.00834 h 0.28033 0.28033 v -7.00834 h 0.28034 0.28033 v 7.00834 -7.00834 l 0.28033,7.00834 v -7.00834 7.00834 h 0.28034 v -7.00834 7.00834 h 0.28033 v -7.00834 l 0.28033,7.00834 v -7.00834 7.00834 -7.00834 h 0.28034 v 7.00834 h 0.28033 0.28033 0.28034 0.28033 0.28033 0.28034 0.28033 0.28033 0.28034 0.28033 0.28033 0.28034 0.28033 v 7.00833 h 0.28033 0.28034 0.28033 0.28033 0.28034 0.28033 0.28033 0.28034 0.28033 0.28033 0.28034 0.28033 0.28033 0.28034 0.28033 v -7.00833 h 0.28033 v 7.00833 l 0.28034,-7.00833 v 7.00833 -7.00833 l 0.28033,7.00833 h 0.28033 0.28034 0.28033 v -7.00833 h 0.28033 v 7.00833 -7.00833 7.00833 -7.00833 7.00833 -7.00833 7.00833 l 0.28034,-7.00833 v 7.00833 -7.00833 h 0.28033 0.28033 0.28034 0.28033 0.28033 0.28034 v 7.00833 h 0.28033 0.28033 0.28034 0.28033 0.28033 0.28034 0.28033 0.28033 0.28034 0.28033 0.28033 0.28034 0.28033 0.28033 0.28034 v 7.00833 h 0.28033 0.28033 0.28034 0.28033 0.28033 0.28034 0.28033 0.28033 0.28034 0.28033 v 7.00834 h 0.28033 0.28034 0.28033 0.28033 0.28034 0.28033 0.28033 0.28034 0.28033 0.28033 0.28034 0.28033 v 0 h -0.28033 -0.28034 -0.28033 -0.28033 -0.28034 -0.28033 -0.28033 -0.28034 -0.28033 -0.28033 -0.28034 -0.28033 -0.28033 -0.28034 -0.28033 -0.28033 -0.28034 -0.28033 -0.28033 -0.28034 -0.28033 -0.28033 -0.28034 -0.28033 -0.28033 -0.28034 -0.28033 -0.28033 -0.28034 -0.28033 -0.28033 -0.28034 -0.28033 -0.28033 -0.28034 -0.28033 -0.28033 -0.28034 -0.28033 -0.28033 -0.28034 -0.28033 -0.28033 -0.28034 -0.28033 -0.28033 -0.28034 -0.28033 -0.28033 -0.28034 -0.28033 -0.28033 -0.28034 -0.28033 -0.28033 -0.28034 -0.28033 -0.28033 -0.28034 -0.28033 -0.28033 -0.28034 -0.28033 -0.28033 -0.28034 -0.28033 -0.28033 -0.28034 -0.28033 -0.28033 -0.28034 -0.28033 -0.28033 -0.28034 -0.28033 -0.28033 -0.28034 -0.28033 -0.28033 -0.28034 -0.28033 -0.28033 -0.28034 -0.28033 -0.28033 -0.28034 -0.28033 -0.28033 -0.28034 -0.28033 -0.28033 -0.28034 -0.28033 -0.28033 -0.28034 -0.28033 -0.28033 -0.28034 -0.28033 -0.28033 -0.28034 -0.28033 -0.28033 -0.28034 -0.28033 -0.28033 -0.28034 -0.28033 -0.28033 -0.28034 -0.28033 -0.28033 -0.28034 -0.28033 -0.28033 -0.28034 -0.28033 -0.28033 -0.28034 -0.28033 -0.28033 -0.28034 -0.28033 -0.28033 -0.28034 -0.28033 -0.28033 -0.28034 -0.28033 -0.28033 -0.28034 -0.28033 -0.28033 -0.28034 -0.28033 -0.28033 -0.28034 -0.28033 -0.28033 -0.28034 -0.28033 -0.28033 -0.28034 -0.28033 -0.28033 -0.28034 -0.28033 -0.28033 -0.28034 -0.28033 -0.28033 -0.28034 -0.28033 -0.28033 -0.28034 -0.28033 -0.28033 -0.28034 -0.28033 -0.28033 -0.28034 -0.28033 -0.28033 -0.28034 -0.28033 -0.28033 -0.28034 -0.28033 -0.28033 -0.28034 -0.28033 -0.28033 -0.28034 -0.28033 -0.28033 -0.28034 -0.28033 -0.28033 -0.28034 -0.28033 -0.28033 -0.28034 -0.28033 -0.28033 -0.28034 -0.28033 -0.28033 -0.28034 -0.28033 -0.28033 -0.28034 -0.28033 -0.28033 -0.28034 -0.28033 -0.28033 -0.28034 -0.28033 -0.28033 -0.28034 -0.28033 -0.28033 -0.28034 -0.28033 -0.28033 -0.28034 -0.28033 -0.28033 -0.28034 -0.28033 -0.28033 -0.28034 -0.28033 -0.28033 -0.28033 -0.28034 -0.28033 -0.28033 -0.28034 -0.28033 -0.28033 -0.28034 -0.28033 -0.28033 -0.28034 -0.28033 -0.28033 -0.28034 -0.28033 -0.28033 H 99.740502 99.460168 99.179837 98.899503 98.619169 98.338835 98.058504 97.77817 97.497836 97.217502 96.93717 96.656836 96.376503 96.096169 95.815837 95.535503 95.255169 94.974835 94.694504 94.41417 94.133836 93.853502 93.573171 93.292837 93.012503 92.732169 92.451837 92.171503 91.891169 91.610835 91.330504 91.05017 90.769836 90.489502 90.209171 89.928837 89.648503 89.368169 89.087838 88.807504 88.52717 88.246836 87.966504 87.68617 87.405836 87.125502 86.845168 86.564837 86.284503 86.004169 85.723835 85.443504 85.16317 84.882836 84.602502 84.322171 84.041837 83.761503 83.481169 83.200837 82.920503 82.640169 82.359835 82.079504 81.79917 81.518836 81.238502 80.958171 80.677837 80.397503 80.117169 79.836837 79.556503 79.276169 78.995835 78.715504 78.43517 78.154836 77.874502 77.594171 77.313837 77.033503 76.753169 76.472838 76.192504 75.91217 75.631836 75.351502 75.07117 74.790836 74.510502 74.230168 73.949837 73.669503 73.389169 73.108835 72.828504 72.54817 72.267836 71.987502 71.707171 71.426837 71.146503 70.866169 70.585837 70.305503 70.025169 69.744835 69.464504 69.18417 68.903836 68.623502 68.343171 68.062837 67.782503 67.502169 67.221837 66.941503 66.66117 66.380836 66.100504 65.82017 65.539836 65.259502 64.979171 64.698837 64.418503 64.138169 63.857835 63.577504 63.29717 63.016836 62.736502 62.45617 62.175836 61.895502 61.615168 61.334837 61.054503 60.774169 60.493835 60.213504 59.93317 59.652836 59.372502 59.092171 58.811837 58.531503 58.251169 57.970837 57.690503 57.410169 57.129835 56.849504 56.56917 56.288836 56.008502 55.728171 55.447837 55.167503 54.887169 54.606838 54.326504 54.04617 53.765836 53.485504 53.20517 52.924836 52.644502 52.364171 52.083837 51.803503 51.523169 51.242835 50.962504 50.68217 50.401836 50.121502 49.84117 49.560836 49.280502 49.000169 48.719837 48.439503 48.159169 47.878835 47.598504 47.31817 47.037836 46.757502 46.477171 46.196837 45.916503 45.636169 45.355837 45.075503 44.795169 44.514835 44.234504 43.95417 43.673836 43.393502 43.113171 42.832837 42.552503 42.272169 41.991838 41.711504 41.43117 41.150836 40.870504 40.59017 40.309836 40.029502 39.749168 39.468837 39.188503 38.908169 38.627835 38.347504 38.06717 37.786836 37.506502 37.22617 36.945837 36.665503 36.385169 36.104837 35.824503 35.544169 35.263835 34.983504 34.70317 34.422836 34.142502 33.862171 33.581837 33.301503 33.021169 32.740837 32.460503 32.180169 31.899835 31.619504 31.33917 31.058836 30.778503 30.49817 30.217836 29.937503 29.65717 29.376836 29.096503 28.81617 28.535836 28.255503 27.97517 27.694836 27.414503 27.13417 26.853836 26.573503 26.29317 26.012836 25.732503 25.452171 25.171837 24.891504 Z"
       id="path36" />
    <path
       style="fill:#808080;fill-opacity:1;fill-rule:evenodd;stroke:#808080;stroke-width:0.280333px;stroke-linecap:round;stroke-linejoin:round;stroke-miterlimit:4;stroke-dasharray:none;stroke-opacity:1"
       d="m 24.611171,178.43651 h 0.280333 0.280333 0.280334 0.280332 0.280333 v -7.00834 h 0.280334 0.280333 0.280333 0.280334 0.280333 0.280333 0.280334 v -7.00833 h 0.280333 0.280333 0.280334 0.280333 0.280333 0.280334 0.280333 0.280333 0.280334 0.280333 0.280333 0.280334 0.280334 0.280331 0.280334 0.280334 0.280334 0.280332 0.280334 0.280334 0.280334 0.280331 0.280334 0.280334 0.280334 0.280331 0.280334 0.280334 0.280334 0.280332 0.280334 0.280334 0.280333 0.280332 0.280334 0.280334 0.280334 0.280331 0.280334 0.280334 0.280334 0.280331 0.280334 0.280334 0.280334 0.280334 v -7.00833 7.00833 -7.00833 h 0.280332 0.280334 0.280334 v 7.00833 -7.00833 7.00833 l 0.280334,-7.00833 v 7.00833 -7.00833 h 0.280331 v 7.00833 h 0.280334 v -7.00833 7.00833 l 0.280334,-7.00833 h 0.280334 0.280331 0.280334 0.280334 0.280334 0.280331 0.280334 v 7.00833 h 0.280334 v -7.00833 7.00833 -7.00833 7.00833 h 0.280334 0.280332 v -7.00833 7.00833 -7.00833 7.00833 h 0.280334 v -7.00833 7.00833 h 0.280334 0.280334 0.280331 0.280334 0.280334 0.280334 0.280331 0.280334 0.280334 0.280334 0.280332 v -7.00833 h 0.280333 0.280334 v 7.00833 -7.00833 h 0.280334 v 7.00833 h 0.280332 v -7.00833 7.00833 h 0.280334 0.280334 0.280334 0.280331 0.280334 0.280334 0.280334 0.280334 0.280331 0.280334 0.280334 0.280334 0.280332 0.280334 0.280334 0.280334 0.280331 0.280334 0.280334 0.280334 0.280331 0.280334 0.280334 0.280334 0.280331 0.280334 0.280334 0.280334 0.280332 0.280334 0.280334 0.280334 0.280331 0.280334 0.280334 0.280334 0.280331 0.280334 0.280334 0.280334 0.280331 0.280334 0.280334 0.280334 v -7.00833 7.00833 -7.00833 7.00833 l 0.280332,-7.00833 v 7.00833 -7.00833 h 0.280334 0.280334 v 7.00833 -7.00833 7.00833 -7.00833 h 0.280334 v 7.00833 h 0.280331 0.280334 0.280334 0.280334 0.280334 0.280331 0.280334 0.280334 0.280334 0.280332 0.280334 v -7.00833 7.00833 h 0.280333 0.280334 0.280332 v -7.00833 7.00833 -7.00833 l 0.280334,7.00833 v -7.00833 7.00833 h 0.280334 l 0.280334,-7.00833 h 0.280331 0.280334 0.280334 v 7.00833 h 0.280334 v -7.00833 h 0.280331 0.280334 0.280334 0.280334 0.280332 0.280334 0.280334 v 7.00833 h 0.280334 0.280331 0.280334 0.280334 0.280334 0.280331 v -7.00833 h 0.280334 0.280334 0.280334 0.280331 0.280334 v 7.00833 h 0.280334 0.280334 v -7.00833 h 0.280332 0.280334 v -7.00834 h 0.280334 0.280334 0.280334 0.280331 0.280334 v -7.00833 7.00833 h 0.280334 0.280334 v 7.00834 h 0.280331 0.280334 v 7.00833 h 0.280334 0.280334 0.280331 0.280334 0.280334 v -7.00833 h 0.280334 0.280332 0.280334 0.280334 v 7.00833 h 0.280334 0.280331 0.280334 v -7.00833 7.00833 h 0.280334 0.280334 0.280331 0.280334 0.280334 0.280334 0.280332 0.280334 0.280334 0.280334 0.280331 0.280334 0.280334 0.280334 0.280331 0.280334 0.280334 0.280334 0.280331 0.280334 0.280334 0.280334 0.280334 0.280332 v 7.00833 -7.00833 h 0.280334 v 7.00833 h 0.280334 0.280334 0.280331 0.280334 v -7.00833 h 0.280334 0.280334 0.280331 0.280334 0.280334 0.280334 0.280331 0.280334 0.280334 0.280334 0.280332 0.280334 0.280334 0.280334 0.280331 0.280334 0.280334 0.280334 0.280331 0.280334 0.280334 0.280334 0.280332 0.280334 0.280333 0.280334 0.280332 0.280334 0.280334 0.280334 0.280331 0.280334 0.280334 0.280334 0.280331 0.280334 0.280338 0.28033 0.28033 0.28034 0.28033 0.28033 0.28034 0.28033 0.28033 0.28034 0.28033 0.28033 0.28034 0.28033 0.28033 0.28034 0.28033 0.28033 0.28033 0.28034 0.28033 0.28033 0.28034 0.28033 0.28033 0.28034 0.28033 0.28033 0.28034 0.28033 0.28033 0.28034 0.28033 0.28033 0.28034 0.28033 0.28033 0.28034 0.28033 0.28033 0.28034 0.28033 0.28033 0.28034 0.28033 0.28033 0.28034 0.28033 0.28033 0.28034 0.28033 0.28033 0.28034 0.28033 0.28033 0.28034 0.28033 0.28033 0.28034 0.28033 0.28033 0.28034 0.28033 0.28033 v -7.00833 7.00833 h 0.28034 0.28033 0.28033 0.28034 0.28033 0.28033 0.28034 0.28033 0.28033 0.28034 0.28033 0.28033 0.28034 v 7.00833 -7.00833 h 0.28033 v 7.00833 -7.00833 h 0.28033 v 7.00833 -7.00833 7.00833 -7.00833 h 0.28034 0.28033 0.28033 0.28034 0.28033 0.28033 0.28034 0.28033 0.28033 0.28034 0.28033 0.28033 0.28034 0.28033 0.28033 0.28034 0.28033 v 7.00833 h 0.28033 0.28034 0.28033 0.28033 0.28034 v -7.00833 h 0.28033 v 7.00833 -7.00833 7.00833 l 0.28033,-7.00833 v 7.00833 -7.00833 h 0.28034 0.28033 0.28033 0.28034 0.28033 0.28033 0.28034 0.28033 0.28033 0.28034 0.28033 0.28033 0.28034 0.28033 0.28033 0.28034 0.28033 0.28033 0.28034 0.28033 0.28033 0.28034 0.28033 0.28033 0.28034 0.28033 0.28033 0.28034 0.28033 0.28033 0.28034 0.28033 0.28033 0.28034 0.28033 0.28033 0.28034 v -7.00833 h 0.28033 v 7.00833 -7.00833 h 0.28033 v 7.00833 -7.00833 h 0.28034 v 7.00833 -7.00833 7.00833 -7.00833 7.00833 h 0.28033 0.28033 v -7.00833 7.00833 -7.00833 h 0.28034 v 7.00833 -7.00833 h 0.28033 0.28033 v 7.00833 h 0.28034 v -7.00833 h 0.28033 v 7.00833 -7.00833 7.00833 h 0.28033 v -7.00833 h 0.28034 v 7.00833 h 0.28033 0.28033 0.28034 0.28033 0.28033 0.28034 0.28033 0.28033 0.28034 0.28033 0.28033 0.28034 0.28033 0.28033 0.28034 0.28033 0.28033 0.28034 0.28033 v 7.00833 h 0.28033 v -7.00833 7.00833 h 0.28034 v -7.00833 7.00833 h 0.28033 0.28033 v -7.00833 h 0.28034 0.28033 0.28033 0.28034 0.28033 0.28033 0.28034 0.28033 0.28033 v 7.00833 -7.00833 h 0.28034 v 7.00833 -7.00833 h 0.28033 0.28033 0.28034 0.28033 0.28033 0.28034 0.28033 0.28033 0.28034 0.28033 0.28033 v 7.00833 h 0.28034 0.28033 0.28033 0.28034 0.28033 0.28033 0.28034 0.28033 0.28033 0.28034 0.28033 0.28033 0.28034 0.28033 0.28033 0.28034 0.28033 0.28033 0.28034 0.28033 v 7.00834 h 0.28033 0.28034 0.28033 0.28033 0.28034 0.28033 0.28033 0.28034 0.28033 0.28033 0.28034 0.28033 0.28033 0.28034 0.28033 v 0 h -0.28033 -0.28034 -0.28033 -0.28033 -0.28034 -0.28033 -0.28033 -0.28034 -0.28033 -0.28033 -0.28034 -0.28033 -0.28033 -0.28034 -0.28033 -0.28033 -0.28034 -0.28033 -0.28033 -0.28034 -0.28033 -0.28033 -0.28034 -0.28033 -0.28033 -0.28034 -0.28033 -0.28033 -0.28034 -0.28033 -0.28033 -0.28034 -0.28033 -0.28033 -0.28034 -0.28033 -0.28033 -0.28034 -0.28033 -0.28033 -0.28034 -0.28033 -0.28033 -0.28034 -0.28033 -0.28033 -0.28034 -0.28033 -0.28033 -0.28034 -0.28033 -0.28033 -0.28034 -0.28033 -0.28033 -0.28034 -0.28033 -0.28033 -0.28034 -0.28033 -0.28033 -0.28034 -0.28033 -0.28033 -0.28034 -0.28033 -0.28033 -0.28034 -0.28033 -0.28033 -0.28034 -0.28033 -0.28033 -0.28034 -0.28033 -0.28033 -0.28034 -0.28033 -0.28033 -0.28034 -0.28033 -0.28033 -0.28034 -0.28033 -0.28033 -0.28034 -0.28033 -0.28033 -0.28034 -0.28033 -0.28033 -0.28034 -0.28033 -0.28033 -0.28034 -0.28033 -0.28033 -0.28034 -0.28033 -0.28033 -0.28034 -0.28033 -0.28033 -0.28034 -0.28033 -0.28033 -0.28034 -0.28033 -0.28033 -0.28034 -0.28033 -0.28033 -0.28034 -0.28033 -0.28033 -0.28034 -0.28033 -0.28033 -0.28034 -0.28033 -0.28033 -0.28034 -0.28033 -0.28033 -0.28034 -0.28033 -0.28033 -0.28034 -0.28033 -0.28033 -0.28034 -0.28033 -0.28033 -0.28034 -0.28033 -0.28033 -0.28034 -0.28033 -0.28033 -0.28034 -0.28033 -0.28033 -0.28034 -0.28033 -0.28033 -0.28034 -0.28033 -0.28033 -0.28034 -0.28033 -0.28033 -0.28034 -0.28033 -0.28033 -0.28034 -0.28033 -0.28033 -0.28034 -0.28033 -0.28033 -0.28034 -0.28033 -0.28033 -0.28034 -0.28033 -0.28033 -0.28034 -0.28033 -0.28033 -0.28034 -0.28033 -0.28033 -0.28034 -0.28033 -0.28033 -0.28034 -0.28033 -0.28033 -0.28034 -0.28033 -0.28033 -0.28034 -0.28033 -0.28033 -0.28034 -0.28033 -0.28033 -0.28034 -0.28033 -0.28033 -0.28034 -0.28033 -0.28033 -0.28034 -0.28033 -0.28033 -0.28034 -0.28033 -0.28033 -0.28034 -0.28033 -0.28033 -0.28034 -0.28033 -0.28033 -0.28034 -0.28033 -0.28033 -0.28034 -0.28033 -0.28033 -0.28034 -0.28033 -0.28033 -0.28033 -0.28034 -0.28033 -0.28033 -0.28034 -0.28033 -0.28033 -0.28034 -0.28033 -0.28033 -0.28034 -0.28033 -0.28033 -0.28034 -0.28033 -0.28033 H 99.740502 99.460168 99.179837 98.899503 98.619169 98.338835 98.058504 97.77817 97.497836 97.217502 96.93717 96.656836 96.376503 96.096169 95.815837 95.535503 95.255169 94.974835 94.694504 94.41417 94.133836 93.853502 93.573171 93.292837 93.012503 92.732169 92.451837 92.171503 91.891169 91.610835 91.330504 91.05017 90.769836 90.489502 90.209171 89.928837 89.648503 89.368169 89.087838 88.807504 88.52717 88.246836 87.966504 87.68617 87.405836 87.125502 86.845168 86.564837 86.284503 86.004169 85.723835 85.443504 85.16317 84.882836 84.602502 84.322171 84.041837 83.761503 83.481169 83.200837 82.920503 82.640169 82.359835 82.079504 81.79917 81.518836 81.238502 80.958171 80.677837 80.397503 80.117169 79.836837 79.556503 79.276169 78.995835 78.715504 78.43517 78.154836 77.874502 77.594171 77.313837 77.033503 76.753169 76.472838 76.192504 75.91217 75.631836 75.351502 75.07117 74.790836 74.510502 74.230168 73.949837 73.669503 73.389169 73.108835 72.828504 72.54817 72.267836 71.987502 71.707171 71.426837 71.146503 70.866169 70.585837 70.305503 70.025169 69.744835 69.464504 69.18417 68.903836 68.623502 68.343171 68.062837 67.782503 67.502169 67.221837 66.941503 66.66117 66.380836 66.100504 65.82017 65.539836 65.259502 64.979171 64.698837 64.418503 64.138169 63.857835 63.577504 63.29717 63.016836 62.736502 62.45617 62.175836 61.895502 61.615168 61.334837 61.054503 60.774169 60.493835 60.213504 59.93317 59.652836 59.372502 59.092171 58.811837 58.531503 58.251169 57.970837 57.690503 57.410169 57.129835 56.849504 56.56917 56.288836 56.008502 55.728171 55.447837 55.167503 54.887169 54.606838 54.326504 54.04617 53.765836 53.485504 53.20517 52.924836 52.644502 52.364171 52.083837 51.803503 51.523169 51.242835 50.962504 50.68217 50.401836 50.121502 49.84117 49.560836 49.280502 49.000169 48.719837 48.439503 48.159169 47.878835 47.598504 47.31817 47.037836 46.757502 46.477171 46.196837 45.916503 45.636169 45.355837 45.075503 44.795169 44.514835 44.234504 43.95417 43.673836 43.393502 43.113171 42.832837 42.552503 42.272169 41.991838 41.711504 41.43117 41.150836 40.870504 40.59017 40.309836 40.029502 39.749168 39.468837 39.188503 38.908169 38.627835 38.347504 38.06717 37.786836 37.506502 37.22617 36.945837 36.665503 36.385169 36.104837 35.824503 35.544169 35.263835 34.983504 34.70317 34.422836 34.142502 33.862171 33.581837 33.301503 33.021169 32.740837 32.460503 32.180169 31.899835 31.619504 31.33917 31.058836 30.778503 30.49817 30.217836 29.937503 29.65717 29.376836 29.096503 28.81617 28.535836 28.255503 27.97517 27.694836 27.414503 27.13417 26.853836 26.573503 26.29317 26.012836 25.732503 25.452171 25.171837 24.891504 Z"
       id="path37" />
    <path
       style="fill:none;stroke:#000000;stroke-width:0.280333px;stroke-linecap:round;stroke-linejoin:round;stroke-miterlimit:4;stroke-dasharray:none;stroke-opacity:1"
       d="m 24.330837,178.43651 v 0 0 0 0 0 h 0.280334 v 0 0 0 0 0 0 0 0 0 0 0 0 0 h 0.280333 v 0 0 0 0 0 0 0 0 0 0 0 0 0 h 0.280333 v 0 0 0 0 0 0 0 0 0 0 -7.00834 0 0 h 0.280334 v 0 0 0 0 0 0 0 0 0 0 0 0 0 h 0.280332 v 0 0 0 0 0 0 0 0 0 0 0 0 0 h 0.280333 v 0 0 0 0 0 0 0 0 0 0 0 0 0 h 0.280334 v 0 0 0 0 0 0 0 0 0 0 0 0 0 h 0.280333 v 0 0 0 0 0 0 0 0 0 0 0 0 0 h 0.280333 v 0 0 0 0 0 0 0 0 0 0 0 0 0 h 0.280334 v 0 0 0 0 0 0 0 0 0 0 0 0 7.00834 h 0.280333 v 0 0 0 0 0 0 0 0 0 0 0 0 0 h 0.280333 v 0 0 0 0 0 0 0 0 0 0 0 0 0 h 0.280334 v 0 0 0 0 0 0 0 0 0 0 0 0 0 h 0.280333 v 0 0 0 0 0 0 0 0 0 0 0 -7.00834 0 h 0.280333 v 0 0 0 0 0 0 0 0 0 0 0 0 0 h 0.280334 v 0 0 0 0 0 0 0 0 0 0 0 0 0 h 0.280333 v 0 0 0 0 0 0 0 0 0 0 0 0 0 h 0.280333 v 0 0 0 0 0 0 0 0 0 0 0 0 0 h 0.280334 v 0 0 0 0 0 0 0 0 0 0 0 0 0 h 0.280333 v 0 0 0 0 0 0 0 0 0 0 0 0 0 h 0.280333 v 0 0 0 0 0 0 0 0 0 0 0 0 0 l 0.280334,7.00834 v 0 0 0 0 0 0 0 0 0 0 0 0 0 h 0.280333 v 0 0 0 0 0 0 0 0 0 0 0 0 0 h 0.280333 v 0 0 0 0 0 0 0 0 0 0 0 0 0 h 0.280334 v 0 0 0 0 0 0 0 0 0 0 0 0 0 h 0.280334 v 0 0 0 0 0 0 0 0 0 0 0 0 0 h 0.280331 v 0 0 0 0 0 0 0 0 0 0 0 0 0 h 0.280334 v 0 0 0 0 0 0 0 0 0 0 0 0 0 h 0.280334 v 0 0 0 0 0 0 0 0 0 0 0 0 0 h 0.280334 v 0 0 0 0 0 0 0 0 0 0 0 0 0 h 0.280332 v 0 0 0 0 0 0 0 0 0 0 0 0 0 h 0.280334 v 0 0 0 0 0 0 0 0 0 0 0 0 0 h 0.280334 v 0 0 0 0 0 0 0 0 0 0 0 0 0 h 0.280334 v 0 0 0 0 0 0 0 0 0 0 0 0 0 h 0.280331 v 0 0 0 0 0 0 0 0 0 0 0 0 0 h 0.280334 v 0 0 0 0 0 0 0 0 -7.00834 0 0 0 0 h 0.280334 v 0 0 0 0 0 0 0 0 0 0 0 0 0 h 0.280334 v 0 0 0 0 0 0 0 0 0 0 0 0 0 h 0.280331 v 0 0 0 0 0 0 0 0 0 0 -7.00833 0 0 h 0.280334 v 0 0 0 0 0 0 0 0 0 0 0 0 0 h 0.280334 v 0 0 0 0 0 0 0 0 0 0 0 0 -7.00833 h 0.280334 v 0 0 0 0 0 0 0 0 0 0 0 0 0 h 0.280332 v 0 0 0 0 0 0 0 0 0 0 7.00833 0 0 h 0.280334 v 0 0 0 0 0 0 0 0 0 0 0 0 0 h 0.280334 v 0 0 0 0 0 0 0 0 0 0 0 0 0 h 0.280333 v 0 0 0 0 0 0 0 0 0 -7.00833 0 -7.00834 7.00834 h 0.280332 v 0 0 0 0 -7.00834 0 0 0 0 -7.00833 0 0 0 h 0.280334 v 0 0 0 0 0 0 0 0 0 0 0 0 0 h 0.280334 v 7.00833 0 0 0 0 0 0 0 0 0 0 0 0 h 0.280334 v 0 0 0 0 0 0 0 0 0 0 0 0 h 0.280331 v 0 0 0 0 0 0 0 0 0 -7.00833 0 0 0 h 0.280334 v 0 0 0 0 0 0 0 0 0 0 0 0 0 h 0.280334 v 0 0 0 0 0 0 0 0 0 0 0 0 7.00833 h 0.280334 v 7.00834 0 -7.00834 0 0 0 0 7.00834 0 0 0 0 7.00833 h 0.280331 v 0 0 0 0 0 0 0 0 0 0 0 0 0 h 0.280334 v 0 0 0 0 0 0 0 0 0 0 0 0 0 h 0.280334 v 0 0 0 0 0 0 0 0 0 0 0 0 0 h 0.280334 v 0 0 0 0 0 0 0 0 0 0 0 7.00833 0 h 0.280334 v 0 0 0 0 0 0 0 0 0 0 0 0 0 h 0.280332 v 0 0 0 0 0 0 0 0 0 0 0 0 0 h 0.280334 v 0 0 0 0 0 0 0 0 0 0 0 0 0 h 0.280334 v 0 0 0 0 0 0 0 0 0 0 0 0 0 h 0.280334 v 0 0 0 0 0 0 0 0 0 0 0 0 0 h 0.280331 v 0 0 0 0 0 0 0 0 0 0 0 0 0 h 0.280334 v 0 0 0 0 0 0 0 0 0 0 0 0 0 h 0.280334 v 0 0 0 0 0 0 0 0 0 0 0 0 0 h 0.280334 v 0 0 0 0 0 0 0 0 0 0 0 0 0 h 0.280331 v 0 0 0 0 0 0 7.00834 0 0 0 0 0 0 h 0.280334 v 0 0 0 0 0 0 0 0 0 0 0 0 0 h 0.280334 v 0 0 0 0 0 0 0 0 0 0 0 0 0 h 0.280334 v 0 0 0 0 0 0 0 0 0 0 0 0 0 h 0.280331 v 0 0 0 0 0 0 0 0 0 0 0 0 0 h 0.280334 v 0 0 0 0 0 0 0 0 0 0 0 0 0 h 0.280334 v 0 0 0 0 0 0 0 0 0 0 0 0 0 h 0.280334 v 0 0 0 0 0 0 0 0 0 0 0 0 0 h 0.280332 v 0 0 0 0 0 0 0 0 0 0 0 0 0 h 0.280334 v 0 0 -7.00834 0 0 0 0 0 0 0 0 0 0 h 0.280334 v 0 0 0 0 0 0 0 0 0 0 0 0 0 h 0.280334 v 0 0 0 0 0 0 0 0 0 0 0 0 0 h 0.280331 v 0 0 0 0 0 0 0 0 0 0 0 0 0 h 0.280334 v 0 0 0 0 0 0 0 0 0 0 0 0 0 h 0.280334 v 0 0 0 0 0 0 0 0 0 0 0 0 0 h 0.280334 v 0 0 0 0 0 0 0 0 0 0 0 0 0 h 0.280331 v 0 0 0 0 7.00834 0 0 0 0 0 0 0 0 h 0.280334 v 0 0 0 0 0 0 0 0 0 0 0 0 0 h 0.280334 v 0 0 0 0 0 0 0 0 0 0 0 0 0 h 0.280334 v 0 0 0 0 0 0 0 0 0 0 0 0 0 h 0.280332 v 0 0 0 0 0 0 0 0 0 0 0 0 0 h 0.280333 v 0 0 0 0 0 0 0 0 0 0 0 0 0 h 0.280334 v 0 0 0 0 0 0 0 0 0 0 0 0 0 h 0.280334 v 0 0 0 0 0 0 0 0 0 0 0 0 0 h 0.280332 v 0 0 0 0 0 0 0 0 0 0 0 0 0 h 0.280334 v 0 0 0 0 0 0 0 0 0 0 0 0 0 h 0.280334 v 0 0 0 0 0 0 0 0 0 0 0 0 0 h 0.280334 v 0 0 0 0 0 0 0 0 0 0 0 0 0 h 0.280331 v 0 0 0 0 0 0 0 0 0 0 0 0 0 h 0.280334 v 0 0 0 0 0 0 0 0 0 0 0 0 0 h 0.280334 v 0 0 0 0 0 0 0 0 0 0 0 0 0 h 0.280334 v 0 0 0 0 0 0 0 0 0 0 0 0 0 h 0.280334 v 0 0 0 0 0 0 0 0 0 0 0 0 h 0.280331 v 0 0 0 0 0 0 0 0 0 0 0 0 0 h 0.280334 v 0 0 0 0 0 0 0 0 0 0 0 0 0 h 0.280334 v 0 0 0 0 0 0 0 0 0 0 0 0 0 h 0.280334 v 0 0 0 0 0 0 0 0 0 0 0 0 0 h 0.280332 v 0 0 0 0 0 0 0 0 0 0 0 0 0 h 0.280334 v 0 0 0 0 -7.00834 0 0 0 0 0 0 0 0 h 0.280334 v 0 0 0 0 0 0 0 0 0 0 0 0 0 h 0.280334 v 0 0 0 0 0 0 0 0 0 0 0 0 0 h 0.280331 v 0 0 0 0 0 0 0 0 0 0 0 0 0 h 0.280334 v 0 0 0 0 0 0 0 0 0 0 0 0 0 h 0.280334 v 0 0 0 0 0 0 0 0 0 0 0 0 0 h 0.280334 v 0 0 0 0 0 0 0 0 0 0 0 0 0 h 0.280331 v 0 0 0 0 0 0 7.00834 0 0 0 0 0 0 h 0.280334 v 0 0 0 0 0 0 0 0 0 0 0 0 0 h 0.280334 v 0 0 0 0 0 0 0 0 0 0 0 0 0 h 0.280334 v 0 0 0 0 0 0 0 0 0 0 0 0 0 h 0.280331 v 0 0 0 0 0 0 0 0 0 0 0 0 0 h 0.280334 v 0 0 0 0 0 0 0 0 0 0 0 0 0 h 0.280334 v 0 0 0 0 0 0 0 0 0 0 0 0 0 h 0.280334 v 0 0 0 0 0 0 0 0 0 0 0 0 0 h 0.280332 v 0 0 0 0 0 0 0 0 0 0 0 0 0 h 0.280334 v 0 0 0 0 0 0 0 0 0 0 0 0 0 h 0.280334 v 0 0 0 0 0 0 0 0 0 0 0 0 0 h 0.280334 v 0 0 0 0 0 0 0 0 0 0 0 0 0 h 0.280331 v 0 0 0 0 0 0 0 0 0 0 0 0 0 h 0.280334 v 0 0 0 0 0 0 0 0 0 0 0 0 0 h 0.280334 v 0 0 0 0 0 0 0 0 0 0 0 0 0 h 0.280334 v 0 0 0 0 0 0 0 0 0 0 0 0 0 h 0.280331 v 0 0 0 0 0 0 0 0 0 0 0 0 0 h 0.280334 v 0 0 0 0 0 0 0 0 0 0 0 0 0 h 0.280334 v 0 0 0 0 0 0 0 0 0 0 0 0 0 h 0.280334 v 0 0 0 0 0 0 0 0 0 0 0 0 0 h 0.280331 v 0 0 0 0 0 0 0 0 0 0 0 0 0 h 0.280334 v 0 0 0 0 0 0 0 0 0 0 0 0 0 h 0.280334 v 0 0 0 0 0 0 0 0 0 0 0 0 0 h 0.280334 v 0 0 0 0 0 0 0 0 0 0 0 0 0 h 0.280332 v 0 0 0 0 0 0 0 0 0 0 0 0 0 h 0.280334 v 0 0 0 0 0 0 0 0 0 0 0 0 0 h 0.280334 v 0 0 0 0 0 0 0 0 0 0 0 0 0 h 0.280334 v 0 0 0 0 0 0 0 0 0 0 0 0 0 h 0.280331 v 0 0 0 0 0 0 0 0 0 0 0 0 0 h 0.280334 v 0 0 0 0 0 0 0 0 0 0 0 0 0 h 0.280334 v 0 0 0 0 0 0 0 0 0 0 0 0 0 h 0.280334 v 0 0 0 0 0 0 0 0 0 0 0 0 0 h 0.280334 v 0 0 0 0 0 0 0 0 0 0 0 0 0 h 0.280331 v 0 0 0 0 0 0 0 0 0 0 0 0 0 h 0.280334 v 0 0 0 0 0 0 0 0 0 0 0 0 0 h 0.280334 v 0 0 0 0 0 0 0 0 0 0 0 0 0 h 0.280334 v 0 0 0 0 0 0 0 0 0 0 0 0 0 h 0.280332 v 0 0 0 0 0 0 0 0 0 0 0 0 h 0.280334 v 0 0 0 0 0 0 0 0 0 0 0 0 0 h 0.280333 v 0 0 0 0 0 0 0 0 0 0 0 0 0 h 0.280334 v 0 0 0 0 0 0 0 0 0 0 0 0 0 h 0.280332 v 0 0 0 0 0 0 0 0 0 0 0 0 0 h 0.280334 v 0 0 0 0 0 0 0 0 0 0 0 0 0 h 0.280334 v 0 0 0 0 0 0 0 0 0 0 0 0 0 h 0.280334 v 0 0 0 0 0 0 0 0 0 0 0 0 0 h 0.280331 v 0 0 0 0 0 0 0 0 0 0 0 0 0 h 0.280334 v 0 0 0 0 0 0 0 0 0 0 0 0 0 h 0.280334 v 0 0 0 0 0 0 0 0 0 0 0 0 0 h 0.280334 v 0 0 0 0 0 0 0 0 0 0 0 0 0 h 0.280331 v 0 0 0 0 0 0 0 0 0 0 0 0 0 h 0.280334 v 0 0 0 0 0 0 0 0 0 0 0 0 0 h 0.280334 v 0 0 0 0 0 0 0 0 0 0 0 0 0 h 0.280334 v 0 0 0 0 0 0 0 0 0 0 0 0 0 h 0.280332 v 0 0 0 0 0 0 0 0 0 0 0 0 0 h 0.280334 v 0 0 0 0 0 0 0 0 0 0 0 0 0 h 0.280334 v 0 0 0 0 0 0 0 0 0 0 0 0 0 h 0.280334 v 0 0 0 0 0 0 0 0 0 0 0 0 0 h 0.280331 v 0 0 0 0 0 0 0 0 0 0 0 0 0 h 0.280334 v 0 0 0 0 0 0 0 0 0 0 0 0 0 h 0.280334 v 0 0 0 0 0 0 0 0 0 0 0 0 0 h 0.280334 v 0 0 0 0 0 0 0 0 0 0 0 0 0 h 0.280331 v 0 0 0 0 0 0 0 0 0 0 0 0 0 h 0.280334 v 0 0 0 0 0 0 0 0 0 0 0 0 0 h 0.280334 v 0 0 0 0 0 0 0 0 0 0 0 0 0 h 0.280334 v 0 0 0 0 0 0 0 0 0 0 0 0 0 h 0.280331 v 0 0 0 0 0 0 0 0 0 0 0 0 0 h 0.280334 v 0 0 0 0 0 0 0 0 0 0 0 0 0 h 0.280334 v 0 0 0 0 0 0 0 0 0 0 0 0 0 h 0.280334 v 0 0 0 0 0 0 0 0 0 0 0 0 0 h 0.280332 v 0 0 0 0 0 0 0 0 0 0 0 0 0 h 0.280334 v 0 0 0 0 0 0 0 0 0 0 0 0 0 h 0.280334 v 0 0 0 0 0 0 0 0 0 0 0 0 0 h 0.280334 v 0 0 0 0 0 0 0 0 0 0 0 0 0 h 0.280334 v 0 0 0 0 0 0 0 0 0 0 0 0 0 h 0.280331 v 0 0 0 0 0 0 0 0 0 0 0 0 0 h 0.280334 v 0 0 0 0 0 0 0 0 0 0 0 0 0 h 0.280334 v 0 0 0 0 0 0 0 0 0 0 0 0 0 h 0.280334 v 0 0 0 0 0 0 0 0 0 0 0 0 0 h 0.280331 v 0 0 0 0 0 0 0 0 0 0 0 0 0 h 0.280334 v 0 0 0 0 0 0 0 0 0 0 0 0 0 h 0.280334 v 0 0 0 0 0 0 0 0 0 0 0 0 0 h 0.280334 v 0 0 0 0 0 0 0 0 0 0 0 0 0 h 0.280331 v 0 0 0 0 0 0 0 0 0 0 0 0 0 h 0.280334 v 0 0 0 0 0 0 0 0 0 0 0 0 0 h 0.280334 v 0 0 0 0 0 0 0 0 0 -14.01667 0 0 0 h 0.280334 v 0 0 0 -7.00833 0 0 0 -7.00834 0 0 0 0 0 h 0.280332 v 0 0 0 0 0 0 0 0 0 0 0 0 0 h 0.280334 v -7.00833 0 0 0 0 0 0 0 0 0 0 0 h 0.280334 v 0 0 0 0 0 0 0 0 0 0 0 0 0 h 0.280334 v 0 0 0 0 0 0 0 0 0 -7.00833 0 0 0 h 0.280331 v 0 -7.00834 0 0 0 0 0 0 0 0 0 0 0 h 0.280334 v 0 0 0 0 0 0 -7.00833 0 0 0 0 0 14.01667 l 0.280334,-7.00834 v 0 0 0 0 0 0 7.00834 0 0 0 7.00833 0 0 h 0.280334 v 0 0 0 0 0 0 0 0 0 0 0 0 0 h 0.280331 v 0 0 0 7.00833 0 -7.00833 0 0 0 0 0 0 0 l 0.280334,-7.00833 v 0 0 0 0 -7.00834 0 0 0 0 0 0 0 0 h 0.280334 v 0 0 0 0 0 0 0 0 0 0 0 7.00834 0 h 0.280334 v 0 0 0 7.00833 0 0 0 0 0 0 0 0 0 h 0.280332 v 0 0 0 0 0 0 0 0 7.00833 0 0 0 0 h 0.280334 v 0 7.00834 0 0 0 0 0 0 0 0 0 0 0 h 0.280334 v 0 0 0 0 0 0 0 0 0 0 0 0 0 h 0.280334 v 0 0 0 0 0 0 0 7.00833 0 0 0 0 0 h 0.280331 v 0 7.00833 0 0 0 0 7.00834 0 0 0 0 0 0 h 0.280334 v 0 0 0 0 0 0 0 0 0 0 0 0 0 h 0.280334 v 0 0 0 0 0 0 0 0 0 0 0 0 0 h 0.280334 v 0 0 0 0 0 0 0 0 0 0 0 0 0 h 0.280331 v 0 0 0 0 0 0 0 0 0 0 0 0 0 h 0.280334 v 0 0 0 0 0 0 0 0 0 0 0 0 0 h 0.280334 v 0 0 0 0 0 0 0 0 0 0 0 0 0 h 0.280334 v 0 0 0 0 0 0 0 0 0 0 0 0 0 h 0.280331 v 0 0 0 0 0 0 0 0 0 0 0 0 0 h 0.280334 v 0 0 0 0 0 0 0 0 0 0 0 0 0 h 0.280334 v 0 0 0 0 0 0 0 0 0 0 0 0 0 h 0.280334 v 0 0 0 0 0 0 0 0 0 0 0 0 0 h 0.280334 v 0 0 0 0 0 0 0 0 0 0 0 0 0 h 0.280332 v 0 0 0 0 0 0 0 0 0 0 0 0 0 h 0.280334 v 0 0 0 0 0 0 0 0 0 0 0 0 0 h 0.280334 v 0 0 0 0 0 0 0 0 0 0 0 0 0 h 0.280334 v 0 0 0 0 0 0 0 0 0 0 0 0 0 h 0.280331 v 0 0 0 0 0 0 0 0 0 0 0 0 0 h 0.280334 v 0 0 0 0 0 0 0 0 0 0 0 0 0 h 0.280334 v 0 0 0 0 0 0 0 -7.00834 0 0 0 0 0 h 0.280334 v 0 0 0 0 0 0 0 -7.00833 0 0 0 0 0 h 0.280331 v 0 0 0 0 0 0 0 0 0 0 0 0 0 h 0.280334 v 0 0 0 0 0 0 0 0 0 0 0 0 0 h 0.280334 v 0 0 0 0 0 0 0 0 0 0 0 0 0 h 0.280334 v 0 0 0 0 0 0 0 0 0 0 0 0 0 h 0.280331 v 0 0 0 0 0 0 0 0 0 0 0 0 0 h 0.280334 v 0 0 0 0 0 0 0 0 0 7.00833 0 0 0 h 0.280334 v 0 0 0 0 0 0 0 0 0 7.00834 0 0 0 h 0.280334 v 0 0 0 0 0 0 0 0 0 0 0 0 0 h 0.280332 v 0 0 0 0 0 0 0 0 0 0 0 0 0 h 0.280334 v 0 0 0 0 0 0 0 0 0 0 0 0 0 h 0.280334 v 0 0 0 0 0 0 0 0 0 0 0 0 0 h 0.280334 v 0 0 0 0 0 0 0 -7.00834 0 0 0 0 0 h 0.280331 v 0 0 0 0 0 0 0 0 0 0 0 0 0 h 0.280334 v 0 0 0 0 0 0 0 0 0 0 0 0 0 h 0.280334 v 0 0 0 0 0 0 0 0 0 0 0 0 h 0.280334 v 0 0 0 0 0 0 0 0 0 0 -7.00833 0 0 h 0.280331 v 0 0 0 0 0 0 0 -7.00833 0 0 0 0 0 h 0.280334 v 0 0 0 0 0 0 0 0 0 0 0 0 0 h 0.280334 v 0 0 0 0 0 0 0 0 0 0 7.00833 0 0 h 0.280334 v 0 0 0 0 0 0 0 0 0 0 0 0 0 h 0.280332 v 0 0 0 0 0 0 0 0 0 0 0 0 0 h 0.280334 v 0 0 0 0 0 0 0 0 0 0 0 0 0 h 0.280333 v 0 0 0 0 0 0 0 0 0 0 0 0 7.00833 h 0.280334 v 0 0 0 0 0 0 0 0 0 7.00834 0 0 0 h 0.280332 v 0 0 0 0 0 0 0 0 0 0 0 0 0 h 0.280334 v 0 0 0 0 0 0 0 0 0 0 0 0 0 h 0.280334 v 0 -7.00834 0 0 0 0 0 0 0 0 0 0 0 h 0.280334 v 0 0 0 0 0 0 0 0 0 0 0 0 0 h 0.280331 v 0 0 0 0 0 0 0 0 0 0 0 0 0 h 0.280334 v 0 0 0 0 0 0 0 0 0 0 0 0 0 h 0.280334 v 0 0 0 0 0 0 0 0 0 0 0 0 0 h 0.280334 v 0 0 0 0 0 0 0 0 0 0 0 0 0 h 0.280331 v 0 0 0 0 0 0 0 0 0 0 0 0 0 h 0.280334 v 0 0 0 0 7.00834 0 0 0 0 0 0 0 0 h 0.280338 v 0 0 0 0 0 0 0 0 0 0 0 0 0 h 0.28033 v 0 0 0 0 0 0 0 0 0 0 0 0 0 h 0.28033 v 0 0 0 0 0 0 0 0 0 0 0 0 0 h 0.28034 v 0 0 0 0 0 0 0 0 0 0 0 0 0 h 0.28033 v 0 0 0 0 0 0 0 0 0 0 0 0 0 h 0.28033 v 0 0 0 0 0 0 0 0 0 0 0 0 0 h 0.28034 v 0 0 0 0 0 0 0 0 0 0 0 0 0 h 0.28033 v 0 0 0 0 0 0 0 0 0 0 0 0 0 h 0.28033 v 0 0 0 0 0 0 0 0 0 0 0 0 0 h 0.28034 v 0 0 0 0 0 0 0 0 0 0 0 0 0 h 0.28033 v 0 0 0 0 0 0 0 0 0 0 0 0 0 h 0.28033 v 0 0 0 0 0 0 0 0 0 0 0 0 0 h 0.28034 v 0 0 0 0 0 0 0 0 0 0 0 0 0 h 0.28033 v 0 0 0 0 0 0 0 0 0 0 0 0 0 h 0.28033 v 0 0 0 0 0 0 0 0 0 0 0 0 0 h 0.28034 v 0 0 0 0 0 0 0 0 0 0 0 0 0 h 0.28033 v 0 0 0 0 0 0 0 0 0 0 0 0 0 h 0.28033 v 0 0 0 0 0 0 0 0 0 0 0 0 0 h 0.28033 v 0 0 0 0 0 0 0 0 0 0 0 0 0 h 0.28034 v 0 0 0 0 0 0 0 0 0 0 0 0 0 h 0.28033 v 0 0 0 0 0 0 0 0 0 0 0 0 0 h 0.28033 v 0 0 0 0 0 0 0 0 0 0 0 0 0 h 0.28034 v 0 0 0 0 0 0 0 0 0 0 0 0 0 h 0.28033 v 0 0 0 0 0 0 0 0 0 0 0 0 0 h 0.28033 v 0 0 0 0 0 0 0 0 0 0 0 0 0 h 0.28034 v 0 0 0 0 0 0 0 0 0 0 0 0 0 h 0.28033 v 0 0 0 0 0 0 0 0 0 0 0 0 0 h 0.28033 v 0 0 0 0 0 0 0 0 0 0 0 0 0 h 0.28034 v 0 0 0 0 -7.00834 0 0 0 0 0 0 0 0 h 0.28033 v 0 0 0 0 0 0 0 0 0 0 0 0 0 h 0.28033 v 0 0 0 0 0 0 0 0 0 0 0 0 h 0.28034 v 0 0 0 0 0 0 0 0 0 0 0 0 0 l 0.28033,-7.00833 v 0 0 0 0 0 0 0 0 0 0 0 0 0 h 0.28033 v 0 0 0 0 0 0 0 0 0 0 0 0 0 h 0.28034 v 0 0 0 0 0 0 0 0 0 0 0 0 0 h 0.28033 v 0 0 0 0 0 0 0 7.00833 0 0 0 0 0 h 0.28033 v 0 0 0 0 0 0 0 0 0 0 0 0 0 h 0.28034 v 0 0 0 0 0 0 0 0 0 0 0 0 0 h 0.28033 v 0 0 0 0 0 0 0 0 0 0 0 0 0 h 0.28033 v 0 7.00834 0 0 0 0 0 0 0 0 0 0 0 h 0.28034 v 0 0 0 0 0 0 0 0 0 0 0 0 0 h 0.28033 v 0 0 0 0 0 0 0 0 0 0 0 0 0 h 0.28033 v 0 0 0 0 0 0 0 0 0 0 0 0 0 h 0.28034 v 0 0 0 0 0 0 0 0 0 0 0 0 0 h 0.28033 v 0 0 0 0 0 0 0 0 0 0 0 0 0 h 0.28033 v 0 0 0 0 0 0 0 0 0 0 0 0 0 h 0.28034 v 0 0 0 0 0 0 0 0 0 0 0 0 0 h 0.28033 v 0 0 0 0 0 0 0 0 0 0 0 0 0 h 0.28033 v 0 0 0 0 0 0 0 0 0 0 0 0 0 h 0.28034 v 0 0 0 0 0 0 0 0 0 0 0 0 0 h 0.28033 v 0 0 0 0 0 0 0 0 0 0 0 0 0 h 0.28033 v 0 0 0 0 0 0 0 0 0 0 0 0 0 h 0.28034 v 0 0 0 0 0 0 0 0 0 0 0 0 0 h 0.28033 v 0 0 0 0 0 0 0 0 0 0 0 0 0 h 0.28033 v 0 0 0 0 0 0 0 0 0 0 0 0 0 h 0.28034 v 0 0 0 0 0 0 0 0 0 0 0 0 0 h 0.28033 v 0 0 0 0 0 0 0 0 0 0 0 0 0 h 0.28033 v 0 0 0 0 0 0 0 0 0 0 0 0 0 h 0.28034 v 0 0 0 0 0 0 0 0 0 0 0 0 0 h 0.28033 v 0 0 0 0 0 0 0 0 0 0 0 0 0 h 0.28033 v 0 0 0 0 0 0 0 0 0 0 0 0 0 h 0.28034 v 0 0 0 0 0 0 0 0 0 0 0 0 0 h 0.28033 v 0 0 0 0 0 0 0 0 0 0 0 0 0 h 0.28033 v 0 0 0 0 0 0 0 0 0 0 0 0 0 h 0.28034 v 0 0 0 0 0 0 0 0 0 0 0 0 0 h 0.28033 v 0 0 0 0 0 0 0 0 0 0 0 0 0 h 0.28033 v 0 0 0 0 0 0 0 0 0 0 0 0 0 h 0.28034 v 0 0 0 0 0 0 0 -7.00834 0 0 0 0 0 h 0.28033 v 0 0 0 0 0 0 0 0 0 0 0 0 0 h 0.28033 v 0 0 0 0 0 0 0 0 0 0 0 0 0 h 0.28034 v 0 0 0 0 0 0 0 0 0 0 0 0 0 h 0.28033 v 0 0 0 0 0 0 0 0 0 0 0 0 0 h 0.28033 v 0 0 0 0 0 0 0 0 0 0 0 0 0 h 0.28034 v 0 0 0 0 0 0 0 0 0 0 0 0 0 h 0.28033 v 0 0 0 0 0 0 0 0 0 7.00834 0 0 0 h 0.28033 v 0 0 0 0 0 0 0 0 0 0 0 0 0 h 0.28034 v 0 0 0 0 0 0 0 0 0 0 0 0 0 h 0.28033 v 0 0 0 0 0 0 0 0 0 0 0 0 0 h 0.28033 v 0 0 0 0 0 0 0 0 0 0 0 0 0 h 0.28034 v 0 0 0 0 0 0 0 0 0 0 0 0 0 h 0.28033 v 0 0 0 0 0 0 0 0 0 0 0 0 h 0.28033 v 0 0 0 0 0 0 0 0 0 0 0 0 0 h 0.28034 v 0 0 0 0 0 0 0 0 0 0 0 0 0 h 0.28033 v 0 0 0 0 0 0 0 0 0 0 0 -7.00834 0 h 0.28033 v 0 0 0 0 0 0 0 0 0 0 0 0 0 h 0.28034 v 0 0 0 0 0 0 0 0 0 0 0 0 0 h 0.28033 v 0 0 0 0 0 0 0 0 0 0 0 0 0 h 0.28033 v 0 0 0 0 0 0 0 0 0 0 0 0 0 h 0.28034 v 0 0 0 0 0 0 0 0 0 0 0 0 0 h 0.28033 v 0 0 0 0 0 0 0 0 0 0 0 0 0 h 0.28033 v 0 0 0 0 0 0 0 0 0 0 0 0 0 l 0.28034,7.00834 v 0 0 0 0 0 0 0 0 0 0 0 0 0 h 0.28033 v 0 0 0 0 0 0 0 0 0 0 0 0 0 h 0.28033 v 0 0 0 0 0 0 0 0 0 0 0 0 0 h 0.28034 v 0 0 0 0 0 0 0 0 0 0 0 0 0 h 0.28033 v 0 0 0 0 0 0 0 0 0 0 0 0 0 h 0.28033 v 0 0 0 0 0 0 0 0 0 0 0 0 0 h 0.28034 v 0 0 0 0 0 0 0 0 0 0 0 0 0 h 0.28033 v 0 0 0 0 0 0 0 0 0 0 0 0 0 h 0.28033 v 0 0 0 0 0 0 0 0 0 0 0 0 0 h 0.28034 v 0 0 0 0 0 0 0 0 0 0 0 0 0 h 0.28033 v 0 0 0 0 0 0 0 0 0 0 0 0 0 h 0.28033 v 0 0 0 0 0 0 0 0 0 0 0 0 0 h 0.28034 v 0 0 0 0 0 0 0 0 0 0 0 0 0 h 0.28033 v 0 0 0 0 0 0 0 0 0 0 0 0 0 h 0.28033 v 0 0 0 0 0 0 0 0 0 0 0 0 0 h 0.28034 v 0 0 0 0 0 0 0 0 0 0 0 0 0 h 0.28033 v 0 0 0 0 0 0 0 0 0 0 0 0 0 h 0.28033 v 0 0 0 0 0 0 0 0 0 0 0 0 0 h 0.28034 v 0 0 0 0 0 0 0 0 0 0 0 0 0 h 0.28033 v 0 0 0 0 0 0 0 0 0 0 0 0 0 h 0.28033 v 0 0 0 0 0 0 0 0 0 0 0 0 0 h 0.28034 v 0 0 0 0 0 0 0 0 0 0 0 0 0 h 0.28033 v 0 0 0 0 0 0 0 0 0 0 0 0 0 h 0.28033 v 0 0 0 0 0 0 0 0 0 0 0 0 0 h 0.28034 v 0 0 0 0 0 0 0 0 0 0 0 0 0 h 0.28033 v 0 0 0 0 0 0 0 0 0 0 0 0 0 h 0.28033 v 0 0 0 0 0 0 0 0 0 0 0 0 0 h 0.28034 v 0 0 0 0 0 0 0 0 0 0 0 0 0 h 0.28033 v 0 0 0 0 0 -14.01667 0 0 0 0 0 0 0 h 0.28033 v 0 0 0 0 0 0 0 0 0 0 0 0 0 h 0.28034 v 0 0 0 0 0 0 0 0 0 0 0 0 0 h 0.28033 v 0 0 0 0 0 0 0 0 0 0 0 0 0 h 0.28033 v 0 0 0 0 0 0 0 0 0 0 0 0 0 h 0.28034 v 0 0 0 0 0 0 0 0 0 0 0 0 0 h 0.28033 v 0 0 0 0 0 0 0 0 0 0 0 0 0 h 0.28033 v 0 0 0 0 0 0 0 14.01667 0 0 0 0 0 h 0.28034 v 0 0 0 0 0 0 0 0 0 0 0 0 0 h 0.28033 v 0 0 0 0 0 0 0 0 0 0 0 0 0 h 0.28033 v 0 0 0 0 0 0 0 0 0 0 0 0 0 h 0.28034 v 0 0 0 0 0 0 0 -7.00834 0 0 0 0 h 0.28033 v 0 0 0 0 0 0 0 0 0 0 0 0 0 h 0.28033 v 0 0 0 0 0 0 0 0 0 0 0 0 0 h 0.28034 v 0 0 0 0 0 0 0 0 0 0 0 0 0 h 0.28033 v 0 0 0 0 0 0 0 0 0 0 0 0 0 h 0.28033 v 0 0 0 0 0 0 0 0 0 0 0 0 0 h 0.28034 v 0 0 0 0 0 0 0 0 0 0 0 0 0 h 0.28033 v 0 0 0 0 0 0 0 0 0 0 7.00834 0 0 h 0.28033 v 0 0 0 0 0 0 0 0 0 0 0 0 0 h 0.28034 v 0 0 0 0 0 0 0 0 0 0 0 0 0 h 0.28033 v 0 0 0 0 0 0 0 0 0 0 0 0 0 h 0.28033 v 0 0 0 0 0 0 0 0 0 0 0 0 0 h 0.28034 v 0 0 0 0 0 0 0 0 0 0 0 0 0 h 0.28033 v 0 0 0 0 0 0 0 0 0 0 0 0 0 h 0.28033 v 0 0 0 0 0 0 0 0 0 0 0 0 0 h 0.28034 v 0 0 0 0 0 0 0 0 0 0 0 0 0 h 0.28033 v 0 0 0 0 0 0 0 0 0 0 0 0 0 h 0.28033 v 0 0 0 0 0 0 0 0 0 0 0 0 0 h 0.28034 v 0 0 0 0 0 0 0 0 0 0 0 0 0 h 0.28033 v 0 0 0 0 0 0 0 0 0 0 0 0 0 h 0.28033 v 0 0 0 0 0 0 0 0 0 0 0 0 0 h 0.28034 v 0 0 0 0 0 0 0 0 0 0 0 0 0 h 0.28033 v 0 0 0 0 0 0 0 0 0 0 0 0 0 h 0.28033 v 0 0 0 0 0 0 0 0 0 0 0 0 0 h 0.28034 v 0 0 0 0 0 0 0 0 0 0 0 0 0 h 0.28033 v 0 0 0 0 0 0 0 0 0 0 0 0 0 h 0.28033 v 0 0 0 0 0 0 0 0 0 0 0 0 0 h 0.28034 v 0 0 0 0 0 0 0 0 0 0 0 0 0 h 0.28033 v 0 0 0 0 0 0 0 0 0 0 0 0 0 h 0.28033 v 0 0 0 0 0 0 0 0 0 0 0 0 0 h 0.28034 v 0 0 0 0 0 0 0 0 0 0 0 0 0 h 0.28033 v 0 0 0 0 0 0 0 0 0 0 0 0 0 h 0.28033 v 0 0 0 0 0 0 0 0 0 0 0 0 0 h 0.28034 v 0 0 0 0 0 0 0 0 0 0 0 0 0 h 0.28033 v 0 0 0 0 0 0 -7.00834 0 0 0 0 0 0 h 0.28033 v 0 0 0 0 0 0 0 0 0 0 0 0 0 h 0.28034 v 0 0 0 0 0 0 0 0 0 0 0 0 0 h 0.28033 v 0 0 0 0 0 0 0 0 0 0 0 0 0 h 0.28033 v 0 0 0 0 0 0 0 0 0 0 0 0 0 h 0.28034 v 0 0 0 0 0 0 0 0 0 0 0 0 0 h 0.28033 v 0 0 0 0 0 0 0 0 0 0 0 0 0 h 0.28033 v 0 0 0 0 0 0 0 0 7.00834 0 0 0 0 h 0.28034 v 0 0 0 0 0 0 0 0 0 0 0 0 0 h 0.28033 v 0 0 0 0 0 0 0 0 0 0 0 0 0 h 0.28033 v 0 0 0 0 0 0 0 0 0 0 0 0 0 h 0.28034 v 0 0 0 0 0 0 0 0 0 0 0 0 0 h 0.28033 v 0 0 0 0 0 0 0 0 0 0 0 0 0 h 0.28033 v 0 0 0 0 0 0 0 0 0 0 0 0 0 h 0.28034 v 0 0 0 0 0 0 0 0 0 0 0 0 0 h 0.28033 v 0 0 0 0 -7.00834 0 0 0 0 0 0 0 0 h 0.28033 v 0 0 0 0 0 0 0 0 0 0 0 0 h 0.28034 v 0 0 0 0 0 0 0 0 0 0 0 0 0 h 0.28033 v 0 0 0 0 0 0 0 0 0 0 0 0 0 h 0.28033 v 0 0 0 0 0 0 0 0 0 0 0 0 0 h 0.28034 v 0 0 0 0 0 0 0 0 0 0 0 0 0 h 0.28033 v 0 0 0 0 0 0 0 0 0 0 0 0 0 h 0.28033 v 0 0 0 0 0 0 0 7.00834 0 0 0 0 0 h 0.28034 v 0 0 0 0 0 0 0 0 0 0 0 0 0 h 0.28033 v 0 0 0 0 0 0 0 0 0 0 0 0 0 h 0.28033 v 0 0 0 0 0 0 0 0 0 0 0 0 0 h 0.28034 v 0 0 0 0 0 0 0 0 0 0 0 0 0 h 0.28033 v 0 0 0 0 0 0 0 0 0 0 0 0 0 h 0.28033 v 0 0 0 0 0 0 0 0 0 0 0 0 0 h 0.28034 v 0 0 0 0 0 0 0 0 0 0 0 0 0 h 0.28033 v 0 0 0 0 0 0 0 0 0 0 0 0 0 l 0.28033,-7.00834 v 0 0 0 0 0 0 0 0 0 0 0 0 0 h 0.28034 v 0 0 0 0 0 0 0 0 0 0 0 0 0 h 0.28033 v 0 0 0 0 0 0 0 0 0 0 0 0 0 h 0.28033 v 0 0 0 0 0 0 0 0 0 0 0 0 0 h 0.28034 v 0 0 0 0 0 0 0 0 0 0 0 0 0 h 0.28033 v 0 0 0 0 0 0 0 0 0 0 0 0 0 h 0.28033 v 0 0 0 0 0 0 0 0 0 0 0 0 0 h 0.28034 v 0 7.00834 0 0 0 0 0 0 0 0 0 0 0 h 0.28033 v 0 0 0 0 0 0 0 0 0 0 0 0 0 h 0.28033 v 0 0 0 0 0 0 0 0 0 0 0 0 0 h 0.28034 v 0 0 0 0 0 0 0 0 0 0 0 0 0 h 0.28033 v 0 0 0 0 0 0 0 0 0 0 0 0 0 h 0.28033 v 0 0 0 0 0 0 0 0 0 0 0 0 0 h 0.28034 v 0 0 0 0 0 0 0 0 0 0 0 0 0 h 0.28033 v 0 0 0 0 0 0 0 0 0 0 0 0 0 h 0.28033 v 0 0 0 0 0 0 0 0 0 0 0 0 0 h 0.28034 v 0 0 0 0 0 0 0 0 0 0 0 0 0 h 0.28033 v 0 0 0 0 0 0 0 0 0 0 0 0 0 h 0.28033 v 0 0 0 0 0 0 0 0 0 0 0 0 0 h 0.28034 v 0 0 0 0 0 0 0 0 0 0 0 0 0 h 0.28033 v 0 0 0 0 0 0 0 0 0 0 0 0 0 h 0.28033 v 0 0 0 0 0 0 0 0 0 0 0 0 0 h 0.28034 v 0 0 0 0 0 0 0 0 0 0 0 0 0 h 0.28033 v 0 0 0 0 0 0 0 0 0 0 0 0 0 h 0.28033 v 0 0 0 0 0 0 0 0 0 0 0 0 0 h 0.28034 v 0 0 0 0 0 0 0 0 0 0 0 0 0 h 0.28033 v 0 0 0 0 0 0 0 0 0 0 0 0 0 h 0.28033 v 0 0 0 0 0 0 0 0 0 0 0 0 0 h 0.28034 v 0 0 0 0 0 0 0 0 0 0 0 0 0 h 0.28033 v 0 0 0 0 0 0 0 0 0 0 0 0 0 h 0.28033 v 0 0 0 0 0 0 0 0 0 0 0 0 0 h 0.28034 v 0 0 0 0 0 0 0 0 0 0 0 0 0 h 0.28033 v 0 0 0 0 0 0 0 0 0 0 0 0 0 h 0.28033 v 0 0 0 0 0 0 0 0 0 0 0 0 0 h 0.28034 v 0 0 0 0 0 0 0 0 0 0 0 0 0 h 0.28033 v 0 0 0 0 0 0"
       id="path38" />
    <text
       xml:space="preserve"
       style="font-style:normal;font-variant:normal;font-weight:400;font-size:3.91914px;line-height:125%;font-family:Arial;text-align:start;letter-spacing:0px;word-spacing:0px;text-anchor:start;fill:#000000;fill-opacity:1;stroke:none;stroke-width:0.264583"
       transform="rotate(-90)"
       x="-173.67084"
       y="8.2553978"
       id="text39"><tspan
         sodipodi:role="line"
         x="-173.67084"
         y="8.2553978"
         id="tspan39"
         style="stroke-width:0.264583"><tspan
           dx="0"
           dy="0"
           style="font-style:normal;font-variant:normal;font-weight:400;font-size:3.91914px;font-family:Arial;fill:#000000;stroke-width:0.264583"
           id="tspan38">Breakpoints per 100 nt window</tspan></tspan></text>
  </g>
</svg>
