<?xml version="1.0" encoding="UTF-8" standalone="no"?>
<!-- Created with Inkscape (http://www.inkscape.org/) -->

<svg
   width="210mm"
   height="297mm"
   viewBox="0 0 210 297"
   version="1.1"
   id="svg1"
   inkscape:version="1.3.2 (091e20e, 2023-11-25, custom)"
   sodipodi:docname="O_window100.svg"
   xmlns:inkscape="http://www.inkscape.org/namespaces/inkscape"
   xmlns:sodipodi="http://sodipodi.sourceforge.net/DTD/sodipodi-0.dtd"
   xmlns="http://www.w3.org/2000/svg"
   xmlns:svg="http://www.w3.org/2000/svg">
  <sodipodi:namedview
     id="namedview1"
     pagecolor="#ffffff"
     bordercolor="#999999"
     borderopacity="1"
     inkscape:showpageshadow="2"
     inkscape:pageopacity="0"
     inkscape:pagecheckerboard="0"
     inkscape:deskcolor="#d1d1d1"
     inkscape:document-units="mm"
     inkscape:zoom="0.73139029"
     inkscape:cx="396.50513"
     inkscape:cy="561.25984"
     inkscape:window-width="1920"
     inkscape:window-height="1017"
     inkscape:window-x="-8"
     inkscape:window-y="-8"
     inkscape:window-maximized="1"
     inkscape:current-layer="layer1" />
  <defs
     id="defs1">
    <pattern
       id="EMFhbasepattern"
       patternUnits="userSpaceOnUse"
       width="6"
       height="6"
       x="0"
       y="0" />
  </defs>
  <g
     inkscape:label="Слой 1"
     inkscape:groupmode="layer"
     id="layer1">
    <path
       style="fill:none;stroke:#000000;stroke-width:0.280333px;stroke-linecap:round;stroke-linejoin:round;stroke-miterlimit:4;stroke-dasharray:none;stroke-opacity:1"
       d="m 19.717594,116.07193 v 2.80333 h 1.401667 -1.401667 v 14.01667 h 1.401667 -1.401667 v 14.01666 h 1.401667 -1.401667 v 14.01667 h 1.401667 -1.401667 v 14.01667 h 1.401667 -1.401667 v 2.80333 h 2.803333 v -1.40167 1.40167 h 35.041666 v -1.40167 1.40167 h 35.041668 v -1.40167 1.40167 h 35.041659 v -1.40167 1.40167 h 35.04167 v -1.40167 1.40167 h 2.80333"
       id="path1" />
    <text
       xml:space="preserve"
       style="font-style:normal;font-variant:normal;font-weight:400;font-size:3.91914px;line-height:125%;font-family:Arial;text-align:start;letter-spacing:0px;word-spacing:0px;text-anchor:start;fill:#000000;fill-opacity:1;stroke:none;stroke-width:0.264583"
       x="21.96026"
       y="182.69482"
       id="text2"><tspan
         sodipodi:role="line"
         x="21.96026"
         y="182.69482"
         id="tspan2"
         style="stroke-width:0.264583"><tspan
           dx="0"
           dy="0"
           style="font-style:normal;font-variant:normal;font-weight:400;font-size:3.91914px;font-family:Arial;fill:#000000;stroke-width:0.264583"
           id="tspan1">1</tspan></tspan></text>
    <text
       xml:space="preserve"
       style="font-style:normal;font-variant:normal;font-weight:400;font-size:3.91914px;line-height:125%;font-family:Arial;text-align:start;letter-spacing:0px;word-spacing:0px;text-anchor:start;fill:#000000;fill-opacity:1;stroke:none;stroke-width:0.264583"
       x="54.198597"
       y="182.69482"
       id="text4"><tspan
         sodipodi:role="line"
         x="54.198597"
         y="182.69482"
         id="tspan4"
         style="stroke-width:0.264583"><tspan
           dx="0"
           dy="0"
           style="font-style:normal;font-variant:normal;font-weight:400;font-size:3.91914px;font-family:Arial;fill:#000000;stroke-width:0.264583"
           id="tspan3">1750</tspan></tspan></text>
    <text
       xml:space="preserve"
       style="font-style:normal;font-variant:normal;font-weight:400;font-size:3.91914px;line-height:125%;font-family:Arial;text-align:start;letter-spacing:0px;word-spacing:0px;text-anchor:start;fill:#000000;fill-opacity:1;stroke:none;stroke-width:0.264583"
       x="89.240257"
       y="182.69482"
       id="text6"><tspan
         sodipodi:role="line"
         x="89.240257"
         y="182.69482"
         id="tspan6"
         style="stroke-width:0.264583"><tspan
           dx="0"
           dy="0"
           style="font-style:normal;font-variant:normal;font-weight:400;font-size:3.91914px;font-family:Arial;fill:#000000;stroke-width:0.264583"
           id="tspan5">3500</tspan></tspan></text>
    <text
       xml:space="preserve"
       style="font-style:normal;font-variant:normal;font-weight:400;font-size:3.91914px;line-height:125%;font-family:Arial;text-align:start;letter-spacing:0px;word-spacing:0px;text-anchor:start;fill:#000000;fill-opacity:1;stroke:none;stroke-width:0.264583"
       x="124.28194"
       y="182.69482"
       id="text8"><tspan
         sodipodi:role="line"
         x="124.28194"
         y="182.69482"
         id="tspan8"
         style="stroke-width:0.264583"><tspan
           dx="0"
           dy="0"
           style="font-style:normal;font-variant:normal;font-weight:400;font-size:3.91914px;font-family:Arial;fill:#000000;stroke-width:0.264583"
           id="tspan7">5251</tspan></tspan></text>
    <text
       xml:space="preserve"
       style="font-style:normal;font-variant:normal;font-weight:400;font-size:3.91914px;line-height:125%;font-family:Arial;text-align:start;letter-spacing:0px;word-spacing:0px;text-anchor:start;fill:#000000;fill-opacity:1;stroke:none;stroke-width:0.264583"
       x="159.32361"
       y="182.69482"
       id="text10"><tspan
         sodipodi:role="line"
         x="159.32361"
         y="182.69482"
         id="tspan10"
         style="stroke-width:0.264583"><tspan
           dx="0"
           dy="0"
           style="font-style:normal;font-variant:normal;font-weight:400;font-size:3.91914px;font-family:Arial;fill:#000000;stroke-width:0.264583"
           id="tspan9">6999</tspan></tspan></text>
    <text
       xml:space="preserve"
       style="font-style:normal;font-variant:normal;font-weight:400;font-size:3.91914px;line-height:125%;font-family:Arial;text-align:start;letter-spacing:0px;word-spacing:0px;text-anchor:start;fill:#000000;fill-opacity:1;stroke:none;stroke-width:0.264583"
       x="50.834595"
       y="188.30148"
       id="text12"><tspan
         sodipodi:role="line"
         x="50.834595"
         y="188.30148"
         id="tspan12"
         style="stroke-width:0.264583"><tspan
           dx="0"
           dy="0"
           style="font-style:normal;font-variant:normal;font-weight:400;font-size:3.91914px;font-family:Arial;fill:#000000;stroke-width:0.264583"
           id="tspan11">Nucleotide position in relation to AH012985/KOR/Unknown/2000/O</tspan></tspan></text>
    <text
       xml:space="preserve"
       style="font-style:normal;font-variant:normal;font-weight:400;font-size:3.91914px;line-height:357.646%;font-family:Arial;text-align:start;letter-spacing:0px;word-spacing:0px;text-anchor:start;fill:#000000;fill-opacity:1;stroke:none;stroke-width:0.264583"
       x="8.5042601"
       y="120.74115"
       id="text22"><tspan
         sodipodi:role="line"
         x="8.5042601"
         y="120.74115"
         id="tspan14"
         style="stroke-width:0.264583"><tspan
           dx="0"
           dy="0"
           style="font-style:normal;font-variant:normal;font-weight:400;font-size:3.91914px;font-family:Arial;fill:#000000;stroke-width:0.264583"
           id="tspan13">5.00000</tspan></tspan><tspan
         sodipodi:role="line"
         x="8.5042601"
         y="134.75781"
         id="tspan16"
         style="stroke-width:0.264583"><tspan
           dx="0"
           dy="0"
           style="font-style:normal;font-variant:normal;font-weight:400;font-size:3.91914px;font-family:Arial;fill:#000000;stroke-width:0.264583"
           id="tspan15">3,75.00</tspan></tspan><tspan
         sodipodi:role="line"
         x="8.5042601"
         y="148.77446"
         id="tspan18"
         style="stroke-width:0.264583"><tspan
           dx="0"
           dy="0"
           style="font-style:normal;font-variant:normal;font-weight:400;font-size:3.91914px;font-family:Arial;fill:#000000;stroke-width:0.264583"
           id="tspan17">2,5.000</tspan></tspan><tspan
         sodipodi:role="line"
         x="8.5042601"
         y="162.79111"
         id="tspan20"
         style="stroke-width:0.264583"><tspan
           dx="0"
           dy="0"
           style="font-style:normal;font-variant:normal;font-weight:400;font-size:3.91914px;font-family:Arial;fill:#000000;stroke-width:0.264583"
           id="tspan19">1,25.00</tspan></tspan><tspan
         sodipodi:role="line"
         x="8.5042601"
         y="176.80775"
         id="tspan22"
         style="stroke-width:0.264583"><tspan
           dx="0"
           dy="0"
           style="font-style:normal;font-variant:normal;font-weight:400;font-size:3.91914px;font-family:Arial;fill:#000000;stroke-width:0.264583"
           id="tspan21">0.00000</tspan></tspan></text>
    <path
       style="fill:none;stroke:#000000;stroke-width:0.280333px;stroke-linecap:round;stroke-linejoin:round;stroke-miterlimit:4;stroke-dasharray:none;stroke-opacity:1"
       d="m 28.688261,113.26859 v 1.40167 m 5.606667,-1.40167 v 1.40167 m 0.560666,-1.40167 v 1.40167 m 1.121333,-1.40167 v 1.40167 m 2.523,-1.40167 v 1.40167 m 0.841,-1.40167 v 1.40167 m 5.046001,-1.40167 v 1.40167 m 2.523,-1.40167 v 1.40167 m 0.280332,-1.40167 v 1.40167 m 30.556334,-1.40167 v 1.40167 m 1.401668,-1.40167 v 1.40167 m 0,-1.40167 v 1.40167 m 0,-1.40167 v 1.40167 m 0.560665,-1.40167 v 1.40167 m 0.840999,-1.40167 v 1.40167 m 1.682002,-1.40167 v 1.40167 m 1.401667,-1.40167 v 1.40167 m 0.840999,-1.40167 v 1.40167 m 1.121333,-1.40167 v 1.40167 m 5.887001,-1.40167 v 1.40167 m 0.280334,-1.40167 v 1.40167 m 3.083665,-1.40167 v 1.40167 m 24.949663,-1.40167 v 1.40167 m 1.12133,-1.40167 v 1.40167 m 0,-1.40167 v 1.40167 m 19.90367,-1.40167 v 1.40167 m 3.364,-1.40167 v 1.40167"
       id="path22" />
    <path
       style="fill:none;stroke:#c6c6c6;stroke-width:0.280333px;stroke-linecap:round;stroke-linejoin:round;stroke-miterlimit:4;stroke-dasharray:none;stroke-opacity:1"
       d="m 169.69592,120.27693 h 2.80334"
       id="path23" />
    <text
       xml:space="preserve"
       style="font-style:normal;font-variant:normal;font-weight:400;font-size:3.91914px;line-height:125%;font-family:Arial;text-align:start;letter-spacing:0px;word-spacing:0px;text-anchor:start;fill:#000000;fill-opacity:1;stroke:none;stroke-width:0.264583"
       x="173.90092"
       y="121.58215"
       id="text24"><tspan
         sodipodi:role="line"
         x="173.90092"
         y="121.58215"
         id="tspan24"
         style="stroke-width:0.264583"><tspan
           dx="0"
           dy="0"
           style="font-style:normal;font-variant:normal;font-weight:400;font-size:3.91914px;font-family:Arial;fill:#000000;stroke-width:0.264583"
           id="tspan23">Breakpoint number</tspan></tspan></text>
    <path
       style="fill:none;stroke:#808080;stroke-width:0.280333px;stroke-linecap:round;stroke-linejoin:round;stroke-miterlimit:4;stroke-dasharray:none;stroke-opacity:1"
       d="m 169.69592,124.48193 h 2.80334"
       id="path24" />
    <text
       xml:space="preserve"
       style="font-style:normal;font-variant:normal;font-weight:400;font-size:3.91914px;line-height:125%;font-family:Arial;text-align:start;letter-spacing:0px;word-spacing:0px;text-anchor:start;fill:#000000;fill-opacity:1;stroke:none;stroke-width:0.264583"
       x="173.90092"
       y="125.78716"
       id="text26"><tspan
         sodipodi:role="line"
         x="173.90092"
         y="125.78716"
         id="tspan26"
         style="stroke-width:0.264583"><tspan
           dx="0"
           dy="0"
           style="font-style:normal;font-variant:normal;font-weight:400;font-size:3.91914px;font-family:Arial;fill:#000000;stroke-width:0.264583"
           id="tspan25">Local 95% confidence interval</tspan></tspan></text>
    <path
       style="fill:none;stroke:#000000;stroke-width:0.280333px;stroke-linecap:round;stroke-linejoin:round;stroke-miterlimit:4;stroke-dasharray:none;stroke-opacity:1"
       d="m 169.69592,128.68693 h 2.80334"
       id="path26" />
    <text
       xml:space="preserve"
       style="font-style:normal;font-variant:normal;font-weight:400;font-size:3.91914px;line-height:107.294%;font-family:Arial;text-align:start;letter-spacing:0px;word-spacing:0px;text-anchor:start;fill:#000000;fill-opacity:1;stroke:none;stroke-width:0.264583"
       x="173.90092"
       y="129.99216"
       id="text30"><tspan
         sodipodi:role="line"
         x="173.90092"
         y="129.99216"
         id="tspan28"
         style="stroke-width:0.264583"><tspan
           dx="0"
           dy="0"
           style="font-style:normal;font-variant:normal;font-weight:400;font-size:3.91914px;font-family:Arial;fill:#000000;stroke-width:0.264583"
           id="tspan27">Local 99% confidence interval</tspan></tspan><tspan
         sodipodi:role="line"
         x="173.90092"
         y="134.19716"
         id="tspan30"
         style="stroke-width:0.264583"><tspan
           dx="0"
           dy="0"
           style="font-style:normal;font-variant:normal;font-weight:400;font-size:3.91914px;font-family:Arial;fill:#000000;stroke-width:0.264583"
           id="tspan29">Global 95% confidence limit</tspan></tspan></text>
    <path
       style="fill:none;stroke:#000000;stroke-width:0.280333px;stroke-linecap:round;stroke-linejoin:round;stroke-miterlimit:4;stroke-dasharray:0.79375, 0.264583, 0.264583, 0.264583, 0.264583, 0.264583;stroke-dashoffset:0;stroke-opacity:1"
       d="m 169.69592,132.89193 h 2.80334"
       id="path30" />
    <text
       xml:space="preserve"
       style="font-style:normal;font-variant:normal;font-weight:400;font-size:3.91914px;line-height:125%;font-family:Arial;text-align:start;letter-spacing:0px;word-spacing:0px;text-anchor:start;fill:#000000;fill-opacity:1;stroke:none;stroke-width:0.264583"
       x="173.90092"
       y="138.40216"
       id="text32"><tspan
         sodipodi:role="line"
         x="173.90092"
         y="138.40216"
         id="tspan32"
         style="stroke-width:0.264583"><tspan
           dx="0"
           dy="0"
           style="font-style:normal;font-variant:normal;font-weight:400;font-size:3.91914px;font-family:Arial;fill:#000000;stroke-width:0.264583"
           id="tspan31">Global 99% confidence limit</tspan></tspan></text>
    <path
       style="fill:none;stroke:#000000;stroke-width:0.280333px;stroke-linecap:round;stroke-linejoin:round;stroke-miterlimit:4;stroke-dasharray:0.264583, 0.264583;stroke-dashoffset:0;stroke-opacity:1"
       d="m 169.69592,137.09693 h 2.80334"
       id="path32" />
    <path
       style="fill:none;stroke:#000000;stroke-width:0.280333px;stroke-linecap:round;stroke-linejoin:round;stroke-miterlimit:4;stroke-dasharray:none;stroke-opacity:1"
       d="m 168.29426,117.47359 h 48.778 v 21.866 h -48.778 v -21.866"
       id="path33" />
    <path
       style="fill:none;stroke:#000000;stroke-width:0.280333px;stroke-linecap:round;stroke-linejoin:round;stroke-miterlimit:4;stroke-dasharray:0.264583, 0.264583;stroke-dashoffset:0;stroke-opacity:1"
       d="M 19.717594,118.87526 H 165.49092"
       id="path34" />
    <path
       style="fill:none;stroke:#000000;stroke-width:0.280333px;stroke-linecap:round;stroke-linejoin:round;stroke-miterlimit:4;stroke-dasharray:0.79375, 0.264583, 0.264583, 0.264583, 0.264583, 0.264583;stroke-dashoffset:0;stroke-opacity:1"
       d="M 19.717594,130.08859 H 165.49092"
       id="path35" />
    <path
       style="fill:#c6c6c6;fill-opacity:1;fill-rule:evenodd;stroke:#c6c6c6;stroke-width:0.280333px;stroke-linecap:round;stroke-linejoin:round;stroke-miterlimit:4;stroke-dasharray:none;stroke-opacity:1"
       d="m 22.801261,174.94193 h 0.280333 0.280333 0.280334 v -11.21334 h 0.280333 0.280333 0.280334 0.280333 0.280333 0.280334 0.280333 0.280333 0.280334 v -11.21333 h 0.280333 0.280333 0.280334 0.280333 0.280333 0.280334 0.280333 0.280333 0.280334 0.280333 0.280333 0.280334 0.280334 0.280331 0.280334 0.280334 0.280334 0.280332 0.280334 0.280334 0.280334 0.280331 0.280334 0.280334 0.280334 0.280331 v -11.21333 h 0.280334 v 11.21333 -11.21333 h 0.280334 v 11.21333 h 0.280334 0.280332 0.280334 0.280334 0.280333 0.280332 0.280334 0.280334 0.280334 0.280331 0.280334 0.280334 0.280334 0.280331 0.280334 0.280334 0.280334 0.280334 0.280332 0.280334 0.280334 0.280334 0.280331 0.280334 0.280334 0.280334 0.280331 0.280334 v -11.21333 11.21333 l 0.280334,-11.21333 v 11.21333 -11.21333 h 0.280334 v 11.21333 h 0.280331 v -11.21333 h 0.280334 v 11.21333 h 0.280334 0.280334 0.280332 0.280334 0.280334 0.280334 v -11.21333 h 0.280331 0.280334 0.280334 0.280334 v 11.21333 -11.21333 h 0.280331 0.280334 v 11.21333 -11.21333 l 0.280334,11.21333 v -11.21333 11.21333 -11.21333 h 0.280334 v 11.21333 l 0.280332,-11.21333 v 11.21333 h 0.280333 v -11.21333 11.21333 h 0.280334 v -11.21333 11.21333 h 0.280334 0.280332 v -11.21333 h 0.280334 v 11.21333 h 0.280334 0.280334 0.280331 0.280334 0.280334 0.280334 0.280334 0.280331 0.280334 v -11.21333 11.21333 l 0.280334,-11.21333 v 11.21333 -11.21333 h 0.280334 v 11.21333 -11.21333 h 0.280332 0.280334 0.280334 v 11.21333 -11.21333 h 0.280334 0.280331 0.280334 0.280334 0.280334 0.280331 v 11.21333 -11.21333 h 0.280334 v 11.21333 -11.21333 h 0.280334 0.280334 0.280331 0.280334 0.280334 0.280334 0.280332 0.280334 0.280334 0.280334 0.280331 0.280334 v 11.21333 h 0.280334 v -11.21333 11.21333 h 0.280334 0.280331 0.280334 0.280334 0.280334 0.280331 0.280334 0.280334 0.280334 0.280332 v -11.21333 11.21333 -11.21333 h 0.280334 v 11.21333 -11.21333 11.21333 -11.21333 11.21333 -11.21333 11.21333 h 0.280334 0.280334 v -11.21333 11.21333 h 0.280331 v -11.21333 11.21333 -11.21333 11.21333 h 0.280334 v -11.21333 h 0.280334 0.280334 0.280334 v 11.21333 -11.21333 h 0.280331 0.280334 0.280334 0.280334 0.280332 0.280334 0.280333 0.280334 0.280332 0.280334 0.280334 0.280334 0.280331 v 11.21333 h 0.280334 0.280334 0.280334 0.280331 0.280334 0.280334 v -11.21333 h 0.280334 v 11.21333 -11.21333 l 0.280332,11.21333 v -11.21333 h 0.280334 0.280334 v 11.21333 -11.21333 h 0.280334 0.280331 0.280334 0.280334 0.280334 v 11.21333 h 0.280331 v -11.21333 11.21333 h 0.280334 v -11.21333 11.21333 h 0.280334 v -11.21333 h 0.280334 v 11.21333 -11.21333 11.21333 -11.21333 h 0.280331 v 11.21333 h 0.280334 v -11.21333 11.21333 h 0.280334 v -11.21333 h 0.280334 0.280332 0.280334 0.280334 0.280334 0.280334 0.280331 0.280334 0.280334 0.280334 0.280331 0.280334 v 11.21333 -11.21333 11.21333 l 0.280334,-11.21333 h 0.280334 0.280331 0.280334 0.280334 0.280334 0.280332 0.280334 0.280334 0.280334 0.280331 0.280334 0.280334 0.280334 0.280331 v 11.21333 h 0.280334 v -11.21333 h 0.280334 0.280334 l 0.280332,11.21333 v -11.21333 11.21333 h 0.280334 0.280334 v -11.21333 h 0.280334 0.280331 0.280334 0.280334 0.280334 v 11.21333 h 0.280331 0.280334 0.280334 0.280334 0.280331 0.280334 0.280334 0.280334 0.280334 0.280332 0.280334 0.280334 0.280334 0.280331 0.280334 0.280334 0.280334 0.280331 0.280334 0.280334 0.280334 0.280331 0.280334 0.280334 0.280334 0.280332 0.280334 0.280334 0.280334 0.280331 0.280334 0.280334 0.280334 0.280331 0.280334 0.280334 0.280334 0.280332 0.280334 0.280333 v -11.21333 h 0.280334 v 11.21333 h 0.280332 0.280334 0.280334 0.280334 0.280331 0.280334 0.280334 0.280334 0.280331 0.280334 0.280334 0.280334 0.280334 0.280332 0.280334 0.280334 0.280334 0.280331 0.28033 0.28034 v -11.21333 11.21333 -11.21333 h 0.28033 0.28033 0.28034 0.28033 v 11.21333 -11.21333 h 0.28034 v 11.21333 -11.21333 11.21333 h 0.28033 0.28033 v -11.21333 11.21333 h 0.28033 0.28033 0.28034 0.28033 0.28033 0.28034 0.28033 0.28033 0.28034 0.28033 0.28033 0.28034 0.28033 0.28033 0.28034 v -11.21333 11.21333 -11.21333 h 0.28033 v 11.21333 h 0.28033 l 0.28034,-11.21333 v 11.21333 h 0.28033 0.28033 v -11.21333 11.21333 -11.21333 11.21333 -11.21333 h 0.28034 0.28033 0.28033 0.28034 0.28033 0.28033 0.28034 v 11.21333 h 0.28033 0.28033 0.28034 v -11.21333 11.21333 -11.21333 l 0.28033,11.21333 v -11.21333 11.21333 -11.21333 h 0.28033 v 11.21333 h 0.28034 0.28033 v -11.21333 11.21333 h 0.28033 v -11.21333 11.21333 -11.21333 h 0.28034 0.28033 v 11.21333 h 0.28033 0.28034 0.28033 0.28033 0.28034 0.28033 v -11.21333 h 0.28033 0.28034 v 11.21333 h 0.28033 v -11.21333 h 0.28033 v 11.21333 -11.21333 h 0.28034 0.28033 v 11.21333 -11.21333 h 0.28033 v 11.21333 -11.21333 l 0.28034,11.21333 v -11.21333 11.21333 -11.21333 11.21333 h 0.28033 v -11.21333 h 0.28033 v 11.21333 -11.21333 h 0.28034 v 11.21333 h 0.28033 0.28033 0.28034 v -11.21333 11.21333 h 0.28033 0.28033 0.28034 0.28033 0.28033 0.28034 0.28033 0.28033 0.28034 0.28033 0.28033 0.28034 v -11.21333 l 0.28033,11.21333 h 0.28033 v -11.21333 h 0.28034 v 11.21333 -11.21333 11.21333 h 0.28033 0.28033 0.28034 0.28033 0.28033 0.28034 0.28033 0.28033 0.28034 l 0.28033,11.21333 v -11.21333 11.21333 -11.21333 h 0.28033 0.28034 0.28033 0.28033 0.28034 0.28033 0.28033 0.28034 0.28033 0.28033 0.28034 0.28033 0.28033 0.28034 0.28033 0.28033 0.28034 0.28033 0.28033 0.28034 0.28033 v -11.21333 h 0.28033 0.28034 v 11.21333 -11.21333 11.21333 -11.21333 h 0.28033 0.28033 0.28034 0.28033 v 11.21333 -11.21333 h 0.28033 0.28034 l 0.28033,11.21333 v -11.21333 11.21333 h 0.28033 0.28034 0.28033 0.28033 0.28034 v -11.21333 11.21333 h 0.28033 0.28033 v -11.21333 11.21333 h 0.28034 v -11.21333 h 0.28033 0.28033 0.28034 0.28033 v 11.21333 -11.21333 11.21333 -11.21333 11.21333 h 0.28033 0.28034 0.28033 l 0.28033,-11.21333 v 11.21333 -11.21333 11.21333 -11.21333 h 0.28034 0.28033 0.28033 v 11.21333 -11.21333 h 0.28034 0.28033 v 11.21333 h 0.28033 0.28034 0.28033 0.28033 0.28034 0.28033 0.28033 0.28034 0.28033 0.28033 0.28034 0.28033 0.28033 0.28034 0.28033 0.28033 0.28034 0.28033 0.28033 0.28034 0.28033 0.28033 0.28034 0.28033 0.28033 0.28034 0.28033 0.28033 0.28034 0.28033 0.28033 0.28034 0.28033 0.28033 0.28034 0.28033 0.28033 v -11.21333 11.21333 h 0.28034 v -11.21333 h 0.28033 0.28033 v 11.21333 h 0.28034 0.28033 0.28033 0.28034 0.28033 0.28033 0.28034 0.28033 0.28033 0.28034 0.28033 0.28033 v 11.21333 h 0.28034 v -11.21333 h 0.28033 0.28033 0.28034 v 11.21333 h 0.28033 0.28033 0.28034 0.28033 0.28033 0.28034 0.28033 0.28033 0.28034 0.28033 0.28033 0.28034 0.28033 0.28033 v 11.21334 h 0.28034 0.28033 0.28033 0.28034 0.28033 0.28033 0.28034 0.28033 0.28033 0.28034 0.28033 v 0 h -0.28033 -0.28034 -0.28033 -0.28033 -0.28034 -0.28033 -0.28033 -0.28034 -0.28033 -0.28033 -0.28034 -0.28033 -0.28033 -0.28034 -0.28033 -0.28033 -0.28034 -0.28033 -0.28033 -0.28034 -0.28033 -0.28033 -0.28034 -0.28033 -0.28033 -0.28034 -0.28033 -0.28033 -0.28034 -0.28033 -0.28033 -0.28034 -0.28033 -0.28033 -0.28034 -0.28033 -0.28033 -0.28034 -0.28033 -0.28033 -0.28034 -0.28033 -0.28033 -0.28034 -0.28033 -0.28033 -0.28034 -0.28033 -0.28033 -0.28034 -0.28033 -0.28033 -0.28034 -0.28033 -0.28033 -0.28034 -0.28033 -0.28033 -0.28034 -0.28033 -0.28033 -0.28034 -0.28033 -0.28033 -0.28034 -0.28033 -0.28033 -0.28034 -0.28033 -0.28033 -0.28034 -0.28033 -0.28033 -0.28034 -0.28033 -0.28033 -0.28034 -0.28033 -0.28033 -0.28034 -0.28033 -0.28033 -0.28034 -0.28033 -0.28033 -0.28034 -0.28033 -0.28033 -0.28034 -0.28033 -0.28033 -0.28034 -0.28033 -0.28033 -0.28034 -0.28033 -0.28033 -0.28034 -0.28033 -0.28033 -0.28034 -0.28033 -0.28033 -0.28034 -0.28033 -0.28033 -0.28034 -0.28033 -0.28033 -0.28034 -0.28033 -0.28033 -0.28034 -0.28033 -0.28033 -0.28034 -0.28033 -0.28033 -0.28034 -0.28033 -0.28033 -0.28034 -0.28033 -0.28033 -0.28034 -0.28033 -0.28033 -0.28034 -0.28033 -0.28033 -0.28034 -0.28033 -0.28033 -0.28034 -0.28033 -0.28033 -0.28034 -0.28033 -0.28033 -0.28034 -0.28033 -0.28033 -0.28034 -0.28033 -0.28033 -0.28034 -0.28033 -0.28033 -0.28034 -0.28033 -0.28033 -0.28034 -0.28033 -0.28033 -0.28034 -0.28033 -0.28033 -0.28034 -0.28033 -0.28033 -0.28034 -0.28033 -0.28033 -0.28034 -0.28033 -0.28033 -0.28034 -0.28033 -0.28033 -0.28034 -0.28033 -0.28033 -0.28034 -0.28033 -0.28033 -0.28034 -0.28033 -0.28033 -0.28034 -0.28033 -0.28033 -0.28034 -0.28033 -0.28033 -0.28034 -0.28033 -0.28033 -0.28034 -0.28033 -0.28033 -0.28034 -0.28033 -0.28033 -0.28034 -0.28033 -0.28033 -0.28034 -0.28033 -0.28033 -0.28034 -0.28033 -0.28033 -0.28034 -0.28033 -0.28033 -0.28034 -0.28033 -0.28033 -0.28034 -0.28033 -0.28033 -0.28034 -0.28033 -0.28033 -0.28033 -0.28033 -0.28034 -0.28033 -0.28034 -0.28033 -0.28033 -0.28034 -0.28033 H 99.892929 99.612595 99.332261 99.051927 98.771595 98.491261 98.210927 97.930593 97.650259 97.369928 97.089594 96.80926 96.528926 96.248595 95.968261 95.687927 95.407593 95.127261 94.846927 94.566594 94.28626 94.005928 93.725594 93.44526 93.164926 92.884595 92.604261 92.323927 92.043593 91.763262 91.482928 91.202594 90.92226 90.641928 90.361594 90.08126 89.800926 89.520595 89.240261 88.959927 88.679593 88.399262 88.118928 87.838594 87.55826 87.277929 86.997595 86.717261 86.436927 86.156595 85.876261 85.595927 85.315593 85.035259 84.754928 84.474594 84.19426 83.913926 83.633595 83.353261 83.072927 82.792593 82.512262 82.231928 81.951594 81.67126 81.390928 81.110594 80.83026 80.549926 80.269595 79.989261 79.708927 79.428593 79.148262 78.867928 78.587594 78.30726 78.026928 77.746594 77.46626 77.185926 76.905595 76.625261 76.344927 76.064593 75.784262 75.503928 75.223594 74.94326 74.662929 74.382595 74.102261 73.821927 73.541593 73.261261 72.980927 72.700593 72.420259 72.139928 71.859594 71.57926 71.298926 71.018595 70.738261 70.457927 70.177593 69.897262 69.616928 69.336594 69.05626 68.775928 68.495594 68.21526 67.934926 67.654595 67.374261 67.093927 66.813593 66.533262 66.252928 65.972594 65.69226 65.411928 65.131594 64.851261 64.570927 64.290595 64.010261 63.729927 63.449593 63.169262 62.888928 62.608594 62.32826 62.047926 61.767595 61.487261 61.206927 60.926593 60.646261 60.365927 60.085593 59.805259 59.524928 59.244594 58.96426 58.683926 58.403595 58.123261 57.842927 57.562593 57.282262 57.001928 56.721594 56.44126 56.160928 55.880594 55.60026 55.319926 55.039595 54.759261 54.478927 54.198593 53.918262 53.637928 53.357594 53.07726 52.796929 52.516595 52.236261 51.955927 51.675595 51.395261 51.114927 50.834593 50.554262 50.273928 49.993594 49.71326 49.432926 49.152595 48.872261 48.591927 48.311593 48.031261 47.750927 47.470593 47.19026 46.909928 46.629594 46.34926 46.068926 45.788595 45.508261 45.227927 44.947593 44.667262 44.386928 44.106594 43.82626 43.545928 43.265594 42.98526 42.704926 42.424595 42.144261 41.863927 41.583593 41.303262 41.022928 40.742594 40.46226 40.181929 39.901595 39.621261 39.340927 39.060595 38.780261 38.499927 38.219593 37.939259 37.658928 37.378594 37.09826 36.817926 36.537595 36.257261 35.976927 35.696593 35.416261 35.135928 34.855594 34.57526 34.294928 34.014594 33.73426 33.453926 33.173595 32.893261 32.612927 32.332593 32.052262 31.771928 31.491594 31.21126 30.930928 30.650594 30.37026 30.089926 29.809595 29.529261 29.248927 28.968594 28.688261 28.407927 28.127594 27.847261 27.566927 27.286594 27.006261 26.725927 26.445594 26.165261 25.884927 25.604594 25.324261 25.043927 24.763594 24.483261 24.202927 23.922594 23.642261 23.361927 23.081594 Z"
       id="path36" />
    <path
       style="fill:#808080;fill-opacity:1;fill-rule:evenodd;stroke:#808080;stroke-width:0.280333px;stroke-linecap:round;stroke-linejoin:round;stroke-miterlimit:4;stroke-dasharray:none;stroke-opacity:1"
       d="m 22.801261,174.94193 h 0.280333 0.280333 0.280334 0.280333 0.280333 0.280334 0.280333 0.280333 v -11.21334 h 0.280334 0.280333 0.280333 0.280334 0.280333 0.280333 0.280334 0.280333 0.280333 0.280334 0.280333 0.280333 0.280334 0.280333 0.280333 0.280334 0.280334 0.280331 0.280334 0.280334 0.280334 0.280332 0.280334 0.280334 0.280334 0.280331 0.280334 0.280334 0.280334 v -11.21333 h 0.280331 0.280334 0.280334 0.280334 0.280332 0.280334 0.280334 v 11.21333 h 0.280333 0.280332 0.280334 0.280334 0.280334 0.280331 0.280334 0.280334 0.280334 0.280331 v -11.21333 h 0.280334 v 11.21333 -11.21333 11.21333 h 0.280334 0.280334 0.280334 0.280332 0.280334 0.280334 0.280334 0.280331 0.280334 0.280334 0.280334 v -11.21333 11.21333 h 0.280331 v -11.21333 h 0.280334 0.280334 0.280334 0.280331 0.280334 0.280334 0.280334 0.280332 0.280334 v 11.21333 -11.21333 h 0.280334 0.280334 0.280331 0.280334 0.280334 0.280334 0.280331 0.280334 0.280334 0.280334 0.280332 0.280333 0.280334 0.280334 0.280332 0.280334 v 11.21333 h 0.280334 0.280334 v -11.21333 h 0.280331 v 11.21333 -11.21333 11.21333 -11.21333 11.21333 l 0.280334,-11.21333 v 11.21333 -11.21333 11.21333 h 0.280334 v -11.21333 h 0.280334 v 11.21333 -11.21333 11.21333 h 0.280334 v -11.21333 h 0.280331 0.280334 0.280334 0.280334 0.280332 0.280334 0.280334 0.280334 0.280331 0.280334 0.280334 0.280334 0.280331 0.280334 0.280334 0.280334 0.280331 0.280334 0.280334 0.280334 0.280332 0.280334 0.280334 0.280334 0.280331 0.280334 0.280334 0.280334 v 11.21333 h 0.280331 0.280334 0.280334 0.280334 0.280331 v -11.21333 h 0.280334 0.280334 0.280334 0.280332 0.280334 0.280334 0.280334 0.280331 0.280334 0.280334 0.280334 0.280334 0.280331 0.280334 0.280334 0.280334 0.280332 0.280334 0.280333 0.280334 0.280332 0.280334 0.280334 0.280334 0.280331 0.280334 0.280334 0.280334 0.280331 v 11.21333 -11.21333 h 0.280334 0.280334 0.280334 0.280332 0.280334 0.280334 0.280334 0.280331 0.280334 0.280334 0.280334 0.280331 0.280334 0.280334 0.280334 0.280331 0.280334 0.280334 0.280334 0.280332 0.280334 0.280334 0.280334 0.280334 0.280331 0.280334 0.280334 0.280334 0.280331 0.280334 0.280334 0.280334 0.280331 0.280334 0.280334 0.280334 0.280332 0.280334 0.280334 0.280334 0.280331 0.280334 0.280334 0.280334 0.280331 0.280334 0.280334 0.280334 0.280332 0.280334 0.280334 0.280334 0.280331 0.280334 0.280334 0.280334 0.280331 v 11.21333 h 0.280334 0.280334 0.280334 0.280331 0.280334 0.280334 0.280334 0.280334 0.280332 0.280334 0.280334 0.280334 0.280331 v -11.21333 l 0.280334,11.21333 v -11.21333 h 0.280334 v 11.21333 h 0.280334 0.280331 0.280334 0.280334 0.280334 v -11.21333 11.21333 h 0.280331 0.280334 0.280334 v -11.21333 11.21333 h 0.280334 0.280332 0.280334 v -11.21333 11.21333 h 0.280334 v -11.21333 11.21333 h 0.280334 0.280331 0.280334 l 0.280334,-11.21333 v 11.21333 -11.21333 11.21333 -11.21333 11.21333 h 0.280334 0.280331 v -11.21333 11.21333 h 0.280334 0.280334 v -11.21333 h 0.280334 0.280332 0.280334 v 11.21333 h 0.280333 v -11.21333 11.21333 h 0.280334 0.280332 0.280334 v -11.21333 11.21333 -11.21333 11.21333 l 0.280334,-11.21333 v 11.21333 -11.21333 11.21333 h 0.280334 v -11.21333 11.21333 -11.21333 h 0.280331 0.280334 0.280334 0.280334 0.280331 l 0.280334,11.21333 v -11.21333 11.21333 h 0.280334 0.280334 0.280334 v -11.21333 11.21333 -11.21333 h 0.280332 0.280334 0.280334 0.280334 0.280331 0.28033 0.28034 0.28033 0.28033 0.28034 0.28033 0.28034 0.28033 0.28033 0.28033 0.28033 v 11.21333 h 0.28034 0.28033 v -11.21333 h 0.28033 v 11.21333 h 0.28034 0.28033 0.28033 0.28034 0.28033 v -11.21333 h 0.28033 v 11.21333 -11.21333 11.21333 -11.21333 11.21333 h 0.28034 v -11.21333 h 0.28033 v 11.21333 h 0.28033 v -11.21333 h 0.28034 0.28033 0.28033 0.28034 0.28033 0.28033 0.28034 0.28033 0.28033 0.28034 0.28033 0.28033 0.28034 0.28033 0.28033 0.28034 0.28033 0.28033 0.28034 0.28033 0.28033 0.28034 0.28033 0.28033 0.28034 v 11.21333 -11.21333 h 0.28033 v 11.21333 -11.21333 11.21333 -11.21333 h 0.28033 0.28034 0.28033 0.28033 0.28034 0.28033 0.28033 0.28034 0.28033 0.28033 0.28034 0.28033 0.28033 0.28034 0.28033 0.28033 0.28034 0.28033 0.28033 v 11.21333 h 0.28034 0.28033 0.28033 0.28034 0.28033 0.28033 0.28034 0.28033 0.28033 0.28034 v -11.21333 l 0.28033,11.21333 v -11.21333 11.21333 -11.21333 11.21333 h 0.28033 v -11.21333 h 0.28034 v 11.21333 -11.21333 11.21333 h 0.28033 0.28033 v -11.21333 11.21333 h 0.28034 0.28033 0.28033 0.28034 0.28033 0.28033 0.28034 0.28033 0.28033 0.28034 0.28033 0.28033 v -11.21333 h 0.28034 0.28033 0.28033 0.28034 0.28033 0.28033 0.28034 0.28033 v 11.21333 h 0.28033 0.28034 0.28033 v -11.21333 11.21333 h 0.28033 v -11.21333 h 0.28034 v 11.21333 -11.21333 h 0.28033 0.28033 0.28034 0.28033 0.28033 0.28034 0.28033 0.28033 0.28034 0.28033 0.28033 0.28034 0.28033 0.28033 0.28034 0.28033 0.28033 v 11.21333 -11.21333 11.21333 l 0.28034,-11.21333 v 11.21333 -11.21333 11.21333 -11.21333 11.21333 h 0.28033 v -11.21333 11.21333 -11.21333 h 0.28033 0.28034 0.28033 0.28033 0.28034 0.28033 0.28033 0.28034 0.28033 0.28033 0.28034 0.28033 0.28033 0.28034 0.28033 0.28033 0.28034 0.28033 v 11.21333 -11.21333 h 0.28033 0.28034 v 11.21333 -11.21333 11.21333 -11.21333 11.21333 h 0.28033 v -11.21333 11.21333 -11.21333 11.21333 h 0.28033 v -11.21333 h 0.28034 0.28033 0.28033 0.28034 v 11.21333 h 0.28033 0.28033 l 0.28034,-11.21333 v 11.21333 -11.21333 11.21333 -11.21333 11.21333 h 0.28033 0.28033 v -11.21333 11.21333 -11.21333 11.21333 h 0.28034 0.28033 0.28033 0.28034 0.28033 0.28033 0.28034 0.28033 0.28033 0.28034 0.28033 0.28033 0.28034 0.28033 0.28033 0.28034 0.28033 v -11.21333 11.21333 -11.21333 11.21333 -11.21333 11.21333 -11.21333 h 0.28033 0.28034 0.28033 0.28033 0.28034 0.28033 0.28033 0.28034 0.28033 v 11.21333 h 0.28033 0.28034 0.28033 0.28033 0.28034 0.28033 0.28033 0.28034 0.28033 0.28033 0.28034 0.28033 0.28033 0.28034 0.28033 0.28033 0.28034 0.28033 0.28033 0.28034 0.28033 0.28033 0.28034 v 11.21334 h 0.28033 0.28033 0.28034 0.28033 0.28033 0.28034 0.28033 0.28033 0.28034 0.28033 0.28033 0.28034 0.28033 0.28033 0.28034 0.28033 v 0 h -0.28033 -0.28034 -0.28033 -0.28033 -0.28034 -0.28033 -0.28033 -0.28034 -0.28033 -0.28033 -0.28034 -0.28033 -0.28033 -0.28034 -0.28033 -0.28033 -0.28034 -0.28033 -0.28033 -0.28034 -0.28033 -0.28033 -0.28034 -0.28033 -0.28033 -0.28034 -0.28033 -0.28033 -0.28034 -0.28033 -0.28033 -0.28034 -0.28033 -0.28033 -0.28034 -0.28033 -0.28033 -0.28034 -0.28033 -0.28033 -0.28034 -0.28033 -0.28033 -0.28034 -0.28033 -0.28033 -0.28034 -0.28033 -0.28033 -0.28034 -0.28033 -0.28033 -0.28034 -0.28033 -0.28033 -0.28034 -0.28033 -0.28033 -0.28034 -0.28033 -0.28033 -0.28034 -0.28033 -0.28033 -0.28034 -0.28033 -0.28033 -0.28034 -0.28033 -0.28033 -0.28034 -0.28033 -0.28033 -0.28034 -0.28033 -0.28033 -0.28034 -0.28033 -0.28033 -0.28034 -0.28033 -0.28033 -0.28034 -0.28033 -0.28033 -0.28034 -0.28033 -0.28033 -0.28034 -0.28033 -0.28033 -0.28034 -0.28033 -0.28033 -0.28034 -0.28033 -0.28033 -0.28034 -0.28033 -0.28033 -0.28034 -0.28033 -0.28033 -0.28034 -0.28033 -0.28033 -0.28034 -0.28033 -0.28033 -0.28034 -0.28033 -0.28033 -0.28034 -0.28033 -0.28033 -0.28034 -0.28033 -0.28033 -0.28034 -0.28033 -0.28033 -0.28034 -0.28033 -0.28033 -0.28034 -0.28033 -0.28033 -0.28034 -0.28033 -0.28033 -0.28034 -0.28033 -0.28033 -0.28034 -0.28033 -0.28033 -0.28034 -0.28033 -0.28033 -0.28034 -0.28033 -0.28033 -0.28034 -0.28033 -0.28033 -0.28034 -0.28033 -0.28033 -0.28034 -0.28033 -0.28033 -0.28034 -0.28033 -0.28033 -0.28034 -0.28033 -0.28033 -0.28034 -0.28033 -0.28033 -0.28034 -0.28033 -0.28033 -0.28034 -0.28033 -0.28033 -0.28034 -0.28033 -0.28033 -0.28034 -0.28033 -0.28033 -0.28034 -0.28033 -0.28033 -0.28034 -0.28033 -0.28033 -0.28034 -0.28033 -0.28033 -0.28034 -0.28033 -0.28033 -0.28034 -0.28033 -0.28033 -0.28034 -0.28033 -0.28033 -0.28034 -0.28033 -0.28033 -0.28034 -0.28033 -0.28033 -0.28034 -0.28033 -0.28033 -0.28034 -0.28033 -0.28033 -0.28034 -0.28033 -0.28033 -0.28034 -0.28033 -0.28033 -0.28034 -0.28033 -0.28033 -0.28034 -0.28033 -0.28033 -0.28033 -0.28033 -0.28034 -0.28033 -0.28034 -0.28033 -0.28033 -0.28034 -0.28033 H 99.892929 99.612595 99.332261 99.051927 98.771595 98.491261 98.210927 97.930593 97.650259 97.369928 97.089594 96.80926 96.528926 96.248595 95.968261 95.687927 95.407593 95.127261 94.846927 94.566594 94.28626 94.005928 93.725594 93.44526 93.164926 92.884595 92.604261 92.323927 92.043593 91.763262 91.482928 91.202594 90.92226 90.641928 90.361594 90.08126 89.800926 89.520595 89.240261 88.959927 88.679593 88.399262 88.118928 87.838594 87.55826 87.277929 86.997595 86.717261 86.436927 86.156595 85.876261 85.595927 85.315593 85.035259 84.754928 84.474594 84.19426 83.913926 83.633595 83.353261 83.072927 82.792593 82.512262 82.231928 81.951594 81.67126 81.390928 81.110594 80.83026 80.549926 80.269595 79.989261 79.708927 79.428593 79.148262 78.867928 78.587594 78.30726 78.026928 77.746594 77.46626 77.185926 76.905595 76.625261 76.344927 76.064593 75.784262 75.503928 75.223594 74.94326 74.662929 74.382595 74.102261 73.821927 73.541593 73.261261 72.980927 72.700593 72.420259 72.139928 71.859594 71.57926 71.298926 71.018595 70.738261 70.457927 70.177593 69.897262 69.616928 69.336594 69.05626 68.775928 68.495594 68.21526 67.934926 67.654595 67.374261 67.093927 66.813593 66.533262 66.252928 65.972594 65.69226 65.411928 65.131594 64.851261 64.570927 64.290595 64.010261 63.729927 63.449593 63.169262 62.888928 62.608594 62.32826 62.047926 61.767595 61.487261 61.206927 60.926593 60.646261 60.365927 60.085593 59.805259 59.524928 59.244594 58.96426 58.683926 58.403595 58.123261 57.842927 57.562593 57.282262 57.001928 56.721594 56.44126 56.160928 55.880594 55.60026 55.319926 55.039595 54.759261 54.478927 54.198593 53.918262 53.637928 53.357594 53.07726 52.796929 52.516595 52.236261 51.955927 51.675595 51.395261 51.114927 50.834593 50.554262 50.273928 49.993594 49.71326 49.432926 49.152595 48.872261 48.591927 48.311593 48.031261 47.750927 47.470593 47.19026 46.909928 46.629594 46.34926 46.068926 45.788595 45.508261 45.227927 44.947593 44.667262 44.386928 44.106594 43.82626 43.545928 43.265594 42.98526 42.704926 42.424595 42.144261 41.863927 41.583593 41.303262 41.022928 40.742594 40.46226 40.181929 39.901595 39.621261 39.340927 39.060595 38.780261 38.499927 38.219593 37.939259 37.658928 37.378594 37.09826 36.817926 36.537595 36.257261 35.976927 35.696593 35.416261 35.135928 34.855594 34.57526 34.294928 34.014594 33.73426 33.453926 33.173595 32.893261 32.612927 32.332593 32.052262 31.771928 31.491594 31.21126 30.930928 30.650594 30.37026 30.089926 29.809595 29.529261 29.248927 28.968594 28.688261 28.407927 28.127594 27.847261 27.566927 27.286594 27.006261 26.725927 26.445594 26.165261 25.884927 25.604594 25.324261 25.043927 24.763594 24.483261 24.202927 23.922594 23.642261 23.361927 23.081594 Z"
       id="path37" />
    <path
       style="fill:none;stroke:#000000;stroke-width:0.280333px;stroke-linecap:round;stroke-linejoin:round;stroke-miterlimit:4;stroke-dasharray:none;stroke-opacity:1"
       d="m 22.520927,174.94193 v 0 0 0 0 0 h 0.280334 v 0 0 0 0 0 0 0 0 0 0 0 0 0 h 0.280333 v 0 0 0 0 0 0 0 0 0 0 0 0 0 h 0.280333 v 0 0 0 0 0 0 0 0 0 0 0 0 0 h 0.280334 v 0 0 0 0 0 0 0 0 0 0 0 0 0 h 0.280333 v 0 0 0 0 0 0 0 0 0 0 0 0 0 h 0.280333 v 0 0 0 0 0 0 0 0 0 0 0 0 0 h 0.280334 v 0 0 0 0 0 0 0 0 0 0 0 0 0 h 0.280333 v 0 0 0 0 0 0 0 0 0 0 0 0 0 h 0.280333 v 0 0 0 0 0 0 0 0 0 0 0 0 0 h 0.280334 v 0 0 0 0 0 0 0 0 0 0 0 0 0 h 0.280333 v 0 0 0 0 0 0 0 0 0 0 0 0 0 h 0.280333 v 0 0 0 0 0 0 0 0 0 0 0 0 0 h 0.280334 v 0 0 0 0 0 0 0 0 0 0 0 0 0 h 0.280333 v 0 0 0 0 0 0 0 0 0 0 0 0 0 h 0.280333 v 0 0 0 0 0 0 0 0 0 0 0 0 0 h 0.280334 v 0 0 0 0 0 0 0 0 0 0 0 0 0 h 0.280333 v 0 0 0 0 0 0 0 0 0 0 0 0 0 h 0.280333 v 0 0 0 0 0 0 0 0 0 0 0 -11.21334 0 h 0.280334 v 0 0 0 0 0 0 0 0 0 0 0 0 0 h 0.280333 v 0 0 0 0 0 0 0 0 0 0 0 0 0 h 0.280333 v 0 0 0 0 0 0 0 0 0 0 0 0 0 h 0.280334 v 0 0 0 0 0 0 0 0 0 0 0 0 0 h 0.280333 v 0 0 0 0 0 0 0 0 0 0 0 0 0 h 0.280333 v 0 0 0 0 0 0 0 0 0 0 0 0 0 h 0.280334 v 0 0 0 0 0 0 0 0 0 0 0 0 0 l 0.280334,11.21334 v 0 0 0 0 0 0 0 0 0 0 0 0 0 h 0.280331 v 0 0 0 0 0 0 0 0 0 0 0 0 0 h 0.280334 v 0 0 0 0 0 0 0 0 0 0 0 0 0 h 0.280334 v 0 0 0 0 0 0 0 0 0 0 0 0 0 h 0.280334 v 0 0 0 0 0 0 0 0 0 0 0 0 0 h 0.280332 v 0 0 0 0 0 0 0 0 0 0 0 0 0 h 0.280334 v 0 0 0 0 0 0 0 0 0 0 0 0 0 h 0.280334 v 0 0 0 0 0 0 0 0 0 0 0 0 0 h 0.280334 v 0 0 0 0 0 0 0 0 0 0 0 0 0 h 0.280331 v 0 0 0 0 0 0 0 0 0 0 0 0 0 h 0.280334 v 0 0 0 0 0 0 0 0 0 0 0 0 0 h 0.280334 v 0 0 0 0 0 0 0 0 0 0 0 0 0 h 0.280334 v 0 0 0 0 0 0 0 0 0 0 -11.21334 0 0 h 0.280331 v 0 0 0 0 0 0 0 0 0 0 0 0 0 h 0.280334 v 0 0 0 0 0 0 0 0 0 0 0 0 0 h 0.280334 v 0 0 -11.21333 0 0 0 0 0 0 0 0 0 0 h 0.280334 v 0 0 0 0 0 0 0 0 0 0 0 0 0 h 0.280332 v 0 0 0 0 0 0 0 0 0 0 0 0 0 h 0.280334 v 0 0 0 0 0 0 0 0 0 0 0 0 0 l 0.280334,-11.21333 v 0 0 0 0 0 0 0 0 0 0 0 0 11.21333 h 0.280333 v 0 0 0 0 0 0 0 0 0 0 0 0 0 h 0.280332 v 0 0 0 0 0 0 0 0 0 0 0 0 0 h 0.280334 v 0 0 0 0 11.21333 0 0 0 0 0 0 0 0 h 0.280334 v 0 0 0 0 0 0 0 0 0 0 0 0 0 h 0.280334 v 0 0 0 0 0 0 0 0 0 0 0 0 0 h 0.280331 v 0 0 0 0 0 0 0 0 0 0 0 0 0 h 0.280334 v 0 11.21334 0 0 0 0 0 0 0 0 0 0 0 h 0.280334 v 0 0 0 0 0 0 0 0 0 0 0 -11.21334 0 h 0.280334 v 0 0 0 0 0 0 0 0 0 0 0 0 0 h 0.280331 v 0 0 0 0 0 0 0 0 0 0 0 0 0 h 0.280334 v 0 0 0 0 0 0 0 0 0 0 0 0 0 h 0.280334 v 0 -11.21333 0 0 0 0 0 0 0 0 0 0 0 h 0.280334 v 0 0 0 0 0 0 0 0 0 0 0 0 0 h 0.280334 v 0 0 0 0 0 0 0 0 0 0 0 0 0 h 0.280332 v 0 0 0 0 0 0 0 0 0 0 0 0 0 l 0.280334,11.21333 v 0 0 0 0 0 0 0 0 0 0 0 0 0 h 0.280334 v 0 0 0 0 0 0 0 0 0 0 0 0 0 h 0.280334 v 0 0 0 0 0 0 0 0 0 0 0 0 0 h 0.280331 v 0 0 0 11.21334 0 0 0 0 0 0 0 0 0 h 0.280334 v 0 0 0 0 0 0 0 0 0 0 0 0 0 h 0.280334 v 0 0 0 0 0 0 0 0 0 0 0 0 0 h 0.280334 v 0 0 0 0 0 0 0 0 0 0 0 0 0 h 0.280331 v 0 0 0 0 0 0 0 0 0 0 0 0 0 h 0.280334 v 0 0 0 0 0 0 0 0 0 0 0 0 0 h 0.280334 v 0 0 0 0 0 0 0 0 0 0 0 0 0 h 0.280334 v 0 0 0 0 0 0 0 0 0 0 0 0 0 h 0.280331 v 0 0 0 0 0 0 0 0 0 0 0 0 0 h 0.280334 v 0 0 0 0 0 0 0 0 0 0 0 0 0 h 0.280334 v 0 0 0 0 0 0 -11.21334 0 0 0 0 0 0 h 0.280334 v 0 0 0 0 0 0 0 0 0 0 0 0 0 h 0.280332 v 0 0 0 0 0 0 0 0 0 0 0 0 0 h 0.280334 v 0 0 0 0 0 0 0 0 0 0 0 0 0 h 0.280334 v 0 0 0 0 0 0 0 0 0 0 0 0 0 h 0.280334 v 0 0 0 0 0 0 0 0 0 0 0 0 0 h 0.280331 v 0 0 0 0 0 0 0 0 0 0 0 0 0 h 0.280334 v 0 0 0 0 0 0 0 0 11.21334 0 0 0 0 h 0.280334 v 0 0 0 0 0 0 0 0 0 0 0 0 0 h 0.280334 v 0 0 0 0 0 0 0 0 0 0 0 0 0 h 0.280331 v -11.21334 0 0 0 0 0 0 0 0 0 -11.21333 0 0 h 0.280334 v 0 0 0 0 0 0 0 0 0 0 0 0 0 h 0.280334 v 0 0 0 0 0 0 0 0 0 0 0 0 0 h 0.280334 v 0 0 0 0 0 0 0 0 0 0 0 0 0 h 0.280332 v 0 0 0 0 0 0 0 0 0 0 0 0 0 h 0.280333 v 0 0 0 0 0 0 0 0 0 0 0 0 0 h 0.280334 v 0 0 0 0 0 0 0 0 0 0 0 0 0 h 0.280334 v 0 0 11.21333 0 0 0 0 0 0 0 0 0 11.21334 h 0.280332 v 0 0 0 0 0 0 0 0 0 0 0 0 0 h 0.280334 v 0 0 0 0 0 0 0 0 0 0 0 0 0 h 0.280334 v 0 0 0 0 0 0 0 0 0 0 0 0 0 h 0.280334 v 0 0 0 0 0 0 0 0 0 0 0 0 0 h 0.280331 v 0 0 0 0 0 0 0 0 0 0 0 0 0 h 0.280334 v 0 0 0 0 0 0 0 0 0 0 0 0 0 h 0.280334 v 0 0 0 0 0 0 0 0 0 0 0 0 0 h 0.280334 v 0 0 0 0 0 0 0 0 0 0 0 0 0 h 0.280334 v 0 0 0 0 0 0 0 0 0 0 0 0 0 h 0.280331 v 0 0 0 0 0 0 0 0 0 0 0 0 0 h 0.280334 v 0 0 0 0 0 0 0 0 0 0 0 0 0 h 0.280334 v 0 0 0 0 0 0 0 0 0 0 0 0 0 h 0.280334 v 0 0 0 0 0 0 0 0 0 0 0 0 0 h 0.280332 v 0 0 0 0 0 0 0 0 0 0 0 0 0 h 0.280334 v 0 0 0 0 0 0 0 0 0 0 0 0 0 h 0.280334 v 0 0 0 0 0 0 0 0 0 0 0 0 0 h 0.280334 v 0 0 0 0 0 0 0 0 0 0 0 0 0 h 0.280331 v 0 0 0 0 0 0 0 0 0 0 0 0 0 h 0.280334 v 0 0 0 0 0 0 0 0 0 0 0 0 0 h 0.280334 v 0 0 0 0 0 0 0 0 0 0 0 0 0 h 0.280334 v 0 0 0 0 0 0 0 0 0 0 0 0 0 h 0.280331 v 0 0 0 0 0 0 0 0 0 0 0 0 0 h 0.280334 v 0 0 0 0 0 0 0 0 0 0 0 0 0 h 0.280334 v 0 0 0 0 0 0 0 0 0 0 0 0 0 h 0.280334 v 0 0 0 0 0 0 0 0 0 0 0 0 0 h 0.280331 v 0 0 0 0 0 0 0 0 0 0 0 0 0 h 0.280334 v 0 0 0 0 0 0 0 0 0 0 0 0 0 h 0.280334 v 0 0 0 0 0 0 0 0 0 0 0 0 0 h 0.280334 v 0 0 0 0 0 0 0 0 0 0 0 0 0 h 0.280332 v 0 0 0 0 0 0 0 0 0 0 0 0 0 h 0.280334 v 0 0 0 0 0 0 0 0 0 0 0 0 0 h 0.280334 v 0 0 0 0 0 0 0 0 0 0 0 0 0 h 0.280334 v 0 0 0 0 0 0 0 0 0 0 0 0 0 h 0.280331 v 0 0 0 0 0 0 0 0 0 0 0 0 0 h 0.280334 v 0 0 0 0 0 0 0 0 0 0 0 0 0 h 0.280334 v 0 0 0 0 0 0 0 0 0 0 0 0 0 h 0.280334 v 0 0 0 0 0 0 0 0 0 0 0 0 0 h 0.280331 v 0 0 0 0 0 0 0 0 0 0 0 0 0 h 0.280334 v 0 0 0 0 0 0 0 0 0 0 0 0 0 h 0.280334 v 0 0 0 0 0 0 0 0 0 0 0 0 0 h 0.280334 v 0 0 0 0 0 0 0 0 0 0 0 0 0 h 0.280331 v 0 0 0 0 0 0 0 0 0 0 0 0 0 h 0.280334 v 0 0 0 0 0 0 0 0 0 0 0 0 0 h 0.280334 v 0 0 0 0 0 0 0 0 0 0 0 0 0 h 0.280334 v 0 0 0 0 0 0 0 0 0 0 0 0 0 h 0.280332 v 0 0 0 0 0 0 0 0 0 0 0 0 0 h 0.280334 v 0 0 0 0 0 0 0 0 0 0 0 0 0 h 0.280334 v 0 0 0 0 0 0 0 0 0 0 0 0 0 h 0.280334 v 0 0 0 0 0 0 0 0 0 0 0 0 0 h 0.280331 v 0 0 0 0 0 0 0 0 0 0 0 0 0 h 0.280334 v 0 0 0 0 0 0 0 0 0 0 0 0 0 h 0.280334 v 0 0 0 0 0 0 0 0 0 0 0 0 0 h 0.280334 v 0 0 0 0 0 0 0 0 0 0 0 0 0 h 0.280334 v 0 0 0 0 0 0 0 0 0 0 0 0 0 h 0.280331 v 0 0 0 0 0 0 0 0 0 0 0 0 0 h 0.280334 v 0 0 0 0 0 0 0 0 0 0 0 0 0 h 0.280334 v 0 0 0 0 0 0 0 0 0 0 0 0 0 h 0.280334 v 0 0 0 0 0 0 0 0 0 0 0 0 0 h 0.280332 v 0 0 0 0 0 0 0 0 0 0 0 0 0 h 0.280334 v 0 0 0 0 0 0 0 0 0 0 0 0 0 h 0.280333 v 0 0 0 0 0 0 0 0 0 0 0 0 0 h 0.280334 v 0 0 0 0 0 0 0 0 0 0 0 0 0 h 0.280332 v 0 0 0 0 0 0 0 0 0 0 0 0 0 h 0.280334 v 0 0 0 0 0 0 0 0 0 0 0 0 0 h 0.280334 v 0 0 0 0 0 0 0 0 0 0 0 0 0 h 0.280334 v 0 0 0 0 0 0 0 0 0 0 0 0 0 h 0.280331 v 0 0 0 0 0 0 0 0 0 0 0 0 0 h 0.280334 v 0 0 0 0 0 0 0 0 0 0 0 0 0 h 0.280334 v 0 0 0 0 0 0 0 0 0 0 0 0 0 h 0.280334 v 0 0 0 0 0 0 0 0 0 0 0 0 0 h 0.280331 v 0 0 0 0 0 0 0 0 0 0 0 0 0 h 0.280334 v 0 0 0 0 0 0 0 0 0 0 0 0 0 h 0.280334 v 0 0 0 0 0 0 0 0 0 0 0 0 0 h 0.280334 v 0 0 0 0 0 0 0 0 0 0 0 0 0 h 0.280332 v 0 0 0 0 0 0 0 0 0 0 0 0 0 h 0.280334 v 0 0 0 0 0 0 0 0 0 0 0 0 0 h 0.280334 v 0 0 0 0 0 0 0 0 0 0 0 0 0 h 0.280334 v 0 0 0 0 0 0 0 0 0 0 0 0 0 h 0.280331 v 0 0 0 0 0 0 0 0 0 0 0 0 0 h 0.280334 v 0 0 0 0 0 0 0 0 0 0 0 0 0 h 0.280334 v 0 0 0 0 0 0 0 0 0 0 0 0 0 h 0.280334 v 0 0 0 0 0 0 0 0 0 0 0 0 0 h 0.280331 v 0 0 0 0 0 0 0 0 0 0 0 0 0 h 0.280334 v 0 0 0 0 0 0 0 0 0 0 0 0 0 h 0.280334 v 0 0 0 0 0 0 0 0 0 0 0 0 0 h 0.280334 v 0 0 0 0 0 0 0 0 0 0 0 0 0 h 0.280331 v 0 0 0 0 0 0 0 0 0 0 0 0 0 h 0.280334 v 0 0 0 0 0 0 0 0 0 0 0 0 0 h 0.280334 v 0 0 0 0 0 0 0 0 0 0 0 0 0 h 0.280334 v 0 0 0 0 0 0 0 0 0 0 0 0 0 h 0.280332 v 0 0 0 0 0 0 0 0 0 0 0 0 0 h 0.280334 v 0 0 0 0 0 0 0 0 0 0 0 0 0 h 0.280334 v 0 0 0 0 0 0 0 0 0 0 0 0 0 h 0.280334 v 0 0 0 0 0 0 0 0 0 0 0 0 0 h 0.280334 v 0 0 0 0 0 0 0 0 0 0 0 0 0 h 0.280331 v 0 0 0 0 0 0 0 0 0 0 0 0 0 h 0.280334 v 0 0 0 0 0 0 0 0 0 0 0 0 0 h 0.280334 v 0 0 0 0 0 0 0 0 0 0 0 0 0 h 0.280334 v 0 0 0 0 0 0 0 0 0 0 0 0 0 h 0.280331 v 0 0 0 0 0 0 0 0 0 0 0 0 0 h 0.280334 v 0 0 0 0 0 0 0 0 0 0 0 0 0 h 0.280334 v 0 0 0 0 0 0 0 0 0 0 0 0 0 l 0.280334,-11.21334 v 0 0 0 0 0 0 0 0 0 0 0 0 0 h 0.280331 v 0 0 0 0 0 0 0 0 0 0 0 0 0 h 0.280334 v 0 0 0 0 0 0 0 0 0 0 0 0 0 h 0.280334 v 0 0 0 0 0 0 0 0 0 0 0 0 0 h 0.280334 v 0 0 0 0 0 0 0 0 0 0 0 0 0 h 0.280332 v -11.21333 0 0 -11.21333 0 -11.21334 0 0 0 0 0 0 0 h 0.280334 v 0 0 0 0 0 0 0 0 0 0 0 0 0 h 0.280334 v 0 11.21334 -11.21334 0 0 0 0 0 0 0 0 0 0 h 0.280334 v 0 0 0 0 0 0 0 0 0 0 0 0 0 h 0.280331 v 0 0 0 0 0 0 0 0 0 0 -11.21333 0 0 h 0.280334 v 0 0 0 0 0 0 0 0 0 0 0 0 0 h 0.280334 v 0 0 0 0 0 0 0 0 0 0 0 0 0 h 0.280334 v 0 0 11.21333 0 0 11.21334 0 11.21333 0 0 0 0 0 h 0.280331 v 0 0 0 0 0 0 0 0 0 0 0 0 0 h 0.280334 v 0 0 0 0 11.21333 0 0 0 0 0 0 0 0 h 0.280334 v 0 0 0 0 0 0 -11.21333 0 0 0 0 0 0 h 0.280334 v 0 0 0 0 0 0 0 0 0 0 0 0 11.21333 h 0.280332 v 0 0 0 0 0 0 0 0 0 0 0 0 0 h 0.280334 v 0 0 0 0 0 0 0 0 0 0 0 0 0 h 0.280334 v 0 0 0 0 0 0 0 0 0 0 0 0 0 h 0.280334 v 0 0 0 0 0 0 0 0 0 0 0 0 0 h 0.280331 v 0 0 0 0 -11.21333 0 0 0 0 0 0 0 0 h 0.280334 v 0 0 0 0 0 0 0 0 11.21333 0 0 0 0 h 0.280334 v 0 0 0 0 0 0 0 0 0 0 0 0 0 h 0.280334 v 0 0 0 0 -11.21333 0 0 0 0 0 0 0 0 h 0.280331 v 0 0 0 0 0 0 0 0 0 0 0 0 0 h 0.280334 v 0 0 0 0 0 0 0 0 0 0 0 0 0 h 0.280334 v 0 0 0 0 0 0 0 0 0 0 -11.21333 0 0 h 0.280334 v 0 0 0 0 0 0 11.21333 0 0 0 0 0 0 h 0.280331 v 0 0 0 0 0 0 0 0 0 0 0 0 0 h 0.280334 v 0 0 0 0 0 0 0 0 0 0 0 0 0 h 0.280334 v 0 0 0 0 0 0 11.21333 0 0 0 0 0 0 h 0.280334 v 0 0 0 0 0 0 0 0 0 0 0 0 0 h 0.280334 v 0 0 0 0 0 0 0 0 0 0 0 0 0 h 0.280332 v 0 0 0 0 0 0 0 0 0 0 0 0 11.21334 h 0.280334 v 0 0 0 0 0 0 0 0 0 0 0 0 0 h 0.280334 v 0 0 0 0 0 0 0 0 0 0 0 0 0 h 0.280334 v 0 0 0 0 0 0 0 0 0 0 0 0 0 h 0.280331 v 0 0 0 0 0 0 0 0 0 0 0 0 0 h 0.280334 v 0 0 0 0 0 0 0 0 0 0 0 0 0 h 0.280334 v 0 0 0 0 0 0 0 0 0 0 0 0 0 h 0.280334 v 0 0 0 0 0 0 0 0 0 0 0 0 0 h 0.280331 v 0 0 0 0 0 0 0 0 0 0 0 0 0 h 0.280334 v 0 0 0 0 0 0 0 0 0 0 0 0 0 h 0.280334 v 0 0 0 0 0 0 0 0 0 0 0 0 0 h 0.280334 v 0 0 0 0 0 0 0 0 0 0 0 0 0 h 0.280331 v 0 0 0 0 0 0 0 0 0 0 0 0 0 h 0.280334 v 0 0 0 0 0 0 0 0 0 0 0 0 0 h 0.280334 v 0 0 0 0 0 0 0 0 0 0 -11.21334 0 0 h 0.280334 v 0 0 0 0 0 0 0 0 0 0 0 0 0 h 0.280332 v 0 0 0 -11.21333 0 0 0 0 0 0 0 0 0 h 0.280334 v 0 0 0 0 0 0 0 0 0 0 0 0 0 h 0.280334 v 0 0 0 0 0 0 0 0 0 0 0 0 0 h 0.280334 v 0 0 0 0 0 0 0 0 0 0 0 0 0 h 0.280331 v 0 0 0 0 0 0 0 0 0 0 0 0 0 h 0.280334 v 0 0 0 0 0 0 0 0 0 0 0 0 11.21333 h 0.280334 v 0 0 0 0 0 0 0 0 0 0 0 0 0 h 0.280334 v 0 0 0 0 0 11.21334 0 0 0 0 0 0 0 h 0.280331 v 0 0 0 0 0 0 0 0 0 0 0 0 0 h 0.280334 v 0 0 0 0 0 0 0 0 0 0 0 0 0 h 0.280334 v 0 0 0 0 0 0 0 0 0 0 0 0 0 h 0.280334 v 0 0 -11.21334 0 0 0 0 0 0 0 0 0 0 h 0.280332 v 0 0 0 0 0 0 0 0 0 0 0 0 0 h 0.280334 v 0 0 0 0 0 0 0 0 0 0 0 0 0 h 0.280333 v 0 0 0 0 0 0 0 0 0 0 0 0 0 h 0.280334 v 0 0 0 0 0 0 0 0 0 0 0 0 0 h 0.280332 v 0 0 0 0 0 0 0 0 0 0 0 0 0 h 0.280334 v 0 0 0 0 0 0 0 0 0 0 0 0 0 h 0.280334 v 0 0 0 0 11.21334 0 0 0 0 0 0 0 0 h 0.280334 v 0 0 0 0 0 0 0 0 0 0 0 0 0 h 0.280331 v 0 0 0 0 0 0 0 0 0 0 0 0 0 h 0.280334 v 0 0 0 0 0 0 0 0 0 0 0 0 0 h 0.280334 v 0 0 0 0 0 0 0 0 0 0 0 0 0 h 0.280334 v 0 0 0 0 0 0 0 0 0 0 0 0 0 h 0.280331 v 0 0 0 0 0 0 0 0 0 0 0 0 0 h 0.280334 v 0 0 0 0 0 0 0 0 0 0 0 0 0 h 0.280334 v 0 0 0 0 0 0 0 0 0 0 0 0 0 h 0.280334 v 0 0 0 0 0 0 0 0 0 0 0 0 0 h 0.280334 v 0 0 0 0 0 0 0 0 0 0 0 0 0 h 0.280332 v 0 0 0 0 0 0 0 0 0 0 0 0 0 h 0.280334 v 0 0 0 0 0 0 0 0 0 0 0 0 0 h 0.280334 v 0 0 0 0 0 0 0 0 0 0 0 0 0 h 0.280334 v 0 0 0 0 0 0 0 0 0 0 0 0 0 h 0.280331 v 0 0 0 0 0 0 0 0 0 0 0 0 0 h 0.28033 v 0 0 0 0 0 0 0 0 0 0 0 0 0 h 0.28034 v 0 0 0 0 0 0 0 0 0 0 0 0 0 h 0.28033 v 0 0 0 0 0 0 0 0 0 0 0 0 0 h 0.28033 v 0 0 0 0 0 0 0 0 0 0 0 0 0 h 0.28034 v 0 0 0 0 0 0 0 0 0 0 0 0 0 h 0.28033 v 0 0 0 0 0 0 0 0 0 0 0 0 0 h 0.28034 v 0 0 0 0 0 0 0 0 0 0 0 0 0 h 0.28033 v 0 0 0 0 0 0 0 0 0 0 0 0 0 h 0.28033 v 0 0 0 0 0 0 0 0 0 0 0 0 0 h 0.28033 v 0 0 0 0 0 0 0 0 0 0 0 0 0 h 0.28033 v 0 0 0 0 0 0 0 0 0 0 0 0 0 h 0.28034 v 0 0 0 0 0 0 0 0 0 0 0 0 0 h 0.28033 v 0 0 0 0 0 0 0 0 0 0 0 0 0 h 0.28033 v 0 0 0 0 0 0 0 0 0 0 0 0 0 h 0.28034 v 0 0 0 0 0 0 0 0 0 0 0 0 0 h 0.28033 v 0 0 0 0 0 0 0 0 0 0 0 0 0 h 0.28033 v 0 0 0 0 0 0 0 0 0 0 0 0 0 h 0.28034 v 0 0 0 0 0 0 0 0 0 0 0 0 0 h 0.28033 v 0 0 0 0 0 0 0 0 0 0 0 0 0 h 0.28033 v 0 0 0 0 0 0 0 0 0 0 0 0 0 h 0.28034 v 0 0 0 0 0 0 0 0 0 0 0 0 0 h 0.28033 v 0 0 0 0 0 0 0 0 0 0 0 0 0 h 0.28033 v 0 0 0 0 0 0 0 0 0 0 0 0 0 h 0.28034 v 0 0 0 0 0 0 0 0 0 0 0 0 0 h 0.28033 v 0 0 0 0 0 0 0 0 0 0 0 0 0 h 0.28033 v 0 0 0 0 0 0 0 0 0 0 0 0 0 h 0.28034 v 0 0 0 0 0 0 0 0 0 0 0 0 0 h 0.28033 v 0 0 0 0 0 0 0 0 0 0 0 0 0 h 0.28033 v 0 0 0 0 0 0 0 0 0 0 0 0 0 h 0.28034 v 0 0 0 0 0 0 0 0 0 0 0 0 0 h 0.28033 v 0 0 0 0 0 0 0 0 0 0 0 0 0 h 0.28033 v 0 0 0 0 0 0 0 0 0 0 0 0 0 h 0.28034 v 0 0 0 0 0 0 0 0 0 0 0 0 0 h 0.28033 v 0 0 0 0 0 0 0 0 0 0 0 0 0 h 0.28033 v 0 0 0 0 0 0 0 0 0 0 0 0 0 h 0.28034 v 0 0 0 0 0 0 0 0 0 0 0 0 0 h 0.28033 v 0 0 0 0 0 0 0 0 0 0 0 0 0 h 0.28033 v 0 0 0 0 0 0 0 0 0 0 0 0 0 h 0.28034 v 0 0 0 0 0 0 0 0 0 0 0 0 0 h 0.28033 v 0 0 0 0 0 0 0 0 0 0 0 0 0 h 0.28033 v 0 0 0 0 0 0 0 0 0 0 0 0 0 h 0.28034 v 0 0 0 0 0 0 0 0 0 0 0 0 0 h 0.28033 v 0 0 0 0 0 0 0 0 0 0 0 0 0 h 0.28033 v 0 0 0 0 0 0 0 0 0 0 0 0 0 h 0.28034 v 0 0 0 0 0 0 0 0 0 0 0 0 0 h 0.28033 v 0 0 0 0 0 0 0 0 0 0 0 0 0 h 0.28033 v 0 0 0 0 0 0 0 0 0 0 0 0 0 h 0.28034 v 0 0 0 0 0 0 0 0 0 0 0 0 0 h 0.28033 v 0 0 0 0 0 0 0 0 0 0 0 0 0 h 0.28033 v 0 0 0 0 0 0 0 0 0 0 0 0 0 h 0.28034 v 0 0 0 0 0 0 0 0 0 0 0 0 0 h 0.28033 v 0 0 0 0 0 0 0 0 0 0 0 0 0 h 0.28033 v 0 0 0 0 0 0 0 0 0 0 0 0 0 h 0.28034 v 0 0 0 0 0 0 0 0 0 0 0 0 0 h 0.28033 v 0 0 0 0 0 0 0 0 0 0 0 0 0 h 0.28033 v 0 0 0 0 0 0 0 0 0 0 0 0 0 h 0.28034 v 0 0 0 0 0 0 0 0 0 0 0 0 0 h 0.28033 v 0 0 0 0 0 0 0 0 0 0 0 0 0 h 0.28033 v 0 0 0 0 0 0 0 0 0 0 0 0 0 h 0.28034 v 0 0 0 0 0 0 0 0 0 0 0 0 0 h 0.28033 v 0 0 0 0 0 0 0 0 0 0 0 0 0 h 0.28033 v 0 0 0 0 0 0 0 0 0 0 0 0 0 h 0.28034 v 0 0 0 0 0 0 0 0 0 0 0 0 0 h 0.28033 v 0 0 0 0 0 0 0 0 0 0 0 0 0 h 0.28033 v 0 0 0 0 0 0 0 0 0 0 0 0 0 h 0.28034 v 0 0 0 0 0 0 0 0 0 0 0 0 0 h 0.28033 v 0 0 0 -11.21334 0 0 0 0 0 0 0 0 0 h 0.28033 v 0 0 0 0 0 0 0 0 0 0 0 0 0 h 0.28034 v 0 0 0 0 0 0 0 0 0 0 0 0 0 h 0.28033 v 0 0 0 0 0 0 0 -11.21333 0 0 0 0 0 h 0.28033 v 0 0 -11.21333 0 0 0 0 0 0 0 0 0 0 h 0.28034 v 0 0 0 0 0 0 0 0 0 0 0 0 0 h 0.28033 v 0 0 0 0 0 0 0 0 0 0 0 0 0 h 0.28033 v 0 0 0 0 0 11.21333 0 0 0 0 0 0 0 h 0.28034 v 0 0 0 0 0 0 0 0 0 0 0 0 0 h 0.28033 v 0 0 0 0 0 0 0 0 0 0 0 0 0 h 0.28033 v 0 0 0 0 0 0 0 0 0 11.21333 0 0 0 h 0.28034 v 0 0 0 0 11.21334 0 0 0 0 0 0 0 0 h 0.28033 v 0 0 0 0 0 0 0 0 0 0 0 0 0 h 0.28033 v 0 0 0 0 0 0 0 0 0 0 0 0 0 h 0.28034 v 0 0 0 0 0 0 0 0 0 0 0 0 0 h 0.28033 v 0 0 0 0 0 0 0 0 0 0 0 0 0 h 0.28033 v 0 0 0 0 0 0 0 0 0 0 0 0 0 h 0.28034 v 0 0 0 0 0 0 0 0 0 0 0 0 0 h 0.28033 v 0 0 0 0 0 0 0 0 0 0 0 0 0 h 0.28033 v 0 0 0 0 0 0 0 0 0 0 0 0 0 h 0.28034 v 0 0 0 0 0 0 0 0 0 0 0 0 0 h 0.28033 v 0 0 0 0 0 0 0 0 0 0 0 0 0 h 0.28033 v 0 0 0 0 0 0 0 0 0 0 0 0 0 h 0.28034 v 0 0 0 0 0 0 0 0 0 0 0 0 0 h 0.28033 v 0 0 0 0 0 0 0 0 0 0 0 0 0 h 0.28033 v 0 0 0 0 0 0 0 0 0 0 0 0 0 h 0.28034 v 0 0 0 0 0 0 0 0 0 0 0 0 0 h 0.28033 v 0 0 0 0 0 0 0 0 0 0 0 0 0 h 0.28033 v 0 0 0 0 0 0 0 0 0 0 0 0 0 h 0.28034 v 0 0 0 0 0 0 0 0 0 0 0 0 0 h 0.28033 v 0 0 0 0 0 0 0 0 0 0 0 0 0 h 0.28033 v 0 0 0 0 0 0 0 0 0 0 0 0 0 h 0.28034 v 0 0 0 0 0 0 0 0 0 0 0 0 0 h 0.28033 v 0 0 0 0 0 0 0 0 0 0 0 0 0 h 0.28033 v 0 0 0 0 0 0 0 0 0 0 0 0 0 h 0.28034 v 0 0 0 0 0 0 0 0 0 0 0 0 0 h 0.28033 v 0 0 0 0 0 0 0 0 0 0 0 0 0 h 0.28033 v 0 0 0 0 0 0 0 0 0 0 0 0 0 h 0.28034 v 0 0 0 0 0 0 0 0 0 0 0 0 0 h 0.28033 v 0 0 0 0 0 0 0 0 0 0 0 0 0 h 0.28033 v 0 0 0 0 0 0 0 0 0 0 0 0 0 h 0.28034 v 0 0 0 0 0 0 0 0 0 0 0 0 0 h 0.28033 v 0 0 0 0 0 0 0 0 0 0 0 0 0 h 0.28033 v 0 0 0 0 0 0 0 0 0 0 0 0 0 h 0.28034 v 0 0 0 0 0 0 0 0 0 0 0 0 0 h 0.28033 v 0 0 0 0 0 0 0 0 0 0 0 0 0 h 0.28033 v 0 0 0 0 0 0 0 0 0 0 0 0 0 h 0.28034 v 0 0 0 0 0 0 0 0 0 0 0 0 0 h 0.28033 v 0 0 0 0 0 0 0 0 0 0 0 0 0 h 0.28033 v 0 0 0 0 0 0 0 0 0 0 0 0 0 h 0.28034 v 0 0 0 0 0 0 0 0 0 0 0 0 0 h 0.28033 v 0 0 0 0 0 0 0 0 0 0 0 0 0 h 0.28033 v 0 0 0 0 0 0 0 0 0 0 0 0 0 h 0.28034 v 0 0 0 0 0 0 0 0 0 0 0 0 0 h 0.28033 v 0 0 0 0 0 0 0 0 0 0 0 0 0 h 0.28033 v 0 0 0 0 0 0 0 0 0 0 0 0 0 h 0.28034 v 0 0 0 0 0 0 0 0 0 0 0 0 0 h 0.28033 v 0 0 0 0 0 0 0 0 0 0 0 0 0 h 0.28033 v 0 0 0 0 0 0 0 0 0 0 0 0 0 h 0.28034 v 0 0 0 0 0 0 0 0 0 0 0 0 0 h 0.28033 v 0 0 0 0 0 0 0 0 0 0 0 0 0 h 0.28033 v 0 0 0 0 0 0 0 0 0 0 0 0 0 h 0.28034 v 0 0 0 0 0 0 0 0 0 0 0 0 0 h 0.28033 v 0 0 0 0 0 0 0 0 0 0 0 0 0 h 0.28033 v 0 0 0 0 0 0 0 0 0 0 0 0 0 h 0.28034 v 0 0 0 0 0 0 0 0 0 0 0 0 0 h 0.28033 v 0 0 0 0 0 0 0 0 0 0 0 0 0 h 0.28033 v 0 0 0 0 0 0 0 0 0 0 0 0 0 h 0.28034 v 0 0 0 0 0 0 0 0 0 0 0 0 0 h 0.28033 v 0 0 0 0 0 0 0 0 0 0 0 0 0 h 0.28033 v 0 0 0 0 0 0 0 0 0 0 0 0 0 h 0.28034 v 0 0 0 0 0 0 0 0 0 0 0 0 0 h 0.28033 v 0 0 0 0 0 0 0 0 0 0 0 0 0 h 0.28033 v 0 0 0 0 0 0 0 0 0 0 0 0 0 h 0.28034 v 0 0 0 0 0 0 0 -11.21334 0 0 0 0 0 h 0.28033 v 0 0 0 0 0 0 0 0 0 0 0 0 0 h 0.28033 v 0 0 0 0 0 0 0 0 0 0 0 0 0 h 0.28034 v 0 0 0 0 0 0 0 0 0 0 0 0 0 h 0.28033 v 0 0 0 0 0 0 0 0 0 0 0 0 0 h 0.28033 v 0 0 0 0 0 0 0 0 0 0 0 0 0 h 0.28034 v 0 0 0 0 0 0 0 0 0 0 0 0 0 h 0.28033 v 0 0 0 0 0 0 0 0 0 11.21334 0 0 0 h 0.28033 v 0 0 0 0 0 0 0 0 0 0 0 0 0 h 0.28034 v 0 0 0 0 0 0 0 0 0 0 0 0 0 h 0.28033 v 0 0 0 0 0 0 0 0 0 0 0 0 0 h 0.28033 v 0 0 0 0 0 0 0 0 0 0 0 0 0 h 0.28034 v 0 0 0 0 0 0 0 0 0 0 0 0 -11.21334 h 0.28033 v 0 0 0 0 0 0 0 0 0 0 0 0 0 h 0.28033 v 0 0 0 0 0 0 0 0 0 0 0 0 0 h 0.28034 v 0 0 0 0 0 0 0 0 0 0 0 0 0 h 0.28033 v 0 0 0 0 0 0 0 0 0 0 0 0 0 h 0.28033 v 0 0 0 0 0 0 0 0 0 0 0 0 0 h 0.28034 v 0 0 0 0 0 0 0 0 0 0 0 0 0 h 0.28033 v 0 0 0 0 0 0 0 0 0 0 0 0 0 h 0.28033 v 11.21334 0 0 0 0 0 0 0 0 0 0 0 0 h 0.28034 v 0 0 0 0 0 0 0 0 0 0 0 0 0 h 0.28033 v 0 0 0 0 0 0 0 0 0 0 0 0 0 h 0.28033 v 0 0 0 0 0 0 0 0 0 0 0 0 0 h 0.28034 v 0 0 0 0 0 0 0 0 0 0 0 0 0 h 0.28033 v 0 0 0 0 0 0 0 0 0 0 0 0 0 h 0.28033 v 0 0 0 0 0 0 0 0 0 0 0 0 0 h 0.28034 v 0 0 0 0 0 0 0 0 0 0 0 0 0 h 0.28033 v 0 0 0 0 0 0 0 0 0 0 0 0 0 h 0.28033 v 0 0 0 0 0 0 0 0 0 0 0 0 0 h 0.28034 v 0 0 0 0 0 0 0 0 0 0 0 0 0 h 0.28033 v 0 0 0 0 0 0 0 0 0 0 0 0 0 h 0.28033 v 0 0 0 0 0 0 0 0 0 0 0 0 0 h 0.28034 v 0 0 0 0 0 0 0 0 0 0 0 0 0 h 0.28033 v 0 0 0 0 0 0 0 0 0 0 0 0 0 h 0.28033 v 0 0 0 0 0 0 0 0 0 0 0 0 0 h 0.28034 v 0 0 0 0 0 0 0 0 0 0 0 0 0 h 0.28033 v 0 0 0 0 0 0 0 0 0 0 0 0 0 h 0.28033 v 0 0 0 0 0 0 0 0 0 0 0 0 0 h 0.28034 v 0 0 0 0 0 0 0 0 0 0 0 0 0 h 0.28033 v 0 0 0 0 0 0 0 0 0 0 0 0 0 h 0.28033 v 0 0 0 0 0 0 0 0 0 0 0 0 0 h 0.28034 v 0 0 0 0 0 0 0 0 0 0 0 0 0 h 0.28033 v 0 0 0 0 0 0 0 0 0 0 0 0 0 h 0.28033 v 0 0 0 0 0 0 0 0 0 0 0 0 0 h 0.28034 v 0 0 0 0 0 0 0 0 0 0 0 0 0 h 0.28033 v 0 0 0 0 0 0 0 0 0 0 0 0 0 h 0.28033 v 0 0 0 0 0 0 0 0 0 0 0 0 0 h 0.28034 v 0 0 0 0 0 0 0 0 0 0 0 0 0 h 0.28033 v 0 0 0 0 0 0 0 0 0 0 0 0 0 h 0.28033 v 0 0 0 0 0 0 0 0 0 0 0 0 0 h 0.28034 v 0 0 0 0 0 0 0 0 0 0 0 0 0 h 0.28033 v 0 0 0 0 0 0 0 0 0 0 0 0 0 h 0.28033 v 0 0 0 0 0 0 0 0 0 0 0 0 0 h 0.28034 v 0 0 0 0 0 0 0 0 0 0 0 0 0 h 0.28033 v 0 0 0 0 0 0 0 0 0 0 0 0 0 h 0.28033 v 0 0 0 0 0 0 0 0 0 0 0 0 0 h 0.28034 v 0 0 0 0 0 0 0 0 0 0 0 0 0 h 0.28033 v 0 0 0 0 0 0 0 0 0 0 0 0 0 h 0.28033 v 0 0 0 0 0 0 0 0 0 0 0 0 0 h 0.28034 v 0 0 0 0 0 0 0 0 0 0 0 0 0 h 0.28033 v 0 0 0 0 0 0 0 0 0 0 0 0 0 h 0.28033 v 0 0 0 0 0 0 0 0 0 0 0 0 0 h 0.28034 v 0 0 0 0 0 0 0 0 0 0 0 0 0 h 0.28033 v 0 0 0 0 0 0 0 0 0 0 0 0 0 h 0.28033 v 0 0 0 0 0 0 0 0 0 0 0 0 0 h 0.28034 v 0 0 0 0 0 0 0 0 0 0 0 0 0 h 0.28033 v 0 0 0 0 0 0 0 0 0 0 0 0 0 h 0.28033 v 0 0 0 0 0 0 0 0 0 0 0 0 0 h 0.28034 v 0 0 0 0 0 0 0 0 0 0 0 0 0 h 0.28033 v 0 0 0 0 0 0 0 0 0 0 0 0 0 h 0.28033 v 0 0 0 0 0 0 0 0 0 0 0 0 0 h 0.28034 v 0 0 0 0 0 0 0 0 0 0 0 0 0 h 0.28033 v 0 0 0 0 0 0 0 0 0 0 0 0 0 h 0.28033 v 0 0 0 0 0 0 0 0 0 0 0 0 0 h 0.28034 v 0 0 0 0 0 0 0 0 0 0 0 0 0 h 0.28033 v 0 0 0 0 0 0 0 0 0 0 0 0 0 h 0.28033 v 0 0 0 0 0 0 0 0 0 0 0 0 0 h 0.28034 v 0 0 0 0 0 0 0 0 0 0 0 0 0 h 0.28033 v 0 0 0 0 0 0 0 0 0 0 0 0 0 h 0.28033 v 0 0 0 0 0 0 0 0 0 0 0 0 0 h 0.28034 v 0 0 0 0 0 0 0 0 0 0 0 0 0 h 0.28033 v 0 0 0 0 0 0"
       id="path38" />
    <text
       xml:space="preserve"
       style="font-style:normal;font-variant:normal;font-weight:400;font-size:3.91914px;line-height:125%;font-family:Arial;text-align:start;letter-spacing:0px;word-spacing:0px;text-anchor:start;fill:#000000;fill-opacity:1;stroke:none;stroke-width:0.264583"
       transform="rotate(-90)"
       x="-170.17627"
       y="6.4454889"
       id="text39"><tspan
         sodipodi:role="line"
         x="-170.17627"
         y="6.4454889"
         id="tspan39"
         style="stroke-width:0.264583"><tspan
           dx="0"
           dy="0"
           style="font-style:normal;font-variant:normal;font-weight:400;font-size:3.91914px;font-family:Arial;fill:#000000;stroke-width:0.264583"
           id="tspan38">Breakpoints per 100 nt window</tspan></tspan></text>
  </g>
</svg>
