<?xml version="1.0" encoding="UTF-8" standalone="no"?>
<!-- Created with Inkscape (http://www.inkscape.org/) -->

<svg
   width="210mm"
   height="297mm"
   viewBox="0 0 210 297"
   version="1.1"
   id="svg1"
   inkscape:version="1.3.2 (091e20e, 2023-11-25, custom)"
   sodipodi:docname="SAT1_window100.svg"
   xmlns:inkscape="http://www.inkscape.org/namespaces/inkscape"
   xmlns:sodipodi="http://sodipodi.sourceforge.net/DTD/sodipodi-0.dtd"
   xmlns="http://www.w3.org/2000/svg"
   xmlns:svg="http://www.w3.org/2000/svg">
  <sodipodi:namedview
     id="namedview1"
     pagecolor="#ffffff"
     bordercolor="#999999"
     borderopacity="1"
     inkscape:showpageshadow="2"
     inkscape:pageopacity="0"
     inkscape:pagecheckerboard="0"
     inkscape:deskcolor="#d1d1d1"
     inkscape:document-units="mm"
     inkscape:zoom="0.73139029"
     inkscape:cx="396.50513"
     inkscape:cy="561.25984"
     inkscape:window-width="1920"
     inkscape:window-height="1017"
     inkscape:window-x="-8"
     inkscape:window-y="-8"
     inkscape:window-maximized="1"
     inkscape:current-layer="layer1" />
  <defs
     id="defs1">
    <pattern
       id="EMFhbasepattern"
       patternUnits="userSpaceOnUse"
       width="6"
       height="6"
       x="0"
       y="0" />
  </defs>
  <g
     inkscape:label="Слой 1"
     inkscape:groupmode="layer"
     id="layer1">
    <path
       style="fill:none;stroke:#000000;stroke-width:0.280333px;stroke-linecap:round;stroke-linejoin:round;stroke-miterlimit:4;stroke-dasharray:none;stroke-opacity:1"
       d="m 19.021015,118.43679 v 2.80333 h 1.401667 -1.401667 v 14.01667 h 1.401667 -1.401667 v 14.01667 h 1.401667 -1.401667 v 14.01666 h 1.401667 -1.401667 v 14.01667 h 1.401667 -1.401667 v 2.80333 h 2.803333 v -1.40166 1.40166 h 35.041666 v -1.40166 1.40166 h 35.041668 v -1.40166 1.40166 h 35.041668 v -1.40166 1.40166 h 35.04167 v -1.40166 1.40166 h 2.80333"
       id="path1" />
    <text
       xml:space="preserve"
       style="font-style:normal;font-variant:normal;font-weight:400;font-size:3.91914px;line-height:125%;font-family:Arial;text-align:start;letter-spacing:0px;word-spacing:0px;text-anchor:start;fill:#000000;fill-opacity:1;stroke:none;stroke-width:0.264583"
       x="21.263681"
       y="185.05968"
       id="text2"><tspan
         sodipodi:role="line"
         x="21.263681"
         y="185.05968"
         id="tspan2"
         style="stroke-width:0.264583"><tspan
           dx="0"
           dy="0"
           style="font-style:normal;font-variant:normal;font-weight:400;font-size:3.91914px;font-family:Arial;fill:#000000;stroke-width:0.264583"
           id="tspan1">1</tspan></tspan></text>
    <text
       xml:space="preserve"
       style="font-style:normal;font-variant:normal;font-weight:400;font-size:3.91914px;line-height:125%;font-family:Arial;text-align:start;letter-spacing:0px;word-spacing:0px;text-anchor:start;fill:#000000;fill-opacity:1;stroke:none;stroke-width:0.264583"
       x="53.502018"
       y="185.05968"
       id="text4"><tspan
         sodipodi:role="line"
         x="53.502018"
         y="185.05968"
         id="tspan4"
         style="stroke-width:0.264583"><tspan
           dx="0"
           dy="0"
           style="font-style:normal;font-variant:normal;font-weight:400;font-size:3.91914px;font-family:Arial;fill:#000000;stroke-width:0.264583"
           id="tspan3">1755</tspan></tspan></text>
    <text
       xml:space="preserve"
       style="font-style:normal;font-variant:normal;font-weight:400;font-size:3.91914px;line-height:125%;font-family:Arial;text-align:start;letter-spacing:0px;word-spacing:0px;text-anchor:start;fill:#000000;fill-opacity:1;stroke:none;stroke-width:0.264583"
       x="88.543678"
       y="185.05968"
       id="text6"><tspan
         sodipodi:role="line"
         x="88.543678"
         y="185.05968"
         id="tspan6"
         style="stroke-width:0.264583"><tspan
           dx="0"
           dy="0"
           style="font-style:normal;font-variant:normal;font-weight:400;font-size:3.91914px;font-family:Arial;fill:#000000;stroke-width:0.264583"
           id="tspan5">3510</tspan></tspan></text>
    <text
       xml:space="preserve"
       style="font-style:normal;font-variant:normal;font-weight:400;font-size:3.91914px;line-height:125%;font-family:Arial;text-align:start;letter-spacing:0px;word-spacing:0px;text-anchor:start;fill:#000000;fill-opacity:1;stroke:none;stroke-width:0.264583"
       x="123.58536"
       y="185.05968"
       id="text8"><tspan
         sodipodi:role="line"
         x="123.58536"
         y="185.05968"
         id="tspan8"
         style="stroke-width:0.264583"><tspan
           dx="0"
           dy="0"
           style="font-style:normal;font-variant:normal;font-weight:400;font-size:3.91914px;font-family:Arial;fill:#000000;stroke-width:0.264583"
           id="tspan7">5266</tspan></tspan></text>
    <text
       xml:space="preserve"
       style="font-style:normal;font-variant:normal;font-weight:400;font-size:3.91914px;line-height:125%;font-family:Arial;text-align:start;letter-spacing:0px;word-spacing:0px;text-anchor:start;fill:#000000;fill-opacity:1;stroke:none;stroke-width:0.264583"
       x="158.62703"
       y="185.05968"
       id="text10"><tspan
         sodipodi:role="line"
         x="158.62703"
         y="185.05968"
         id="tspan10"
         style="stroke-width:0.264583"><tspan
           dx="0"
           dy="0"
           style="font-style:normal;font-variant:normal;font-weight:400;font-size:3.91914px;font-family:Arial;fill:#000000;stroke-width:0.264583"
           id="tspan9">7020</tspan></tspan></text>
    <text
       xml:space="preserve"
       style="font-style:normal;font-variant:normal;font-weight:400;font-size:3.91914px;line-height:125%;font-family:Arial;text-align:start;letter-spacing:0px;word-spacing:0px;text-anchor:start;fill:#000000;fill-opacity:1;stroke:none;stroke-width:0.264583"
       x="45.372349"
       y="190.66635"
       id="text12"><tspan
         sodipodi:role="line"
         x="45.372349"
         y="190.66635"
         id="tspan12"
         style="stroke-width:0.264583"><tspan
           dx="0"
           dy="0"
           style="font-style:normal;font-variant:normal;font-weight:400;font-size:3.91914px;font-family:Arial;fill:#000000;stroke-width:0.264583"
           id="tspan11">Nucleotide position in relation to JF749860/Unknown/Unknown/2002/SAT1</tspan></tspan></text>
    <text
       xml:space="preserve"
       style="font-style:normal;font-variant:normal;font-weight:400;font-size:3.91914px;line-height:357.646%;font-family:Arial;text-align:start;letter-spacing:0px;word-spacing:0px;text-anchor:start;fill:#000000;fill-opacity:1;stroke:none;stroke-width:0.264583"
       x="7.8076816"
       y="123.10601"
       id="text22"><tspan
         sodipodi:role="line"
         x="7.8076816"
         y="123.10601"
         id="tspan14"
         style="stroke-width:0.264583"><tspan
           dx="0"
           dy="0"
           style="font-style:normal;font-variant:normal;font-weight:400;font-size:3.91914px;font-family:Arial;fill:#000000;stroke-width:0.264583"
           id="tspan13">7.00000</tspan></tspan><tspan
         sodipodi:role="line"
         x="7.8076816"
         y="137.12267"
         id="tspan16"
         style="stroke-width:0.264583"><tspan
           dx="0"
           dy="0"
           style="font-style:normal;font-variant:normal;font-weight:400;font-size:3.91914px;font-family:Arial;fill:#000000;stroke-width:0.264583"
           id="tspan15">5,25.00</tspan></tspan><tspan
         sodipodi:role="line"
         x="7.8076816"
         y="151.13931"
         id="tspan18"
         style="stroke-width:0.264583"><tspan
           dx="0"
           dy="0"
           style="font-style:normal;font-variant:normal;font-weight:400;font-size:3.91914px;font-family:Arial;fill:#000000;stroke-width:0.264583"
           id="tspan17">3,5.000</tspan></tspan><tspan
         sodipodi:role="line"
         x="7.8076816"
         y="165.15596"
         id="tspan20"
         style="stroke-width:0.264583"><tspan
           dx="0"
           dy="0"
           style="font-style:normal;font-variant:normal;font-weight:400;font-size:3.91914px;font-family:Arial;fill:#000000;stroke-width:0.264583"
           id="tspan19">1,75.00</tspan></tspan><tspan
         sodipodi:role="line"
         x="7.8076816"
         y="179.17261"
         id="tspan22"
         style="stroke-width:0.264583"><tspan
           dx="0"
           dy="0"
           style="font-style:normal;font-variant:normal;font-weight:400;font-size:3.91914px;font-family:Arial;fill:#000000;stroke-width:0.264583"
           id="tspan21">0.00000</tspan></tspan></text>
    <path
       style="fill:none;stroke:#000000;stroke-width:0.280333px;stroke-linecap:round;stroke-linejoin:round;stroke-miterlimit:4;stroke-dasharray:none;stroke-opacity:1"
       d="m 23.786682,115.63346 v 1.40166 m 2.523,-1.40166 v 1.40166 m 3.644333,-1.40166 v 1.40166 m 0.560666,-1.40166 v 1.40166 m 0.841002,-1.40166 v 1.40166 m 2.522998,-1.40166 v 1.40166 m 0.280334,-1.40166 v 1.40166 m 0.840999,-1.40166 v 1.40166 m 1.682001,-1.40166 v 1.40166 m 0.840999,-1.40166 v 1.40166 m 0.841002,-1.40166 v 1.40166 m 0.560666,-1.40166 v 1.40166 m 1.121333,-1.40166 v 1.40166 m 0.280334,-1.40166 v 1.40166 m 0,-1.40166 v 1.40166 m 4.765667,-1.40166 v 1.40166 m 5.045998,-1.40166 v 1.40166 m 0,-1.40166 v 1.40166 m 1.682002,-1.40166 v 1.40166 m 8.690332,-1.40166 v 1.40166 m 0.280334,-1.40166 v 1.40166 m 0.280334,-1.40166 v 1.40166 m 15.418331,-1.40166 v 1.40166 m 0,-1.40166 v 1.40166 m 0,-1.40166 v 1.40166 m 0.841002,-1.40166 v 1.40166 m 0.841,-1.40166 v 1.40166 m 0.280334,-1.40166 v 1.40166 m 0,-1.40166 v 1.40166 m 0.560665,-1.40166 v 1.40166 m 0,-1.40166 v 1.40166 m 5.887,-1.40166 v 1.40166 m 8.970667,-1.40166 v 1.40166 m 0.560667,-1.40166 v 1.40166 m 4.765668,-1.40166 v 1.40166 m 0.280331,-1.40166 v 1.40166 m 5.046009,-1.40166 v 1.40166 m 2.523,-1.40166 v 1.40166 m 0,-1.40166 v 1.40166 m 1.40166,-1.40166 v 1.40166 m 13.17567,-1.40166 v 1.40166 m 6.728,-1.40166 v 1.40166 m 5.046,-1.40166 v 1.40166 m 10.933,-1.40166 v 1.40166"
       id="path22" />
    <path
       style="fill:none;stroke:#c6c6c6;stroke-width:0.280333px;stroke-linecap:round;stroke-linejoin:round;stroke-miterlimit:4;stroke-dasharray:none;stroke-opacity:1"
       d="m 168.99935,122.64179 h 2.80334"
       id="path23" />
    <text
       xml:space="preserve"
       style="font-style:normal;font-variant:normal;font-weight:400;font-size:3.91914px;line-height:125%;font-family:Arial;text-align:start;letter-spacing:0px;word-spacing:0px;text-anchor:start;fill:#000000;fill-opacity:1;stroke:none;stroke-width:0.264583"
       x="173.20435"
       y="123.94702"
       id="text24"><tspan
         sodipodi:role="line"
         x="173.20435"
         y="123.94702"
         id="tspan24"
         style="stroke-width:0.264583"><tspan
           dx="0"
           dy="0"
           style="font-style:normal;font-variant:normal;font-weight:400;font-size:3.91914px;font-family:Arial;fill:#000000;stroke-width:0.264583"
           id="tspan23">Breakpoint number</tspan></tspan></text>
    <path
       style="fill:none;stroke:#808080;stroke-width:0.280333px;stroke-linecap:round;stroke-linejoin:round;stroke-miterlimit:4;stroke-dasharray:none;stroke-opacity:1"
       d="m 168.99935,126.84679 h 2.80334"
       id="path24" />
    <text
       xml:space="preserve"
       style="font-style:normal;font-variant:normal;font-weight:400;font-size:3.91914px;line-height:125%;font-family:Arial;text-align:start;letter-spacing:0px;word-spacing:0px;text-anchor:start;fill:#000000;fill-opacity:1;stroke:none;stroke-width:0.264583"
       x="173.20435"
       y="128.15202"
       id="text26"><tspan
         sodipodi:role="line"
         x="173.20435"
         y="128.15202"
         id="tspan26"
         style="stroke-width:0.264583"><tspan
           dx="0"
           dy="0"
           style="font-style:normal;font-variant:normal;font-weight:400;font-size:3.91914px;font-family:Arial;fill:#000000;stroke-width:0.264583"
           id="tspan25">Local 95% confidence interval</tspan></tspan></text>
    <path
       style="fill:none;stroke:#000000;stroke-width:0.280333px;stroke-linecap:round;stroke-linejoin:round;stroke-miterlimit:4;stroke-dasharray:none;stroke-opacity:1"
       d="m 168.99935,131.05179 h 2.80334"
       id="path26" />
    <text
       xml:space="preserve"
       style="font-style:normal;font-variant:normal;font-weight:400;font-size:3.91914px;line-height:107.294%;font-family:Arial;text-align:start;letter-spacing:0px;word-spacing:0px;text-anchor:start;fill:#000000;fill-opacity:1;stroke:none;stroke-width:0.264583"
       x="173.20435"
       y="132.35703"
       id="text30"><tspan
         sodipodi:role="line"
         x="173.20435"
         y="132.35703"
         id="tspan28"
         style="stroke-width:0.264583"><tspan
           dx="0"
           dy="0"
           style="font-style:normal;font-variant:normal;font-weight:400;font-size:3.91914px;font-family:Arial;fill:#000000;stroke-width:0.264583"
           id="tspan27">Local 99% confidence interval</tspan></tspan><tspan
         sodipodi:role="line"
         x="173.20435"
         y="136.56203"
         id="tspan30"
         style="stroke-width:0.264583"><tspan
           dx="0"
           dy="0"
           style="font-style:normal;font-variant:normal;font-weight:400;font-size:3.91914px;font-family:Arial;fill:#000000;stroke-width:0.264583"
           id="tspan29">Global 95% confidence limit</tspan></tspan></text>
    <path
       style="fill:none;stroke:#000000;stroke-width:0.280333px;stroke-linecap:round;stroke-linejoin:round;stroke-miterlimit:4;stroke-dasharray:0.79375, 0.264583, 0.264583, 0.264583, 0.264583, 0.264583;stroke-dashoffset:0;stroke-opacity:1"
       d="m 168.99935,135.25679 h 2.80334"
       id="path30" />
    <text
       xml:space="preserve"
       style="font-style:normal;font-variant:normal;font-weight:400;font-size:3.91914px;line-height:125%;font-family:Arial;text-align:start;letter-spacing:0px;word-spacing:0px;text-anchor:start;fill:#000000;fill-opacity:1;stroke:none;stroke-width:0.264583"
       x="173.20435"
       y="140.76701"
       id="text32"><tspan
         sodipodi:role="line"
         x="173.20435"
         y="140.76701"
         id="tspan32"
         style="stroke-width:0.264583"><tspan
           dx="0"
           dy="0"
           style="font-style:normal;font-variant:normal;font-weight:400;font-size:3.91914px;font-family:Arial;fill:#000000;stroke-width:0.264583"
           id="tspan31">Global 99% confidence limit</tspan></tspan></text>
    <path
       style="fill:none;stroke:#000000;stroke-width:0.280333px;stroke-linecap:round;stroke-linejoin:round;stroke-miterlimit:4;stroke-dasharray:0.264583, 0.264583;stroke-dashoffset:0;stroke-opacity:1"
       d="m 168.99935,139.46179 h 2.80334"
       id="path32" />
    <path
       style="fill:none;stroke:#000000;stroke-width:0.280333px;stroke-linecap:round;stroke-linejoin:round;stroke-miterlimit:4;stroke-dasharray:none;stroke-opacity:1"
       d="m 167.59769,119.83846 h 48.778 v 21.866 h -48.778 v -21.866"
       id="path33" />
    <path
       style="fill:none;stroke:#000000;stroke-width:0.280333px;stroke-linecap:round;stroke-linejoin:round;stroke-miterlimit:4;stroke-dasharray:0.264583, 0.264583;stroke-dashoffset:0;stroke-opacity:1"
       d="M 19.021015,129.36979 H 164.79435"
       id="path34" />
    <path
       style="fill:none;stroke:#000000;stroke-width:0.280333px;stroke-linecap:round;stroke-linejoin:round;stroke-miterlimit:4;stroke-dasharray:0.79375, 0.264583, 0.264583, 0.264583, 0.264583, 0.264583;stroke-dashoffset:0;stroke-opacity:1"
       d="M 19.021015,129.36979 H 164.79435"
       id="path35" />
    <path
       style="fill:#c6c6c6;fill-opacity:1;fill-rule:evenodd;stroke:#c6c6c6;stroke-width:0.280333px;stroke-linecap:round;stroke-linejoin:round;stroke-miterlimit:4;stroke-dasharray:none;stroke-opacity:1"
       d="m 22.104682,177.30679 v -8.12967 h 0.280333 0.280333 0.280334 0.280333 0.280333 0.280334 0.280333 v -7.84933 h 0.280333 v 7.84933 -7.84933 h 0.280334 0.280333 0.280333 0.280334 0.280333 v -8.12967 l 0.280333,8.12967 h 0.280334 v -8.12967 8.12967 -8.12967 h 0.280333 0.280333 0.280334 0.280333 0.280333 0.280334 0.280333 0.280333 0.280334 0.280334 0.280331 0.280334 v 8.12967 -8.12967 8.12967 h 0.280334 v -8.12967 8.12967 -8.12967 h 0.280334 v 8.12967 -8.12967 h 0.280332 v 8.12967 -8.12967 8.12967 -8.12967 h 0.280334 0.280334 0.280334 v 8.12967 -8.12967 h 0.280331 0.280334 0.280334 0.280334 0.280331 0.280334 0.280334 0.280334 0.280332 v -7.84933 7.84933 -7.84933 h 0.280334 v 7.84933 h 0.280334 0.280333 0.280332 0.280334 l 0.280334,8.12967 v -8.12967 h 0.280334 v 8.12967 -8.12967 h 0.280331 0.280334 0.280334 0.280334 0.280331 0.280334 0.280334 v -7.84933 7.84933 h 0.280334 0.280334 0.280332 v -7.84933 h 0.280334 0.280334 0.280334 0.280331 l 0.280334,7.84933 v -7.84933 h 0.280334 0.280334 v 7.84933 h 0.280331 0.280334 0.280334 0.280334 0.280331 0.280334 v -7.84933 7.84933 -7.84933 7.84933 h 0.280334 v -7.84933 7.84933 -7.84933 h 0.280334 0.280332 0.280334 0.280334 0.280334 v 7.84933 h 0.280331 0.280334 0.280334 0.280334 0.280331 0.280334 v -7.84933 h 0.280334 0.280334 0.280332 v 7.84933 h 0.280333 0.280334 v -7.84933 7.84933 -7.84933 7.84933 -7.84933 h 0.280334 v 7.84933 h 0.280332 0.280334 v -7.84933 7.84933 -7.84933 h 0.280334 v 7.84933 -7.84933 7.84933 h 0.280334 0.280331 0.280334 0.280334 0.280334 v -7.84933 h 0.280334 v 7.84933 h 0.280331 v -7.84933 7.84933 h 0.280334 v -7.84933 h 0.280334 0.280334 0.280332 0.280334 0.280334 0.280334 0.280331 0.280334 0.280334 0.280334 0.280331 v -8.12967 8.12967 -8.12967 8.12967 h 0.280334 0.280334 0.280334 v -8.12967 8.12967 h 0.280331 v -8.12967 h 0.280334 v 8.12967 h 0.280334 0.280334 0.280332 0.280334 0.280334 v 7.84933 -7.84933 h 0.280334 0.280331 0.280334 0.280334 0.280334 0.280331 0.280334 0.280334 0.280334 0.280331 v -8.12967 l 0.280334,8.12967 v -8.12967 8.12967 -8.12967 h 0.280334 0.280334 v 8.12967 -8.12967 h 0.280332 v 8.12967 -8.12967 h 0.280334 v 8.12967 -8.12967 8.12967 h 0.280334 0.280334 0.280331 v 7.84933 h 0.280334 0.280334 0.280334 0.280334 0.280331 0.280334 0.280334 0.280334 v -7.84933 h 0.280332 v 7.84933 h 0.280334 0.280333 0.280334 0.280332 0.280334 0.280334 v -7.84933 h 0.280334 0.280331 0.280334 0.280334 0.280334 0.280331 v -8.12967 h 0.280334 v 8.12967 h 0.280334 0.280334 0.280332 0.280334 0.280334 v 7.84933 h 0.280334 v -7.84933 7.84933 -7.84933 7.84933 h 0.280331 0.280334 v -7.84933 h 0.280334 0.280334 0.280331 0.280334 0.280334 0.280334 0.280331 0.280334 0.280334 0.280334 0.280332 0.280334 v -8.12967 8.12967 h 0.280334 0.280334 0.280334 0.280331 0.280334 0.280334 0.280334 v 7.84933 h 0.280331 0.280334 v -7.84933 7.84933 h 0.280334 v -7.84933 h 0.280334 0.280331 v -8.12967 h 0.280334 0.280334 0.280334 0.280332 0.280334 0.280334 v 8.12967 -8.12967 8.12967 h 0.280334 0.280331 v 7.84933 h 0.280334 0.280334 v 8.12967 -8.12967 h 0.280334 0.280331 0.280334 v 8.12967 -8.12967 l 0.280334,8.12967 v -8.12967 8.12967 h 0.280334 v -8.12967 8.12967 h 0.280332 v -8.12967 h 0.280334 v 8.12967 h 0.280334 0.280334 0.280331 0.280334 v -8.12967 8.12967 -8.12967 8.12967 -8.12967 h 0.280334 0.280334 v 8.12967 h 0.280331 v -8.12967 8.12967 -8.12967 h 0.280334 v 8.12967 h 0.280334 0.280334 v -8.12967 h 0.280331 0.280334 v 8.12967 h 0.280334 0.280334 0.280334 0.280332 0.280334 0.280334 0.280334 0.280331 0.280334 0.280334 0.280334 0.280331 v -8.12967 h 0.280334 v 8.12967 h 0.280334 0.280334 0.280331 0.280334 0.280334 0.280334 0.280332 0.280334 0.280334 0.280334 v -8.12967 8.12967 -8.12967 h 0.280331 0.280334 0.280334 0.280334 0.280331 0.280334 0.280334 0.280334 v 8.12967 h 0.280332 v -8.12967 h 0.280334 0.280333 0.280334 0.280332 0.280334 0.280334 v 8.12967 -8.12967 h 0.280334 v 8.12967 h 0.280331 0.280334 v -8.12967 8.12967 -8.12967 h 0.280334 v 8.12967 -8.12967 8.12967 h 0.280334 v -8.12967 8.12967 h 0.280331 v -8.12967 8.12967 -8.12967 h 0.280334 0.280334 0.280334 v 8.12967 -8.12967 h 0.280334 0.280332 0.280334 0.280334 0.280334 0.280331 0.280334 0.280335 v 8.12967 -8.12967 h 0.28033 v 8.12967 h 0.28033 v -8.12967 h 0.28034 0.28033 0.28034 0.28033 0.28033 0.28034 0.28033 0.28034 0.28033 0.28033 0.28034 0.28033 0.28033 0.28034 0.28033 0.28033 0.28034 v 8.12967 -8.12967 l 0.28033,8.12967 h 0.28033 0.28034 0.28033 0.28033 0.28034 0.28033 v -8.12967 h 0.28033 0.28034 0.28033 0.28033 0.28034 0.28033 v -7.84933 h 0.28033 v 7.84933 h 0.28034 0.28033 0.28033 v -7.84933 7.84933 h 0.28034 0.28033 0.28033 0.28034 0.28033 0.28033 0.28034 0.28033 v -7.84933 h 0.28033 v 7.84933 h 0.28034 v -7.84933 7.84933 -7.84933 h 0.28033 0.28033 v 7.84933 h 0.28034 0.28033 v -7.84933 7.84933 h 0.28033 v -7.84933 7.84933 h 0.28034 v -7.84933 7.84933 h 0.28033 v -7.84933 7.84933 h 0.28033 0.28034 v -7.84933 h 0.28033 v 7.84933 h 0.28033 v -7.84933 7.84933 h 0.28034 0.28033 v -7.84933 7.84933 -7.84933 h 0.28033 v 7.84933 -7.84933 h 0.28034 0.28033 v 7.84933 h 0.28033 0.28034 0.28033 0.28033 0.28034 0.28033 0.28033 0.28034 0.28033 0.28033 v 8.12967 -8.12967 8.12967 h 0.28034 0.28033 0.28033 0.28034 l 0.28033,-8.12967 v 8.12967 -8.12967 8.12967 -8.12967 h 0.28033 v 8.12967 -8.12967 h 0.28034 0.28033 l 0.28033,8.12967 h 0.28034 v -8.12967 8.12967 -8.12967 h 0.28033 0.28033 v 8.12967 -8.12967 8.12967 h 0.28034 v -8.12967 8.12967 h 0.28033 0.28033 0.28034 0.28033 0.28033 0.28034 0.28033 0.28033 0.28034 0.28033 v -8.12967 h 0.28033 0.28034 0.28033 v 8.12967 h 0.28033 0.28034 0.28033 0.28033 0.28034 0.28033 0.28033 0.28034 0.28033 v -8.12967 h 0.28033 0.28034 0.28033 0.28033 v 8.12967 h 0.28034 v -8.12967 8.12967 h 0.28033 0.28033 0.28034 0.28033 0.28033 0.28034 0.28033 0.28033 0.28034 0.28033 0.28033 0.28034 0.28033 0.28033 0.28034 0.28033 v -8.12967 8.12967 -8.12967 8.12967 h 0.28033 v -8.12967 h 0.28034 v 8.12967 -8.12967 h 0.28033 v 8.12967 -8.12967 h 0.28033 0.28034 0.28033 0.28033 v 8.12967 h 0.28034 v -8.12967 h 0.28033 v 8.12967 -8.12967 h 0.28033 0.28034 0.28033 v 8.12967 h 0.28033 v -8.12967 8.12967 l 0.28034,-8.12967 h 0.28033 0.28033 v 8.12967 h 0.28034 v -8.12967 h 0.28033 0.28033 v 8.12967 l 0.28034,-8.12967 h 0.28033 v 8.12967 -8.12967 h 0.28033 0.28034 0.28033 v 8.12967 h 0.28033 v -8.12967 h 0.28034 0.28033 0.28033 v 8.12967 h 0.28034 v -8.12967 l 0.28033,8.12967 v -8.12967 h 0.28033 v 8.12967 h 0.28034 0.28033 0.28033 0.28034 0.28033 v 7.84933 h 0.28033 v -7.84933 7.84933 -7.84933 h 0.28034 v 7.84933 -7.84933 h 0.28033 0.28033 0.28034 0.28033 0.28033 0.28034 0.28033 0.28033 0.28034 0.28033 0.28033 0.28034 0.28033 0.28033 0.28034 0.28033 0.28033 0.28034 v 7.84933 -7.84933 h 0.28033 0.28033 0.28034 0.28033 0.28033 0.28034 0.28033 0.28033 0.28034 0.28033 0.28033 0.28034 0.28033 0.28033 0.28034 0.28033 0.28033 0.28034 0.28033 0.28033 v 7.84933 h 0.28034 0.28033 0.28033 0.28034 0.28033 0.28033 0.28034 0.28033 0.28033 0.28034 0.28033 0.28033 0.28034 0.28033 v 8.12967 h 0.28033 0.28034 0.28033 v 0 h -0.28033 -0.28034 -0.28033 -0.28033 -0.28034 -0.28033 -0.28033 -0.28034 -0.28033 -0.28033 -0.28034 -0.28033 -0.28033 -0.28034 -0.28033 -0.28033 -0.28034 -0.28033 -0.28033 -0.28034 -0.28033 -0.28033 -0.28034 -0.28033 -0.28033 -0.28034 -0.28033 -0.28033 -0.28034 -0.28033 -0.28033 -0.28034 -0.28033 -0.28033 -0.28034 -0.28033 -0.28033 -0.28034 -0.28033 -0.28033 -0.28034 -0.28033 -0.28033 -0.28034 -0.28033 -0.28033 -0.28034 -0.28033 -0.28033 -0.28034 -0.28033 -0.28033 -0.28034 -0.28033 -0.28033 -0.28034 -0.28033 -0.28033 -0.28034 -0.28033 -0.28033 -0.28034 -0.28033 -0.28033 -0.28034 -0.28033 -0.28033 -0.28034 -0.28033 -0.28033 -0.28034 -0.28033 -0.28033 -0.28034 -0.28033 -0.28033 -0.28034 -0.28033 -0.28033 -0.28034 -0.28033 -0.28033 -0.28034 -0.28033 -0.28033 -0.28034 -0.28033 -0.28033 -0.28034 -0.28033 -0.28033 -0.28034 -0.28033 -0.28033 -0.28034 -0.28033 -0.28033 -0.28034 -0.28033 -0.28033 -0.28034 -0.28033 -0.28033 -0.28034 -0.28033 -0.28033 -0.28034 -0.28033 -0.28033 -0.28034 -0.28033 -0.28033 -0.28034 -0.28033 -0.28033 -0.28034 -0.28033 -0.28033 -0.28034 -0.28033 -0.28033 -0.28034 -0.28033 -0.28033 -0.28034 -0.28033 -0.28033 -0.28034 -0.28033 -0.28033 -0.28034 -0.28033 -0.28033 -0.28034 -0.28033 -0.28033 -0.28034 -0.28033 -0.28033 -0.28034 -0.28033 -0.28033 -0.28034 -0.28033 -0.28033 -0.28034 -0.28033 -0.28033 -0.28034 -0.28033 -0.28033 -0.28034 -0.28033 -0.28033 -0.28034 -0.28033 -0.28033 -0.28034 -0.28033 -0.28033 -0.28034 -0.28033 -0.28033 -0.28034 -0.28033 -0.28033 -0.28034 -0.28033 -0.28033 -0.28034 -0.28033 -0.28033 -0.28034 -0.28033 -0.28033 -0.28034 -0.28033 -0.28033 -0.28034 -0.28033 -0.28033 -0.28034 -0.28033 -0.28033 -0.28034 -0.28033 -0.28033 -0.28034 -0.28033 -0.28033 -0.28034 -0.28033 -0.28033 -0.28034 -0.28033 -0.28033 -0.28034 -0.28033 -0.28033 -0.28034 -0.28033 -0.28033 -0.28034 -0.28033 -0.28033 -0.28034 -0.28033 -0.28033 -0.28034 -0.28033 -0.28033 -0.28034 -0.28033 -0.28034 -0.28033 -0.28033 -0.28034 -0.28033 -0.28034 -0.28033 -0.28033 H 99.757015 99.476681 99.19635 98.916016 98.635682 98.355348 98.075016 97.794682 97.514348 97.234014 96.95368 96.673349 96.393015 96.112681 95.832347 95.552016 95.271682 94.991348 94.711014 94.430682 94.150348 93.870015 93.589681 93.309349 93.029015 92.748681 92.468347 92.188016 91.907682 91.627348 91.347014 91.066683 90.786349 90.506015 90.225681 89.945349 89.665015 89.384681 89.104347 88.824016 88.543682 88.263348 87.983014 87.702683 87.422349 87.142015 86.861681 86.58135 86.301016 86.020682 85.740348 85.460016 85.179682 84.899348 84.619014 84.33868 84.058349 83.778015 83.497681 83.217347 82.937016 82.656682 82.376348 82.096014 81.815683 81.535349 81.255015 80.974681 80.694349 80.414015 80.133681 79.853347 79.573016 79.292682 79.012348 78.732014 78.451683 78.171349 77.891015 77.610681 77.330349 77.050015 76.769681 76.489347 76.209016 75.928682 75.648348 75.368014 75.087683 74.807349 74.527015 74.246681 73.96635 73.686016 73.405682 73.125348 72.845014 72.564682 72.284348 72.004014 71.72368 71.443349 71.163015 70.882681 70.602347 70.322016 70.041682 69.761348 69.481014 69.200683 68.920349 68.640015 68.359681 68.079349 67.799015 67.518681 67.238347 66.958016 66.677682 66.397348 66.117014 65.836683 65.556349 65.276015 64.995681 64.715349 64.435015 64.154682 63.874348 63.594016 63.313682 63.033348 62.753014 62.472683 62.192349 61.912015 61.631681 61.351347 61.071016 60.790682 60.510348 60.230014 59.949682 59.669348 59.389014 59.10868 58.828349 58.548015 58.267681 57.987347 57.707016 57.426682 57.146348 56.866014 56.585683 56.305349 56.025015 55.744681 55.464349 55.184015 54.903681 54.623347 54.343016 54.062682 53.782348 53.502014 53.221683 52.941349 52.661015 52.380681 52.10035 51.820016 51.539682 51.259348 50.979016 50.698682 50.418348 50.138014 49.857683 49.577349 49.297015 49.016681 48.736347 48.456016 48.175682 47.895348 47.615014 47.334682 47.054348 46.774014 46.493681 46.213349 45.933015 45.652681 45.372347 45.092016 44.811682 44.531348 44.251014 43.970683 43.690349 43.410015 43.129681 42.849349 42.569015 42.288681 42.008347 41.728016 41.447682 41.167348 40.887014 40.606683 40.326349 40.046015 39.765681 39.48535 39.205016 38.924682 38.644348 38.364016 38.083682 37.803348 37.523014 37.24268 36.962349 36.682015 36.401681 36.121347 35.841016 35.560682 35.280348 35.000014 34.719682 34.439349 34.159015 33.878681 33.598349 33.318015 33.037681 32.757347 32.477016 32.196682 31.916348 31.636014 31.355683 31.075349 30.795015 30.514681 30.234349 29.954015 29.673681 29.393347 29.113016 28.832682 28.552348 28.272015 27.991682 27.711348 27.431015 27.150682 26.870348 26.590015 26.309682 26.029348 25.749015 25.468682 25.188348 24.908015 24.627682 24.347348 24.067015 23.786682 23.506348 23.226015 22.945682 22.665348 22.385015 Z"
       id="path36" />
    <path
       style="fill:#808080;fill-opacity:1;fill-rule:evenodd;stroke:#808080;stroke-width:0.280333px;stroke-linecap:round;stroke-linejoin:round;stroke-miterlimit:4;stroke-dasharray:none;stroke-opacity:1"
       d="m 22.104682,177.30679 h 0.280333 0.280333 0.280334 v -8.12967 h 0.280333 0.280333 0.280334 0.280333 0.280333 0.280334 0.280333 0.280333 0.280334 0.280333 v -7.84933 h 0.280333 0.280334 0.280333 0.280333 0.280334 0.280333 0.280333 0.280334 0.280333 0.280333 0.280334 0.280334 0.280331 0.280334 0.280334 0.280334 0.280332 0.280334 0.280334 0.280334 0.280331 0.280334 0.280334 0.280334 0.280331 0.280334 0.280334 l 0.280334,-8.12967 v 8.12967 -8.12967 h 0.280332 0.280334 v 8.12967 h 0.280334 0.280333 0.280332 0.280334 0.280334 0.280334 0.280331 0.280334 0.280334 0.280334 0.280331 0.280334 v -8.12967 h 0.280334 v 8.12967 -8.12967 h 0.280334 0.280334 0.280332 0.280334 0.280334 0.280334 0.280331 0.280334 0.280334 0.280334 0.280331 v 8.12967 h 0.280334 0.280334 0.280334 0.280331 0.280334 v -8.12967 h 0.280334 0.280334 0.280332 0.280334 0.280334 0.280334 v 8.12967 h 0.280331 0.280334 0.280334 0.280334 0.280331 0.280334 v -8.12967 h 0.280334 0.280334 0.280332 v 8.12967 h 0.280333 v -8.12967 h 0.280334 0.280334 0.280332 0.280334 v 8.12967 h 0.280334 0.280334 0.280331 0.280334 0.280334 0.280334 v -8.12967 h 0.280334 v 8.12967 -8.12967 h 0.280331 v 8.12967 -8.12967 h 0.280334 0.280334 0.280334 0.280332 0.280334 0.280334 0.280334 0.280331 0.280334 0.280334 0.280334 v -7.84933 h 0.280331 v 7.84933 -7.84933 7.84933 h 0.280334 0.280334 0.280334 0.280331 0.280334 0.280334 0.280334 0.280332 0.280334 0.280334 0.280334 0.280331 0.280334 0.280334 0.280334 0.280331 0.280334 0.280334 0.280334 0.280331 0.280334 0.280334 v -7.84933 7.84933 -7.84933 7.84933 h 0.280334 0.280332 v -7.84933 h 0.280334 v 7.84933 -7.84933 7.84933 -7.84933 h 0.280334 v 7.84933 h 0.280334 0.280331 v 8.12967 h 0.280334 0.280334 0.280334 0.280334 0.280331 0.280334 0.280334 0.280334 0.280332 0.280334 v -8.12967 8.12967 -8.12967 8.12967 h 0.280333 0.280334 v -8.12967 8.12967 -8.12967 8.12967 -8.12967 h 0.280332 v 8.12967 -8.12967 8.12967 -8.12967 8.12967 h 0.280334 v -8.12967 8.12967 h 0.280334 v -8.12967 h 0.280334 0.280331 0.280334 0.280334 0.280334 0.280331 v -7.84933 h 0.280334 0.280334 v 7.84933 h 0.280334 0.280332 0.280334 0.280334 0.280334 v 8.12967 -8.12967 8.12967 h 0.280331 0.280334 v -8.12967 h 0.280334 0.280334 0.280331 0.280334 0.280334 0.280334 0.280331 0.280334 0.280334 0.280334 0.280332 0.280334 0.280334 0.280334 0.280334 0.280331 0.280334 0.280334 0.280334 v 8.12967 -8.12967 8.12967 h 0.280331 0.280334 v -8.12967 8.12967 -8.12967 l 0.280334,8.12967 v -8.12967 h 0.280334 0.280331 v -7.84933 h 0.280334 0.280334 0.280334 0.280332 0.280334 0.280334 v 7.84933 h 0.280334 0.280331 v 8.12967 h 0.280334 0.280334 0.280334 0.280331 0.280334 0.280334 0.280334 0.280332 0.280334 l 0.280334,7.84933 v -7.84933 h 0.280334 v 7.84933 -7.84933 h 0.280331 v 7.84933 -7.84933 h 0.280334 0.280334 0.280334 0.280331 0.280334 0.280334 0.280334 0.280331 0.280334 0.280334 v 7.84933 h 0.280334 0.280334 0.280332 0.280334 0.280334 0.280334 0.280331 0.280334 v -7.84933 7.84933 h 0.280334 v -7.84933 h 0.280334 v 7.84933 h 0.280331 v -7.84933 7.84933 -7.84933 h 0.280334 0.280334 0.280334 0.280331 0.280334 0.280334 0.280334 0.280332 v 7.84933 -7.84933 h 0.280334 0.280334 0.280334 0.280331 0.280334 0.280334 0.280334 0.280331 0.280334 0.280334 0.280334 0.280332 0.280334 0.280333 0.280334 0.280332 0.280334 0.280334 0.280334 0.280331 0.280334 0.280334 0.280334 0.280331 0.280334 0.280334 0.280334 0.280334 0.280332 0.280334 0.280334 0.280334 0.280331 0.280334 0.280335 0.28033 0.28033 0.28034 0.28033 0.28034 0.28033 0.28033 0.28034 0.28033 0.28034 0.28033 0.28033 0.28034 0.28033 0.28033 0.28034 0.28033 0.28033 0.28034 0.28033 0.28033 v 7.84933 -7.84933 h 0.28034 0.28033 0.28033 0.28034 0.28033 0.28033 0.28034 0.28033 0.28033 0.28034 l 0.28033,-8.12967 h 0.28033 0.28034 v 8.12967 h 0.28033 v -8.12967 8.12967 -8.12967 h 0.28033 0.28034 v 8.12967 h 0.28033 v -8.12967 8.12967 h 0.28033 v -8.12967 8.12967 -8.12967 h 0.28034 v 8.12967 -8.12967 8.12967 l 0.28033,-8.12967 h 0.28033 v 8.12967 -8.12967 8.12967 -8.12967 h 0.28034 v 8.12967 -8.12967 h 0.28033 0.28033 0.28034 0.28033 0.28033 0.28034 0.28033 v 8.12967 -8.12967 8.12967 h 0.28033 0.28034 v -8.12967 h 0.28033 v 8.12967 -8.12967 h 0.28033 v 8.12967 -8.12967 h 0.28034 0.28033 0.28033 0.28034 0.28033 0.28033 0.28034 l 0.28033,8.12967 h 0.28033 0.28034 0.28033 0.28033 0.28034 0.28033 0.28033 0.28034 0.28033 0.28033 0.28034 0.28033 v 7.84933 h 0.28033 0.28034 v -7.84933 h 0.28033 0.28033 0.28034 0.28033 0.28033 0.28034 0.28033 0.28033 0.28034 0.28033 v 7.84933 -7.84933 h 0.28033 0.28034 l 0.28033,7.84933 v -7.84933 7.84933 h 0.28033 v -7.84933 h 0.28034 v 7.84933 -7.84933 7.84933 -7.84933 h 0.28033 0.28033 0.28034 0.28033 0.28033 0.28034 0.28033 0.28033 0.28034 0.28033 0.28033 0.28034 0.28033 0.28033 0.28034 0.28033 0.28033 0.28034 0.28033 0.28033 0.28034 0.28033 0.28033 0.28034 0.28033 0.28033 0.28034 0.28033 0.28033 v 7.84933 -7.84933 7.84933 h 0.28034 0.28033 0.28033 0.28034 0.28033 0.28033 0.28034 l 0.28033,-7.84933 v 7.84933 -7.84933 h 0.28033 0.28034 0.28033 0.28033 0.28034 0.28033 0.28033 0.28034 0.28033 0.28033 0.28034 0.28033 0.28033 0.28034 0.28033 0.28033 0.28034 0.28033 0.28033 0.28034 0.28033 0.28033 0.28034 0.28033 0.28033 0.28034 0.28033 0.28033 0.28034 0.28033 0.28033 0.28034 0.28033 v 7.84933 h 0.28033 0.28034 0.28033 0.28033 0.28034 0.28033 0.28033 0.28034 0.28033 0.28033 0.28034 0.28033 0.28033 0.28034 0.28033 0.28033 0.28034 v -7.84933 h 0.28033 v 7.84933 h 0.28033 0.28034 0.28033 0.28033 0.28034 0.28033 0.28033 0.28034 0.28033 0.28033 0.28034 0.28033 0.28033 0.28034 0.28033 0.28033 0.28034 0.28033 0.28033 0.28034 0.28033 0.28033 0.28034 0.28033 0.28033 0.28034 0.28033 0.28033 0.28034 0.28033 0.28033 0.28034 0.28033 0.28033 0.28034 v 8.12967 h 0.28033 0.28033 0.28034 0.28033 0.28033 0.28034 0.28033 v 0 h -0.28033 -0.28034 -0.28033 -0.28033 -0.28034 -0.28033 -0.28033 -0.28034 -0.28033 -0.28033 -0.28034 -0.28033 -0.28033 -0.28034 -0.28033 -0.28033 -0.28034 -0.28033 -0.28033 -0.28034 -0.28033 -0.28033 -0.28034 -0.28033 -0.28033 -0.28034 -0.28033 -0.28033 -0.28034 -0.28033 -0.28033 -0.28034 -0.28033 -0.28033 -0.28034 -0.28033 -0.28033 -0.28034 -0.28033 -0.28033 -0.28034 -0.28033 -0.28033 -0.28034 -0.28033 -0.28033 -0.28034 -0.28033 -0.28033 -0.28034 -0.28033 -0.28033 -0.28034 -0.28033 -0.28033 -0.28034 -0.28033 -0.28033 -0.28034 -0.28033 -0.28033 -0.28034 -0.28033 -0.28033 -0.28034 -0.28033 -0.28033 -0.28034 -0.28033 -0.28033 -0.28034 -0.28033 -0.28033 -0.28034 -0.28033 -0.28033 -0.28034 -0.28033 -0.28033 -0.28034 -0.28033 -0.28033 -0.28034 -0.28033 -0.28033 -0.28034 -0.28033 -0.28033 -0.28034 -0.28033 -0.28033 -0.28034 -0.28033 -0.28033 -0.28034 -0.28033 -0.28033 -0.28034 -0.28033 -0.28033 -0.28034 -0.28033 -0.28033 -0.28034 -0.28033 -0.28033 -0.28034 -0.28033 -0.28033 -0.28034 -0.28033 -0.28033 -0.28034 -0.28033 -0.28033 -0.28034 -0.28033 -0.28033 -0.28034 -0.28033 -0.28033 -0.28034 -0.28033 -0.28033 -0.28034 -0.28033 -0.28033 -0.28034 -0.28033 -0.28033 -0.28034 -0.28033 -0.28033 -0.28034 -0.28033 -0.28033 -0.28034 -0.28033 -0.28033 -0.28034 -0.28033 -0.28033 -0.28034 -0.28033 -0.28033 -0.28034 -0.28033 -0.28033 -0.28034 -0.28033 -0.28033 -0.28034 -0.28033 -0.28033 -0.28034 -0.28033 -0.28033 -0.28034 -0.28033 -0.28033 -0.28034 -0.28033 -0.28033 -0.28034 -0.28033 -0.28033 -0.28034 -0.28033 -0.28033 -0.28034 -0.28033 -0.28033 -0.28034 -0.28033 -0.28033 -0.28034 -0.28033 -0.28033 -0.28034 -0.28033 -0.28033 -0.28034 -0.28033 -0.28033 -0.28034 -0.28033 -0.28033 -0.28034 -0.28033 -0.28033 -0.28034 -0.28033 -0.28033 -0.28034 -0.28033 -0.28033 -0.28034 -0.28033 -0.28033 -0.28034 -0.28033 -0.28033 -0.28034 -0.28033 -0.28033 -0.28034 -0.28033 -0.28033 -0.28034 -0.28033 -0.28033 -0.28034 -0.28033 -0.28034 -0.28033 -0.28033 -0.28034 -0.28033 -0.28034 -0.28033 -0.28033 H 99.757015 99.476681 99.19635 98.916016 98.635682 98.355348 98.075016 97.794682 97.514348 97.234014 96.95368 96.673349 96.393015 96.112681 95.832347 95.552016 95.271682 94.991348 94.711014 94.430682 94.150348 93.870015 93.589681 93.309349 93.029015 92.748681 92.468347 92.188016 91.907682 91.627348 91.347014 91.066683 90.786349 90.506015 90.225681 89.945349 89.665015 89.384681 89.104347 88.824016 88.543682 88.263348 87.983014 87.702683 87.422349 87.142015 86.861681 86.58135 86.301016 86.020682 85.740348 85.460016 85.179682 84.899348 84.619014 84.33868 84.058349 83.778015 83.497681 83.217347 82.937016 82.656682 82.376348 82.096014 81.815683 81.535349 81.255015 80.974681 80.694349 80.414015 80.133681 79.853347 79.573016 79.292682 79.012348 78.732014 78.451683 78.171349 77.891015 77.610681 77.330349 77.050015 76.769681 76.489347 76.209016 75.928682 75.648348 75.368014 75.087683 74.807349 74.527015 74.246681 73.96635 73.686016 73.405682 73.125348 72.845014 72.564682 72.284348 72.004014 71.72368 71.443349 71.163015 70.882681 70.602347 70.322016 70.041682 69.761348 69.481014 69.200683 68.920349 68.640015 68.359681 68.079349 67.799015 67.518681 67.238347 66.958016 66.677682 66.397348 66.117014 65.836683 65.556349 65.276015 64.995681 64.715349 64.435015 64.154682 63.874348 63.594016 63.313682 63.033348 62.753014 62.472683 62.192349 61.912015 61.631681 61.351347 61.071016 60.790682 60.510348 60.230014 59.949682 59.669348 59.389014 59.10868 58.828349 58.548015 58.267681 57.987347 57.707016 57.426682 57.146348 56.866014 56.585683 56.305349 56.025015 55.744681 55.464349 55.184015 54.903681 54.623347 54.343016 54.062682 53.782348 53.502014 53.221683 52.941349 52.661015 52.380681 52.10035 51.820016 51.539682 51.259348 50.979016 50.698682 50.418348 50.138014 49.857683 49.577349 49.297015 49.016681 48.736347 48.456016 48.175682 47.895348 47.615014 47.334682 47.054348 46.774014 46.493681 46.213349 45.933015 45.652681 45.372347 45.092016 44.811682 44.531348 44.251014 43.970683 43.690349 43.410015 43.129681 42.849349 42.569015 42.288681 42.008347 41.728016 41.447682 41.167348 40.887014 40.606683 40.326349 40.046015 39.765681 39.48535 39.205016 38.924682 38.644348 38.364016 38.083682 37.803348 37.523014 37.24268 36.962349 36.682015 36.401681 36.121347 35.841016 35.560682 35.280348 35.000014 34.719682 34.439349 34.159015 33.878681 33.598349 33.318015 33.037681 32.757347 32.477016 32.196682 31.916348 31.636014 31.355683 31.075349 30.795015 30.514681 30.234349 29.954015 29.673681 29.393347 29.113016 28.832682 28.552348 28.272015 27.991682 27.711348 27.431015 27.150682 26.870348 26.590015 26.309682 26.029348 25.749015 25.468682 25.188348 24.908015 24.627682 24.347348 24.067015 23.786682 23.506348 23.226015 22.945682 22.665348 22.385015 Z"
       id="path37" />
    <path
       style="fill:none;stroke:#000000;stroke-width:0.280333px;stroke-linecap:round;stroke-linejoin:round;stroke-miterlimit:4;stroke-dasharray:none;stroke-opacity:1"
       d="m 21.824348,177.30679 v 0 0 0 0 0 0 h 0.280334 v 0 0 0 0 0 0 0 0 0 0 0 0 0 h 0.280333 v 0 0 0 0 0 0 0 0 0 0 0 0 0 h 0.280333 v 0 0 0 0 0 0 0 0 0 0 0 0 0 h 0.280334 v 0 0 0 0 -8.12967 0 0 0 0 0 0 0 0 h 0.280333 v 0 0 0 0 0 0 0 0 0 0 0 0 0 h 0.280333 v 0 0 0 0 0 0 0 0 0 0 0 0 0 h 0.280334 v 0 0 0 0 0 0 0 0 0 0 0 0 0 h 0.280333 v 0 0 0 0 0 0 0 0 0 0 0 0 0 h 0.280333 v 0 0 0 0 0 0 0 0 0 0 0 0 0 h 0.280334 v 0 0 0 0 0 0 0 0 0 0 0 0 0 h 0.280333 v 0 0 0 0 0 0 8.12967 0 0 0 0 0 0 h 0.280333 v 0 0 0 0 0 0 0 0 0 0 0 0 0 h 0.280334 v 0 0 0 -8.12967 0 0 0 0 0 0 0 0 0 h 0.280333 v 0 0 0 0 0 0 0 0 0 0 0 0 0 h 0.280333 v 0 0 0 0 0 0 0 0 0 0 0 0 0 h 0.280334 v 0 0 0 0 0 0 0 0 0 0 0 0 0 h 0.280333 v 0 0 0 0 0 0 0 0 0 0 0 0 0 h 0.280333 v 0 0 0 0 0 0 0 0 0 0 0 0 0 h 0.280334 v 0 0 0 0 0 0 0 0 0 0 0 0 0 h 0.280333 v 0 0 0 0 0 8.12967 0 0 0 0 0 0 0 h 0.280333 v 0 0 0 0 0 0 0 0 0 0 0 0 0 h 0.280334 v 0 0 0 0 0 0 0 0 0 0 0 0 0 h 0.280333 v 0 0 0 0 0 0 0 0 0 0 0 0 0 h 0.280333 v 0 0 0 0 0 0 0 0 0 0 0 0 0 h 0.280334 v 0 0 0 0 0 0 0 0 0 0 0 0 0 0 h 0.280334 v 0 0 0 0 0 -8.12967 0 0 0 0 0 0 0 h 0.280331 v 0 0 0 0 0 0 0 0 -7.84933 0 0 0 0 h 0.280334 v 0 0 0 0 0 0 0 0 0 0 0 0 0 h 0.280334 v 0 0 0 0 0 0 0 0 0 0 0 0 0 h 0.280334 v 0 0 0 0 0 0 0 0 0 0 0 0 0 h 0.280332 v -8.12967 0 0 0 0 0 0 0 0 0 0 0 0 h 0.280334 v 0 0 0 0 0 0 0 0 0 0 0 0 0 h 0.280334 v 0 0 0 0 0 0 0 8.12967 0 0 0 0 0 h 0.280334 v 0 0 0 0 0 0 0 0 0 0 7.84933 0 0 h 0.280331 v 0 0 0 0 0 0 0 0 0 0 0 0 0 h 0.280334 v 0 0 0 0 0 0 0 0 0 0 0 0 0 h 0.280334 v 0 0 0 0 0 0 0 0 0 0 0 0 0 h 0.280334 v 0 0 8.12967 0 0 0 0 0 0 0 0 0 0 h 0.280331 v 0 0 0 0 0 0 0 0 0 0 0 0 0 l 0.280334,-8.12967 v 0 0 0 0 0 0 0 0 -7.84933 0 0 0 0 h 0.280334 v 0 0 0 0 0 0 0 0 0 0 0 0 0 h 0.280334 v 0 0 0 0 0 0 0 0 0 0 0 0 0 h 0.280332 v 0 0 0 0 0 0 0 0 -8.12967 0 0 0 0 h 0.280334 v 0 0 0 0 0 0 0 0 0 0 0 0 0 h 0.280334 v 0 0 0 0 0 0 0 0 0 0 0 0 0 h 0.280333 v 0 0 0 0 0 0 0 0 0 0 0 0 0 h 0.280332 v 0 8.12967 0 0 0 0 0 0 0 0 7.84933 0 0 h 0.280334 v 0 0 0 0 0 0 0 0 0 0 0 0 0 h 0.280334 v 0 0 0 0 0 0 0 0 0 -7.84933 0 0 0 h 0.280334 v 0 0 0 0 0 0 0 0 0 0 7.84933 0 0 0 h 0.280331 v 0 0 0 0 0 0 0 0 0 0 0 0 0 h 0.280334 v 0 0 0 0 0 0 -7.84933 0 0 0 0 0 0 h 0.280334 v 0 0 0 0 0 0 0 0 0 0 0 0 0 h 0.280334 v 0 0 0 0 0 0 0 0 0 0 0 0 0 h 0.280331 v 0 0 0 0 0 0 0 0 0 0 0 0 -8.12967 h 0.280334 v 0 0 0 0 0 0 0 0 0 0 8.12967 0 0 h 0.280334 v 0 0 0 0 0 0 -8.12967 0 0 0 0 0 0 h 0.280334 v 0 0 0 0 0 0 0 0 0 0 0 0 0 h 0.280334 v 0 0 0 0 0 0 0 0 8.12967 0 0 0 0 h 0.280332 v 0 0 0 0 0 0 0 0 0 0 0 0 0 h 0.280334 v 0 0 0 0 0 0 0 0 0 0 0 0 0 h 0.280334 v -8.12967 0 0 0 0 0 -7.84933 -8.12967 0 0 0 0 0 h 0.280334 v 8.12967 0 0 0 0 0 0 0 0 0 0 0 0 h 0.280331 v 0 0 0 0 0 0 0 0 7.84933 0 0 0 0 h 0.280334 v 0 0 0 0 0 0 0 0 0 0 0 0 0 h 0.280334 v 0 0 0 0 0 0 0 0 0 0 0 0 0 h 0.280334 v 0 0 0 0 0 0 0 0 0 0 0 0 0 h 0.280331 v 0 0 0 0 0 0 0 0 0 0 0 0 0 h 0.280334 v 0 0 8.12967 0 0 0 0 0 7.84933 8.12967 0 0 0 h 0.280334 v 0 0 0 0 0 0 0 0 0 0 0 0 0 h 0.280334 v 0 0 0 0 0 0 0 0 0 0 0 0 0 h 0.280331 v 0 0 0 0 0 0 0 0 0 0 0 0 0 h 0.280334 v 0 0 0 0 0 0 0 0 0 0 0 0 0 h 0.280334 v 0 0 0 0 0 0 0 0 0 0 0 0 0 h 0.280334 v 0 0 0 0 0 0 0 0 0 0 0 0 0 0 h 0.280332 v 0 0 0 0 0 0 0 0 0 0 0 0 0 h 0.280334 v 0 0 0 0 0 0 0 0 0 0 0 0 0 h 0.280334 v 0 0 0 0 0 0 0 0 0 0 0 0 0 h 0.280334 v 0 0 0 0 0 0 0 -8.12967 0 0 0 0 0 h 0.280331 v 0 0 0 0 0 0 0 0 0 0 0 0 0 h 0.280334 v 0 0 0 0 0 0 0 0 0 0 0 0 0 h 0.280334 v 0 0 0 0 0 0 0 0 0 0 0 0 0 h 0.280334 v 0 0 0 0 0 0 0 0 0 0 0 0 0 h 0.280331 v 0 0 0 0 0 0 0 0 0 0 0 0 0 h 0.280334 v 0 0 0 0 0 0 0 0 0 0 0 0 0 h 0.280334 v 0 0 0 0 0 0 0 0 0 8.12967 0 0 0 h 0.280334 v 0 0 0 0 0 0 0 0 0 0 0 0 0 h 0.280332 v 0 0 0 0 0 0 0 0 0 0 0 0 0 h 0.280333 v 0 0 0 0 0 0 0 0 0 0 0 0 0 h 0.280334 v 0 0 0 0 0 0 0 0 0 0 0 0 0 h 0.280334 v 0 0 0 0 0 0 0 0 0 0 0 0 0 h 0.280332 v 0 0 0 0 0 0 0 0 0 0 0 0 0 h 0.280334 v 0 0 0 0 0 0 0 0 0 0 0 0 0 h 0.280334 v 0 0 0 0 0 0 0 0 0 0 0 0 0 h 0.280334 v 0 0 0 0 0 0 0 0 0 0 0 0 0 h 0.280331 v 0 0 0 0 0 0 0 0 0 0 0 0 0 h 0.280334 v 0 0 0 0 0 0 0 0 0 0 0 -8.12967 0 h 0.280334 v 0 0 0 -7.84933 0 0 0 0 0 0 0 0 0 h 0.280334 v 0 0 0 0 0 0 0 0 0 0 0 0 0 h 0.280334 v 0 0 0 0 0 0 0 0 0 0 0 0 0 0 h 0.280331 v 0 0 0 0 0 0 0 0 0 0 0 0 0 h 0.280334 v 0 0 0 0 0 0 0 0 0 0 0 0 0 h 0.280334 v 0 0 0 0 0 0 0 0 -8.12967 0 0 0 0 h 0.280334 v 0 0 0 0 0 0 0 0 0 0 0 0 8.12967 h 0.280332 v 0 0 0 0 7.84933 0 0 0 0 0 0 0 0 h 0.280334 v 0 0 0 0 0 0 0 0 0 0 0 0 0 h 0.280334 v 0 0 0 0 0 0 0 0 0 0 0 0 0 h 0.280334 v 0 0 0 0 0 0 0 0 0 0 0 0 0 h 0.280331 v 0 0 0 0 0 0 0 0 0 0 0 0 0 h 0.280334 v 0 0 0 0 0 0 0 0 0 0 8.12967 0 0 h 0.280334 v 0 0 0 0 0 0 0 0 0 0 0 0 0 h 0.280334 v 0 0 0 0 0 0 0 0 0 0 0 0 0 h 0.280331 v 0 0 0 0 0 0 0 0 0 0 0 0 0 h 0.280334 v 0 0 0 0 0 0 0 0 0 0 0 0 0 h 0.280334 v 0 0 0 0 0 0 0 0 0 0 0 0 0 h 0.280334 v 0 0 0 0 0 0 0 0 0 0 0 0 0 h 0.280331 v 0 0 0 0 0 0 0 0 0 0 0 0 0 h 0.280334 v 0 0 0 0 0 0 0 0 0 0 0 0 0 h 0.280334 v 0 0 0 0 0 0 0 0 0 0 0 0 0 h 0.280334 v 0 0 0 0 0 0 0 0 0 0 0 0 0 h 0.280332 v 0 0 0 0 0 0 0 0 0 0 0 0 0 h 0.280334 v 0 0 0 0 0 0 0 0 0 0 0 0 0 h 0.280334 v 0 0 0 0 0 0 0 0 0 0 0 0 0 h 0.280334 v 0 0 0 0 0 0 0 0 0 0 0 0 0 h 0.280331 v 0 0 0 0 0 0 0 0 0 0 0 0 0 0 h 0.280334 v 0 0 0 0 0 0 0 0 0 0 0 0 0 h 0.280334 v 0 0 0 0 0 0 0 0 0 0 0 0 0 h 0.280334 v 0 0 0 0 0 0 0 0 0 0 0 0 0 h 0.280331 v 0 0 0 0 0 0 0 0 0 0 0 0 0 h 0.280334 v 0 0 0 0 0 0 0 0 0 0 0 0 0 h 0.280334 v 0 0 0 0 0 0 0 0 0 0 0 0 0 h 0.280334 v 0 0 0 0 0 0 0 0 0 0 0 0 0 h 0.280331 v 0 0 0 0 0 0 0 0 0 0 0 0 0 h 0.280334 v 0 0 0 0 0 0 0 0 0 0 0 -8.12967 0 h 0.280334 v 0 0 0 0 0 0 0 0 0 0 0 0 0 h 0.280334 v 0 0 -7.84933 0 0 0 0 0 -8.12967 0 0 0 0 h 0.280332 v 0 0 0 0 0 0 0 0 0 0 0 0 0 h 0.280334 v 0 0 0 0 0 0 0 0 0 0 0 0 0 h 0.280334 v 0 0 0 0 0 0 0 0 0 0 0 0 0 h 0.280334 v 0 0 0 0 0 0 0 0 0 0 0 0 0 h 0.280331 v 0 0 0 0 0 0 0 0 0 0 0 0 0 l 0.280334,8.12967 v 0 0 0 0 0 0 0 0 0 0 0 0 0 h 0.280334 v 0 0 0 0 7.84933 0 0 0 0 0 8.12967 0 0 h 0.280334 v 0 0 0 0 0 0 0 0 0 0 0 0 0 h 0.280334 v 0 0 0 0 0 0 0 0 0 0 0 0 0 h 0.280331 v 0 0 0 0 0 0 0 0 0 0 0 0 0 h 0.280334 v 0 0 0 0 0 0 0 0 0 0 0 0 0 h 0.280334 v 0 0 0 0 0 0 0 0 0 0 0 0 0 h 0.280334 v 0 0 0 0 0 0 0 0 0 0 0 0 0 h 0.280332 v 0 0 0 0 0 0 0 0 0 0 0 0 0 0 h 0.280334 v 0 0 0 0 0 0 0 0 0 0 0 0 0 h 0.280333 v 0 0 0 0 0 0 0 0 0 0 0 0 0 h 0.280334 v 0 0 0 0 0 0 0 0 0 0 0 0 0 h 0.280332 v 0 0 0 0 0 0 0 0 0 0 0 0 0 h 0.280334 v 0 0 0 0 0 0 0 0 0 0 0 0 0 h 0.280334 v 0 0 0 0 0 0 0 0 0 0 0 0 0 h 0.280334 v 0 0 0 0 0 0 0 0 0 0 0 0 0 h 0.280331 v 0 0 0 0 0 0 0 0 0 0 0 0 0 h 0.280334 v 0 0 0 0 0 0 0 0 0 0 0 0 0 h 0.280334 v 0 0 0 0 0 0 0 0 0 0 0 0 0 h 0.280334 v 0 0 0 0 0 0 0 0 0 0 0 0 0 h 0.280331 v 0 0 0 0 0 0 0 0 0 0 0 0 0 h 0.280334 v 0 0 0 0 0 0 0 0 0 0 0 0 0 h 0.280334 v 0 0 0 0 0 0 0 0 0 0 0 0 0 h 0.280334 v 0 0 0 0 0 0 0 0 0 0 0 0 0 h 0.280332 v 0 0 0 0 0 0 0 0 0 0 0 0 0 h 0.280334 v 0 0 0 0 0 0 0 0 0 0 0 0 0 h 0.280334 v 0 0 0 0 0 0 0 0 0 0 0 0 0 h 0.280334 v 0 0 0 0 0 0 0 0 0 0 0 0 0 h 0.280331 v 0 0 0 0 0 0 0 0 0 0 0 0 0 h 0.280334 v 0 0 0 0 0 0 0 0 0 0 0 0 0 h 0.280334 v 0 0 0 0 0 0 0 0 0 0 0 0 0 h 0.280334 v 0 0 0 0 0 0 0 0 0 0 0 0 0 h 0.280331 v 0 0 0 0 0 0 0 0 0 0 0 0 0 h 0.280334 v 0 0 0 0 0 0 0 0 0 0 0 0 0 0 h 0.280334 v 0 0 0 0 0 0 0 0 0 0 0 0 0 h 0.280334 v 0 0 0 0 0 0 0 0 0 0 0 0 0 h 0.280331 v 0 0 0 0 0 0 0 0 0 0 0 0 0 h 0.280334 v 0 0 0 0 0 0 0 0 0 0 0 0 0 h 0.280334 v 0 0 0 0 0 0 0 0 0 0 0 0 0 h 0.280334 v 0 0 0 0 0 0 0 0 0 0 0 0 0 h 0.280332 v 0 0 0 0 0 0 0 0 0 0 0 0 0 h 0.280334 v 0 0 0 0 0 0 0 0 0 0 0 0 0 h 0.280334 v 0 0 0 0 0 0 0 0 0 0 0 0 0 h 0.280334 v 0 0 0 0 0 0 0 0 0 0 0 0 0 h 0.280334 v 0 0 0 0 0 0 0 0 0 0 0 0 0 h 0.280331 v 0 0 0 0 0 0 0 0 0 0 0 0 0 h 0.280334 v 0 0 0 0 0 0 0 0 0 0 0 0 0 h 0.280334 v 0 0 0 0 0 0 0 0 0 0 0 0 0 h 0.280334 v 0 0 0 0 0 0 0 0 0 0 0 0 0 h 0.280331 v 0 0 0 0 0 0 0 0 0 0 -8.12967 0 0 l 0.280334,-7.84933 v 0 0 0 -8.12967 0 0 0 0 0 0 0 0 0 h 0.280334 v 0 0 0 0 0 0 0 0 0 0 0 0 0 h 0.280334 v 0 0 0 0 0 0 0 0 0 -7.84933 0 0 0 h 0.280331 v 0 0 0 0 0 0 0 0 0 0 0 0 0 h 0.280334 v 0 0 0 0 0 0 0 0 0 0 0 0 0 h 0.280334 v 0 0 0 0 0 0 0 0 0 0 0 0 0 h 0.280334 v 0 -8.12967 0 0 0 0 0 -7.84933 0 0 0 -8.12967 8.12967 h 0.280332 v 0 7.84933 0 0 0 8.12967 0 0 0 0 0 0 0 h 0.280334 v 0 0 0 0 0 0 0 -8.12967 0 0 0 -7.84933 0 0 h 0.280334 v 0 0 0 0 0 0 0 0 0 0 7.84933 0 0 h 0.280334 v 0 0 0 0 0 0 0 0 0 0 0 0 0 h 0.280331 v 0 0 0 0 0 0 0 0 0 0 0 0 0 h 0.280334 v 0 0 0 0 0 0 0 0 0 0 0 0 0 h 0.280334 v 0 0 8.12967 0 0 0 0 0 7.84933 0 0 0 8.12967 h 0.280334 v 0 0 0 0 0 0 0 0 0 0 0 0 0 h 0.280331 v 0 0 0 0 0 0 0 0 0 7.84933 0 0 8.12967 h 0.280334 v 0 0 0 0 0 0 0 0 0 0 0 0 0 h 0.280334 v 0 0 0 0 0 0 0 0 0 0 0 0 0 h 0.280334 v 0 0 0 0 0 0 0 0 0 0 0 0 0 h 0.280332 v 0 0 0 0 0 0 0 0 0 0 0 0 0 h 0.280334 v 0 0 0 0 0 0 0 0 0 0 0 0 0 h 0.280334 v 0 0 0 0 0 0 0 0 0 0 0 0 0 h 0.280334 v 0 0 0 0 0 0 0 0 0 0 0 0 0 h 0.280331 v 0 0 0 0 0 0 0 0 0 0 0 0 0 h 0.280334 v 0 0 0 0 0 0 0 0 0 0 0 0 0 h 0.280334 v 0 0 0 0 0 0 0 0 0 0 0 0 0 h 0.280334 v 0 0 0 0 0 0 0 0 0 0 0 0 0 h 0.280331 v 0 0 0 0 0 0 0 0 0 0 0 0 0 h 0.280334 v 0 0 0 0 0 0 0 0 0 0 0 0 0 h 0.280334 v 0 0 0 0 0 0 0 0 0 0 0 -8.12967 0 h 0.280334 v 0 0 0 0 0 0 0 0 0 0 0 0 0 h 0.280331 v 0 0 0 0 0 0 0 0 0 0 0 0 0 h 0.280334 v 0 0 0 0 0 0 0 0 0 0 0 0 0 h 0.280334 v 0 0 0 0 0 0 0 0 0 0 0 0 0 0 h 0.280334 v 0 0 0 0 0 0 0 0 0 0 0 0 0 h 0.280334 v 0 0 0 0 0 0 0 0 0 0 0 0 0 h 0.280332 v 0 0 0 0 0 0 0 0 0 0 0 0 8.12967 h 0.280334 v 0 0 0 0 0 0 0 0 0 0 0 0 0 h 0.280334 v 0 0 0 0 0 0 0 0 0 0 0 0 0 h 0.280334 v 0 0 0 0 0 0 0 0 0 0 0 0 0 h 0.280331 v 0 0 0 0 0 0 0 0 0 0 0 0 0 h 0.280334 v 0 0 0 0 0 0 0 0 0 0 0 0 0 h 0.280334 v 0 0 0 0 0 0 0 0 0 0 0 0 0 h 0.280334 v 0 0 0 0 0 0 0 0 0 0 0 0 0 h 0.280331 v 0 0 0 0 0 0 0 0 0 0 0 0 0 h 0.280334 v 0 0 0 0 0 0 0 0 0 0 0 0 0 h 0.280334 v 0 0 0 0 0 0 0 0 0 0 0 0 0 h 0.280334 v 0 0 0 0 0 0 0 0 0 0 0 0 0 h 0.280331 v 0 0 0 0 0 0 0 0 0 0 0 0 0 h 0.280334 v 0 0 0 0 0 0 0 0 0 0 0 0 0 h 0.280334 v 0 0 0 0 0 0 0 0 0 0 0 0 0 h 0.280334 v 0 0 0 0 0 0 0 0 0 0 0 0 0 h 0.280332 v 0 0 0 0 0 0 0 0 0 0 0 0 0 h 0.280334 v 0 0 0 0 0 0 0 0 0 0 0 0 0 h 0.280334 v 0 0 0 0 0 0 0 0 0 0 0 0 0 h 0.280334 v 0 0 0 0 0 0 0 0 0 0 0 0 0 h 0.280331 v 0 0 0 0 0 0 0 0 0 0 0 0 0 h 0.280334 v 0 0 0 0 0 0 0 0 0 0 0 0 0 h 0.280334 v 0 0 0 0 0 0 0 0 0 0 0 0 0 0 h 0.280334 v 0 0 0 0 0 0 0 0 0 0 0 0 0 h 0.280331 v 0 0 0 0 0 0 0 0 0 0 0 0 0 h 0.280334 v 0 0 0 0 0 0 0 0 0 0 0 0 0 h 0.280334 v 0 -8.12967 0 0 0 0 0 0 0 0 0 0 0 h 0.280334 v 0 0 0 0 0 0 0 -7.84933 0 0 0 0 0 h 0.280332 v 0 0 0 0 0 0 0 0 0 0 0 0 0 h 0.280334 v 0 0 0 0 0 0 0 0 0 0 0 0 0 h 0.280333 v 0 0 0 0 0 0 0 0 0 0 0 0 0 h 0.280334 v 0 0 0 0 0 0 0 0 0 0 0 0 0 h 0.280332 v 0 0 0 0 0 0 0 0 0 0 0 0 0 h 0.280334 v 0 0 0 7.84933 0 0 0 0 0 0 0 0 0 h 0.280334 v 0 0 0 0 0 0 0 0 0 8.12967 0 0 0 h 0.280334 v 0 0 0 0 0 0 0 0 0 0 0 0 0 h 0.280331 v 0 0 0 0 0 0 0 0 0 0 0 0 0 h 0.280334 v 0 0 0 0 0 0 0 0 0 0 0 0 0 h 0.280334 v 0 0 0 0 0 0 0 0 0 0 0 0 0 h 0.280334 v 0 0 0 0 0 0 0 0 0 0 0 0 0 h 0.280331 v 0 0 0 0 0 0 0 0 0 0 0 0 0 h 0.280334 v 0 0 0 0 0 0 0 0 0 0 0 0 0 h 0.280334 v 0 0 0 0 0 0 0 0 0 0 0 0 0 h 0.280334 v 0 0 0 0 0 0 0 0 0 0 0 0 0 h 0.280334 v 0 0 0 0 0 0 0 0 0 0 0 0 0 h 0.280332 v 0 0 0 0 -8.12967 0 0 0 -7.84933 0 0 0 0 h 0.280334 v 0 0 0 0 0 0 0 0 0 0 0 0 0 h 0.280334 v 0 0 0 0 0 0 0 0 0 0 0 0 0 0 h 0.280334 v 0 0 0 0 0 0 0 0 0 0 0 0 0 h 0.280331 v 0 0 0 0 0 0 0 0 0 0 0 0 0 h 0.280334 v 0 0 0 0 0 0 0 0 0 0 0 0 0 h 0.280335 v 0 0 0 0 0 0 0 0 0 0 0 0 0 h 0.28033 v 0 0 0 0 0 7.84933 0 0 0 8.12967 0 0 0 h 0.28033 v 0 0 0 0 0 0 0 0 0 0 0 0 0 h 0.28034 v 0 0 0 0 0 0 0 0 0 0 0 0 0 h 0.28033 v 0 0 0 0 0 0 0 0 0 0 0 0 0 h 0.28034 v 0 0 0 0 0 0 0 0 0 0 0 0 0 h 0.28033 v 0 0 0 0 0 0 0 0 0 0 0 0 0 h 0.28033 v 0 0 0 0 0 0 0 0 0 0 0 0 0 h 0.28034 v 0 0 0 0 0 0 0 0 0 0 0 0 0 h 0.28033 v 0 0 0 0 0 0 0 0 0 0 0 0 0 h 0.28034 v 0 0 0 0 0 0 0 0 0 0 0 0 0 h 0.28033 v 0 0 0 0 0 0 0 0 0 0 0 0 0 h 0.28033 v 0 0 0 0 0 0 0 0 0 0 -8.12967 0 0 h 0.28034 v 0 0 0 0 0 0 0 0 0 0 0 0 0 h 0.28033 v 0 0 0 0 0 0 0 0 0 0 0 0 0 h 0.28033 v 0 0 0 0 0 0 0 0 0 0 0 0 0 h 0.28034 v 0 0 0 0 0 0 0 0 0 0 0 0 0 h 0.28033 v 0 0 0 0 0 0 0 0 0 0 0 0 0 h 0.28033 v 0 0 0 0 0 0 0 0 0 0 0 0 0 h 0.28034 v 0 0 0 0 0 0 0 0 0 0 0 0 8.12967 h 0.28033 v 0 0 0 0 0 0 0 0 0 0 0 0 0 h 0.28033 v 0 0 0 0 0 0 0 0 0 0 0 -8.12967 0 0 h 0.28034 v 0 -7.84933 0 0 0 0 0 0 0 0 0 0 0 h 0.28033 v 0 0 0 0 0 0 0 0 0 0 0 0 0 h 0.28033 v 0 0 0 0 0 0 0 0 0 0 0 0 0 h 0.28034 v 0 0 0 0 0 0 0 0 0 0 0 0 0 h 0.28033 v 0 0 0 0 0 0 0 0 0 -8.12967 0 0 0 h 0.28033 v 0 0 0 0 0 0 0 0 0 0 0 0 0 h 0.28034 v 0 0 0 0 0 0 0 0 0 0 0 0 8.12967 h 0.28033 v 0 0 0 7.84933 0 0 0 0 0 0 0 0 0 h 0.28033 v 0 0 0 0 0 0 0 0 0 0 0 0 0 h 0.28034 v 0 0 0 0 0 0 0 0 0 0 0 0 0 h 0.28033 v 0 0 0 0 0 0 0 0 0 0 0 0 0 h 0.28033 v 0 0 0 0 0 0 0 0 0 0 0 8.12967 0 h 0.28034 v 0 0 0 0 0 0 0 0 0 0 0 0 0 h 0.28033 v 0 0 0 0 0 0 0 0 0 0 0 0 0 h 0.28033 v 0 0 0 0 0 0 0 0 0 0 0 0 0 h 0.28034 v 0 0 0 0 0 0 0 0 0 0 0 0 0 h 0.28033 v 0 0 0 0 0 0 0 0 0 0 0 0 0 h 0.28033 v 0 0 0 0 0 0 0 0 0 0 0 0 0 h 0.28034 v 0 0 0 0 0 0 0 0 0 0 0 0 0 h 0.28033 v 0 0 0 0 0 0 0 0 0 0 0 0 0 h 0.28033 v 0 0 0 0 0 0 0 0 0 0 0 0 0 h 0.28034 v 0 0 0 0 0 0 0 0 0 0 0 0 0 h 0.28033 v 0 0 0 0 0 0 0 0 0 0 0 0 0 h 0.28033 v 0 0 0 0 0 0 0 0 0 0 0 0 0 h 0.28034 v 0 0 0 0 0 0 0 0 0 0 0 0 0 0 h 0.28033 v 0 0 0 0 0 0 0 0 0 0 0 0 0 h 0.28033 v 0 0 0 0 0 0 0 0 0 0 0 0 0 h 0.28034 v 0 0 0 0 0 0 0 0 0 0 0 0 0 h 0.28033 v 0 0 0 0 0 0 0 0 0 0 0 0 0 h 0.28033 v 0 0 0 0 0 0 0 0 0 0 0 0 0 h 0.28034 v 0 0 0 0 0 0 0 0 0 0 0 0 0 h 0.28033 v 0 0 0 0 0 0 0 0 0 0 0 0 0 h 0.28033 v 0 0 0 0 0 0 0 0 0 0 0 0 0 h 0.28034 v 0 0 0 0 0 0 0 0 0 0 0 0 0 h 0.28033 v 0 0 0 0 0 0 0 0 0 0 0 0 0 h 0.28033 v 0 0 0 0 0 0 0 0 0 0 0 0 0 h 0.28034 v 0 0 0 0 0 0 0 0 0 0 0 0 0 h 0.28033 v 0 0 0 0 0 0 0 0 0 0 0 0 0 h 0.28033 v 0 0 0 0 0 0 0 0 0 0 0 0 0 h 0.28034 v 0 0 0 0 0 0 0 0 0 0 0 0 0 h 0.28033 v 0 0 0 0 0 0 0 0 0 0 0 0 0 h 0.28033 v 0 0 0 0 0 0 0 0 0 0 0 0 0 h 0.28034 v 0 0 0 0 0 0 0 0 0 0 0 0 0 h 0.28033 v 0 0 0 0 0 0 0 0 0 0 0 0 0 h 0.28033 v 0 0 0 0 0 0 0 0 0 0 0 0 0 h 0.28034 v 0 0 0 0 0 0 0 0 0 0 0 0 0 h 0.28033 v 0 0 0 0 0 0 0 0 0 0 0 0 0 h 0.28033 v 0 0 0 0 0 0 0 0 0 0 0 0 0 h 0.28034 v 0 0 0 0 0 0 0 0 0 0 0 0 0 h 0.28033 v 0 0 0 0 0 0 0 0 0 0 0 0 0 0 h 0.28033 v 0 0 0 0 0 0 0 0 0 0 0 0 0 h 0.28034 v 0 0 0 0 0 0 0 0 0 0 0 -8.12967 0 h 0.28033 v 0 0 0 0 0 0 0 0 0 0 0 0 0 h 0.28033 v 0 0 0 0 0 0 0 0 0 0 0 0 0 h 0.28034 v 0 0 0 0 0 0 0 0 0 0 0 0 0 h 0.28033 v 0 0 0 0 0 0 0 0 0 0 0 0 0 h 0.28033 v 0 0 0 0 0 0 0 0 0 0 0 0 0 h 0.28034 v 0 0 0 0 0 0 0 0 0 0 0 0 0 h 0.28033 v 0 0 0 0 0 0 0 0 0 0 0 0 0 l 0.28033,8.12967 v 0 0 0 0 0 0 0 0 0 0 0 0 0 h 0.28034 v 0 0 0 0 0 0 0 0 0 0 0 0 0 h 0.28033 v 0 0 0 0 0 0 0 0 0 0 0 0 0 h 0.28033 v 0 0 0 0 0 0 0 0 0 0 0 0 0 h 0.28034 v 0 0 0 0 0 0 0 0 0 0 0 0 0 h 0.28033 v 0 0 0 0 0 0 0 0 0 0 0 0 0 h 0.28033 v 0 0 0 0 0 0 0 0 0 0 0 0 0 h 0.28034 v 0 0 0 0 0 0 0 0 0 0 0 0 0 h 0.28033 v 0 0 0 0 0 0 0 0 0 0 0 0 0 h 0.28033 v 0 0 0 0 0 0 0 0 0 0 0 0 0 h 0.28034 v 0 0 0 0 0 0 0 0 0 0 0 0 0 h 0.28033 v 0 0 0 0 0 0 0 0 0 0 0 0 0 h 0.28033 v 0 0 0 0 0 0 0 0 0 0 0 0 0 h 0.28034 v 0 0 0 0 0 0 0 0 0 0 0 0 0 h 0.28033 v 0 0 0 0 0 0 0 0 0 0 0 0 0 h 0.28033 v 0 0 0 0 0 0 0 0 0 0 0 0 0 0 h 0.28034 v 0 0 0 0 0 0 0 0 0 0 0 0 0 h 0.28033 v -8.12967 0 0 0 0 0 0 0 0 0 0 0 0 h 0.28033 v 0 0 0 0 0 0 0 0 0 0 0 0 0 h 0.28034 v 0 0 0 0 0 0 0 0 0 0 0 0 0 h 0.28033 v 0 0 0 0 0 0 0 0 0 0 0 0 0 h 0.28033 v 0 0 0 0 0 0 0 0 0 0 0 0 0 h 0.28034 v 0 0 0 0 0 0 0 0 0 0 0 0 0 h 0.28033 v 0 0 0 0 0 0 0 0 0 0 0 0 0 h 0.28033 v 0 0 8.12967 0 0 0 0 0 0 0 0 0 0 h 0.28034 v 0 0 0 0 0 0 0 0 0 0 0 0 0 h 0.28033 v 0 0 0 0 0 0 0 0 0 0 0 0 0 h 0.28033 v 0 0 0 0 0 0 0 0 0 0 0 0 0 h 0.28034 v 0 0 0 0 0 0 0 0 0 0 0 0 0 h 0.28033 v 0 0 0 0 0 0 0 0 0 0 0 0 0 h 0.28033 v 0 0 0 0 0 0 0 0 0 0 0 0 0 h 0.28034 v 0 0 0 0 0 0 0 0 0 0 0 0 0 h 0.28033 v 0 0 0 0 0 0 0 0 0 0 0 0 0 h 0.28033 v 0 0 0 0 0 0 0 0 0 0 0 0 0 h 0.28034 v 0 0 0 0 0 0 0 -8.12967 0 0 0 0 0 h 0.28033 v 0 0 0 0 0 0 0 0 0 0 0 0 0 h 0.28033 v 0 0 0 0 0 0 0 0 0 0 0 0 0 h 0.28034 v 0 0 0 0 0 0 0 0 0 0 0 0 0 h 0.28033 v 0 0 0 0 0 0 0 0 0 0 0 0 0 h 0.28033 v 0 0 0 0 0 0 0 0 0 0 0 0 0 h 0.28034 v 0 0 0 0 0 0 0 0 0 0 0 0 0 0 h 0.28033 v 0 0 0 0 0 0 0 0 8.12967 0 0 0 0 h 0.28033 v 0 0 0 0 0 0 0 0 0 0 0 0 0 h 0.28034 v 0 0 0 0 0 0 0 0 0 0 0 0 0 h 0.28033 v 0 0 0 0 0 0 0 0 0 0 0 0 0 h 0.28033 v 0 0 0 0 0 0 0 0 0 0 0 0 0 h 0.28034 v 0 0 0 0 0 0 0 0 0 0 0 0 0 h 0.28033 v 0 0 0 0 0 0 0 0 0 0 0 0 0 h 0.28033 v 0 0 0 0 0 0 0 0 0 0 0 0 0 h 0.28034 v 0 0 0 0 0 0 0 0 0 0 0 0 0 h 0.28033 v 0 0 0 0 0 0 0 0 0 0 0 0 0 h 0.28033 v 0 0 0 0 0 0 0 0 0 0 0 0 0 h 0.28034 v 0 0 0 0 0 0 0 0 0 0 0 0 0 h 0.28033 v 0 0 0 0 0 0 0 0 0 0 0 0 0 h 0.28033 v 0 0 0 0 0 0 0 0 0 0 0 0 0 h 0.28034 v 0 0 0 0 0 0 0 0 0 0 0 0 0 h 0.28033 v 0 0 0 0 0 0 0 0 0 0 0 0 0 h 0.28033 v 0 0 0 0 0 0 0 0 0 0 0 0 0 h 0.28034 v 0 0 0 0 0 0 0 0 0 0 0 0 0 h 0.28033 v 0 0 0 0 0 0 0 0 0 0 0 0 0 h 0.28033 v 0 0 0 0 0 0 0 0 0 0 0 0 0 h 0.28034 v 0 0 0 0 0 0 0 0 0 0 0 0 0 h 0.28033 v 0 0 0 0 0 0 0 0 0 0 0 0 0 h 0.28033 v 0 0 0 0 0 0 0 0 0 0 0 0 0 h 0.28034 v 0 0 0 0 0 0 0 0 0 0 0 0 0 h 0.28033 v 0 0 0 0 0 0 0 0 0 0 0 0 0 0 h 0.28033 v 0 0 0 0 0 0 0 0 0 0 0 0 0 h 0.28034 v 0 0 0 0 0 0 0 0 0 0 0 0 0 h 0.28033 v 0 0 0 0 0 0 0 0 0 0 0 0 0 h 0.28033 v 0 0 0 0 0 0 0 0 0 0 0 0 0 h 0.28034 v 0 0 0 0 0 0 0 0 0 0 0 0 0 h 0.28033 v 0 0 0 0 0 0 0 0 0 0 0 0 0 h 0.28033 v 0 0 0 0 0 0 0 0 0 0 0 0 0 h 0.28034 v 0 0 0 0 0 0 -8.12967 0 0 0 0 0 0 h 0.28033 v 0 0 0 0 0 0 0 0 0 0 0 0 0 h 0.28033 v 0 0 0 0 0 0 0 0 0 0 0 0 0 h 0.28034 v 0 0 0 0 0 0 0 0 0 0 0 0 0 h 0.28033 v 0 0 0 0 0 0 0 0 0 0 0 0 0 h 0.28033 v 0 0 0 0 0 0 0 0 0 0 0 0 0 h 0.28034 v 0 0 0 0 0 0 0 0 0 0 0 0 0 h 0.28033 v 0 0 0 0 0 0 0 0 8.12967 0 0 0 0 h 0.28033 v 0 0 0 0 0 0 0 0 0 0 0 0 0 h 0.28034 v 0 0 0 0 0 0 0 0 0 0 0 0 0 h 0.28033 v 0 0 0 0 0 0 0 0 0 0 0 0 0 h 0.28033 v 0 0 0 0 0 0 0 0 0 0 0 0 0 h 0.28034 v 0 0 0 0 0 0 0 0 0 0 0 0 0 h 0.28033 v 0 0 0 0 0 0 0 0 0 0 0 0 0 h 0.28033 v 0 0 0 0 0 0 0 0 0 0 0 0 0 h 0.28034 v 0 0 0 0 0 0 0 0 0 0 0 0 0 h 0.28033 v 0 0 0 0 0 0 0 0 0 0 0 0 0 h 0.28033 v 0 0 0 0 0 0 0 0 0 0 0 0 0 0 h 0.28034 v 0 0 0 0 0 0 0 0 0 0 0 0 0 h 0.28033 v 0 0 0 0 0 0 0 0 0 0 0 0 0 h 0.28033 v 0 0 0 0 0 0 0 0 0 0 0 0 0 h 0.28034 v 0 0 0 0 0 0 0 0 0 0 0 0 0 h 0.28033 v 0 0 0 0 0 0 0 0 0 0 0 0 0 h 0.28033 v 0 0 0 0 0 0 0 0 0 0 0 0 0 h 0.28034 v 0 0 0 0 0 0 0 0 0 0 0 0 0 h 0.28033 v 0 0 0 0 0 0 0 0 0 0 0 0 0 h 0.28033 v 0 0 0 0 0 0 0 0 0 0 0 0 0 h 0.28034 v 0 0 0 0 0 0 0 0 0 0 0 0 0 h 0.28033 v 0 0 0 0 0 0 0 0 0 0 0 0 0 h 0.28033 v 0 0 0 0 0 0 0 0 0 0 0 0 0 h 0.28034 v 0 0 0 0 0 0 0 0 0 0 0 0 0 h 0.28033 v 0 0 0 0 0 0 0 0 0 0 0 0 0 h 0.28033 v 0 0 0 0 0 0 0 0 0 0 0 0 0 h 0.28034 v 0 0 0 0 0 0 0 0 0 0 0 0 0 h 0.28033 v 0 0 0 0 0 0 0 0 0 0 0 0 0 h 0.28033 v 0 0 0 0 0 0 0 0 0 0 0 0 0 h 0.28034 v 0 0 0 0 0 0 0 0 0 0 0 0 0 h 0.28033 v 0 0 0 0 0 0 0 0 0 0 0 0 0 h 0.28033 v 0 0 0 0 0 0 0 0 0 0 0 0 0 h 0.28034 v 0 0 0 0 0 0 0 0 0 0 0 0 0 h 0.28033 v 0 0 0 0 0 0 0 0 0 0 0 0 0 h 0.28033 v 0 0 0 0 0 0 0 0 0 0 0 0 0 h 0.28034 v 0 0 0 0 0 0 0 0 0 0 0 0 0 0 h 0.28033 v 0 0 0 0 0 0 0 0 0 0 0 0 0 h 0.28033 v 0 0 0 0 0 0 0 0 0 0 0 0 0 h 0.28034 v 0 0 0 0 0 0 0 0 0 0 0 0 0 h 0.28033 v 0 0 0 0 0 0 0 0 0 0 0 0 0 h 0.28033 v 0 0 0 0 0 0 0 0 0 0 0 0 0 h 0.28034 v 0 0 0 0 0 0 0 0 0 0 0 0 0 h 0.28033 v 0 0 0 0 0 0 0 0 0 0 0 0 0 h 0.28033 v 0 0 0 0 0 0 0 0 0 0 0 0 0 h 0.28034 v 0 0 0 0 0 0 0 0 0 0 0 0 0 h 0.28033 v 0 0 0 0 0 0 0 0 0 0 0 0 0 h 0.28033 v 0 0 0 0 0 0 0 0 0 0 0 0 0 h 0.28034 v 0 0 0 0 0 0 0 0 0 0 0 0 0 h 0.28033 v 0 0 0 0 0 0 0 0 0 0 0 0 0 h 0.28033 v 0 0 0 0 0 0 0 0 0 0 0 0 0 h 0.28034 v 0 0 0 0 0 0 0 0 0 0 0 0 0 h 0.28033 v 0 0 0 0 0 0 0 0 0 0 0 0 0 h 0.28033 v 0 0 0 0 0 0 0 0 0 0 0 0 0 h 0.28034 v 0 0 0 0 0 0 0 0 0 0 0 0 0 h 0.28033 v 0 0 0 0 0 0 0 0 0 0 0 0 0 h 0.28033 v 0 0 0 0 0 0 0 0 0 0 0 0 0 h 0.28034 v 0 0 0 0 0 0 0 0 0 0 0 0 0 h 0.28033 v 0 0 0 0 0 0 0 0 0 0 0 0 0 h 0.28033 v 0 0 0 0 0 0 0 0 0 0 0 0 0 h 0.28034 v 0 0 0 0 0 0 0 0 0 0 0 0 0 h 0.28033 v 0 0 0 0 0 0 0"
       id="path38" />
    <text
       xml:space="preserve"
       style="font-style:normal;font-variant:normal;font-weight:400;font-size:3.91914px;line-height:125%;font-family:Arial;text-align:start;letter-spacing:0px;word-spacing:0px;text-anchor:start;fill:#000000;fill-opacity:1;stroke:none;stroke-width:0.264583"
       transform="rotate(-90)"
       x="-172.54112"
       y="5.7489085"
       id="text39"><tspan
         sodipodi:role="line"
         x="-172.54112"
         y="5.7489085"
         id="tspan39"
         style="stroke-width:0.264583"><tspan
           dx="0"
           dy="0"
           style="font-style:normal;font-variant:normal;font-weight:400;font-size:3.91914px;font-family:Arial;fill:#000000;stroke-width:0.264583"
           id="tspan38">Breakpoints per 100 nt window</tspan></tspan></text>
  </g>
</svg>
