<?xml version="1.0" encoding="UTF-8" standalone="no"?>
<!-- Created with Inkscape (http://www.inkscape.org/) -->

<svg
   width="210mm"
   height="297mm"
   viewBox="0 0 210 297"
   version="1.1"
   id="svg1"
   inkscape:version="1.3.2 (091e20e, 2023-11-25, custom)"
   sodipodi:docname="SAT2_window200.svg"
   xmlns:inkscape="http://www.inkscape.org/namespaces/inkscape"
   xmlns:sodipodi="http://sodipodi.sourceforge.net/DTD/sodipodi-0.dtd"
   xmlns="http://www.w3.org/2000/svg"
   xmlns:svg="http://www.w3.org/2000/svg">
  <sodipodi:namedview
     id="namedview1"
     pagecolor="#ffffff"
     bordercolor="#999999"
     borderopacity="1"
     inkscape:showpageshadow="2"
     inkscape:pageopacity="0"
     inkscape:pagecheckerboard="0"
     inkscape:deskcolor="#d1d1d1"
     inkscape:document-units="mm"
     inkscape:zoom="0.73139029"
     inkscape:cx="396.50513"
     inkscape:cy="561.25984"
     inkscape:window-width="1920"
     inkscape:window-height="1017"
     inkscape:window-x="-8"
     inkscape:window-y="-8"
     inkscape:window-maximized="1"
     inkscape:current-layer="layer1" />
  <defs
     id="defs1">
    <pattern
       id="EMFhbasepattern"
       patternUnits="userSpaceOnUse"
       width="6"
       height="6"
       x="0"
       y="0" />
  </defs>
  <g
     inkscape:label="Слой 1"
     inkscape:groupmode="layer"
     id="layer1">
    <path
       style="fill:none;stroke:#000000;stroke-width:0.280333px;stroke-linecap:round;stroke-linejoin:round;stroke-miterlimit:4;stroke-dasharray:none;stroke-opacity:1"
       d="m 23.836233,98.54859 v 2.80333 H 25.2379 23.836233 v 14.01667 H 25.2379 23.836233 v 14.01667 H 25.2379 23.836233 v 14.01667 H 25.2379 23.836233 v 14.01666 H 25.2379 23.836233 v 2.80334 h 2.803333 v -1.40167 1.40167 h 35.041666 v -1.40167 1.40167 H 96.7229 v -1.40167 1.40167 h 35.04166 v -1.40167 1.40167 h 35.04168 v -1.40167 1.40167 h 2.80333"
       id="path1" />
    <text
       xml:space="preserve"
       style="font-style:normal;font-variant:normal;font-weight:400;font-size:3.91914px;line-height:125%;font-family:Arial;text-align:start;letter-spacing:0px;word-spacing:0px;text-anchor:start;fill:#000000;fill-opacity:1;stroke:none;stroke-width:0.264583"
       x="26.078899"
       y="165.17148"
       id="text2"><tspan
         sodipodi:role="line"
         x="26.078899"
         y="165.17148"
         id="tspan2"
         style="stroke-width:0.264583"><tspan
           dx="0"
           dy="0"
           style="font-style:normal;font-variant:normal;font-weight:400;font-size:3.91914px;font-family:Arial;fill:#000000;stroke-width:0.264583"
           id="tspan1">1</tspan></tspan></text>
    <text
       xml:space="preserve"
       style="font-style:normal;font-variant:normal;font-weight:400;font-size:3.91914px;line-height:125%;font-family:Arial;text-align:start;letter-spacing:0px;word-spacing:0px;text-anchor:start;fill:#000000;fill-opacity:1;stroke:none;stroke-width:0.264583"
       x="58.317234"
       y="165.17148"
       id="text4"><tspan
         sodipodi:role="line"
         x="58.317234"
         y="165.17148"
         id="tspan4"
         style="stroke-width:0.264583"><tspan
           dx="0"
           dy="0"
           style="font-style:normal;font-variant:normal;font-weight:400;font-size:3.91914px;font-family:Arial;fill:#000000;stroke-width:0.264583"
           id="tspan3">1752</tspan></tspan></text>
    <text
       xml:space="preserve"
       style="font-style:normal;font-variant:normal;font-weight:400;font-size:3.91914px;line-height:125%;font-family:Arial;text-align:start;letter-spacing:0px;word-spacing:0px;text-anchor:start;fill:#000000;fill-opacity:1;stroke:none;stroke-width:0.264583"
       x="93.358902"
       y="165.17148"
       id="text6"><tspan
         sodipodi:role="line"
         x="93.358902"
         y="165.17148"
         id="tspan6"
         style="stroke-width:0.264583"><tspan
           dx="0"
           dy="0"
           style="font-style:normal;font-variant:normal;font-weight:400;font-size:3.91914px;font-family:Arial;fill:#000000;stroke-width:0.264583"
           id="tspan5">3504</tspan></tspan></text>
    <text
       xml:space="preserve"
       style="font-style:normal;font-variant:normal;font-weight:400;font-size:3.91914px;line-height:125%;font-family:Arial;text-align:start;letter-spacing:0px;word-spacing:0px;text-anchor:start;fill:#000000;fill-opacity:1;stroke:none;stroke-width:0.264583"
       x="128.40057"
       y="165.17148"
       id="text8"><tspan
         sodipodi:role="line"
         x="128.40057"
         y="165.17148"
         id="tspan8"
         style="stroke-width:0.264583"><tspan
           dx="0"
           dy="0"
           style="font-style:normal;font-variant:normal;font-weight:400;font-size:3.91914px;font-family:Arial;fill:#000000;stroke-width:0.264583"
           id="tspan7">5257</tspan></tspan></text>
    <text
       xml:space="preserve"
       style="font-style:normal;font-variant:normal;font-weight:400;font-size:3.91914px;line-height:125%;font-family:Arial;text-align:start;letter-spacing:0px;word-spacing:0px;text-anchor:start;fill:#000000;fill-opacity:1;stroke:none;stroke-width:0.264583"
       x="163.44225"
       y="165.17148"
       id="text10"><tspan
         sodipodi:role="line"
         x="163.44225"
         y="165.17148"
         id="tspan10"
         style="stroke-width:0.264583"><tspan
           dx="0"
           dy="0"
           style="font-style:normal;font-variant:normal;font-weight:400;font-size:3.91914px;font-family:Arial;fill:#000000;stroke-width:0.264583"
           id="tspan9">7008</tspan></tspan></text>
    <text
       xml:space="preserve"
       style="font-style:normal;font-variant:normal;font-weight:400;font-size:3.91914px;line-height:125%;font-family:Arial;text-align:start;letter-spacing:0px;word-spacing:0px;text-anchor:start;fill:#000000;fill-opacity:1;stroke:none;stroke-width:0.264583"
       x="50.187565"
       y="170.77815"
       id="text12"><tspan
         sodipodi:role="line"
         x="50.187565"
         y="170.77815"
         id="tspan12"
         style="stroke-width:0.264583"><tspan
           dx="0"
           dy="0"
           style="font-style:normal;font-variant:normal;font-weight:400;font-size:3.91914px;font-family:Arial;fill:#000000;stroke-width:0.264583"
           id="tspan11">Nucleotide position in relation to JF749864/Unknown/Unknown/2003/SAT2</tspan></tspan></text>
    <text
       xml:space="preserve"
       style="font-style:normal;font-variant:normal;font-weight:400;font-size:3.91914px;line-height:357.646%;font-family:Arial;text-align:start;letter-spacing:0px;word-spacing:0px;text-anchor:start;fill:#000000;fill-opacity:1;stroke:none;stroke-width:0.264583"
       x="12.622898"
       y="103.21782"
       id="text22"><tspan
         sodipodi:role="line"
         x="12.622898"
         y="103.21782"
         id="tspan14"
         style="stroke-width:0.264583"><tspan
           dx="0"
           dy="0"
           style="font-style:normal;font-variant:normal;font-weight:400;font-size:3.91914px;font-family:Arial;fill:#000000;stroke-width:0.264583"
           id="tspan13">6.00000</tspan></tspan><tspan
         sodipodi:role="line"
         x="12.622898"
         y="117.23447"
         id="tspan16"
         style="stroke-width:0.264583"><tspan
           dx="0"
           dy="0"
           style="font-style:normal;font-variant:normal;font-weight:400;font-size:3.91914px;font-family:Arial;fill:#000000;stroke-width:0.264583"
           id="tspan15">4,5.000</tspan></tspan><tspan
         sodipodi:role="line"
         x="12.622898"
         y="131.25111"
         id="tspan18"
         style="stroke-width:0.264583"><tspan
           dx="0"
           dy="0"
           style="font-style:normal;font-variant:normal;font-weight:400;font-size:3.91914px;font-family:Arial;fill:#000000;stroke-width:0.264583"
           id="tspan17">3.00000</tspan></tspan><tspan
         sodipodi:role="line"
         x="12.622898"
         y="145.26776"
         id="tspan20"
         style="stroke-width:0.264583"><tspan
           dx="0"
           dy="0"
           style="font-style:normal;font-variant:normal;font-weight:400;font-size:3.91914px;font-family:Arial;fill:#000000;stroke-width:0.264583"
           id="tspan19">1,5.000</tspan></tspan><tspan
         sodipodi:role="line"
         x="12.622898"
         y="159.28441"
         id="tspan22"
         style="stroke-width:0.264583"><tspan
           dx="0"
           dy="0"
           style="font-style:normal;font-variant:normal;font-weight:400;font-size:3.91914px;font-family:Arial;fill:#000000;stroke-width:0.264583"
           id="tspan21">0.00000</tspan></tspan></text>
    <path
       style="fill:none;stroke:#000000;stroke-width:0.280333px;stroke-linecap:round;stroke-linejoin:round;stroke-miterlimit:4;stroke-dasharray:none;stroke-opacity:1"
       d="m 31.1249,95.745257 v 1.401667 m 5.326332,-1.401667 v 1.401667 m 0,-1.401667 v 1.401667 m 2.523001,-1.401667 v 1.401667 m 0.280334,-1.401667 v 1.401667 m 0.560665,-1.401667 v 1.401667 m 1.682001,-1.401667 v 1.401667 m 7.008334,-1.401667 v 1.401667 m 15.978999,-1.401667 v 1.401667 M 78.2209,95.745257 v 1.401667 m 3.363999,-1.401667 v 1.401667 m 0,-1.401667 v 1.401667 m 0.280334,-1.401667 v 1.401667 m 3.083666,-1.401667 v 1.401667 m 2.242667,-1.401667 v 1.401667 M 87.4719,95.745257 v 1.401667 m 3.924668,-1.401667 v 1.401667 m 4.204999,-1.401667 v 1.401667 m 2.523,-1.401667 v 1.401667 m 4.485333,-1.401667 v 1.401667 m 6.44766,-1.401667 v 1.401667 m 1.12134,-1.401667 v 1.401667 m 0.56066,-1.401667 v 1.401667 m 0.841,-1.401667 v 1.401667 m 0.841,-1.401667 v 1.401667 m 17.10034,-1.401667 v 1.401667 m 0.56066,-1.401667 v 1.401667 m 1.682,-1.401667 v 1.401667 m 12.33467,-1.401667 v 1.401667 m 5.046,-1.401667 v 1.401667"
       id="path22" />
    <path
       style="fill:none;stroke:#c6c6c6;stroke-width:0.280333px;stroke-linecap:round;stroke-linejoin:round;stroke-miterlimit:4;stroke-dasharray:none;stroke-opacity:1"
       d="m 173.81457,102.75359 h 2.80334"
       id="path23" />
    <text
       xml:space="preserve"
       style="font-style:normal;font-variant:normal;font-weight:400;font-size:3.91914px;line-height:125%;font-family:Arial;text-align:start;letter-spacing:0px;word-spacing:0px;text-anchor:start;fill:#000000;fill-opacity:1;stroke:none;stroke-width:0.264583"
       x="178.01956"
       y="104.05882"
       id="text24"><tspan
         sodipodi:role="line"
         x="178.01956"
         y="104.05882"
         id="tspan24"
         style="stroke-width:0.264583"><tspan
           dx="0"
           dy="0"
           style="font-style:normal;font-variant:normal;font-weight:400;font-size:3.91914px;font-family:Arial;fill:#000000;stroke-width:0.264583"
           id="tspan23">Breakpoint number</tspan></tspan></text>
    <path
       style="fill:none;stroke:#808080;stroke-width:0.280333px;stroke-linecap:round;stroke-linejoin:round;stroke-miterlimit:4;stroke-dasharray:none;stroke-opacity:1"
       d="m 173.81457,106.95859 h 2.80334"
       id="path24" />
    <text
       xml:space="preserve"
       style="font-style:normal;font-variant:normal;font-weight:400;font-size:3.91914px;line-height:125%;font-family:Arial;text-align:start;letter-spacing:0px;word-spacing:0px;text-anchor:start;fill:#000000;fill-opacity:1;stroke:none;stroke-width:0.264583"
       x="178.01956"
       y="108.26382"
       id="text26"><tspan
         sodipodi:role="line"
         x="178.01956"
         y="108.26382"
         id="tspan26"
         style="stroke-width:0.264583"><tspan
           dx="0"
           dy="0"
           style="font-style:normal;font-variant:normal;font-weight:400;font-size:3.91914px;font-family:Arial;fill:#000000;stroke-width:0.264583"
           id="tspan25">Local 95% confidence interval</tspan></tspan></text>
    <path
       style="fill:none;stroke:#000000;stroke-width:0.280333px;stroke-linecap:round;stroke-linejoin:round;stroke-miterlimit:4;stroke-dasharray:none;stroke-opacity:1"
       d="m 173.81457,111.16359 h 2.80334"
       id="path26" />
    <text
       xml:space="preserve"
       style="font-style:normal;font-variant:normal;font-weight:400;font-size:3.91914px;line-height:107.294%;font-family:Arial;text-align:start;letter-spacing:0px;word-spacing:0px;text-anchor:start;fill:#000000;fill-opacity:1;stroke:none;stroke-width:0.264583"
       x="178.01956"
       y="112.46882"
       id="text30"><tspan
         sodipodi:role="line"
         x="178.01956"
         y="112.46882"
         id="tspan28"
         style="stroke-width:0.264583"><tspan
           dx="0"
           dy="0"
           style="font-style:normal;font-variant:normal;font-weight:400;font-size:3.91914px;font-family:Arial;fill:#000000;stroke-width:0.264583"
           id="tspan27">Local 99% confidence interval</tspan></tspan><tspan
         sodipodi:role="line"
         x="178.01956"
         y="116.67382"
         id="tspan30"
         style="stroke-width:0.264583"><tspan
           dx="0"
           dy="0"
           style="font-style:normal;font-variant:normal;font-weight:400;font-size:3.91914px;font-family:Arial;fill:#000000;stroke-width:0.264583"
           id="tspan29">Global 95% confidence limit</tspan></tspan></text>
    <path
       style="fill:none;stroke:#000000;stroke-width:0.280333px;stroke-linecap:round;stroke-linejoin:round;stroke-miterlimit:4;stroke-dasharray:0.79375, 0.264583, 0.264583, 0.264583, 0.264583, 0.264583;stroke-dashoffset:0;stroke-opacity:1"
       d="m 173.81457,115.36859 h 2.80334"
       id="path30" />
    <text
       xml:space="preserve"
       style="font-style:normal;font-variant:normal;font-weight:400;font-size:3.91914px;line-height:125%;font-family:Arial;text-align:start;letter-spacing:0px;word-spacing:0px;text-anchor:start;fill:#000000;fill-opacity:1;stroke:none;stroke-width:0.264583"
       x="178.01956"
       y="120.87881"
       id="text32"><tspan
         sodipodi:role="line"
         x="178.01956"
         y="120.87881"
         id="tspan32"
         style="stroke-width:0.264583"><tspan
           dx="0"
           dy="0"
           style="font-style:normal;font-variant:normal;font-weight:400;font-size:3.91914px;font-family:Arial;fill:#000000;stroke-width:0.264583"
           id="tspan31">Global 99% confidence limit</tspan></tspan></text>
    <path
       style="fill:none;stroke:#000000;stroke-width:0.280333px;stroke-linecap:round;stroke-linejoin:round;stroke-miterlimit:4;stroke-dasharray:0.264583, 0.264583;stroke-dashoffset:0;stroke-opacity:1"
       d="m 173.81457,119.57359 h 2.80334"
       id="path32" />
    <path
       style="fill:none;stroke:#000000;stroke-width:0.280333px;stroke-linecap:round;stroke-linejoin:round;stroke-miterlimit:4;stroke-dasharray:none;stroke-opacity:1"
       d="m 172.41291,99.950257 h 48.778 v 21.866003 h -48.778 V 99.950257"
       id="path33" />
    <path
       style="fill:none;stroke:#000000;stroke-width:0.280333px;stroke-linecap:round;stroke-linejoin:round;stroke-miterlimit:4;stroke-dasharray:0.264583, 0.264583;stroke-dashoffset:0;stroke-opacity:1"
       d="M 23.836233,101.35192 H 169.60957"
       id="path34" />
    <path
       style="fill:none;stroke:#000000;stroke-width:0.280333px;stroke-linecap:round;stroke-linejoin:round;stroke-miterlimit:4;stroke-dasharray:0.79375, 0.264583, 0.264583, 0.264583, 0.264583, 0.264583;stroke-dashoffset:0;stroke-opacity:1"
       d="M 23.836233,101.35192 H 169.60957"
       id="path35" />
    <path
       style="fill:#c6c6c6;fill-opacity:1;fill-rule:evenodd;stroke:#c6c6c6;stroke-width:0.280333px;stroke-linecap:round;stroke-linejoin:round;stroke-miterlimit:4;stroke-dasharray:none;stroke-opacity:1"
       d="m 26.9199,148.16759 h 0.280333 0.280333 0.280334 0.280333 0.280333 0.280334 0.280333 0.280333 v -9.53133 h 0.280334 0.280333 0.280333 0.280334 0.280333 0.280333 0.280334 v -9.251 h 0.280333 0.280333 0.280334 0.280333 0.280333 0.280334 0.280333 0.280333 0.280334 0.280334 0.280331 0.280334 0.280334 0.280334 0.280332 0.280334 0.280334 v 9.251 h 0.280334 v -9.251 h 0.280331 0.280334 0.280334 0.280334 0.280331 0.280334 0.280334 0.280334 0.280332 0.280334 0.280334 0.280333 0.280332 0.280334 0.280334 0.280334 0.280331 0.280334 0.280334 0.280334 0.280331 0.280334 0.280334 0.280334 0.280334 v -9.251 h 0.280332 v 9.251 h 0.280334 0.280334 v -9.251 h 0.280334 0.280331 0.280334 0.280334 0.280334 0.280331 0.280334 0.280334 0.280334 0.280331 0.280334 0.280334 0.280334 0.280332 0.280334 0.280334 0.280334 v 9.251 h 0.280331 0.280334 0.280334 v -9.251 9.251 h 0.280334 v -9.251 h 0.280331 v 9.251 h 0.280334 0.280334 0.280334 0.280332 v -9.251 h 0.280333 0.280334 0.280334 0.280332 0.280334 0.280334 0.280334 0.280331 v 9.251 h 0.280334 0.280334 v -9.251 9.251 -9.251 h 0.280334 0.280334 0.280331 0.280334 0.280334 0.280334 0.280332 0.280334 0.280334 0.280334 0.280331 0.280334 0.280334 0.280334 0.280331 0.280334 0.280334 0.280334 0.280331 0.280334 v 9.251 h 0.280334 v -9.251 h 0.280334 v 9.251 h 0.280332 v -9.251 h 0.280334 v 9.251 -9.251 h 0.280334 0.280334 v 9.251 l 0.280331,-9.251 v 9.251 -9.251 h 0.280334 v 9.251 H 62.2419 v -9.251 9.251 -9.251 h 0.280334 v 9.251 -9.251 9.251 h 0.280331 v -9.251 9.251 h 0.280334 v -9.251 h 0.280334 v 9.251 h 0.280334 v -9.251 h 0.280331 v 9.251 h 0.280334 0.280334 0.280334 l 0.280332,-9.251 v 9.251 h 0.280334 0.280334 0.280334 0.280331 0.280334 0.280334 0.280334 0.280334 l 0.280331,-9.251 v 9.251 h 0.280334 v -9.251 h 0.280334 0.280334 0.280332 0.280334 0.280333 0.280334 0.280332 0.280334 0.280334 0.280334 0.280331 0.280334 0.280334 0.280334 v -9.53134 h 0.280331 0.280334 0.280334 0.280334 0.280332 0.280334 0.280334 0.280334 0.280331 0.280334 0.280334 0.280334 0.280331 0.280334 0.280334 v 9.53134 h 0.280334 0.280331 v -9.53134 9.53134 h 0.280334 0.280334 0.280334 0.280332 0.280334 0.280334 0.280334 0.280334 0.280331 0.280334 0.280334 0.280334 0.280331 0.280334 0.280334 0.280334 0.280331 0.280334 0.280334 0.280334 0.280332 0.280334 0.280334 0.280334 0.280331 0.280334 0.280334 v 9.251 h 0.280334 0.280331 0.280334 0.280334 0.280334 0.280332 0.280334 0.280334 0.280334 0.280331 0.280334 0.280334 0.280334 0.280331 0.280334 0.280334 0.280334 v 9.251 h 0.280331 0.280334 0.280334 0.280334 0.280334 v -9.251 9.251 h 0.280332 v -9.251 h 0.280334 0.280334 0.280334 0.280331 0.280334 0.280334 0.280334 0.280331 0.280334 0.280334 0.280334 0.280331 0.280334 0.280334 0.280334 0.280332 0.280334 0.280334 0.280334 0.280331 0.280334 0.280334 0.280334 0.280331 0.280334 0.280334 0.280334 0.280332 0.280334 0.280333 0.280334 0.280332 0.280334 0.280334 0.28033 0.28034 0.28033 0.28033 v -9.251 l 0.28034,9.251 h 0.28033 0.28033 0.28034 0.28033 0.28033 0.28034 0.28033 0.28033 0.28034 0.28033 0.28033 0.28034 0.28033 0.28033 0.28034 0.28033 0.28033 0.28034 0.28033 0.28033 v -9.251 h 0.28033 v 9.251 -9.251 h 0.28034 0.28033 0.28033 0.28034 0.28033 0.28033 0.28034 0.28033 0.28033 0.28034 0.28033 0.28033 0.28034 0.28033 0.28033 0.28034 0.28033 0.28033 0.28034 0.28033 0.28033 0.28034 0.28033 0.28033 0.28034 0.28033 0.28033 0.28034 0.28033 0.28033 v -9.53134 h 0.28034 0.28033 0.28033 0.28034 0.28033 0.28033 0.28034 0.28033 0.28033 0.28034 0.28033 0.28033 0.28034 0.28033 0.28033 0.28034 v 9.53134 h 0.28033 0.28033 0.28034 v -9.53134 9.53134 h 0.28033 0.28033 0.28034 0.28033 0.28033 0.28034 0.28033 0.28033 0.28034 0.28033 0.28033 0.28034 v 9.251 h 0.28033 v -9.251 h 0.28033 0.28034 0.28033 0.28033 0.28034 0.28033 0.28033 0.28034 0.28033 0.28033 0.28034 0.28033 0.28033 0.28034 0.28033 v 9.251 l 0.28033,-9.251 v 9.251 -9.251 h 0.28034 v 9.251 h 0.28033 0.28033 0.28034 0.28033 0.28033 0.28034 0.28033 0.28033 0.28034 v -9.251 h 0.28033 v 9.251 h 0.28033 v -9.251 h 0.28034 0.28033 0.28033 0.28034 0.28033 0.28033 0.28034 0.28033 0.28033 v -9.53134 9.53134 h 0.28034 v -9.53134 h 0.28033 v 9.53134 -9.53134 h 0.28033 0.28034 v 9.53134 -9.53134 h 0.28033 v 9.53134 h 0.28033 v -9.53134 9.53134 h 0.28034 0.28033 0.28033 0.28034 0.28033 v 9.251 h 0.28033 0.28034 0.28033 0.28033 0.28034 0.28033 0.28033 0.28034 0.28033 0.28033 0.28034 0.28033 0.28033 0.28034 0.28033 v -9.251 h 0.28033 v 9.251 h 0.28034 0.28033 0.28033 0.28034 0.28033 0.28033 0.28034 0.28033 0.28033 0.28034 v -9.251 9.251 h 0.28033 v -9.251 h 0.28033 0.28034 v 9.251 h 0.28033 v -9.251 h 0.28033 0.28034 0.28033 0.28033 0.28034 0.28033 0.28033 0.28034 0.28033 0.28033 v 9.251 h 0.28034 0.28033 0.28033 0.28034 0.28033 0.28033 0.28034 0.28033 0.28034 0.28034 0.28033 0.28033 0.28034 0.28033 0.28033 0.28034 0.28033 0.28033 0.28034 0.28033 0.28033 0.28034 0.28033 v 9.251 h 0.28033 v -9.251 9.251 l 0.28034,-9.251 h 0.28033 0.28033 v 9.251 -9.251 h 0.28034 0.28033 0.28033 0.28034 0.28033 0.28033 0.28034 0.28033 v 9.251 h 0.28033 0.28034 0.28033 0.28033 0.28034 0.28033 0.28033 0.28034 0.28033 0.28033 0.28034 l 0.28033,9.53133 h 0.28033 0.28034 0.28033 0.28033 0.28034 0.28033 0.28033 0.28034 0.28033 0.28033 0.28034 0.28033 0.28033 0.28034 0.28033 v 9.251 h -0.28033 -0.28034 -0.28033 -0.28033 -0.28034 -0.28033 -0.28033 -0.28034 -0.28033 -0.28033 -0.28034 -0.28033 -0.28033 -0.28034 -0.28033 -0.28033 -0.28034 -0.28033 -0.28033 -0.28034 -0.28033 -0.28033 -0.28034 -0.28033 -0.28033 -0.28034 -0.28033 -0.28033 -0.28034 -0.28033 -0.28033 -0.28034 -0.28033 -0.28033 -0.28034 -0.28033 -0.28033 -0.28034 -0.28033 -0.28033 -0.28034 -0.28033 -0.28033 -0.28034 -0.28033 -0.28033 -0.28034 -0.28033 -0.28033 -0.28034 -0.28033 -0.28033 -0.28034 -0.28034 -0.28033 -0.28034 -0.28033 -0.28033 -0.28034 -0.28033 -0.28033 -0.28034 -0.28033 -0.28033 -0.28034 -0.28033 -0.28033 -0.28034 -0.28033 -0.28033 -0.28034 -0.28033 -0.28033 -0.28034 -0.28033 -0.28033 -0.28034 -0.28033 -0.28033 -0.28034 -0.28033 -0.28033 -0.28034 -0.28033 -0.28033 -0.28034 -0.28033 -0.28033 -0.28034 -0.28033 -0.28033 -0.28034 -0.28033 -0.28033 -0.28034 -0.28033 -0.28033 -0.28034 -0.28033 -0.28033 -0.28034 -0.28033 -0.28033 -0.28034 -0.28033 -0.28033 -0.28034 -0.28033 -0.28033 -0.28034 -0.28033 -0.28033 -0.28034 -0.28033 -0.28033 -0.28034 -0.28033 -0.28033 -0.28034 -0.28033 -0.28033 -0.28034 -0.28033 -0.28033 -0.28034 -0.28033 -0.28033 -0.28034 -0.28033 -0.28033 -0.28034 -0.28033 -0.28033 -0.28034 -0.28033 -0.28033 -0.28034 -0.28033 -0.28033 -0.28034 -0.28033 -0.28033 -0.28034 -0.28033 -0.28033 -0.28034 -0.28033 -0.28033 -0.28034 -0.28033 -0.28033 -0.28034 -0.28033 -0.28033 -0.28034 -0.28033 -0.28033 -0.28034 -0.28033 -0.28033 -0.28034 -0.28033 -0.28033 -0.28034 -0.28033 -0.28033 -0.28034 -0.28033 -0.28033 -0.28034 -0.28033 -0.28033 -0.28034 -0.28033 -0.28033 -0.28034 -0.28033 -0.28033 -0.28034 -0.28033 -0.28033 -0.28034 -0.28033 -0.28033 -0.28034 -0.28033 -0.28033 -0.28034 -0.28033 -0.28033 -0.28034 -0.28033 -0.28033 -0.28034 -0.28033 -0.28033 -0.28034 -0.28033 -0.28033 -0.28034 -0.28033 -0.28033 -0.28034 -0.28033 -0.28033 -0.28034 -0.28033 -0.28033 -0.28034 -0.28033 -0.28033 -0.28034 -0.28033 -0.28033 -0.28033 -0.28034 -0.28033 -0.28033 -0.28034 -0.28033 -0.28033 -0.28034 -0.28033 -0.28033 -0.28034 -0.28033 -0.28033 -0.28034 -0.28033 -0.28033 -0.28034 -0.28033 -0.28033 -0.28034 -0.28033 -0.28033 -0.28034 H 100.0869 99.806566 99.526232 99.2459 98.965566 98.685233 98.404899 98.124567 97.844233 97.563899 97.283565 97.003234 96.7229 96.442566 96.162232 95.881901 95.601567 95.321233 95.040899 94.760567 94.480233 94.199899 93.919565 93.639234 93.3589 93.078566 92.798232 92.517901 92.237567 91.957233 91.676899 91.396568 91.116234 90.8359 90.555566 90.275234 89.9949 89.714566 89.434232 89.153898 88.873567 88.593233 88.312899 88.032565 87.752234 87.4719 87.191566 86.911232 86.630901 86.350567 86.070233 85.789899 85.509567 85.229233 84.948899 84.668565 84.388234 84.1079 83.827566 83.547232 83.266901 82.986567 82.706233 82.425899 82.145567 81.865233 81.584899 81.304565 81.024234 80.7439 80.463566 80.183232 79.902901 79.622567 79.342233 79.061899 78.781568 78.501234 78.2209 77.940566 77.660232 77.3799 77.099566 76.819232 76.538898 76.258567 75.978233 75.697899 75.417565 75.137234 74.8569 74.576566 74.296232 74.015901 73.735567 73.455233 73.174899 72.894567 72.614233 72.333899 72.053565 71.773234 71.4929 71.212566 70.932232 70.651901 70.371567 70.091233 69.810899 69.530567 69.250233 68.9699 68.689566 68.409234 68.1289 67.848566 67.568232 67.287901 67.007567 66.727233 66.446899 66.166565 65.886234 65.6059 65.325566 65.045232 64.7649 64.484566 64.204232 63.923898 63.643567 63.363233 63.082899 62.802565 62.522234 62.2419 61.961566 61.681232 61.400901 61.120567 60.840233 60.559899 60.279567 59.999233 59.718899 59.438565 59.158234 58.8779 58.597566 58.317232 58.036901 57.756567 57.476233 57.195899 56.915568 56.635234 56.3549 56.074566 55.794234 55.5139 55.233566 54.953232 54.672901 54.392567 54.112233 53.831899 53.551565 53.271234 52.9909 52.710566 52.430232 52.1499 51.869566 51.589232 51.308899 51.028567 50.748233 50.467899 50.187565 49.907234 49.6269 49.346566 49.066232 48.785901 48.505567 48.225233 47.944899 47.664567 47.384233 47.103899 46.823565 46.543234 46.2629 45.982566 45.702232 45.421901 45.141567 44.861233 44.580899 44.300568 44.020234 43.7399 43.459566 43.179234 42.8989 42.618566 42.338232 42.057898 41.777567 41.497233 41.216899 40.936565 40.656234 40.3759 40.095566 39.815232 39.5349 39.254567 38.974233 38.693899 38.413567 38.133233 37.852899 37.572565 37.292234 37.0119 36.731566 36.451232 36.170901 35.890567 35.610233 35.329899 35.049567 34.769233 34.488899 34.208565 33.928234 33.6479 33.367566 33.087233 32.8069 32.526566 32.246233 31.9659 31.685566 31.405233 31.1249 30.844566 30.564233 30.2839 30.003566 29.723233 29.4429 29.162566 28.882233 28.6019 28.321566 28.041233 27.7609 27.480566 27.200233 26.9199 Z"
       id="path36" />
    <path
       style="fill:#808080;fill-opacity:1;fill-rule:evenodd;stroke:#808080;stroke-width:0.280333px;stroke-linecap:round;stroke-linejoin:round;stroke-miterlimit:4;stroke-dasharray:none;stroke-opacity:1"
       d="m 26.9199,157.41859 h 0.280333 0.280333 0.280334 v -9.251 h 0.280333 0.280333 0.280334 0.280333 0.280333 0.280334 0.280333 0.280333 0.280334 v -9.53133 h 0.280333 0.280333 0.280334 0.280333 0.280333 0.280334 0.280333 0.280333 0.280334 0.280333 0.280333 0.280334 0.280334 0.280331 0.280334 0.280334 0.280334 0.280332 0.280334 0.280334 0.280334 0.280331 0.280334 0.280334 0.280334 0.280331 0.280334 0.280334 0.280334 0.280332 0.280334 0.280334 0.280333 0.280332 0.280334 0.280334 0.280334 0.280331 0.280334 0.280334 0.280334 0.280331 v -9.251 h 0.280334 0.280334 v 9.251 H 42.8989 v -9.251 9.251 -9.251 h 0.280334 0.280332 0.280334 0.280334 0.280334 0.280331 0.280334 0.280334 0.280334 0.280331 0.280334 0.280334 0.280334 0.280331 0.280334 0.280334 0.280334 0.280332 0.280334 0.280334 0.280334 0.280331 v 9.251 h 0.280334 0.280334 v -9.251 h 0.280334 0.280331 0.280334 0.280334 0.280334 0.280332 0.280333 0.280334 0.280334 0.280332 0.280334 0.280334 0.280334 0.280331 0.280334 0.280334 0.280334 0.280334 0.280331 0.280334 0.280334 0.280334 0.280332 0.280334 0.280334 0.280334 0.280331 0.280334 0.280334 0.280334 0.280331 0.280334 0.280334 0.280334 v 9.251 -9.251 h 0.280331 v 9.251 h 0.280334 0.280334 0.280334 0.280332 0.280334 0.280334 v -9.251 h 0.280334 l 0.280331,9.251 v -9.251 h 0.280334 v 9.251 h 0.280334 0.280334 v -9.251 9.251 h 0.280331 v -9.251 h 0.280334 0.280334 0.280334 0.280331 v 9.251 h 0.280334 0.280334 0.280334 0.280332 0.280334 v -9.251 H 65.6059 v 9.251 h 0.280334 0.280331 v -9.251 h 0.280334 0.280334 v 9.251 h 0.280334 0.280334 v -9.251 h 0.280331 0.280334 0.280334 0.280334 0.280332 0.280334 0.280333 0.280334 0.280332 0.280334 0.280334 0.280334 0.280331 0.280334 0.280334 0.280334 0.280331 v -9.251 h 0.280334 0.280334 0.280334 0.280332 0.280334 0.280334 0.280334 0.280331 0.280334 0.280334 0.280334 0.280331 0.280334 0.280334 v 9.251 h 0.280334 0.280331 0.280334 0.280334 0.280334 0.280332 0.280334 0.280334 0.280334 0.280334 0.280331 0.280334 0.280334 0.280334 0.280331 0.280334 0.280334 0.280334 0.280331 0.280334 0.280334 0.280334 0.280332 0.280334 0.280334 0.280334 0.280331 0.280334 0.280334 v 9.251 h 0.280334 0.280331 0.280334 0.280334 0.280334 0.280332 0.280334 0.280334 0.280334 0.280331 0.280334 0.280334 0.280334 0.280331 0.280334 0.280334 0.280334 0.280331 0.280334 0.280334 0.280334 0.280334 0.280332 0.280334 0.280334 0.280334 0.280331 0.280334 0.280334 0.280334 0.280331 0.280334 0.280334 0.280334 0.280331 0.280334 0.280334 0.280334 0.280332 0.280334 0.280334 0.280334 0.280331 0.280334 0.280334 0.280334 0.280331 0.280334 0.280334 0.280334 0.280332 0.280334 0.280333 0.280334 0.280332 0.280334 0.280334 0.28033 0.28034 0.28033 0.28033 0.28034 0.28033 0.28033 0.28034 0.28033 0.28033 0.28034 0.28033 0.28033 0.28034 0.28033 0.28033 0.28034 0.28033 0.28033 0.28034 0.28033 0.28033 0.28034 0.28033 0.28033 0.28033 v -9.251 h 0.28034 0.28033 0.28033 0.28034 0.28033 0.28033 0.28034 0.28033 0.28033 0.28034 0.28033 0.28033 0.28034 0.28033 0.28033 0.28034 0.28033 0.28033 0.28034 0.28033 0.28033 0.28034 0.28033 0.28033 0.28034 0.28033 0.28033 0.28034 v -9.251 9.251 l 0.28033,-9.251 v 9.251 -9.251 9.251 h 0.28033 v -9.251 h 0.28034 0.28033 0.28033 0.28034 0.28033 0.28033 0.28034 0.28033 0.28033 0.28034 0.28033 0.28033 0.28034 0.28033 l 0.28033,9.251 h 0.28034 0.28033 0.28033 0.28034 0.28033 0.28033 0.28034 0.28033 0.28033 0.28034 0.28033 0.28033 0.28034 0.28033 0.28033 0.28034 0.28033 0.28033 0.28034 0.28033 0.28033 0.28034 0.28033 0.28033 0.28034 0.28033 0.28033 0.28034 0.28033 0.28033 0.28034 0.28033 v 9.251 -9.251 h 0.28033 v 9.251 -9.251 h 0.28034 v 9.251 h 0.28033 0.28033 0.28034 v -9.251 9.251 h 0.28033 0.28033 v -9.251 9.251 h 0.28034 0.28033 0.28033 0.28034 v -9.251 h 0.28033 0.28033 0.28034 0.28033 0.28033 0.28034 0.28033 0.28033 0.28034 0.28033 0.28033 0.28034 0.28033 0.28033 0.28034 0.28033 0.28033 0.28034 0.28033 0.28033 0.28034 0.28033 0.28033 v 9.251 h 0.28034 0.28033 0.28033 0.28034 v -9.251 h 0.28033 v 9.251 h 0.28033 0.28034 0.28033 0.28033 0.28034 0.28033 0.28033 0.28034 0.28033 v -9.251 h 0.28033 v 9.251 h 0.28034 v -9.251 9.251 -9.251 h 0.28033 v 9.251 -9.251 9.251 h 0.28033 v -9.251 h 0.28034 0.28033 v 9.251 -9.251 h 0.28033 0.28034 0.28033 v 9.251 -9.251 h 0.28033 v 9.251 -9.251 9.251 -9.251 h 0.28034 0.28033 0.28033 0.28034 0.28033 0.28033 0.28034 0.28033 0.28033 0.28034 0.28033 0.28033 0.28034 0.28033 v 9.251 -9.251 9.251 h 0.28033 0.28034 0.28033 0.28033 0.28034 0.28033 0.28033 0.28034 0.28033 0.28034 0.28034 0.28033 0.28033 0.28034 0.28033 0.28033 0.28034 0.28033 0.28033 0.28034 0.28033 0.28033 0.28034 0.28033 0.28033 0.28034 0.28033 0.28033 0.28034 0.28033 0.28033 0.28034 0.28033 0.28033 0.28034 0.28033 0.28033 0.28034 0.28033 v 9.53133 h 0.28033 0.28034 0.28033 0.28033 0.28034 0.28033 0.28033 0.28034 0.28033 0.28033 0.28034 0.28033 0.28033 0.28034 0.28033 v 9.251 h 0.28033 0.28034 0.28033 0.28033 0.28034 0.28033 0.28033 0.28034 0.28033 v 0 h -0.28033 -0.28034 -0.28033 -0.28033 -0.28034 -0.28033 -0.28033 -0.28034 -0.28033 -0.28033 -0.28034 -0.28033 -0.28033 -0.28034 -0.28033 -0.28033 -0.28034 -0.28033 -0.28033 -0.28034 -0.28033 -0.28033 -0.28034 -0.28033 -0.28033 -0.28034 -0.28033 -0.28033 -0.28034 -0.28033 -0.28033 -0.28034 -0.28033 -0.28033 -0.28034 -0.28033 -0.28033 -0.28034 -0.28033 -0.28033 -0.28034 -0.28033 -0.28033 -0.28034 -0.28033 -0.28033 -0.28034 -0.28033 -0.28033 -0.28034 -0.28033 -0.28033 -0.28034 -0.28034 -0.28033 -0.28034 -0.28033 -0.28033 -0.28034 -0.28033 -0.28033 -0.28034 -0.28033 -0.28033 -0.28034 -0.28033 -0.28033 -0.28034 -0.28033 -0.28033 -0.28034 -0.28033 -0.28033 -0.28034 -0.28033 -0.28033 -0.28034 -0.28033 -0.28033 -0.28034 -0.28033 -0.28033 -0.28034 -0.28033 -0.28033 -0.28034 -0.28033 -0.28033 -0.28034 -0.28033 -0.28033 -0.28034 -0.28033 -0.28033 -0.28034 -0.28033 -0.28033 -0.28034 -0.28033 -0.28033 -0.28034 -0.28033 -0.28033 -0.28034 -0.28033 -0.28033 -0.28034 -0.28033 -0.28033 -0.28034 -0.28033 -0.28033 -0.28034 -0.28033 -0.28033 -0.28034 -0.28033 -0.28033 -0.28034 -0.28033 -0.28033 -0.28034 -0.28033 -0.28033 -0.28034 -0.28033 -0.28033 -0.28034 -0.28033 -0.28033 -0.28034 -0.28033 -0.28033 -0.28034 -0.28033 -0.28033 -0.28034 -0.28033 -0.28033 -0.28034 -0.28033 -0.28033 -0.28034 -0.28033 -0.28033 -0.28034 -0.28033 -0.28033 -0.28034 -0.28033 -0.28033 -0.28034 -0.28033 -0.28033 -0.28034 -0.28033 -0.28033 -0.28034 -0.28033 -0.28033 -0.28034 -0.28033 -0.28033 -0.28034 -0.28033 -0.28033 -0.28034 -0.28033 -0.28033 -0.28034 -0.28033 -0.28033 -0.28034 -0.28033 -0.28033 -0.28034 -0.28033 -0.28033 -0.28034 -0.28033 -0.28033 -0.28034 -0.28033 -0.28033 -0.28034 -0.28033 -0.28033 -0.28034 -0.28033 -0.28033 -0.28034 -0.28033 -0.28033 -0.28034 -0.28033 -0.28033 -0.28034 -0.28033 -0.28033 -0.28034 -0.28033 -0.28033 -0.28034 -0.28033 -0.28033 -0.28034 -0.28033 -0.28033 -0.28034 -0.28033 -0.28033 -0.28034 -0.28033 -0.28033 -0.28033 -0.28034 -0.28033 -0.28033 -0.28034 -0.28033 -0.28033 -0.28034 -0.28033 -0.28033 -0.28034 -0.28033 -0.28033 -0.28034 -0.28033 -0.28033 -0.28034 -0.28033 -0.28033 -0.28034 -0.28033 -0.28033 -0.28034 H 100.0869 99.806566 99.526232 99.2459 98.965566 98.685233 98.404899 98.124567 97.844233 97.563899 97.283565 97.003234 96.7229 96.442566 96.162232 95.881901 95.601567 95.321233 95.040899 94.760567 94.480233 94.199899 93.919565 93.639234 93.3589 93.078566 92.798232 92.517901 92.237567 91.957233 91.676899 91.396568 91.116234 90.8359 90.555566 90.275234 89.9949 89.714566 89.434232 89.153898 88.873567 88.593233 88.312899 88.032565 87.752234 87.4719 87.191566 86.911232 86.630901 86.350567 86.070233 85.789899 85.509567 85.229233 84.948899 84.668565 84.388234 84.1079 83.827566 83.547232 83.266901 82.986567 82.706233 82.425899 82.145567 81.865233 81.584899 81.304565 81.024234 80.7439 80.463566 80.183232 79.902901 79.622567 79.342233 79.061899 78.781568 78.501234 78.2209 77.940566 77.660232 77.3799 77.099566 76.819232 76.538898 76.258567 75.978233 75.697899 75.417565 75.137234 74.8569 74.576566 74.296232 74.015901 73.735567 73.455233 73.174899 72.894567 72.614233 72.333899 72.053565 71.773234 71.4929 71.212566 70.932232 70.651901 70.371567 70.091233 69.810899 69.530567 69.250233 68.9699 68.689566 68.409234 68.1289 67.848566 67.568232 67.287901 67.007567 66.727233 66.446899 66.166565 65.886234 65.6059 65.325566 65.045232 64.7649 64.484566 64.204232 63.923898 63.643567 63.363233 63.082899 62.802565 62.522234 62.2419 61.961566 61.681232 61.400901 61.120567 60.840233 60.559899 60.279567 59.999233 59.718899 59.438565 59.158234 58.8779 58.597566 58.317232 58.036901 57.756567 57.476233 57.195899 56.915568 56.635234 56.3549 56.074566 55.794234 55.5139 55.233566 54.953232 54.672901 54.392567 54.112233 53.831899 53.551565 53.271234 52.9909 52.710566 52.430232 52.1499 51.869566 51.589232 51.308899 51.028567 50.748233 50.467899 50.187565 49.907234 49.6269 49.346566 49.066232 48.785901 48.505567 48.225233 47.944899 47.664567 47.384233 47.103899 46.823565 46.543234 46.2629 45.982566 45.702232 45.421901 45.141567 44.861233 44.580899 44.300568 44.020234 43.7399 43.459566 43.179234 42.8989 42.618566 42.338232 42.057898 41.777567 41.497233 41.216899 40.936565 40.656234 40.3759 40.095566 39.815232 39.5349 39.254567 38.974233 38.693899 38.413567 38.133233 37.852899 37.572565 37.292234 37.0119 36.731566 36.451232 36.170901 35.890567 35.610233 35.329899 35.049567 34.769233 34.488899 34.208565 33.928234 33.6479 33.367566 33.087233 32.8069 32.526566 32.246233 31.9659 31.685566 31.405233 31.1249 30.844566 30.564233 30.2839 30.003566 29.723233 29.4429 29.162566 28.882233 28.6019 28.321566 28.041233 27.7609 27.480566 27.200233 Z"
       id="path37" />
    <path
       style="fill:none;stroke:#000000;stroke-width:0.280333px;stroke-linecap:round;stroke-linejoin:round;stroke-miterlimit:4;stroke-dasharray:none;stroke-opacity:1"
       d="m 26.639566,157.41859 v 0 0 0 0 0 0 H 26.9199 v 0 0 0 0 0 0 0 0 0 0 0 0 0 h 0.280333 v 0 0 0 0 0 0 0 0 0 0 0 0 0 h 0.280333 v 0 0 0 0 0 0 0 0 0 0 0 0 0 H 27.7609 v 0 0 0 0 0 0 0 0 0 0 0 0 0 h 0.280333 v 0 0 0 0 0 0 0 0 0 0 0 0 0 h 0.280333 v 0 0 0 0 0 0 0 0 0 0 0 0 0 H 28.6019 v 0 0 0 0 0 0 0 0 0 0 0 0 0 h 0.280333 v 0 0 0 0 0 0 0 0 0 0 0 0 0 h 0.280333 v 0 0 0 0 0 0 0 -9.251 0 0 0 0 0 H 29.4429 v 0 0 0 0 0 0 0 0 0 0 0 0 0 h 0.280333 v 0 0 0 0 0 0 0 0 0 0 0 0 0 h 0.280333 v 0 0 0 0 0 0 0 0 0 0 0 0 0 H 30.2839 v 0 0 0 0 0 0 0 0 0 0 0 0 0 h 0.280333 v 0 0 0 0 0 0 0 0 0 0 0 0 0 h 0.280333 v 0 0 0 0 0 0 0 0 0 0 0 0 0 H 31.1249 v 0 0 0 0 0 0 0 0 0 0 0 0 0 h 0.280333 v 0 0 0 0 0 0 0 0 0 0 0 0 0 h 0.280333 v 0 0 0 0 0 0 0 0 0 0 0 0 0 H 31.9659 v 0 0 0 0 0 0 0 0 0 0 0 0 0 h 0.280333 v 0 0 0 0 0 0 0 0 0 0 0 0 0 h 0.280333 v 0 0 0 0 0 0 0 0 0 0 0 0 0 H 32.8069 v 0 0 0 0 0 0 0 0 0 0 0 0 0 h 0.280333 v 0 0 0 0 0 0 0 0 0 0 0 9.251 0 h 0.280333 v 0 0 0 0 0 0 0 0 0 0 0 0 0 H 33.6479 v 0 0 0 0 0 0 0 0 0 0 0 0 0 h 0.280334 v 0 0 0 0 0 0 0 0 0 0 0 0 0 h 0.280331 v 0 0 0 0 0 0 0 0 0 0 0 0 0 h 0.280334 v 0 0 0 0 0 -9.251 0 0 0 0 0 -9.53133 0 h 0.280334 v 0 0 0 0 0 0 0 0 0 0 0 0 0 h 0.280334 v 0 0 0 0 0 0 0 0 0 0 0 0 0 h 0.280332 v 0 0 0 0 0 0 0 0 0 0 0 0 0 h 0.280334 v 0 0 0 0 0 0 0 0 0 0 0 0 0 h 0.280334 v 0 0 0 0 0 0 0 0 0 0 0 0 0 h 0.280334 v 0 0 0 0 0 0 0 0 0 0 0 0 0 h 0.280331 v 0 0 0 0 0 0 0 0 0 0 0 0 0 h 0.280334 v 0 0 0 0 0 0 0 0 0 0 0 0 0 H 37.0119 v 0 0 0 0 0 0 0 -9.251 0 0 0 0 0 h 0.280334 v 0 0 0 0 0 0 0 0 0 0 0 -9.251 0 h 0.280331 v 0 0 0 0 0 0 0 0 0 0 0 0 0 h 0.280334 v 0 0 0 0 0 0 0 -9.53134 0 0 0 0 0 h 0.280334 v 0 0 0 0 0 0 0 0 0 0 0 0 0 h 0.280334 v 0 0 0 0 0 0 0 0 0 9.53134 0 0 0 h 0.280332 v 0 9.251 0 0 0 0 0 0 0 0 0 0 0 h 0.280334 v 0 0 0 0 0 0 0 0 0 0 0 0 0 h 0.280334 v 0 0 0 0 0 0 0 0 0 0 0 0 0 H 39.5349 v 0 0 -9.251 0 0 0 0 0 0 0 0 0 0 h 0.280332 v 0 0 0 0 0 0 0 0 0 0 0 0 0 h 0.280334 v 0 0 0 0 0 0 0 0 0 0 0 0 0 H 40.3759 v 0 0 0 0 0 0 0 0 0 0 0 0 0 h 0.280334 v 0 0 0 0 0 0 0 0 0 0 0 0 0 h 0.280331 v 0 0 0 0 0 0 0 0 0 0 0 9.251 0 h 0.280334 v 0 0 0 0 0 0 0 0 0 0 0 0 0 h 0.280334 v 0 9.251 0 0 0 0 0 0 0 0 0 0 0 h 0.280334 v 0 0 0 0 0 0 0 0 0 0 0 9.53133 0 h 0.280331 v 0 0 0 0 0 0 0 0 0 0 0 0 0 h 0.280334 v 0 0 0 0 0 0 0 0 0 0 0 0 0 h 0.280334 v 0 0 0 0 0 0 0 0 0 0 0 0 0 H 42.8989 v 0 0 0 0 0 0 0 0 0 0 0 0 0 h 0.280334 v 0 0 0 0 0 0 0 0 0 0 0 0 0 h 0.280332 v 0 0 0 0 0 0 9.251 0 0 0 0 0 0 H 43.7399 v 0 0 0 0 0 0 0 0 0 0 0 0 0 h 0.280334 v 0 0 0 0 0 0 0 0 0 0 0 0 0 h 0.280334 v 0 0 0 0 0 0 0 0 0 0 0 0 0 0 h 0.280331 v 0 0 0 0 0 0 0 0 0 0 0 0 0 h 0.280334 v 0 0 0 0 0 0 0 0 0 0 0 0 0 h 0.280334 v 0 0 0 0 0 0 0 0 0 0 0 0 0 h 0.280334 v 0 0 0 0 0 0 0 0 0 0 0 0 0 h 0.280331 v 0 0 0 0 0 0 0 0 0 0 0 0 0 h 0.280334 v 0 0 0 0 0 0 0 0 0 0 0 0 0 H 46.2629 v 0 0 0 0 0 0 0 0 0 0 0 0 0 h 0.280334 v 0 0 0 0 0 0 0 0 0 0 -9.251 0 0 h 0.280331 v 0 0 0 0 0 0 0 0 0 0 0 0 0 h 0.280334 v 0 0 0 0 0 0 0 0 0 0 0 0 0 h 0.280334 v 0 0 0 0 0 0 0 0 0 0 0 0 0 h 0.280334 v 0 0 0 0 0 0 0 0 0 0 0 0 0 h 0.280332 v 0 0 0 0 0 0 0 0 0 0 0 0 0 h 0.280334 v 0 0 0 0 0 0 0 0 0 0 0 0 0 h 0.280334 v 0 0 0 0 0 0 0 0 0 0 0 0 0 h 0.280334 v 0 0 0 0 0 0 0 0 0 0 0 0 0 h 0.280331 v 0 0 0 0 0 0 0 0 0 0 0 0 0 h 0.280334 v 0 0 0 0 0 0 0 0 0 0 0 0 0 H 49.6269 v 0 0 0 0 0 0 0 0 0 0 0 0 0 h 0.280334 v 0 0 0 0 0 0 0 0 0 0 0 0 0 h 0.280331 v 0 0 0 0 0 0 0 0 0 0 0 0 0 h 0.280334 v 0 0 0 0 0 0 0 0 0 0 0 0 0 h 0.280334 v 9.251 0 0 0 0 0 0 0 0 0 0 0 0 h 0.280334 v 0 0 0 0 0 0 0 0 0 0 0 0 0 h 0.280332 v 0 0 0 0 0 0 0 0 0 0 0 0 0 h 0.280333 v 0 0 0 0 0 0 0 0 0 0 0 0 0 h 0.280334 v 0 0 0 0 0 0 0 0 0 0 0 0 0 H 52.1499 v 0 0 0 0 0 0 0 0 0 0 0 0 0 h 0.280332 v 0 0 0 0 0 0 0 0 0 0 0 0 0 h 0.280334 v 0 0 0 0 0 0 0 0 0 0 0 0 0 H 52.9909 v 0 0 0 0 0 0 0 0 0 0 0 0 0 h 0.280334 v 0 0 0 0 0 0 0 0 0 0 0 0 0 h 0.280331 v 0 0 0 0 0 0 0 0 0 0 0 0 0 h 0.280334 v 0 0 0 0 0 0 0 0 0 0 0 0 0 h 0.280334 v 0 0 0 0 0 0 0 0 0 0 0 0 0 h 0.280334 v 0 0 0 0 0 0 0 0 0 0 0 0 0 h 0.280334 v 0 0 0 0 0 0 0 0 0 0 0 0 0 h 0.280331 v 0 0 0 0 0 0 0 0 0 0 0 0 0 h 0.280334 v 0 0 0 0 0 0 0 0 0 0 0 0 0 H 55.5139 v 0 0 0 0 0 0 0 0 0 0 0 0 0 h 0.280334 v 0 0 0 0 0 0 0 0 0 0 0 0 0 h 0.280332 v 0 0 0 0 0 0 0 0 0 0 0 0 0 H 56.3549 v 0 0 0 0 0 0 0 0 0 0 0 0 0 h 0.280334 v 0 0 0 0 0 0 0 0 0 0 0 0 0 h 0.280334 v 0 0 0 0 0 0 0 0 0 0 0 0 0 h 0.280331 v 0 0 0 0 0 0 0 0 0 0 0 0 0 h 0.280334 v 0 0 0 0 0 0 0 0 0 0 0 0 0 h 0.280334 v 0 0 0 0 0 0 0 0 0 0 0 0 0 h 0.280334 v 0 0 0 0 0 0 0 0 0 0 0 0 0 h 0.280331 v 0 0 0 0 0 0 0 0 0 0 0 0 0 h 0.280334 v 0 0 0 0 0 0 0 0 0 0 0 0 0 H 58.8779 v 0 0 0 0 0 0 0 0 0 0 0 0 0 h 0.280334 v 0 0 0 0 0 0 0 0 0 0 0 0 0 h 0.280331 v 0 0 0 0 0 0 0 0 0 0 0 0 0 h 0.280334 v 0 0 0 0 0 0 0 0 0 0 0 0 0 h 0.280334 v 0 0 0 0 0 0 0 0 0 0 0 0 0 h 0.280334 v 0 0 0 0 0 0 0 0 0 0 0 0 0 h 0.280332 v 0 0 0 0 0 0 0 0 0 0 0 0 0 h 0.280334 v 0 0 0 0 0 0 0 0 0 0 0 0 0 h 0.280334 v 0 0 0 0 0 0 0 0 0 0 0 0 0 h 0.280334 v 0 0 0 0 0 0 0 0 0 0 0 0 0 h 0.280331 v 0 0 0 0 0 0 0 0 0 0 0 0 0 0 h 0.280334 v 0 0 0 0 0 0 0 0 0 0 0 0 0 H 62.2419 v 0 0 0 0 0 0 0 0 0 0 0 0 0 h 0.280334 v 0 0 0 0 0 0 0 0 0 -9.251 0 0 0 h 0.280331 v 0 0 0 0 0 0 0 0 0 0 0 0 0 h 0.280334 v 0 0 0 0 0 0 0 0 0 0 0 0 0 h 0.280334 v 0 0 0 0 0 0 0 0 0 0 0 0 0 h 0.280334 v 0 0 0 0 0 0 0 0 0 0 0 0 0 h 0.280331 v 0 0 0 0 0 0 0 0 0 0 0 0 0 h 0.280334 v 0 0 0 0 0 0 0 0 0 0 0 0 0 h 0.280334 v 0 0 0 0 0 0 0 0 0 0 0 0 0 H 64.7649 v 0 0 0 0 0 0 0 0 0 0 0 0 0 h 0.280332 v 0 0 0 0 0 0 0 0 0 0 0 0 0 h 0.280334 v 0 0 0 0 0 0 0 0 0 0 0 0 0 H 65.6059 v 0 0 0 0 0 0 0 0 0 0 0 0 0 h 0.280334 v 0 0 0 0 0 0 0 0 0 0 0 0 0 h 0.280331 v 0 0 0 0 0 0 0 0 0 0 0 0 0 h 0.280334 v 0 0 0 0 0 0 0 0 0 0 0 0 0 l 0.280334,9.251 v 0 0 0 0 0 0 0 0 0 0 0 0 0 h 0.280334 v 0 0 0 0 0 0 0 0 0 0 0 0 0 h 0.280334 v 0 0 0 0 0 0 0 0 0 0 0 0 0 h 0.280331 v 0 0 0 0 0 0 0 0 0 0 0 0 0 h 0.280334 v 0 0 0 0 0 0 0 0 0 0 0 0 0 H 68.1289 v 0 0 0 0 0 0 0 0 0 0 0 0 0 h 0.280334 v 0 0 0 0 0 0 0 0 0 0 0 0 0 h 0.280332 v 0 0 0 0 0 0 0 0 0 0 0 0 0 H 68.9699 v 0 0 0 0 0 0 0 0 0 0 0 0 0 h 0.280333 v 0 0 0 0 0 0 0 0 0 0 0 0 0 h 0.280334 v 0 0 0 0 0 0 0 0 0 0 0 0 0 h 0.280332 v 0 0 0 0 0 0 0 0 0 0 0 0 0 h 0.280334 v 0 0 0 0 0 0 0 0 0 0 0 0 0 h 0.280334 v 0 0 0 0 0 0 0 0 0 0 0 0 0 h 0.280334 v 0 0 0 0 0 0 0 0 0 0 0 0 0 h 0.280331 v 0 0 0 0 0 0 0 0 0 0 0 0 0 h 0.280334 v 0 0 0 0 0 0 0 0 0 0 0 0 0 H 71.4929 v 0 0 0 0 0 0 0 0 0 0 0 0 0 h 0.280334 v 0 0 0 0 0 0 0 0 0 0 0 0 0 h 0.280331 v 0 0 0 0 0 0 0 0 0 0 0 0 0 h 0.280334 v 0 0 0 0 0 0 0 0 0 0 0 0 0 h 0.280334 v 0 0 0 0 0 0 0 0 0 0 0 0 0 h 0.280334 v 0 0 0 0 0 0 0 0 0 0 0 0 0 h 0.280332 v 0 0 0 0 0 0 0 0 0 0 0 0 0 h 0.280334 v 0 0 0 0 0 0 0 0 0 0 0 0 0 h 0.280334 v 0 0 0 0 0 0 0 0 0 0 0 0 0 h 0.280334 v 0 0 0 0 0 0 0 0 0 0 0 0 0 h 0.280331 v 0 0 0 0 0 0 0 0 0 0 0 0 0 h 0.280334 v 0 0 0 0 0 0 0 0 0 0 0 0 0 H 74.8569 v 0 0 0 0 0 0 0 0 0 0 0 0 0 h 0.280334 v 0 0 0 0 0 0 0 0 0 0 0 0 0 h 0.280331 v 0 0 0 0 0 0 0 0 0 0 0 0 0 h 0.280334 v 0 0 0 0 0 0 0 0 0 0 0 0 0 h 0.280334 v 0 0 0 0 0 0 0 0 0 0 0 0 0 l 0.280334,-9.251 v 0 0 0 0 0 0 0 0 0 0 0 0 0 h 0.280331 v 0 0 0 0 0 0 0 0 0 0 0 0 0 h 0.280334 v 0 0 0 0 0 0 0 0 0 0 0 0 0 h 0.280334 v 0 0 0 0 0 0 0 0 0 0 0 0 0 H 77.3799 v 0 0 0 0 0 0 0 0 0 0 0 0 0 h 0.280332 v 0 0 0 0 0 0 0 0 0 0 0 0 0 h 0.280334 v 0 0 0 0 0 0 0 0 0 0 0 0 0 H 78.2209 v 0 0 0 0 0 0 0 0 0 0 0 0 0 h 0.280334 v 0 0 0 0 0 0 0 0 0 0 0 0 0 h 0.280334 v 0 0 0 0 0 0 0 0 0 0 0 0 0 h 0.280331 v 0 0 0 0 0 0 0 0 0 0 0 0 0 h 0.280334 v 0 0 0 0 0 0 0 0 0 0 0 0 0 -9.53133 h 0.280334 v 0 0 0 0 0 0 0 -9.251 0 0 0 0 0 h 0.280334 v 0 0 -9.251 0 0 0 0 0 0 0 0 0 0 h 0.280331 v 0 0 9.251 0 0 0 0 0 0 0 0 0 0 h 0.280334 v 0 0 0 0 0 0 0 0 0 0 0 0 0 H 80.7439 v 0 0 0 0 0 0 0 0 0 0 0 0 0 h 0.280334 v 0 0 0 0 0 0 0 0 0 0 0 0 0 h 0.280331 v 0 0 0 0 0 0 0 0 0 0 0 0 0 h 0.280334 v 0 0 0 0 0 0 0 0 0 0 0 0 0 h 0.280334 v 0 0 0 0 0 0 0 0 0 0 0 0 0 h 0.280334 v 0 0 0 0 0 0 0 0 0 0 0 0 0 h 0.280332 v 0 0 0 0 0 0 0 0 0 0 0 0 0 h 0.280334 v 0 0 0 0 0 0 0 0 0 0 0 0 0 h 0.280334 v 0 0 0 0 0 0 0 0 0 0 -9.251 0 0 h 0.280334 v 0 0 0 0 0 0 0 0 0 0 0 0 0 h 0.280331 v 0 0 9.251 0 0 0 0 0 0 0 0 0 9.251 h 0.280334 v 0 0 0 0 0 0 0 9.53133 0 0 0 0 0 H 84.1079 v 0 0 0 0 0 0 0 0 0 0 0 0 0 h 0.280334 v 0 0 0 0 0 0 0 0 0 0 0 0 0 h 0.280331 v 0 0 0 0 0 0 0 0 0 0 0 0 0 h 0.280334 v 0 0 0 0 0 0 0 0 0 0 0 0 0 h 0.280334 v 0 0 0 0 0 0 0 0 -9.53133 0 0 0 0 h 0.280334 v 0 0 0 0 0 0 0 0 0 0 0 -9.251 0 h 0.280332 v 0 0 0 0 0 0 0 0 0 0 0 0 0 h 0.280334 v 0 0 0 0 0 0 0 0 0 0 0 0 0 h 0.280334 v 0 0 0 0 0 0 0 0 0 0 0 0 0 h 0.280334 v 0 0 0 0 0 0 0 0 0 0 0 0 0 h 0.280331 v 0 0 0 0 0 0 0 0 0 0 0 0 0 h 0.280334 v 9.251 0 0 0 0 0 0 0 0 0 0 0 0 H 87.4719 v 0 0 0 0 0 0 0 0 0 0 0 0 0 h 0.280334 v 0 0 0 0 0 0 0 0 0 0 0 0 0 h 0.280331 v 0 0 0 0 0 0 0 0 0 0 0 0 0 h 0.280334 v 0 0 0 0 0 0 0 0 0 0 0 0 0 h 0.280334 v 0 0 0 0 0 0 0 0 0 0 0 0 0 h 0.280334 v 0 0 0 0 0 0 0 0 0 0 0 0 0 h 0.280331 v 0 0 0 0 0 0 0 0 0 0 0 0 9.53133 h 0.280334 v 0 0 0 0 0 0 0 0 -9.53133 0 0 0 0 h 0.280334 v 0 9.53133 0 0 0 0 0 0 0 0 0 0 0 H 89.9949 v 0 0 0 0 0 0 0 0 0 0 0 0 0 h 0.280334 v 0 0 0 0 0 0 0 0 0 0 0 0 0 h 0.280332 v 0 0 0 0 0 0 0 0 0 0 0 0 0 H 90.8359 v 0 0 0 0 0 0 0 0 0 0 0 0 0 h 0.280334 v 0 0 0 0 0 0 0 0 0 0 0 0 0 h 0.280334 v 0 0 0 0 0 0 0 0 0 0 0 0 0 h 0.280331 v 0 0 0 0 0 0 0 0 0 0 0 0 0 h 0.280334 v 0 0 0 0 0 0 0 0 0 0 0 0 0 h 0.280334 v 0 0 0 0 0 0 0 0 0 0 0 0 0 h 0.280334 v 0 0 0 0 0 0 0 0 0 0 0 0 0 h 0.280331 v 0 0 0 0 0 0 0 0 0 0 0 0 0 h 0.280334 v 0 0 0 0 0 0 0 0 0 0 0 0 0 H 93.3589 v 0 0 0 0 0 0 0 0 0 0 0 0 9.251 h 0.280334 v 0 0 0 0 0 0 0 -9.251 0 0 0 0 0 h 0.280331 v 0 0 0 0 0 0 0 0 0 0 0 0 0 h 0.280334 v 0 0 0 0 0 0 0 0 0 0 0 0 0 h 0.280334 v 0 0 0 0 0 0 0 0 0 0 0 0 0 h 0.280334 v 0 0 0 0 0 0 0 0 0 0 0 0 0 h 0.280332 v 0 0 0 0 0 0 0 0 0 0 0 0 0 h 0.280334 v 0 0 0 0 0 0 0 0 0 0 0 0 0 h 0.280334 v 0 0 0 0 0 0 0 0 0 0 0 0 0 h 0.280334 v 0 0 0 0 0 0 0 0 0 0 0 0 0 h 0.280331 v 0 0 -9.53133 0 0 0 0 0 0 0 0 0 0 h 0.280334 v 0 0 0 0 0 0 0 0 0 0 0 0 0 H 96.7229 v 0 0 0 0 0 0 0 0 0 0 0 0 0 0 h 0.280334 v 0 0 0 0 0 0 0 0 0 0 0 0 0 h 0.280331 v 0 0 0 0 0 0 0 0 0 0 0 0 0 h 0.280334 v 0 0 0 0 0 0 0 0 0 0 9.53133 0 0 h 0.280334 v 0 0 0 0 0 0 0 0 0 0 0 0 0 h 0.280334 v 0 0 0 0 0 0 0 0 0 0 0 0 0 h 0.280332 v 0 0 0 0 0 0 0 0 0 0 0 0 0 h 0.280334 v 0 0 0 0 0 0 0 0 0 0 0 0 0 h 0.280333 v 0 0 0 0 0 0 0 0 0 0 0 0 0 H 99.2459 v 0 0 0 0 0 0 0 0 0 0 0 0 0 h 0.280332 v 0 0 0 0 0 0 0 0 0 0 0 0 0 h 0.280334 v 0 0 0 0 0 0 0 0 0 0 0 0 0 h 0.280334 v 0 0 0 0 0 9.251 0 0 0 0 0 0 0 h 0.28033 v 0 0 0 0 0 0 0 0 0 0 0 0 0 h 0.28034 v 0 0 0 -9.251 0 0 0 0 0 0 0 0 0 h 0.28033 v 0 0 0 0 0 0 0 0 0 0 0 0 0 h 0.28033 v 0 0 0 0 0 0 0 0 0 0 0 0 0 h 0.28034 v 0 0 0 0 0 0 0 0 0 0 0 0 0 h 0.28033 v 0 0 0 0 0 0 0 0 0 0 0 0 0 h 0.28033 v 0 0 0 0 0 0 0 0 0 0 0 0 0 h 0.28034 v 0 0 0 0 0 0 0 0 0 0 0 0 0 h 0.28033 v 0 0 0 0 0 0 0 0 0 0 0 0 0 h 0.28033 v 0 0 0 0 0 0 0 0 0 0 0 0 0 h 0.28034 v 0 0 0 0 0 0 0 0 0 0 0 0 0 h 0.28033 v 0 0 0 0 0 0 0 0 0 0 0 0 0 h 0.28033 v 0 0 0 0 0 0 0 0 0 0 0 0 0 h 0.28034 v 0 0 0 0 0 0 0 0 0 0 0 0 0 h 0.28033 v 0 0 0 0 0 0 0 0 0 0 0 0 0 h 0.28033 v 0 0 0 0 0 0 0 9.251 0 0 0 0 0 h 0.28034 v 0 0 0 0 0 0 0 0 0 0 0 0 0 h 0.28033 v 0 0 0 0 0 0 0 0 0 0 0 0 0 h 0.28033 v 0 0 0 0 0 0 0 0 0 0 0 0 0 h 0.28034 v 0 0 0 0 0 0 0 0 0 0 0 0 0 h 0.28033 v 0 0 0 0 0 0 0 0 0 0 0 0 0 h 0.28033 v 0 0 0 0 0 0 0 0 0 0 0 0 0 h 0.28034 v 0 0 0 0 0 0 0 0 0 0 0 0 0 h 0.28033 v 0 0 0 0 0 0 0 0 0 0 0 0 0 h 0.28033 v 0 0 0 0 0 0 0 0 0 -9.251 0 0 0 h 0.28033 v 0 0 0 0 0 0 0 0 0 0 0 0 0 h 0.28034 v 0 0 0 0 0 0 0 0 0 0 0 0 0 h 0.28033 v 0 0 0 0 0 0 0 0 0 0 0 0 0 h 0.28033 v 0 0 0 0 0 0 0 0 0 -9.53133 0 0 0 h 0.28034 v 0 0 0 0 0 0 0 0 0 0 0 0 0 l 0.28033,-9.251 v 0 0 0 0 0 0 0 0 0 0 0 0 0 h 0.28033 v 0 0 0 0 0 0 0 0 0 0 0 0 0 h 0.28034 v 0 0 0 0 0 0 0 0 0 0 0 0 0 h 0.28033 v 0 0 0 0 0 0 0 0 0 0 -9.251 0 0 h 0.28033 v 0 0 0 0 0 0 0 0 0 0 0 0 0 h 0.28034 v 0 0 0 0 0 0 0 0 0 0 0 0 0 h 0.28033 v 0 0 0 0 0 0 -9.53134 0 0 0 0 0 0 h 0.28033 v 0 0 0 0 0 0 0 0 0 0 0 0 0 h 0.28034 v 0 0 0 0 0 0 0 0 0 0 0 0 0 l 0.28033,9.53134 v 0 0 0 0 0 0 0 0 0 0 0 0 0 h 0.28033 v 0 0 0 0 0 0 0 0 0 0 0 0 0 h 0.28034 v 0 0 0 0 0 0 0 0 0 0 0 0 0 h 0.28033 v 0 0 0 0 0 0 0 0 0 0 0 0 0 l 0.28033,9.251 v 0 0 0 0 0 0 0 0 0 0 0 0 0 h 0.28034 v 0 0 0 9.251 0 0 0 0 0 0 0 0 0 h 0.28033 v 0 0 0 0 0 0 0 0 0 0 0 0 0 h 0.28033 v 0 0 0 0 0 0 0 0 0 0 0 0 0 h 0.28034 v 0 0 0 0 0 0 0 0 0 0 0 0 0 h 0.28033 v 9.53133 0 0 0 0 0 0 0 0 0 0 0 0 h 0.28033 v 0 0 0 0 0 0 0 0 0 0 0 0 0 h 0.28034 v 0 0 0 0 0 0 0 0 0 0 9.251 0 0 0 h 0.28033 v 0 0 0 0 0 0 0 0 0 0 0 0 0 h 0.28033 v 0 0 0 0 0 0 0 0 0 0 0 0 0 h 0.28034 v 0 0 0 0 0 0 0 0 0 0 0 0 0 h 0.28033 v 0 0 0 0 0 0 0 0 0 0 0 0 0 h 0.28033 v 0 0 0 0 0 0 0 0 0 0 0 0 0 h 0.28034 v 0 0 0 0 0 0 0 0 0 0 0 0 0 h 0.28033 v 0 0 0 0 0 0 0 0 0 0 0 0 0 h 0.28033 v 0 0 0 0 0 0 0 0 0 0 0 0 0 h 0.28034 v 0 0 0 0 0 0 0 0 0 0 0 0 0 h 0.28033 v 0 0 0 0 0 0 0 0 0 0 0 0 0 h 0.28033 v 0 0 0 0 0 0 0 0 0 0 0 0 0 h 0.28034 v 0 0 0 0 0 0 0 0 0 0 0 0 0 h 0.28033 v 0 0 0 0 0 0 0 0 0 0 0 0 0 h 0.28033 v 0 0 0 0 0 0 0 0 0 0 0 0 0 h 0.28034 v 0 0 0 0 0 0 0 0 0 0 0 0 0 h 0.28033 v 0 0 0 0 0 0 0 0 0 0 0 0 0 h 0.28033 v 0 0 0 0 0 0 0 0 0 0 0 0 0 h 0.28034 v 0 0 0 0 0 0 0 0 0 0 0 0 0 h 0.28033 v 0 0 0 0 0 0 0 0 0 0 0 0 0 h 0.28033 v 0 0 0 0 0 0 0 0 0 0 0 0 0 h 0.28034 v 0 0 0 0 0 0 0 0 0 0 0 0 0 h 0.28033 v 0 0 0 0 0 0 0 0 0 0 0 0 0 h 0.28033 v 0 0 0 0 0 0 0 0 0 0 0 0 0 h 0.28034 v 0 0 0 0 0 0 0 0 0 0 0 0 0 h 0.28033 v 0 0 0 0 0 0 0 0 0 0 0 0 0 h 0.28033 v 0 0 0 0 0 0 0 0 0 0 0 0 0 h 0.28034 v 0 0 0 0 0 0 0 0 0 0 0 0 0 h 0.28033 v 0 0 0 0 0 0 0 0 0 0 0 0 0 h 0.28033 v 0 0 0 0 0 0 0 0 0 0 0 0 0 h 0.28034 v 0 0 0 0 0 0 0 0 0 0 0 0 0 h 0.28033 v 0 0 0 0 0 0 0 0 0 0 0 0 0 h 0.28033 v 0 0 0 0 0 0 0 0 0 0 0 0 0 h 0.28034 v 0 0 0 0 0 0 0 0 0 0 0 0 0 h 0.28033 v 0 0 0 0 0 0 0 0 0 0 0 0 0 h 0.28033 v 0 0 0 0 0 0 0 0 0 0 0 0 0 h 0.28034 v 0 0 0 0 0 0 0 0 0 0 0 0 0 h 0.28033 v 0 0 0 0 0 0 0 0 0 0 0 0 0 h 0.28033 v 0 0 0 0 0 0 0 0 0 0 0 0 0 h 0.28034 v 0 0 0 0 0 0 0 0 0 0 0 0 0 h 0.28033 v 0 0 0 0 0 0 0 0 0 0 0 0 0 h 0.28033 v 0 0 0 0 0 0 0 0 0 0 0 0 0 h 0.28034 v 0 0 0 0 0 0 0 0 0 0 0 0 0 h 0.28033 v 0 0 0 0 0 0 0 0 0 0 0 0 0 h 0.28033 v 0 0 0 0 0 0 0 0 0 0 0 0 0 h 0.28034 v 0 0 0 0 0 0 0 0 0 0 0 0 0 h 0.28033 v 0 0 0 0 0 0 0 0 0 0 0 0 0 h 0.28033 v 0 0 0 0 0 0 0 -9.251 0 0 0 0 0 h 0.28034 v 0 0 0 0 0 0 0 0 0 0 0 0 0 h 0.28033 v 0 0 0 0 0 0 0 0 -9.53133 0 0 0 0 h 0.28033 v 0 0 0 0 0 0 0 0 0 0 0 0 0 h 0.28034 v 0 0 0 0 0 0 0 0 0 0 0 0 0 h 0.28033 v 0 0 0 0 0 0 0 0 0 0 0 0 0 h 0.28033 v 0 0 0 0 0 0 0 0 0 0 0 0 0 h 0.28034 v 0 0 0 0 0 0 0 0 0 0 0 0 0 h 0.28033 v 0 0 0 0 0 0 0 0 0 0 0 0 -9.251 h 0.28033 v 0 0 0 0 0 0 0 0 0 0 0 0 0 h 0.28034 v 0 0 0 0 0 0 0 0 0 0 0 0 0 h 0.28033 v 0 0 0 0 0 0 0 0 0 0 0 0 0 h 0.28033 v 0 0 0 0 0 0 0 0 0 0 0 0 0 h 0.28034 v 0 0 0 0 0 0 0 0 0 0 0 0 0 h 0.28033 v 0 0 0 0 0 0 0 0 0 0 0 9.251 0 h 0.28033 v 0 0 0 0 0 0 0 0 0 0 0 0 0 0 h 0.28034 v 0 0 0 0 0 0 0 0 0 0 0 9.53133 0 h 0.28033 v 0 0 0 0 0 0 0 0 0 0 0 0 0 h 0.28033 v 0 0 0 0 0 0 0 0 0 0 0 0 0 h 0.28034 v 0 0 0 0 0 0 0 0 0 0 0 0 0 h 0.28033 v 0 0 0 0 0 0 0 0 0 0 0 0 0 h 0.28033 v 0 0 0 0 0 0 0 0 0 0 0 0 0 h 0.28034 v 0 0 0 0 0 0 0 0 0 0 0 0 0 h 0.28033 v 0 9.251 0 0 0 0 0 0 0 0 0 0 0 h 0.28033 v 0 0 0 0 0 0 0 0 0 0 0 0 0 h 0.28034 v 0 0 0 0 0 0 0 0 0 0 0 0 0 h 0.28033 v 0 0 0 0 0 0 0 0 0 0 0 0 0 h 0.28033 v 0 0 0 0 0 0 0 0 0 0 0 0 0 h 0.28034 v 0 0 0 0 0 0 0 0 0 0 0 0 0 h 0.28033 v 0 0 0 0 0 0 0 0 0 0 0 0 0 h 0.28033 v 0 0 0 0 0 0 0 0 0 0 0 0 0 h 0.28034 v 0 0 0 0 0 0 0 0 0 0 0 0 0 h 0.28033 v 0 0 0 0 0 0 0 0 0 0 0 0 0 h 0.28033 v 0 0 0 0 0 0 0 0 0 0 0 0 0 h 0.28034 v 0 0 0 0 0 0 0 0 0 0 0 0 0 h 0.28033 v 0 0 0 0 0 0 0 0 0 0 0 0 0 h 0.28033 v 0 0 0 0 0 0 0 0 0 0 0 0 0 h 0.28034 v 0 0 0 0 0 0 0 0 0 0 0 0 0 h 0.28033 v 0 0 0 0 0 0 0 0 0 0 0 0 0 h 0.28033 v 0 0 0 0 0 0 0 0 0 0 0 0 0 h 0.28034 v 0 0 0 0 0 0 0 0 0 0 0 0 0 h 0.28033 v 0 0 0 0 0 0 0 0 0 0 0 0 0 h 0.28033 v 0 0 0 0 0 0 0 0 0 0 0 0 0 h 0.28034 v 0 0 0 0 0 0 0 0 0 0 0 0 0 h 0.28033 v 0 0 0 0 0 0 0 0 0 0 0 0 0 h 0.28033 v 0 0 0 0 0 0 0 0 0 0 0 0 0 h 0.28034 v 0 0 0 0 0 0 0 0 0 0 0 0 0 h 0.28033 v 0 0 0 0 0 0 0 0 0 0 0 0 0 h 0.28033 v 0 0 0 0 0 0 0 0 0 0 0 0 0 h 0.28034 v 0 0 0 0 0 0 0 0 0 0 0 0 0 h 0.28033 v 0 0 0 0 0 0 0 0 0 0 0 0 0 h 0.28033 v 0 0 0 0 0 0 0 0 0 0 0 0 0 h 0.28034 v 0 0 0 0 0 0 0 0 0 0 0 -9.251 0 h 0.28033 v 0 0 0 0 0 0 0 0 0 0 0 0 0 h 0.28033 v 0 0 0 0 0 0 0 0 0 0 0 0 0 h 0.28034 v 0 0 0 0 0 0 0 0 0 0 0 0 0 h 0.28033 v 0 0 0 0 0 0 0 0 0 0 0 0 0 h 0.28033 v 0 0 0 0 0 0 0 0 0 0 0 0 0 h 0.28034 v 0 0 0 0 0 0 0 0 0 0 0 0 0 h 0.28033 v 0 0 0 0 0 0 0 0 0 0 0 0 0 h 0.28033 v 0 0 0 0 0 0 0 0 0 0 0 0 0 h 0.28034 v 0 0 0 0 0 0 0 0 0 0 0 0 0 h 0.28033 v 0 0 0 0 0 0 0 0 0 0 0 0 0 h 0.28033 v 0 0 0 0 0 0 0 0 0 0 0 0 0 h 0.28034 v 0 0 0 0 0 0 0 0 0 0 0 0 0 h 0.28033 v 0 0 0 0 0 0 0 0 0 0 0 0 0 h 0.28033 v 0 0 0 0 0 0 0 0 0 0 0 0 0 h 0.28034 v 0 9.251 0 0 0 0 0 0 0 0 0 0 0 h 0.28033 v 0 0 0 0 0 0 0 0 0 0 0 0 0 h 0.28033 v 0 0 0 0 0 0 0 0 0 0 0 0 0 h 0.28034 v 0 0 0 -9.251 0 0 0 0 0 0 0 0 0 h 0.28033 v 0 0 0 0 0 0 0 0 0 0 0 0 0 h 0.28033 v 0 0 0 0 0 0 0 0 0 0 0 0 0 h 0.28034 v 0 0 0 0 0 0 0 0 0 0 0 0 0 h 0.28033 v 0 0 0 0 0 0 0 0 0 0 0 0 0 h 0.28033 v 0 0 0 0 0 0 0 0 0 0 0 0 0 h 0.28034 v 0 0 0 0 0 0 0 0 0 0 0 0 0 h 0.28033 v 0 0 0 0 0 0 0 0 0 0 0 0 0 h 0.28033 v 0 0 0 0 0 0 0 0 0 0 0 0 0 0 h 0.28034 v 0 0 0 0 0 0 0 0 0 0 0 0 0 h 0.28033 v 0 0 0 0 0 0 0 0 0 0 0 0 0 h 0.28033 v 0 0 0 0 0 0 0 0 0 0 0 0 0 h 0.28034 v 0 0 0 0 0 0 0 0 0 0 0 0 0 h 0.28033 v 0 0 0 0 0 0 0 0 0 0 0 0 0 h 0.28033 v 0 0 0 0 0 0 9.251 0 0 0 0 0 0 h 0.28034 v 0 0 0 0 0 0 0 0 0 0 0 0 0 h 0.28033 v 0 0 0 0 0 0 0 0 0 0 0 0 0 h 0.28034 v 0 0 0 0 0 0 0 0 0 0 0 0 0 h 0.28034 v 0 0 0 0 0 0 0 0 0 0 0 0 0 h 0.28033 v 0 0 0 0 0 0 0 0 0 0 0 0 0 h 0.28033 v 0 0 0 0 0 0 0 0 0 0 0 0 0 h 0.28034 v 0 0 0 0 0 0 0 0 0 0 0 0 0 h 0.28033 v 0 0 0 0 0 0 0 0 0 0 0 0 0 h 0.28033 v 0 0 0 0 0 0 0 0 0 0 0 0 0 h 0.28034 v 0 0 0 0 0 0 0 0 0 0 0 0 0 h 0.28033 v 0 0 0 0 0 0 0 0 0 0 0 0 0 h 0.28033 v 0 0 0 0 0 0 0 0 0 0 0 0 0 h 0.28034 v 0 0 0 0 0 0 0 0 0 0 0 0 0 h 0.28033 v 0 0 0 0 0 0 0 0 0 0 0 0 0 h 0.28033 v 0 0 0 0 0 0 0 0 0 0 0 0 0 h 0.28034 v 0 0 0 0 0 0 0 0 0 0 0 0 0 h 0.28033 v 0 0 0 0 0 0 0 0 0 0 0 0 0 h 0.28033 v 0 0 0 0 0 0 0 0 0 0 0 0 0 h 0.28034 v 0 0 0 0 0 0 0 0 0 0 0 0 0 h 0.28033 v 0 0 0 0 0 0 0 0 0 0 0 0 0 h 0.28033 v 0 0 0 0 0 0 0 0 0 0 0 0 0 h 0.28034 v 0 0 0 0 0 0 0 0 0 0 0 0 0 h 0.28033 v 0 0 0 0 0 0 0 0 0 0 0 0 0 h 0.28033 v 0 0 0 0 0 0 0 0 0 0 0 0 0 h 0.28034 v 0 0 0 0 0 0 0 0 0 0 0 0 0 h 0.28033 v 0 0 0 0 0 0 0 0 0 0 0 0 0 h 0.28033 v 0 0 0 0 0 0 0 0 0 0 0 0 0 h 0.28034 v 0 0 0 0 0 0 0 0 0 0 0 0 0 h 0.28033 v 0 0 0 0 0 0 0 0 0 0 0 0 0 h 0.28033 v 0 0 0 0 0 0 0 0 0 0 0 0 0 h 0.28034 v 0 0 0 0 0 0 0 0 0 0 0 0 0 h 0.28033 v 0 0 0 0 0 0 0 0 0 0 0 0 0 h 0.28033 v 0 0 0 0 0 0 0 0 0 0 0 0 0 h 0.28034 v 0 0 0 0 0 0 0 0 0 0 0 0 0 h 0.28033 v 0 0 0 0 0 0 0 0 0 0 0 0 0 h 0.28033 v 0 0 0 0 0 0 0 0 0 0 0 0 0 h 0.28034 v 0 0 0 0 0 0 0 0 0 0 0 0 0 h 0.28033 v 0 0 0 0 0 0 0 0 0 0 0 0 0 h 0.28033 v 0 0 0 0 0 0 0 0 0 0 0 0 0 h 0.28034 v 0 0 0 0 0 0 0 0 0 0 0 0 0 h 0.28033 v 0 0 0 0 0 0 0 0 0 0 0 0 0 h 0.28033 v 0 0 0 0 0 0 0 0 0 0 0 0 0 h 0.28034 v 0 0 0 0 0 0 0 0 0 0 0 0 0 h 0.28033 v 0 0 0 0 0 0 0 0 0 0 0 0 0 h 0.28033 v 0 0 0 0 0 0 0 0 0 0 0 0 0 h 0.28034 v 0 0 0 0 0 0 0 0 0 0 0 0 0 h 0.28033 v 0 0 0 0 0 0 0 0 0 0 0 0 0 h 0.28033 v 0 0 0 0 0 0 0 0 0 0 0 0 0 h 0.28034 v 0 0 0 0 0 0 0 0 0 0 0 0 0 h 0.28033 v 0 0 0 0 0 0 0 0 0 0 0 0 0 h 0.28033 v 0 0 0 0 0 0 0 0 0 0 0 0 0 h 0.28034 v 0 0 0 0 0 0 0 0 0 0 0 0 0 h 0.28033 v 0 0 0 0 0 0 0 0 0 0 0 0 0 h 0.28033 v 0 0 0 0 0 0 0 0 0 0 0 0 0 h 0.28034 v 0 0 0 0 0 0 0 0 0 0 0 0 0 h 0.28033 v 0 0 0 0 0 0 0"
       id="path38" />
    <text
       xml:space="preserve"
       style="font-style:normal;font-variant:normal;font-weight:400;font-size:3.91914px;line-height:125%;font-family:Arial;text-align:start;letter-spacing:0px;word-spacing:0px;text-anchor:start;fill:#000000;fill-opacity:1;stroke:none;stroke-width:0.264583"
       transform="rotate(-90)"
       x="-152.65292"
       y="10.564125"
       id="text39"><tspan
         sodipodi:role="line"
         x="-152.65292"
         y="10.564125"
         id="tspan39"
         style="stroke-width:0.264583"><tspan
           dx="0"
           dy="0"
           style="font-style:normal;font-variant:normal;font-weight:400;font-size:3.91914px;font-family:Arial;fill:#000000;stroke-width:0.264583"
           id="tspan38">Breakpoints per 200 nt window</tspan></tspan></text>
  </g>
</svg>
