<?xml version="1.0" encoding="utf-8" standalone="no"?>
<!DOCTYPE svg PUBLIC "-//W3C//DTD SVG 1.1//EN"
  "http://www.w3.org/Graphics/SVG/1.1/DTD/svg11.dtd">
<svg xmlns:xlink="http://www.w3.org/1999/xlink" width="288pt" height="180pt" viewBox="0 0 288 180" xmlns="http://www.w3.org/2000/svg" version="1.1">
 <metadata>
  <rdf:RDF xmlns:dc="http://purl.org/dc/elements/1.1/" xmlns:cc="http://creativecommons.org/ns#" xmlns:rdf="http://www.w3.org/1999/02/22-rdf-syntax-ns#">
   <cc:Work>
    <dc:type rdf:resource="http://purl.org/dc/dcmitype/StillImage"/>
    <dc:date>2026-01-19T15:00:33.261592</dc:date>
    <dc:format>image/svg+xml</dc:format>
    <dc:creator>
     <cc:Agent>
      <dc:title>Matplotlib v3.10.8, https://matplotlib.org/</dc:title>
     </cc:Agent>
    </dc:creator>
   </cc:Work>
  </rdf:RDF>
 </metadata>
 <defs>
  <style type="text/css">*{stroke-linejoin: round; stroke-linecap: butt}</style>
 </defs>
 <g id="figure_1">
  <g id="patch_1">
   <path d="M 0 180 
L 288 180 
L 288 0 
L 0 0 
z
" style="fill: #ffffff"/>
  </g>
  <g id="axes_1">
   <g id="patch_2">
    <path d="M 46.73 141.64 
L 272.094545 141.64 
L 272.094545 31.92 
L 46.73 31.92 
z
" style="fill: #ffffff"/>
   </g>
   <g id="PathCollection_1">
    <path d="M 255.448301 39.028593 
C 256.010881 39.028593 256.550496 38.805077 256.948301 38.407273 
C 257.346105 38.009468 257.569621 37.469853 257.569621 36.907273 
C 257.569621 36.344692 257.346105 35.805077 256.948301 35.407273 
C 256.550496 35.009468 256.010881 34.785952 255.448301 34.785952 
C 254.88572 34.785952 254.346105 35.009468 253.948301 35.407273 
C 253.550496 35.805077 253.32698 36.344692 253.32698 36.907273 
C 253.32698 37.469853 253.550496 38.009468 253.948301 38.407273 
C 254.346105 38.805077 254.88572 39.028593 255.448301 39.028593 
z
" clip-path="url(#p7340862cae)" style="fill: #0000ff; stroke: #ffffff; stroke-width: 0.339411"/>
    <path d="M 245.844698 47.149413 
C 246.407279 47.149413 246.946893 46.925897 247.344698 46.528093 
C 247.742502 46.130288 247.966018 45.590673 247.966018 45.028093 
C 247.966018 44.465512 247.742502 43.925897 247.344698 43.528093 
C 246.946893 43.130288 246.407279 42.906772 245.844698 42.906772 
C 245.282117 42.906772 244.742502 43.130288 244.344698 43.528093 
C 243.946893 43.925897 243.723377 44.465512 243.723377 45.028093 
C 243.723377 45.590673 243.946893 46.130288 244.344698 46.528093 
C 244.742502 46.925897 245.282117 47.149413 245.844698 47.149413 
z
" clip-path="url(#p7340862cae)" style="fill: #0000ff; stroke: #ffffff; stroke-width: 0.339411"/>
    <path d="M 261.850702 39.38726 
C 262.413283 39.38726 262.952898 39.163744 263.350702 38.76594 
C 263.748507 38.368135 263.972023 37.82852 263.972023 37.26594 
C 263.972023 36.703359 263.748507 36.163744 263.350702 35.76594 
C 262.952898 35.368135 262.413283 35.144619 261.850702 35.144619 
C 261.288122 35.144619 260.748507 35.368135 260.350702 35.76594 
C 259.952898 36.163744 259.729382 36.703359 259.729382 37.26594 
C 259.729382 37.82852 259.952898 38.368135 260.350702 38.76594 
C 260.748507 39.163744 261.288122 39.38726 261.850702 39.38726 
z
" clip-path="url(#p7340862cae)" style="fill: #0000ff; stroke: #ffffff; stroke-width: 0.339411"/>
    <path d="M 210.631488 60.381467 
C 211.194068 60.381467 211.733683 60.157951 212.131488 59.760147 
C 212.529292 59.362342 212.752808 58.822727 212.752808 58.260147 
C 212.752808 57.697566 212.529292 57.157951 212.131488 56.760147 
C 211.733683 56.362342 211.194068 56.138826 210.631488 56.138826 
C 210.068907 56.138826 209.529292 56.362342 209.131488 56.760147 
C 208.733683 57.157951 208.510167 57.697566 208.510167 58.260147 
C 208.510167 58.822727 208.733683 59.362342 209.131488 59.760147 
C 209.529292 60.157951 210.068907 60.381467 210.631488 60.381467 
z
" clip-path="url(#p7340862cae)" style="fill: #0000ff; stroke: #ffffff; stroke-width: 0.339411"/>
    <path d="M 233.039894 57.360749 
C 233.602475 57.360749 234.142089 57.137233 234.539894 56.739429 
C 234.937699 56.341624 235.161214 55.802009 235.161214 55.239429 
C 235.161214 54.676848 234.937699 54.137233 234.539894 53.739429 
C 234.142089 53.341624 233.602475 53.118108 233.039894 53.118108 
C 232.477313 53.118108 231.937699 53.341624 231.539894 53.739429 
C 231.142089 54.137233 230.918574 54.676848 230.918574 55.239429 
C 230.918574 55.802009 231.142089 56.341624 231.539894 56.739429 
C 231.937699 57.137233 232.477313 57.360749 233.039894 57.360749 
z
" clip-path="url(#p7340862cae)" style="fill: #0000ff; stroke: #ffffff; stroke-width: 0.339411"/>
    <path d="M 220.23509 58.087118 
C 220.797671 58.087118 221.337286 57.863602 221.73509 57.465798 
C 222.132895 57.067993 222.356411 56.528379 222.356411 55.965798 
C 222.356411 55.403217 222.132895 54.863602 221.73509 54.465798 
C 221.337286 54.067993 220.797671 53.844478 220.23509 53.844478 
C 219.67251 53.844478 219.132895 54.067993 218.73509 54.465798 
C 218.337286 54.863602 218.11377 55.403217 218.11377 55.965798 
C 218.11377 56.528379 218.337286 57.067993 218.73509 57.465798 
C 219.132895 57.863602 219.67251 58.087118 220.23509 58.087118 
z
" clip-path="url(#p7340862cae)" style="fill: #0000ff; stroke: #ffffff; stroke-width: 0.339411"/>
    <path d="M 242.643497 54.25731 
C 243.206078 54.25731 243.745692 54.033794 244.143497 53.635989 
C 244.541302 53.238185 244.764817 52.69857 244.764817 52.135989 
C 244.764817 51.573409 244.541302 51.033794 244.143497 50.635989 
C 243.745692 50.238185 243.206078 50.014669 242.643497 50.014669 
C 242.080916 50.014669 241.541302 50.238185 241.143497 50.635989 
C 240.745692 51.033794 240.522177 51.573409 240.522177 52.135989 
C 240.522177 52.69857 240.745692 53.238185 241.143497 53.635989 
C 241.541302 54.033794 242.080916 54.25731 242.643497 54.25731 
z
" clip-path="url(#p7340862cae)" style="fill: #0000ff; stroke: #ffffff; stroke-width: 0.339411"/>
    <path d="M 242.643497 54.52008 
C 243.206078 54.52008 243.745692 54.296564 244.143497 53.89876 
C 244.541302 53.500955 244.764817 52.961341 244.764817 52.39876 
C 244.764817 51.836179 244.541302 51.296564 244.143497 50.89876 
C 243.745692 50.500955 243.206078 50.277439 242.643497 50.277439 
C 242.080916 50.277439 241.541302 50.500955 241.143497 50.89876 
C 240.745692 51.296564 240.522177 51.836179 240.522177 52.39876 
C 240.522177 52.961341 240.745692 53.500955 241.143497 53.89876 
C 241.541302 54.296564 242.080916 54.52008 242.643497 54.52008 
z
" clip-path="url(#p7340862cae)" style="fill: #0000ff; stroke: #ffffff; stroke-width: 0.339411"/>
    <path d="M 242.643497 54.129937 
C 243.206078 54.129937 243.745692 53.906422 244.143497 53.508617 
C 244.541302 53.110812 244.764817 52.571198 244.764817 52.008617 
C 244.764817 51.446036 244.541302 50.906422 244.143497 50.508617 
C 243.745692 50.110812 243.206078 49.887297 242.643497 49.887297 
C 242.080916 49.887297 241.541302 50.110812 241.143497 50.508617 
C 240.745692 50.906422 240.522177 51.446036 240.522177 52.008617 
C 240.522177 52.571198 240.745692 53.110812 241.143497 53.508617 
C 241.541302 53.906422 242.080916 54.129937 242.643497 54.129937 
z
" clip-path="url(#p7340862cae)" style="fill: #0000ff; stroke: #ffffff; stroke-width: 0.339411"/>
    <path d="M 242.643497 54.129937 
C 243.206078 54.129937 243.745692 53.906422 244.143497 53.508617 
C 244.541302 53.110812 244.764817 52.571198 244.764817 52.008617 
C 244.764817 51.446036 244.541302 50.906422 244.143497 50.508617 
C 243.745692 50.110812 243.206078 49.887297 242.643497 49.887297 
C 242.080916 49.887297 241.541302 50.110812 241.143497 50.508617 
C 240.745692 50.906422 240.522177 51.446036 240.522177 52.008617 
C 240.522177 52.571198 240.745692 53.110812 241.143497 53.508617 
C 241.541302 53.906422 242.080916 54.129937 242.643497 54.129937 
z
" clip-path="url(#p7340862cae)" style="fill: #0000ff; stroke: #ffffff; stroke-width: 0.339411"/>
    <path d="M 242.643497 54.787439 
C 243.206078 54.787439 243.745692 54.563923 244.143497 54.166118 
C 244.541302 53.768314 244.764817 53.228699 244.764817 52.666118 
C 244.764817 52.103538 244.541302 51.563923 244.143497 51.166118 
C 243.745692 50.768314 243.206078 50.544798 242.643497 50.544798 
C 242.080916 50.544798 241.541302 50.768314 241.143497 51.166118 
C 240.745692 51.563923 240.522177 52.103538 240.522177 52.666118 
C 240.522177 53.228699 240.745692 53.768314 241.143497 54.166118 
C 241.541302 54.563923 242.080916 54.787439 242.643497 54.787439 
z
" clip-path="url(#p7340862cae)" style="fill: #0000ff; stroke: #ffffff; stroke-width: 0.339411"/>
    <path d="M 242.643497 54.787589 
C 243.206078 54.787589 243.745692 54.564073 244.143497 54.166269 
C 244.541302 53.768464 244.764817 53.22885 244.764817 52.666269 
C 244.764817 52.103688 244.541302 51.564073 244.143497 51.166269 
C 243.745692 50.768464 243.206078 50.544949 242.643497 50.544949 
C 242.080916 50.544949 241.541302 50.768464 241.143497 51.166269 
C 240.745692 51.564073 240.522177 52.103688 240.522177 52.666269 
C 240.522177 53.22885 240.745692 53.768464 241.143497 54.166269 
C 241.541302 54.564073 242.080916 54.787589 242.643497 54.787589 
z
" clip-path="url(#p7340862cae)" style="fill: #0000ff; stroke: #ffffff; stroke-width: 0.339411"/>
    <path d="M 242.643497 55.313952 
C 243.206078 55.313952 243.745692 55.090437 244.143497 54.692632 
C 244.541302 54.294827 244.764817 53.755213 244.764817 53.192632 
C 244.764817 52.630051 244.541302 52.090437 244.143497 51.692632 
C 243.745692 51.294827 243.206078 51.071312 242.643497 51.071312 
C 242.080916 51.071312 241.541302 51.294827 241.143497 51.692632 
C 240.745692 52.090437 240.522177 52.630051 240.522177 53.192632 
C 240.522177 53.755213 240.745692 54.294827 241.143497 54.692632 
C 241.541302 55.090437 242.080916 55.313952 242.643497 55.313952 
z
" clip-path="url(#p7340862cae)" style="fill: #0000ff; stroke: #ffffff; stroke-width: 0.339411"/>
    <path d="M 239.442296 58.029084 
C 240.004877 58.029084 240.544491 57.805568 240.942296 57.407764 
C 241.340101 57.009959 241.563616 56.470344 241.563616 55.907764 
C 241.563616 55.345183 241.340101 54.805568 240.942296 54.407764 
C 240.544491 54.009959 240.004877 53.786443 239.442296 53.786443 
C 238.879715 53.786443 238.340101 54.009959 237.942296 54.407764 
C 237.544491 54.805568 237.320976 55.345183 237.320976 55.907764 
C 237.320976 56.470344 237.544491 57.009959 237.942296 57.407764 
C 238.340101 57.805568 238.879715 58.029084 239.442296 58.029084 
z
" clip-path="url(#p7340862cae)" style="fill: #0000ff; stroke: #ffffff; stroke-width: 0.339411"/>
    <path d="M 239.442296 58.029084 
C 240.004877 58.029084 240.544491 57.805568 240.942296 57.407764 
C 241.340101 57.009959 241.563616 56.470344 241.563616 55.907764 
C 241.563616 55.345183 241.340101 54.805568 240.942296 54.407764 
C 240.544491 54.009959 240.004877 53.786443 239.442296 53.786443 
C 238.879715 53.786443 238.340101 54.009959 237.942296 54.407764 
C 237.544491 54.805568 237.320976 55.345183 237.320976 55.907764 
C 237.320976 56.470344 237.544491 57.009959 237.942296 57.407764 
C 238.340101 57.805568 238.879715 58.029084 239.442296 58.029084 
z
" clip-path="url(#p7340862cae)" style="fill: #0000ff; stroke: #ffffff; stroke-width: 0.339411"/>
    <path d="M 239.442296 58.56125 
C 240.004877 58.56125 240.544491 58.337734 240.942296 57.939929 
C 241.340101 57.542125 241.563616 57.00251 241.563616 56.439929 
C 241.563616 55.877349 241.340101 55.337734 240.942296 54.939929 
C 240.544491 54.542125 240.004877 54.318609 239.442296 54.318609 
C 238.879715 54.318609 238.340101 54.542125 237.942296 54.939929 
C 237.544491 55.337734 237.320976 55.877349 237.320976 56.439929 
C 237.320976 57.00251 237.544491 57.542125 237.942296 57.939929 
C 238.340101 58.337734 238.879715 58.56125 239.442296 58.56125 
z
" clip-path="url(#p7340862cae)" style="fill: #0000ff; stroke: #ffffff; stroke-width: 0.339411"/>
    <path d="M 239.442296 58.56125 
C 240.004877 58.56125 240.544491 58.337734 240.942296 57.939929 
C 241.340101 57.542125 241.563616 57.00251 241.563616 56.439929 
C 241.563616 55.877349 241.340101 55.337734 240.942296 54.939929 
C 240.544491 54.542125 240.004877 54.318609 239.442296 54.318609 
C 238.879715 54.318609 238.340101 54.542125 237.942296 54.939929 
C 237.544491 55.337734 237.320976 55.877349 237.320976 56.439929 
C 237.320976 57.00251 237.544491 57.542125 237.942296 57.939929 
C 238.340101 58.337734 238.879715 58.56125 239.442296 58.56125 
z
" clip-path="url(#p7340862cae)" style="fill: #0000ff; stroke: #ffffff; stroke-width: 0.339411"/>
    <path d="M 239.442296 58.430334 
C 240.004877 58.430334 240.544491 58.206818 240.942296 57.809013 
C 241.340101 57.411209 241.563616 56.871594 241.563616 56.309013 
C 241.563616 55.746432 241.340101 55.206818 240.942296 54.809013 
C 240.544491 54.411209 240.004877 54.187693 239.442296 54.187693 
C 238.879715 54.187693 238.340101 54.411209 237.942296 54.809013 
C 237.544491 55.206818 237.320976 55.746432 237.320976 56.309013 
C 237.320976 56.871594 237.544491 57.411209 237.942296 57.809013 
C 238.340101 58.206818 238.879715 58.430334 239.442296 58.430334 
z
" clip-path="url(#p7340862cae)" style="fill: #0000ff; stroke: #ffffff; stroke-width: 0.339411"/>
    <path d="M 239.442296 58.562127 
C 240.004877 58.562127 240.544491 58.338612 240.942296 57.940807 
C 241.340101 57.543002 241.563616 57.003388 241.563616 56.440807 
C 241.563616 55.878226 241.340101 55.338612 240.942296 54.940807 
C 240.544491 54.543002 240.004877 54.319487 239.442296 54.319487 
C 238.879715 54.319487 238.340101 54.543002 237.942296 54.940807 
C 237.544491 55.338612 237.320976 55.878226 237.320976 56.440807 
C 237.320976 57.003388 237.544491 57.543002 237.942296 57.940807 
C 238.340101 58.338612 238.879715 58.562127 239.442296 58.562127 
z
" clip-path="url(#p7340862cae)" style="fill: #0000ff; stroke: #ffffff; stroke-width: 0.339411"/>
    <path d="M 239.442296 58.431053 
C 240.004877 58.431053 240.544491 58.207537 240.942296 57.809732 
C 241.340101 57.411928 241.563616 56.872313 241.563616 56.309732 
C 241.563616 55.747151 241.340101 55.207537 240.942296 54.809732 
C 240.544491 54.411928 240.004877 54.188412 239.442296 54.188412 
C 238.879715 54.188412 238.340101 54.411928 237.942296 54.809732 
C 237.544491 55.207537 237.320976 55.747151 237.320976 56.309732 
C 237.320976 56.872313 237.544491 57.411928 237.942296 57.809732 
C 238.340101 58.207537 238.879715 58.431053 239.442296 58.431053 
z
" clip-path="url(#p7340862cae)" style="fill: #0000ff; stroke: #ffffff; stroke-width: 0.339411"/>
    <path d="M 242.643497 57.221567 
C 243.206078 57.221567 243.745692 56.998052 244.143497 56.600247 
C 244.541302 56.202442 244.764817 55.662828 244.764817 55.100247 
C 244.764817 54.537666 244.541302 53.998052 244.143497 53.600247 
C 243.745692 53.202442 243.206078 52.978927 242.643497 52.978927 
C 242.080916 52.978927 241.541302 53.202442 241.143497 53.600247 
C 240.745692 53.998052 240.522177 54.537666 240.522177 55.100247 
C 240.522177 55.662828 240.745692 56.202442 241.143497 56.600247 
C 241.541302 56.998052 242.080916 57.221567 242.643497 57.221567 
z
" clip-path="url(#p7340862cae)" style="fill: #0000ff; stroke: #ffffff; stroke-width: 0.339411"/>
    <path d="M 242.643497 54.868837 
C 243.206078 54.868837 243.745692 54.645321 244.143497 54.247516 
C 244.541302 53.849712 244.764817 53.310097 244.764817 52.747516 
C 244.764817 52.184935 244.541302 51.645321 244.143497 51.247516 
C 243.745692 50.849712 243.206078 50.626196 242.643497 50.626196 
C 242.080916 50.626196 241.541302 50.849712 241.143497 51.247516 
C 240.745692 51.645321 240.522177 52.184935 240.522177 52.747516 
C 240.522177 53.310097 240.745692 53.849712 241.143497 54.247516 
C 241.541302 54.645321 242.080916 54.868837 242.643497 54.868837 
z
" clip-path="url(#p7340862cae)" style="fill: #0000ff; stroke: #ffffff; stroke-width: 0.339411"/>
    <path d="M 242.643497 54.737709 
C 243.206078 54.737709 243.745692 54.514193 244.143497 54.116388 
C 244.541302 53.718584 244.764817 53.178969 244.764817 52.616388 
C 244.764817 52.053808 244.541302 51.514193 244.143497 51.116388 
C 243.745692 50.718584 243.206078 50.495068 242.643497 50.495068 
C 242.080916 50.495068 241.541302 50.718584 241.143497 51.116388 
C 240.745692 51.514193 240.522177 52.053808 240.522177 52.616388 
C 240.522177 53.178969 240.745692 53.718584 241.143497 54.116388 
C 241.541302 54.514193 242.080916 54.737709 242.643497 54.737709 
z
" clip-path="url(#p7340862cae)" style="fill: #0000ff; stroke: #ffffff; stroke-width: 0.339411"/>
    <path d="M 242.643497 54.868055 
C 243.206078 54.868055 243.745692 54.644539 244.143497 54.246734 
C 244.541302 53.84893 244.764817 53.309315 244.764817 52.746734 
C 244.764817 52.184153 244.541302 51.644539 244.143497 51.246734 
C 243.745692 50.84893 243.206078 50.625414 242.643497 50.625414 
C 242.080916 50.625414 241.541302 50.84893 241.143497 51.246734 
C 240.745692 51.644539 240.522177 52.184153 240.522177 52.746734 
C 240.522177 53.309315 240.745692 53.84893 241.143497 54.246734 
C 241.541302 54.644539 242.080916 54.868055 242.643497 54.868055 
z
" clip-path="url(#p7340862cae)" style="fill: #0000ff; stroke: #ffffff; stroke-width: 0.339411"/>
    <path d="M 242.643497 54.868055 
C 243.206078 54.868055 243.745692 54.644539 244.143497 54.246734 
C 244.541302 53.84893 244.764817 53.309315 244.764817 52.746734 
C 244.764817 52.184153 244.541302 51.644539 244.143497 51.246734 
C 243.745692 50.84893 243.206078 50.625414 242.643497 50.625414 
C 242.080916 50.625414 241.541302 50.84893 241.143497 51.246734 
C 240.745692 51.644539 240.522177 52.184153 240.522177 52.746734 
C 240.522177 53.309315 240.745692 53.84893 241.143497 54.246734 
C 241.541302 54.644539 242.080916 54.868055 242.643497 54.868055 
z
" clip-path="url(#p7340862cae)" style="fill: #0000ff; stroke: #ffffff; stroke-width: 0.339411"/>
    <path d="M 245.844698 52.81269 
C 246.407279 52.81269 246.946893 52.589175 247.344698 52.19137 
C 247.742502 51.793565 247.966018 51.253951 247.966018 50.69137 
C 247.966018 50.128789 247.742502 49.589175 247.344698 49.19137 
C 246.946893 48.793565 246.407279 48.57005 245.844698 48.57005 
C 245.282117 48.57005 244.742502 48.793565 244.344698 49.19137 
C 243.946893 49.589175 243.723377 50.128789 243.723377 50.69137 
C 243.723377 51.253951 243.946893 51.793565 244.344698 52.19137 
C 244.742502 52.589175 245.282117 52.81269 245.844698 52.81269 
z
" clip-path="url(#p7340862cae)" style="fill: #0000ff; stroke: #ffffff; stroke-width: 0.339411"/>
    <path d="M 242.643497 57.012208 
C 243.206078 57.012208 243.745692 56.788693 244.143497 56.390888 
C 244.541302 55.993083 244.764817 55.453469 244.764817 54.890888 
C 244.764817 54.328307 244.541302 53.788693 244.143497 53.390888 
C 243.745692 52.993083 243.206078 52.769568 242.643497 52.769568 
C 242.080916 52.769568 241.541302 52.993083 241.143497 53.390888 
C 240.745692 53.788693 240.522177 54.328307 240.522177 54.890888 
C 240.522177 55.453469 240.745692 55.993083 241.143497 56.390888 
C 241.541302 56.788693 242.080916 57.012208 242.643497 57.012208 
z
" clip-path="url(#p7340862cae)" style="fill: #0000ff; stroke: #ffffff; stroke-width: 0.339411"/>
    <path d="M 242.643497 57.012208 
C 243.206078 57.012208 243.745692 56.788693 244.143497 56.390888 
C 244.541302 55.993083 244.764817 55.453469 244.764817 54.890888 
C 244.764817 54.328307 244.541302 53.788693 244.143497 53.390888 
C 243.745692 52.993083 243.206078 52.769568 242.643497 52.769568 
C 242.080916 52.769568 241.541302 52.993083 241.143497 53.390888 
C 240.745692 53.788693 240.522177 54.328307 240.522177 54.890888 
C 240.522177 55.453469 240.745692 55.993083 241.143497 56.390888 
C 241.541302 56.788693 242.080916 57.012208 242.643497 57.012208 
z
" clip-path="url(#p7340862cae)" style="fill: #0000ff; stroke: #ffffff; stroke-width: 0.339411"/>
    <path d="M 242.643497 57.012208 
C 243.206078 57.012208 243.745692 56.788693 244.143497 56.390888 
C 244.541302 55.993083 244.764817 55.453469 244.764817 54.890888 
C 244.764817 54.328307 244.541302 53.788693 244.143497 53.390888 
C 243.745692 52.993083 243.206078 52.769568 242.643497 52.769568 
C 242.080916 52.769568 241.541302 52.993083 241.143497 53.390888 
C 240.745692 53.788693 240.522177 54.328307 240.522177 54.890888 
C 240.522177 55.453469 240.745692 55.993083 241.143497 56.390888 
C 241.541302 56.788693 242.080916 57.012208 242.643497 57.012208 
z
" clip-path="url(#p7340862cae)" style="fill: #0000ff; stroke: #ffffff; stroke-width: 0.339411"/>
    <path d="M 233.039894 53.946647 
C 233.602475 53.946647 234.142089 53.723131 234.539894 53.325326 
C 234.937699 52.927522 235.161214 52.387907 235.161214 51.825326 
C 235.161214 51.262746 234.937699 50.723131 234.539894 50.325326 
C 234.142089 49.927522 233.602475 49.704006 233.039894 49.704006 
C 232.477313 49.704006 231.937699 49.927522 231.539894 50.325326 
C 231.142089 50.723131 230.918574 51.262746 230.918574 51.825326 
C 230.918574 52.387907 231.142089 52.927522 231.539894 53.325326 
C 231.937699 53.723131 232.477313 53.946647 233.039894 53.946647 
z
" clip-path="url(#p7340862cae)" style="fill: #0000ff; stroke: #ffffff; stroke-width: 0.339411"/>
    <path d="M 229.838693 60.373686 
C 230.401274 60.373686 230.940889 60.15017 231.338693 59.752366 
C 231.736498 59.354561 231.960014 58.814946 231.960014 58.252366 
C 231.960014 57.689785 231.736498 57.15017 231.338693 56.752366 
C 230.940889 56.354561 230.401274 56.131045 229.838693 56.131045 
C 229.276112 56.131045 228.736498 56.354561 228.338693 56.752366 
C 227.940889 57.15017 227.717373 57.689785 227.717373 58.252366 
C 227.717373 58.814946 227.940889 59.354561 228.338693 59.752366 
C 228.736498 60.15017 229.276112 60.373686 229.838693 60.373686 
z
" clip-path="url(#p7340862cae)" style="fill: #0000ff; stroke: #ffffff; stroke-width: 0.339411"/>
    <path d="M 159.412273 74.4327 
C 159.974853 74.4327 160.514468 74.209184 160.912273 73.811379 
C 161.310077 73.413575 161.533593 72.87396 161.533593 72.311379 
C 161.533593 71.748799 161.310077 71.209184 160.912273 70.811379 
C 160.514468 70.413575 159.974853 70.190059 159.412273 70.190059 
C 158.849692 70.190059 158.310077 70.413575 157.912273 70.811379 
C 157.514468 71.209184 157.290952 71.748799 157.290952 72.311379 
C 157.290952 72.87396 157.514468 73.413575 157.912273 73.811379 
C 158.310077 74.209184 158.849692 74.4327 159.412273 74.4327 
z
" clip-path="url(#p7340862cae)" style="fill: #0000ff; stroke: #ffffff; stroke-width: 0.339411"/>
    <path d="M 223.436291 76.314929 
C 223.998872 76.314929 224.538487 76.091413 224.936291 75.693608 
C 225.334096 75.295804 225.557612 74.756189 225.557612 74.193608 
C 225.557612 73.631028 225.334096 73.091413 224.936291 72.693608 
C 224.538487 72.295804 223.998872 72.072288 223.436291 72.072288 
C 222.873711 72.072288 222.334096 72.295804 221.936291 72.693608 
C 221.538487 73.091413 221.314971 73.631028 221.314971 74.193608 
C 221.314971 74.756189 221.538487 75.295804 221.936291 75.693608 
C 222.334096 76.091413 222.873711 76.314929 223.436291 76.314929 
z
" clip-path="url(#p7340862cae)" style="fill: #0000ff; stroke: #ffffff; stroke-width: 0.339411"/>
    <path d="M 223.436291 75.658049 
C 223.998872 75.658049 224.538487 75.434533 224.936291 75.036728 
C 225.334096 74.638924 225.557612 74.099309 225.557612 73.536728 
C 225.557612 72.974148 225.334096 72.434533 224.936291 72.036728 
C 224.538487 71.638924 223.998872 71.415408 223.436291 71.415408 
C 222.873711 71.415408 222.334096 71.638924 221.936291 72.036728 
C 221.538487 72.434533 221.314971 72.974148 221.314971 73.536728 
C 221.314971 74.099309 221.538487 74.638924 221.936291 75.036728 
C 222.334096 75.434533 222.873711 75.658049 223.436291 75.658049 
z
" clip-path="url(#p7340862cae)" style="fill: #0000ff; stroke: #ffffff; stroke-width: 0.339411"/>
    <path d="M 226.637492 75.253543 
C 227.200073 75.253543 227.739688 75.030027 228.137492 74.632223 
C 228.535297 74.234418 228.758813 73.694804 228.758813 73.132223 
C 228.758813 72.569642 228.535297 72.030027 228.137492 71.632223 
C 227.739688 71.234418 227.200073 71.010902 226.637492 71.010902 
C 226.074912 71.010902 225.535297 71.234418 225.137492 71.632223 
C 224.739688 72.030027 224.516172 72.569642 224.516172 73.132223 
C 224.516172 73.694804 224.739688 74.234418 225.137492 74.632223 
C 225.535297 75.030027 226.074912 75.253543 226.637492 75.253543 
z
" clip-path="url(#p7340862cae)" style="fill: #0000ff; stroke: #ffffff; stroke-width: 0.339411"/>
    <path d="M 226.637492 74.860236 
C 227.200073 74.860236 227.739688 74.63672 228.137492 74.238915 
C 228.535297 73.841111 228.758813 73.301496 228.758813 72.738915 
C 228.758813 72.176335 228.535297 71.63672 228.137492 71.238915 
C 227.739688 70.841111 227.200073 70.617595 226.637492 70.617595 
C 226.074912 70.617595 225.535297 70.841111 225.137492 71.238915 
C 224.739688 71.63672 224.516172 72.176335 224.516172 72.738915 
C 224.516172 73.301496 224.739688 73.841111 225.137492 74.238915 
C 225.535297 74.63672 226.074912 74.860236 226.637492 74.860236 
z
" clip-path="url(#p7340862cae)" style="fill: #0000ff; stroke: #ffffff; stroke-width: 0.339411"/>
    <path d="M 220.23509 76.187253 
C 220.797671 76.187253 221.337286 75.963737 221.73509 75.565933 
C 222.132895 75.168128 222.356411 74.628513 222.356411 74.065933 
C 222.356411 73.503352 222.132895 72.963737 221.73509 72.565933 
C 221.337286 72.168128 220.797671 71.944612 220.23509 71.944612 
C 219.67251 71.944612 219.132895 72.168128 218.73509 72.565933 
C 218.337286 72.963737 218.11377 73.503352 218.11377 74.065933 
C 218.11377 74.628513 218.337286 75.168128 218.73509 75.565933 
C 219.132895 75.963737 219.67251 76.187253 220.23509 76.187253 
z
" clip-path="url(#p7340862cae)" style="fill: #0000ff; stroke: #ffffff; stroke-width: 0.339411"/>
    <path d="M 220.23509 75.893106 
C 220.797671 75.893106 221.337286 75.669591 221.73509 75.271786 
C 222.132895 74.873982 222.356411 74.334367 222.356411 73.771786 
C 222.356411 73.209205 222.132895 72.669591 221.73509 72.271786 
C 221.337286 71.873982 220.797671 71.650466 220.23509 71.650466 
C 219.67251 71.650466 219.132895 71.873982 218.73509 72.271786 
C 218.337286 72.669591 218.11377 73.209205 218.11377 73.771786 
C 218.11377 74.334367 218.337286 74.873982 218.73509 75.271786 
C 219.132895 75.669591 219.67251 75.893106 220.23509 75.893106 
z
" clip-path="url(#p7340862cae)" style="fill: #0000ff; stroke: #ffffff; stroke-width: 0.339411"/>
    <path d="M 159.412273 75.265094 
C 159.974853 75.265094 160.514468 75.041579 160.912273 74.643774 
C 161.310077 74.245969 161.533593 73.706355 161.533593 73.143774 
C 161.533593 72.581193 161.310077 72.041579 160.912273 71.643774 
C 160.514468 71.245969 159.974853 71.022454 159.412273 71.022454 
C 158.849692 71.022454 158.310077 71.245969 157.912273 71.643774 
C 157.514468 72.041579 157.290952 72.581193 157.290952 73.143774 
C 157.290952 73.706355 157.514468 74.245969 157.912273 74.643774 
C 158.310077 75.041579 158.849692 75.265094 159.412273 75.265094 
z
" clip-path="url(#p7340862cae)" style="fill: #0000ff; stroke: #ffffff; stroke-width: 0.339411"/>
    <path d="M 204.229086 79.528299 
C 204.791666 79.528299 205.331281 79.304783 205.729086 78.906978 
C 206.12689 78.509174 206.350406 77.969559 206.350406 77.406978 
C 206.350406 76.844398 206.12689 76.304783 205.729086 75.906978 
C 205.331281 75.509174 204.791666 75.285658 204.229086 75.285658 
C 203.666505 75.285658 203.12689 75.509174 202.729086 75.906978 
C 202.331281 76.304783 202.107765 76.844398 202.107765 77.406978 
C 202.107765 77.969559 202.331281 78.509174 202.729086 78.906978 
C 203.12689 79.304783 203.666505 79.528299 204.229086 79.528299 
z
" clip-path="url(#p7340862cae)" style="fill: #0000ff; stroke: #ffffff; stroke-width: 0.339411"/>
    <path d="M 181.820679 79.250926 
C 182.38326 79.250926 182.922875 79.02741 183.320679 78.629606 
C 183.718484 78.231801 183.942 77.692186 183.942 77.129606 
C 183.942 76.567025 183.718484 76.02741 183.320679 75.629606 
C 182.922875 75.231801 182.38326 75.008285 181.820679 75.008285 
C 181.258099 75.008285 180.718484 75.231801 180.320679 75.629606 
C 179.922875 76.02741 179.699359 76.567025 179.699359 77.129606 
C 179.699359 77.692186 179.922875 78.231801 180.320679 78.629606 
C 180.718484 79.02741 181.258099 79.250926 181.820679 79.250926 
z
" clip-path="url(#p7340862cae)" style="fill: #0000ff; stroke: #ffffff; stroke-width: 0.339411"/>
    <path d="M 85.784651 81.811174 
C 86.347232 81.811174 86.886847 81.587658 87.284651 81.189854 
C 87.682456 80.792049 87.905972 80.252434 87.905972 79.689854 
C 87.905972 79.127273 87.682456 78.587658 87.284651 78.189854 
C 86.886847 77.792049 86.347232 77.568533 85.784651 77.568533 
C 85.222071 77.568533 84.682456 77.792049 84.284651 78.189854 
C 83.886847 78.587658 83.663331 79.127273 83.663331 79.689854 
C 83.663331 80.252434 83.886847 80.792049 84.284651 81.189854 
C 84.682456 81.587658 85.222071 81.811174 85.784651 81.811174 
z
" clip-path="url(#p7340862cae)" style="fill: #0000ff; stroke: #ffffff; stroke-width: 0.339411"/>
    <path d="M 220.23509 81.134303 
C 220.797671 81.134303 221.337286 80.910788 221.73509 80.512983 
C 222.132895 80.115179 222.356411 79.575564 222.356411 79.012983 
C 222.356411 78.450402 222.132895 77.910788 221.73509 77.512983 
C 221.337286 77.115179 220.797671 76.891663 220.23509 76.891663 
C 219.67251 76.891663 219.132895 77.115179 218.73509 77.512983 
C 218.337286 77.910788 218.11377 78.450402 218.11377 79.012983 
C 218.11377 79.575564 218.337286 80.115179 218.73509 80.512983 
C 219.132895 80.910788 219.67251 81.134303 220.23509 81.134303 
z
" clip-path="url(#p7340862cae)" style="fill: #0000ff; stroke: #ffffff; stroke-width: 0.339411"/>
    <path d="M 201.027885 69.855456 
C 201.590466 69.855456 202.13008 69.63194 202.527885 69.234135 
C 202.925689 68.836331 203.149205 68.296716 203.149205 67.734135 
C 203.149205 67.171555 202.925689 66.63194 202.527885 66.234135 
C 202.13008 65.836331 201.590466 65.612815 201.027885 65.612815 
C 200.465304 65.612815 199.925689 65.836331 199.527885 66.234135 
C 199.13008 66.63194 198.906564 67.171555 198.906564 67.734135 
C 198.906564 68.296716 199.13008 68.836331 199.527885 69.234135 
C 199.925689 69.63194 200.465304 69.855456 201.027885 69.855456 
z
" clip-path="url(#p7340862cae)" style="fill: #0000ff; stroke: #ffffff; stroke-width: 0.339411"/>
    <path d="M 220.23509 75.542935 
C 220.797671 75.542935 221.337286 75.319419 221.73509 74.921615 
C 222.132895 74.52381 222.356411 73.984195 222.356411 73.421615 
C 222.356411 72.859034 222.132895 72.319419 221.73509 71.921615 
C 221.337286 71.52381 220.797671 71.300294 220.23509 71.300294 
C 219.67251 71.300294 219.132895 71.52381 218.73509 71.921615 
C 218.337286 72.319419 218.11377 72.859034 218.11377 73.421615 
C 218.11377 73.984195 218.337286 74.52381 218.73509 74.921615 
C 219.132895 75.319419 219.67251 75.542935 220.23509 75.542935 
z
" clip-path="url(#p7340862cae)" style="fill: #0000ff; stroke: #ffffff; stroke-width: 0.339411"/>
    <path d="M 56.973843 138.774048 
C 57.536424 138.774048 58.076038 138.550532 58.473843 138.152727 
C 58.871648 137.754923 59.095163 137.215308 59.095163 136.652727 
C 59.095163 136.090147 58.871648 135.550532 58.473843 135.152727 
C 58.076038 134.754923 57.536424 134.531407 56.973843 134.531407 
C 56.411262 134.531407 55.871648 134.754923 55.473843 135.152727 
C 55.076038 135.550532 54.852523 136.090147 54.852523 136.652727 
C 54.852523 137.215308 55.076038 137.754923 55.473843 138.152727 
C 55.871648 138.550532 56.411262 138.774048 56.973843 138.774048 
z
" clip-path="url(#p7340862cae)" style="fill: #0000ff; stroke: #ffffff; stroke-width: 0.339411"/>
    <path d="M 149.80867 72.616676 
C 150.371251 72.616676 150.910865 72.393161 151.30867 71.995356 
C 151.706475 71.597551 151.92999 71.057937 151.92999 70.495356 
C 151.92999 69.932775 151.706475 69.393161 151.30867 68.995356 
C 150.910865 68.597551 150.371251 68.374036 149.80867 68.374036 
C 149.246089 68.374036 148.706475 68.597551 148.30867 68.995356 
C 147.910865 69.393161 147.68735 69.932775 147.68735 70.495356 
C 147.68735 71.057937 147.910865 71.597551 148.30867 71.995356 
C 148.706475 72.393161 149.246089 72.616676 149.80867 72.616676 
z
" clip-path="url(#p7340862cae)" style="fill: #0000ff; stroke: #ffffff; stroke-width: 0.339411"/>
    <path d="M 149.80867 72.616676 
C 150.371251 72.616676 150.910865 72.393161 151.30867 71.995356 
C 151.706475 71.597551 151.92999 71.057937 151.92999 70.495356 
C 151.92999 69.932775 151.706475 69.393161 151.30867 68.995356 
C 150.910865 68.597551 150.371251 68.374036 149.80867 68.374036 
C 149.246089 68.374036 148.706475 68.597551 148.30867 68.995356 
C 147.910865 69.393161 147.68735 69.932775 147.68735 70.495356 
C 147.68735 71.057937 147.910865 71.597551 148.30867 71.995356 
C 148.706475 72.393161 149.246089 72.616676 149.80867 72.616676 
z
" clip-path="url(#p7340862cae)" style="fill: #0000ff; stroke: #ffffff; stroke-width: 0.339411"/>
    <path d="M 149.80867 72.616676 
C 150.371251 72.616676 150.910865 72.393161 151.30867 71.995356 
C 151.706475 71.597551 151.92999 71.057937 151.92999 70.495356 
C 151.92999 69.932775 151.706475 69.393161 151.30867 68.995356 
C 150.910865 68.597551 150.371251 68.374036 149.80867 68.374036 
C 149.246089 68.374036 148.706475 68.597551 148.30867 68.995356 
C 147.910865 69.393161 147.68735 69.932775 147.68735 70.495356 
C 147.68735 71.057937 147.910865 71.597551 148.30867 71.995356 
C 148.706475 72.393161 149.246089 72.616676 149.80867 72.616676 
z
" clip-path="url(#p7340862cae)" style="fill: #0000ff; stroke: #ffffff; stroke-width: 0.339411"/>
    <path d="M 172.217076 62.749722 
C 172.779657 62.749722 173.319272 62.526206 173.717076 62.128402 
C 174.114881 61.730597 174.338397 61.190982 174.338397 60.628402 
C 174.338397 60.065821 174.114881 59.526206 173.717076 59.128402 
C 173.319272 58.730597 172.779657 58.507081 172.217076 58.507081 
C 171.654496 58.507081 171.114881 58.730597 170.717076 59.128402 
C 170.319272 59.526206 170.095756 60.065821 170.095756 60.628402 
C 170.095756 61.190982 170.319272 61.730597 170.717076 62.128402 
C 171.114881 62.526206 171.654496 62.749722 172.217076 62.749722 
z
" clip-path="url(#p7340862cae)" style="fill: #0000ff; stroke: #ffffff; stroke-width: 0.339411"/>
    <path d="M 178.619478 73.439093 
C 179.182059 73.439093 179.721674 73.215578 180.119478 72.817773 
C 180.517283 72.419968 180.740799 71.880354 180.740799 71.317773 
C 180.740799 70.755192 180.517283 70.215578 180.119478 69.817773 
C 179.721674 69.419968 179.182059 69.196453 178.619478 69.196453 
C 178.056898 69.196453 177.517283 69.419968 177.119478 69.817773 
C 176.721674 70.215578 176.498158 70.755192 176.498158 71.317773 
C 176.498158 71.880354 176.721674 72.419968 177.119478 72.817773 
C 177.517283 73.215578 178.056898 73.439093 178.619478 73.439093 
z
" clip-path="url(#p7340862cae)" style="fill: #0000ff; stroke: #ffffff; stroke-width: 0.339411"/>
    <path d="M 172.217076 73.309131 
C 172.779657 73.309131 173.319272 73.085616 173.717076 72.687811 
C 174.114881 72.290006 174.338397 71.750392 174.338397 71.187811 
C 174.338397 70.62523 174.114881 70.085616 173.717076 69.687811 
C 173.319272 69.290006 172.779657 69.066491 172.217076 69.066491 
C 171.654496 69.066491 171.114881 69.290006 170.717076 69.687811 
C 170.319272 70.085616 170.095756 70.62523 170.095756 71.187811 
C 170.095756 71.750392 170.319272 72.290006 170.717076 72.687811 
C 171.114881 73.085616 171.654496 73.309131 172.217076 73.309131 
z
" clip-path="url(#p7340862cae)" style="fill: #0000ff; stroke: #ffffff; stroke-width: 0.339411"/>
    <path d="M 210.631488 55.009416 
C 211.194068 55.009416 211.733683 54.7859 212.131488 54.388095 
C 212.529292 53.990291 212.752808 53.450676 212.752808 52.888095 
C 212.752808 52.325515 212.529292 51.7859 212.131488 51.388095 
C 211.733683 50.990291 211.194068 50.766775 210.631488 50.766775 
C 210.068907 50.766775 209.529292 50.990291 209.131488 51.388095 
C 208.733683 51.7859 208.510167 52.325515 208.510167 52.888095 
C 208.510167 53.450676 208.733683 53.990291 209.131488 54.388095 
C 209.529292 54.7859 210.068907 55.009416 210.631488 55.009416 
z
" clip-path="url(#p7340862cae)" style="fill: #0000ff; stroke: #ffffff; stroke-width: 0.339411"/>
    <path d="M 210.631488 52.737209 
C 211.194068 52.737209 211.733683 52.513693 212.131488 52.115889 
C 212.529292 51.718084 212.752808 51.178469 212.752808 50.615889 
C 212.752808 50.053308 212.529292 49.513693 212.131488 49.115889 
C 211.733683 48.718084 211.194068 48.494568 210.631488 48.494568 
C 210.068907 48.494568 209.529292 48.718084 209.131488 49.115889 
C 208.733683 49.513693 208.510167 50.053308 208.510167 50.615889 
C 208.510167 51.178469 208.733683 51.718084 209.131488 52.115889 
C 209.529292 52.513693 210.068907 52.737209 210.631488 52.737209 
z
" clip-path="url(#p7340862cae)" style="fill: #0000ff; stroke: #ffffff; stroke-width: 0.339411"/>
    <path d="M 210.631488 50.906329 
C 211.194068 50.906329 211.733683 50.682813 212.131488 50.285008 
C 212.529292 49.887204 212.752808 49.347589 212.752808 48.785008 
C 212.752808 48.222428 212.529292 47.682813 212.131488 47.285008 
C 211.733683 46.887204 211.194068 46.663688 210.631488 46.663688 
C 210.068907 46.663688 209.529292 46.887204 209.131488 47.285008 
C 208.733683 47.682813 208.510167 48.222428 208.510167 48.785008 
C 208.510167 49.347589 208.733683 49.887204 209.131488 50.285008 
C 209.529292 50.682813 210.068907 50.906329 210.631488 50.906329 
z
" clip-path="url(#p7340862cae)" style="fill: #0000ff; stroke: #ffffff; stroke-width: 0.339411"/>
    <path d="M 210.631488 56.57422 
C 211.194068 56.57422 211.733683 56.350704 212.131488 55.9529 
C 212.529292 55.555095 212.752808 55.01548 212.752808 54.4529 
C 212.752808 53.890319 212.529292 53.350704 212.131488 52.9529 
C 211.733683 52.555095 211.194068 52.331579 210.631488 52.331579 
C 210.068907 52.331579 209.529292 52.555095 209.131488 52.9529 
C 208.733683 53.350704 208.510167 53.890319 208.510167 54.4529 
C 208.510167 55.01548 208.733683 55.555095 209.131488 55.9529 
C 209.529292 56.350704 210.068907 56.57422 210.631488 56.57422 
z
" clip-path="url(#p7340862cae)" style="fill: #0000ff; stroke: #ffffff; stroke-width: 0.339411"/>
    <path d="M 207.430287 55.674762 
C 207.992867 55.674762 208.532482 55.451246 208.930287 55.053442 
C 209.328091 54.655637 209.551607 54.116023 209.551607 53.553442 
C 209.551607 52.990861 209.328091 52.451246 208.930287 52.053442 
C 208.532482 51.655637 207.992867 51.432121 207.430287 51.432121 
C 206.867706 51.432121 206.328091 51.655637 205.930287 52.053442 
C 205.532482 52.451246 205.308966 52.990861 205.308966 53.553442 
C 205.308966 54.116023 205.532482 54.655637 205.930287 55.053442 
C 206.328091 55.451246 206.867706 55.674762 207.430287 55.674762 
z
" clip-path="url(#p7340862cae)" style="fill: #0000ff; stroke: #ffffff; stroke-width: 0.339411"/>
    <path d="M 207.430287 54.891662 
C 207.992867 54.891662 208.532482 54.668146 208.930287 54.270341 
C 209.328091 53.872537 209.551607 53.332922 209.551607 52.770341 
C 209.551607 52.20776 209.328091 51.668146 208.930287 51.270341 
C 208.532482 50.872537 207.992867 50.649021 207.430287 50.649021 
C 206.867706 50.649021 206.328091 50.872537 205.930287 51.270341 
C 205.532482 51.668146 205.308966 52.20776 205.308966 52.770341 
C 205.308966 53.332922 205.532482 53.872537 205.930287 54.270341 
C 206.328091 54.668146 206.867706 54.891662 207.430287 54.891662 
z
" clip-path="url(#p7340862cae)" style="fill: #0000ff; stroke: #ffffff; stroke-width: 0.339411"/>
    <path d="M 207.430287 57.361435 
C 207.992867 57.361435 208.532482 57.137919 208.930287 56.740115 
C 209.328091 56.34231 209.551607 55.802696 209.551607 55.240115 
C 209.551607 54.677534 209.328091 54.137919 208.930287 53.740115 
C 208.532482 53.34231 207.992867 53.118794 207.430287 53.118794 
C 206.867706 53.118794 206.328091 53.34231 205.930287 53.740115 
C 205.532482 54.137919 205.308966 54.677534 205.308966 55.240115 
C 205.308966 55.802696 205.532482 56.34231 205.930287 56.740115 
C 206.328091 57.137919 206.867706 57.361435 207.430287 57.361435 
z
" clip-path="url(#p7340862cae)" style="fill: #0000ff; stroke: #ffffff; stroke-width: 0.339411"/>
    <path d="M 204.229086 57.239447 
C 204.791666 57.239447 205.331281 57.015931 205.729086 56.618126 
C 206.12689 56.220322 206.350406 55.680707 206.350406 55.118126 
C 206.350406 54.555545 206.12689 54.015931 205.729086 53.618126 
C 205.331281 53.220322 204.791666 52.996806 204.229086 52.996806 
C 203.666505 52.996806 203.12689 53.220322 202.729086 53.618126 
C 202.331281 54.015931 202.107765 54.555545 202.107765 55.118126 
C 202.107765 55.680707 202.331281 56.220322 202.729086 56.618126 
C 203.12689 57.015931 203.666505 57.239447 204.229086 57.239447 
z
" clip-path="url(#p7340862cae)" style="fill: #0000ff; stroke: #ffffff; stroke-width: 0.339411"/>
    <path d="M 181.820679 62.338819 
C 182.38326 62.338819 182.922875 62.115304 183.320679 61.717499 
C 183.718484 61.319694 183.942 60.78008 183.942 60.217499 
C 183.942 59.654918 183.718484 59.115304 183.320679 58.717499 
C 182.922875 58.319694 182.38326 58.096179 181.820679 58.096179 
C 181.258099 58.096179 180.718484 58.319694 180.320679 58.717499 
C 179.922875 59.115304 179.699359 59.654918 179.699359 60.217499 
C 179.699359 60.78008 179.922875 61.319694 180.320679 61.717499 
C 180.718484 62.115304 181.258099 62.338819 181.820679 62.338819 
z
" clip-path="url(#p7340862cae)" style="fill: #0000ff; stroke: #ffffff; stroke-width: 0.339411"/>
    <path d="M 185.02188 63.224328 
C 185.584461 63.224328 186.124076 63.000812 186.52188 62.603008 
C 186.919685 62.205203 187.143201 61.665588 187.143201 61.103008 
C 187.143201 60.540427 186.919685 60.000812 186.52188 59.603008 
C 186.124076 59.205203 185.584461 58.981687 185.02188 58.981687 
C 184.459299 58.981687 183.919685 59.205203 183.52188 59.603008 
C 183.124076 60.000812 182.90056 60.540427 182.90056 61.103008 
C 182.90056 61.665588 183.124076 62.205203 183.52188 62.603008 
C 183.919685 63.000812 184.459299 63.224328 185.02188 63.224328 
z
" clip-path="url(#p7340862cae)" style="fill: #0000ff; stroke: #ffffff; stroke-width: 0.339411"/>
    <path d="M 191.424282 63.737712 
C 191.986863 63.737712 192.526477 63.514196 192.924282 63.116391 
C 193.322087 62.718587 193.545602 62.178972 193.545602 61.616391 
C 193.545602 61.053811 193.322087 60.514196 192.924282 60.116391 
C 192.526477 59.718587 191.986863 59.495071 191.424282 59.495071 
C 190.861701 59.495071 190.322087 59.718587 189.924282 60.116391 
C 189.526477 60.514196 189.302962 61.053811 189.302962 61.616391 
C 189.302962 62.178972 189.526477 62.718587 189.924282 63.116391 
C 190.322087 63.514196 190.861701 63.737712 191.424282 63.737712 
z
" clip-path="url(#p7340862cae)" style="fill: #0000ff; stroke: #ffffff; stroke-width: 0.339411"/>
    <path d="M 185.02188 62.492125 
C 185.584461 62.492125 186.124076 62.268609 186.52188 61.870805 
C 186.919685 61.473 187.143201 60.933385 187.143201 60.370805 
C 187.143201 59.808224 186.919685 59.268609 186.52188 58.870805 
C 186.124076 58.473 185.584461 58.249484 185.02188 58.249484 
C 184.459299 58.249484 183.919685 58.473 183.52188 58.870805 
C 183.124076 59.268609 182.90056 59.808224 182.90056 60.370805 
C 182.90056 60.933385 183.124076 61.473 183.52188 61.870805 
C 183.919685 62.268609 184.459299 62.492125 185.02188 62.492125 
z
" clip-path="url(#p7340862cae)" style="fill: #0000ff; stroke: #ffffff; stroke-width: 0.339411"/>
    <path d="M 210.631488 54.708164 
C 211.194068 54.708164 211.733683 54.484649 212.131488 54.086844 
C 212.529292 53.689039 212.752808 53.149425 212.752808 52.586844 
C 212.752808 52.024263 212.529292 51.484649 212.131488 51.086844 
C 211.733683 50.689039 211.194068 50.465524 210.631488 50.465524 
C 210.068907 50.465524 209.529292 50.689039 209.131488 51.086844 
C 208.733683 51.484649 208.510167 52.024263 208.510167 52.586844 
C 208.510167 53.149425 208.733683 53.689039 209.131488 54.086844 
C 209.529292 54.484649 210.068907 54.708164 210.631488 54.708164 
z
" clip-path="url(#p7340862cae)" style="fill: #0000ff; stroke: #ffffff; stroke-width: 0.339411"/>
    <path d="M 201.027885 58.197155 
C 201.590466 58.197155 202.13008 57.973639 202.527885 57.575835 
C 202.925689 57.17803 203.149205 56.638416 203.149205 56.075835 
C 203.149205 55.513254 202.925689 54.973639 202.527885 54.575835 
C 202.13008 54.17803 201.590466 53.954514 201.027885 53.954514 
C 200.465304 53.954514 199.925689 54.17803 199.527885 54.575835 
C 199.13008 54.973639 198.906564 55.513254 198.906564 56.075835 
C 198.906564 56.638416 199.13008 57.17803 199.527885 57.575835 
C 199.925689 57.973639 200.465304 58.197155 201.027885 58.197155 
z
" clip-path="url(#p7340862cae)" style="fill: #0000ff; stroke: #ffffff; stroke-width: 0.339411"/>
   </g>
   <g id="matplotlib.axis_1">
    <g id="xtick_1">
     <g id="line2d_1">
      <defs>
       <path id="ma1fe2d9ed6" d="M 0 0 
L 0 3.5 
" style="stroke: #000000; stroke-width: 0.8"/>
      </defs>
      <g>
       <use xlink:href="#ma1fe2d9ed6" x="76.181049" y="141.64" style="stroke: #000000; stroke-width: 0.8"/>
      </g>
     </g>
     <g id="text_1">
      <!-- 1960 -->
      <g transform="translate(67.273549 153.958906) scale(0.07 -0.07)">
       <defs>
        <path id="DejaVuSans-31" d="M 794 531 
L 1825 531 
L 1825 4091 
L 703 3866 
L 703 4441 
L 1819 4666 
L 2450 4666 
L 2450 531 
L 3481 531 
L 3481 0 
L 794 0 
L 794 531 
z
" transform="scale(0.015625)"/>
        <path id="DejaVuSans-39" d="M 703 97 
L 703 672 
Q 941 559 1184 500 
Q 1428 441 1663 441 
Q 2288 441 2617 861 
Q 2947 1281 2994 2138 
Q 2813 1869 2534 1725 
Q 2256 1581 1919 1581 
Q 1219 1581 811 2004 
Q 403 2428 403 3163 
Q 403 3881 828 4315 
Q 1253 4750 1959 4750 
Q 2769 4750 3195 4129 
Q 3622 3509 3622 2328 
Q 3622 1225 3098 567 
Q 2575 -91 1691 -91 
Q 1453 -91 1209 -44 
Q 966 3 703 97 
z
M 1959 2075 
Q 2384 2075 2632 2365 
Q 2881 2656 2881 3163 
Q 2881 3666 2632 3958 
Q 2384 4250 1959 4250 
Q 1534 4250 1286 3958 
Q 1038 3666 1038 3163 
Q 1038 2656 1286 2365 
Q 1534 2075 1959 2075 
z
" transform="scale(0.015625)"/>
        <path id="DejaVuSans-36" d="M 2113 2584 
Q 1688 2584 1439 2293 
Q 1191 2003 1191 1497 
Q 1191 994 1439 701 
Q 1688 409 2113 409 
Q 2538 409 2786 701 
Q 3034 994 3034 1497 
Q 3034 2003 2786 2293 
Q 2538 2584 2113 2584 
z
M 3366 4563 
L 3366 3988 
Q 3128 4100 2886 4159 
Q 2644 4219 2406 4219 
Q 1781 4219 1451 3797 
Q 1122 3375 1075 2522 
Q 1259 2794 1537 2939 
Q 1816 3084 2150 3084 
Q 2853 3084 3261 2657 
Q 3669 2231 3669 1497 
Q 3669 778 3244 343 
Q 2819 -91 2113 -91 
Q 1303 -91 875 529 
Q 447 1150 447 2328 
Q 447 3434 972 4092 
Q 1497 4750 2381 4750 
Q 2619 4750 2861 4703 
Q 3103 4656 3366 4563 
z
" transform="scale(0.015625)"/>
        <path id="DejaVuSans-30" d="M 2034 4250 
Q 1547 4250 1301 3770 
Q 1056 3291 1056 2328 
Q 1056 1369 1301 889 
Q 1547 409 2034 409 
Q 2525 409 2770 889 
Q 3016 1369 3016 2328 
Q 3016 3291 2770 3770 
Q 2525 4250 2034 4250 
z
M 2034 4750 
Q 2819 4750 3233 4129 
Q 3647 3509 3647 2328 
Q 3647 1150 3233 529 
Q 2819 -91 2034 -91 
Q 1250 -91 836 529 
Q 422 1150 422 2328 
Q 422 3509 836 4129 
Q 1250 4750 2034 4750 
z
" transform="scale(0.015625)"/>
       </defs>
       <use xlink:href="#DejaVuSans-31"/>
       <use xlink:href="#DejaVuSans-39" transform="translate(63.623047 0)"/>
       <use xlink:href="#DejaVuSans-36" transform="translate(127.246094 0)"/>
       <use xlink:href="#DejaVuSans-30" transform="translate(190.869141 0)"/>
      </g>
     </g>
    </g>
    <g id="xtick_2">
     <g id="line2d_2">
      <g>
       <use xlink:href="#ma1fe2d9ed6" x="108.193058" y="141.64" style="stroke: #000000; stroke-width: 0.8"/>
      </g>
     </g>
     <g id="text_2">
      <!-- 1970 -->
      <g transform="translate(99.285558 153.958906) scale(0.07 -0.07)">
       <defs>
        <path id="DejaVuSans-37" d="M 525 4666 
L 3525 4666 
L 3525 4397 
L 1831 0 
L 1172 0 
L 2766 4134 
L 525 4134 
L 525 4666 
z
" transform="scale(0.015625)"/>
       </defs>
       <use xlink:href="#DejaVuSans-31"/>
       <use xlink:href="#DejaVuSans-39" transform="translate(63.623047 0)"/>
       <use xlink:href="#DejaVuSans-37" transform="translate(127.246094 0)"/>
       <use xlink:href="#DejaVuSans-30" transform="translate(190.869141 0)"/>
      </g>
     </g>
    </g>
    <g id="xtick_3">
     <g id="line2d_3">
      <g>
       <use xlink:href="#ma1fe2d9ed6" x="140.205067" y="141.64" style="stroke: #000000; stroke-width: 0.8"/>
      </g>
     </g>
     <g id="text_3">
      <!-- 1980 -->
      <g transform="translate(131.297567 153.958906) scale(0.07 -0.07)">
       <defs>
        <path id="DejaVuSans-38" d="M 2034 2216 
Q 1584 2216 1326 1975 
Q 1069 1734 1069 1313 
Q 1069 891 1326 650 
Q 1584 409 2034 409 
Q 2484 409 2743 651 
Q 3003 894 3003 1313 
Q 3003 1734 2745 1975 
Q 2488 2216 2034 2216 
z
M 1403 2484 
Q 997 2584 770 2862 
Q 544 3141 544 3541 
Q 544 4100 942 4425 
Q 1341 4750 2034 4750 
Q 2731 4750 3128 4425 
Q 3525 4100 3525 3541 
Q 3525 3141 3298 2862 
Q 3072 2584 2669 2484 
Q 3125 2378 3379 2068 
Q 3634 1759 3634 1313 
Q 3634 634 3220 271 
Q 2806 -91 2034 -91 
Q 1263 -91 848 271 
Q 434 634 434 1313 
Q 434 1759 690 2068 
Q 947 2378 1403 2484 
z
M 1172 3481 
Q 1172 3119 1398 2916 
Q 1625 2713 2034 2713 
Q 2441 2713 2670 2916 
Q 2900 3119 2900 3481 
Q 2900 3844 2670 4047 
Q 2441 4250 2034 4250 
Q 1625 4250 1398 4047 
Q 1172 3844 1172 3481 
z
" transform="scale(0.015625)"/>
       </defs>
       <use xlink:href="#DejaVuSans-31"/>
       <use xlink:href="#DejaVuSans-39" transform="translate(63.623047 0)"/>
       <use xlink:href="#DejaVuSans-38" transform="translate(127.246094 0)"/>
       <use xlink:href="#DejaVuSans-30" transform="translate(190.869141 0)"/>
      </g>
     </g>
    </g>
    <g id="xtick_4">
     <g id="line2d_4">
      <g>
       <use xlink:href="#ma1fe2d9ed6" x="172.217076" y="141.64" style="stroke: #000000; stroke-width: 0.8"/>
      </g>
     </g>
     <g id="text_4">
      <!-- 1990 -->
      <g transform="translate(163.309576 153.958906) scale(0.07 -0.07)">
       <use xlink:href="#DejaVuSans-31"/>
       <use xlink:href="#DejaVuSans-39" transform="translate(63.623047 0)"/>
       <use xlink:href="#DejaVuSans-39" transform="translate(127.246094 0)"/>
       <use xlink:href="#DejaVuSans-30" transform="translate(190.869141 0)"/>
      </g>
     </g>
    </g>
    <g id="xtick_5">
     <g id="line2d_5">
      <g>
       <use xlink:href="#ma1fe2d9ed6" x="204.229086" y="141.64" style="stroke: #000000; stroke-width: 0.8"/>
      </g>
     </g>
     <g id="text_5">
      <!-- 2000 -->
      <g transform="translate(195.321586 153.958906) scale(0.07 -0.07)">
       <defs>
        <path id="DejaVuSans-32" d="M 1228 531 
L 3431 531 
L 3431 0 
L 469 0 
L 469 531 
Q 828 903 1448 1529 
Q 2069 2156 2228 2338 
Q 2531 2678 2651 2914 
Q 2772 3150 2772 3378 
Q 2772 3750 2511 3984 
Q 2250 4219 1831 4219 
Q 1534 4219 1204 4116 
Q 875 4013 500 3803 
L 500 4441 
Q 881 4594 1212 4672 
Q 1544 4750 1819 4750 
Q 2544 4750 2975 4387 
Q 3406 4025 3406 3419 
Q 3406 3131 3298 2873 
Q 3191 2616 2906 2266 
Q 2828 2175 2409 1742 
Q 1991 1309 1228 531 
z
" transform="scale(0.015625)"/>
       </defs>
       <use xlink:href="#DejaVuSans-32"/>
       <use xlink:href="#DejaVuSans-30" transform="translate(63.623047 0)"/>
       <use xlink:href="#DejaVuSans-30" transform="translate(127.246094 0)"/>
       <use xlink:href="#DejaVuSans-30" transform="translate(190.869141 0)"/>
      </g>
     </g>
    </g>
    <g id="xtick_6">
     <g id="line2d_6">
      <g>
       <use xlink:href="#ma1fe2d9ed6" x="236.241095" y="141.64" style="stroke: #000000; stroke-width: 0.8"/>
      </g>
     </g>
     <g id="text_6">
      <!-- 2010 -->
      <g transform="translate(227.333595 153.958906) scale(0.07 -0.07)">
       <use xlink:href="#DejaVuSans-32"/>
       <use xlink:href="#DejaVuSans-30" transform="translate(63.623047 0)"/>
       <use xlink:href="#DejaVuSans-31" transform="translate(127.246094 0)"/>
       <use xlink:href="#DejaVuSans-30" transform="translate(190.869141 0)"/>
      </g>
     </g>
    </g>
    <g id="xtick_7">
     <g id="line2d_7">
      <g>
       <use xlink:href="#ma1fe2d9ed6" x="268.253104" y="141.64" style="stroke: #000000; stroke-width: 0.8"/>
      </g>
     </g>
     <g id="text_7">
      <!-- 2020 -->
      <g transform="translate(259.345604 153.958906) scale(0.07 -0.07)">
       <use xlink:href="#DejaVuSans-32"/>
       <use xlink:href="#DejaVuSans-30" transform="translate(63.623047 0)"/>
       <use xlink:href="#DejaVuSans-32" transform="translate(127.246094 0)"/>
       <use xlink:href="#DejaVuSans-30" transform="translate(190.869141 0)"/>
      </g>
     </g>
    </g>
    <g id="text_8">
     <!-- Collection year -->
     <g transform="translate(125.683366 166.253281) scale(0.09 -0.09)">
      <defs>
       <path id="DejaVuSans-43" d="M 4122 4306 
L 4122 3641 
Q 3803 3938 3442 4084 
Q 3081 4231 2675 4231 
Q 1875 4231 1450 3742 
Q 1025 3253 1025 2328 
Q 1025 1406 1450 917 
Q 1875 428 2675 428 
Q 3081 428 3442 575 
Q 3803 722 4122 1019 
L 4122 359 
Q 3791 134 3420 21 
Q 3050 -91 2638 -91 
Q 1578 -91 968 557 
Q 359 1206 359 2328 
Q 359 3453 968 4101 
Q 1578 4750 2638 4750 
Q 3056 4750 3426 4639 
Q 3797 4528 4122 4306 
z
" transform="scale(0.015625)"/>
       <path id="DejaVuSans-6f" d="M 1959 3097 
Q 1497 3097 1228 2736 
Q 959 2375 959 1747 
Q 959 1119 1226 758 
Q 1494 397 1959 397 
Q 2419 397 2687 759 
Q 2956 1122 2956 1747 
Q 2956 2369 2687 2733 
Q 2419 3097 1959 3097 
z
M 1959 3584 
Q 2709 3584 3137 3096 
Q 3566 2609 3566 1747 
Q 3566 888 3137 398 
Q 2709 -91 1959 -91 
Q 1206 -91 779 398 
Q 353 888 353 1747 
Q 353 2609 779 3096 
Q 1206 3584 1959 3584 
z
" transform="scale(0.015625)"/>
       <path id="DejaVuSans-6c" d="M 603 4863 
L 1178 4863 
L 1178 0 
L 603 0 
L 603 4863 
z
" transform="scale(0.015625)"/>
       <path id="DejaVuSans-65" d="M 3597 1894 
L 3597 1613 
L 953 1613 
Q 991 1019 1311 708 
Q 1631 397 2203 397 
Q 2534 397 2845 478 
Q 3156 559 3463 722 
L 3463 178 
Q 3153 47 2828 -22 
Q 2503 -91 2169 -91 
Q 1331 -91 842 396 
Q 353 884 353 1716 
Q 353 2575 817 3079 
Q 1281 3584 2069 3584 
Q 2775 3584 3186 3129 
Q 3597 2675 3597 1894 
z
M 3022 2063 
Q 3016 2534 2758 2815 
Q 2500 3097 2075 3097 
Q 1594 3097 1305 2825 
Q 1016 2553 972 2059 
L 3022 2063 
z
" transform="scale(0.015625)"/>
       <path id="DejaVuSans-63" d="M 3122 3366 
L 3122 2828 
Q 2878 2963 2633 3030 
Q 2388 3097 2138 3097 
Q 1578 3097 1268 2742 
Q 959 2388 959 1747 
Q 959 1106 1268 751 
Q 1578 397 2138 397 
Q 2388 397 2633 464 
Q 2878 531 3122 666 
L 3122 134 
Q 2881 22 2623 -34 
Q 2366 -91 2075 -91 
Q 1284 -91 818 406 
Q 353 903 353 1747 
Q 353 2603 823 3093 
Q 1294 3584 2113 3584 
Q 2378 3584 2631 3529 
Q 2884 3475 3122 3366 
z
" transform="scale(0.015625)"/>
       <path id="DejaVuSans-74" d="M 1172 4494 
L 1172 3500 
L 2356 3500 
L 2356 3053 
L 1172 3053 
L 1172 1153 
Q 1172 725 1289 603 
Q 1406 481 1766 481 
L 2356 481 
L 2356 0 
L 1766 0 
Q 1100 0 847 248 
Q 594 497 594 1153 
L 594 3053 
L 172 3053 
L 172 3500 
L 594 3500 
L 594 4494 
L 1172 4494 
z
" transform="scale(0.015625)"/>
       <path id="DejaVuSans-69" d="M 603 3500 
L 1178 3500 
L 1178 0 
L 603 0 
L 603 3500 
z
M 603 4863 
L 1178 4863 
L 1178 4134 
L 603 4134 
L 603 4863 
z
" transform="scale(0.015625)"/>
       <path id="DejaVuSans-6e" d="M 3513 2113 
L 3513 0 
L 2938 0 
L 2938 2094 
Q 2938 2591 2744 2837 
Q 2550 3084 2163 3084 
Q 1697 3084 1428 2787 
Q 1159 2491 1159 1978 
L 1159 0 
L 581 0 
L 581 3500 
L 1159 3500 
L 1159 2956 
Q 1366 3272 1645 3428 
Q 1925 3584 2291 3584 
Q 2894 3584 3203 3211 
Q 3513 2838 3513 2113 
z
" transform="scale(0.015625)"/>
       <path id="DejaVuSans-20" transform="scale(0.015625)"/>
       <path id="DejaVuSans-79" d="M 2059 -325 
Q 1816 -950 1584 -1140 
Q 1353 -1331 966 -1331 
L 506 -1331 
L 506 -850 
L 844 -850 
Q 1081 -850 1212 -737 
Q 1344 -625 1503 -206 
L 1606 56 
L 191 3500 
L 800 3500 
L 1894 763 
L 2988 3500 
L 3597 3500 
L 2059 -325 
z
" transform="scale(0.015625)"/>
       <path id="DejaVuSans-61" d="M 2194 1759 
Q 1497 1759 1228 1600 
Q 959 1441 959 1056 
Q 959 750 1161 570 
Q 1363 391 1709 391 
Q 2188 391 2477 730 
Q 2766 1069 2766 1631 
L 2766 1759 
L 2194 1759 
z
M 3341 1997 
L 3341 0 
L 2766 0 
L 2766 531 
Q 2569 213 2275 61 
Q 1981 -91 1556 -91 
Q 1019 -91 701 211 
Q 384 513 384 1019 
Q 384 1609 779 1909 
Q 1175 2209 1959 2209 
L 2766 2209 
L 2766 2266 
Q 2766 2663 2505 2880 
Q 2244 3097 1772 3097 
Q 1472 3097 1187 3025 
Q 903 2953 641 2809 
L 641 3341 
Q 956 3463 1253 3523 
Q 1550 3584 1831 3584 
Q 2591 3584 2966 3190 
Q 3341 2797 3341 1997 
z
" transform="scale(0.015625)"/>
       <path id="DejaVuSans-72" d="M 2631 2963 
Q 2534 3019 2420 3045 
Q 2306 3072 2169 3072 
Q 1681 3072 1420 2755 
Q 1159 2438 1159 1844 
L 1159 0 
L 581 0 
L 581 3500 
L 1159 3500 
L 1159 2956 
Q 1341 3275 1631 3429 
Q 1922 3584 2338 3584 
Q 2397 3584 2469 3576 
Q 2541 3569 2628 3553 
L 2631 2963 
z
" transform="scale(0.015625)"/>
      </defs>
      <use xlink:href="#DejaVuSans-43"/>
      <use xlink:href="#DejaVuSans-6f" transform="translate(69.824219 0)"/>
      <use xlink:href="#DejaVuSans-6c" transform="translate(131.005859 0)"/>
      <use xlink:href="#DejaVuSans-6c" transform="translate(158.789062 0)"/>
      <use xlink:href="#DejaVuSans-65" transform="translate(186.572266 0)"/>
      <use xlink:href="#DejaVuSans-63" transform="translate(248.095703 0)"/>
      <use xlink:href="#DejaVuSans-74" transform="translate(303.076172 0)"/>
      <use xlink:href="#DejaVuSans-69" transform="translate(342.285156 0)"/>
      <use xlink:href="#DejaVuSans-6f" transform="translate(370.068359 0)"/>
      <use xlink:href="#DejaVuSans-6e" transform="translate(431.25 0)"/>
      <use xlink:href="#DejaVuSans-20" transform="translate(494.628906 0)"/>
      <use xlink:href="#DejaVuSans-79" transform="translate(526.416016 0)"/>
      <use xlink:href="#DejaVuSans-65" transform="translate(585.595703 0)"/>
      <use xlink:href="#DejaVuSans-61" transform="translate(647.119141 0)"/>
      <use xlink:href="#DejaVuSans-72" transform="translate(708.398438 0)"/>
     </g>
    </g>
   </g>
   <g id="matplotlib.axis_2">
    <g id="ytick_1">
     <g id="line2d_8">
      <defs>
       <path id="m1962df66c5" d="M 0 0 
L -3.5 0 
" style="stroke: #000000; stroke-width: 0.8"/>
      </defs>
      <g>
       <use xlink:href="#m1962df66c5" x="46.73" y="136.652727" style="stroke: #000000; stroke-width: 0.8"/>
      </g>
     </g>
     <g id="text_9">
      <!-- 0.0 -->
      <g transform="translate(28.597812 139.31218) scale(0.07 -0.07)">
       <defs>
        <path id="DejaVuSans-2e" d="M 684 794 
L 1344 794 
L 1344 0 
L 684 0 
L 684 794 
z
" transform="scale(0.015625)"/>
       </defs>
       <use xlink:href="#DejaVuSans-30"/>
       <use xlink:href="#DejaVuSans-2e" transform="translate(63.623047 0)"/>
       <use xlink:href="#DejaVuSans-30" transform="translate(95.410156 0)"/>
      </g>
     </g>
    </g>
    <g id="ytick_2">
     <g id="line2d_9">
      <g>
       <use xlink:href="#m1962df66c5" x="46.73" y="110.341486" style="stroke: #000000; stroke-width: 0.8"/>
      </g>
     </g>
     <g id="text_10">
      <!-- 0.1 -->
      <g transform="translate(28.597812 113.000939) scale(0.07 -0.07)">
       <use xlink:href="#DejaVuSans-30"/>
       <use xlink:href="#DejaVuSans-2e" transform="translate(63.623047 0)"/>
       <use xlink:href="#DejaVuSans-31" transform="translate(95.410156 0)"/>
      </g>
     </g>
    </g>
    <g id="ytick_3">
     <g id="line2d_10">
      <g>
       <use xlink:href="#m1962df66c5" x="46.73" y="84.030244" style="stroke: #000000; stroke-width: 0.8"/>
      </g>
     </g>
     <g id="text_11">
      <!-- 0.2 -->
      <g transform="translate(28.597812 86.689698) scale(0.07 -0.07)">
       <use xlink:href="#DejaVuSans-30"/>
       <use xlink:href="#DejaVuSans-2e" transform="translate(63.623047 0)"/>
       <use xlink:href="#DejaVuSans-32" transform="translate(95.410156 0)"/>
      </g>
     </g>
    </g>
    <g id="ytick_4">
     <g id="line2d_11">
      <g>
       <use xlink:href="#m1962df66c5" x="46.73" y="57.719003" style="stroke: #000000; stroke-width: 0.8"/>
      </g>
     </g>
     <g id="text_12">
      <!-- 0.3 -->
      <g transform="translate(28.597812 60.378456) scale(0.07 -0.07)">
       <defs>
        <path id="DejaVuSans-33" d="M 2597 2516 
Q 3050 2419 3304 2112 
Q 3559 1806 3559 1356 
Q 3559 666 3084 287 
Q 2609 -91 1734 -91 
Q 1441 -91 1130 -33 
Q 819 25 488 141 
L 488 750 
Q 750 597 1062 519 
Q 1375 441 1716 441 
Q 2309 441 2620 675 
Q 2931 909 2931 1356 
Q 2931 1769 2642 2001 
Q 2353 2234 1838 2234 
L 1294 2234 
L 1294 2753 
L 1863 2753 
Q 2328 2753 2575 2939 
Q 2822 3125 2822 3475 
Q 2822 3834 2567 4026 
Q 2313 4219 1838 4219 
Q 1578 4219 1281 4162 
Q 984 4106 628 3988 
L 628 4550 
Q 988 4650 1302 4700 
Q 1616 4750 1894 4750 
Q 2613 4750 3031 4423 
Q 3450 4097 3450 3541 
Q 3450 3153 3228 2886 
Q 3006 2619 2597 2516 
z
" transform="scale(0.015625)"/>
       </defs>
       <use xlink:href="#DejaVuSans-30"/>
       <use xlink:href="#DejaVuSans-2e" transform="translate(63.623047 0)"/>
       <use xlink:href="#DejaVuSans-33" transform="translate(95.410156 0)"/>
      </g>
     </g>
    </g>
    <g id="text_13">
     <!-- Root-to-tip distance -->
     <g transform="translate(22.726094 131.193594) rotate(-90) scale(0.09 -0.09)">
      <defs>
       <path id="DejaVuSans-52" d="M 2841 2188 
Q 3044 2119 3236 1894 
Q 3428 1669 3622 1275 
L 4263 0 
L 3584 0 
L 2988 1197 
Q 2756 1666 2539 1819 
Q 2322 1972 1947 1972 
L 1259 1972 
L 1259 0 
L 628 0 
L 628 4666 
L 2053 4666 
Q 2853 4666 3247 4331 
Q 3641 3997 3641 3322 
Q 3641 2881 3436 2590 
Q 3231 2300 2841 2188 
z
M 1259 4147 
L 1259 2491 
L 2053 2491 
Q 2509 2491 2742 2702 
Q 2975 2913 2975 3322 
Q 2975 3731 2742 3939 
Q 2509 4147 2053 4147 
L 1259 4147 
z
" transform="scale(0.015625)"/>
       <path id="DejaVuSans-2d" d="M 313 2009 
L 1997 2009 
L 1997 1497 
L 313 1497 
L 313 2009 
z
" transform="scale(0.015625)"/>
       <path id="DejaVuSans-70" d="M 1159 525 
L 1159 -1331 
L 581 -1331 
L 581 3500 
L 1159 3500 
L 1159 2969 
Q 1341 3281 1617 3432 
Q 1894 3584 2278 3584 
Q 2916 3584 3314 3078 
Q 3713 2572 3713 1747 
Q 3713 922 3314 415 
Q 2916 -91 2278 -91 
Q 1894 -91 1617 61 
Q 1341 213 1159 525 
z
M 3116 1747 
Q 3116 2381 2855 2742 
Q 2594 3103 2138 3103 
Q 1681 3103 1420 2742 
Q 1159 2381 1159 1747 
Q 1159 1113 1420 752 
Q 1681 391 2138 391 
Q 2594 391 2855 752 
Q 3116 1113 3116 1747 
z
" transform="scale(0.015625)"/>
       <path id="DejaVuSans-64" d="M 2906 2969 
L 2906 4863 
L 3481 4863 
L 3481 0 
L 2906 0 
L 2906 525 
Q 2725 213 2448 61 
Q 2172 -91 1784 -91 
Q 1150 -91 751 415 
Q 353 922 353 1747 
Q 353 2572 751 3078 
Q 1150 3584 1784 3584 
Q 2172 3584 2448 3432 
Q 2725 3281 2906 2969 
z
M 947 1747 
Q 947 1113 1208 752 
Q 1469 391 1925 391 
Q 2381 391 2643 752 
Q 2906 1113 2906 1747 
Q 2906 2381 2643 2742 
Q 2381 3103 1925 3103 
Q 1469 3103 1208 2742 
Q 947 2381 947 1747 
z
" transform="scale(0.015625)"/>
       <path id="DejaVuSans-73" d="M 2834 3397 
L 2834 2853 
Q 2591 2978 2328 3040 
Q 2066 3103 1784 3103 
Q 1356 3103 1142 2972 
Q 928 2841 928 2578 
Q 928 2378 1081 2264 
Q 1234 2150 1697 2047 
L 1894 2003 
Q 2506 1872 2764 1633 
Q 3022 1394 3022 966 
Q 3022 478 2636 193 
Q 2250 -91 1575 -91 
Q 1294 -91 989 -36 
Q 684 19 347 128 
L 347 722 
Q 666 556 975 473 
Q 1284 391 1588 391 
Q 1994 391 2212 530 
Q 2431 669 2431 922 
Q 2431 1156 2273 1281 
Q 2116 1406 1581 1522 
L 1381 1569 
Q 847 1681 609 1914 
Q 372 2147 372 2553 
Q 372 3047 722 3315 
Q 1072 3584 1716 3584 
Q 2034 3584 2315 3537 
Q 2597 3491 2834 3397 
z
" transform="scale(0.015625)"/>
      </defs>
      <use xlink:href="#DejaVuSans-52"/>
      <use xlink:href="#DejaVuSans-6f" transform="translate(64.982422 0)"/>
      <use xlink:href="#DejaVuSans-6f" transform="translate(126.164062 0)"/>
      <use xlink:href="#DejaVuSans-74" transform="translate(187.345703 0)"/>
      <use xlink:href="#DejaVuSans-2d" transform="translate(226.554688 0)"/>
      <use xlink:href="#DejaVuSans-74" transform="translate(262.638672 0)"/>
      <use xlink:href="#DejaVuSans-6f" transform="translate(301.847656 0)"/>
      <use xlink:href="#DejaVuSans-2d" transform="translate(364.904297 0)"/>
      <use xlink:href="#DejaVuSans-74" transform="translate(400.988281 0)"/>
      <use xlink:href="#DejaVuSans-69" transform="translate(440.197266 0)"/>
      <use xlink:href="#DejaVuSans-70" transform="translate(467.980469 0)"/>
      <use xlink:href="#DejaVuSans-20" transform="translate(531.457031 0)"/>
      <use xlink:href="#DejaVuSans-64" transform="translate(563.244141 0)"/>
      <use xlink:href="#DejaVuSans-69" transform="translate(626.720703 0)"/>
      <use xlink:href="#DejaVuSans-73" transform="translate(654.503906 0)"/>
      <use xlink:href="#DejaVuSans-74" transform="translate(706.603516 0)"/>
      <use xlink:href="#DejaVuSans-61" transform="translate(745.8125 0)"/>
      <use xlink:href="#DejaVuSans-6e" transform="translate(807.091797 0)"/>
      <use xlink:href="#DejaVuSans-63" transform="translate(870.470703 0)"/>
      <use xlink:href="#DejaVuSans-65" transform="translate(925.451172 0)"/>
     </g>
    </g>
   </g>
   <g id="line2d_12"/>
   <g id="line2d_13">
    <path d="M 56.973843 102.681925 
L 59.043306 102.126693 
L 61.112769 101.571461 
L 63.182233 101.016229 
L 65.251696 100.460997 
L 67.321159 99.905765 
L 69.390622 99.350533 
L 71.460086 98.795301 
L 73.529549 98.240069 
L 75.599012 97.684837 
L 77.668475 97.129605 
L 79.737938 96.574373 
L 81.807402 96.019141 
L 83.876865 95.463909 
L 85.946328 94.908677 
L 88.015791 94.353445 
L 90.085255 93.798213 
L 92.154718 93.242981 
L 94.224181 92.687749 
L 96.293644 92.132517 
L 98.363108 91.577285 
L 100.432571 91.022053 
L 102.502034 90.466821 
L 104.571497 89.911589 
L 106.64096 89.356357 
L 108.710424 88.801125 
L 110.779887 88.245893 
L 112.84935 87.690661 
L 114.918813 87.135429 
L 116.988277 86.580197 
L 119.05774 86.024965 
L 121.127203 85.469733 
L 123.196666 84.914501 
L 125.266129 84.359269 
L 127.335593 83.804037 
L 129.405056 83.248805 
L 131.474519 82.693573 
L 133.543982 82.138341 
L 135.613446 81.583109 
L 137.682909 81.027877 
L 139.752372 80.472645 
L 141.821835 79.917413 
L 143.891299 79.362181 
L 145.960762 78.806949 
L 148.030225 78.251717 
L 150.099688 77.696485 
L 152.169151 77.141253 
L 154.238615 76.586021 
L 156.308078 76.030789 
L 158.377541 75.475557 
L 160.447004 74.920325 
L 162.516468 74.365093 
L 164.585931 73.809861 
L 166.655394 73.254629 
L 168.724857 72.699397 
L 170.79432 72.144165 
L 172.863784 71.588933 
L 174.933247 71.033701 
L 177.00271 70.478469 
L 179.072173 69.923237 
L 181.141637 69.368005 
L 183.2111 68.812773 
L 185.280563 68.257541 
L 187.350026 67.702309 
L 189.41949 67.147077 
L 191.488953 66.591845 
L 193.558416 66.036613 
L 195.627879 65.481381 
L 197.697342 64.926149 
L 199.766806 64.370917 
L 201.836269 63.815685 
L 203.905732 63.260453 
L 205.975195 62.705221 
L 208.044659 62.149989 
L 210.114122 61.594757 
L 212.183585 61.039525 
L 214.253048 60.484293 
L 216.322511 59.929061 
L 218.391975 59.373829 
L 220.461438 58.818597 
L 222.530901 58.263365 
L 224.600364 57.708133 
L 226.669828 57.152901 
L 228.739291 56.597669 
L 230.808754 56.042437 
L 232.878217 55.487205 
L 234.947681 54.931973 
L 237.017144 54.376741 
L 239.086607 53.821509 
L 241.15607 53.266278 
L 243.225533 52.711046 
L 245.294997 52.155814 
L 247.36446 51.600582 
L 249.433923 51.04535 
L 251.503386 50.490118 
L 253.57285 49.934886 
L 255.642313 49.379654 
L 257.711776 48.824422 
L 259.781239 48.26919 
L 261.850702 47.713958 
" clip-path="url(#p7340862cae)" style="fill: none; stroke: #ff0000; stroke-linecap: square"/>
   </g>
   <g id="patch_3">
    <path d="M 46.73 141.64 
L 46.73 31.92 
" style="fill: none; stroke: #000000; stroke-width: 0.8; stroke-linejoin: miter; stroke-linecap: square"/>
   </g>
   <g id="patch_4">
    <path d="M 272.094545 141.64 
L 272.094545 31.92 
" style="fill: none; stroke: #000000; stroke-width: 0.8; stroke-linejoin: miter; stroke-linecap: square"/>
   </g>
   <g id="patch_5">
    <path d="M 46.73 141.64 
L 272.094545 141.64 
" style="fill: none; stroke: #000000; stroke-width: 0.8; stroke-linejoin: miter; stroke-linecap: square"/>
   </g>
   <g id="patch_6">
    <path d="M 46.73 31.92 
L 272.094545 31.92 
" style="fill: none; stroke: #000000; stroke-width: 0.8; stroke-linejoin: miter; stroke-linecap: square"/>
   </g>
   <g id="text_14">
    <!-- Asia1_761-2767_no_probang -->
    <g transform="translate(87.194304 25.92) scale(0.1 -0.1)">
     <defs>
      <path id="DejaVuSans-41" d="M 2188 4044 
L 1331 1722 
L 3047 1722 
L 2188 4044 
z
M 1831 4666 
L 2547 4666 
L 4325 0 
L 3669 0 
L 3244 1197 
L 1141 1197 
L 716 0 
L 50 0 
L 1831 4666 
z
" transform="scale(0.015625)"/>
      <path id="DejaVuSans-5f" d="M 3263 -1063 
L 3263 -1509 
L -63 -1509 
L -63 -1063 
L 3263 -1063 
z
" transform="scale(0.015625)"/>
      <path id="DejaVuSans-62" d="M 3116 1747 
Q 3116 2381 2855 2742 
Q 2594 3103 2138 3103 
Q 1681 3103 1420 2742 
Q 1159 2381 1159 1747 
Q 1159 1113 1420 752 
Q 1681 391 2138 391 
Q 2594 391 2855 752 
Q 3116 1113 3116 1747 
z
M 1159 2969 
Q 1341 3281 1617 3432 
Q 1894 3584 2278 3584 
Q 2916 3584 3314 3078 
Q 3713 2572 3713 1747 
Q 3713 922 3314 415 
Q 2916 -91 2278 -91 
Q 1894 -91 1617 61 
Q 1341 213 1159 525 
L 1159 0 
L 581 0 
L 581 4863 
L 1159 4863 
L 1159 2969 
z
" transform="scale(0.015625)"/>
      <path id="DejaVuSans-67" d="M 2906 1791 
Q 2906 2416 2648 2759 
Q 2391 3103 1925 3103 
Q 1463 3103 1205 2759 
Q 947 2416 947 1791 
Q 947 1169 1205 825 
Q 1463 481 1925 481 
Q 2391 481 2648 825 
Q 2906 1169 2906 1791 
z
M 3481 434 
Q 3481 -459 3084 -895 
Q 2688 -1331 1869 -1331 
Q 1566 -1331 1297 -1286 
Q 1028 -1241 775 -1147 
L 775 -588 
Q 1028 -725 1275 -790 
Q 1522 -856 1778 -856 
Q 2344 -856 2625 -561 
Q 2906 -266 2906 331 
L 2906 616 
Q 2728 306 2450 153 
Q 2172 0 1784 0 
Q 1141 0 747 490 
Q 353 981 353 1791 
Q 353 2603 747 3093 
Q 1141 3584 1784 3584 
Q 2172 3584 2450 3431 
Q 2728 3278 2906 2969 
L 2906 3500 
L 3481 3500 
L 3481 434 
z
" transform="scale(0.015625)"/>
     </defs>
     <use xlink:href="#DejaVuSans-41"/>
     <use xlink:href="#DejaVuSans-73" transform="translate(68.408203 0)"/>
     <use xlink:href="#DejaVuSans-69" transform="translate(120.507812 0)"/>
     <use xlink:href="#DejaVuSans-61" transform="translate(148.291016 0)"/>
     <use xlink:href="#DejaVuSans-31" transform="translate(209.570312 0)"/>
     <use xlink:href="#DejaVuSans-5f" transform="translate(273.193359 0)"/>
     <use xlink:href="#DejaVuSans-37" transform="translate(323.193359 0)"/>
     <use xlink:href="#DejaVuSans-36" transform="translate(386.816406 0)"/>
     <use xlink:href="#DejaVuSans-31" transform="translate(450.439453 0)"/>
     <use xlink:href="#DejaVuSans-2d" transform="translate(514.0625 0)"/>
     <use xlink:href="#DejaVuSans-32" transform="translate(550.146484 0)"/>
     <use xlink:href="#DejaVuSans-37" transform="translate(613.769531 0)"/>
     <use xlink:href="#DejaVuSans-36" transform="translate(677.392578 0)"/>
     <use xlink:href="#DejaVuSans-37" transform="translate(741.015625 0)"/>
     <use xlink:href="#DejaVuSans-5f" transform="translate(804.638672 0)"/>
     <use xlink:href="#DejaVuSans-6e" transform="translate(854.638672 0)"/>
     <use xlink:href="#DejaVuSans-6f" transform="translate(918.017578 0)"/>
     <use xlink:href="#DejaVuSans-5f" transform="translate(979.199219 0)"/>
     <use xlink:href="#DejaVuSans-70" transform="translate(1029.199219 0)"/>
     <use xlink:href="#DejaVuSans-72" transform="translate(1092.675781 0)"/>
     <use xlink:href="#DejaVuSans-6f" transform="translate(1131.539062 0)"/>
     <use xlink:href="#DejaVuSans-62" transform="translate(1192.720703 0)"/>
     <use xlink:href="#DejaVuSans-61" transform="translate(1256.197266 0)"/>
     <use xlink:href="#DejaVuSans-6e" transform="translate(1317.476562 0)"/>
     <use xlink:href="#DejaVuSans-67" transform="translate(1380.855469 0)"/>
    </g>
   </g>
   <g id="legend_1">
    <g id="patch_7">
     <path d="M 186.306264 138.14 
L 267.194545 138.14 
Q 268.594545 138.14 268.594545 136.74 
L 268.594545 72.296031 
Q 268.594545 70.896031 267.194545 70.896031 
L 186.306264 70.896031 
Q 184.906264 70.896031 184.906264 72.296031 
L 184.906264 136.74 
Q 184.906264 138.14 186.306264 138.14 
z
" style="fill: #ffffff; opacity: 0.8; stroke: #cccccc; stroke-linejoin: miter"/>
    </g>
    <g id="PathCollection_2">
     <defs>
      <path id="meea0a8e6b9" d="M 0 2.12132 
C 0.562581 2.12132 1.102195 1.897805 1.5 1.5 
C 1.897805 1.102195 2.12132 0.562581 2.12132 0 
C 2.12132 -0.562581 1.897805 -1.102195 1.5 -1.5 
C 1.102195 -1.897805 0.562581 -2.12132 0 -2.12132 
C -0.562581 -2.12132 -1.102195 -1.897805 -1.5 -1.5 
C -1.897805 -1.102195 -2.12132 -0.562581 -2.12132 0 
C -2.12132 0.562581 -1.897805 1.102195 -1.5 1.5 
C -1.102195 1.897805 -0.562581 2.12132 0 2.12132 
z
" style="stroke: #ffffff; stroke-width: 0.339411"/>
     </defs>
     <g>
      <use xlink:href="#meea0a8e6b9" x="187.706264" y="105.339969" style="fill: #0000ff; stroke: #ffffff; stroke-width: 0.339411"/>
     </g>
    </g>
    <g id="text_15">
     <!-- Pearson r: 0.74 -->
     <g transform="translate(193.306264 79.014937) scale(0.07 -0.07)">
      <defs>
       <path id="DejaVuSans-50" d="M 1259 4147 
L 1259 2394 
L 2053 2394 
Q 2494 2394 2734 2622 
Q 2975 2850 2975 3272 
Q 2975 3691 2734 3919 
Q 2494 4147 2053 4147 
L 1259 4147 
z
M 628 4666 
L 2053 4666 
Q 2838 4666 3239 4311 
Q 3641 3956 3641 3272 
Q 3641 2581 3239 2228 
Q 2838 1875 2053 1875 
L 1259 1875 
L 1259 0 
L 628 0 
L 628 4666 
z
" transform="scale(0.015625)"/>
       <path id="DejaVuSans-3a" d="M 750 794 
L 1409 794 
L 1409 0 
L 750 0 
L 750 794 
z
M 750 3309 
L 1409 3309 
L 1409 2516 
L 750 2516 
L 750 3309 
z
" transform="scale(0.015625)"/>
       <path id="DejaVuSans-34" d="M 2419 4116 
L 825 1625 
L 2419 1625 
L 2419 4116 
z
M 2253 4666 
L 3047 4666 
L 3047 1625 
L 3713 1625 
L 3713 1100 
L 3047 1100 
L 3047 0 
L 2419 0 
L 2419 1100 
L 313 1100 
L 313 1709 
L 2253 4666 
z
" transform="scale(0.015625)"/>
      </defs>
      <use xlink:href="#DejaVuSans-50"/>
      <use xlink:href="#DejaVuSans-65" transform="translate(56.677734 0)"/>
      <use xlink:href="#DejaVuSans-61" transform="translate(118.201172 0)"/>
      <use xlink:href="#DejaVuSans-72" transform="translate(179.480469 0)"/>
      <use xlink:href="#DejaVuSans-73" transform="translate(220.59375 0)"/>
      <use xlink:href="#DejaVuSans-6f" transform="translate(272.693359 0)"/>
      <use xlink:href="#DejaVuSans-6e" transform="translate(333.875 0)"/>
      <use xlink:href="#DejaVuSans-20" transform="translate(397.253906 0)"/>
      <use xlink:href="#DejaVuSans-72" transform="translate(429.041016 0)"/>
      <use xlink:href="#DejaVuSans-3a" transform="translate(468.404297 0)"/>
      <use xlink:href="#DejaVuSans-20" transform="translate(502.095703 0)"/>
      <use xlink:href="#DejaVuSans-30" transform="translate(533.882812 0)"/>
      <use xlink:href="#DejaVuSans-2e" transform="translate(597.505859 0)"/>
      <use xlink:href="#DejaVuSans-37" transform="translate(629.292969 0)"/>
      <use xlink:href="#DejaVuSans-34" transform="translate(692.916016 0)"/>
     </g>
     <!-- p-value: 9.92e-13 -->
     <g transform="translate(193.306264 86.853406) scale(0.07 -0.07)">
      <defs>
       <path id="DejaVuSans-76" d="M 191 3500 
L 800 3500 
L 1894 563 
L 2988 3500 
L 3597 3500 
L 2284 0 
L 1503 0 
L 191 3500 
z
" transform="scale(0.015625)"/>
       <path id="DejaVuSans-75" d="M 544 1381 
L 544 3500 
L 1119 3500 
L 1119 1403 
Q 1119 906 1312 657 
Q 1506 409 1894 409 
Q 2359 409 2629 706 
Q 2900 1003 2900 1516 
L 2900 3500 
L 3475 3500 
L 3475 0 
L 2900 0 
L 2900 538 
Q 2691 219 2414 64 
Q 2138 -91 1772 -91 
Q 1169 -91 856 284 
Q 544 659 544 1381 
z
M 1991 3584 
L 1991 3584 
z
" transform="scale(0.015625)"/>
      </defs>
      <use xlink:href="#DejaVuSans-70"/>
      <use xlink:href="#DejaVuSans-2d" transform="translate(63.476562 0)"/>
      <use xlink:href="#DejaVuSans-76" transform="translate(96.935547 0)"/>
      <use xlink:href="#DejaVuSans-61" transform="translate(156.115234 0)"/>
      <use xlink:href="#DejaVuSans-6c" transform="translate(217.394531 0)"/>
      <use xlink:href="#DejaVuSans-75" transform="translate(245.177734 0)"/>
      <use xlink:href="#DejaVuSans-65" transform="translate(308.556641 0)"/>
      <use xlink:href="#DejaVuSans-3a" transform="translate(370.080078 0)"/>
      <use xlink:href="#DejaVuSans-20" transform="translate(403.771484 0)"/>
      <use xlink:href="#DejaVuSans-39" transform="translate(435.558594 0)"/>
      <use xlink:href="#DejaVuSans-2e" transform="translate(499.181641 0)"/>
      <use xlink:href="#DejaVuSans-39" transform="translate(530.96875 0)"/>
      <use xlink:href="#DejaVuSans-32" transform="translate(594.591797 0)"/>
      <use xlink:href="#DejaVuSans-65" transform="translate(658.214844 0)"/>
      <use xlink:href="#DejaVuSans-2d" transform="translate(719.738281 0)"/>
      <use xlink:href="#DejaVuSans-31" transform="translate(755.822266 0)"/>
      <use xlink:href="#DejaVuSans-33" transform="translate(819.445312 0)"/>
     </g>
     <!-- Spearman r: 0.67 -->
     <g transform="translate(193.306264 94.691875) scale(0.07 -0.07)">
      <defs>
       <path id="DejaVuSans-53" d="M 3425 4513 
L 3425 3897 
Q 3066 4069 2747 4153 
Q 2428 4238 2131 4238 
Q 1616 4238 1336 4038 
Q 1056 3838 1056 3469 
Q 1056 3159 1242 3001 
Q 1428 2844 1947 2747 
L 2328 2669 
Q 3034 2534 3370 2195 
Q 3706 1856 3706 1288 
Q 3706 609 3251 259 
Q 2797 -91 1919 -91 
Q 1588 -91 1214 -16 
Q 841 59 441 206 
L 441 856 
Q 825 641 1194 531 
Q 1563 422 1919 422 
Q 2459 422 2753 634 
Q 3047 847 3047 1241 
Q 3047 1584 2836 1778 
Q 2625 1972 2144 2069 
L 1759 2144 
Q 1053 2284 737 2584 
Q 422 2884 422 3419 
Q 422 4038 858 4394 
Q 1294 4750 2059 4750 
Q 2388 4750 2728 4690 
Q 3069 4631 3425 4513 
z
" transform="scale(0.015625)"/>
       <path id="DejaVuSans-6d" d="M 3328 2828 
Q 3544 3216 3844 3400 
Q 4144 3584 4550 3584 
Q 5097 3584 5394 3201 
Q 5691 2819 5691 2113 
L 5691 0 
L 5113 0 
L 5113 2094 
Q 5113 2597 4934 2840 
Q 4756 3084 4391 3084 
Q 3944 3084 3684 2787 
Q 3425 2491 3425 1978 
L 3425 0 
L 2847 0 
L 2847 2094 
Q 2847 2600 2669 2842 
Q 2491 3084 2119 3084 
Q 1678 3084 1418 2786 
Q 1159 2488 1159 1978 
L 1159 0 
L 581 0 
L 581 3500 
L 1159 3500 
L 1159 2956 
Q 1356 3278 1631 3431 
Q 1906 3584 2284 3584 
Q 2666 3584 2933 3390 
Q 3200 3197 3328 2828 
z
" transform="scale(0.015625)"/>
      </defs>
      <use xlink:href="#DejaVuSans-53"/>
      <use xlink:href="#DejaVuSans-70" transform="translate(63.476562 0)"/>
      <use xlink:href="#DejaVuSans-65" transform="translate(126.953125 0)"/>
      <use xlink:href="#DejaVuSans-61" transform="translate(188.476562 0)"/>
      <use xlink:href="#DejaVuSans-72" transform="translate(249.755859 0)"/>
      <use xlink:href="#DejaVuSans-6d" transform="translate(289.119141 0)"/>
      <use xlink:href="#DejaVuSans-61" transform="translate(386.53125 0)"/>
      <use xlink:href="#DejaVuSans-6e" transform="translate(447.810547 0)"/>
      <use xlink:href="#DejaVuSans-20" transform="translate(511.189453 0)"/>
      <use xlink:href="#DejaVuSans-72" transform="translate(542.976562 0)"/>
      <use xlink:href="#DejaVuSans-3a" transform="translate(582.339844 0)"/>
      <use xlink:href="#DejaVuSans-20" transform="translate(616.03125 0)"/>
      <use xlink:href="#DejaVuSans-30" transform="translate(647.818359 0)"/>
      <use xlink:href="#DejaVuSans-2e" transform="translate(711.441406 0)"/>
      <use xlink:href="#DejaVuSans-36" transform="translate(743.228516 0)"/>
      <use xlink:href="#DejaVuSans-37" transform="translate(806.851562 0)"/>
     </g>
     <!-- p-value: 1.01e-09 -->
     <g transform="translate(193.306264 102.530344) scale(0.07 -0.07)">
      <use xlink:href="#DejaVuSans-70"/>
      <use xlink:href="#DejaVuSans-2d" transform="translate(63.476562 0)"/>
      <use xlink:href="#DejaVuSans-76" transform="translate(96.935547 0)"/>
      <use xlink:href="#DejaVuSans-61" transform="translate(156.115234 0)"/>
      <use xlink:href="#DejaVuSans-6c" transform="translate(217.394531 0)"/>
      <use xlink:href="#DejaVuSans-75" transform="translate(245.177734 0)"/>
      <use xlink:href="#DejaVuSans-65" transform="translate(308.556641 0)"/>
      <use xlink:href="#DejaVuSans-3a" transform="translate(370.080078 0)"/>
      <use xlink:href="#DejaVuSans-20" transform="translate(403.771484 0)"/>
      <use xlink:href="#DejaVuSans-31" transform="translate(435.558594 0)"/>
      <use xlink:href="#DejaVuSans-2e" transform="translate(499.181641 0)"/>
      <use xlink:href="#DejaVuSans-30" transform="translate(530.96875 0)"/>
      <use xlink:href="#DejaVuSans-31" transform="translate(594.591797 0)"/>
      <use xlink:href="#DejaVuSans-65" transform="translate(658.214844 0)"/>
      <use xlink:href="#DejaVuSans-2d" transform="translate(719.738281 0)"/>
      <use xlink:href="#DejaVuSans-30" transform="translate(755.822266 0)"/>
      <use xlink:href="#DejaVuSans-39" transform="translate(819.445312 0)"/>
     </g>
     <!-- Linear regression: -->
     <g transform="translate(193.306264 110.368812) scale(0.07 -0.07)">
      <defs>
       <path id="DejaVuSans-4c" d="M 628 4666 
L 1259 4666 
L 1259 531 
L 3531 531 
L 3531 0 
L 628 0 
L 628 4666 
z
" transform="scale(0.015625)"/>
      </defs>
      <use xlink:href="#DejaVuSans-4c"/>
      <use xlink:href="#DejaVuSans-69" transform="translate(55.712891 0)"/>
      <use xlink:href="#DejaVuSans-6e" transform="translate(83.496094 0)"/>
      <use xlink:href="#DejaVuSans-65" transform="translate(146.875 0)"/>
      <use xlink:href="#DejaVuSans-61" transform="translate(208.398438 0)"/>
      <use xlink:href="#DejaVuSans-72" transform="translate(269.677734 0)"/>
      <use xlink:href="#DejaVuSans-20" transform="translate(310.791016 0)"/>
      <use xlink:href="#DejaVuSans-72" transform="translate(342.578125 0)"/>
      <use xlink:href="#DejaVuSans-65" transform="translate(381.441406 0)"/>
      <use xlink:href="#DejaVuSans-67" transform="translate(442.964844 0)"/>
      <use xlink:href="#DejaVuSans-72" transform="translate(506.441406 0)"/>
      <use xlink:href="#DejaVuSans-65" transform="translate(545.304688 0)"/>
      <use xlink:href="#DejaVuSans-73" transform="translate(606.828125 0)"/>
      <use xlink:href="#DejaVuSans-73" transform="translate(658.927734 0)"/>
      <use xlink:href="#DejaVuSans-69" transform="translate(711.027344 0)"/>
      <use xlink:href="#DejaVuSans-6f" transform="translate(738.810547 0)"/>
      <use xlink:href="#DejaVuSans-6e" transform="translate(799.992188 0)"/>
      <use xlink:href="#DejaVuSans-3a" transform="translate(863.371094 0)"/>
     </g>
     <!-- y = 3.26e-03x - 6.25 -->
     <g transform="translate(193.306264 118.207281) scale(0.07 -0.07)">
      <defs>
       <path id="DejaVuSans-3d" d="M 678 2906 
L 4684 2906 
L 4684 2381 
L 678 2381 
L 678 2906 
z
M 678 1631 
L 4684 1631 
L 4684 1100 
L 678 1100 
L 678 1631 
z
" transform="scale(0.015625)"/>
       <path id="DejaVuSans-78" d="M 3513 3500 
L 2247 1797 
L 3578 0 
L 2900 0 
L 1881 1375 
L 863 0 
L 184 0 
L 1544 1831 
L 300 3500 
L 978 3500 
L 1906 2253 
L 2834 3500 
L 3513 3500 
z
" transform="scale(0.015625)"/>
       <path id="DejaVuSans-35" d="M 691 4666 
L 3169 4666 
L 3169 4134 
L 1269 4134 
L 1269 2991 
Q 1406 3038 1543 3061 
Q 1681 3084 1819 3084 
Q 2600 3084 3056 2656 
Q 3513 2228 3513 1497 
Q 3513 744 3044 326 
Q 2575 -91 1722 -91 
Q 1428 -91 1123 -41 
Q 819 9 494 109 
L 494 744 
Q 775 591 1075 516 
Q 1375 441 1709 441 
Q 2250 441 2565 725 
Q 2881 1009 2881 1497 
Q 2881 1984 2565 2268 
Q 2250 2553 1709 2553 
Q 1456 2553 1204 2497 
Q 953 2441 691 2322 
L 691 4666 
z
" transform="scale(0.015625)"/>
      </defs>
      <use xlink:href="#DejaVuSans-79"/>
      <use xlink:href="#DejaVuSans-20" transform="translate(59.179688 0)"/>
      <use xlink:href="#DejaVuSans-3d" transform="translate(90.966797 0)"/>
      <use xlink:href="#DejaVuSans-20" transform="translate(174.755859 0)"/>
      <use xlink:href="#DejaVuSans-33" transform="translate(206.542969 0)"/>
      <use xlink:href="#DejaVuSans-2e" transform="translate(270.166016 0)"/>
      <use xlink:href="#DejaVuSans-32" transform="translate(301.953125 0)"/>
      <use xlink:href="#DejaVuSans-36" transform="translate(365.576172 0)"/>
      <use xlink:href="#DejaVuSans-65" transform="translate(429.199219 0)"/>
      <use xlink:href="#DejaVuSans-2d" transform="translate(490.722656 0)"/>
      <use xlink:href="#DejaVuSans-30" transform="translate(526.806641 0)"/>
      <use xlink:href="#DejaVuSans-33" transform="translate(590.429688 0)"/>
      <use xlink:href="#DejaVuSans-78" transform="translate(654.052734 0)"/>
      <use xlink:href="#DejaVuSans-20" transform="translate(713.232422 0)"/>
      <use xlink:href="#DejaVuSans-2d" transform="translate(745.019531 0)"/>
      <use xlink:href="#DejaVuSans-20" transform="translate(781.103516 0)"/>
      <use xlink:href="#DejaVuSans-36" transform="translate(812.890625 0)"/>
      <use xlink:href="#DejaVuSans-2e" transform="translate(876.513672 0)"/>
      <use xlink:href="#DejaVuSans-32" transform="translate(908.300781 0)"/>
      <use xlink:href="#DejaVuSans-35" transform="translate(971.923828 0)"/>
     </g>
     <!-- p-value: 9.92e-13 -->
     <g transform="translate(193.306264 126.04575) scale(0.07 -0.07)">
      <use xlink:href="#DejaVuSans-70"/>
      <use xlink:href="#DejaVuSans-2d" transform="translate(63.476562 0)"/>
      <use xlink:href="#DejaVuSans-76" transform="translate(96.935547 0)"/>
      <use xlink:href="#DejaVuSans-61" transform="translate(156.115234 0)"/>
      <use xlink:href="#DejaVuSans-6c" transform="translate(217.394531 0)"/>
      <use xlink:href="#DejaVuSans-75" transform="translate(245.177734 0)"/>
      <use xlink:href="#DejaVuSans-65" transform="translate(308.556641 0)"/>
      <use xlink:href="#DejaVuSans-3a" transform="translate(370.080078 0)"/>
      <use xlink:href="#DejaVuSans-20" transform="translate(403.771484 0)"/>
      <use xlink:href="#DejaVuSans-39" transform="translate(435.558594 0)"/>
      <use xlink:href="#DejaVuSans-2e" transform="translate(499.181641 0)"/>
      <use xlink:href="#DejaVuSans-39" transform="translate(530.96875 0)"/>
      <use xlink:href="#DejaVuSans-32" transform="translate(594.591797 0)"/>
      <use xlink:href="#DejaVuSans-65" transform="translate(658.214844 0)"/>
      <use xlink:href="#DejaVuSans-2d" transform="translate(719.738281 0)"/>
      <use xlink:href="#DejaVuSans-31" transform="translate(755.822266 0)"/>
      <use xlink:href="#DejaVuSans-33" transform="translate(819.445312 0)"/>
     </g>
     <!-- R: 0.55 -->
     <g transform="translate(193.306264 133.884219) scale(0.07 -0.07)">
      <defs>
       <path id="DejaVuSans-b2" d="M 838 2444 
L 2163 2444 
L 2163 2088 
L 294 2088 
L 294 2431 
Q 400 2528 597 2703 
Q 1672 3656 1672 3950 
Q 1672 4156 1509 4282 
Q 1347 4409 1081 4409 
Q 919 4409 728 4354 
Q 538 4300 313 4191 
L 313 4575 
Q 553 4663 761 4706 
Q 969 4750 1147 4750 
Q 1600 4750 1872 4544 
Q 2144 4338 2144 4000 
Q 2144 3566 1109 2678 
Q 934 2528 838 2444 
z
" transform="scale(0.015625)"/>
      </defs>
      <use xlink:href="#DejaVuSans-52"/>
      <use xlink:href="#DejaVuSans-b2" transform="translate(69.482422 0)"/>
      <use xlink:href="#DejaVuSans-3a" transform="translate(109.570312 0)"/>
      <use xlink:href="#DejaVuSans-20" transform="translate(143.261719 0)"/>
      <use xlink:href="#DejaVuSans-30" transform="translate(175.048828 0)"/>
      <use xlink:href="#DejaVuSans-2e" transform="translate(238.671875 0)"/>
      <use xlink:href="#DejaVuSans-35" transform="translate(270.458984 0)"/>
      <use xlink:href="#DejaVuSans-35" transform="translate(334.082031 0)"/>
     </g>
    </g>
   </g>
  </g>
 </g>
 <defs>
  <clipPath id="p7340862cae">
   <rect x="46.73" y="31.92" width="225.364545" height="109.72"/>
  </clipPath>
 </defs>
</svg>
