<?xml version="1.0" encoding="utf-8" standalone="no"?>
<!DOCTYPE svg PUBLIC "-//W3C//DTD SVG 1.1//EN"
  "http://www.w3.org/Graphics/SVG/1.1/DTD/svg11.dtd">
<svg xmlns:xlink="http://www.w3.org/1999/xlink" width="720pt" height="1440pt" viewBox="0 0 720 1440" xmlns="http://www.w3.org/2000/svg" version="1.1">
 <metadata>
  <rdf:RDF xmlns:dc="http://purl.org/dc/elements/1.1/" xmlns:cc="http://creativecommons.org/ns#" xmlns:rdf="http://www.w3.org/1999/02/22-rdf-syntax-ns#">
   <cc:Work>
    <dc:type rdf:resource="http://purl.org/dc/dcmitype/StillImage"/>
    <dc:date>2025-06-01T00:23:00.144529</dc:date>
    <dc:format>image/svg+xml</dc:format>
    <dc:creator>
     <cc:Agent>
      <dc:title>Matplotlib v3.8.0, https://matplotlib.org/</dc:title>
     </cc:Agent>
    </dc:creator>
   </cc:Work>
  </rdf:RDF>
 </metadata>
 <defs>
  <style type="text/css">*{stroke-linejoin: round; stroke-linecap: butt}</style>
 </defs>
 <g id="figure_1">
  <g id="patch_1">
   <path d="M 0 1440 
L 720 1440 
L 720 0 
L 0 0 
z
" style="fill: #ffffff"/>
  </g>
  <g id="axes_1">
   <g id="patch_2">
    <path d="M 87.68 352.78 
L 704.829697 352.78 
L 704.829697 93.12 
L 87.68 93.12 
z
" style="fill: #ffffff"/>
   </g>
   <g id="PathCollection_1">
    <defs>
     <path id="m5517ef1302" d="M 0 3 
C 0.795609 3 1.55874 2.683901 2.12132 2.12132 
C 2.683901 1.55874 3 0.795609 3 0 
C 3 -0.795609 2.683901 -1.55874 2.12132 -2.12132 
C 1.55874 -2.683901 0.795609 -3 0 -3 
C -0.795609 -3 -1.55874 -2.683901 -2.12132 -2.12132 
C -2.683901 -1.55874 -3 -0.795609 -3 0 
C -3 0.795609 -2.683901 1.55874 -2.12132 2.12132 
C -1.55874 2.683901 -0.795609 3 0 3 
z
" style="stroke: #ffffff; stroke-width: 0.48"/>
    </defs>
    <g clip-path="url(#p02a3c7d651)">
     <use xlink:href="#m5517ef1302" x="271.578142" y="249.448796" style="fill: #0000ff; stroke: #ffffff; stroke-width: 0.48"/>
     <use xlink:href="#m5517ef1302" x="604.049359" y="249.448796" style="fill: #0000ff; stroke: #ffffff; stroke-width: 0.48"/>
     <use xlink:href="#m5517ef1302" x="448.203476" y="249.449396" style="fill: #0000ff; stroke: #ffffff; stroke-width: 0.48"/>
     <use xlink:href="#m5517ef1302" x="219.629514" y="221.477633" style="fill: #0000ff; stroke: #ffffff; stroke-width: 0.48"/>
     <use xlink:href="#m5517ef1302" x="219.629514" y="229.973649" style="fill: #0000ff; stroke: #ffffff; stroke-width: 0.48"/>
     <use xlink:href="#m5517ef1302" x="167.680887" y="230.997479" style="fill: #0000ff; stroke: #ffffff; stroke-width: 0.48"/>
     <use xlink:href="#m5517ef1302" x="583.269908" y="229.340314" style="fill: #0000ff; stroke: #ffffff; stroke-width: 0.48"/>
     <use xlink:href="#m5517ef1302" x="676.777438" y="222.627906" style="fill: #0000ff; stroke: #ffffff; stroke-width: 0.48"/>
     <use xlink:href="#m5517ef1302" x="230.01924" y="215.746901" style="fill: #0000ff; stroke: #ffffff; stroke-width: 0.48"/>
     <use xlink:href="#m5517ef1302" x="198.850063" y="339.953469" style="fill: #0000ff; stroke: #ffffff; stroke-width: 0.48"/>
     <use xlink:href="#m5517ef1302" x="115.732259" y="340.977273" style="fill: #0000ff; stroke: #ffffff; stroke-width: 0.48"/>
     <use xlink:href="#m5517ef1302" x="261.188416" y="330.463897" style="fill: #0000ff; stroke: #ffffff; stroke-width: 0.48"/>
     <use xlink:href="#m5517ef1302" x="281.967868" y="216.066348" style="fill: #0000ff; stroke: #ffffff; stroke-width: 0.48"/>
     <use xlink:href="#m5517ef1302" x="271.578142" y="180.199003" style="fill: #0000ff; stroke: #ffffff; stroke-width: 0.48"/>
     <use xlink:href="#m5517ef1302" x="240.408965" y="121.23783" style="fill: #0000ff; stroke: #ffffff; stroke-width: 0.48"/>
     <use xlink:href="#m5517ef1302" x="624.82881" y="121.23783" style="fill: #0000ff; stroke: #ffffff; stroke-width: 0.48"/>
     <use xlink:href="#m5517ef1302" x="281.967868" y="119.039042" style="fill: #0000ff; stroke: #ffffff; stroke-width: 0.48"/>
    </g>
   </g>
   <g id="PolyCollection_1">
    <path d="M 115.732259 193.384888 
L 115.732259 303.672395 
L 121.399382 301.890048 
L 127.066505 300.754777 
L 132.733628 299.258837 
L 138.400751 297.87949 
L 144.067874 296.776805 
L 149.734997 295.40875 
L 155.40212 294.013597 
L 161.069243 292.445479 
L 166.736366 291.2533 
L 172.403489 289.871907 
L 178.070612 288.484174 
L 183.737735 287.103946 
L 189.404858 285.726029 
L 195.071981 284.53216 
L 200.739104 283.384193 
L 206.406227 282.347128 
L 212.07335 281.292301 
L 217.740473 280.351735 
L 223.407596 279.358474 
L 229.074719 278.356346 
L 234.741842 277.219212 
L 240.408965 275.876462 
L 246.076088 274.938057 
L 251.743211 273.909597 
L 257.410334 272.69104 
L 263.077457 271.526184 
L 268.744581 270.944051 
L 274.411704 270.363872 
L 280.078827 269.376579 
L 285.74595 268.385792 
L 291.413073 267.379269 
L 297.080196 266.341301 
L 302.747319 264.875438 
L 308.414442 263.722128 
L 314.081565 262.868266 
L 319.748688 262.139633 
L 325.415811 261.377431 
L 331.082934 260.239954 
L 336.750057 259.38051 
L 342.41718 258.12962 
L 348.084303 257.164005 
L 353.751426 256.227131 
L 359.418549 255.290256 
L 365.085672 254.477271 
L 370.752795 253.521181 
L 376.419918 252.430134 
L 382.087041 251.663751 
L 387.754164 250.879673 
L 393.421287 250.130573 
L 399.08841 249.365799 
L 404.755533 248.511233 
L 410.422656 247.6567 
L 416.089779 246.87109 
L 421.756902 246.172697 
L 427.424025 245.376522 
L 433.091148 244.743583 
L 438.758271 244.165141 
L 444.425394 243.83611 
L 450.092517 243.221301 
L 455.75964 242.541094 
L 461.426763 242.147038 
L 467.093886 241.427743 
L 472.761009 241.539151 
L 478.428132 240.952488 
L 484.095255 240.632473 
L 489.762378 240.205347 
L 495.429501 239.949803 
L 501.096624 239.88209 
L 506.763747 239.465762 
L 512.43087 239.137616 
L 518.097993 238.599632 
L 523.765116 238.394593 
L 529.432239 237.941239 
L 535.099362 237.876996 
L 540.766486 237.757141 
L 546.433609 237.456371 
L 552.100732 237.544289 
L 557.767855 237.738725 
L 563.434978 237.86076 
L 569.102101 238.033549 
L 574.769224 238.081587 
L 580.436347 237.997085 
L 586.10347 238.036719 
L 591.770593 238.101987 
L 597.437716 238.267329 
L 603.104839 238.472272 
L 608.771962 238.448791 
L 614.439085 238.565573 
L 620.106208 238.637374 
L 625.773331 238.804995 
L 631.440454 239.18705 
L 637.107577 239.673693 
L 642.7747 239.914048 
L 648.441823 240.152445 
L 654.108946 240.390841 
L 659.776069 240.629238 
L 665.443192 240.826334 
L 671.110315 240.787313 
L 676.777438 240.935978 
L 676.777438 104.922727 
L 676.777438 104.922727 
L 671.110315 106.430983 
L 665.443192 107.939239 
L 659.776069 109.45081 
L 654.108946 110.971714 
L 648.441823 112.492619 
L 642.7747 114.013523 
L 637.107577 115.534428 
L 631.440454 117.060336 
L 625.773331 118.952688 
L 620.106208 121.128658 
L 614.439085 123.304627 
L 608.771962 125.480596 
L 603.104839 127.658753 
L 597.437716 129.412673 
L 591.770593 130.960389 
L 586.10347 132.313727 
L 580.436347 133.667065 
L 574.769224 135.020404 
L 569.102101 136.373742 
L 563.434978 137.72708 
L 557.767855 139.080418 
L 552.100732 140.433757 
L 546.433609 141.595858 
L 540.766486 142.908188 
L 535.099362 144.493771 
L 529.432239 145.998853 
L 523.765116 147.626834 
L 518.097993 149.101074 
L 512.43087 150.515796 
L 506.763747 152.050147 
L 501.096624 153.67335 
L 495.429501 155.517848 
L 489.762378 157.418927 
L 484.095255 159.053774 
L 478.428132 160.704186 
L 472.761009 162.354598 
L 467.093886 164.570035 
L 461.426763 166.798177 
L 455.75964 168.478589 
L 450.092517 169.793382 
L 444.425394 171.108176 
L 438.758271 172.42755 
L 433.091148 173.799761 
L 427.424025 175.426754 
L 421.756902 177.053747 
L 416.089779 178.68074 
L 410.422656 180.307732 
L 404.755533 181.940696 
L 399.08841 183.589047 
L 393.421287 185.237398 
L 387.754164 186.473668 
L 382.087041 187.337825 
L 376.419918 188.223825 
L 370.752795 189.27218 
L 365.085672 189.411707 
L 359.418549 190.700851 
L 353.751426 191.19174 
L 348.084303 191.472012 
L 342.41718 191.752284 
L 336.750057 192.062721 
L 331.082934 193.553534 
L 325.415811 193.928097 
L 319.748688 194.58049 
L 314.081565 194.671437 
L 308.414442 195.236868 
L 302.747319 196.611335 
L 297.080196 196.985921 
L 291.413073 196.899007 
L 285.74595 196.910183 
L 280.078827 196.92875 
L 274.411704 197.24628 
L 268.744581 197.463774 
L 263.077457 197.976732 
L 257.410334 198.323644 
L 251.743211 198.047223 
L 246.076088 197.904391 
L 240.408965 197.816339 
L 234.741842 197.4703 
L 229.074719 197.196626 
L 223.407596 197.34046 
L 217.740473 196.974597 
L 212.07335 197.459662 
L 206.406227 197.769813 
L 200.739104 197.919168 
L 195.071981 197.881016 
L 189.404858 197.823232 
L 183.737735 197.598021 
L 178.070612 197.377483 
L 172.403489 197.154928 
L 166.736366 196.865123 
L 161.069243 196.689355 
L 155.40212 196.438786 
L 149.734997 196.031098 
L 144.067874 195.62341 
L 138.400751 195.108244 
L 132.733628 194.810927 
L 127.066505 194.389799 
L 121.399382 193.887343 
L 115.732259 193.384888 
z
" clip-path="url(#p02a3c7d651)" style="fill: #ff0000; fill-opacity: 0.15"/>
   </g>
   <g id="matplotlib.axis_1">
    <g id="xtick_1">
     <g id="line2d_1">
      <defs>
       <path id="m0892b5b74b" d="M 0 0 
L 0 3.5 
" style="stroke: #000000; stroke-width: 0.8"/>
      </defs>
      <g>
       <use xlink:href="#m0892b5b74b" x="167.680887" y="352.78" style="stroke: #000000; stroke-width: 0.8"/>
      </g>
     </g>
     <g id="text_1">
      <!-- 1960 -->
      <g transform="translate(147.320887 371.9375) scale(0.16 -0.16)">
       <defs>
        <path id="DejaVuSans-31" d="M 794 531 
L 1825 531 
L 1825 4091 
L 703 3866 
L 703 4441 
L 1819 4666 
L 2450 4666 
L 2450 531 
L 3481 531 
L 3481 0 
L 794 0 
L 794 531 
z
" transform="scale(0.015625)"/>
        <path id="DejaVuSans-39" d="M 703 97 
L 703 672 
Q 941 559 1184 500 
Q 1428 441 1663 441 
Q 2288 441 2617 861 
Q 2947 1281 2994 2138 
Q 2813 1869 2534 1725 
Q 2256 1581 1919 1581 
Q 1219 1581 811 2004 
Q 403 2428 403 3163 
Q 403 3881 828 4315 
Q 1253 4750 1959 4750 
Q 2769 4750 3195 4129 
Q 3622 3509 3622 2328 
Q 3622 1225 3098 567 
Q 2575 -91 1691 -91 
Q 1453 -91 1209 -44 
Q 966 3 703 97 
z
M 1959 2075 
Q 2384 2075 2632 2365 
Q 2881 2656 2881 3163 
Q 2881 3666 2632 3958 
Q 2384 4250 1959 4250 
Q 1534 4250 1286 3958 
Q 1038 3666 1038 3163 
Q 1038 2656 1286 2365 
Q 1534 2075 1959 2075 
z
" transform="scale(0.015625)"/>
        <path id="DejaVuSans-36" d="M 2113 2584 
Q 1688 2584 1439 2293 
Q 1191 2003 1191 1497 
Q 1191 994 1439 701 
Q 1688 409 2113 409 
Q 2538 409 2786 701 
Q 3034 994 3034 1497 
Q 3034 2003 2786 2293 
Q 2538 2584 2113 2584 
z
M 3366 4563 
L 3366 3988 
Q 3128 4100 2886 4159 
Q 2644 4219 2406 4219 
Q 1781 4219 1451 3797 
Q 1122 3375 1075 2522 
Q 1259 2794 1537 2939 
Q 1816 3084 2150 3084 
Q 2853 3084 3261 2657 
Q 3669 2231 3669 1497 
Q 3669 778 3244 343 
Q 2819 -91 2113 -91 
Q 1303 -91 875 529 
Q 447 1150 447 2328 
Q 447 3434 972 4092 
Q 1497 4750 2381 4750 
Q 2619 4750 2861 4703 
Q 3103 4656 3366 4563 
z
" transform="scale(0.015625)"/>
        <path id="DejaVuSans-30" d="M 2034 4250 
Q 1547 4250 1301 3770 
Q 1056 3291 1056 2328 
Q 1056 1369 1301 889 
Q 1547 409 2034 409 
Q 2525 409 2770 889 
Q 3016 1369 3016 2328 
Q 3016 3291 2770 3770 
Q 2525 4250 2034 4250 
z
M 2034 4750 
Q 2819 4750 3233 4129 
Q 3647 3509 3647 2328 
Q 3647 1150 3233 529 
Q 2819 -91 2034 -91 
Q 1250 -91 836 529 
Q 422 1150 422 2328 
Q 422 3509 836 4129 
Q 1250 4750 2034 4750 
z
" transform="scale(0.015625)"/>
       </defs>
       <use xlink:href="#DejaVuSans-31"/>
       <use xlink:href="#DejaVuSans-39" x="63.623047"/>
       <use xlink:href="#DejaVuSans-36" x="127.246094"/>
       <use xlink:href="#DejaVuSans-30" x="190.869141"/>
      </g>
     </g>
    </g>
    <g id="xtick_2">
     <g id="line2d_2">
      <g>
       <use xlink:href="#m0892b5b74b" x="271.578142" y="352.78" style="stroke: #000000; stroke-width: 0.8"/>
      </g>
     </g>
     <g id="text_2">
      <!-- 1970 -->
      <g transform="translate(251.218142 371.9375) scale(0.16 -0.16)">
       <defs>
        <path id="DejaVuSans-37" d="M 525 4666 
L 3525 4666 
L 3525 4397 
L 1831 0 
L 1172 0 
L 2766 4134 
L 525 4134 
L 525 4666 
z
" transform="scale(0.015625)"/>
       </defs>
       <use xlink:href="#DejaVuSans-31"/>
       <use xlink:href="#DejaVuSans-39" x="63.623047"/>
       <use xlink:href="#DejaVuSans-37" x="127.246094"/>
       <use xlink:href="#DejaVuSans-30" x="190.869141"/>
      </g>
     </g>
    </g>
    <g id="xtick_3">
     <g id="line2d_3">
      <g>
       <use xlink:href="#m0892b5b74b" x="375.475397" y="352.78" style="stroke: #000000; stroke-width: 0.8"/>
      </g>
     </g>
     <g id="text_3">
      <!-- 1980 -->
      <g transform="translate(355.115397 371.9375) scale(0.16 -0.16)">
       <defs>
        <path id="DejaVuSans-38" d="M 2034 2216 
Q 1584 2216 1326 1975 
Q 1069 1734 1069 1313 
Q 1069 891 1326 650 
Q 1584 409 2034 409 
Q 2484 409 2743 651 
Q 3003 894 3003 1313 
Q 3003 1734 2745 1975 
Q 2488 2216 2034 2216 
z
M 1403 2484 
Q 997 2584 770 2862 
Q 544 3141 544 3541 
Q 544 4100 942 4425 
Q 1341 4750 2034 4750 
Q 2731 4750 3128 4425 
Q 3525 4100 3525 3541 
Q 3525 3141 3298 2862 
Q 3072 2584 2669 2484 
Q 3125 2378 3379 2068 
Q 3634 1759 3634 1313 
Q 3634 634 3220 271 
Q 2806 -91 2034 -91 
Q 1263 -91 848 271 
Q 434 634 434 1313 
Q 434 1759 690 2068 
Q 947 2378 1403 2484 
z
M 1172 3481 
Q 1172 3119 1398 2916 
Q 1625 2713 2034 2713 
Q 2441 2713 2670 2916 
Q 2900 3119 2900 3481 
Q 2900 3844 2670 4047 
Q 2441 4250 2034 4250 
Q 1625 4250 1398 4047 
Q 1172 3844 1172 3481 
z
" transform="scale(0.015625)"/>
       </defs>
       <use xlink:href="#DejaVuSans-31"/>
       <use xlink:href="#DejaVuSans-39" x="63.623047"/>
       <use xlink:href="#DejaVuSans-38" x="127.246094"/>
       <use xlink:href="#DejaVuSans-30" x="190.869141"/>
      </g>
     </g>
    </g>
    <g id="xtick_4">
     <g id="line2d_4">
      <g>
       <use xlink:href="#m0892b5b74b" x="479.372653" y="352.78" style="stroke: #000000; stroke-width: 0.8"/>
      </g>
     </g>
     <g id="text_4">
      <!-- 1990 -->
      <g transform="translate(459.012653 371.9375) scale(0.16 -0.16)">
       <use xlink:href="#DejaVuSans-31"/>
       <use xlink:href="#DejaVuSans-39" x="63.623047"/>
       <use xlink:href="#DejaVuSans-39" x="127.246094"/>
       <use xlink:href="#DejaVuSans-30" x="190.869141"/>
      </g>
     </g>
    </g>
    <g id="xtick_5">
     <g id="line2d_5">
      <g>
       <use xlink:href="#m0892b5b74b" x="583.269908" y="352.78" style="stroke: #000000; stroke-width: 0.8"/>
      </g>
     </g>
     <g id="text_5">
      <!-- 2000 -->
      <g transform="translate(562.909908 371.9375) scale(0.16 -0.16)">
       <defs>
        <path id="DejaVuSans-32" d="M 1228 531 
L 3431 531 
L 3431 0 
L 469 0 
L 469 531 
Q 828 903 1448 1529 
Q 2069 2156 2228 2338 
Q 2531 2678 2651 2914 
Q 2772 3150 2772 3378 
Q 2772 3750 2511 3984 
Q 2250 4219 1831 4219 
Q 1534 4219 1204 4116 
Q 875 4013 500 3803 
L 500 4441 
Q 881 4594 1212 4672 
Q 1544 4750 1819 4750 
Q 2544 4750 2975 4387 
Q 3406 4025 3406 3419 
Q 3406 3131 3298 2873 
Q 3191 2616 2906 2266 
Q 2828 2175 2409 1742 
Q 1991 1309 1228 531 
z
" transform="scale(0.015625)"/>
       </defs>
       <use xlink:href="#DejaVuSans-32"/>
       <use xlink:href="#DejaVuSans-30" x="63.623047"/>
       <use xlink:href="#DejaVuSans-30" x="127.246094"/>
       <use xlink:href="#DejaVuSans-30" x="190.869141"/>
      </g>
     </g>
    </g>
    <g id="xtick_6">
     <g id="line2d_6">
      <g>
       <use xlink:href="#m0892b5b74b" x="687.167164" y="352.78" style="stroke: #000000; stroke-width: 0.8"/>
      </g>
     </g>
     <g id="text_6">
      <!-- 2010 -->
      <g transform="translate(666.807164 371.9375) scale(0.16 -0.16)">
       <use xlink:href="#DejaVuSans-32"/>
       <use xlink:href="#DejaVuSans-30" x="63.623047"/>
       <use xlink:href="#DejaVuSans-31" x="127.246094"/>
       <use xlink:href="#DejaVuSans-30" x="190.869141"/>
      </g>
     </g>
    </g>
    <g id="text_7">
     <!-- Год -->
     <g transform="translate(377.123598 394.461875) scale(0.2 -0.2)">
      <defs>
       <path id="DejaVuSans-413" d="M 628 0 
L 628 4666 
L 3531 4666 
L 3531 4134 
L 1259 4134 
L 1259 0 
L 628 0 
z
" transform="scale(0.015625)"/>
       <path id="DejaVuSans-43e" d="M 1959 3097 
Q 1497 3097 1228 2736 
Q 959 2375 959 1747 
Q 959 1119 1226 758 
Q 1494 397 1959 397 
Q 2419 397 2687 759 
Q 2956 1122 2956 1747 
Q 2956 2369 2687 2733 
Q 2419 3097 1959 3097 
z
M 1959 3584 
Q 2709 3584 3137 3096 
Q 3566 2609 3566 1747 
Q 3566 888 3137 398 
Q 2709 -91 1959 -91 
Q 1206 -91 779 398 
Q 353 888 353 1747 
Q 353 2609 779 3096 
Q 1206 3584 1959 3584 
z
" transform="scale(0.015625)"/>
       <path id="DejaVuSans-434" d="M 1384 459 
L 3053 459 
L 3053 3041 
L 1844 3041 
L 1844 2603 
Q 1844 1316 1475 628 
L 1384 459 
z
M 550 459 
Q 834 584 959 850 
Q 1266 1509 1266 2838 
L 1266 3500 
L 3631 3500 
L 3631 459 
L 4091 459 
L 4091 -884 
L 3631 -884 
L 3631 0 
L 794 0 
L 794 -884 
L 334 -884 
L 334 459 
L 550 459 
z
" transform="scale(0.015625)"/>
      </defs>
      <use xlink:href="#DejaVuSans-413"/>
      <use xlink:href="#DejaVuSans-43e" x="60.986328"/>
      <use xlink:href="#DejaVuSans-434" x="122.167969"/>
     </g>
    </g>
   </g>
   <g id="matplotlib.axis_2">
    <g id="ytick_1">
     <g id="line2d_7">
      <defs>
       <path id="mc75600162e" d="M 0 0 
L -3.5 0 
" style="stroke: #000000; stroke-width: 0.8"/>
      </defs>
      <g>
       <use xlink:href="#mc75600162e" x="87.68" y="340.977273" style="stroke: #000000; stroke-width: 0.8"/>
      </g>
     </g>
     <g id="text_8">
      <!-- 0.0 -->
      <g transform="translate(55.235 347.056023) scale(0.16 -0.16)">
       <defs>
        <path id="DejaVuSans-2e" d="M 684 794 
L 1344 794 
L 1344 0 
L 684 0 
L 684 794 
z
" transform="scale(0.015625)"/>
       </defs>
       <use xlink:href="#DejaVuSans-30"/>
       <use xlink:href="#DejaVuSans-2e" x="63.623047"/>
       <use xlink:href="#DejaVuSans-30" x="95.410156"/>
      </g>
     </g>
    </g>
    <g id="ytick_2">
     <g id="line2d_8">
      <g>
       <use xlink:href="#mc75600162e" x="87.68" y="282.768813" style="stroke: #000000; stroke-width: 0.8"/>
      </g>
     </g>
     <g id="text_9">
      <!-- 0.1 -->
      <g transform="translate(55.235 288.847563) scale(0.16 -0.16)">
       <use xlink:href="#DejaVuSans-30"/>
       <use xlink:href="#DejaVuSans-2e" x="63.623047"/>
       <use xlink:href="#DejaVuSans-31" x="95.410156"/>
      </g>
     </g>
    </g>
    <g id="ytick_3">
     <g id="line2d_9">
      <g>
       <use xlink:href="#mc75600162e" x="87.68" y="224.560353" style="stroke: #000000; stroke-width: 0.8"/>
      </g>
     </g>
     <g id="text_10">
      <!-- 0.2 -->
      <g transform="translate(55.235 230.639103) scale(0.16 -0.16)">
       <use xlink:href="#DejaVuSans-30"/>
       <use xlink:href="#DejaVuSans-2e" x="63.623047"/>
       <use xlink:href="#DejaVuSans-32" x="95.410156"/>
      </g>
     </g>
    </g>
    <g id="ytick_4">
     <g id="line2d_10">
      <g>
       <use xlink:href="#mc75600162e" x="87.68" y="166.351893" style="stroke: #000000; stroke-width: 0.8"/>
      </g>
     </g>
     <g id="text_11">
      <!-- 0.3 -->
      <g transform="translate(55.235 172.430643) scale(0.16 -0.16)">
       <defs>
        <path id="DejaVuSans-33" d="M 2597 2516 
Q 3050 2419 3304 2112 
Q 3559 1806 3559 1356 
Q 3559 666 3084 287 
Q 2609 -91 1734 -91 
Q 1441 -91 1130 -33 
Q 819 25 488 141 
L 488 750 
Q 750 597 1062 519 
Q 1375 441 1716 441 
Q 2309 441 2620 675 
Q 2931 909 2931 1356 
Q 2931 1769 2642 2001 
Q 2353 2234 1838 2234 
L 1294 2234 
L 1294 2753 
L 1863 2753 
Q 2328 2753 2575 2939 
Q 2822 3125 2822 3475 
Q 2822 3834 2567 4026 
Q 2313 4219 1838 4219 
Q 1578 4219 1281 4162 
Q 984 4106 628 3988 
L 628 4550 
Q 988 4650 1302 4700 
Q 1616 4750 1894 4750 
Q 2613 4750 3031 4423 
Q 3450 4097 3450 3541 
Q 3450 3153 3228 2886 
Q 3006 2619 2597 2516 
z
" transform="scale(0.015625)"/>
       </defs>
       <use xlink:href="#DejaVuSans-30"/>
       <use xlink:href="#DejaVuSans-2e" x="63.623047"/>
       <use xlink:href="#DejaVuSans-33" x="95.410156"/>
      </g>
     </g>
    </g>
    <g id="ytick_5">
     <g id="line2d_11">
      <g>
       <use xlink:href="#mc75600162e" x="87.68" y="108.143433" style="stroke: #000000; stroke-width: 0.8"/>
      </g>
     </g>
     <g id="text_12">
      <!-- 0.4 -->
      <g transform="translate(55.235 114.222183) scale(0.16 -0.16)">
       <defs>
        <path id="DejaVuSans-34" d="M 2419 4116 
L 825 1625 
L 2419 1625 
L 2419 4116 
z
M 2253 4666 
L 3047 4666 
L 3047 1625 
L 3713 1625 
L 3713 1100 
L 3047 1100 
L 3047 0 
L 2419 0 
L 2419 1100 
L 313 1100 
L 313 1709 
L 2253 4666 
z
" transform="scale(0.015625)"/>
       </defs>
       <use xlink:href="#DejaVuSans-30"/>
       <use xlink:href="#DejaVuSans-2e" x="63.623047"/>
       <use xlink:href="#DejaVuSans-34" x="95.410156"/>
      </g>
     </g>
    </g>
    <g id="text_13">
     <!-- Генетическое расстояние -->
     <g transform="translate(47.075625 359.8875) rotate(-90) scale(0.2 -0.2)">
      <defs>
       <path id="DejaVuSans-435" d="M 3597 1894 
L 3597 1613 
L 953 1613 
Q 991 1019 1311 708 
Q 1631 397 2203 397 
Q 2534 397 2845 478 
Q 3156 559 3463 722 
L 3463 178 
Q 3153 47 2828 -22 
Q 2503 -91 2169 -91 
Q 1331 -91 842 396 
Q 353 884 353 1716 
Q 353 2575 817 3079 
Q 1281 3584 2069 3584 
Q 2775 3584 3186 3129 
Q 3597 2675 3597 1894 
z
M 3022 2063 
Q 3016 2534 2758 2815 
Q 2500 3097 2075 3097 
Q 1594 3097 1305 2825 
Q 1016 2553 972 2059 
L 3022 2063 
z
" transform="scale(0.015625)"/>
       <path id="DejaVuSans-43d" d="M 581 3500 
L 1159 3500 
L 1159 2072 
L 3025 2072 
L 3025 3500 
L 3603 3500 
L 3603 0 
L 3025 0 
L 3025 1613 
L 1159 1613 
L 1159 0 
L 581 0 
L 581 3500 
z
" transform="scale(0.015625)"/>
       <path id="DejaVuSans-442" d="M 188 3500 
L 3541 3500 
L 3541 3041 
L 2147 3041 
L 2147 0 
L 1581 0 
L 1581 3041 
L 188 3041 
L 188 3500 
z
" transform="scale(0.015625)"/>
       <path id="DejaVuSans-438" d="M 3578 3500 
L 3578 0 
L 3006 0 
L 3006 2809 
L 1319 0 
L 581 0 
L 581 3500 
L 1153 3500 
L 1153 697 
L 2838 3500 
L 3578 3500 
z
" transform="scale(0.015625)"/>
       <path id="DejaVuSans-447" d="M 2625 0 
L 2625 1472 
L 1553 1472 
Q 1075 1472 756 1769 
Q 469 2038 469 2613 
L 469 3500 
L 1044 3500 
L 1044 2666 
Q 1044 2300 1206 2116 
Q 1372 1931 1697 1931 
L 2625 1931 
L 2625 3500 
L 3200 3500 
L 3200 0 
L 2625 0 
z
" transform="scale(0.015625)"/>
       <path id="DejaVuSans-441" d="M 3122 3366 
L 3122 2828 
Q 2878 2963 2633 3030 
Q 2388 3097 2138 3097 
Q 1578 3097 1268 2742 
Q 959 2388 959 1747 
Q 959 1106 1268 751 
Q 1578 397 2138 397 
Q 2388 397 2633 464 
Q 2878 531 3122 666 
L 3122 134 
Q 2881 22 2623 -34 
Q 2366 -91 2075 -91 
Q 1284 -91 818 406 
Q 353 903 353 1747 
Q 353 2603 823 3093 
Q 1294 3584 2113 3584 
Q 2378 3584 2631 3529 
Q 2884 3475 3122 3366 
z
" transform="scale(0.015625)"/>
       <path id="DejaVuSans-43a" d="M 581 3500 
L 1153 3500 
L 1153 1856 
L 2775 3500 
L 3481 3500 
L 2144 2147 
L 3653 0 
L 3009 0 
L 1769 1766 
L 1153 1141 
L 1153 0 
L 581 0 
L 581 3500 
z
" transform="scale(0.015625)"/>
       <path id="DejaVuSans-20" transform="scale(0.015625)"/>
       <path id="DejaVuSans-440" d="M 1159 525 
L 1159 -1331 
L 581 -1331 
L 581 3500 
L 1159 3500 
L 1159 2969 
Q 1341 3281 1617 3432 
Q 1894 3584 2278 3584 
Q 2916 3584 3314 3078 
Q 3713 2572 3713 1747 
Q 3713 922 3314 415 
Q 2916 -91 2278 -91 
Q 1894 -91 1617 61 
Q 1341 213 1159 525 
z
M 3116 1747 
Q 3116 2381 2855 2742 
Q 2594 3103 2138 3103 
Q 1681 3103 1420 2742 
Q 1159 2381 1159 1747 
Q 1159 1113 1420 752 
Q 1681 391 2138 391 
Q 2594 391 2855 752 
Q 3116 1113 3116 1747 
z
" transform="scale(0.015625)"/>
       <path id="DejaVuSans-430" d="M 2194 1759 
Q 1497 1759 1228 1600 
Q 959 1441 959 1056 
Q 959 750 1161 570 
Q 1363 391 1709 391 
Q 2188 391 2477 730 
Q 2766 1069 2766 1631 
L 2766 1759 
L 2194 1759 
z
M 3341 1997 
L 3341 0 
L 2766 0 
L 2766 531 
Q 2569 213 2275 61 
Q 1981 -91 1556 -91 
Q 1019 -91 701 211 
Q 384 513 384 1019 
Q 384 1609 779 1909 
Q 1175 2209 1959 2209 
L 2766 2209 
L 2766 2266 
Q 2766 2663 2505 2880 
Q 2244 3097 1772 3097 
Q 1472 3097 1187 3025 
Q 903 2953 641 2809 
L 641 3341 
Q 956 3463 1253 3523 
Q 1550 3584 1831 3584 
Q 2591 3584 2966 3190 
Q 3341 2797 3341 1997 
z
" transform="scale(0.015625)"/>
       <path id="DejaVuSans-44f" d="M 1181 2491 
Q 1181 2231 1381 2084 
Q 1581 1938 1953 1938 
L 2728 1938 
L 2728 3041 
L 1953 3041 
Q 1581 3041 1381 2897 
Q 1181 2753 1181 2491 
z
M 363 0 
L 1431 1534 
Q 1069 1616 828 1830 
Q 588 2044 588 2491 
Q 588 2997 923 3248 
Q 1259 3500 1938 3500 
L 3306 3500 
L 3306 0 
L 2728 0 
L 2728 1478 
L 2013 1478 
L 981 0 
L 363 0 
z
" transform="scale(0.015625)"/>
      </defs>
      <use xlink:href="#DejaVuSans-413"/>
      <use xlink:href="#DejaVuSans-435" x="60.986328"/>
      <use xlink:href="#DejaVuSans-43d" x="122.509766"/>
      <use xlink:href="#DejaVuSans-435" x="187.890625"/>
      <use xlink:href="#DejaVuSans-442" x="249.414062"/>
      <use xlink:href="#DejaVuSans-438" x="307.666016"/>
      <use xlink:href="#DejaVuSans-447" x="372.65625"/>
      <use xlink:href="#DejaVuSans-435" x="431.738281"/>
      <use xlink:href="#DejaVuSans-441" x="493.261719"/>
      <use xlink:href="#DejaVuSans-43a" x="548.242188"/>
      <use xlink:href="#DejaVuSans-43e" x="608.642578"/>
      <use xlink:href="#DejaVuSans-435" x="669.824219"/>
      <use xlink:href="#DejaVuSans-20" x="731.347656"/>
      <use xlink:href="#DejaVuSans-440" x="763.134766"/>
      <use xlink:href="#DejaVuSans-430" x="826.611328"/>
      <use xlink:href="#DejaVuSans-441" x="887.890625"/>
      <use xlink:href="#DejaVuSans-441" x="942.871094"/>
      <use xlink:href="#DejaVuSans-442" x="997.851562"/>
      <use xlink:href="#DejaVuSans-43e" x="1056.103516"/>
      <use xlink:href="#DejaVuSans-44f" x="1117.285156"/>
      <use xlink:href="#DejaVuSans-43d" x="1177.441406"/>
      <use xlink:href="#DejaVuSans-438" x="1242.822266"/>
      <use xlink:href="#DejaVuSans-435" x="1307.8125"/>
     </g>
    </g>
   </g>
   <g id="line2d_12">
    <path d="M 115.732259 250.114902 
L 121.399382 249.531057 
L 127.066505 248.947211 
L 132.733628 248.363365 
L 138.400751 247.779519 
L 144.067874 247.195674 
L 149.734997 246.611828 
L 155.40212 246.027982 
L 161.069243 245.444137 
L 166.736366 244.860291 
L 172.403489 244.276445 
L 178.070612 243.6926 
L 183.737735 243.108754 
L 189.404858 242.524908 
L 195.071981 241.941062 
L 200.739104 241.357217 
L 206.406227 240.773371 
L 212.07335 240.189525 
L 217.740473 239.60568 
L 223.407596 239.021834 
L 229.074719 238.437988 
L 234.741842 237.854143 
L 240.408965 237.270297 
L 246.076088 236.686451 
L 251.743211 236.102606 
L 257.410334 235.51876 
L 263.077457 234.934914 
L 268.744581 234.351068 
L 274.411704 233.767223 
L 280.078827 233.183377 
L 285.74595 232.599531 
L 291.413073 232.015686 
L 297.080196 231.43184 
L 302.747319 230.847994 
L 308.414442 230.264149 
L 314.081565 229.680303 
L 319.748688 229.096457 
L 325.415811 228.512611 
L 331.082934 227.928766 
L 336.750057 227.34492 
L 342.41718 226.761074 
L 348.084303 226.177229 
L 353.751426 225.593383 
L 359.418549 225.009537 
L 365.085672 224.425692 
L 370.752795 223.841846 
L 376.419918 223.258 
L 382.087041 222.674155 
L 387.754164 222.090309 
L 393.421287 221.506463 
L 399.08841 220.922617 
L 404.755533 220.338772 
L 410.422656 219.754926 
L 416.089779 219.17108 
L 421.756902 218.587235 
L 427.424025 218.003389 
L 433.091148 217.419543 
L 438.758271 216.835698 
L 444.425394 216.251852 
L 450.092517 215.668006 
L 455.75964 215.08416 
L 461.426763 214.500315 
L 467.093886 213.916469 
L 472.761009 213.332623 
L 478.428132 212.748778 
L 484.095255 212.164932 
L 489.762378 211.581086 
L 495.429501 210.997241 
L 501.096624 210.413395 
L 506.763747 209.829549 
L 512.43087 209.245704 
L 518.097993 208.661858 
L 523.765116 208.078012 
L 529.432239 207.494166 
L 535.099362 206.910321 
L 540.766486 206.326475 
L 546.433609 205.742629 
L 552.100732 205.158784 
L 557.767855 204.574938 
L 563.434978 203.991092 
L 569.102101 203.407247 
L 574.769224 202.823401 
L 580.436347 202.239555 
L 586.10347 201.655709 
L 591.770593 201.071864 
L 597.437716 200.488018 
L 603.104839 199.904172 
L 608.771962 199.320327 
L 614.439085 198.736481 
L 620.106208 198.152635 
L 625.773331 197.56879 
L 631.440454 196.984944 
L 637.107577 196.401098 
L 642.7747 195.817252 
L 648.441823 195.233407 
L 654.108946 194.649561 
L 659.776069 194.065715 
L 665.443192 193.48187 
L 671.110315 192.898024 
L 676.777438 192.314178 
" clip-path="url(#p02a3c7d651)" style="fill: none; stroke: #ff0000; stroke-width: 2.25; stroke-linecap: square"/>
   </g>
   <g id="patch_3">
    <path d="M 87.68 352.78 
L 87.68 93.12 
" style="fill: none; stroke: #000000; stroke-width: 0.8; stroke-linejoin: miter; stroke-linecap: square"/>
   </g>
   <g id="patch_4">
    <path d="M 704.829697 352.78 
L 704.829697 93.12 
" style="fill: none; stroke: #000000; stroke-width: 0.8; stroke-linejoin: miter; stroke-linecap: square"/>
   </g>
   <g id="patch_5">
    <path d="M 87.68 352.78 
L 704.829697 352.78 
" style="fill: none; stroke: #000000; stroke-width: 0.8; stroke-linejoin: miter; stroke-linecap: square"/>
   </g>
   <g id="patch_6">
    <path d="M 87.68 93.12 
L 704.829697 93.12 
" style="fill: none; stroke: #000000; stroke-width: 0.8; stroke-linejoin: miter; stroke-linecap: square"/>
   </g>
   <g id="text_14">
    <!-- C_1-574(Lpro) -->
    <g transform="translate(311.332348 87.12) scale(0.24 -0.24)">
     <defs>
      <path id="DejaVuSans-43" d="M 4122 4306 
L 4122 3641 
Q 3803 3938 3442 4084 
Q 3081 4231 2675 4231 
Q 1875 4231 1450 3742 
Q 1025 3253 1025 2328 
Q 1025 1406 1450 917 
Q 1875 428 2675 428 
Q 3081 428 3442 575 
Q 3803 722 4122 1019 
L 4122 359 
Q 3791 134 3420 21 
Q 3050 -91 2638 -91 
Q 1578 -91 968 557 
Q 359 1206 359 2328 
Q 359 3453 968 4101 
Q 1578 4750 2638 4750 
Q 3056 4750 3426 4639 
Q 3797 4528 4122 4306 
z
" transform="scale(0.015625)"/>
      <path id="DejaVuSans-5f" d="M 3263 -1063 
L 3263 -1509 
L -63 -1509 
L -63 -1063 
L 3263 -1063 
z
" transform="scale(0.015625)"/>
      <path id="DejaVuSans-2d" d="M 313 2009 
L 1997 2009 
L 1997 1497 
L 313 1497 
L 313 2009 
z
" transform="scale(0.015625)"/>
      <path id="DejaVuSans-35" d="M 691 4666 
L 3169 4666 
L 3169 4134 
L 1269 4134 
L 1269 2991 
Q 1406 3038 1543 3061 
Q 1681 3084 1819 3084 
Q 2600 3084 3056 2656 
Q 3513 2228 3513 1497 
Q 3513 744 3044 326 
Q 2575 -91 1722 -91 
Q 1428 -91 1123 -41 
Q 819 9 494 109 
L 494 744 
Q 775 591 1075 516 
Q 1375 441 1709 441 
Q 2250 441 2565 725 
Q 2881 1009 2881 1497 
Q 2881 1984 2565 2268 
Q 2250 2553 1709 2553 
Q 1456 2553 1204 2497 
Q 953 2441 691 2322 
L 691 4666 
z
" transform="scale(0.015625)"/>
      <path id="DejaVuSans-28" d="M 1984 4856 
Q 1566 4138 1362 3434 
Q 1159 2731 1159 2009 
Q 1159 1288 1364 580 
Q 1569 -128 1984 -844 
L 1484 -844 
Q 1016 -109 783 600 
Q 550 1309 550 2009 
Q 550 2706 781 3412 
Q 1013 4119 1484 4856 
L 1984 4856 
z
" transform="scale(0.015625)"/>
      <path id="DejaVuSans-4c" d="M 628 4666 
L 1259 4666 
L 1259 531 
L 3531 531 
L 3531 0 
L 628 0 
L 628 4666 
z
" transform="scale(0.015625)"/>
      <path id="DejaVuSans-70" d="M 1159 525 
L 1159 -1331 
L 581 -1331 
L 581 3500 
L 1159 3500 
L 1159 2969 
Q 1341 3281 1617 3432 
Q 1894 3584 2278 3584 
Q 2916 3584 3314 3078 
Q 3713 2572 3713 1747 
Q 3713 922 3314 415 
Q 2916 -91 2278 -91 
Q 1894 -91 1617 61 
Q 1341 213 1159 525 
z
M 3116 1747 
Q 3116 2381 2855 2742 
Q 2594 3103 2138 3103 
Q 1681 3103 1420 2742 
Q 1159 2381 1159 1747 
Q 1159 1113 1420 752 
Q 1681 391 2138 391 
Q 2594 391 2855 752 
Q 3116 1113 3116 1747 
z
" transform="scale(0.015625)"/>
      <path id="DejaVuSans-72" d="M 2631 2963 
Q 2534 3019 2420 3045 
Q 2306 3072 2169 3072 
Q 1681 3072 1420 2755 
Q 1159 2438 1159 1844 
L 1159 0 
L 581 0 
L 581 3500 
L 1159 3500 
L 1159 2956 
Q 1341 3275 1631 3429 
Q 1922 3584 2338 3584 
Q 2397 3584 2469 3576 
Q 2541 3569 2628 3553 
L 2631 2963 
z
" transform="scale(0.015625)"/>
      <path id="DejaVuSans-6f" d="M 1959 3097 
Q 1497 3097 1228 2736 
Q 959 2375 959 1747 
Q 959 1119 1226 758 
Q 1494 397 1959 397 
Q 2419 397 2687 759 
Q 2956 1122 2956 1747 
Q 2956 2369 2687 2733 
Q 2419 3097 1959 3097 
z
M 1959 3584 
Q 2709 3584 3137 3096 
Q 3566 2609 3566 1747 
Q 3566 888 3137 398 
Q 2709 -91 1959 -91 
Q 1206 -91 779 398 
Q 353 888 353 1747 
Q 353 2609 779 3096 
Q 1206 3584 1959 3584 
z
" transform="scale(0.015625)"/>
      <path id="DejaVuSans-29" d="M 513 4856 
L 1013 4856 
Q 1481 4119 1714 3412 
Q 1947 2706 1947 2009 
Q 1947 1309 1714 600 
Q 1481 -109 1013 -844 
L 513 -844 
Q 928 -128 1133 580 
Q 1338 1288 1338 2009 
Q 1338 2731 1133 3434 
Q 928 4138 513 4856 
z
" transform="scale(0.015625)"/>
     </defs>
     <use xlink:href="#DejaVuSans-43"/>
     <use xlink:href="#DejaVuSans-5f" x="69.824219"/>
     <use xlink:href="#DejaVuSans-31" x="119.824219"/>
     <use xlink:href="#DejaVuSans-2d" x="183.447266"/>
     <use xlink:href="#DejaVuSans-35" x="219.53125"/>
     <use xlink:href="#DejaVuSans-37" x="283.154297"/>
     <use xlink:href="#DejaVuSans-34" x="346.777344"/>
     <use xlink:href="#DejaVuSans-28" x="410.400391"/>
     <use xlink:href="#DejaVuSans-4c" x="449.414062"/>
     <use xlink:href="#DejaVuSans-70" x="505.126953"/>
     <use xlink:href="#DejaVuSans-72" x="568.603516"/>
     <use xlink:href="#DejaVuSans-6f" x="607.466797"/>
     <use xlink:href="#DejaVuSans-29" x="668.648438"/>
    </g>
   </g>
   <g id="legend_1">
    <g id="patch_7">
     <path d="M 689.429697 111.32 
L 695.029697 111.32 
Q 697.829697 111.32 697.829697 108.52 
L 697.829697 102.92 
Q 697.829697 100.12 695.029697 100.12 
L 689.429697 100.12 
Q 686.629697 100.12 686.629697 102.92 
L 686.629697 108.52 
Q 686.629697 111.32 689.429697 111.32 
z
" style="fill: #ffffff; opacity: 0.8; stroke: #cccccc; stroke-linejoin: miter"/>
    </g>
   </g>
  </g>
  <g id="axes_2">
   <g id="patch_8">
    <path d="M 87.68 695.68 
L 704.829697 695.68 
L 704.829697 436.02 
L 87.68 436.02 
z
" style="fill: #ffffff"/>
   </g>
   <g id="PathCollection_2">
    <g clip-path="url(#p33d7eeda2c)">
     <use xlink:href="#m5517ef1302" x="281.967868" y="523.636879" style="fill: #0000ff; stroke: #ffffff; stroke-width: 0.48"/>
     <use xlink:href="#m5517ef1302" x="271.578142" y="547.552043" style="fill: #0000ff; stroke: #ffffff; stroke-width: 0.48"/>
     <use xlink:href="#m5517ef1302" x="448.203476" y="547.552043" style="fill: #0000ff; stroke: #ffffff; stroke-width: 0.48"/>
     <use xlink:href="#m5517ef1302" x="604.049359" y="547.552043" style="fill: #0000ff; stroke: #ffffff; stroke-width: 0.48"/>
     <use xlink:href="#m5517ef1302" x="219.629514" y="538.60618" style="fill: #0000ff; stroke: #ffffff; stroke-width: 0.48"/>
     <use xlink:href="#m5517ef1302" x="583.269908" y="545.359286" style="fill: #0000ff; stroke: #ffffff; stroke-width: 0.48"/>
     <use xlink:href="#m5517ef1302" x="167.680887" y="565.861529" style="fill: #0000ff; stroke: #ffffff; stroke-width: 0.48"/>
     <use xlink:href="#m5517ef1302" x="219.629514" y="563.284057" style="fill: #0000ff; stroke: #ffffff; stroke-width: 0.48"/>
     <use xlink:href="#m5517ef1302" x="676.777438" y="557.879099" style="fill: #0000ff; stroke: #ffffff; stroke-width: 0.48"/>
     <use xlink:href="#m5517ef1302" x="230.01924" y="565.172151" style="fill: #0000ff; stroke: #ffffff; stroke-width: 0.48"/>
     <use xlink:href="#m5517ef1302" x="281.967868" y="518.711881" style="fill: #0000ff; stroke: #ffffff; stroke-width: 0.48"/>
     <use xlink:href="#m5517ef1302" x="198.850063" y="683.874079" style="fill: #0000ff; stroke: #ffffff; stroke-width: 0.48"/>
     <use xlink:href="#m5517ef1302" x="115.732259" y="683.877273" style="fill: #0000ff; stroke: #ffffff; stroke-width: 0.48"/>
     <use xlink:href="#m5517ef1302" x="261.188416" y="668.87276" style="fill: #0000ff; stroke: #ffffff; stroke-width: 0.48"/>
     <use xlink:href="#m5517ef1302" x="271.578142" y="464.782119" style="fill: #0000ff; stroke: #ffffff; stroke-width: 0.48"/>
     <use xlink:href="#m5517ef1302" x="240.408965" y="496.248812" style="fill: #0000ff; stroke: #ffffff; stroke-width: 0.48"/>
     <use xlink:href="#m5517ef1302" x="624.82881" y="492.600209" style="fill: #0000ff; stroke: #ffffff; stroke-width: 0.48"/>
    </g>
   </g>
   <g id="PolyCollection_2">
    <path d="M 115.732259 536.902717 
L 115.732259 638.218253 
L 121.399382 636.804343 
L 127.066505 635.390433 
L 132.733628 633.976522 
L 138.400751 632.562612 
L 144.067874 631.024296 
L 149.734997 628.710867 
L 155.40212 627.579261 
L 161.069243 626.216376 
L 166.736366 624.308184 
L 172.403489 622.536298 
L 178.070612 620.540452 
L 183.737735 619.369775 
L 189.404858 617.24633 
L 195.071981 616.076376 
L 200.739104 614.931989 
L 206.406227 613.227443 
L 212.07335 612.13577 
L 217.740473 610.370864 
L 223.407596 609.527032 
L 229.074719 608.6832 
L 234.741842 607.760551 
L 240.408965 606.176138 
L 246.076088 605.216632 
L 251.743211 603.493521 
L 257.410334 602.468415 
L 263.077457 601.038036 
L 268.744581 599.286077 
L 274.411704 598.132829 
L 280.078827 596.95479 
L 285.74595 595.818123 
L 291.413073 594.848978 
L 297.080196 593.89103 
L 302.747319 592.627824 
L 308.414442 591.105288 
L 314.081565 589.57415 
L 319.748688 588.168884 
L 325.415811 586.999592 
L 331.082934 585.830301 
L 336.750057 584.661009 
L 342.41718 583.491717 
L 348.084303 582.322426 
L 353.751426 581.454684 
L 359.418549 580.625731 
L 365.085672 579.962844 
L 370.752795 578.986966 
L 376.419918 577.771614 
L 382.087041 576.921309 
L 387.754164 576.071246 
L 393.421287 575.227449 
L 399.08841 574.383651 
L 404.755533 573.591215 
L 410.422656 572.763546 
L 416.089779 571.852258 
L 421.756902 570.996629 
L 427.424025 569.974632 
L 433.091148 568.958334 
L 438.758271 568.001754 
L 444.425394 567.11747 
L 450.092517 566.229527 
L 455.75964 565.345911 
L 461.426763 564.301438 
L 467.093886 563.256816 
L 472.761009 562.473243 
L 478.428132 561.710188 
L 484.095255 560.932546 
L 489.762378 560.129852 
L 495.429501 559.349268 
L 501.096624 558.537975 
L 506.763747 557.724097 
L 512.43087 556.90976 
L 518.097993 555.909962 
L 523.765116 554.917324 
L 529.432239 554.392948 
L 535.099362 553.879235 
L 540.766486 553.286802 
L 546.433609 552.811156 
L 552.100732 552.399981 
L 557.767855 552.175655 
L 563.434978 551.724289 
L 569.102101 551.026784 
L 574.769224 550.609373 
L 580.436347 550.304106 
L 586.10347 550.200056 
L 591.770593 550.127238 
L 597.437716 549.703598 
L 603.104839 549.701931 
L 608.771962 549.627057 
L 614.439085 549.354747 
L 620.106208 548.940973 
L 625.773331 548.882707 
L 631.440454 548.822017 
L 637.107577 548.544006 
L 642.7747 548.48631 
L 648.441823 548.524517 
L 654.108946 548.319788 
L 659.776069 548.518566 
L 665.443192 548.280859 
L 671.110315 547.905476 
L 676.777438 548.030844 
L 676.777438 447.822727 
L 676.777438 447.822727 
L 671.110315 449.185179 
L 665.443192 450.792708 
L 659.776069 452.40638 
L 654.108946 454.0575 
L 648.441823 455.800197 
L 642.7747 457.542894 
L 637.107577 459.285591 
L 631.440454 461.029414 
L 625.773331 462.774343 
L 620.106208 464.519272 
L 614.439085 466.264201 
L 608.771962 468.00913 
L 603.104839 469.758234 
L 597.437716 471.51209 
L 591.770593 473.28289 
L 586.10347 475.00938 
L 580.436347 476.74797 
L 574.769224 478.486559 
L 569.102101 480.225149 
L 563.434978 481.64677 
L 557.767855 482.782089 
L 552.100732 484.380321 
L 546.433609 486.232442 
L 540.766486 488.084563 
L 535.099362 489.936684 
L 529.432239 491.092149 
L 523.765116 492.786457 
L 518.097993 494.491942 
L 512.43087 496.246964 
L 506.763747 498.177289 
L 501.096624 500.107613 
L 495.429501 501.744765 
L 489.762378 502.98855 
L 484.095255 504.671968 
L 478.428132 506.371124 
L 472.761009 508.07028 
L 467.093886 509.008277 
L 461.426763 510.286646 
L 455.75964 511.2232 
L 450.092517 512.176623 
L 444.425394 513.596914 
L 438.758271 515.141032 
L 433.091148 516.818969 
L 427.424025 518.429996 
L 421.756902 519.761333 
L 416.089779 520.475085 
L 410.422656 521.154219 
L 404.755533 521.545358 
L 399.08841 522.614356 
L 393.421287 523.871224 
L 387.754164 524.986328 
L 382.087041 525.536148 
L 376.419918 525.960617 
L 370.752795 526.756579 
L 365.085672 527.884654 
L 359.418549 528.632607 
L 353.751426 529.060146 
L 348.084303 529.743115 
L 342.41718 529.971163 
L 336.750057 530.695968 
L 331.082934 530.980757 
L 325.415811 531.373902 
L 319.748688 532.43165 
L 314.081565 533.115175 
L 308.414442 533.483848 
L 302.747319 533.684558 
L 297.080196 534.261004 
L 291.413073 534.243178 
L 285.74595 534.459572 
L 280.078827 534.676208 
L 274.411704 534.905269 
L 268.744581 534.950107 
L 263.077457 535.059647 
L 257.410334 535.202736 
L 251.743211 535.443816 
L 246.076088 535.639211 
L 240.408965 535.843095 
L 234.741842 536.035677 
L 229.074719 535.98848 
L 223.407596 535.884502 
L 217.740473 536.179259 
L 212.07335 536.172819 
L 206.406227 536.149316 
L 200.739104 536.126583 
L 195.071981 536.103851 
L 189.404858 536.081118 
L 183.737735 536.063973 
L 178.070612 536.142671 
L 172.403489 536.221368 
L 166.736366 536.300066 
L 161.069243 536.378763 
L 155.40212 536.457461 
L 149.734997 536.536159 
L 144.067874 536.61549 
L 138.400751 536.695906 
L 132.733628 536.776323 
L 127.066505 536.856739 
L 121.399382 536.937155 
L 115.732259 536.902717 
z
" clip-path="url(#p33d7eeda2c)" style="fill: #ff0000; fill-opacity: 0.15"/>
   </g>
   <g id="matplotlib.axis_3">
    <g id="xtick_7">
     <g id="line2d_13">
      <g>
       <use xlink:href="#m0892b5b74b" x="167.680887" y="695.68" style="stroke: #000000; stroke-width: 0.8"/>
      </g>
     </g>
     <g id="text_15">
      <!-- 1960 -->
      <g transform="translate(147.320887 714.8375) scale(0.16 -0.16)">
       <use xlink:href="#DejaVuSans-31"/>
       <use xlink:href="#DejaVuSans-39" x="63.623047"/>
       <use xlink:href="#DejaVuSans-36" x="127.246094"/>
       <use xlink:href="#DejaVuSans-30" x="190.869141"/>
      </g>
     </g>
    </g>
    <g id="xtick_8">
     <g id="line2d_14">
      <g>
       <use xlink:href="#m0892b5b74b" x="271.578142" y="695.68" style="stroke: #000000; stroke-width: 0.8"/>
      </g>
     </g>
     <g id="text_16">
      <!-- 1970 -->
      <g transform="translate(251.218142 714.8375) scale(0.16 -0.16)">
       <use xlink:href="#DejaVuSans-31"/>
       <use xlink:href="#DejaVuSans-39" x="63.623047"/>
       <use xlink:href="#DejaVuSans-37" x="127.246094"/>
       <use xlink:href="#DejaVuSans-30" x="190.869141"/>
      </g>
     </g>
    </g>
    <g id="xtick_9">
     <g id="line2d_15">
      <g>
       <use xlink:href="#m0892b5b74b" x="375.475397" y="695.68" style="stroke: #000000; stroke-width: 0.8"/>
      </g>
     </g>
     <g id="text_17">
      <!-- 1980 -->
      <g transform="translate(355.115397 714.8375) scale(0.16 -0.16)">
       <use xlink:href="#DejaVuSans-31"/>
       <use xlink:href="#DejaVuSans-39" x="63.623047"/>
       <use xlink:href="#DejaVuSans-38" x="127.246094"/>
       <use xlink:href="#DejaVuSans-30" x="190.869141"/>
      </g>
     </g>
    </g>
    <g id="xtick_10">
     <g id="line2d_16">
      <g>
       <use xlink:href="#m0892b5b74b" x="479.372653" y="695.68" style="stroke: #000000; stroke-width: 0.8"/>
      </g>
     </g>
     <g id="text_18">
      <!-- 1990 -->
      <g transform="translate(459.012653 714.8375) scale(0.16 -0.16)">
       <use xlink:href="#DejaVuSans-31"/>
       <use xlink:href="#DejaVuSans-39" x="63.623047"/>
       <use xlink:href="#DejaVuSans-39" x="127.246094"/>
       <use xlink:href="#DejaVuSans-30" x="190.869141"/>
      </g>
     </g>
    </g>
    <g id="xtick_11">
     <g id="line2d_17">
      <g>
       <use xlink:href="#m0892b5b74b" x="583.269908" y="695.68" style="stroke: #000000; stroke-width: 0.8"/>
      </g>
     </g>
     <g id="text_19">
      <!-- 2000 -->
      <g transform="translate(562.909908 714.8375) scale(0.16 -0.16)">
       <use xlink:href="#DejaVuSans-32"/>
       <use xlink:href="#DejaVuSans-30" x="63.623047"/>
       <use xlink:href="#DejaVuSans-30" x="127.246094"/>
       <use xlink:href="#DejaVuSans-30" x="190.869141"/>
      </g>
     </g>
    </g>
    <g id="xtick_12">
     <g id="line2d_18">
      <g>
       <use xlink:href="#m0892b5b74b" x="687.167164" y="695.68" style="stroke: #000000; stroke-width: 0.8"/>
      </g>
     </g>
     <g id="text_20">
      <!-- 2010 -->
      <g transform="translate(666.807164 714.8375) scale(0.16 -0.16)">
       <use xlink:href="#DejaVuSans-32"/>
       <use xlink:href="#DejaVuSans-30" x="63.623047"/>
       <use xlink:href="#DejaVuSans-31" x="127.246094"/>
       <use xlink:href="#DejaVuSans-30" x="190.869141"/>
      </g>
     </g>
    </g>
    <g id="text_21">
     <!-- Год -->
     <g transform="translate(377.123598 737.361875) scale(0.2 -0.2)">
      <use xlink:href="#DejaVuSans-413"/>
      <use xlink:href="#DejaVuSans-43e" x="60.986328"/>
      <use xlink:href="#DejaVuSans-434" x="122.167969"/>
     </g>
    </g>
   </g>
   <g id="matplotlib.axis_4">
    <g id="ytick_6">
     <g id="line2d_19">
      <g>
       <use xlink:href="#mc75600162e" x="87.68" y="683.877273" style="stroke: #000000; stroke-width: 0.8"/>
      </g>
     </g>
     <g id="text_22">
      <!-- 0.000 -->
      <g transform="translate(34.875 689.956023) scale(0.16 -0.16)">
       <use xlink:href="#DejaVuSans-30"/>
       <use xlink:href="#DejaVuSans-2e" x="63.623047"/>
       <use xlink:href="#DejaVuSans-30" x="95.410156"/>
       <use xlink:href="#DejaVuSans-30" x="159.033203"/>
       <use xlink:href="#DejaVuSans-30" x="222.65625"/>
      </g>
     </g>
    </g>
    <g id="ytick_7">
     <g id="line2d_20">
      <g>
       <use xlink:href="#mc75600162e" x="87.68" y="643.953882" style="stroke: #000000; stroke-width: 0.8"/>
      </g>
     </g>
     <g id="text_23">
      <!-- 0.025 -->
      <g transform="translate(34.875 650.032632) scale(0.16 -0.16)">
       <use xlink:href="#DejaVuSans-30"/>
       <use xlink:href="#DejaVuSans-2e" x="63.623047"/>
       <use xlink:href="#DejaVuSans-30" x="95.410156"/>
       <use xlink:href="#DejaVuSans-32" x="159.033203"/>
       <use xlink:href="#DejaVuSans-35" x="222.65625"/>
      </g>
     </g>
    </g>
    <g id="ytick_8">
     <g id="line2d_21">
      <g>
       <use xlink:href="#mc75600162e" x="87.68" y="604.030491" style="stroke: #000000; stroke-width: 0.8"/>
      </g>
     </g>
     <g id="text_24">
      <!-- 0.050 -->
      <g transform="translate(34.875 610.109241) scale(0.16 -0.16)">
       <use xlink:href="#DejaVuSans-30"/>
       <use xlink:href="#DejaVuSans-2e" x="63.623047"/>
       <use xlink:href="#DejaVuSans-30" x="95.410156"/>
       <use xlink:href="#DejaVuSans-35" x="159.033203"/>
       <use xlink:href="#DejaVuSans-30" x="222.65625"/>
      </g>
     </g>
    </g>
    <g id="ytick_9">
     <g id="line2d_22">
      <g>
       <use xlink:href="#mc75600162e" x="87.68" y="564.1071" style="stroke: #000000; stroke-width: 0.8"/>
      </g>
     </g>
     <g id="text_25">
      <!-- 0.075 -->
      <g transform="translate(34.875 570.18585) scale(0.16 -0.16)">
       <use xlink:href="#DejaVuSans-30"/>
       <use xlink:href="#DejaVuSans-2e" x="63.623047"/>
       <use xlink:href="#DejaVuSans-30" x="95.410156"/>
       <use xlink:href="#DejaVuSans-37" x="159.033203"/>
       <use xlink:href="#DejaVuSans-35" x="222.65625"/>
      </g>
     </g>
    </g>
    <g id="ytick_10">
     <g id="line2d_23">
      <g>
       <use xlink:href="#mc75600162e" x="87.68" y="524.183709" style="stroke: #000000; stroke-width: 0.8"/>
      </g>
     </g>
     <g id="text_26">
      <!-- 0.100 -->
      <g transform="translate(34.875 530.262459) scale(0.16 -0.16)">
       <use xlink:href="#DejaVuSans-30"/>
       <use xlink:href="#DejaVuSans-2e" x="63.623047"/>
       <use xlink:href="#DejaVuSans-31" x="95.410156"/>
       <use xlink:href="#DejaVuSans-30" x="159.033203"/>
       <use xlink:href="#DejaVuSans-30" x="222.65625"/>
      </g>
     </g>
    </g>
    <g id="ytick_11">
     <g id="line2d_24">
      <g>
       <use xlink:href="#mc75600162e" x="87.68" y="484.260318" style="stroke: #000000; stroke-width: 0.8"/>
      </g>
     </g>
     <g id="text_27">
      <!-- 0.125 -->
      <g transform="translate(34.875 490.339068) scale(0.16 -0.16)">
       <use xlink:href="#DejaVuSans-30"/>
       <use xlink:href="#DejaVuSans-2e" x="63.623047"/>
       <use xlink:href="#DejaVuSans-31" x="95.410156"/>
       <use xlink:href="#DejaVuSans-32" x="159.033203"/>
       <use xlink:href="#DejaVuSans-35" x="222.65625"/>
      </g>
     </g>
    </g>
    <g id="ytick_12">
     <g id="line2d_25">
      <g>
       <use xlink:href="#mc75600162e" x="87.68" y="444.336927" style="stroke: #000000; stroke-width: 0.8"/>
      </g>
     </g>
     <g id="text_28">
      <!-- 0.150 -->
      <g transform="translate(34.875 450.415677) scale(0.16 -0.16)">
       <use xlink:href="#DejaVuSans-30"/>
       <use xlink:href="#DejaVuSans-2e" x="63.623047"/>
       <use xlink:href="#DejaVuSans-31" x="95.410156"/>
       <use xlink:href="#DejaVuSans-35" x="159.033203"/>
       <use xlink:href="#DejaVuSans-30" x="222.65625"/>
      </g>
     </g>
    </g>
    <g id="text_29">
     <!-- Генетическое расстояние -->
     <g transform="translate(26.715625 702.7875) rotate(-90) scale(0.2 -0.2)">
      <use xlink:href="#DejaVuSans-413"/>
      <use xlink:href="#DejaVuSans-435" x="60.986328"/>
      <use xlink:href="#DejaVuSans-43d" x="122.509766"/>
      <use xlink:href="#DejaVuSans-435" x="187.890625"/>
      <use xlink:href="#DejaVuSans-442" x="249.414062"/>
      <use xlink:href="#DejaVuSans-438" x="307.666016"/>
      <use xlink:href="#DejaVuSans-447" x="372.65625"/>
      <use xlink:href="#DejaVuSans-435" x="431.738281"/>
      <use xlink:href="#DejaVuSans-441" x="493.261719"/>
      <use xlink:href="#DejaVuSans-43a" x="548.242188"/>
      <use xlink:href="#DejaVuSans-43e" x="608.642578"/>
      <use xlink:href="#DejaVuSans-435" x="669.824219"/>
      <use xlink:href="#DejaVuSans-20" x="731.347656"/>
      <use xlink:href="#DejaVuSans-440" x="763.134766"/>
      <use xlink:href="#DejaVuSans-430" x="826.611328"/>
      <use xlink:href="#DejaVuSans-441" x="887.890625"/>
      <use xlink:href="#DejaVuSans-441" x="942.871094"/>
      <use xlink:href="#DejaVuSans-442" x="997.851562"/>
      <use xlink:href="#DejaVuSans-43e" x="1056.103516"/>
      <use xlink:href="#DejaVuSans-44f" x="1117.285156"/>
      <use xlink:href="#DejaVuSans-43d" x="1177.441406"/>
      <use xlink:href="#DejaVuSans-438" x="1242.822266"/>
      <use xlink:href="#DejaVuSans-435" x="1307.8125"/>
     </g>
    </g>
   </g>
   <g id="line2d_26">
    <path d="M 115.732259 586.781502 
L 121.399382 586.076722 
L 127.066505 585.371941 
L 132.733628 584.667161 
L 138.400751 583.96238 
L 144.067874 583.257599 
L 149.734997 582.552819 
L 155.40212 581.848038 
L 161.069243 581.143258 
L 166.736366 580.438477 
L 172.403489 579.733696 
L 178.070612 579.028916 
L 183.737735 578.324135 
L 189.404858 577.619355 
L 195.071981 576.914574 
L 200.739104 576.209793 
L 206.406227 575.505013 
L 212.07335 574.800232 
L 217.740473 574.095452 
L 223.407596 573.390671 
L 229.074719 572.68589 
L 234.741842 571.98111 
L 240.408965 571.276329 
L 246.076088 570.571549 
L 251.743211 569.866768 
L 257.410334 569.161987 
L 263.077457 568.457207 
L 268.744581 567.752426 
L 274.411704 567.047646 
L 280.078827 566.342865 
L 285.74595 565.638084 
L 291.413073 564.933304 
L 297.080196 564.228523 
L 302.747319 563.523743 
L 308.414442 562.818962 
L 314.081565 562.114181 
L 319.748688 561.409401 
L 325.415811 560.70462 
L 331.082934 559.99984 
L 336.750057 559.295059 
L 342.41718 558.590278 
L 348.084303 557.885498 
L 353.751426 557.180717 
L 359.418549 556.475937 
L 365.085672 555.771156 
L 370.752795 555.066375 
L 376.419918 554.361595 
L 382.087041 553.656814 
L 387.754164 552.952034 
L 393.421287 552.247253 
L 399.08841 551.542472 
L 404.755533 550.837692 
L 410.422656 550.132911 
L 416.089779 549.428131 
L 421.756902 548.72335 
L 427.424025 548.018569 
L 433.091148 547.313789 
L 438.758271 546.609008 
L 444.425394 545.904228 
L 450.092517 545.199447 
L 455.75964 544.494666 
L 461.426763 543.789886 
L 467.093886 543.085105 
L 472.761009 542.380325 
L 478.428132 541.675544 
L 484.095255 540.970763 
L 489.762378 540.265983 
L 495.429501 539.561202 
L 501.096624 538.856422 
L 506.763747 538.151641 
L 512.43087 537.44686 
L 518.097993 536.74208 
L 523.765116 536.037299 
L 529.432239 535.332519 
L 535.099362 534.627738 
L 540.766486 533.922957 
L 546.433609 533.218177 
L 552.100732 532.513396 
L 557.767855 531.808616 
L 563.434978 531.103835 
L 569.102101 530.399054 
L 574.769224 529.694274 
L 580.436347 528.989493 
L 586.10347 528.284713 
L 591.770593 527.579932 
L 597.437716 526.875151 
L 603.104839 526.170371 
L 608.771962 525.46559 
L 614.439085 524.76081 
L 620.106208 524.056029 
L 625.773331 523.351248 
L 631.440454 522.646468 
L 637.107577 521.941687 
L 642.7747 521.236907 
L 648.441823 520.532126 
L 654.108946 519.827345 
L 659.776069 519.122565 
L 665.443192 518.417784 
L 671.110315 517.713004 
L 676.777438 517.008223 
" clip-path="url(#p33d7eeda2c)" style="fill: none; stroke: #ff0000; stroke-width: 2.25; stroke-linecap: square"/>
   </g>
   <g id="patch_9">
    <path d="M 87.68 695.68 
L 87.68 436.02 
" style="fill: none; stroke: #000000; stroke-width: 0.8; stroke-linejoin: miter; stroke-linecap: square"/>
   </g>
   <g id="patch_10">
    <path d="M 704.829697 695.68 
L 704.829697 436.02 
" style="fill: none; stroke: #000000; stroke-width: 0.8; stroke-linejoin: miter; stroke-linecap: square"/>
   </g>
   <g id="patch_11">
    <path d="M 87.68 695.68 
L 704.829697 695.68 
" style="fill: none; stroke: #000000; stroke-width: 0.8; stroke-linejoin: miter; stroke-linecap: square"/>
   </g>
   <g id="patch_12">
    <path d="M 87.68 436.02 
L 704.829697 436.02 
" style="fill: none; stroke: #000000; stroke-width: 0.8; stroke-linejoin: miter; stroke-linecap: square"/>
   </g>
   <g id="text_30">
    <!-- C_2948-4275(P2) -->
    <g transform="translate(292.231723 430.02) scale(0.24 -0.24)">
     <defs>
      <path id="DejaVuSans-50" d="M 1259 4147 
L 1259 2394 
L 2053 2394 
Q 2494 2394 2734 2622 
Q 2975 2850 2975 3272 
Q 2975 3691 2734 3919 
Q 2494 4147 2053 4147 
L 1259 4147 
z
M 628 4666 
L 2053 4666 
Q 2838 4666 3239 4311 
Q 3641 3956 3641 3272 
Q 3641 2581 3239 2228 
Q 2838 1875 2053 1875 
L 1259 1875 
L 1259 0 
L 628 0 
L 628 4666 
z
" transform="scale(0.015625)"/>
     </defs>
     <use xlink:href="#DejaVuSans-43"/>
     <use xlink:href="#DejaVuSans-5f" x="69.824219"/>
     <use xlink:href="#DejaVuSans-32" x="119.824219"/>
     <use xlink:href="#DejaVuSans-39" x="183.447266"/>
     <use xlink:href="#DejaVuSans-34" x="247.070312"/>
     <use xlink:href="#DejaVuSans-38" x="310.693359"/>
     <use xlink:href="#DejaVuSans-2d" x="374.316406"/>
     <use xlink:href="#DejaVuSans-34" x="410.400391"/>
     <use xlink:href="#DejaVuSans-32" x="474.023438"/>
     <use xlink:href="#DejaVuSans-37" x="537.646484"/>
     <use xlink:href="#DejaVuSans-35" x="601.269531"/>
     <use xlink:href="#DejaVuSans-28" x="664.892578"/>
     <use xlink:href="#DejaVuSans-50" x="703.90625"/>
     <use xlink:href="#DejaVuSans-32" x="764.208984"/>
     <use xlink:href="#DejaVuSans-29" x="827.832031"/>
    </g>
   </g>
   <g id="legend_2">
    <g id="patch_13">
     <path d="M 689.429697 454.22 
L 695.029697 454.22 
Q 697.829697 454.22 697.829697 451.42 
L 697.829697 445.82 
Q 697.829697 443.02 695.029697 443.02 
L 689.429697 443.02 
Q 686.629697 443.02 686.629697 445.82 
L 686.629697 451.42 
Q 686.629697 454.22 689.429697 454.22 
z
" style="fill: #ffffff; opacity: 0.8; stroke: #cccccc; stroke-linejoin: miter"/>
    </g>
   </g>
  </g>
  <g id="axes_3">
   <g id="patch_14">
    <path d="M 87.68 1038.58 
L 704.829697 1038.58 
L 704.829697 778.92 
L 87.68 778.92 
z
" style="fill: #ffffff"/>
   </g>
   <g id="PathCollection_3">
    <g clip-path="url(#paac25ba611)">
     <use xlink:href="#m5517ef1302" x="281.967868" y="862.568284" style="fill: #0000ff; stroke: #ffffff; stroke-width: 0.48"/>
     <use xlink:href="#m5517ef1302" x="271.578142" y="825.573113" style="fill: #0000ff; stroke: #ffffff; stroke-width: 0.48"/>
     <use xlink:href="#m5517ef1302" x="240.408965" y="859.177236" style="fill: #0000ff; stroke: #ffffff; stroke-width: 0.48"/>
     <use xlink:href="#m5517ef1302" x="624.82881" y="858.174645" style="fill: #0000ff; stroke: #ffffff; stroke-width: 0.48"/>
     <use xlink:href="#m5517ef1302" x="271.578142" y="864.330278" style="fill: #0000ff; stroke: #ffffff; stroke-width: 0.48"/>
     <use xlink:href="#m5517ef1302" x="448.203476" y="864.330278" style="fill: #0000ff; stroke: #ffffff; stroke-width: 0.48"/>
     <use xlink:href="#m5517ef1302" x="604.049359" y="863.925275" style="fill: #0000ff; stroke: #ffffff; stroke-width: 0.48"/>
     <use xlink:href="#m5517ef1302" x="219.629514" y="874.210207" style="fill: #0000ff; stroke: #ffffff; stroke-width: 0.48"/>
     <use xlink:href="#m5517ef1302" x="583.269908" y="879.356039" style="fill: #0000ff; stroke: #ffffff; stroke-width: 0.48"/>
     <use xlink:href="#m5517ef1302" x="167.680887" y="891.088219" style="fill: #0000ff; stroke: #ffffff; stroke-width: 0.48"/>
     <use xlink:href="#m5517ef1302" x="219.629514" y="891.088219" style="fill: #0000ff; stroke: #ffffff; stroke-width: 0.48"/>
     <use xlink:href="#m5517ef1302" x="676.777438" y="889.325698" style="fill: #0000ff; stroke: #ffffff; stroke-width: 0.48"/>
     <use xlink:href="#m5517ef1302" x="230.01924" y="891.698169" style="fill: #0000ff; stroke: #ffffff; stroke-width: 0.48"/>
     <use xlink:href="#m5517ef1302" x="198.850063" y="1026.278967" style="fill: #0000ff; stroke: #ffffff; stroke-width: 0.48"/>
     <use xlink:href="#m5517ef1302" x="115.732259" y="1026.777273" style="fill: #0000ff; stroke: #ffffff; stroke-width: 0.48"/>
     <use xlink:href="#m5517ef1302" x="261.188416" y="1012.919276" style="fill: #0000ff; stroke: #ffffff; stroke-width: 0.48"/>
     <use xlink:href="#m5517ef1302" x="281.967868" y="918.295859" style="fill: #0000ff; stroke: #ffffff; stroke-width: 0.48"/>
    </g>
   </g>
   <g id="PolyCollection_3">
    <path d="M 115.732259 879.099433 
L 115.732259 977.966377 
L 121.399382 976.437534 
L 127.066505 975.178629 
L 132.733628 973.797715 
L 138.400751 972.103541 
L 144.067874 970.664231 
L 149.734997 969.337719 
L 155.40212 968.069808 
L 161.069243 966.801898 
L 166.736366 965.498672 
L 172.403489 964.010554 
L 178.070612 962.522436 
L 183.737735 961.027504 
L 189.404858 959.526707 
L 195.071981 958.032758 
L 200.739104 956.415165 
L 206.406227 955.041272 
L 212.07335 953.58162 
L 217.740473 952.197597 
L 223.407596 950.813573 
L 229.074719 949.392904 
L 234.741842 948.010023 
L 240.408965 946.619975 
L 246.076088 944.934302 
L 251.743211 943.670236 
L 257.410334 942.449832 
L 263.077457 941.059785 
L 268.744581 939.809527 
L 274.411704 938.488504 
L 280.078827 937.230193 
L 285.74595 936.189327 
L 291.413073 935.051858 
L 297.080196 933.952838 
L 302.747319 932.754098 
L 308.414442 931.481744 
L 314.081565 930.153352 
L 319.748688 928.843873 
L 325.415811 927.807757 
L 331.082934 926.720832 
L 336.750057 925.507415 
L 342.41718 924.344466 
L 348.084303 923.162448 
L 353.751426 922.130576 
L 359.418549 920.83647 
L 365.085672 919.582505 
L 370.752795 918.563402 
L 376.419918 917.438576 
L 382.087041 916.469929 
L 387.754164 915.606652 
L 393.421287 914.738923 
L 399.08841 913.790232 
L 404.755533 912.598053 
L 410.422656 911.625731 
L 416.089779 910.802909 
L 421.756902 909.553327 
L 427.424025 908.290224 
L 433.091148 907.17775 
L 438.758271 905.811522 
L 444.425394 905.01048 
L 450.092517 903.801172 
L 455.75964 902.720722 
L 461.426763 901.363113 
L 467.093886 900.081434 
L 472.761009 899.37313 
L 478.428132 898.522311 
L 484.095255 897.892212 
L 489.762378 896.724714 
L 495.429501 895.971685 
L 501.096624 895.218657 
L 506.763747 894.249209 
L 512.43087 893.075151 
L 518.097993 892.027738 
L 523.765116 891.492427 
L 529.432239 890.876994 
L 535.099362 889.949087 
L 540.766486 889.182354 
L 546.433609 888.199605 
L 552.100732 887.451877 
L 557.767855 886.492185 
L 563.434978 885.707371 
L 569.102101 885.000878 
L 574.769224 884.628488 
L 580.436347 884.260122 
L 586.10347 883.883807 
L 591.770593 883.306901 
L 597.437716 882.5612 
L 603.104839 881.861196 
L 608.771962 881.290054 
L 614.439085 880.548015 
L 620.106208 880.248509 
L 625.773331 879.875379 
L 631.440454 879.511685 
L 637.107577 879.195127 
L 642.7747 878.855736 
L 648.441823 878.646767 
L 654.108946 878.35187 
L 659.776069 878.082933 
L 665.443192 877.781347 
L 671.110315 877.654014 
L 676.777438 877.437101 
L 676.777438 790.722727 
L 676.777438 790.722727 
L 671.110315 792.627574 
L 665.443192 794.532421 
L 659.776069 796.437268 
L 654.108946 798.342115 
L 648.441823 800.246962 
L 642.7747 802.151808 
L 637.107577 804.056655 
L 631.440454 805.961502 
L 625.773331 807.866349 
L 620.106208 809.758807 
L 614.439085 811.504342 
L 608.771962 813.249878 
L 603.104839 814.995414 
L 597.437716 816.74095 
L 591.770593 818.486486 
L 586.10347 820.232021 
L 580.436347 821.977557 
L 574.769224 823.723093 
L 569.102101 825.468629 
L 563.434978 827.214164 
L 557.767855 828.9597 
L 552.100732 830.524131 
L 546.433609 831.942806 
L 540.766486 833.761626 
L 535.099362 834.738063 
L 529.432239 836.091079 
L 523.765116 837.475672 
L 518.097993 838.636655 
L 512.43087 840.489754 
L 506.763747 842.408195 
L 501.096624 844.078708 
L 495.429501 845.301728 
L 489.762378 846.524748 
L 484.095255 847.747769 
L 478.428132 848.970789 
L 472.761009 850.193809 
L 467.093886 851.408475 
L 461.426763 852.623354 
L 455.75964 853.841614 
L 450.092517 855.187031 
L 444.425394 856.964354 
L 438.758271 858.351967 
L 433.091148 859.73958 
L 427.424025 860.875799 
L 421.756902 861.32414 
L 416.089779 862.380463 
L 410.422656 863.601666 
L 404.755533 864.81621 
L 399.08841 865.943356 
L 393.421287 866.669772 
L 387.754164 867.778687 
L 382.087041 868.524709 
L 376.419918 869.282679 
L 370.752795 869.587735 
L 365.085672 870.021297 
L 359.418549 870.073632 
L 353.751426 870.494147 
L 348.084303 871.130203 
L 342.41718 871.422932 
L 336.750057 871.862916 
L 331.082934 872.329387 
L 325.415811 872.594424 
L 319.748688 872.969188 
L 314.081565 873.329624 
L 308.414442 873.429527 
L 302.747319 874.030869 
L 297.080196 873.974075 
L 291.413073 874.525243 
L 285.74595 874.7356 
L 280.078827 874.663406 
L 274.411704 875.220411 
L 268.744581 875.59127 
L 263.077457 875.592508 
L 257.410334 875.593746 
L 251.743211 875.913912 
L 246.076088 875.979535 
L 240.408965 876.047977 
L 234.741842 876.119726 
L 229.074719 876.191475 
L 223.407596 876.58806 
L 217.740473 877.019322 
L 212.07335 877.181656 
L 206.406227 877.230131 
L 200.739104 877.344082 
L 195.071981 877.576637 
L 189.404858 877.809191 
L 183.737735 878.041746 
L 178.070612 878.198254 
L 172.403489 878.284953 
L 166.736366 878.371652 
L 161.069243 878.459733 
L 155.40212 878.551184 
L 149.734997 878.642634 
L 144.067874 878.734085 
L 138.400751 878.825536 
L 132.733628 878.804506 
L 127.066505 878.998705 
L 121.399382 879.062233 
L 115.732259 879.099433 
z
" clip-path="url(#paac25ba611)" style="fill: #ff0000; fill-opacity: 0.15"/>
   </g>
   <g id="matplotlib.axis_5">
    <g id="xtick_13">
     <g id="line2d_27">
      <g>
       <use xlink:href="#m0892b5b74b" x="167.680887" y="1038.58" style="stroke: #000000; stroke-width: 0.8"/>
      </g>
     </g>
     <g id="text_31">
      <!-- 1960 -->
      <g transform="translate(147.320887 1057.7375) scale(0.16 -0.16)">
       <use xlink:href="#DejaVuSans-31"/>
       <use xlink:href="#DejaVuSans-39" x="63.623047"/>
       <use xlink:href="#DejaVuSans-36" x="127.246094"/>
       <use xlink:href="#DejaVuSans-30" x="190.869141"/>
      </g>
     </g>
    </g>
    <g id="xtick_14">
     <g id="line2d_28">
      <g>
       <use xlink:href="#m0892b5b74b" x="271.578142" y="1038.58" style="stroke: #000000; stroke-width: 0.8"/>
      </g>
     </g>
     <g id="text_32">
      <!-- 1970 -->
      <g transform="translate(251.218142 1057.7375) scale(0.16 -0.16)">
       <use xlink:href="#DejaVuSans-31"/>
       <use xlink:href="#DejaVuSans-39" x="63.623047"/>
       <use xlink:href="#DejaVuSans-37" x="127.246094"/>
       <use xlink:href="#DejaVuSans-30" x="190.869141"/>
      </g>
     </g>
    </g>
    <g id="xtick_15">
     <g id="line2d_29">
      <g>
       <use xlink:href="#m0892b5b74b" x="375.475397" y="1038.58" style="stroke: #000000; stroke-width: 0.8"/>
      </g>
     </g>
     <g id="text_33">
      <!-- 1980 -->
      <g transform="translate(355.115397 1057.7375) scale(0.16 -0.16)">
       <use xlink:href="#DejaVuSans-31"/>
       <use xlink:href="#DejaVuSans-39" x="63.623047"/>
       <use xlink:href="#DejaVuSans-38" x="127.246094"/>
       <use xlink:href="#DejaVuSans-30" x="190.869141"/>
      </g>
     </g>
    </g>
    <g id="xtick_16">
     <g id="line2d_30">
      <g>
       <use xlink:href="#m0892b5b74b" x="479.372653" y="1038.58" style="stroke: #000000; stroke-width: 0.8"/>
      </g>
     </g>
     <g id="text_34">
      <!-- 1990 -->
      <g transform="translate(459.012653 1057.7375) scale(0.16 -0.16)">
       <use xlink:href="#DejaVuSans-31"/>
       <use xlink:href="#DejaVuSans-39" x="63.623047"/>
       <use xlink:href="#DejaVuSans-39" x="127.246094"/>
       <use xlink:href="#DejaVuSans-30" x="190.869141"/>
      </g>
     </g>
    </g>
    <g id="xtick_17">
     <g id="line2d_31">
      <g>
       <use xlink:href="#m0892b5b74b" x="583.269908" y="1038.58" style="stroke: #000000; stroke-width: 0.8"/>
      </g>
     </g>
     <g id="text_35">
      <!-- 2000 -->
      <g transform="translate(562.909908 1057.7375) scale(0.16 -0.16)">
       <use xlink:href="#DejaVuSans-32"/>
       <use xlink:href="#DejaVuSans-30" x="63.623047"/>
       <use xlink:href="#DejaVuSans-30" x="127.246094"/>
       <use xlink:href="#DejaVuSans-30" x="190.869141"/>
      </g>
     </g>
    </g>
    <g id="xtick_18">
     <g id="line2d_32">
      <g>
       <use xlink:href="#m0892b5b74b" x="687.167164" y="1038.58" style="stroke: #000000; stroke-width: 0.8"/>
      </g>
     </g>
     <g id="text_36">
      <!-- 2010 -->
      <g transform="translate(666.807164 1057.7375) scale(0.16 -0.16)">
       <use xlink:href="#DejaVuSans-32"/>
       <use xlink:href="#DejaVuSans-30" x="63.623047"/>
       <use xlink:href="#DejaVuSans-31" x="127.246094"/>
       <use xlink:href="#DejaVuSans-30" x="190.869141"/>
      </g>
     </g>
    </g>
    <g id="text_37">
     <!-- Год -->
     <g transform="translate(377.123598 1080.261875) scale(0.2 -0.2)">
      <use xlink:href="#DejaVuSans-413"/>
      <use xlink:href="#DejaVuSans-43e" x="60.986328"/>
      <use xlink:href="#DejaVuSans-434" x="122.167969"/>
     </g>
    </g>
   </g>
   <g id="matplotlib.axis_6">
    <g id="ytick_13">
     <g id="line2d_33">
      <g>
       <use xlink:href="#mc75600162e" x="87.68" y="1026.777273" style="stroke: #000000; stroke-width: 0.8"/>
      </g>
     </g>
     <g id="text_38">
      <!-- 0.000 -->
      <g transform="translate(34.875 1032.856023) scale(0.16 -0.16)">
       <use xlink:href="#DejaVuSans-30"/>
       <use xlink:href="#DejaVuSans-2e" x="63.623047"/>
       <use xlink:href="#DejaVuSans-30" x="95.410156"/>
       <use xlink:href="#DejaVuSans-30" x="159.033203"/>
       <use xlink:href="#DejaVuSans-30" x="222.65625"/>
      </g>
     </g>
    </g>
    <g id="ytick_14">
     <g id="line2d_34">
      <g>
       <use xlink:href="#mc75600162e" x="87.68" y="992.657777" style="stroke: #000000; stroke-width: 0.8"/>
      </g>
     </g>
     <g id="text_39">
      <!-- 0.025 -->
      <g transform="translate(34.875 998.736527) scale(0.16 -0.16)">
       <use xlink:href="#DejaVuSans-30"/>
       <use xlink:href="#DejaVuSans-2e" x="63.623047"/>
       <use xlink:href="#DejaVuSans-30" x="95.410156"/>
       <use xlink:href="#DejaVuSans-32" x="159.033203"/>
       <use xlink:href="#DejaVuSans-35" x="222.65625"/>
      </g>
     </g>
    </g>
    <g id="ytick_15">
     <g id="line2d_35">
      <g>
       <use xlink:href="#mc75600162e" x="87.68" y="958.538282" style="stroke: #000000; stroke-width: 0.8"/>
      </g>
     </g>
     <g id="text_40">
      <!-- 0.050 -->
      <g transform="translate(34.875 964.617032) scale(0.16 -0.16)">
       <use xlink:href="#DejaVuSans-30"/>
       <use xlink:href="#DejaVuSans-2e" x="63.623047"/>
       <use xlink:href="#DejaVuSans-30" x="95.410156"/>
       <use xlink:href="#DejaVuSans-35" x="159.033203"/>
       <use xlink:href="#DejaVuSans-30" x="222.65625"/>
      </g>
     </g>
    </g>
    <g id="ytick_16">
     <g id="line2d_36">
      <g>
       <use xlink:href="#mc75600162e" x="87.68" y="924.418786" style="stroke: #000000; stroke-width: 0.8"/>
      </g>
     </g>
     <g id="text_41">
      <!-- 0.075 -->
      <g transform="translate(34.875 930.497536) scale(0.16 -0.16)">
       <use xlink:href="#DejaVuSans-30"/>
       <use xlink:href="#DejaVuSans-2e" x="63.623047"/>
       <use xlink:href="#DejaVuSans-30" x="95.410156"/>
       <use xlink:href="#DejaVuSans-37" x="159.033203"/>
       <use xlink:href="#DejaVuSans-35" x="222.65625"/>
      </g>
     </g>
    </g>
    <g id="ytick_17">
     <g id="line2d_37">
      <g>
       <use xlink:href="#mc75600162e" x="87.68" y="890.299291" style="stroke: #000000; stroke-width: 0.8"/>
      </g>
     </g>
     <g id="text_42">
      <!-- 0.100 -->
      <g transform="translate(34.875 896.378041) scale(0.16 -0.16)">
       <use xlink:href="#DejaVuSans-30"/>
       <use xlink:href="#DejaVuSans-2e" x="63.623047"/>
       <use xlink:href="#DejaVuSans-31" x="95.410156"/>
       <use xlink:href="#DejaVuSans-30" x="159.033203"/>
       <use xlink:href="#DejaVuSans-30" x="222.65625"/>
      </g>
     </g>
    </g>
    <g id="ytick_18">
     <g id="line2d_38">
      <g>
       <use xlink:href="#mc75600162e" x="87.68" y="856.179795" style="stroke: #000000; stroke-width: 0.8"/>
      </g>
     </g>
     <g id="text_43">
      <!-- 0.125 -->
      <g transform="translate(34.875 862.258545) scale(0.16 -0.16)">
       <use xlink:href="#DejaVuSans-30"/>
       <use xlink:href="#DejaVuSans-2e" x="63.623047"/>
       <use xlink:href="#DejaVuSans-31" x="95.410156"/>
       <use xlink:href="#DejaVuSans-32" x="159.033203"/>
       <use xlink:href="#DejaVuSans-35" x="222.65625"/>
      </g>
     </g>
    </g>
    <g id="ytick_19">
     <g id="line2d_39">
      <g>
       <use xlink:href="#mc75600162e" x="87.68" y="822.0603" style="stroke: #000000; stroke-width: 0.8"/>
      </g>
     </g>
     <g id="text_44">
      <!-- 0.150 -->
      <g transform="translate(34.875 828.13905) scale(0.16 -0.16)">
       <use xlink:href="#DejaVuSans-30"/>
       <use xlink:href="#DejaVuSans-2e" x="63.623047"/>
       <use xlink:href="#DejaVuSans-31" x="95.410156"/>
       <use xlink:href="#DejaVuSans-35" x="159.033203"/>
       <use xlink:href="#DejaVuSans-30" x="222.65625"/>
      </g>
     </g>
    </g>
    <g id="ytick_20">
     <g id="line2d_40">
      <g>
       <use xlink:href="#mc75600162e" x="87.68" y="787.940805" style="stroke: #000000; stroke-width: 0.8"/>
      </g>
     </g>
     <g id="text_45">
      <!-- 0.175 -->
      <g transform="translate(34.875 794.019555) scale(0.16 -0.16)">
       <use xlink:href="#DejaVuSans-30"/>
       <use xlink:href="#DejaVuSans-2e" x="63.623047"/>
       <use xlink:href="#DejaVuSans-31" x="95.410156"/>
       <use xlink:href="#DejaVuSans-37" x="159.033203"/>
       <use xlink:href="#DejaVuSans-35" x="222.65625"/>
      </g>
     </g>
    </g>
    <g id="text_46">
     <!-- Генетическое расстояние -->
     <g transform="translate(26.715625 1045.6875) rotate(-90) scale(0.2 -0.2)">
      <use xlink:href="#DejaVuSans-413"/>
      <use xlink:href="#DejaVuSans-435" x="60.986328"/>
      <use xlink:href="#DejaVuSans-43d" x="122.509766"/>
      <use xlink:href="#DejaVuSans-435" x="187.890625"/>
      <use xlink:href="#DejaVuSans-442" x="249.414062"/>
      <use xlink:href="#DejaVuSans-438" x="307.666016"/>
      <use xlink:href="#DejaVuSans-447" x="372.65625"/>
      <use xlink:href="#DejaVuSans-435" x="431.738281"/>
      <use xlink:href="#DejaVuSans-441" x="493.261719"/>
      <use xlink:href="#DejaVuSans-43a" x="548.242188"/>
      <use xlink:href="#DejaVuSans-43e" x="608.642578"/>
      <use xlink:href="#DejaVuSans-435" x="669.824219"/>
      <use xlink:href="#DejaVuSans-20" x="731.347656"/>
      <use xlink:href="#DejaVuSans-440" x="763.134766"/>
      <use xlink:href="#DejaVuSans-430" x="826.611328"/>
      <use xlink:href="#DejaVuSans-441" x="887.890625"/>
      <use xlink:href="#DejaVuSans-441" x="942.871094"/>
      <use xlink:href="#DejaVuSans-442" x="997.851562"/>
      <use xlink:href="#DejaVuSans-43e" x="1056.103516"/>
      <use xlink:href="#DejaVuSans-44f" x="1117.285156"/>
      <use xlink:href="#DejaVuSans-43d" x="1177.441406"/>
      <use xlink:href="#DejaVuSans-438" x="1242.822266"/>
      <use xlink:href="#DejaVuSans-435" x="1307.8125"/>
     </g>
    </g>
   </g>
   <g id="line2d_41">
    <path d="M 115.732259 930.070795 
L 121.399382 929.292745 
L 127.066505 928.514695 
L 132.733628 927.736646 
L 138.400751 926.958596 
L 144.067874 926.180546 
L 149.734997 925.402496 
L 155.40212 924.624446 
L 161.069243 923.846396 
L 166.736366 923.068346 
L 172.403489 922.290297 
L 178.070612 921.512247 
L 183.737735 920.734197 
L 189.404858 919.956147 
L 195.071981 919.178097 
L 200.739104 918.400047 
L 206.406227 917.621997 
L 212.07335 916.843948 
L 217.740473 916.065898 
L 223.407596 915.287848 
L 229.074719 914.509798 
L 234.741842 913.731748 
L 240.408965 912.953698 
L 246.076088 912.175648 
L 251.743211 911.397599 
L 257.410334 910.619549 
L 263.077457 909.841499 
L 268.744581 909.063449 
L 274.411704 908.285399 
L 280.078827 907.507349 
L 285.74595 906.729299 
L 291.413073 905.95125 
L 297.080196 905.1732 
L 302.747319 904.39515 
L 308.414442 903.6171 
L 314.081565 902.83905 
L 319.748688 902.061 
L 325.415811 901.28295 
L 331.082934 900.504901 
L 336.750057 899.726851 
L 342.41718 898.948801 
L 348.084303 898.170751 
L 353.751426 897.392701 
L 359.418549 896.614651 
L 365.085672 895.836601 
L 370.752795 895.058551 
L 376.419918 894.280502 
L 382.087041 893.502452 
L 387.754164 892.724402 
L 393.421287 891.946352 
L 399.08841 891.168302 
L 404.755533 890.390252 
L 410.422656 889.612202 
L 416.089779 888.834153 
L 421.756902 888.056103 
L 427.424025 887.278053 
L 433.091148 886.500003 
L 438.758271 885.721953 
L 444.425394 884.943903 
L 450.092517 884.165853 
L 455.75964 883.387804 
L 461.426763 882.609754 
L 467.093886 881.831704 
L 472.761009 881.053654 
L 478.428132 880.275604 
L 484.095255 879.497554 
L 489.762378 878.719504 
L 495.429501 877.941455 
L 501.096624 877.163405 
L 506.763747 876.385355 
L 512.43087 875.607305 
L 518.097993 874.829255 
L 523.765116 874.051205 
L 529.432239 873.273155 
L 535.099362 872.495106 
L 540.766486 871.717056 
L 546.433609 870.939006 
L 552.100732 870.160956 
L 557.767855 869.382906 
L 563.434978 868.604856 
L 569.102101 867.826806 
L 574.769224 867.048757 
L 580.436347 866.270707 
L 586.10347 865.492657 
L 591.770593 864.714607 
L 597.437716 863.936557 
L 603.104839 863.158507 
L 608.771962 862.380457 
L 614.439085 861.602408 
L 620.106208 860.824358 
L 625.773331 860.046308 
L 631.440454 859.268258 
L 637.107577 858.490208 
L 642.7747 857.712158 
L 648.441823 856.934108 
L 654.108946 856.156059 
L 659.776069 855.378009 
L 665.443192 854.599959 
L 671.110315 853.821909 
L 676.777438 853.043859 
" clip-path="url(#paac25ba611)" style="fill: none; stroke: #ff0000; stroke-width: 2.25; stroke-linecap: square"/>
   </g>
   <g id="patch_15">
    <path d="M 87.68 1038.58 
L 87.68 778.92 
" style="fill: none; stroke: #000000; stroke-width: 0.8; stroke-linejoin: miter; stroke-linecap: square"/>
   </g>
   <g id="patch_16">
    <path d="M 704.829697 1038.58 
L 704.829697 778.92 
" style="fill: none; stroke: #000000; stroke-width: 0.8; stroke-linejoin: miter; stroke-linecap: square"/>
   </g>
   <g id="patch_17">
    <path d="M 87.68 1038.58 
L 704.829697 1038.58 
" style="fill: none; stroke: #000000; stroke-width: 0.8; stroke-linejoin: miter; stroke-linecap: square"/>
   </g>
   <g id="patch_18">
    <path d="M 87.68 778.92 
L 704.829697 778.92 
" style="fill: none; stroke: #000000; stroke-width: 0.8; stroke-linejoin: miter; stroke-linecap: square"/>
   </g>
   <g id="text_47">
    <!-- C_4276-6990(P3) -->
    <g transform="translate(292.231723 772.92) scale(0.24 -0.24)">
     <use xlink:href="#DejaVuSans-43"/>
     <use xlink:href="#DejaVuSans-5f" x="69.824219"/>
     <use xlink:href="#DejaVuSans-34" x="119.824219"/>
     <use xlink:href="#DejaVuSans-32" x="183.447266"/>
     <use xlink:href="#DejaVuSans-37" x="247.070312"/>
     <use xlink:href="#DejaVuSans-36" x="310.693359"/>
     <use xlink:href="#DejaVuSans-2d" x="374.316406"/>
     <use xlink:href="#DejaVuSans-36" x="410.400391"/>
     <use xlink:href="#DejaVuSans-39" x="474.023438"/>
     <use xlink:href="#DejaVuSans-39" x="537.646484"/>
     <use xlink:href="#DejaVuSans-30" x="601.269531"/>
     <use xlink:href="#DejaVuSans-28" x="664.892578"/>
     <use xlink:href="#DejaVuSans-50" x="703.90625"/>
     <use xlink:href="#DejaVuSans-33" x="764.208984"/>
     <use xlink:href="#DejaVuSans-29" x="827.832031"/>
    </g>
   </g>
   <g id="legend_3">
    <g id="patch_19">
     <path d="M 689.429697 797.12 
L 695.029697 797.12 
Q 697.829697 797.12 697.829697 794.32 
L 697.829697 788.72 
Q 697.829697 785.92 695.029697 785.92 
L 689.429697 785.92 
Q 686.629697 785.92 686.629697 788.72 
L 686.629697 794.32 
Q 686.629697 797.12 689.429697 797.12 
z
" style="fill: #ffffff; opacity: 0.8; stroke: #cccccc; stroke-linejoin: miter"/>
    </g>
   </g>
  </g>
  <g id="axes_4">
   <g id="patch_20">
    <path d="M 87.68 1381.48 
L 704.829697 1381.48 
L 704.829697 1121.82 
L 87.68 1121.82 
z
" style="fill: #ffffff"/>
   </g>
   <g id="PathCollection_4">
    <g clip-path="url(#p93573a09bf)">
     <use xlink:href="#m5517ef1302" x="271.578142" y="1225.662398" style="fill: #0000ff; stroke: #ffffff; stroke-width: 0.48"/>
     <use xlink:href="#m5517ef1302" x="448.203476" y="1225.662398" style="fill: #0000ff; stroke: #ffffff; stroke-width: 0.48"/>
     <use xlink:href="#m5517ef1302" x="604.049359" y="1226.191205" style="fill: #0000ff; stroke: #ffffff; stroke-width: 0.48"/>
     <use xlink:href="#m5517ef1302" x="219.629514" y="1239.770444" style="fill: #0000ff; stroke: #ffffff; stroke-width: 0.48"/>
     <use xlink:href="#m5517ef1302" x="583.269908" y="1244.386609" style="fill: #0000ff; stroke: #ffffff; stroke-width: 0.48"/>
     <use xlink:href="#m5517ef1302" x="167.680887" y="1254.649698" style="fill: #0000ff; stroke: #ffffff; stroke-width: 0.48"/>
     <use xlink:href="#m5517ef1302" x="219.629514" y="1254.132346" style="fill: #0000ff; stroke: #ffffff; stroke-width: 0.48"/>
     <use xlink:href="#m5517ef1302" x="676.777438" y="1262.855021" style="fill: #0000ff; stroke: #ffffff; stroke-width: 0.48"/>
     <use xlink:href="#m5517ef1302" x="230.01924" y="1259.989839" style="fill: #0000ff; stroke: #ffffff; stroke-width: 0.48"/>
     <use xlink:href="#m5517ef1302" x="198.850063" y="1369.675467" style="fill: #0000ff; stroke: #ffffff; stroke-width: 0.48"/>
     <use xlink:href="#m5517ef1302" x="115.732259" y="1369.677273" style="fill: #0000ff; stroke: #ffffff; stroke-width: 0.48"/>
     <use xlink:href="#m5517ef1302" x="261.188416" y="1351.534672" style="fill: #0000ff; stroke: #ffffff; stroke-width: 0.48"/>
     <use xlink:href="#m5517ef1302" x="281.967868" y="1254.733082" style="fill: #0000ff; stroke: #ffffff; stroke-width: 0.48"/>
     <use xlink:href="#m5517ef1302" x="271.578142" y="1151.451248" style="fill: #0000ff; stroke: #ffffff; stroke-width: 0.48"/>
     <use xlink:href="#m5517ef1302" x="240.408965" y="1172.376558" style="fill: #0000ff; stroke: #ffffff; stroke-width: 0.48"/>
     <use xlink:href="#m5517ef1302" x="624.82881" y="1170.370742" style="fill: #0000ff; stroke: #ffffff; stroke-width: 0.48"/>
     <use xlink:href="#m5517ef1302" x="281.967868" y="1157.037406" style="fill: #0000ff; stroke: #ffffff; stroke-width: 0.48"/>
    </g>
   </g>
   <g id="PolyCollection_4">
    <path d="M 115.732259 1216.801263 
L 115.732259 1321.505033 
L 121.399382 1320.339267 
L 127.066505 1319.167677 
L 132.733628 1317.351167 
L 138.400751 1315.668038 
L 144.067874 1314.170327 
L 149.734997 1312.822872 
L 155.40212 1311.57033 
L 161.069243 1310.267712 
L 166.736366 1308.95947 
L 172.403489 1307.474038 
L 178.070612 1305.950218 
L 183.737735 1304.63425 
L 189.404858 1303.439722 
L 195.071981 1302.225964 
L 200.739104 1301.049428 
L 206.406227 1299.840878 
L 212.07335 1298.541079 
L 217.740473 1297.06863 
L 223.407596 1295.25618 
L 229.074719 1294.441643 
L 234.741842 1293.333232 
L 240.408965 1292.027659 
L 246.076088 1290.732478 
L 251.743211 1289.563986 
L 257.410334 1288.566896 
L 263.077457 1287.565471 
L 268.744581 1286.471368 
L 274.411704 1285.226975 
L 280.078827 1283.907946 
L 285.74595 1282.658461 
L 291.413073 1281.263658 
L 297.080196 1280.188451 
L 302.747319 1279.586119 
L 308.414442 1278.368381 
L 314.081565 1276.957446 
L 319.748688 1275.535665 
L 325.415811 1274.636002 
L 331.082934 1273.71586 
L 336.750057 1272.870729 
L 342.41718 1271.93764 
L 348.084303 1271.157194 
L 353.751426 1270.41528 
L 359.418549 1269.673366 
L 365.085672 1268.712924 
L 370.752795 1267.920666 
L 376.419918 1267.167718 
L 382.087041 1266.335347 
L 387.754164 1265.526144 
L 393.421287 1264.417726 
L 399.08841 1263.475284 
L 404.755533 1262.289388 
L 410.422656 1261.414725 
L 416.089779 1260.695157 
L 421.756902 1259.818916 
L 427.424025 1258.924905 
L 433.091148 1258.420602 
L 438.758271 1257.651707 
L 444.425394 1257.303326 
L 450.092517 1256.795993 
L 455.75964 1255.926673 
L 461.426763 1255.302305 
L 467.093886 1254.643067 
L 472.761009 1253.947578 
L 478.428132 1253.082893 
L 484.095255 1252.318028 
L 489.762378 1251.903405 
L 495.429501 1251.547986 
L 501.096624 1251.06758 
L 506.763747 1250.65943 
L 512.43087 1250.480436 
L 518.097993 1249.723603 
L 523.765116 1249.364921 
L 529.432239 1248.879436 
L 535.099362 1248.449712 
L 540.766486 1248.042153 
L 546.433609 1247.739748 
L 552.100732 1247.463635 
L 557.767855 1247.22647 
L 563.434978 1247.001695 
L 569.102101 1246.533953 
L 574.769224 1246.16208 
L 580.436347 1245.997225 
L 586.10347 1245.987773 
L 591.770593 1246.003752 
L 597.437716 1246.122873 
L 603.104839 1245.930541 
L 608.771962 1245.678969 
L 614.439085 1245.479595 
L 620.106208 1245.540691 
L 625.773331 1245.390351 
L 631.440454 1245.44093 
L 637.107577 1245.272385 
L 642.7747 1245.134008 
L 648.441823 1245.124119 
L 654.108946 1245.379608 
L 659.776069 1245.470222 
L 665.443192 1245.350277 
L 671.110315 1245.22941 
L 676.777438 1245.102318 
L 676.777438 1133.622727 
L 676.777438 1133.622727 
L 671.110315 1135.069859 
L 665.443192 1136.499204 
L 659.776069 1138.108956 
L 654.108946 1139.718707 
L 648.441823 1141.328458 
L 642.7747 1142.947193 
L 637.107577 1144.569472 
L 631.440454 1146.191751 
L 625.773331 1147.814029 
L 620.106208 1149.436308 
L 614.439085 1151.081717 
L 608.771962 1152.672952 
L 603.104839 1154.289307 
L 597.437716 1155.905662 
L 591.770593 1157.522018 
L 586.10347 1159.138373 
L 580.436347 1160.754728 
L 574.769224 1162.221837 
L 569.102101 1163.766601 
L 563.434978 1165.355147 
L 557.767855 1167.067948 
L 552.100732 1168.89758 
L 546.433609 1170.759722 
L 540.766486 1172.621864 
L 535.099362 1174.484006 
L 529.432239 1176.346147 
L 523.765116 1178.208289 
L 518.097993 1180.070431 
L 512.43087 1181.889824 
L 506.763747 1182.896668 
L 501.096624 1183.903511 
L 495.429501 1185.012822 
L 489.762378 1186.627333 
L 484.095255 1188.247672 
L 478.428132 1189.910699 
L 472.761009 1191.65325 
L 467.093886 1193.395801 
L 461.426763 1194.77478 
L 455.75964 1195.951534 
L 450.092517 1197.09055 
L 444.425394 1198.183267 
L 438.758271 1199.341149 
L 433.091148 1200.575844 
L 427.424025 1201.718222 
L 421.756902 1202.868757 
L 416.089779 1204.019292 
L 410.422656 1205.169827 
L 404.755533 1206.320362 
L 399.08841 1207.206446 
L 393.421287 1207.83598 
L 387.754164 1208.866178 
L 382.087041 1209.234143 
L 376.419918 1210.004029 
L 370.752795 1210.903102 
L 365.085672 1211.758714 
L 359.418549 1212.47661 
L 353.751426 1212.848312 
L 348.084303 1213.200832 
L 342.41718 1214.172382 
L 336.750057 1214.562932 
L 331.082934 1215.284171 
L 325.415811 1215.545762 
L 319.748688 1215.809518 
L 314.081565 1216.372699 
L 308.414442 1216.453172 
L 302.747319 1216.41909 
L 297.080196 1216.856783 
L 291.413073 1217.320719 
L 285.74595 1217.468405 
L 280.078827 1218.146784 
L 274.411704 1218.405881 
L 268.744581 1218.667225 
L 263.077457 1218.635989 
L 257.410334 1218.700985 
L 251.743211 1218.790189 
L 246.076088 1218.691962 
L 240.408965 1218.425803 
L 234.741842 1218.159644 
L 229.074719 1218.31103 
L 223.407596 1218.011976 
L 217.740473 1217.725081 
L 212.07335 1217.608369 
L 206.406227 1217.49986 
L 200.739104 1217.574256 
L 195.071981 1217.66437 
L 189.404858 1217.758965 
L 183.737735 1217.795731 
L 178.070612 1217.807851 
L 172.403489 1217.777788 
L 166.736366 1217.805187 
L 161.069243 1217.970711 
L 155.40212 1217.915693 
L 149.734997 1217.861286 
L 144.067874 1217.714722 
L 138.400751 1217.505219 
L 132.733628 1217.376321 
L 127.066505 1217.069029 
L 121.399382 1216.849382 
L 115.732259 1216.801263 
z
" clip-path="url(#p93573a09bf)" style="fill: #ff0000; fill-opacity: 0.15"/>
   </g>
   <g id="matplotlib.axis_7">
    <g id="xtick_19">
     <g id="line2d_42">
      <g>
       <use xlink:href="#m0892b5b74b" x="167.680887" y="1381.48" style="stroke: #000000; stroke-width: 0.8"/>
      </g>
     </g>
     <g id="text_48">
      <!-- 1960 -->
      <g transform="translate(147.320887 1400.6375) scale(0.16 -0.16)">
       <use xlink:href="#DejaVuSans-31"/>
       <use xlink:href="#DejaVuSans-39" x="63.623047"/>
       <use xlink:href="#DejaVuSans-36" x="127.246094"/>
       <use xlink:href="#DejaVuSans-30" x="190.869141"/>
      </g>
     </g>
    </g>
    <g id="xtick_20">
     <g id="line2d_43">
      <g>
       <use xlink:href="#m0892b5b74b" x="271.578142" y="1381.48" style="stroke: #000000; stroke-width: 0.8"/>
      </g>
     </g>
     <g id="text_49">
      <!-- 1970 -->
      <g transform="translate(251.218142 1400.6375) scale(0.16 -0.16)">
       <use xlink:href="#DejaVuSans-31"/>
       <use xlink:href="#DejaVuSans-39" x="63.623047"/>
       <use xlink:href="#DejaVuSans-37" x="127.246094"/>
       <use xlink:href="#DejaVuSans-30" x="190.869141"/>
      </g>
     </g>
    </g>
    <g id="xtick_21">
     <g id="line2d_44">
      <g>
       <use xlink:href="#m0892b5b74b" x="375.475397" y="1381.48" style="stroke: #000000; stroke-width: 0.8"/>
      </g>
     </g>
     <g id="text_50">
      <!-- 1980 -->
      <g transform="translate(355.115397 1400.6375) scale(0.16 -0.16)">
       <use xlink:href="#DejaVuSans-31"/>
       <use xlink:href="#DejaVuSans-39" x="63.623047"/>
       <use xlink:href="#DejaVuSans-38" x="127.246094"/>
       <use xlink:href="#DejaVuSans-30" x="190.869141"/>
      </g>
     </g>
    </g>
    <g id="xtick_22">
     <g id="line2d_45">
      <g>
       <use xlink:href="#m0892b5b74b" x="479.372653" y="1381.48" style="stroke: #000000; stroke-width: 0.8"/>
      </g>
     </g>
     <g id="text_51">
      <!-- 1990 -->
      <g transform="translate(459.012653 1400.6375) scale(0.16 -0.16)">
       <use xlink:href="#DejaVuSans-31"/>
       <use xlink:href="#DejaVuSans-39" x="63.623047"/>
       <use xlink:href="#DejaVuSans-39" x="127.246094"/>
       <use xlink:href="#DejaVuSans-30" x="190.869141"/>
      </g>
     </g>
    </g>
    <g id="xtick_23">
     <g id="line2d_46">
      <g>
       <use xlink:href="#m0892b5b74b" x="583.269908" y="1381.48" style="stroke: #000000; stroke-width: 0.8"/>
      </g>
     </g>
     <g id="text_52">
      <!-- 2000 -->
      <g transform="translate(562.909908 1400.6375) scale(0.16 -0.16)">
       <use xlink:href="#DejaVuSans-32"/>
       <use xlink:href="#DejaVuSans-30" x="63.623047"/>
       <use xlink:href="#DejaVuSans-30" x="127.246094"/>
       <use xlink:href="#DejaVuSans-30" x="190.869141"/>
      </g>
     </g>
    </g>
    <g id="xtick_24">
     <g id="line2d_47">
      <g>
       <use xlink:href="#m0892b5b74b" x="687.167164" y="1381.48" style="stroke: #000000; stroke-width: 0.8"/>
      </g>
     </g>
     <g id="text_53">
      <!-- 2010 -->
      <g transform="translate(666.807164 1400.6375) scale(0.16 -0.16)">
       <use xlink:href="#DejaVuSans-32"/>
       <use xlink:href="#DejaVuSans-30" x="63.623047"/>
       <use xlink:href="#DejaVuSans-31" x="127.246094"/>
       <use xlink:href="#DejaVuSans-30" x="190.869141"/>
      </g>
     </g>
    </g>
    <g id="text_54">
     <!-- Год -->
     <g transform="translate(377.123598 1423.161875) scale(0.2 -0.2)">
      <use xlink:href="#DejaVuSans-413"/>
      <use xlink:href="#DejaVuSans-43e" x="60.986328"/>
      <use xlink:href="#DejaVuSans-434" x="122.167969"/>
     </g>
    </g>
   </g>
   <g id="matplotlib.axis_8">
    <g id="ytick_21">
     <g id="line2d_48">
      <g>
       <use xlink:href="#mc75600162e" x="87.68" y="1369.677273" style="stroke: #000000; stroke-width: 0.8"/>
      </g>
     </g>
     <g id="text_55">
      <!-- 0.00 -->
      <g transform="translate(45.055 1375.756023) scale(0.16 -0.16)">
       <use xlink:href="#DejaVuSans-30"/>
       <use xlink:href="#DejaVuSans-2e" x="63.623047"/>
       <use xlink:href="#DejaVuSans-30" x="95.410156"/>
       <use xlink:href="#DejaVuSans-30" x="159.033203"/>
      </g>
     </g>
    </g>
    <g id="ytick_22">
     <g id="line2d_49">
      <g>
       <use xlink:href="#mc75600162e" x="87.68" y="1323.726558" style="stroke: #000000; stroke-width: 0.8"/>
      </g>
     </g>
     <g id="text_56">
      <!-- 0.05 -->
      <g transform="translate(45.055 1329.805308) scale(0.16 -0.16)">
       <use xlink:href="#DejaVuSans-30"/>
       <use xlink:href="#DejaVuSans-2e" x="63.623047"/>
       <use xlink:href="#DejaVuSans-30" x="95.410156"/>
       <use xlink:href="#DejaVuSans-35" x="159.033203"/>
      </g>
     </g>
    </g>
    <g id="ytick_23">
     <g id="line2d_50">
      <g>
       <use xlink:href="#mc75600162e" x="87.68" y="1277.775844" style="stroke: #000000; stroke-width: 0.8"/>
      </g>
     </g>
     <g id="text_57">
      <!-- 0.10 -->
      <g transform="translate(45.055 1283.854594) scale(0.16 -0.16)">
       <use xlink:href="#DejaVuSans-30"/>
       <use xlink:href="#DejaVuSans-2e" x="63.623047"/>
       <use xlink:href="#DejaVuSans-31" x="95.410156"/>
       <use xlink:href="#DejaVuSans-30" x="159.033203"/>
      </g>
     </g>
    </g>
    <g id="ytick_24">
     <g id="line2d_51">
      <g>
       <use xlink:href="#mc75600162e" x="87.68" y="1231.825129" style="stroke: #000000; stroke-width: 0.8"/>
      </g>
     </g>
     <g id="text_58">
      <!-- 0.15 -->
      <g transform="translate(45.055 1237.903879) scale(0.16 -0.16)">
       <use xlink:href="#DejaVuSans-30"/>
       <use xlink:href="#DejaVuSans-2e" x="63.623047"/>
       <use xlink:href="#DejaVuSans-31" x="95.410156"/>
       <use xlink:href="#DejaVuSans-35" x="159.033203"/>
      </g>
     </g>
    </g>
    <g id="ytick_25">
     <g id="line2d_52">
      <g>
       <use xlink:href="#mc75600162e" x="87.68" y="1185.874415" style="stroke: #000000; stroke-width: 0.8"/>
      </g>
     </g>
     <g id="text_59">
      <!-- 0.20 -->
      <g transform="translate(45.055 1191.953165) scale(0.16 -0.16)">
       <use xlink:href="#DejaVuSans-30"/>
       <use xlink:href="#DejaVuSans-2e" x="63.623047"/>
       <use xlink:href="#DejaVuSans-32" x="95.410156"/>
       <use xlink:href="#DejaVuSans-30" x="159.033203"/>
      </g>
     </g>
    </g>
    <g id="ytick_26">
     <g id="line2d_53">
      <g>
       <use xlink:href="#mc75600162e" x="87.68" y="1139.9237" style="stroke: #000000; stroke-width: 0.8"/>
      </g>
     </g>
     <g id="text_60">
      <!-- 0.25 -->
      <g transform="translate(45.055 1146.00245) scale(0.16 -0.16)">
       <use xlink:href="#DejaVuSans-30"/>
       <use xlink:href="#DejaVuSans-2e" x="63.623047"/>
       <use xlink:href="#DejaVuSans-32" x="95.410156"/>
       <use xlink:href="#DejaVuSans-35" x="159.033203"/>
      </g>
     </g>
    </g>
    <g id="text_61">
     <!-- Генетическое расстояние -->
     <g transform="translate(36.895625 1388.5875) rotate(-90) scale(0.2 -0.2)">
      <use xlink:href="#DejaVuSans-413"/>
      <use xlink:href="#DejaVuSans-435" x="60.986328"/>
      <use xlink:href="#DejaVuSans-43d" x="122.509766"/>
      <use xlink:href="#DejaVuSans-435" x="187.890625"/>
      <use xlink:href="#DejaVuSans-442" x="249.414062"/>
      <use xlink:href="#DejaVuSans-438" x="307.666016"/>
      <use xlink:href="#DejaVuSans-447" x="372.65625"/>
      <use xlink:href="#DejaVuSans-435" x="431.738281"/>
      <use xlink:href="#DejaVuSans-441" x="493.261719"/>
      <use xlink:href="#DejaVuSans-43a" x="548.242188"/>
      <use xlink:href="#DejaVuSans-43e" x="608.642578"/>
      <use xlink:href="#DejaVuSans-435" x="669.824219"/>
      <use xlink:href="#DejaVuSans-20" x="731.347656"/>
      <use xlink:href="#DejaVuSans-440" x="763.134766"/>
      <use xlink:href="#DejaVuSans-430" x="826.611328"/>
      <use xlink:href="#DejaVuSans-441" x="887.890625"/>
      <use xlink:href="#DejaVuSans-441" x="942.871094"/>
      <use xlink:href="#DejaVuSans-442" x="997.851562"/>
      <use xlink:href="#DejaVuSans-43e" x="1056.103516"/>
      <use xlink:href="#DejaVuSans-44f" x="1117.285156"/>
      <use xlink:href="#DejaVuSans-43d" x="1177.441406"/>
      <use xlink:href="#DejaVuSans-438" x="1242.822266"/>
      <use xlink:href="#DejaVuSans-435" x="1307.8125"/>
     </g>
    </g>
   </g>
   <g id="line2d_54">
    <path d="M 115.732259 1272.641315 
L 121.399382 1271.965581 
L 127.066505 1271.289846 
L 132.733628 1270.614111 
L 138.400751 1269.938377 
L 144.067874 1269.262642 
L 149.734997 1268.586908 
L 155.40212 1267.911173 
L 161.069243 1267.235439 
L 166.736366 1266.559704 
L 172.403489 1265.88397 
L 178.070612 1265.208235 
L 183.737735 1264.532501 
L 189.404858 1263.856766 
L 195.071981 1263.181031 
L 200.739104 1262.505297 
L 206.406227 1261.829562 
L 212.07335 1261.153828 
L 217.740473 1260.478093 
L 223.407596 1259.802359 
L 229.074719 1259.126624 
L 234.741842 1258.45089 
L 240.408965 1257.775155 
L 246.076088 1257.099421 
L 251.743211 1256.423686 
L 257.410334 1255.747952 
L 263.077457 1255.072217 
L 268.744581 1254.396482 
L 274.411704 1253.720748 
L 280.078827 1253.045013 
L 285.74595 1252.369279 
L 291.413073 1251.693544 
L 297.080196 1251.01781 
L 302.747319 1250.342075 
L 308.414442 1249.666341 
L 314.081565 1248.990606 
L 319.748688 1248.314872 
L 325.415811 1247.639137 
L 331.082934 1246.963403 
L 336.750057 1246.287668 
L 342.41718 1245.611933 
L 348.084303 1244.936199 
L 353.751426 1244.260464 
L 359.418549 1243.58473 
L 365.085672 1242.908995 
L 370.752795 1242.233261 
L 376.419918 1241.557526 
L 382.087041 1240.881792 
L 387.754164 1240.206057 
L 393.421287 1239.530323 
L 399.08841 1238.854588 
L 404.755533 1238.178854 
L 410.422656 1237.503119 
L 416.089779 1236.827384 
L 421.756902 1236.15165 
L 427.424025 1235.475915 
L 433.091148 1234.800181 
L 438.758271 1234.124446 
L 444.425394 1233.448712 
L 450.092517 1232.772977 
L 455.75964 1232.097243 
L 461.426763 1231.421508 
L 467.093886 1230.745774 
L 472.761009 1230.070039 
L 478.428132 1229.394304 
L 484.095255 1228.71857 
L 489.762378 1228.042835 
L 495.429501 1227.367101 
L 501.096624 1226.691366 
L 506.763747 1226.015632 
L 512.43087 1225.339897 
L 518.097993 1224.664163 
L 523.765116 1223.988428 
L 529.432239 1223.312694 
L 535.099362 1222.636959 
L 540.766486 1221.961225 
L 546.433609 1221.28549 
L 552.100732 1220.609755 
L 557.767855 1219.934021 
L 563.434978 1219.258286 
L 569.102101 1218.582552 
L 574.769224 1217.906817 
L 580.436347 1217.231083 
L 586.10347 1216.555348 
L 591.770593 1215.879614 
L 597.437716 1215.203879 
L 603.104839 1214.528145 
L 608.771962 1213.85241 
L 614.439085 1213.176676 
L 620.106208 1212.500941 
L 625.773331 1211.825206 
L 631.440454 1211.149472 
L 637.107577 1210.473737 
L 642.7747 1209.798003 
L 648.441823 1209.122268 
L 654.108946 1208.446534 
L 659.776069 1207.770799 
L 665.443192 1207.095065 
L 671.110315 1206.41933 
L 676.777438 1205.743596 
" clip-path="url(#p93573a09bf)" style="fill: none; stroke: #ff0000; stroke-width: 2.25; stroke-linecap: square"/>
   </g>
   <g id="patch_21">
    <path d="M 87.68 1381.48 
L 87.68 1121.82 
" style="fill: none; stroke: #000000; stroke-width: 0.8; stroke-linejoin: miter; stroke-linecap: square"/>
   </g>
   <g id="patch_22">
    <path d="M 704.829697 1381.48 
L 704.829697 1121.82 
" style="fill: none; stroke: #000000; stroke-width: 0.8; stroke-linejoin: miter; stroke-linecap: square"/>
   </g>
   <g id="patch_23">
    <path d="M 87.68 1381.48 
L 704.829697 1381.48 
" style="fill: none; stroke: #000000; stroke-width: 0.8; stroke-linejoin: miter; stroke-linecap: square"/>
   </g>
   <g id="patch_24">
    <path d="M 87.68 1121.82 
L 704.829697 1121.82 
" style="fill: none; stroke: #000000; stroke-width: 0.8; stroke-linejoin: miter; stroke-linecap: square"/>
   </g>
   <g id="text_62">
    <!-- C_976-2742(P1) -->
    <g transform="translate(299.866723 1115.82) scale(0.24 -0.24)">
     <use xlink:href="#DejaVuSans-43"/>
     <use xlink:href="#DejaVuSans-5f" x="69.824219"/>
     <use xlink:href="#DejaVuSans-39" x="119.824219"/>
     <use xlink:href="#DejaVuSans-37" x="183.447266"/>
     <use xlink:href="#DejaVuSans-36" x="247.070312"/>
     <use xlink:href="#DejaVuSans-2d" x="310.693359"/>
     <use xlink:href="#DejaVuSans-32" x="346.777344"/>
     <use xlink:href="#DejaVuSans-37" x="410.400391"/>
     <use xlink:href="#DejaVuSans-34" x="474.023438"/>
     <use xlink:href="#DejaVuSans-32" x="537.646484"/>
     <use xlink:href="#DejaVuSans-28" x="601.269531"/>
     <use xlink:href="#DejaVuSans-50" x="640.283203"/>
     <use xlink:href="#DejaVuSans-31" x="700.585938"/>
     <use xlink:href="#DejaVuSans-29" x="764.208984"/>
    </g>
   </g>
   <g id="legend_4">
    <g id="patch_25">
     <path d="M 689.429697 1140.02 
L 695.029697 1140.02 
Q 697.829697 1140.02 697.829697 1137.22 
L 697.829697 1131.62 
Q 697.829697 1128.82 695.029697 1128.82 
L 689.429697 1128.82 
Q 686.629697 1128.82 686.629697 1131.62 
L 686.629697 1137.22 
Q 686.629697 1140.02 689.429697 1140.02 
z
" style="fill: #ffffff; opacity: 0.8; stroke: #cccccc; stroke-linejoin: miter"/>
    </g>
   </g>
  </g>
 </g>
 <defs>
  <clipPath id="p02a3c7d651">
   <rect x="87.68" y="93.12" width="617.149697" height="259.66"/>
  </clipPath>
  <clipPath id="p33d7eeda2c">
   <rect x="87.68" y="436.02" width="617.149697" height="259.66"/>
  </clipPath>
  <clipPath id="paac25ba611">
   <rect x="87.68" y="778.92" width="617.149697" height="259.66"/>
  </clipPath>
  <clipPath id="p93573a09bf">
   <rect x="87.68" y="1121.82" width="617.149697" height="259.66"/>
  </clipPath>
 </defs>
</svg>
