<?xml version="1.0" encoding="utf-8" standalone="no"?>
<!DOCTYPE svg PUBLIC "-//W3C//DTD SVG 1.1//EN"
  "http://www.w3.org/Graphics/SVG/1.1/DTD/svg11.dtd">
<svg xmlns:xlink="http://www.w3.org/1999/xlink" width="720pt" height="1440pt" viewBox="0 0 720 1440" xmlns="http://www.w3.org/2000/svg" version="1.1">
 <metadata>
  <rdf:RDF xmlns:dc="http://purl.org/dc/elements/1.1/" xmlns:cc="http://creativecommons.org/ns#" xmlns:rdf="http://www.w3.org/1999/02/22-rdf-syntax-ns#">
   <cc:Work>
    <dc:type rdf:resource="http://purl.org/dc/dcmitype/StillImage"/>
    <dc:date>2025-08-20T11:44:32.139395</dc:date>
    <dc:format>image/svg+xml</dc:format>
    <dc:creator>
     <cc:Agent>
      <dc:title>Matplotlib v3.8.0, https://matplotlib.org/</dc:title>
     </cc:Agent>
    </dc:creator>
   </cc:Work>
  </rdf:RDF>
 </metadata>
 <defs>
  <style type="text/css">*{stroke-linejoin: round; stroke-linecap: butt}</style>
 </defs>
 <g id="figure_1">
  <g id="patch_1">
   <path d="M 0 1440 
L 720 1440 
L 720 0 
L 0 0 
z
" style="fill: #ffffff"/>
  </g>
  <g id="axes_1">
   <g id="patch_2">
    <path d="M 87.68 352.78 
L 704.829697 352.78 
L 704.829697 93.12 
L 87.68 93.12 
z
" style="fill: #ffffff"/>
   </g>
   <g id="PathCollection_1">
    <defs>
     <path id="m87939ccb20" d="M 0 3 
C 0.795609 3 1.55874 2.683901 2.12132 2.12132 
C 2.683901 1.55874 3 0.795609 3 0 
C 3 -0.795609 2.683901 -1.55874 2.12132 -2.12132 
C 1.55874 -2.683901 0.795609 -3 0 -3 
C -0.795609 -3 -1.55874 -2.683901 -2.12132 -2.12132 
C -2.683901 -1.55874 -3 -0.795609 -3 0 
C -3 0.795609 -2.683901 1.55874 -2.12132 2.12132 
C -1.55874 2.683901 -0.795609 3 0 3 
z
" style="stroke: #ffffff; stroke-width: 0.48"/>
    </defs>
    <g clip-path="url(#peda9d34d08)">
     <use xlink:href="#m87939ccb20" x="271.578142" y="246.844494" style="fill: #0000ff; stroke: #ffffff; stroke-width: 0.48"/>
     <use xlink:href="#m87939ccb20" x="604.049359" y="246.844494" style="fill: #0000ff; stroke: #ffffff; stroke-width: 0.48"/>
     <use xlink:href="#m87939ccb20" x="448.203476" y="246.84511" style="fill: #0000ff; stroke: #ffffff; stroke-width: 0.48"/>
     <use xlink:href="#m87939ccb20" x="219.629514" y="218.077454" style="fill: #0000ff; stroke: #ffffff; stroke-width: 0.48"/>
     <use xlink:href="#m87939ccb20" x="219.629514" y="226.81521" style="fill: #0000ff; stroke: #ffffff; stroke-width: 0.48"/>
     <use xlink:href="#m87939ccb20" x="167.680887" y="227.868172" style="fill: #0000ff; stroke: #ffffff; stroke-width: 0.48"/>
     <use xlink:href="#m87939ccb20" x="583.269908" y="226.163855" style="fill: #0000ff; stroke: #ffffff; stroke-width: 0.48"/>
     <use xlink:href="#m87939ccb20" x="676.777438" y="219.260456" style="fill: #0000ff; stroke: #ffffff; stroke-width: 0.48"/>
     <use xlink:href="#m87939ccb20" x="230.01924" y="212.183662" style="fill: #0000ff; stroke: #ffffff; stroke-width: 0.48"/>
     <use xlink:href="#m87939ccb20" x="198.850063" y="339.924338" style="fill: #0000ff; stroke: #ffffff; stroke-width: 0.48"/>
     <use xlink:href="#m87939ccb20" x="115.732259" y="340.977273" style="fill: #0000ff; stroke: #ffffff; stroke-width: 0.48"/>
     <use xlink:href="#m87939ccb20" x="261.188416" y="330.164755" style="fill: #0000ff; stroke: #ffffff; stroke-width: 0.48"/>
     <use xlink:href="#m87939ccb20" x="281.967868" y="212.512199" style="fill: #0000ff; stroke: #ffffff; stroke-width: 0.48"/>
     <use xlink:href="#m87939ccb20" x="271.578142" y="175.624303" style="fill: #0000ff; stroke: #ffffff; stroke-width: 0.48"/>
     <use xlink:href="#m87939ccb20" x="240.408965" y="114.98548" style="fill: #0000ff; stroke: #ffffff; stroke-width: 0.48"/>
     <use xlink:href="#m87939ccb20" x="624.82881" y="114.98548" style="fill: #0000ff; stroke: #ffffff; stroke-width: 0.48"/>
     <use xlink:href="#m87939ccb20" x="281.967868" y="112.724129" style="fill: #0000ff; stroke: #ffffff; stroke-width: 0.48"/>
    </g>
   </g>
   <g id="PolyCollection_1">
    <path d="M 115.732259 190.017578 
L 115.732259 299.831264 
L 121.399382 298.352978 
L 127.066505 297.001702 
L 132.733628 295.550441 
L 138.400751 294.136666 
L 144.067874 292.943584 
L 149.734997 291.597098 
L 155.40212 290.250611 
L 161.069243 288.898095 
L 166.736366 287.55083 
L 172.403489 286.312976 
L 178.070612 285.01898 
L 183.737735 283.716641 
L 189.404858 282.409959 
L 195.071981 281.102828 
L 200.739104 279.692341 
L 206.406227 278.398853 
L 212.07335 276.853304 
L 217.740473 275.425451 
L 223.407596 274.158797 
L 229.074719 273.284642 
L 234.741842 271.94217 
L 240.408965 270.881036 
L 246.076088 270.129336 
L 251.743211 268.817005 
L 257.410334 267.462793 
L 263.077457 266.269704 
L 268.744581 265.005438 
L 274.411704 263.745732 
L 280.078827 262.483005 
L 285.74595 261.220278 
L 291.413073 259.999301 
L 297.080196 259.360794 
L 302.747319 258.771057 
L 308.414442 257.769197 
L 314.081565 257.278291 
L 319.748688 256.68809 
L 325.415811 255.943836 
L 331.082934 255.351993 
L 336.750057 254.598519 
L 342.41718 253.536671 
L 348.084303 252.163859 
L 353.751426 251.477426 
L 359.418549 250.734566 
L 365.085672 249.744189 
L 370.752795 249.114371 
L 376.419918 248.021381 
L 382.087041 247.298928 
L 387.754164 246.653697 
L 393.421287 246.113439 
L 399.08841 245.507284 
L 404.755533 244.708631 
L 410.422656 244.287388 
L 416.089779 243.480803 
L 421.756902 243.052852 
L 427.424025 242.730686 
L 433.091148 242.198576 
L 438.758271 241.689094 
L 444.425394 240.823366 
L 450.092517 239.956239 
L 455.75964 239.003593 
L 461.426763 238.601583 
L 467.093886 238.138168 
L 472.761009 238.226394 
L 478.428132 237.823745 
L 484.095255 237.283781 
L 489.762378 236.959911 
L 495.429501 236.876631 
L 501.096624 236.544942 
L 506.763747 236.21328 
L 512.43087 235.879691 
L 518.097993 235.827121 
L 523.765116 235.438329 
L 529.432239 235.241658 
L 535.099362 235.462648 
L 540.766486 235.071464 
L 546.433609 234.906877 
L 552.100732 234.799612 
L 557.767855 235.066828 
L 563.434978 235.050925 
L 569.102101 234.468468 
L 574.769224 234.356553 
L 580.436347 234.250483 
L 586.10347 234.139258 
L 591.770593 234.022648 
L 597.437716 234.199897 
L 603.104839 234.079938 
L 608.771962 234.067476 
L 614.439085 234.481432 
L 620.106208 234.489938 
L 625.773331 234.74004 
L 631.440454 234.868323 
L 637.107577 235.080347 
L 642.7747 235.193233 
L 648.441823 235.258033 
L 654.108946 235.419663 
L 659.776069 235.591739 
L 665.443192 235.859483 
L 671.110315 236.221791 
L 676.777438 236.505343 
L 676.777438 104.922727 
L 676.777438 104.922727 
L 671.110315 106.444317 
L 665.443192 108.305189 
L 659.776069 109.911145 
L 654.108946 111.517589 
L 648.441823 113.129551 
L 642.7747 114.749983 
L 637.107577 116.370415 
L 631.440454 117.990847 
L 625.773331 119.631278 
L 620.106208 121.549289 
L 614.439085 123.4673 
L 608.771962 125.385312 
L 603.104839 126.746997 
L 597.437716 128.294895 
L 591.770593 130.432578 
L 586.10347 132.574338 
L 580.436347 134.732182 
L 574.769224 136.891088 
L 569.102101 138.817495 
L 563.434978 140.593996 
L 557.767855 142.370497 
L 552.100732 144.146998 
L 546.433609 145.907363 
L 540.766486 147.652778 
L 535.099362 149.398192 
L 529.432239 150.273417 
L 523.765116 150.759955 
L 518.097993 151.250891 
L 512.43087 151.86 
L 506.763747 153.444166 
L 501.096624 155.016926 
L 495.429501 155.952701 
L 489.762378 156.888475 
L 484.095255 158.583148 
L 478.428132 160.376823 
L 472.761009 161.814264 
L 467.093886 162.931159 
L 461.426763 164.048055 
L 455.75964 165.16495 
L 450.092517 166.494825 
L 444.425394 168.063561 
L 438.758271 169.642931 
L 433.091148 171.23416 
L 427.424025 172.918676 
L 421.756902 174.916289 
L 416.089779 176.908601 
L 410.422656 178.84894 
L 404.755533 180.097572 
L 399.08841 180.920812 
L 393.421287 182.305627 
L 387.754164 183.372662 
L 382.087041 184.108395 
L 376.419918 185.293476 
L 370.752795 186.055131 
L 365.085672 186.80556 
L 359.418549 187.304565 
L 353.751426 188.298866 
L 348.084303 189.016135 
L 342.41718 189.717757 
L 336.750057 189.834803 
L 331.082934 190.517883 
L 325.415811 190.474353 
L 319.748688 190.876669 
L 314.081565 191.121871 
L 308.414442 192.109879 
L 302.747319 192.298739 
L 297.080196 192.223922 
L 291.413073 192.320304 
L 285.74595 193.017038 
L 280.078827 193.746523 
L 274.411704 193.304565 
L 268.744581 193.795938 
L 263.077457 194.032142 
L 257.410334 194.271239 
L 251.743211 194.536019 
L 246.076088 194.706378 
L 240.408965 194.719765 
L 234.741842 194.501945 
L 229.074719 194.284124 
L 223.407596 194.066304 
L 217.740473 193.848483 
L 212.07335 193.630663 
L 206.406227 193.412843 
L 200.739104 193.197905 
L 195.071981 192.993421 
L 189.404858 192.788938 
L 183.737735 192.584454 
L 178.070612 192.37997 
L 172.403489 192.155765 
L 166.736366 191.925187 
L 161.069243 191.71847 
L 155.40212 191.513178 
L 149.734997 191.307886 
L 144.067874 191.09003 
L 138.400751 190.86426 
L 132.733628 190.643259 
L 127.066505 190.434699 
L 121.399382 190.226139 
L 115.732259 190.017578 
z
" clip-path="url(#peda9d34d08)" style="fill: #ff0000; fill-opacity: 0.15"/>
   </g>
   <g id="matplotlib.axis_1">
    <g id="xtick_1">
     <g id="line2d_1">
      <defs>
       <path id="mb5ec068d04" d="M 0 0 
L 0 3.5 
" style="stroke: #000000; stroke-width: 0.8"/>
      </defs>
      <g>
       <use xlink:href="#mb5ec068d04" x="167.680887" y="352.78" style="stroke: #000000; stroke-width: 0.8"/>
      </g>
     </g>
     <g id="text_1">
      <!-- 1960 -->
      <g transform="translate(147.320887 371.9375) scale(0.16 -0.16)">
       <defs>
        <path id="DejaVuSans-31" d="M 794 531 
L 1825 531 
L 1825 4091 
L 703 3866 
L 703 4441 
L 1819 4666 
L 2450 4666 
L 2450 531 
L 3481 531 
L 3481 0 
L 794 0 
L 794 531 
z
" transform="scale(0.015625)"/>
        <path id="DejaVuSans-39" d="M 703 97 
L 703 672 
Q 941 559 1184 500 
Q 1428 441 1663 441 
Q 2288 441 2617 861 
Q 2947 1281 2994 2138 
Q 2813 1869 2534 1725 
Q 2256 1581 1919 1581 
Q 1219 1581 811 2004 
Q 403 2428 403 3163 
Q 403 3881 828 4315 
Q 1253 4750 1959 4750 
Q 2769 4750 3195 4129 
Q 3622 3509 3622 2328 
Q 3622 1225 3098 567 
Q 2575 -91 1691 -91 
Q 1453 -91 1209 -44 
Q 966 3 703 97 
z
M 1959 2075 
Q 2384 2075 2632 2365 
Q 2881 2656 2881 3163 
Q 2881 3666 2632 3958 
Q 2384 4250 1959 4250 
Q 1534 4250 1286 3958 
Q 1038 3666 1038 3163 
Q 1038 2656 1286 2365 
Q 1534 2075 1959 2075 
z
" transform="scale(0.015625)"/>
        <path id="DejaVuSans-36" d="M 2113 2584 
Q 1688 2584 1439 2293 
Q 1191 2003 1191 1497 
Q 1191 994 1439 701 
Q 1688 409 2113 409 
Q 2538 409 2786 701 
Q 3034 994 3034 1497 
Q 3034 2003 2786 2293 
Q 2538 2584 2113 2584 
z
M 3366 4563 
L 3366 3988 
Q 3128 4100 2886 4159 
Q 2644 4219 2406 4219 
Q 1781 4219 1451 3797 
Q 1122 3375 1075 2522 
Q 1259 2794 1537 2939 
Q 1816 3084 2150 3084 
Q 2853 3084 3261 2657 
Q 3669 2231 3669 1497 
Q 3669 778 3244 343 
Q 2819 -91 2113 -91 
Q 1303 -91 875 529 
Q 447 1150 447 2328 
Q 447 3434 972 4092 
Q 1497 4750 2381 4750 
Q 2619 4750 2861 4703 
Q 3103 4656 3366 4563 
z
" transform="scale(0.015625)"/>
        <path id="DejaVuSans-30" d="M 2034 4250 
Q 1547 4250 1301 3770 
Q 1056 3291 1056 2328 
Q 1056 1369 1301 889 
Q 1547 409 2034 409 
Q 2525 409 2770 889 
Q 3016 1369 3016 2328 
Q 3016 3291 2770 3770 
Q 2525 4250 2034 4250 
z
M 2034 4750 
Q 2819 4750 3233 4129 
Q 3647 3509 3647 2328 
Q 3647 1150 3233 529 
Q 2819 -91 2034 -91 
Q 1250 -91 836 529 
Q 422 1150 422 2328 
Q 422 3509 836 4129 
Q 1250 4750 2034 4750 
z
" transform="scale(0.015625)"/>
       </defs>
       <use xlink:href="#DejaVuSans-31"/>
       <use xlink:href="#DejaVuSans-39" x="63.623047"/>
       <use xlink:href="#DejaVuSans-36" x="127.246094"/>
       <use xlink:href="#DejaVuSans-30" x="190.869141"/>
      </g>
     </g>
    </g>
    <g id="xtick_2">
     <g id="line2d_2">
      <g>
       <use xlink:href="#mb5ec068d04" x="271.578142" y="352.78" style="stroke: #000000; stroke-width: 0.8"/>
      </g>
     </g>
     <g id="text_2">
      <!-- 1970 -->
      <g transform="translate(251.218142 371.9375) scale(0.16 -0.16)">
       <defs>
        <path id="DejaVuSans-37" d="M 525 4666 
L 3525 4666 
L 3525 4397 
L 1831 0 
L 1172 0 
L 2766 4134 
L 525 4134 
L 525 4666 
z
" transform="scale(0.015625)"/>
       </defs>
       <use xlink:href="#DejaVuSans-31"/>
       <use xlink:href="#DejaVuSans-39" x="63.623047"/>
       <use xlink:href="#DejaVuSans-37" x="127.246094"/>
       <use xlink:href="#DejaVuSans-30" x="190.869141"/>
      </g>
     </g>
    </g>
    <g id="xtick_3">
     <g id="line2d_3">
      <g>
       <use xlink:href="#mb5ec068d04" x="375.475397" y="352.78" style="stroke: #000000; stroke-width: 0.8"/>
      </g>
     </g>
     <g id="text_3">
      <!-- 1980 -->
      <g transform="translate(355.115397 371.9375) scale(0.16 -0.16)">
       <defs>
        <path id="DejaVuSans-38" d="M 2034 2216 
Q 1584 2216 1326 1975 
Q 1069 1734 1069 1313 
Q 1069 891 1326 650 
Q 1584 409 2034 409 
Q 2484 409 2743 651 
Q 3003 894 3003 1313 
Q 3003 1734 2745 1975 
Q 2488 2216 2034 2216 
z
M 1403 2484 
Q 997 2584 770 2862 
Q 544 3141 544 3541 
Q 544 4100 942 4425 
Q 1341 4750 2034 4750 
Q 2731 4750 3128 4425 
Q 3525 4100 3525 3541 
Q 3525 3141 3298 2862 
Q 3072 2584 2669 2484 
Q 3125 2378 3379 2068 
Q 3634 1759 3634 1313 
Q 3634 634 3220 271 
Q 2806 -91 2034 -91 
Q 1263 -91 848 271 
Q 434 634 434 1313 
Q 434 1759 690 2068 
Q 947 2378 1403 2484 
z
M 1172 3481 
Q 1172 3119 1398 2916 
Q 1625 2713 2034 2713 
Q 2441 2713 2670 2916 
Q 2900 3119 2900 3481 
Q 2900 3844 2670 4047 
Q 2441 4250 2034 4250 
Q 1625 4250 1398 4047 
Q 1172 3844 1172 3481 
z
" transform="scale(0.015625)"/>
       </defs>
       <use xlink:href="#DejaVuSans-31"/>
       <use xlink:href="#DejaVuSans-39" x="63.623047"/>
       <use xlink:href="#DejaVuSans-38" x="127.246094"/>
       <use xlink:href="#DejaVuSans-30" x="190.869141"/>
      </g>
     </g>
    </g>
    <g id="xtick_4">
     <g id="line2d_4">
      <g>
       <use xlink:href="#mb5ec068d04" x="479.372653" y="352.78" style="stroke: #000000; stroke-width: 0.8"/>
      </g>
     </g>
     <g id="text_4">
      <!-- 1990 -->
      <g transform="translate(459.012653 371.9375) scale(0.16 -0.16)">
       <use xlink:href="#DejaVuSans-31"/>
       <use xlink:href="#DejaVuSans-39" x="63.623047"/>
       <use xlink:href="#DejaVuSans-39" x="127.246094"/>
       <use xlink:href="#DejaVuSans-30" x="190.869141"/>
      </g>
     </g>
    </g>
    <g id="xtick_5">
     <g id="line2d_5">
      <g>
       <use xlink:href="#mb5ec068d04" x="583.269908" y="352.78" style="stroke: #000000; stroke-width: 0.8"/>
      </g>
     </g>
     <g id="text_5">
      <!-- 2000 -->
      <g transform="translate(562.909908 371.9375) scale(0.16 -0.16)">
       <defs>
        <path id="DejaVuSans-32" d="M 1228 531 
L 3431 531 
L 3431 0 
L 469 0 
L 469 531 
Q 828 903 1448 1529 
Q 2069 2156 2228 2338 
Q 2531 2678 2651 2914 
Q 2772 3150 2772 3378 
Q 2772 3750 2511 3984 
Q 2250 4219 1831 4219 
Q 1534 4219 1204 4116 
Q 875 4013 500 3803 
L 500 4441 
Q 881 4594 1212 4672 
Q 1544 4750 1819 4750 
Q 2544 4750 2975 4387 
Q 3406 4025 3406 3419 
Q 3406 3131 3298 2873 
Q 3191 2616 2906 2266 
Q 2828 2175 2409 1742 
Q 1991 1309 1228 531 
z
" transform="scale(0.015625)"/>
       </defs>
       <use xlink:href="#DejaVuSans-32"/>
       <use xlink:href="#DejaVuSans-30" x="63.623047"/>
       <use xlink:href="#DejaVuSans-30" x="127.246094"/>
       <use xlink:href="#DejaVuSans-30" x="190.869141"/>
      </g>
     </g>
    </g>
    <g id="xtick_6">
     <g id="line2d_6">
      <g>
       <use xlink:href="#mb5ec068d04" x="687.167164" y="352.78" style="stroke: #000000; stroke-width: 0.8"/>
      </g>
     </g>
     <g id="text_6">
      <!-- 2010 -->
      <g transform="translate(666.807164 371.9375) scale(0.16 -0.16)">
       <use xlink:href="#DejaVuSans-32"/>
       <use xlink:href="#DejaVuSans-30" x="63.623047"/>
       <use xlink:href="#DejaVuSans-31" x="127.246094"/>
       <use xlink:href="#DejaVuSans-30" x="190.869141"/>
      </g>
     </g>
    </g>
    <g id="text_7">
     <!-- Year -->
     <g transform="translate(375.079848 394.461875) scale(0.2 -0.2)">
      <defs>
       <path id="DejaVuSans-59" d="M -13 4666 
L 666 4666 
L 1959 2747 
L 3244 4666 
L 3922 4666 
L 2272 2222 
L 2272 0 
L 1638 0 
L 1638 2222 
L -13 4666 
z
" transform="scale(0.015625)"/>
       <path id="DejaVuSans-65" d="M 3597 1894 
L 3597 1613 
L 953 1613 
Q 991 1019 1311 708 
Q 1631 397 2203 397 
Q 2534 397 2845 478 
Q 3156 559 3463 722 
L 3463 178 
Q 3153 47 2828 -22 
Q 2503 -91 2169 -91 
Q 1331 -91 842 396 
Q 353 884 353 1716 
Q 353 2575 817 3079 
Q 1281 3584 2069 3584 
Q 2775 3584 3186 3129 
Q 3597 2675 3597 1894 
z
M 3022 2063 
Q 3016 2534 2758 2815 
Q 2500 3097 2075 3097 
Q 1594 3097 1305 2825 
Q 1016 2553 972 2059 
L 3022 2063 
z
" transform="scale(0.015625)"/>
       <path id="DejaVuSans-61" d="M 2194 1759 
Q 1497 1759 1228 1600 
Q 959 1441 959 1056 
Q 959 750 1161 570 
Q 1363 391 1709 391 
Q 2188 391 2477 730 
Q 2766 1069 2766 1631 
L 2766 1759 
L 2194 1759 
z
M 3341 1997 
L 3341 0 
L 2766 0 
L 2766 531 
Q 2569 213 2275 61 
Q 1981 -91 1556 -91 
Q 1019 -91 701 211 
Q 384 513 384 1019 
Q 384 1609 779 1909 
Q 1175 2209 1959 2209 
L 2766 2209 
L 2766 2266 
Q 2766 2663 2505 2880 
Q 2244 3097 1772 3097 
Q 1472 3097 1187 3025 
Q 903 2953 641 2809 
L 641 3341 
Q 956 3463 1253 3523 
Q 1550 3584 1831 3584 
Q 2591 3584 2966 3190 
Q 3341 2797 3341 1997 
z
" transform="scale(0.015625)"/>
       <path id="DejaVuSans-72" d="M 2631 2963 
Q 2534 3019 2420 3045 
Q 2306 3072 2169 3072 
Q 1681 3072 1420 2755 
Q 1159 2438 1159 1844 
L 1159 0 
L 581 0 
L 581 3500 
L 1159 3500 
L 1159 2956 
Q 1341 3275 1631 3429 
Q 1922 3584 2338 3584 
Q 2397 3584 2469 3576 
Q 2541 3569 2628 3553 
L 2631 2963 
z
" transform="scale(0.015625)"/>
      </defs>
      <use xlink:href="#DejaVuSans-59"/>
      <use xlink:href="#DejaVuSans-65" x="47.833984"/>
      <use xlink:href="#DejaVuSans-61" x="109.357422"/>
      <use xlink:href="#DejaVuSans-72" x="170.636719"/>
     </g>
    </g>
   </g>
   <g id="matplotlib.axis_2">
    <g id="ytick_1">
     <g id="line2d_7">
      <defs>
       <path id="m69b7fddda0" d="M 0 0 
L -3.5 0 
" style="stroke: #000000; stroke-width: 0.8"/>
      </defs>
      <g>
       <use xlink:href="#m69b7fddda0" x="87.68" y="340.977273" style="stroke: #000000; stroke-width: 0.8"/>
      </g>
     </g>
     <g id="text_8">
      <!-- 0.0 -->
      <g transform="translate(55.235 347.056023) scale(0.16 -0.16)">
       <defs>
        <path id="DejaVuSans-2e" d="M 684 794 
L 1344 794 
L 1344 0 
L 684 0 
L 684 794 
z
" transform="scale(0.015625)"/>
       </defs>
       <use xlink:href="#DejaVuSans-30"/>
       <use xlink:href="#DejaVuSans-2e" x="63.623047"/>
       <use xlink:href="#DejaVuSans-30" x="95.410156"/>
      </g>
     </g>
    </g>
    <g id="ytick_2">
     <g id="line2d_8">
      <g>
       <use xlink:href="#m69b7fddda0" x="87.68" y="281.11258" style="stroke: #000000; stroke-width: 0.8"/>
      </g>
     </g>
     <g id="text_9">
      <!-- 0.1 -->
      <g transform="translate(55.235 287.19133) scale(0.16 -0.16)">
       <use xlink:href="#DejaVuSans-30"/>
       <use xlink:href="#DejaVuSans-2e" x="63.623047"/>
       <use xlink:href="#DejaVuSans-31" x="95.410156"/>
      </g>
     </g>
    </g>
    <g id="ytick_3">
     <g id="line2d_9">
      <g>
       <use xlink:href="#m69b7fddda0" x="87.68" y="221.247887" style="stroke: #000000; stroke-width: 0.8"/>
      </g>
     </g>
     <g id="text_10">
      <!-- 0.2 -->
      <g transform="translate(55.235 227.326637) scale(0.16 -0.16)">
       <use xlink:href="#DejaVuSans-30"/>
       <use xlink:href="#DejaVuSans-2e" x="63.623047"/>
       <use xlink:href="#DejaVuSans-32" x="95.410156"/>
      </g>
     </g>
    </g>
    <g id="ytick_4">
     <g id="line2d_10">
      <g>
       <use xlink:href="#m69b7fddda0" x="87.68" y="161.383195" style="stroke: #000000; stroke-width: 0.8"/>
      </g>
     </g>
     <g id="text_11">
      <!-- 0.3 -->
      <g transform="translate(55.235 167.461945) scale(0.16 -0.16)">
       <defs>
        <path id="DejaVuSans-33" d="M 2597 2516 
Q 3050 2419 3304 2112 
Q 3559 1806 3559 1356 
Q 3559 666 3084 287 
Q 2609 -91 1734 -91 
Q 1441 -91 1130 -33 
Q 819 25 488 141 
L 488 750 
Q 750 597 1062 519 
Q 1375 441 1716 441 
Q 2309 441 2620 675 
Q 2931 909 2931 1356 
Q 2931 1769 2642 2001 
Q 2353 2234 1838 2234 
L 1294 2234 
L 1294 2753 
L 1863 2753 
Q 2328 2753 2575 2939 
Q 2822 3125 2822 3475 
Q 2822 3834 2567 4026 
Q 2313 4219 1838 4219 
Q 1578 4219 1281 4162 
Q 984 4106 628 3988 
L 628 4550 
Q 988 4650 1302 4700 
Q 1616 4750 1894 4750 
Q 2613 4750 3031 4423 
Q 3450 4097 3450 3541 
Q 3450 3153 3228 2886 
Q 3006 2619 2597 2516 
z
" transform="scale(0.015625)"/>
       </defs>
       <use xlink:href="#DejaVuSans-30"/>
       <use xlink:href="#DejaVuSans-2e" x="63.623047"/>
       <use xlink:href="#DejaVuSans-33" x="95.410156"/>
      </g>
     </g>
    </g>
    <g id="ytick_5">
     <g id="line2d_11">
      <g>
       <use xlink:href="#m69b7fddda0" x="87.68" y="101.518502" style="stroke: #000000; stroke-width: 0.8"/>
      </g>
     </g>
     <g id="text_12">
      <!-- 0.4 -->
      <g transform="translate(55.235 107.597252) scale(0.16 -0.16)">
       <defs>
        <path id="DejaVuSans-34" d="M 2419 4116 
L 825 1625 
L 2419 1625 
L 2419 4116 
z
M 2253 4666 
L 3047 4666 
L 3047 1625 
L 3713 1625 
L 3713 1100 
L 3047 1100 
L 3047 0 
L 2419 0 
L 2419 1100 
L 313 1100 
L 313 1709 
L 2253 4666 
z
" transform="scale(0.015625)"/>
       </defs>
       <use xlink:href="#DejaVuSans-30"/>
       <use xlink:href="#DejaVuSans-2e" x="63.623047"/>
       <use xlink:href="#DejaVuSans-34" x="95.410156"/>
      </g>
     </g>
    </g>
    <g id="text_13">
     <!-- Genetic distance -->
     <g transform="translate(47.075625 307.090625) rotate(-90) scale(0.2 -0.2)">
      <defs>
       <path id="DejaVuSans-47" d="M 3809 666 
L 3809 1919 
L 2778 1919 
L 2778 2438 
L 4434 2438 
L 4434 434 
Q 4069 175 3628 42 
Q 3188 -91 2688 -91 
Q 1594 -91 976 548 
Q 359 1188 359 2328 
Q 359 3472 976 4111 
Q 1594 4750 2688 4750 
Q 3144 4750 3555 4637 
Q 3966 4525 4313 4306 
L 4313 3634 
Q 3963 3931 3569 4081 
Q 3175 4231 2741 4231 
Q 1884 4231 1454 3753 
Q 1025 3275 1025 2328 
Q 1025 1384 1454 906 
Q 1884 428 2741 428 
Q 3075 428 3337 486 
Q 3600 544 3809 666 
z
" transform="scale(0.015625)"/>
       <path id="DejaVuSans-6e" d="M 3513 2113 
L 3513 0 
L 2938 0 
L 2938 2094 
Q 2938 2591 2744 2837 
Q 2550 3084 2163 3084 
Q 1697 3084 1428 2787 
Q 1159 2491 1159 1978 
L 1159 0 
L 581 0 
L 581 3500 
L 1159 3500 
L 1159 2956 
Q 1366 3272 1645 3428 
Q 1925 3584 2291 3584 
Q 2894 3584 3203 3211 
Q 3513 2838 3513 2113 
z
" transform="scale(0.015625)"/>
       <path id="DejaVuSans-74" d="M 1172 4494 
L 1172 3500 
L 2356 3500 
L 2356 3053 
L 1172 3053 
L 1172 1153 
Q 1172 725 1289 603 
Q 1406 481 1766 481 
L 2356 481 
L 2356 0 
L 1766 0 
Q 1100 0 847 248 
Q 594 497 594 1153 
L 594 3053 
L 172 3053 
L 172 3500 
L 594 3500 
L 594 4494 
L 1172 4494 
z
" transform="scale(0.015625)"/>
       <path id="DejaVuSans-69" d="M 603 3500 
L 1178 3500 
L 1178 0 
L 603 0 
L 603 3500 
z
M 603 4863 
L 1178 4863 
L 1178 4134 
L 603 4134 
L 603 4863 
z
" transform="scale(0.015625)"/>
       <path id="DejaVuSans-63" d="M 3122 3366 
L 3122 2828 
Q 2878 2963 2633 3030 
Q 2388 3097 2138 3097 
Q 1578 3097 1268 2742 
Q 959 2388 959 1747 
Q 959 1106 1268 751 
Q 1578 397 2138 397 
Q 2388 397 2633 464 
Q 2878 531 3122 666 
L 3122 134 
Q 2881 22 2623 -34 
Q 2366 -91 2075 -91 
Q 1284 -91 818 406 
Q 353 903 353 1747 
Q 353 2603 823 3093 
Q 1294 3584 2113 3584 
Q 2378 3584 2631 3529 
Q 2884 3475 3122 3366 
z
" transform="scale(0.015625)"/>
       <path id="DejaVuSans-20" transform="scale(0.015625)"/>
       <path id="DejaVuSans-64" d="M 2906 2969 
L 2906 4863 
L 3481 4863 
L 3481 0 
L 2906 0 
L 2906 525 
Q 2725 213 2448 61 
Q 2172 -91 1784 -91 
Q 1150 -91 751 415 
Q 353 922 353 1747 
Q 353 2572 751 3078 
Q 1150 3584 1784 3584 
Q 2172 3584 2448 3432 
Q 2725 3281 2906 2969 
z
M 947 1747 
Q 947 1113 1208 752 
Q 1469 391 1925 391 
Q 2381 391 2643 752 
Q 2906 1113 2906 1747 
Q 2906 2381 2643 2742 
Q 2381 3103 1925 3103 
Q 1469 3103 1208 2742 
Q 947 2381 947 1747 
z
" transform="scale(0.015625)"/>
       <path id="DejaVuSans-73" d="M 2834 3397 
L 2834 2853 
Q 2591 2978 2328 3040 
Q 2066 3103 1784 3103 
Q 1356 3103 1142 2972 
Q 928 2841 928 2578 
Q 928 2378 1081 2264 
Q 1234 2150 1697 2047 
L 1894 2003 
Q 2506 1872 2764 1633 
Q 3022 1394 3022 966 
Q 3022 478 2636 193 
Q 2250 -91 1575 -91 
Q 1294 -91 989 -36 
Q 684 19 347 128 
L 347 722 
Q 666 556 975 473 
Q 1284 391 1588 391 
Q 1994 391 2212 530 
Q 2431 669 2431 922 
Q 2431 1156 2273 1281 
Q 2116 1406 1581 1522 
L 1381 1569 
Q 847 1681 609 1914 
Q 372 2147 372 2553 
Q 372 3047 722 3315 
Q 1072 3584 1716 3584 
Q 2034 3584 2315 3537 
Q 2597 3491 2834 3397 
z
" transform="scale(0.015625)"/>
      </defs>
      <use xlink:href="#DejaVuSans-47"/>
      <use xlink:href="#DejaVuSans-65" x="77.490234"/>
      <use xlink:href="#DejaVuSans-6e" x="139.013672"/>
      <use xlink:href="#DejaVuSans-65" x="202.392578"/>
      <use xlink:href="#DejaVuSans-74" x="263.916016"/>
      <use xlink:href="#DejaVuSans-69" x="303.125"/>
      <use xlink:href="#DejaVuSans-63" x="330.908203"/>
      <use xlink:href="#DejaVuSans-20" x="385.888672"/>
      <use xlink:href="#DejaVuSans-64" x="417.675781"/>
      <use xlink:href="#DejaVuSans-69" x="481.152344"/>
      <use xlink:href="#DejaVuSans-73" x="508.935547"/>
      <use xlink:href="#DejaVuSans-74" x="561.035156"/>
      <use xlink:href="#DejaVuSans-61" x="600.244141"/>
      <use xlink:href="#DejaVuSans-6e" x="661.523438"/>
      <use xlink:href="#DejaVuSans-63" x="724.902344"/>
      <use xlink:href="#DejaVuSans-65" x="779.882812"/>
     </g>
    </g>
   </g>
   <g id="line2d_12">
    <path d="M 115.732259 247.529552 
L 121.399382 246.929094 
L 127.066505 246.328636 
L 132.733628 245.728178 
L 138.400751 245.12772 
L 144.067874 244.527262 
L 149.734997 243.926804 
L 155.40212 243.326346 
L 161.069243 242.725887 
L 166.736366 242.125429 
L 172.403489 241.524971 
L 178.070612 240.924513 
L 183.737735 240.324055 
L 189.404858 239.723597 
L 195.071981 239.123139 
L 200.739104 238.52268 
L 206.406227 237.922222 
L 212.07335 237.321764 
L 217.740473 236.721306 
L 223.407596 236.120848 
L 229.074719 235.52039 
L 234.741842 234.919932 
L 240.408965 234.319474 
L 246.076088 233.719015 
L 251.743211 233.118557 
L 257.410334 232.518099 
L 263.077457 231.917641 
L 268.744581 231.317183 
L 274.411704 230.716725 
L 280.078827 230.116267 
L 285.74595 229.515808 
L 291.413073 228.91535 
L 297.080196 228.314892 
L 302.747319 227.714434 
L 308.414442 227.113976 
L 314.081565 226.513518 
L 319.748688 225.91306 
L 325.415811 225.312602 
L 331.082934 224.712143 
L 336.750057 224.111685 
L 342.41718 223.511227 
L 348.084303 222.910769 
L 353.751426 222.310311 
L 359.418549 221.709853 
L 365.085672 221.109395 
L 370.752795 220.508936 
L 376.419918 219.908478 
L 382.087041 219.30802 
L 387.754164 218.707562 
L 393.421287 218.107104 
L 399.08841 217.506646 
L 404.755533 216.906188 
L 410.422656 216.30573 
L 416.089779 215.705271 
L 421.756902 215.104813 
L 427.424025 214.504355 
L 433.091148 213.903897 
L 438.758271 213.303439 
L 444.425394 212.702981 
L 450.092517 212.102523 
L 455.75964 211.502064 
L 461.426763 210.901606 
L 467.093886 210.301148 
L 472.761009 209.70069 
L 478.428132 209.100232 
L 484.095255 208.499774 
L 489.762378 207.899316 
L 495.429501 207.298858 
L 501.096624 206.698399 
L 506.763747 206.097941 
L 512.43087 205.497483 
L 518.097993 204.897025 
L 523.765116 204.296567 
L 529.432239 203.696109 
L 535.099362 203.095651 
L 540.766486 202.495193 
L 546.433609 201.894734 
L 552.100732 201.294276 
L 557.767855 200.693818 
L 563.434978 200.09336 
L 569.102101 199.492902 
L 574.769224 198.892444 
L 580.436347 198.291986 
L 586.10347 197.691527 
L 591.770593 197.091069 
L 597.437716 196.490611 
L 603.104839 195.890153 
L 608.771962 195.289695 
L 614.439085 194.689237 
L 620.106208 194.088779 
L 625.773331 193.488321 
L 631.440454 192.887862 
L 637.107577 192.287404 
L 642.7747 191.686946 
L 648.441823 191.086488 
L 654.108946 190.48603 
L 659.776069 189.885572 
L 665.443192 189.285114 
L 671.110315 188.684655 
L 676.777438 188.084197 
" clip-path="url(#peda9d34d08)" style="fill: none; stroke: #ff0000; stroke-width: 2.25; stroke-linecap: square"/>
   </g>
   <g id="patch_3">
    <path d="M 87.68 352.78 
L 87.68 93.12 
" style="fill: none; stroke: #000000; stroke-width: 0.8; stroke-linejoin: miter; stroke-linecap: square"/>
   </g>
   <g id="patch_4">
    <path d="M 704.829697 352.78 
L 704.829697 93.12 
" style="fill: none; stroke: #000000; stroke-width: 0.8; stroke-linejoin: miter; stroke-linecap: square"/>
   </g>
   <g id="patch_5">
    <path d="M 87.68 352.78 
L 704.829697 352.78 
" style="fill: none; stroke: #000000; stroke-width: 0.8; stroke-linejoin: miter; stroke-linecap: square"/>
   </g>
   <g id="patch_6">
    <path d="M 87.68 93.12 
L 704.829697 93.12 
" style="fill: none; stroke: #000000; stroke-width: 0.8; stroke-linejoin: miter; stroke-linecap: square"/>
   </g>
   <g id="text_14">
    <!-- C_1-574(Lpro) -->
    <g transform="translate(311.332348 87.12) scale(0.24 -0.24)">
     <defs>
      <path id="DejaVuSans-43" d="M 4122 4306 
L 4122 3641 
Q 3803 3938 3442 4084 
Q 3081 4231 2675 4231 
Q 1875 4231 1450 3742 
Q 1025 3253 1025 2328 
Q 1025 1406 1450 917 
Q 1875 428 2675 428 
Q 3081 428 3442 575 
Q 3803 722 4122 1019 
L 4122 359 
Q 3791 134 3420 21 
Q 3050 -91 2638 -91 
Q 1578 -91 968 557 
Q 359 1206 359 2328 
Q 359 3453 968 4101 
Q 1578 4750 2638 4750 
Q 3056 4750 3426 4639 
Q 3797 4528 4122 4306 
z
" transform="scale(0.015625)"/>
      <path id="DejaVuSans-5f" d="M 3263 -1063 
L 3263 -1509 
L -63 -1509 
L -63 -1063 
L 3263 -1063 
z
" transform="scale(0.015625)"/>
      <path id="DejaVuSans-2d" d="M 313 2009 
L 1997 2009 
L 1997 1497 
L 313 1497 
L 313 2009 
z
" transform="scale(0.015625)"/>
      <path id="DejaVuSans-35" d="M 691 4666 
L 3169 4666 
L 3169 4134 
L 1269 4134 
L 1269 2991 
Q 1406 3038 1543 3061 
Q 1681 3084 1819 3084 
Q 2600 3084 3056 2656 
Q 3513 2228 3513 1497 
Q 3513 744 3044 326 
Q 2575 -91 1722 -91 
Q 1428 -91 1123 -41 
Q 819 9 494 109 
L 494 744 
Q 775 591 1075 516 
Q 1375 441 1709 441 
Q 2250 441 2565 725 
Q 2881 1009 2881 1497 
Q 2881 1984 2565 2268 
Q 2250 2553 1709 2553 
Q 1456 2553 1204 2497 
Q 953 2441 691 2322 
L 691 4666 
z
" transform="scale(0.015625)"/>
      <path id="DejaVuSans-28" d="M 1984 4856 
Q 1566 4138 1362 3434 
Q 1159 2731 1159 2009 
Q 1159 1288 1364 580 
Q 1569 -128 1984 -844 
L 1484 -844 
Q 1016 -109 783 600 
Q 550 1309 550 2009 
Q 550 2706 781 3412 
Q 1013 4119 1484 4856 
L 1984 4856 
z
" transform="scale(0.015625)"/>
      <path id="DejaVuSans-4c" d="M 628 4666 
L 1259 4666 
L 1259 531 
L 3531 531 
L 3531 0 
L 628 0 
L 628 4666 
z
" transform="scale(0.015625)"/>
      <path id="DejaVuSans-70" d="M 1159 525 
L 1159 -1331 
L 581 -1331 
L 581 3500 
L 1159 3500 
L 1159 2969 
Q 1341 3281 1617 3432 
Q 1894 3584 2278 3584 
Q 2916 3584 3314 3078 
Q 3713 2572 3713 1747 
Q 3713 922 3314 415 
Q 2916 -91 2278 -91 
Q 1894 -91 1617 61 
Q 1341 213 1159 525 
z
M 3116 1747 
Q 3116 2381 2855 2742 
Q 2594 3103 2138 3103 
Q 1681 3103 1420 2742 
Q 1159 2381 1159 1747 
Q 1159 1113 1420 752 
Q 1681 391 2138 391 
Q 2594 391 2855 752 
Q 3116 1113 3116 1747 
z
" transform="scale(0.015625)"/>
      <path id="DejaVuSans-6f" d="M 1959 3097 
Q 1497 3097 1228 2736 
Q 959 2375 959 1747 
Q 959 1119 1226 758 
Q 1494 397 1959 397 
Q 2419 397 2687 759 
Q 2956 1122 2956 1747 
Q 2956 2369 2687 2733 
Q 2419 3097 1959 3097 
z
M 1959 3584 
Q 2709 3584 3137 3096 
Q 3566 2609 3566 1747 
Q 3566 888 3137 398 
Q 2709 -91 1959 -91 
Q 1206 -91 779 398 
Q 353 888 353 1747 
Q 353 2609 779 3096 
Q 1206 3584 1959 3584 
z
" transform="scale(0.015625)"/>
      <path id="DejaVuSans-29" d="M 513 4856 
L 1013 4856 
Q 1481 4119 1714 3412 
Q 1947 2706 1947 2009 
Q 1947 1309 1714 600 
Q 1481 -109 1013 -844 
L 513 -844 
Q 928 -128 1133 580 
Q 1338 1288 1338 2009 
Q 1338 2731 1133 3434 
Q 928 4138 513 4856 
z
" transform="scale(0.015625)"/>
     </defs>
     <use xlink:href="#DejaVuSans-43"/>
     <use xlink:href="#DejaVuSans-5f" x="69.824219"/>
     <use xlink:href="#DejaVuSans-31" x="119.824219"/>
     <use xlink:href="#DejaVuSans-2d" x="183.447266"/>
     <use xlink:href="#DejaVuSans-35" x="219.53125"/>
     <use xlink:href="#DejaVuSans-37" x="283.154297"/>
     <use xlink:href="#DejaVuSans-34" x="346.777344"/>
     <use xlink:href="#DejaVuSans-28" x="410.400391"/>
     <use xlink:href="#DejaVuSans-4c" x="449.414062"/>
     <use xlink:href="#DejaVuSans-70" x="505.126953"/>
     <use xlink:href="#DejaVuSans-72" x="568.603516"/>
     <use xlink:href="#DejaVuSans-6f" x="607.466797"/>
     <use xlink:href="#DejaVuSans-29" x="668.648438"/>
    </g>
   </g>
   <g id="legend_1">
    <g id="patch_7">
     <path d="M 689.429697 111.32 
L 695.029697 111.32 
Q 697.829697 111.32 697.829697 108.52 
L 697.829697 102.92 
Q 697.829697 100.12 695.029697 100.12 
L 689.429697 100.12 
Q 686.629697 100.12 686.629697 102.92 
L 686.629697 108.52 
Q 686.629697 111.32 689.429697 111.32 
z
" style="fill: #ffffff; opacity: 0.8; stroke: #cccccc; stroke-linejoin: miter"/>
    </g>
   </g>
  </g>
  <g id="axes_2">
   <g id="patch_8">
    <path d="M 87.68 695.68 
L 704.829697 695.68 
L 704.829697 436.02 
L 87.68 436.02 
z
" style="fill: #ffffff"/>
   </g>
   <g id="PathCollection_2">
    <g clip-path="url(#pdfb49458c8)">
     <use xlink:href="#m87939ccb20" x="281.967868" y="523.253123" style="fill: #0000ff; stroke: #ffffff; stroke-width: 0.48"/>
     <use xlink:href="#m87939ccb20" x="271.578142" y="547.225561" style="fill: #0000ff; stroke: #ffffff; stroke-width: 0.48"/>
     <use xlink:href="#m87939ccb20" x="448.203476" y="547.225561" style="fill: #0000ff; stroke: #ffffff; stroke-width: 0.48"/>
     <use xlink:href="#m87939ccb20" x="604.049359" y="547.225561" style="fill: #0000ff; stroke: #ffffff; stroke-width: 0.48"/>
     <use xlink:href="#m87939ccb20" x="219.629514" y="538.258273" style="fill: #0000ff; stroke: #ffffff; stroke-width: 0.48"/>
     <use xlink:href="#m87939ccb20" x="583.269908" y="545.027552" style="fill: #0000ff; stroke: #ffffff; stroke-width: 0.48"/>
     <use xlink:href="#m87939ccb20" x="167.680887" y="565.578895" style="fill: #0000ff; stroke: #ffffff; stroke-width: 0.48"/>
     <use xlink:href="#m87939ccb20" x="219.629514" y="562.99525" style="fill: #0000ff; stroke: #ffffff; stroke-width: 0.48"/>
     <use xlink:href="#m87939ccb20" x="676.777438" y="557.577348" style="fill: #0000ff; stroke: #ffffff; stroke-width: 0.48"/>
     <use xlink:href="#m87939ccb20" x="230.01924" y="564.887867" style="fill: #0000ff; stroke: #ffffff; stroke-width: 0.48"/>
     <use xlink:href="#m87939ccb20" x="281.967868" y="518.31633" style="fill: #0000ff; stroke: #ffffff; stroke-width: 0.48"/>
     <use xlink:href="#m87939ccb20" x="198.850063" y="683.874072" style="fill: #0000ff; stroke: #ffffff; stroke-width: 0.48"/>
     <use xlink:href="#m87939ccb20" x="115.732259" y="683.877273" style="fill: #0000ff; stroke: #ffffff; stroke-width: 0.48"/>
     <use xlink:href="#m87939ccb20" x="261.188416" y="668.836826" style="fill: #0000ff; stroke: #ffffff; stroke-width: 0.48"/>
     <use xlink:href="#m87939ccb20" x="271.578142" y="464.257413" style="fill: #0000ff; stroke: #ffffff; stroke-width: 0.48"/>
     <use xlink:href="#m87939ccb20" x="240.408965" y="495.799465" style="fill: #0000ff; stroke: #ffffff; stroke-width: 0.48"/>
     <use xlink:href="#m87939ccb20" x="624.82881" y="492.142123" style="fill: #0000ff; stroke: #ffffff; stroke-width: 0.48"/>
    </g>
   </g>
   <g id="PolyCollection_2">
    <path d="M 115.732259 536.315484 
L 115.732259 640.513449 
L 121.399382 639.035939 
L 127.066505 636.853026 
L 132.733628 634.839065 
L 138.400751 633.362072 
L 144.067874 631.564218 
L 149.734997 629.836105 
L 155.40212 628.150654 
L 161.069243 626.923902 
L 166.736366 625.139531 
L 172.403489 623.890021 
L 178.070612 622.84033 
L 183.737735 621.022347 
L 189.404858 619.636995 
L 195.071981 618.06602 
L 200.739104 616.43827 
L 206.406227 615.335205 
L 212.07335 614.143941 
L 217.740473 612.694081 
L 223.407596 611.120075 
L 229.074719 610.02574 
L 234.741842 608.652742 
L 240.408965 607.275866 
L 246.076088 605.543563 
L 251.743211 604.300607 
L 257.410334 603.056618 
L 263.077457 601.694136 
L 268.744581 600.272072 
L 274.411704 598.890151 
L 280.078827 597.670265 
L 285.74595 596.443564 
L 291.413073 595.510948 
L 297.080196 594.446251 
L 302.747319 593.119499 
L 308.414442 592.177469 
L 314.081565 591.237572 
L 319.748688 590.295607 
L 325.415811 589.025479 
L 331.082934 587.91257 
L 336.750057 586.97046 
L 342.41718 586.056194 
L 348.084303 584.706192 
L 353.751426 583.563567 
L 359.418549 582.220217 
L 365.085672 581.170279 
L 370.752795 580.182834 
L 376.419918 578.89444 
L 382.087041 577.593536 
L 387.754164 576.517518 
L 393.421287 575.359398 
L 399.08841 574.007478 
L 404.755533 573.434884 
L 410.422656 572.86229 
L 416.089779 572.289697 
L 421.756902 571.648991 
L 427.424025 570.494289 
L 433.091148 569.219413 
L 438.758271 568.61007 
L 444.425394 567.678121 
L 450.092517 566.117267 
L 455.75964 565.421218 
L 461.426763 564.705013 
L 467.093886 563.994395 
L 472.761009 563.085796 
L 478.428132 562.209152 
L 484.095255 561.058436 
L 489.762378 560.524031 
L 495.429501 559.520372 
L 501.096624 558.909313 
L 506.763747 558.147016 
L 512.43087 557.412703 
L 518.097993 556.777158 
L 523.765116 556.131725 
L 529.432239 555.179008 
L 535.099362 554.514949 
L 540.766486 553.920949 
L 546.433609 553.190055 
L 552.100732 552.321171 
L 557.767855 551.867847 
L 563.434978 551.122574 
L 569.102101 550.713153 
L 574.769224 550.207264 
L 580.436347 549.747896 
L 586.10347 549.351547 
L 591.770593 549.11699 
L 597.437716 548.754716 
L 603.104839 548.725678 
L 608.771962 548.59836 
L 614.439085 548.284979 
L 620.106208 547.776601 
L 625.773331 547.452185 
L 631.440454 547.127646 
L 637.107577 547.072718 
L 642.7747 546.779541 
L 648.441823 546.513123 
L 654.108946 546.352897 
L 659.776069 546.188791 
L 665.443192 546.024685 
L 671.110315 545.597652 
L 676.777438 545.424384 
L 676.777438 447.822727 
L 676.777438 447.822727 
L 671.110315 449.884524 
L 665.443192 451.635559 
L 659.776069 453.313336 
L 654.108946 454.991114 
L 648.441823 456.668891 
L 642.7747 458.346668 
L 637.107577 459.8323 
L 631.440454 461.236509 
L 625.773331 462.640718 
L 620.106208 464.044927 
L 614.439085 465.449135 
L 608.771962 466.853344 
L 603.104839 468.257553 
L 597.437716 469.698191 
L 591.770593 471.051271 
L 586.10347 472.444747 
L 580.436347 473.838223 
L 574.769224 475.231699 
L 569.102101 476.625176 
L 563.434978 478.018652 
L 557.767855 479.418618 
L 552.100732 480.85758 
L 546.433609 482.597928 
L 540.766486 484.338277 
L 535.099362 486.078626 
L 529.432239 487.818974 
L 523.765116 489.559323 
L 518.097993 491.299672 
L 512.43087 492.963327 
L 506.763747 493.812775 
L 501.096624 494.662223 
L 495.429501 495.523771 
L 489.762378 497.214175 
L 484.095255 499.167786 
L 478.428132 501.126174 
L 472.761009 503.085323 
L 467.093886 504.471273 
L 461.426763 505.716699 
L 455.75964 506.966523 
L 450.092517 508.204243 
L 444.425394 509.85926 
L 438.758271 511.715075 
L 433.091148 513.671621 
L 427.424025 515.559639 
L 421.756902 516.377696 
L 416.089779 517.195754 
L 410.422656 517.98073 
L 404.755533 519.455356 
L 399.08841 520.951165 
L 393.421287 522.206895 
L 387.754164 522.647203 
L 382.087041 523.06948 
L 376.419918 524.080044 
L 370.752795 524.876247 
L 365.085672 524.968521 
L 359.418549 525.524494 
L 353.751426 525.951223 
L 348.084303 526.738494 
L 342.41718 527.238659 
L 336.750057 527.328373 
L 331.082934 527.402732 
L 325.415811 527.771879 
L 319.748688 528.135995 
L 314.081565 528.48886 
L 308.414442 529.485454 
L 302.747319 529.810571 
L 297.080196 530.222478 
L 291.413073 530.464979 
L 285.74595 531.085087 
L 280.078827 531.532677 
L 274.411704 531.429636 
L 268.744581 531.9405 
L 263.077457 531.980691 
L 257.410334 532.113745 
L 251.743211 532.761697 
L 246.076088 532.981868 
L 240.408965 533.344437 
L 234.741842 533.671448 
L 229.074719 533.991315 
L 223.407596 534.313877 
L 217.740473 534.636439 
L 212.07335 534.959001 
L 206.406227 535.281562 
L 200.739104 535.558067 
L 195.071981 535.60576 
L 189.404858 535.662234 
L 183.737735 535.665259 
L 178.070612 535.640278 
L 172.403489 535.818464 
L 166.736366 535.868166 
L 161.069243 535.917868 
L 155.40212 535.96757 
L 149.734997 536.017272 
L 144.067874 536.066974 
L 138.400751 536.116676 
L 132.733628 536.166378 
L 127.066505 536.21608 
L 121.399382 536.265782 
L 115.732259 536.315484 
z
" clip-path="url(#pdfb49458c8)" style="fill: #ff0000; fill-opacity: 0.15"/>
   </g>
   <g id="matplotlib.axis_3">
    <g id="xtick_7">
     <g id="line2d_13">
      <g>
       <use xlink:href="#mb5ec068d04" x="167.680887" y="695.68" style="stroke: #000000; stroke-width: 0.8"/>
      </g>
     </g>
     <g id="text_15">
      <!-- 1960 -->
      <g transform="translate(147.320887 714.8375) scale(0.16 -0.16)">
       <use xlink:href="#DejaVuSans-31"/>
       <use xlink:href="#DejaVuSans-39" x="63.623047"/>
       <use xlink:href="#DejaVuSans-36" x="127.246094"/>
       <use xlink:href="#DejaVuSans-30" x="190.869141"/>
      </g>
     </g>
    </g>
    <g id="xtick_8">
     <g id="line2d_14">
      <g>
       <use xlink:href="#mb5ec068d04" x="271.578142" y="695.68" style="stroke: #000000; stroke-width: 0.8"/>
      </g>
     </g>
     <g id="text_16">
      <!-- 1970 -->
      <g transform="translate(251.218142 714.8375) scale(0.16 -0.16)">
       <use xlink:href="#DejaVuSans-31"/>
       <use xlink:href="#DejaVuSans-39" x="63.623047"/>
       <use xlink:href="#DejaVuSans-37" x="127.246094"/>
       <use xlink:href="#DejaVuSans-30" x="190.869141"/>
      </g>
     </g>
    </g>
    <g id="xtick_9">
     <g id="line2d_15">
      <g>
       <use xlink:href="#mb5ec068d04" x="375.475397" y="695.68" style="stroke: #000000; stroke-width: 0.8"/>
      </g>
     </g>
     <g id="text_17">
      <!-- 1980 -->
      <g transform="translate(355.115397 714.8375) scale(0.16 -0.16)">
       <use xlink:href="#DejaVuSans-31"/>
       <use xlink:href="#DejaVuSans-39" x="63.623047"/>
       <use xlink:href="#DejaVuSans-38" x="127.246094"/>
       <use xlink:href="#DejaVuSans-30" x="190.869141"/>
      </g>
     </g>
    </g>
    <g id="xtick_10">
     <g id="line2d_16">
      <g>
       <use xlink:href="#mb5ec068d04" x="479.372653" y="695.68" style="stroke: #000000; stroke-width: 0.8"/>
      </g>
     </g>
     <g id="text_18">
      <!-- 1990 -->
      <g transform="translate(459.012653 714.8375) scale(0.16 -0.16)">
       <use xlink:href="#DejaVuSans-31"/>
       <use xlink:href="#DejaVuSans-39" x="63.623047"/>
       <use xlink:href="#DejaVuSans-39" x="127.246094"/>
       <use xlink:href="#DejaVuSans-30" x="190.869141"/>
      </g>
     </g>
    </g>
    <g id="xtick_11">
     <g id="line2d_17">
      <g>
       <use xlink:href="#mb5ec068d04" x="583.269908" y="695.68" style="stroke: #000000; stroke-width: 0.8"/>
      </g>
     </g>
     <g id="text_19">
      <!-- 2000 -->
      <g transform="translate(562.909908 714.8375) scale(0.16 -0.16)">
       <use xlink:href="#DejaVuSans-32"/>
       <use xlink:href="#DejaVuSans-30" x="63.623047"/>
       <use xlink:href="#DejaVuSans-30" x="127.246094"/>
       <use xlink:href="#DejaVuSans-30" x="190.869141"/>
      </g>
     </g>
    </g>
    <g id="xtick_12">
     <g id="line2d_18">
      <g>
       <use xlink:href="#mb5ec068d04" x="687.167164" y="695.68" style="stroke: #000000; stroke-width: 0.8"/>
      </g>
     </g>
     <g id="text_20">
      <!-- 2010 -->
      <g transform="translate(666.807164 714.8375) scale(0.16 -0.16)">
       <use xlink:href="#DejaVuSans-32"/>
       <use xlink:href="#DejaVuSans-30" x="63.623047"/>
       <use xlink:href="#DejaVuSans-31" x="127.246094"/>
       <use xlink:href="#DejaVuSans-30" x="190.869141"/>
      </g>
     </g>
    </g>
    <g id="text_21">
     <!-- Year -->
     <g transform="translate(375.079848 737.361875) scale(0.2 -0.2)">
      <use xlink:href="#DejaVuSans-59"/>
      <use xlink:href="#DejaVuSans-65" x="47.833984"/>
      <use xlink:href="#DejaVuSans-61" x="109.357422"/>
      <use xlink:href="#DejaVuSans-72" x="170.636719"/>
     </g>
    </g>
   </g>
   <g id="matplotlib.axis_4">
    <g id="ytick_6">
     <g id="line2d_19">
      <g>
       <use xlink:href="#m69b7fddda0" x="87.68" y="683.877273" style="stroke: #000000; stroke-width: 0.8"/>
      </g>
     </g>
     <g id="text_22">
      <!-- 0.000 -->
      <g transform="translate(34.875 689.956023) scale(0.16 -0.16)">
       <use xlink:href="#DejaVuSans-30"/>
       <use xlink:href="#DejaVuSans-2e" x="63.623047"/>
       <use xlink:href="#DejaVuSans-30" x="95.410156"/>
       <use xlink:href="#DejaVuSans-30" x="159.033203"/>
       <use xlink:href="#DejaVuSans-30" x="222.65625"/>
      </g>
     </g>
    </g>
    <g id="ytick_7">
     <g id="line2d_20">
      <g>
       <use xlink:href="#m69b7fddda0" x="87.68" y="643.85827" style="stroke: #000000; stroke-width: 0.8"/>
      </g>
     </g>
     <g id="text_23">
      <!-- 0.025 -->
      <g transform="translate(34.875 649.93702) scale(0.16 -0.16)">
       <use xlink:href="#DejaVuSans-30"/>
       <use xlink:href="#DejaVuSans-2e" x="63.623047"/>
       <use xlink:href="#DejaVuSans-30" x="95.410156"/>
       <use xlink:href="#DejaVuSans-32" x="159.033203"/>
       <use xlink:href="#DejaVuSans-35" x="222.65625"/>
      </g>
     </g>
    </g>
    <g id="ytick_8">
     <g id="line2d_21">
      <g>
       <use xlink:href="#m69b7fddda0" x="87.68" y="603.839267" style="stroke: #000000; stroke-width: 0.8"/>
      </g>
     </g>
     <g id="text_24">
      <!-- 0.050 -->
      <g transform="translate(34.875 609.918017) scale(0.16 -0.16)">
       <use xlink:href="#DejaVuSans-30"/>
       <use xlink:href="#DejaVuSans-2e" x="63.623047"/>
       <use xlink:href="#DejaVuSans-30" x="95.410156"/>
       <use xlink:href="#DejaVuSans-35" x="159.033203"/>
       <use xlink:href="#DejaVuSans-30" x="222.65625"/>
      </g>
     </g>
    </g>
    <g id="ytick_9">
     <g id="line2d_22">
      <g>
       <use xlink:href="#m69b7fddda0" x="87.68" y="563.820265" style="stroke: #000000; stroke-width: 0.8"/>
      </g>
     </g>
     <g id="text_25">
      <!-- 0.075 -->
      <g transform="translate(34.875 569.899015) scale(0.16 -0.16)">
       <use xlink:href="#DejaVuSans-30"/>
       <use xlink:href="#DejaVuSans-2e" x="63.623047"/>
       <use xlink:href="#DejaVuSans-30" x="95.410156"/>
       <use xlink:href="#DejaVuSans-37" x="159.033203"/>
       <use xlink:href="#DejaVuSans-35" x="222.65625"/>
      </g>
     </g>
    </g>
    <g id="ytick_10">
     <g id="line2d_23">
      <g>
       <use xlink:href="#m69b7fddda0" x="87.68" y="523.801262" style="stroke: #000000; stroke-width: 0.8"/>
      </g>
     </g>
     <g id="text_26">
      <!-- 0.100 -->
      <g transform="translate(34.875 529.880012) scale(0.16 -0.16)">
       <use xlink:href="#DejaVuSans-30"/>
       <use xlink:href="#DejaVuSans-2e" x="63.623047"/>
       <use xlink:href="#DejaVuSans-31" x="95.410156"/>
       <use xlink:href="#DejaVuSans-30" x="159.033203"/>
       <use xlink:href="#DejaVuSans-30" x="222.65625"/>
      </g>
     </g>
    </g>
    <g id="ytick_11">
     <g id="line2d_24">
      <g>
       <use xlink:href="#m69b7fddda0" x="87.68" y="483.782259" style="stroke: #000000; stroke-width: 0.8"/>
      </g>
     </g>
     <g id="text_27">
      <!-- 0.125 -->
      <g transform="translate(34.875 489.861009) scale(0.16 -0.16)">
       <use xlink:href="#DejaVuSans-30"/>
       <use xlink:href="#DejaVuSans-2e" x="63.623047"/>
       <use xlink:href="#DejaVuSans-31" x="95.410156"/>
       <use xlink:href="#DejaVuSans-32" x="159.033203"/>
       <use xlink:href="#DejaVuSans-35" x="222.65625"/>
      </g>
     </g>
    </g>
    <g id="ytick_12">
     <g id="line2d_25">
      <g>
       <use xlink:href="#m69b7fddda0" x="87.68" y="443.763257" style="stroke: #000000; stroke-width: 0.8"/>
      </g>
     </g>
     <g id="text_28">
      <!-- 0.150 -->
      <g transform="translate(34.875 449.842007) scale(0.16 -0.16)">
       <use xlink:href="#DejaVuSans-30"/>
       <use xlink:href="#DejaVuSans-2e" x="63.623047"/>
       <use xlink:href="#DejaVuSans-31" x="95.410156"/>
       <use xlink:href="#DejaVuSans-35" x="159.033203"/>
       <use xlink:href="#DejaVuSans-30" x="222.65625"/>
      </g>
     </g>
    </g>
    <g id="text_29">
     <!-- Genetic distance -->
     <g transform="translate(26.715625 649.990625) rotate(-90) scale(0.2 -0.2)">
      <use xlink:href="#DejaVuSans-47"/>
      <use xlink:href="#DejaVuSans-65" x="77.490234"/>
      <use xlink:href="#DejaVuSans-6e" x="139.013672"/>
      <use xlink:href="#DejaVuSans-65" x="202.392578"/>
      <use xlink:href="#DejaVuSans-74" x="263.916016"/>
      <use xlink:href="#DejaVuSans-69" x="303.125"/>
      <use xlink:href="#DejaVuSans-63" x="330.908203"/>
      <use xlink:href="#DejaVuSans-20" x="385.888672"/>
      <use xlink:href="#DejaVuSans-64" x="417.675781"/>
      <use xlink:href="#DejaVuSans-69" x="481.152344"/>
      <use xlink:href="#DejaVuSans-73" x="508.935547"/>
      <use xlink:href="#DejaVuSans-74" x="561.035156"/>
      <use xlink:href="#DejaVuSans-61" x="600.244141"/>
      <use xlink:href="#DejaVuSans-6e" x="661.523438"/>
      <use xlink:href="#DejaVuSans-63" x="724.902344"/>
      <use xlink:href="#DejaVuSans-65" x="779.882812"/>
     </g>
    </g>
   </g>
   <g id="line2d_26">
    <path d="M 115.732259 586.54897 
L 121.399382 585.842501 
L 127.066505 585.136033 
L 132.733628 584.429564 
L 138.400751 583.723096 
L 144.067874 583.016627 
L 149.734997 582.310159 
L 155.40212 581.60369 
L 161.069243 580.897222 
L 166.736366 580.190754 
L 172.403489 579.484285 
L 178.070612 578.777817 
L 183.737735 578.071348 
L 189.404858 577.36488 
L 195.071981 576.658411 
L 200.739104 575.951943 
L 206.406227 575.245474 
L 212.07335 574.539006 
L 217.740473 573.832537 
L 223.407596 573.126069 
L 229.074719 572.4196 
L 234.741842 571.713132 
L 240.408965 571.006664 
L 246.076088 570.300195 
L 251.743211 569.593727 
L 257.410334 568.887258 
L 263.077457 568.18079 
L 268.744581 567.474321 
L 274.411704 566.767853 
L 280.078827 566.061384 
L 285.74595 565.354916 
L 291.413073 564.648447 
L 297.080196 563.941979 
L 302.747319 563.23551 
L 308.414442 562.529042 
L 314.081565 561.822574 
L 319.748688 561.116105 
L 325.415811 560.409637 
L 331.082934 559.703168 
L 336.750057 558.9967 
L 342.41718 558.290231 
L 348.084303 557.583763 
L 353.751426 556.877294 
L 359.418549 556.170826 
L 365.085672 555.464357 
L 370.752795 554.757889 
L 376.419918 554.05142 
L 382.087041 553.344952 
L 387.754164 552.638484 
L 393.421287 551.932015 
L 399.08841 551.225547 
L 404.755533 550.519078 
L 410.422656 549.81261 
L 416.089779 549.106141 
L 421.756902 548.399673 
L 427.424025 547.693204 
L 433.091148 546.986736 
L 438.758271 546.280267 
L 444.425394 545.573799 
L 450.092517 544.86733 
L 455.75964 544.160862 
L 461.426763 543.454393 
L 467.093886 542.747925 
L 472.761009 542.041457 
L 478.428132 541.334988 
L 484.095255 540.62852 
L 489.762378 539.922051 
L 495.429501 539.215583 
L 501.096624 538.509114 
L 506.763747 537.802646 
L 512.43087 537.096177 
L 518.097993 536.389709 
L 523.765116 535.68324 
L 529.432239 534.976772 
L 535.099362 534.270303 
L 540.766486 533.563835 
L 546.433609 532.857367 
L 552.100732 532.150898 
L 557.767855 531.44443 
L 563.434978 530.737961 
L 569.102101 530.031493 
L 574.769224 529.325024 
L 580.436347 528.618556 
L 586.10347 527.912087 
L 591.770593 527.205619 
L 597.437716 526.49915 
L 603.104839 525.792682 
L 608.771962 525.086213 
L 614.439085 524.379745 
L 620.106208 523.673277 
L 625.773331 522.966808 
L 631.440454 522.26034 
L 637.107577 521.553871 
L 642.7747 520.847403 
L 648.441823 520.140934 
L 654.108946 519.434466 
L 659.776069 518.727997 
L 665.443192 518.021529 
L 671.110315 517.31506 
L 676.777438 516.608592 
" clip-path="url(#pdfb49458c8)" style="fill: none; stroke: #ff0000; stroke-width: 2.25; stroke-linecap: square"/>
   </g>
   <g id="patch_9">
    <path d="M 87.68 695.68 
L 87.68 436.02 
" style="fill: none; stroke: #000000; stroke-width: 0.8; stroke-linejoin: miter; stroke-linecap: square"/>
   </g>
   <g id="patch_10">
    <path d="M 704.829697 695.68 
L 704.829697 436.02 
" style="fill: none; stroke: #000000; stroke-width: 0.8; stroke-linejoin: miter; stroke-linecap: square"/>
   </g>
   <g id="patch_11">
    <path d="M 87.68 695.68 
L 704.829697 695.68 
" style="fill: none; stroke: #000000; stroke-width: 0.8; stroke-linejoin: miter; stroke-linecap: square"/>
   </g>
   <g id="patch_12">
    <path d="M 87.68 436.02 
L 704.829697 436.02 
" style="fill: none; stroke: #000000; stroke-width: 0.8; stroke-linejoin: miter; stroke-linecap: square"/>
   </g>
   <g id="text_30">
    <!-- C_2948-4275(P2) -->
    <g transform="translate(292.231723 430.02) scale(0.24 -0.24)">
     <defs>
      <path id="DejaVuSans-50" d="M 1259 4147 
L 1259 2394 
L 2053 2394 
Q 2494 2394 2734 2622 
Q 2975 2850 2975 3272 
Q 2975 3691 2734 3919 
Q 2494 4147 2053 4147 
L 1259 4147 
z
M 628 4666 
L 2053 4666 
Q 2838 4666 3239 4311 
Q 3641 3956 3641 3272 
Q 3641 2581 3239 2228 
Q 2838 1875 2053 1875 
L 1259 1875 
L 1259 0 
L 628 0 
L 628 4666 
z
" transform="scale(0.015625)"/>
     </defs>
     <use xlink:href="#DejaVuSans-43"/>
     <use xlink:href="#DejaVuSans-5f" x="69.824219"/>
     <use xlink:href="#DejaVuSans-32" x="119.824219"/>
     <use xlink:href="#DejaVuSans-39" x="183.447266"/>
     <use xlink:href="#DejaVuSans-34" x="247.070312"/>
     <use xlink:href="#DejaVuSans-38" x="310.693359"/>
     <use xlink:href="#DejaVuSans-2d" x="374.316406"/>
     <use xlink:href="#DejaVuSans-34" x="410.400391"/>
     <use xlink:href="#DejaVuSans-32" x="474.023438"/>
     <use xlink:href="#DejaVuSans-37" x="537.646484"/>
     <use xlink:href="#DejaVuSans-35" x="601.269531"/>
     <use xlink:href="#DejaVuSans-28" x="664.892578"/>
     <use xlink:href="#DejaVuSans-50" x="703.90625"/>
     <use xlink:href="#DejaVuSans-32" x="764.208984"/>
     <use xlink:href="#DejaVuSans-29" x="827.832031"/>
    </g>
   </g>
   <g id="legend_2">
    <g id="patch_13">
     <path d="M 689.429697 454.22 
L 695.029697 454.22 
Q 697.829697 454.22 697.829697 451.42 
L 697.829697 445.82 
Q 697.829697 443.02 695.029697 443.02 
L 689.429697 443.02 
Q 686.629697 443.02 686.629697 445.82 
L 686.629697 451.42 
Q 686.629697 454.22 689.429697 454.22 
z
" style="fill: #ffffff; opacity: 0.8; stroke: #cccccc; stroke-linejoin: miter"/>
    </g>
   </g>
  </g>
  <g id="axes_3">
   <g id="patch_14">
    <path d="M 87.68 1038.58 
L 704.829697 1038.58 
L 704.829697 778.92 
L 87.68 778.92 
z
" style="fill: #ffffff"/>
   </g>
   <g id="PathCollection_3">
    <g clip-path="url(#p57172ff86a)">
     <use xlink:href="#m87939ccb20" x="281.967868" y="850.449862" style="fill: #0000ff; stroke: #ffffff; stroke-width: 0.48"/>
     <use xlink:href="#m87939ccb20" x="271.578142" y="810.724493" style="fill: #0000ff; stroke: #ffffff; stroke-width: 0.48"/>
     <use xlink:href="#m87939ccb20" x="240.408965" y="846.808559" style="fill: #0000ff; stroke: #ffffff; stroke-width: 0.48"/>
     <use xlink:href="#m87939ccb20" x="624.82881" y="845.731977" style="fill: #0000ff; stroke: #ffffff; stroke-width: 0.48"/>
     <use xlink:href="#m87939ccb20" x="271.578142" y="852.341889" style="fill: #0000ff; stroke: #ffffff; stroke-width: 0.48"/>
     <use xlink:href="#m87939ccb20" x="448.203476" y="852.341889" style="fill: #0000ff; stroke: #ffffff; stroke-width: 0.48"/>
     <use xlink:href="#m87939ccb20" x="604.049359" y="851.906998" style="fill: #0000ff; stroke: #ffffff; stroke-width: 0.48"/>
     <use xlink:href="#m87939ccb20" x="219.629514" y="862.950945" style="fill: #0000ff; stroke: #ffffff; stroke-width: 0.48"/>
     <use xlink:href="#m87939ccb20" x="583.269908" y="868.476533" style="fill: #0000ff; stroke: #ffffff; stroke-width: 0.48"/>
     <use xlink:href="#m87939ccb20" x="167.680887" y="881.074534" style="fill: #0000ff; stroke: #ffffff; stroke-width: 0.48"/>
     <use xlink:href="#m87939ccb20" x="219.629514" y="881.074534" style="fill: #0000ff; stroke: #ffffff; stroke-width: 0.48"/>
     <use xlink:href="#m87939ccb20" x="676.777438" y="879.18194" style="fill: #0000ff; stroke: #ffffff; stroke-width: 0.48"/>
     <use xlink:href="#m87939ccb20" x="230.01924" y="881.729496" style="fill: #0000ff; stroke: #ffffff; stroke-width: 0.48"/>
     <use xlink:href="#m87939ccb20" x="198.850063" y="1026.242193" style="fill: #0000ff; stroke: #ffffff; stroke-width: 0.48"/>
     <use xlink:href="#m87939ccb20" x="115.732259" y="1026.777273" style="fill: #0000ff; stroke: #ffffff; stroke-width: 0.48"/>
     <use xlink:href="#m87939ccb20" x="261.188416" y="1011.896573" style="fill: #0000ff; stroke: #ffffff; stroke-width: 0.48"/>
     <use xlink:href="#m87939ccb20" x="281.967868" y="910.290064" style="fill: #0000ff; stroke: #ffffff; stroke-width: 0.48"/>
    </g>
   </g>
   <g id="PolyCollection_3">
    <path d="M 115.732259 867.886058 
L 115.732259 974.723951 
L 121.399382 973.140286 
L 127.066505 971.55662 
L 132.733628 969.85454 
L 138.400751 968.283116 
L 144.067874 966.74914 
L 149.734997 965.203991 
L 155.40212 963.623594 
L 161.069243 962.04155 
L 166.736366 960.465097 
L 172.403489 958.887295 
L 178.070612 957.30363 
L 183.737735 955.711726 
L 189.404858 954.145759 
L 195.071981 952.585628 
L 200.739104 951.09958 
L 206.406227 949.546627 
L 212.07335 948.18631 
L 217.740473 946.735567 
L 223.407596 945.284823 
L 229.074719 943.823849 
L 234.741842 942.268409 
L 240.408965 940.553575 
L 246.076088 939.022101 
L 251.743211 937.423719 
L 257.410334 936.085225 
L 263.077457 934.746102 
L 268.744581 933.406978 
L 274.411704 932.067854 
L 280.078827 930.742674 
L 285.74595 929.410307 
L 291.413073 928.078735 
L 297.080196 926.73325 
L 302.747319 925.507416 
L 308.414442 924.1477 
L 314.081565 922.722251 
L 319.748688 921.703373 
L 325.415811 920.120089 
L 331.082934 918.537231 
L 336.750057 917.258739 
L 342.41718 916.033344 
L 348.084303 914.702585 
L 353.751426 913.364525 
L 359.418549 912.039185 
L 365.085672 910.905244 
L 370.752795 909.800935 
L 376.419918 908.603337 
L 382.087041 907.4512 
L 387.754164 906.040301 
L 393.421287 904.534532 
L 399.08841 903.49502 
L 404.755533 902.459477 
L 410.422656 901.495479 
L 416.089779 900.569996 
L 421.756902 899.427873 
L 427.424025 898.249504 
L 433.091148 896.995797 
L 438.758271 895.691753 
L 444.425394 894.651113 
L 450.092517 893.426874 
L 455.75964 892.339188 
L 461.426763 891.740526 
L 467.093886 890.906548 
L 472.761009 889.802207 
L 478.428132 888.968259 
L 484.095255 888.12022 
L 489.762378 887.186423 
L 495.429501 886.524169 
L 501.096624 885.523978 
L 506.763747 884.832971 
L 512.43087 883.74782 
L 518.097993 882.343903 
L 523.765116 881.056578 
L 529.432239 880.221289 
L 535.099362 879.532545 
L 540.766486 878.365775 
L 546.433609 877.19647 
L 552.100732 876.092882 
L 557.767855 875.175008 
L 563.434978 874.553392 
L 569.102101 874.060112 
L 574.769224 873.55302 
L 580.436347 873.250862 
L 586.10347 872.92708 
L 591.770593 872.025964 
L 597.437716 871.391498 
L 603.104839 871.258603 
L 608.771962 870.834894 
L 614.439085 870.12168 
L 620.106208 869.8592 
L 625.773331 869.436195 
L 631.440454 869.120498 
L 637.107577 868.780659 
L 642.7747 868.470707 
L 648.441823 868.094377 
L 654.108946 867.729654 
L 659.776069 867.432871 
L 665.443192 867.053242 
L 671.110315 866.635355 
L 676.777438 866.270763 
L 676.777438 790.722727 
L 676.777438 790.722727 
L 671.110315 792.35317 
L 665.443192 793.983612 
L 659.776069 795.614055 
L 654.108946 797.244498 
L 648.441823 798.87494 
L 642.7747 800.505383 
L 637.107577 802.135825 
L 631.440454 803.766268 
L 625.773331 805.25476 
L 620.106208 806.524022 
L 614.439085 807.793283 
L 608.771962 809.157389 
L 603.104839 810.805845 
L 597.437716 812.461981 
L 591.770593 814.118117 
L 586.10347 815.742098 
L 580.436347 817.412737 
L 574.769224 819.05712 
L 569.102101 820.701504 
L 563.434978 822.356864 
L 557.767855 824.013082 
L 552.100732 825.475993 
L 546.433609 826.764581 
L 540.766486 828.073574 
L 535.099362 829.813755 
L 529.432239 831.454349 
L 523.765116 832.841523 
L 518.097993 834.228697 
L 512.43087 836.010885 
L 506.763747 837.808722 
L 501.096624 838.911593 
L 495.429501 840.554997 
L 489.762378 841.848011 
L 484.095255 843.788815 
L 478.428132 844.824325 
L 472.761009 845.787387 
L 467.093886 847.318372 
L 461.426763 848.959884 
L 455.75964 849.366982 
L 450.092517 850.410957 
L 444.425394 850.995104 
L 438.758271 851.979462 
L 433.091148 852.742637 
L 427.424025 853.596835 
L 421.756902 854.853059 
L 416.089779 855.293611 
L 410.422656 855.956819 
L 404.755533 856.881959 
L 399.08841 857.827926 
L 393.421287 858.730394 
L 387.754164 859.256286 
L 382.087041 859.439394 
L 376.419918 860.054804 
L 370.752795 860.216386 
L 365.085672 860.317205 
L 359.418549 860.668558 
L 353.751426 860.866292 
L 348.084303 861.04974 
L 342.41718 861.430858 
L 336.750057 861.545799 
L 331.082934 861.737474 
L 325.415811 862.245795 
L 319.748688 862.353708 
L 314.081565 862.335411 
L 308.414442 862.317114 
L 302.747319 862.516426 
L 297.080196 863.134439 
L 291.413073 863.424215 
L 285.74595 863.538412 
L 280.078827 863.652609 
L 274.411704 863.766806 
L 268.744581 863.881003 
L 263.077457 863.920289 
L 257.410334 864.109397 
L 251.743211 864.223594 
L 246.076088 864.3596 
L 240.408965 864.555677 
L 234.741842 864.755664 
L 229.074719 865.08889 
L 223.407596 865.459127 
L 217.740473 865.829364 
L 212.07335 866.199601 
L 206.406227 865.732142 
L 200.739104 865.92822 
L 195.071981 866.125126 
L 189.404858 866.322902 
L 183.737735 866.521066 
L 178.070612 866.721354 
L 172.403489 866.765511 
L 166.736366 866.802173 
L 161.069243 866.875091 
L 155.40212 867.149293 
L 149.734997 867.194605 
L 144.067874 867.229574 
L 138.400751 867.266546 
L 132.733628 867.357123 
L 127.066505 867.533435 
L 121.399382 867.709746 
L 115.732259 867.886058 
z
" clip-path="url(#p57172ff86a)" style="fill: #ff0000; fill-opacity: 0.15"/>
   </g>
   <g id="matplotlib.axis_5">
    <g id="xtick_13">
     <g id="line2d_27">
      <g>
       <use xlink:href="#mb5ec068d04" x="167.680887" y="1038.58" style="stroke: #000000; stroke-width: 0.8"/>
      </g>
     </g>
     <g id="text_31">
      <!-- 1960 -->
      <g transform="translate(147.320887 1057.7375) scale(0.16 -0.16)">
       <use xlink:href="#DejaVuSans-31"/>
       <use xlink:href="#DejaVuSans-39" x="63.623047"/>
       <use xlink:href="#DejaVuSans-36" x="127.246094"/>
       <use xlink:href="#DejaVuSans-30" x="190.869141"/>
      </g>
     </g>
    </g>
    <g id="xtick_14">
     <g id="line2d_28">
      <g>
       <use xlink:href="#mb5ec068d04" x="271.578142" y="1038.58" style="stroke: #000000; stroke-width: 0.8"/>
      </g>
     </g>
     <g id="text_32">
      <!-- 1970 -->
      <g transform="translate(251.218142 1057.7375) scale(0.16 -0.16)">
       <use xlink:href="#DejaVuSans-31"/>
       <use xlink:href="#DejaVuSans-39" x="63.623047"/>
       <use xlink:href="#DejaVuSans-37" x="127.246094"/>
       <use xlink:href="#DejaVuSans-30" x="190.869141"/>
      </g>
     </g>
    </g>
    <g id="xtick_15">
     <g id="line2d_29">
      <g>
       <use xlink:href="#mb5ec068d04" x="375.475397" y="1038.58" style="stroke: #000000; stroke-width: 0.8"/>
      </g>
     </g>
     <g id="text_33">
      <!-- 1980 -->
      <g transform="translate(355.115397 1057.7375) scale(0.16 -0.16)">
       <use xlink:href="#DejaVuSans-31"/>
       <use xlink:href="#DejaVuSans-39" x="63.623047"/>
       <use xlink:href="#DejaVuSans-38" x="127.246094"/>
       <use xlink:href="#DejaVuSans-30" x="190.869141"/>
      </g>
     </g>
    </g>
    <g id="xtick_16">
     <g id="line2d_30">
      <g>
       <use xlink:href="#mb5ec068d04" x="479.372653" y="1038.58" style="stroke: #000000; stroke-width: 0.8"/>
      </g>
     </g>
     <g id="text_34">
      <!-- 1990 -->
      <g transform="translate(459.012653 1057.7375) scale(0.16 -0.16)">
       <use xlink:href="#DejaVuSans-31"/>
       <use xlink:href="#DejaVuSans-39" x="63.623047"/>
       <use xlink:href="#DejaVuSans-39" x="127.246094"/>
       <use xlink:href="#DejaVuSans-30" x="190.869141"/>
      </g>
     </g>
    </g>
    <g id="xtick_17">
     <g id="line2d_31">
      <g>
       <use xlink:href="#mb5ec068d04" x="583.269908" y="1038.58" style="stroke: #000000; stroke-width: 0.8"/>
      </g>
     </g>
     <g id="text_35">
      <!-- 2000 -->
      <g transform="translate(562.909908 1057.7375) scale(0.16 -0.16)">
       <use xlink:href="#DejaVuSans-32"/>
       <use xlink:href="#DejaVuSans-30" x="63.623047"/>
       <use xlink:href="#DejaVuSans-30" x="127.246094"/>
       <use xlink:href="#DejaVuSans-30" x="190.869141"/>
      </g>
     </g>
    </g>
    <g id="xtick_18">
     <g id="line2d_32">
      <g>
       <use xlink:href="#mb5ec068d04" x="687.167164" y="1038.58" style="stroke: #000000; stroke-width: 0.8"/>
      </g>
     </g>
     <g id="text_36">
      <!-- 2010 -->
      <g transform="translate(666.807164 1057.7375) scale(0.16 -0.16)">
       <use xlink:href="#DejaVuSans-32"/>
       <use xlink:href="#DejaVuSans-30" x="63.623047"/>
       <use xlink:href="#DejaVuSans-31" x="127.246094"/>
       <use xlink:href="#DejaVuSans-30" x="190.869141"/>
      </g>
     </g>
    </g>
    <g id="text_37">
     <!-- Year -->
     <g transform="translate(375.079848 1080.261875) scale(0.2 -0.2)">
      <use xlink:href="#DejaVuSans-59"/>
      <use xlink:href="#DejaVuSans-65" x="47.833984"/>
      <use xlink:href="#DejaVuSans-61" x="109.357422"/>
      <use xlink:href="#DejaVuSans-72" x="170.636719"/>
     </g>
    </g>
   </g>
   <g id="matplotlib.axis_6">
    <g id="ytick_13">
     <g id="line2d_33">
      <g>
       <use xlink:href="#m69b7fddda0" x="87.68" y="1026.777273" style="stroke: #000000; stroke-width: 0.8"/>
      </g>
     </g>
     <g id="text_38">
      <!-- 0.000 -->
      <g transform="translate(34.875 1032.856023) scale(0.16 -0.16)">
       <use xlink:href="#DejaVuSans-30"/>
       <use xlink:href="#DejaVuSans-2e" x="63.623047"/>
       <use xlink:href="#DejaVuSans-30" x="95.410156"/>
       <use xlink:href="#DejaVuSans-30" x="159.033203"/>
       <use xlink:href="#DejaVuSans-30" x="222.65625"/>
      </g>
     </g>
    </g>
    <g id="ytick_14">
     <g id="line2d_34">
      <g>
       <use xlink:href="#m69b7fddda0" x="87.68" y="990.1398" style="stroke: #000000; stroke-width: 0.8"/>
      </g>
     </g>
     <g id="text_39">
      <!-- 0.025 -->
      <g transform="translate(34.875 996.21855) scale(0.16 -0.16)">
       <use xlink:href="#DejaVuSans-30"/>
       <use xlink:href="#DejaVuSans-2e" x="63.623047"/>
       <use xlink:href="#DejaVuSans-30" x="95.410156"/>
       <use xlink:href="#DejaVuSans-32" x="159.033203"/>
       <use xlink:href="#DejaVuSans-35" x="222.65625"/>
      </g>
     </g>
    </g>
    <g id="ytick_15">
     <g id="line2d_35">
      <g>
       <use xlink:href="#m69b7fddda0" x="87.68" y="953.502328" style="stroke: #000000; stroke-width: 0.8"/>
      </g>
     </g>
     <g id="text_40">
      <!-- 0.050 -->
      <g transform="translate(34.875 959.581078) scale(0.16 -0.16)">
       <use xlink:href="#DejaVuSans-30"/>
       <use xlink:href="#DejaVuSans-2e" x="63.623047"/>
       <use xlink:href="#DejaVuSans-30" x="95.410156"/>
       <use xlink:href="#DejaVuSans-35" x="159.033203"/>
       <use xlink:href="#DejaVuSans-30" x="222.65625"/>
      </g>
     </g>
    </g>
    <g id="ytick_16">
     <g id="line2d_36">
      <g>
       <use xlink:href="#m69b7fddda0" x="87.68" y="916.864856" style="stroke: #000000; stroke-width: 0.8"/>
      </g>
     </g>
     <g id="text_41">
      <!-- 0.075 -->
      <g transform="translate(34.875 922.943606) scale(0.16 -0.16)">
       <use xlink:href="#DejaVuSans-30"/>
       <use xlink:href="#DejaVuSans-2e" x="63.623047"/>
       <use xlink:href="#DejaVuSans-30" x="95.410156"/>
       <use xlink:href="#DejaVuSans-37" x="159.033203"/>
       <use xlink:href="#DejaVuSans-35" x="222.65625"/>
      </g>
     </g>
    </g>
    <g id="ytick_17">
     <g id="line2d_37">
      <g>
       <use xlink:href="#m69b7fddda0" x="87.68" y="880.227383" style="stroke: #000000; stroke-width: 0.8"/>
      </g>
     </g>
     <g id="text_42">
      <!-- 0.100 -->
      <g transform="translate(34.875 886.306133) scale(0.16 -0.16)">
       <use xlink:href="#DejaVuSans-30"/>
       <use xlink:href="#DejaVuSans-2e" x="63.623047"/>
       <use xlink:href="#DejaVuSans-31" x="95.410156"/>
       <use xlink:href="#DejaVuSans-30" x="159.033203"/>
       <use xlink:href="#DejaVuSans-30" x="222.65625"/>
      </g>
     </g>
    </g>
    <g id="ytick_18">
     <g id="line2d_38">
      <g>
       <use xlink:href="#m69b7fddda0" x="87.68" y="843.589911" style="stroke: #000000; stroke-width: 0.8"/>
      </g>
     </g>
     <g id="text_43">
      <!-- 0.125 -->
      <g transform="translate(34.875 849.668661) scale(0.16 -0.16)">
       <use xlink:href="#DejaVuSans-30"/>
       <use xlink:href="#DejaVuSans-2e" x="63.623047"/>
       <use xlink:href="#DejaVuSans-31" x="95.410156"/>
       <use xlink:href="#DejaVuSans-32" x="159.033203"/>
       <use xlink:href="#DejaVuSans-35" x="222.65625"/>
      </g>
     </g>
    </g>
    <g id="ytick_19">
     <g id="line2d_39">
      <g>
       <use xlink:href="#m69b7fddda0" x="87.68" y="806.952438" style="stroke: #000000; stroke-width: 0.8"/>
      </g>
     </g>
     <g id="text_44">
      <!-- 0.150 -->
      <g transform="translate(34.875 813.031188) scale(0.16 -0.16)">
       <use xlink:href="#DejaVuSans-30"/>
       <use xlink:href="#DejaVuSans-2e" x="63.623047"/>
       <use xlink:href="#DejaVuSans-31" x="95.410156"/>
       <use xlink:href="#DejaVuSans-35" x="159.033203"/>
       <use xlink:href="#DejaVuSans-30" x="222.65625"/>
      </g>
     </g>
    </g>
    <g id="text_45">
     <!-- Genetic distance -->
     <g transform="translate(26.715625 992.890625) rotate(-90) scale(0.2 -0.2)">
      <use xlink:href="#DejaVuSans-47"/>
      <use xlink:href="#DejaVuSans-65" x="77.490234"/>
      <use xlink:href="#DejaVuSans-6e" x="139.013672"/>
      <use xlink:href="#DejaVuSans-65" x="202.392578"/>
      <use xlink:href="#DejaVuSans-74" x="263.916016"/>
      <use xlink:href="#DejaVuSans-69" x="303.125"/>
      <use xlink:href="#DejaVuSans-63" x="330.908203"/>
      <use xlink:href="#DejaVuSans-20" x="385.888672"/>
      <use xlink:href="#DejaVuSans-64" x="417.675781"/>
      <use xlink:href="#DejaVuSans-69" x="481.152344"/>
      <use xlink:href="#DejaVuSans-73" x="508.935547"/>
      <use xlink:href="#DejaVuSans-74" x="561.035156"/>
      <use xlink:href="#DejaVuSans-61" x="600.244141"/>
      <use xlink:href="#DejaVuSans-6e" x="661.523438"/>
      <use xlink:href="#DejaVuSans-63" x="724.902344"/>
      <use xlink:href="#DejaVuSans-65" x="779.882812"/>
     </g>
    </g>
   </g>
   <g id="line2d_40">
    <path d="M 115.732259 922.933976 
L 121.399382 922.098507 
L 127.066505 921.263038 
L 132.733628 920.427569 
L 138.400751 919.5921 
L 144.067874 918.756631 
L 149.734997 917.921162 
L 155.40212 917.085693 
L 161.069243 916.250224 
L 166.736366 915.414755 
L 172.403489 914.579286 
L 178.070612 913.743817 
L 183.737735 912.908348 
L 189.404858 912.072879 
L 195.071981 911.23741 
L 200.739104 910.401941 
L 206.406227 909.566472 
L 212.07335 908.731003 
L 217.740473 907.895534 
L 223.407596 907.060065 
L 229.074719 906.224596 
L 234.741842 905.389127 
L 240.408965 904.553658 
L 246.076088 903.718189 
L 251.743211 902.88272 
L 257.410334 902.047251 
L 263.077457 901.211782 
L 268.744581 900.376313 
L 274.411704 899.540844 
L 280.078827 898.705375 
L 285.74595 897.869906 
L 291.413073 897.034437 
L 297.080196 896.198968 
L 302.747319 895.363499 
L 308.414442 894.52803 
L 314.081565 893.692561 
L 319.748688 892.857092 
L 325.415811 892.021623 
L 331.082934 891.186154 
L 336.750057 890.350685 
L 342.41718 889.515216 
L 348.084303 888.679747 
L 353.751426 887.844278 
L 359.418549 887.008809 
L 365.085672 886.17334 
L 370.752795 885.337871 
L 376.419918 884.502402 
L 382.087041 883.666933 
L 387.754164 882.831464 
L 393.421287 881.995995 
L 399.08841 881.160526 
L 404.755533 880.325057 
L 410.422656 879.489588 
L 416.089779 878.654119 
L 421.756902 877.81865 
L 427.424025 876.983181 
L 433.091148 876.147712 
L 438.758271 875.312244 
L 444.425394 874.476775 
L 450.092517 873.641306 
L 455.75964 872.805837 
L 461.426763 871.970368 
L 467.093886 871.134899 
L 472.761009 870.29943 
L 478.428132 869.463961 
L 484.095255 868.628492 
L 489.762378 867.793023 
L 495.429501 866.957554 
L 501.096624 866.122085 
L 506.763747 865.286616 
L 512.43087 864.451147 
L 518.097993 863.615678 
L 523.765116 862.780209 
L 529.432239 861.94474 
L 535.099362 861.109271 
L 540.766486 860.273802 
L 546.433609 859.438333 
L 552.100732 858.602864 
L 557.767855 857.767395 
L 563.434978 856.931926 
L 569.102101 856.096457 
L 574.769224 855.260988 
L 580.436347 854.425519 
L 586.10347 853.59005 
L 591.770593 852.754581 
L 597.437716 851.919112 
L 603.104839 851.083643 
L 608.771962 850.248174 
L 614.439085 849.412705 
L 620.106208 848.577236 
L 625.773331 847.741767 
L 631.440454 846.906298 
L 637.107577 846.070829 
L 642.7747 845.23536 
L 648.441823 844.399891 
L 654.108946 843.564422 
L 659.776069 842.728953 
L 665.443192 841.893484 
L 671.110315 841.058015 
L 676.777438 840.222546 
" clip-path="url(#p57172ff86a)" style="fill: none; stroke: #ff0000; stroke-width: 2.25; stroke-linecap: square"/>
   </g>
   <g id="patch_15">
    <path d="M 87.68 1038.58 
L 87.68 778.92 
" style="fill: none; stroke: #000000; stroke-width: 0.8; stroke-linejoin: miter; stroke-linecap: square"/>
   </g>
   <g id="patch_16">
    <path d="M 704.829697 1038.58 
L 704.829697 778.92 
" style="fill: none; stroke: #000000; stroke-width: 0.8; stroke-linejoin: miter; stroke-linecap: square"/>
   </g>
   <g id="patch_17">
    <path d="M 87.68 1038.58 
L 704.829697 1038.58 
" style="fill: none; stroke: #000000; stroke-width: 0.8; stroke-linejoin: miter; stroke-linecap: square"/>
   </g>
   <g id="patch_18">
    <path d="M 87.68 778.92 
L 704.829697 778.92 
" style="fill: none; stroke: #000000; stroke-width: 0.8; stroke-linejoin: miter; stroke-linecap: square"/>
   </g>
   <g id="text_46">
    <!-- C_4276-6990(P3) -->
    <g transform="translate(292.231723 772.92) scale(0.24 -0.24)">
     <use xlink:href="#DejaVuSans-43"/>
     <use xlink:href="#DejaVuSans-5f" x="69.824219"/>
     <use xlink:href="#DejaVuSans-34" x="119.824219"/>
     <use xlink:href="#DejaVuSans-32" x="183.447266"/>
     <use xlink:href="#DejaVuSans-37" x="247.070312"/>
     <use xlink:href="#DejaVuSans-36" x="310.693359"/>
     <use xlink:href="#DejaVuSans-2d" x="374.316406"/>
     <use xlink:href="#DejaVuSans-36" x="410.400391"/>
     <use xlink:href="#DejaVuSans-39" x="474.023438"/>
     <use xlink:href="#DejaVuSans-39" x="537.646484"/>
     <use xlink:href="#DejaVuSans-30" x="601.269531"/>
     <use xlink:href="#DejaVuSans-28" x="664.892578"/>
     <use xlink:href="#DejaVuSans-50" x="703.90625"/>
     <use xlink:href="#DejaVuSans-33" x="764.208984"/>
     <use xlink:href="#DejaVuSans-29" x="827.832031"/>
    </g>
   </g>
   <g id="legend_3">
    <g id="patch_19">
     <path d="M 689.429697 797.12 
L 695.029697 797.12 
Q 697.829697 797.12 697.829697 794.32 
L 697.829697 788.72 
Q 697.829697 785.92 695.029697 785.92 
L 689.429697 785.92 
Q 686.629697 785.92 686.629697 788.72 
L 686.629697 794.32 
Q 686.629697 797.12 689.429697 797.12 
z
" style="fill: #ffffff; opacity: 0.8; stroke: #cccccc; stroke-linejoin: miter"/>
    </g>
   </g>
  </g>
  <g id="axes_4">
   <g id="patch_20">
    <path d="M 87.68 1381.48 
L 704.829697 1381.48 
L 704.829697 1121.82 
L 87.68 1121.82 
z
" style="fill: #ffffff"/>
   </g>
   <g id="PathCollection_4">
    <g clip-path="url(#p635f886319)">
     <use xlink:href="#m87939ccb20" x="271.578142" y="1218.521873" style="fill: #0000ff; stroke: #ffffff; stroke-width: 0.48"/>
     <use xlink:href="#m87939ccb20" x="448.203476" y="1218.521873" style="fill: #0000ff; stroke: #ffffff; stroke-width: 0.48"/>
     <use xlink:href="#m87939ccb20" x="604.049359" y="1219.076899" style="fill: #0000ff; stroke: #ffffff; stroke-width: 0.48"/>
     <use xlink:href="#m87939ccb20" x="219.629514" y="1233.329422" style="fill: #0000ff; stroke: #ffffff; stroke-width: 0.48"/>
     <use xlink:href="#m87939ccb20" x="583.269908" y="1238.174465" style="fill: #0000ff; stroke: #ffffff; stroke-width: 0.48"/>
     <use xlink:href="#m87939ccb20" x="167.680887" y="1248.946417" style="fill: #0000ff; stroke: #ffffff; stroke-width: 0.48"/>
     <use xlink:href="#m87939ccb20" x="219.629514" y="1248.403414" style="fill: #0000ff; stroke: #ffffff; stroke-width: 0.48"/>
     <use xlink:href="#m87939ccb20" x="676.777438" y="1257.558575" style="fill: #0000ff; stroke: #ffffff; stroke-width: 0.48"/>
     <use xlink:href="#m87939ccb20" x="230.01924" y="1254.551332" style="fill: #0000ff; stroke: #ffffff; stroke-width: 0.48"/>
     <use xlink:href="#m87939ccb20" x="198.850063" y="1369.675378" style="fill: #0000ff; stroke: #ffffff; stroke-width: 0.48"/>
     <use xlink:href="#m87939ccb20" x="115.732259" y="1369.677273" style="fill: #0000ff; stroke: #ffffff; stroke-width: 0.48"/>
     <use xlink:href="#m87939ccb20" x="261.188416" y="1350.635128" style="fill: #0000ff; stroke: #ffffff; stroke-width: 0.48"/>
     <use xlink:href="#m87939ccb20" x="281.967868" y="1249.033935" style="fill: #0000ff; stroke: #ffffff; stroke-width: 0.48"/>
     <use xlink:href="#m87939ccb20" x="271.578142" y="1140.631196" style="fill: #0000ff; stroke: #ffffff; stroke-width: 0.48"/>
     <use xlink:href="#m87939ccb20" x="240.408965" y="1162.594021" style="fill: #0000ff; stroke: #ffffff; stroke-width: 0.48"/>
     <use xlink:href="#m87939ccb20" x="624.82881" y="1160.488754" style="fill: #0000ff; stroke: #ffffff; stroke-width: 0.48"/>
     <use xlink:href="#m87939ccb20" x="281.967868" y="1146.494326" style="fill: #0000ff; stroke: #ffffff; stroke-width: 0.48"/>
    </g>
   </g>
   <g id="PolyCollection_4">
    <path d="M 115.732259 1206.546598 
L 115.732259 1324.088149 
L 121.399382 1322.205899 
L 127.066505 1320.238177 
L 132.733628 1318.969215 
L 138.400751 1317.910456 
L 144.067874 1316.424469 
L 149.734997 1315.162393 
L 155.40212 1313.893447 
L 161.069243 1312.6245 
L 166.736366 1310.615076 
L 172.403489 1307.184448 
L 178.070612 1305.819729 
L 183.737735 1304.83162 
L 189.404858 1303.843511 
L 195.071981 1301.747082 
L 200.739104 1300.512141 
L 206.406227 1299.363017 
L 212.07335 1297.984135 
L 217.740473 1296.495807 
L 223.407596 1295.190871 
L 229.074719 1293.903196 
L 234.741842 1292.662697 
L 240.408965 1291.446745 
L 246.076088 1290.173494 
L 251.743211 1288.669851 
L 257.410334 1287.310083 
L 263.077457 1286.017545 
L 268.744581 1284.889702 
L 274.411704 1283.794336 
L 280.078827 1282.137467 
L 285.74595 1280.777162 
L 291.413073 1279.474551 
L 297.080196 1278.656322 
L 302.747319 1277.800172 
L 308.414442 1276.453665 
L 314.081565 1275.054442 
L 319.748688 1273.655218 
L 325.415811 1272.255994 
L 331.082934 1271.539332 
L 336.750057 1269.960519 
L 342.41718 1268.683403 
L 348.084303 1267.859654 
L 353.751426 1266.675586 
L 359.418549 1265.716519 
L 365.085672 1264.219027 
L 370.752795 1263.354452 
L 376.419918 1262.564552 
L 382.087041 1261.192442 
L 387.754164 1259.959499 
L 393.421287 1258.950138 
L 399.08841 1258.009935 
L 404.755533 1257.161736 
L 410.422656 1256.61349 
L 416.089779 1255.456496 
L 421.756902 1254.440807 
L 427.424025 1253.891775 
L 433.091148 1253.013332 
L 438.758271 1252.548419 
L 444.425394 1251.709346 
L 450.092517 1250.827536 
L 455.75964 1249.857305 
L 461.426763 1249.57696 
L 467.093886 1249.047496 
L 472.761009 1248.449055 
L 478.428132 1247.751514 
L 484.095255 1247.26632 
L 489.762378 1246.385554 
L 495.429501 1245.968206 
L 501.096624 1245.485569 
L 506.763747 1244.874249 
L 512.43087 1244.337991 
L 518.097993 1243.82944 
L 523.765116 1243.311315 
L 529.432239 1242.79319 
L 535.099362 1242.275065 
L 540.766486 1241.768366 
L 546.433609 1241.279071 
L 552.100732 1240.74989 
L 557.767855 1240.61331 
L 563.434978 1240.566417 
L 569.102101 1239.653261 
L 574.769224 1239.376325 
L 580.436347 1239.030305 
L 586.10347 1239.358796 
L 591.770593 1239.533276 
L 597.437716 1239.303002 
L 603.104839 1238.747497 
L 608.771962 1238.558182 
L 614.439085 1238.404215 
L 620.106208 1238.39044 
L 625.773331 1238.423584 
L 631.440454 1238.306439 
L 637.107577 1238.223547 
L 642.7747 1238.016048 
L 648.441823 1237.868979 
L 654.108946 1237.478736 
L 659.776069 1237.211647 
L 665.443192 1237.131235 
L 671.110315 1236.961094 
L 676.777438 1236.976785 
L 676.777438 1133.622727 
L 676.777438 1133.622727 
L 671.110315 1135.076976 
L 665.443192 1136.531225 
L 659.776069 1137.985474 
L 654.108946 1139.317939 
L 648.441823 1140.551398 
L 642.7747 1141.784857 
L 637.107577 1143.018317 
L 631.440454 1144.251776 
L 625.773331 1145.485235 
L 620.106208 1146.718694 
L 614.439085 1147.952153 
L 608.771962 1149.185612 
L 603.104839 1150.607368 
L 597.437716 1152.193192 
L 591.770593 1153.779017 
L 586.10347 1155.371895 
L 580.436347 1156.969423 
L 574.769224 1158.56085 
L 569.102101 1159.698547 
L 563.434978 1161.284437 
L 557.767855 1162.824998 
L 552.100732 1164.506921 
L 546.433609 1166.188845 
L 540.766486 1167.870769 
L 535.099362 1169.552692 
L 529.432239 1170.912776 
L 523.765116 1172.187532 
L 518.097993 1173.462289 
L 512.43087 1174.737046 
L 506.763747 1175.65651 
L 501.096624 1176.313018 
L 495.429501 1177.643483 
L 489.762378 1179.80297 
L 484.095255 1180.960916 
L 478.428132 1181.803717 
L 472.761009 1183.216451 
L 467.093886 1184.967339 
L 461.426763 1186.241042 
L 455.75964 1187.588654 
L 450.092517 1189.292104 
L 444.425394 1190.638804 
L 438.758271 1191.721409 
L 433.091148 1192.807685 
L 427.424025 1193.627664 
L 421.756902 1194.40555 
L 416.089779 1195.398996 
L 410.422656 1195.888107 
L 404.755533 1197.309237 
L 399.08841 1198.730368 
L 393.421287 1199.508178 
L 387.754164 1199.982608 
L 382.087041 1200.799308 
L 376.419918 1201.233018 
L 370.752795 1201.736587 
L 365.085672 1203.223742 
L 359.418549 1203.057554 
L 353.751426 1204.273993 
L 348.084303 1205.48801 
L 342.41718 1205.412052 
L 336.750057 1205.901199 
L 331.082934 1206.706909 
L 325.415811 1206.824969 
L 319.748688 1207.589786 
L 314.081565 1207.720356 
L 308.414442 1208.252623 
L 302.747319 1208.406672 
L 297.080196 1208.541541 
L 291.413073 1208.789657 
L 285.74595 1208.792501 
L 280.078827 1208.945571 
L 274.411704 1208.899727 
L 268.744581 1208.753877 
L 263.077457 1208.651827 
L 257.410334 1208.532734 
L 251.743211 1208.410156 
L 246.076088 1208.448753 
L 240.408965 1208.500305 
L 234.741842 1208.364369 
L 229.074719 1208.228434 
L 223.407596 1208.137184 
L 217.740473 1208.25908 
L 212.07335 1208.602945 
L 206.406227 1208.389159 
L 200.739104 1208.175372 
L 195.071981 1207.961585 
L 189.404858 1207.748114 
L 183.737735 1207.576449 
L 178.070612 1207.526937 
L 172.403489 1207.477639 
L 166.736366 1207.262845 
L 161.069243 1207.170712 
L 155.40212 1207.083374 
L 149.734997 1206.996786 
L 144.067874 1206.910198 
L 138.400751 1206.82361 
L 132.733628 1206.737022 
L 127.066505 1206.650434 
L 121.399382 1206.597681 
L 115.732259 1206.546598 
z
" clip-path="url(#p635f886319)" style="fill: #ff0000; fill-opacity: 0.15"/>
   </g>
   <g id="matplotlib.axis_7">
    <g id="xtick_19">
     <g id="line2d_41">
      <g>
       <use xlink:href="#mb5ec068d04" x="167.680887" y="1381.48" style="stroke: #000000; stroke-width: 0.8"/>
      </g>
     </g>
     <g id="text_47">
      <!-- 1960 -->
      <g transform="translate(147.320887 1400.6375) scale(0.16 -0.16)">
       <use xlink:href="#DejaVuSans-31"/>
       <use xlink:href="#DejaVuSans-39" x="63.623047"/>
       <use xlink:href="#DejaVuSans-36" x="127.246094"/>
       <use xlink:href="#DejaVuSans-30" x="190.869141"/>
      </g>
     </g>
    </g>
    <g id="xtick_20">
     <g id="line2d_42">
      <g>
       <use xlink:href="#mb5ec068d04" x="271.578142" y="1381.48" style="stroke: #000000; stroke-width: 0.8"/>
      </g>
     </g>
     <g id="text_48">
      <!-- 1970 -->
      <g transform="translate(251.218142 1400.6375) scale(0.16 -0.16)">
       <use xlink:href="#DejaVuSans-31"/>
       <use xlink:href="#DejaVuSans-39" x="63.623047"/>
       <use xlink:href="#DejaVuSans-37" x="127.246094"/>
       <use xlink:href="#DejaVuSans-30" x="190.869141"/>
      </g>
     </g>
    </g>
    <g id="xtick_21">
     <g id="line2d_43">
      <g>
       <use xlink:href="#mb5ec068d04" x="375.475397" y="1381.48" style="stroke: #000000; stroke-width: 0.8"/>
      </g>
     </g>
     <g id="text_49">
      <!-- 1980 -->
      <g transform="translate(355.115397 1400.6375) scale(0.16 -0.16)">
       <use xlink:href="#DejaVuSans-31"/>
       <use xlink:href="#DejaVuSans-39" x="63.623047"/>
       <use xlink:href="#DejaVuSans-38" x="127.246094"/>
       <use xlink:href="#DejaVuSans-30" x="190.869141"/>
      </g>
     </g>
    </g>
    <g id="xtick_22">
     <g id="line2d_44">
      <g>
       <use xlink:href="#mb5ec068d04" x="479.372653" y="1381.48" style="stroke: #000000; stroke-width: 0.8"/>
      </g>
     </g>
     <g id="text_50">
      <!-- 1990 -->
      <g transform="translate(459.012653 1400.6375) scale(0.16 -0.16)">
       <use xlink:href="#DejaVuSans-31"/>
       <use xlink:href="#DejaVuSans-39" x="63.623047"/>
       <use xlink:href="#DejaVuSans-39" x="127.246094"/>
       <use xlink:href="#DejaVuSans-30" x="190.869141"/>
      </g>
     </g>
    </g>
    <g id="xtick_23">
     <g id="line2d_45">
      <g>
       <use xlink:href="#mb5ec068d04" x="583.269908" y="1381.48" style="stroke: #000000; stroke-width: 0.8"/>
      </g>
     </g>
     <g id="text_51">
      <!-- 2000 -->
      <g transform="translate(562.909908 1400.6375) scale(0.16 -0.16)">
       <use xlink:href="#DejaVuSans-32"/>
       <use xlink:href="#DejaVuSans-30" x="63.623047"/>
       <use xlink:href="#DejaVuSans-30" x="127.246094"/>
       <use xlink:href="#DejaVuSans-30" x="190.869141"/>
      </g>
     </g>
    </g>
    <g id="xtick_24">
     <g id="line2d_46">
      <g>
       <use xlink:href="#mb5ec068d04" x="687.167164" y="1381.48" style="stroke: #000000; stroke-width: 0.8"/>
      </g>
     </g>
     <g id="text_52">
      <!-- 2010 -->
      <g transform="translate(666.807164 1400.6375) scale(0.16 -0.16)">
       <use xlink:href="#DejaVuSans-32"/>
       <use xlink:href="#DejaVuSans-30" x="63.623047"/>
       <use xlink:href="#DejaVuSans-31" x="127.246094"/>
       <use xlink:href="#DejaVuSans-30" x="190.869141"/>
      </g>
     </g>
    </g>
    <g id="text_53">
     <!-- Year -->
     <g transform="translate(375.079848 1423.161875) scale(0.2 -0.2)">
      <use xlink:href="#DejaVuSans-59"/>
      <use xlink:href="#DejaVuSans-65" x="47.833984"/>
      <use xlink:href="#DejaVuSans-61" x="109.357422"/>
      <use xlink:href="#DejaVuSans-72" x="170.636719"/>
     </g>
    </g>
   </g>
   <g id="matplotlib.axis_8">
    <g id="ytick_20">
     <g id="line2d_47">
      <g>
       <use xlink:href="#m69b7fddda0" x="87.68" y="1369.677273" style="stroke: #000000; stroke-width: 0.8"/>
      </g>
     </g>
     <g id="text_54">
      <!-- 0.00 -->
      <g transform="translate(45.055 1375.756023) scale(0.16 -0.16)">
       <use xlink:href="#DejaVuSans-30"/>
       <use xlink:href="#DejaVuSans-2e" x="63.623047"/>
       <use xlink:href="#DejaVuSans-30" x="95.410156"/>
       <use xlink:href="#DejaVuSans-30" x="159.033203"/>
      </g>
     </g>
    </g>
    <g id="ytick_21">
     <g id="line2d_48">
      <g>
       <use xlink:href="#m69b7fddda0" x="87.68" y="1321.448236" style="stroke: #000000; stroke-width: 0.8"/>
      </g>
     </g>
     <g id="text_55">
      <!-- 0.05 -->
      <g transform="translate(45.055 1327.526986) scale(0.16 -0.16)">
       <use xlink:href="#DejaVuSans-30"/>
       <use xlink:href="#DejaVuSans-2e" x="63.623047"/>
       <use xlink:href="#DejaVuSans-30" x="95.410156"/>
       <use xlink:href="#DejaVuSans-35" x="159.033203"/>
      </g>
     </g>
    </g>
    <g id="ytick_22">
     <g id="line2d_49">
      <g>
       <use xlink:href="#m69b7fddda0" x="87.68" y="1273.2192" style="stroke: #000000; stroke-width: 0.8"/>
      </g>
     </g>
     <g id="text_56">
      <!-- 0.10 -->
      <g transform="translate(45.055 1279.29795) scale(0.16 -0.16)">
       <use xlink:href="#DejaVuSans-30"/>
       <use xlink:href="#DejaVuSans-2e" x="63.623047"/>
       <use xlink:href="#DejaVuSans-31" x="95.410156"/>
       <use xlink:href="#DejaVuSans-30" x="159.033203"/>
      </g>
     </g>
    </g>
    <g id="ytick_23">
     <g id="line2d_50">
      <g>
       <use xlink:href="#m69b7fddda0" x="87.68" y="1224.990163" style="stroke: #000000; stroke-width: 0.8"/>
      </g>
     </g>
     <g id="text_57">
      <!-- 0.15 -->
      <g transform="translate(45.055 1231.068913) scale(0.16 -0.16)">
       <use xlink:href="#DejaVuSans-30"/>
       <use xlink:href="#DejaVuSans-2e" x="63.623047"/>
       <use xlink:href="#DejaVuSans-31" x="95.410156"/>
       <use xlink:href="#DejaVuSans-35" x="159.033203"/>
      </g>
     </g>
    </g>
    <g id="ytick_24">
     <g id="line2d_51">
      <g>
       <use xlink:href="#m69b7fddda0" x="87.68" y="1176.761127" style="stroke: #000000; stroke-width: 0.8"/>
      </g>
     </g>
     <g id="text_58">
      <!-- 0.20 -->
      <g transform="translate(45.055 1182.839877) scale(0.16 -0.16)">
       <use xlink:href="#DejaVuSans-30"/>
       <use xlink:href="#DejaVuSans-2e" x="63.623047"/>
       <use xlink:href="#DejaVuSans-32" x="95.410156"/>
       <use xlink:href="#DejaVuSans-30" x="159.033203"/>
      </g>
     </g>
    </g>
    <g id="ytick_25">
     <g id="line2d_52">
      <g>
       <use xlink:href="#m69b7fddda0" x="87.68" y="1128.532091" style="stroke: #000000; stroke-width: 0.8"/>
      </g>
     </g>
     <g id="text_59">
      <!-- 0.25 -->
      <g transform="translate(45.055 1134.610841) scale(0.16 -0.16)">
       <use xlink:href="#DejaVuSans-30"/>
       <use xlink:href="#DejaVuSans-2e" x="63.623047"/>
       <use xlink:href="#DejaVuSans-32" x="95.410156"/>
       <use xlink:href="#DejaVuSans-35" x="159.033203"/>
      </g>
     </g>
    </g>
    <g id="text_60">
     <!-- Genetic distance -->
     <g transform="translate(36.895625 1335.790625) rotate(-90) scale(0.2 -0.2)">
      <use xlink:href="#DejaVuSans-47"/>
      <use xlink:href="#DejaVuSans-65" x="77.490234"/>
      <use xlink:href="#DejaVuSans-6e" x="139.013672"/>
      <use xlink:href="#DejaVuSans-65" x="202.392578"/>
      <use xlink:href="#DejaVuSans-74" x="263.916016"/>
      <use xlink:href="#DejaVuSans-69" x="303.125"/>
      <use xlink:href="#DejaVuSans-63" x="330.908203"/>
      <use xlink:href="#DejaVuSans-20" x="385.888672"/>
      <use xlink:href="#DejaVuSans-64" x="417.675781"/>
      <use xlink:href="#DejaVuSans-69" x="481.152344"/>
      <use xlink:href="#DejaVuSans-73" x="508.935547"/>
      <use xlink:href="#DejaVuSans-74" x="561.035156"/>
      <use xlink:href="#DejaVuSans-61" x="600.244141"/>
      <use xlink:href="#DejaVuSans-6e" x="661.523438"/>
      <use xlink:href="#DejaVuSans-63" x="724.902344"/>
      <use xlink:href="#DejaVuSans-65" x="779.882812"/>
     </g>
    </g>
   </g>
   <g id="line2d_53">
    <path d="M 115.732259 1267.830092 
L 121.399382 1267.120853 
L 127.066505 1266.411614 
L 132.733628 1265.702376 
L 138.400751 1264.993137 
L 144.067874 1264.283898 
L 149.734997 1263.574659 
L 155.40212 1262.865421 
L 161.069243 1262.156182 
L 166.736366 1261.446943 
L 172.403489 1260.737705 
L 178.070612 1260.028466 
L 183.737735 1259.319227 
L 189.404858 1258.609988 
L 195.071981 1257.90075 
L 200.739104 1257.191511 
L 206.406227 1256.482272 
L 212.07335 1255.773034 
L 217.740473 1255.063795 
L 223.407596 1254.354556 
L 229.074719 1253.645317 
L 234.741842 1252.936079 
L 240.408965 1252.22684 
L 246.076088 1251.517601 
L 251.743211 1250.808363 
L 257.410334 1250.099124 
L 263.077457 1249.389885 
L 268.744581 1248.680646 
L 274.411704 1247.971408 
L 280.078827 1247.262169 
L 285.74595 1246.55293 
L 291.413073 1245.843692 
L 297.080196 1245.134453 
L 302.747319 1244.425214 
L 308.414442 1243.715975 
L 314.081565 1243.006737 
L 319.748688 1242.297498 
L 325.415811 1241.588259 
L 331.082934 1240.879021 
L 336.750057 1240.169782 
L 342.41718 1239.460543 
L 348.084303 1238.751304 
L 353.751426 1238.042066 
L 359.418549 1237.332827 
L 365.085672 1236.623588 
L 370.752795 1235.91435 
L 376.419918 1235.205111 
L 382.087041 1234.495872 
L 387.754164 1233.786633 
L 393.421287 1233.077395 
L 399.08841 1232.368156 
L 404.755533 1231.658917 
L 410.422656 1230.949679 
L 416.089779 1230.24044 
L 421.756902 1229.531201 
L 427.424025 1228.821962 
L 433.091148 1228.112724 
L 438.758271 1227.403485 
L 444.425394 1226.694246 
L 450.092517 1225.985008 
L 455.75964 1225.275769 
L 461.426763 1224.56653 
L 467.093886 1223.857291 
L 472.761009 1223.148053 
L 478.428132 1222.438814 
L 484.095255 1221.729575 
L 489.762378 1221.020337 
L 495.429501 1220.311098 
L 501.096624 1219.601859 
L 506.763747 1218.89262 
L 512.43087 1218.183382 
L 518.097993 1217.474143 
L 523.765116 1216.764904 
L 529.432239 1216.055666 
L 535.099362 1215.346427 
L 540.766486 1214.637188 
L 546.433609 1213.927949 
L 552.100732 1213.218711 
L 557.767855 1212.509472 
L 563.434978 1211.800233 
L 569.102101 1211.090995 
L 574.769224 1210.381756 
L 580.436347 1209.672517 
L 586.10347 1208.963278 
L 591.770593 1208.25404 
L 597.437716 1207.544801 
L 603.104839 1206.835562 
L 608.771962 1206.126324 
L 614.439085 1205.417085 
L 620.106208 1204.707846 
L 625.773331 1203.998607 
L 631.440454 1203.289369 
L 637.107577 1202.58013 
L 642.7747 1201.870891 
L 648.441823 1201.161653 
L 654.108946 1200.452414 
L 659.776069 1199.743175 
L 665.443192 1199.033936 
L 671.110315 1198.324698 
L 676.777438 1197.615459 
" clip-path="url(#p635f886319)" style="fill: none; stroke: #ff0000; stroke-width: 2.25; stroke-linecap: square"/>
   </g>
   <g id="patch_21">
    <path d="M 87.68 1381.48 
L 87.68 1121.82 
" style="fill: none; stroke: #000000; stroke-width: 0.8; stroke-linejoin: miter; stroke-linecap: square"/>
   </g>
   <g id="patch_22">
    <path d="M 704.829697 1381.48 
L 704.829697 1121.82 
" style="fill: none; stroke: #000000; stroke-width: 0.8; stroke-linejoin: miter; stroke-linecap: square"/>
   </g>
   <g id="patch_23">
    <path d="M 87.68 1381.48 
L 704.829697 1381.48 
" style="fill: none; stroke: #000000; stroke-width: 0.8; stroke-linejoin: miter; stroke-linecap: square"/>
   </g>
   <g id="patch_24">
    <path d="M 87.68 1121.82 
L 704.829697 1121.82 
" style="fill: none; stroke: #000000; stroke-width: 0.8; stroke-linejoin: miter; stroke-linecap: square"/>
   </g>
   <g id="text_61">
    <!-- C_976-2742(P1) -->
    <g transform="translate(299.866723 1115.82) scale(0.24 -0.24)">
     <use xlink:href="#DejaVuSans-43"/>
     <use xlink:href="#DejaVuSans-5f" x="69.824219"/>
     <use xlink:href="#DejaVuSans-39" x="119.824219"/>
     <use xlink:href="#DejaVuSans-37" x="183.447266"/>
     <use xlink:href="#DejaVuSans-36" x="247.070312"/>
     <use xlink:href="#DejaVuSans-2d" x="310.693359"/>
     <use xlink:href="#DejaVuSans-32" x="346.777344"/>
     <use xlink:href="#DejaVuSans-37" x="410.400391"/>
     <use xlink:href="#DejaVuSans-34" x="474.023438"/>
     <use xlink:href="#DejaVuSans-32" x="537.646484"/>
     <use xlink:href="#DejaVuSans-28" x="601.269531"/>
     <use xlink:href="#DejaVuSans-50" x="640.283203"/>
     <use xlink:href="#DejaVuSans-31" x="700.585938"/>
     <use xlink:href="#DejaVuSans-29" x="764.208984"/>
    </g>
   </g>
   <g id="legend_4">
    <g id="patch_25">
     <path d="M 689.429697 1140.02 
L 695.029697 1140.02 
Q 697.829697 1140.02 697.829697 1137.22 
L 697.829697 1131.62 
Q 697.829697 1128.82 695.029697 1128.82 
L 689.429697 1128.82 
Q 686.629697 1128.82 686.629697 1131.62 
L 686.629697 1137.22 
Q 686.629697 1140.02 689.429697 1140.02 
z
" style="fill: #ffffff; opacity: 0.8; stroke: #cccccc; stroke-linejoin: miter"/>
    </g>
   </g>
  </g>
 </g>
 <defs>
  <clipPath id="peda9d34d08">
   <rect x="87.68" y="93.12" width="617.149697" height="259.66"/>
  </clipPath>
  <clipPath id="pdfb49458c8">
   <rect x="87.68" y="436.02" width="617.149697" height="259.66"/>
  </clipPath>
  <clipPath id="p57172ff86a">
   <rect x="87.68" y="778.92" width="617.149697" height="259.66"/>
  </clipPath>
  <clipPath id="p635f886319">
   <rect x="87.68" y="1121.82" width="617.149697" height="259.66"/>
  </clipPath>
 </defs>
</svg>
