<?xml version="1.0" encoding="utf-8" standalone="no"?>
<!DOCTYPE svg PUBLIC "-//W3C//DTD SVG 1.1//EN"
  "http://www.w3.org/Graphics/SVG/1.1/DTD/svg11.dtd">
<svg xmlns:xlink="http://www.w3.org/1999/xlink" width="288pt" height="180pt" viewBox="0 0 288 180" xmlns="http://www.w3.org/2000/svg" version="1.1">
 <metadata>
  <rdf:RDF xmlns:dc="http://purl.org/dc/elements/1.1/" xmlns:cc="http://creativecommons.org/ns#" xmlns:rdf="http://www.w3.org/1999/02/22-rdf-syntax-ns#">
   <cc:Work>
    <dc:type rdf:resource="http://purl.org/dc/dcmitype/StillImage"/>
    <dc:date>2026-01-19T15:00:35.084130</dc:date>
    <dc:format>image/svg+xml</dc:format>
    <dc:creator>
     <cc:Agent>
      <dc:title>Matplotlib v3.10.8, https://matplotlib.org/</dc:title>
     </cc:Agent>
    </dc:creator>
   </cc:Work>
  </rdf:RDF>
 </metadata>
 <defs>
  <style type="text/css">*{stroke-linejoin: round; stroke-linecap: butt}</style>
 </defs>
 <g id="figure_1">
  <g id="patch_1">
   <path d="M 0 180 
L 288 180 
L 288 0 
L 0 0 
z
" style="fill: #ffffff"/>
  </g>
  <g id="axes_1">
   <g id="patch_2">
    <path d="M 46.73 141.64 
L 277.2 141.64 
L 277.2 31.92 
L 46.73 31.92 
z
" style="fill: #ffffff"/>
   </g>
   <g id="PathCollection_1">
    <path d="M 121.344128 73.083704 
C 121.906709 73.083704 122.446323 72.860188 122.844128 72.462383 
C 123.241933 72.064579 123.465448 71.524964 123.465448 70.962383 
C 123.465448 70.399803 123.241933 69.860188 122.844128 69.462383 
C 122.446323 69.064579 121.906709 68.841063 121.344128 68.841063 
C 120.781547 68.841063 120.241933 69.064579 119.844128 69.462383 
C 119.446323 69.860188 119.222808 70.399803 119.222808 70.962383 
C 119.222808 71.524964 119.446323 72.064579 119.844128 72.462383 
C 120.241933 72.860188 120.781547 73.083704 121.344128 73.083704 
z
" clip-path="url(#p7bf478719b)" style="fill: #0000ff; stroke: #ffffff; stroke-width: 0.339411"/>
    <path d="M 194.034109 73.083704 
C 194.59669 73.083704 195.136305 72.860188 195.534109 72.462383 
C 195.931914 72.064579 196.15543 71.524964 196.15543 70.962383 
C 196.15543 70.399803 195.931914 69.860188 195.534109 69.462383 
C 195.136305 69.064579 194.59669 68.841063 194.034109 68.841063 
C 193.471529 68.841063 192.931914 69.064579 192.534109 69.462383 
C 192.136305 69.860188 191.912789 70.399803 191.912789 70.962383 
C 191.912789 71.524964 192.136305 72.064579 192.534109 72.462383 
C 192.931914 72.860188 193.471529 73.083704 194.034109 73.083704 
z
" clip-path="url(#p7bf478719b)" style="fill: #0000ff; stroke: #ffffff; stroke-width: 0.339411"/>
    <path d="M 258.172328 73.321991 
C 258.734909 73.321991 259.274524 73.098475 259.672328 72.700671 
C 260.070133 72.302866 260.293649 71.763251 260.293649 71.200671 
C 260.293649 70.63809 260.070133 70.098475 259.672328 69.700671 
C 259.274524 69.302866 258.734909 69.07935 258.172328 69.07935 
C 257.609748 69.07935 257.070133 69.302866 256.672328 69.700671 
C 256.274524 70.098475 256.051008 70.63809 256.051008 71.200671 
C 256.051008 71.763251 256.274524 72.302866 256.672328 72.700671 
C 257.070133 73.098475 257.609748 73.321991 258.172328 73.321991 
z
" clip-path="url(#p7bf478719b)" style="fill: #0000ff; stroke: #ffffff; stroke-width: 0.339411"/>
    <path d="M 99.964722 80.545815 
C 100.527302 80.545815 101.066917 80.322299 101.464722 79.924495 
C 101.862526 79.52669 102.086042 78.987075 102.086042 78.424495 
C 102.086042 77.861914 101.862526 77.322299 101.464722 76.924495 
C 101.066917 76.52669 100.527302 76.303174 99.964722 76.303174 
C 99.402141 76.303174 98.862526 76.52669 98.464722 76.924495 
C 98.066917 77.322299 97.843401 77.861914 97.843401 78.424495 
C 97.843401 78.987075 98.066917 79.52669 98.464722 79.924495 
C 98.862526 80.322299 99.402141 80.545815 99.964722 80.545815 
z
" clip-path="url(#p7bf478719b)" style="fill: #0000ff; stroke: #ffffff; stroke-width: 0.339411"/>
    <path d="M 249.620566 82.655752 
C 250.183147 82.655752 250.722761 82.432236 251.120566 82.034431 
C 251.518371 81.636627 251.741886 81.097012 251.741886 80.534431 
C 251.741886 79.971851 251.518371 79.432236 251.120566 79.034431 
C 250.722761 78.636627 250.183147 78.413111 249.620566 78.413111 
C 249.057985 78.413111 248.518371 78.636627 248.120566 79.034431 
C 247.722761 79.432236 247.499246 79.971851 247.499246 80.534431 
C 247.499246 81.097012 247.722761 81.636627 248.120566 82.034431 
C 248.518371 82.432236 249.057985 82.655752 249.620566 82.655752 
z
" clip-path="url(#p7bf478719b)" style="fill: #0000ff; stroke: #ffffff; stroke-width: 0.339411"/>
    <path d="M 78.585315 87.282328 
C 79.147896 87.282328 79.687511 87.058812 80.085315 86.661008 
C 80.48312 86.263203 80.706636 85.723588 80.706636 85.161008 
C 80.706636 84.598427 80.48312 84.058812 80.085315 83.661008 
C 79.687511 83.263203 79.147896 83.039687 78.585315 83.039687 
C 78.022735 83.039687 77.48312 83.263203 77.085315 83.661008 
C 76.687511 84.058812 76.463995 84.598427 76.463995 85.161008 
C 76.463995 85.723588 76.687511 86.263203 77.085315 86.661008 
C 77.48312 87.058812 78.022735 87.282328 78.585315 87.282328 
z
" clip-path="url(#p7bf478719b)" style="fill: #0000ff; stroke: #ffffff; stroke-width: 0.339411"/>
    <path d="M 99.964722 87.048991 
C 100.527302 87.048991 101.066917 86.825475 101.464722 86.42767 
C 101.862526 86.029866 102.086042 85.490251 102.086042 84.92767 
C 102.086042 84.36509 101.862526 83.825475 101.464722 83.42767 
C 101.066917 83.029866 100.527302 82.80635 99.964722 82.80635 
C 99.402141 82.80635 98.862526 83.029866 98.464722 83.42767 
C 98.066917 83.825475 97.843401 84.36509 97.843401 84.92767 
C 97.843401 85.490251 98.066917 86.029866 98.464722 86.42767 
C 98.862526 86.825475 99.402141 87.048991 99.964722 87.048991 
z
" clip-path="url(#p7bf478719b)" style="fill: #0000ff; stroke: #ffffff; stroke-width: 0.339411"/>
    <path d="M 104.240603 87.296462 
C 104.803184 87.296462 105.342798 87.072946 105.740603 86.675142 
C 106.138408 86.277337 106.361923 85.737722 106.361923 85.175142 
C 106.361923 84.612561 106.138408 84.072946 105.740603 83.675142 
C 105.342798 83.277337 104.803184 83.053821 104.240603 83.053821 
C 103.678022 83.053821 103.138408 83.277337 102.740603 83.675142 
C 102.342798 84.072946 102.119283 84.612561 102.119283 85.175142 
C 102.119283 85.737722 102.342798 86.277337 102.740603 86.675142 
C 103.138408 87.072946 103.678022 87.296462 104.240603 87.296462 
z
" clip-path="url(#p7bf478719b)" style="fill: #0000ff; stroke: #ffffff; stroke-width: 0.339411"/>
    <path d="M 91.412959 138.773226 
C 91.97554 138.773226 92.515155 138.54971 92.912959 138.151906 
C 93.310764 137.754101 93.53428 137.214486 93.53428 136.651906 
C 93.53428 136.089325 93.310764 135.54971 92.912959 135.151906 
C 92.515155 134.754101 91.97554 134.530585 91.412959 134.530585 
C 90.850378 134.530585 90.310764 134.754101 89.912959 135.151906 
C 89.515155 135.54971 89.291639 136.089325 89.291639 136.651906 
C 89.291639 137.214486 89.515155 137.754101 89.912959 138.151906 
C 90.310764 138.54971 90.850378 138.773226 91.412959 138.773226 
z
" clip-path="url(#p7bf478719b)" style="fill: #0000ff; stroke: #ffffff; stroke-width: 0.339411"/>
    <path d="M 57.205909 138.774048 
C 57.76849 138.774048 58.308104 138.550532 58.705909 138.152727 
C 59.103714 137.754923 59.327229 137.215308 59.327229 136.652727 
C 59.327229 136.090147 59.103714 135.550532 58.705909 135.152727 
C 58.308104 134.754923 57.76849 134.531407 57.205909 134.531407 
C 56.643328 134.531407 56.103714 134.754923 55.705909 135.152727 
C 55.308104 135.550532 55.084589 136.090147 55.084589 136.652727 
C 55.084589 137.215308 55.308104 137.754923 55.705909 138.152727 
C 56.103714 138.550532 56.643328 138.774048 57.205909 138.774048 
z
" clip-path="url(#p7bf478719b)" style="fill: #0000ff; stroke: #ffffff; stroke-width: 0.339411"/>
    <path d="M 117.068247 130.585291 
C 117.630827 130.585291 118.170442 130.361775 118.568247 129.96397 
C 118.966051 129.566166 119.189567 129.026551 119.189567 128.46397 
C 119.189567 127.90139 118.966051 127.361775 118.568247 126.96397 
C 118.170442 126.566166 117.630827 126.34265 117.068247 126.34265 
C 116.505666 126.34265 115.966051 126.566166 115.568247 126.96397 
C 115.170442 127.361775 114.946926 127.90139 114.946926 128.46397 
C 114.946926 129.026551 115.170442 129.566166 115.568247 129.96397 
C 115.966051 130.361775 116.505666 130.585291 117.068247 130.585291 
z
" clip-path="url(#p7bf478719b)" style="fill: #0000ff; stroke: #ffffff; stroke-width: 0.339411"/>
    <path d="M 125.620009 86.262423 
C 126.18259 86.262423 126.722205 86.038907 127.120009 85.641102 
C 127.517814 85.243298 127.74133 84.703683 127.74133 84.141102 
C 127.74133 83.578522 127.517814 83.038907 127.120009 82.641102 
C 126.722205 82.243298 126.18259 82.019782 125.620009 82.019782 
C 125.057429 82.019782 124.517814 82.243298 124.120009 82.641102 
C 123.722205 83.038907 123.498689 83.578522 123.498689 84.141102 
C 123.498689 84.703683 123.722205 85.243298 124.120009 85.641102 
C 124.517814 86.038907 125.057429 86.262423 125.620009 86.262423 
z
" clip-path="url(#p7bf478719b)" style="fill: #0000ff; stroke: #ffffff; stroke-width: 0.339411"/>
    <path d="M 121.344128 39.028593 
C 121.906709 39.028593 122.446323 38.805077 122.844128 38.407273 
C 123.241933 38.009468 123.465448 37.469853 123.465448 36.907273 
C 123.465448 36.344692 123.241933 35.805077 122.844128 35.407273 
C 122.446323 35.009468 121.906709 34.785952 121.344128 34.785952 
C 120.781547 34.785952 120.241933 35.009468 119.844128 35.407273 
C 119.446323 35.805077 119.222808 36.344692 119.222808 36.907273 
C 119.222808 37.469853 119.446323 38.009468 119.844128 38.407273 
C 120.241933 38.805077 120.781547 39.028593 121.344128 39.028593 
z
" clip-path="url(#p7bf478719b)" style="fill: #0000ff; stroke: #ffffff; stroke-width: 0.339411"/>
    <path d="M 108.516484 48.518312 
C 109.079065 48.518312 109.61868 48.294797 110.016484 47.896992 
C 110.414289 47.499187 110.637805 46.959573 110.637805 46.396992 
C 110.637805 45.834411 110.414289 45.294797 110.016484 44.896992 
C 109.61868 44.499187 109.079065 44.275672 108.516484 44.275672 
C 107.953903 44.275672 107.414289 44.499187 107.016484 44.896992 
C 106.61868 45.294797 106.395164 45.834411 106.395164 46.396992 
C 106.395164 46.959573 106.61868 47.499187 107.016484 47.896992 
C 107.414289 48.294797 107.953903 48.518312 108.516484 48.518312 
z
" clip-path="url(#p7bf478719b)" style="fill: #0000ff; stroke: #ffffff; stroke-width: 0.339411"/>
    <path d="M 266.724091 47.61727 
C 267.286672 47.61727 267.826286 47.393754 268.224091 46.995949 
C 268.621896 46.598145 268.845411 46.05853 268.845411 45.495949 
C 268.845411 44.933369 268.621896 44.393754 268.224091 43.995949 
C 267.826286 43.598145 267.286672 43.374629 266.724091 43.374629 
C 266.16151 43.374629 265.621896 43.598145 265.224091 43.995949 
C 264.826286 44.393754 264.602771 44.933369 264.602771 45.495949 
C 264.602771 46.05853 264.826286 46.598145 265.224091 46.995949 
C 265.621896 47.393754 266.16151 47.61727 266.724091 47.61727 
z
" clip-path="url(#p7bf478719b)" style="fill: #0000ff; stroke: #ffffff; stroke-width: 0.339411"/>
    <path d="M 125.620009 41.547769 
C 126.18259 41.547769 126.722205 41.324253 127.120009 40.926448 
C 127.517814 40.528644 127.74133 39.989029 127.74133 39.426448 
C 127.74133 38.863868 127.517814 38.324253 127.120009 37.926448 
C 126.722205 37.528644 126.18259 37.305128 125.620009 37.305128 
C 125.057429 37.305128 124.517814 37.528644 124.120009 37.926448 
C 123.722205 38.324253 123.498689 38.863868 123.498689 39.426448 
C 123.498689 39.989029 123.722205 40.528644 124.120009 40.926448 
C 124.517814 41.324253 125.057429 41.547769 125.620009 41.547769 
z
" clip-path="url(#p7bf478719b)" style="fill: #0000ff; stroke: #ffffff; stroke-width: 0.339411"/>
   </g>
   <g id="matplotlib.axis_1">
    <g id="xtick_1">
     <g id="line2d_1">
      <defs>
       <path id="me4bcec6cb0" d="M 0 0 
L 0 3.5 
" style="stroke: #000000; stroke-width: 0.8"/>
      </defs>
      <g>
       <use xlink:href="#me4bcec6cb0" x="78.585315" y="141.64" style="stroke: #000000; stroke-width: 0.8"/>
      </g>
     </g>
     <g id="text_1">
      <!-- 1960 -->
      <g transform="translate(69.677815 153.958906) scale(0.07 -0.07)">
       <defs>
        <path id="DejaVuSans-31" d="M 794 531 
L 1825 531 
L 1825 4091 
L 703 3866 
L 703 4441 
L 1819 4666 
L 2450 4666 
L 2450 531 
L 3481 531 
L 3481 0 
L 794 0 
L 794 531 
z
" transform="scale(0.015625)"/>
        <path id="DejaVuSans-39" d="M 703 97 
L 703 672 
Q 941 559 1184 500 
Q 1428 441 1663 441 
Q 2288 441 2617 861 
Q 2947 1281 2994 2138 
Q 2813 1869 2534 1725 
Q 2256 1581 1919 1581 
Q 1219 1581 811 2004 
Q 403 2428 403 3163 
Q 403 3881 828 4315 
Q 1253 4750 1959 4750 
Q 2769 4750 3195 4129 
Q 3622 3509 3622 2328 
Q 3622 1225 3098 567 
Q 2575 -91 1691 -91 
Q 1453 -91 1209 -44 
Q 966 3 703 97 
z
M 1959 2075 
Q 2384 2075 2632 2365 
Q 2881 2656 2881 3163 
Q 2881 3666 2632 3958 
Q 2384 4250 1959 4250 
Q 1534 4250 1286 3958 
Q 1038 3666 1038 3163 
Q 1038 2656 1286 2365 
Q 1534 2075 1959 2075 
z
" transform="scale(0.015625)"/>
        <path id="DejaVuSans-36" d="M 2113 2584 
Q 1688 2584 1439 2293 
Q 1191 2003 1191 1497 
Q 1191 994 1439 701 
Q 1688 409 2113 409 
Q 2538 409 2786 701 
Q 3034 994 3034 1497 
Q 3034 2003 2786 2293 
Q 2538 2584 2113 2584 
z
M 3366 4563 
L 3366 3988 
Q 3128 4100 2886 4159 
Q 2644 4219 2406 4219 
Q 1781 4219 1451 3797 
Q 1122 3375 1075 2522 
Q 1259 2794 1537 2939 
Q 1816 3084 2150 3084 
Q 2853 3084 3261 2657 
Q 3669 2231 3669 1497 
Q 3669 778 3244 343 
Q 2819 -91 2113 -91 
Q 1303 -91 875 529 
Q 447 1150 447 2328 
Q 447 3434 972 4092 
Q 1497 4750 2381 4750 
Q 2619 4750 2861 4703 
Q 3103 4656 3366 4563 
z
" transform="scale(0.015625)"/>
        <path id="DejaVuSans-30" d="M 2034 4250 
Q 1547 4250 1301 3770 
Q 1056 3291 1056 2328 
Q 1056 1369 1301 889 
Q 1547 409 2034 409 
Q 2525 409 2770 889 
Q 3016 1369 3016 2328 
Q 3016 3291 2770 3770 
Q 2525 4250 2034 4250 
z
M 2034 4750 
Q 2819 4750 3233 4129 
Q 3647 3509 3647 2328 
Q 3647 1150 3233 529 
Q 2819 -91 2034 -91 
Q 1250 -91 836 529 
Q 422 1150 422 2328 
Q 422 3509 836 4129 
Q 1250 4750 2034 4750 
z
" transform="scale(0.015625)"/>
       </defs>
       <use xlink:href="#DejaVuSans-31"/>
       <use xlink:href="#DejaVuSans-39" transform="translate(63.623047 0)"/>
       <use xlink:href="#DejaVuSans-36" transform="translate(127.246094 0)"/>
       <use xlink:href="#DejaVuSans-30" transform="translate(190.869141 0)"/>
      </g>
     </g>
    </g>
    <g id="xtick_2">
     <g id="line2d_2">
      <g>
       <use xlink:href="#me4bcec6cb0" x="121.344128" y="141.64" style="stroke: #000000; stroke-width: 0.8"/>
      </g>
     </g>
     <g id="text_2">
      <!-- 1970 -->
      <g transform="translate(112.436628 153.958906) scale(0.07 -0.07)">
       <defs>
        <path id="DejaVuSans-37" d="M 525 4666 
L 3525 4666 
L 3525 4397 
L 1831 0 
L 1172 0 
L 2766 4134 
L 525 4134 
L 525 4666 
z
" transform="scale(0.015625)"/>
       </defs>
       <use xlink:href="#DejaVuSans-31"/>
       <use xlink:href="#DejaVuSans-39" transform="translate(63.623047 0)"/>
       <use xlink:href="#DejaVuSans-37" transform="translate(127.246094 0)"/>
       <use xlink:href="#DejaVuSans-30" transform="translate(190.869141 0)"/>
      </g>
     </g>
    </g>
    <g id="xtick_3">
     <g id="line2d_3">
      <g>
       <use xlink:href="#me4bcec6cb0" x="164.102941" y="141.64" style="stroke: #000000; stroke-width: 0.8"/>
      </g>
     </g>
     <g id="text_3">
      <!-- 1980 -->
      <g transform="translate(155.195441 153.958906) scale(0.07 -0.07)">
       <defs>
        <path id="DejaVuSans-38" d="M 2034 2216 
Q 1584 2216 1326 1975 
Q 1069 1734 1069 1313 
Q 1069 891 1326 650 
Q 1584 409 2034 409 
Q 2484 409 2743 651 
Q 3003 894 3003 1313 
Q 3003 1734 2745 1975 
Q 2488 2216 2034 2216 
z
M 1403 2484 
Q 997 2584 770 2862 
Q 544 3141 544 3541 
Q 544 4100 942 4425 
Q 1341 4750 2034 4750 
Q 2731 4750 3128 4425 
Q 3525 4100 3525 3541 
Q 3525 3141 3298 2862 
Q 3072 2584 2669 2484 
Q 3125 2378 3379 2068 
Q 3634 1759 3634 1313 
Q 3634 634 3220 271 
Q 2806 -91 2034 -91 
Q 1263 -91 848 271 
Q 434 634 434 1313 
Q 434 1759 690 2068 
Q 947 2378 1403 2484 
z
M 1172 3481 
Q 1172 3119 1398 2916 
Q 1625 2713 2034 2713 
Q 2441 2713 2670 2916 
Q 2900 3119 2900 3481 
Q 2900 3844 2670 4047 
Q 2441 4250 2034 4250 
Q 1625 4250 1398 4047 
Q 1172 3844 1172 3481 
z
" transform="scale(0.015625)"/>
       </defs>
       <use xlink:href="#DejaVuSans-31"/>
       <use xlink:href="#DejaVuSans-39" transform="translate(63.623047 0)"/>
       <use xlink:href="#DejaVuSans-38" transform="translate(127.246094 0)"/>
       <use xlink:href="#DejaVuSans-30" transform="translate(190.869141 0)"/>
      </g>
     </g>
    </g>
    <g id="xtick_4">
     <g id="line2d_4">
      <g>
       <use xlink:href="#me4bcec6cb0" x="206.861753" y="141.64" style="stroke: #000000; stroke-width: 0.8"/>
      </g>
     </g>
     <g id="text_4">
      <!-- 1990 -->
      <g transform="translate(197.954253 153.958906) scale(0.07 -0.07)">
       <use xlink:href="#DejaVuSans-31"/>
       <use xlink:href="#DejaVuSans-39" transform="translate(63.623047 0)"/>
       <use xlink:href="#DejaVuSans-39" transform="translate(127.246094 0)"/>
       <use xlink:href="#DejaVuSans-30" transform="translate(190.869141 0)"/>
      </g>
     </g>
    </g>
    <g id="xtick_5">
     <g id="line2d_5">
      <g>
       <use xlink:href="#me4bcec6cb0" x="249.620566" y="141.64" style="stroke: #000000; stroke-width: 0.8"/>
      </g>
     </g>
     <g id="text_5">
      <!-- 2000 -->
      <g transform="translate(240.713066 153.958906) scale(0.07 -0.07)">
       <defs>
        <path id="DejaVuSans-32" d="M 1228 531 
L 3431 531 
L 3431 0 
L 469 0 
L 469 531 
Q 828 903 1448 1529 
Q 2069 2156 2228 2338 
Q 2531 2678 2651 2914 
Q 2772 3150 2772 3378 
Q 2772 3750 2511 3984 
Q 2250 4219 1831 4219 
Q 1534 4219 1204 4116 
Q 875 4013 500 3803 
L 500 4441 
Q 881 4594 1212 4672 
Q 1544 4750 1819 4750 
Q 2544 4750 2975 4387 
Q 3406 4025 3406 3419 
Q 3406 3131 3298 2873 
Q 3191 2616 2906 2266 
Q 2828 2175 2409 1742 
Q 1991 1309 1228 531 
z
" transform="scale(0.015625)"/>
       </defs>
       <use xlink:href="#DejaVuSans-32"/>
       <use xlink:href="#DejaVuSans-30" transform="translate(63.623047 0)"/>
       <use xlink:href="#DejaVuSans-30" transform="translate(127.246094 0)"/>
       <use xlink:href="#DejaVuSans-30" transform="translate(190.869141 0)"/>
      </g>
     </g>
    </g>
    <g id="text_6">
     <!-- Collection year -->
     <g transform="translate(128.236094 166.253281) scale(0.09 -0.09)">
      <defs>
       <path id="DejaVuSans-43" d="M 4122 4306 
L 4122 3641 
Q 3803 3938 3442 4084 
Q 3081 4231 2675 4231 
Q 1875 4231 1450 3742 
Q 1025 3253 1025 2328 
Q 1025 1406 1450 917 
Q 1875 428 2675 428 
Q 3081 428 3442 575 
Q 3803 722 4122 1019 
L 4122 359 
Q 3791 134 3420 21 
Q 3050 -91 2638 -91 
Q 1578 -91 968 557 
Q 359 1206 359 2328 
Q 359 3453 968 4101 
Q 1578 4750 2638 4750 
Q 3056 4750 3426 4639 
Q 3797 4528 4122 4306 
z
" transform="scale(0.015625)"/>
       <path id="DejaVuSans-6f" d="M 1959 3097 
Q 1497 3097 1228 2736 
Q 959 2375 959 1747 
Q 959 1119 1226 758 
Q 1494 397 1959 397 
Q 2419 397 2687 759 
Q 2956 1122 2956 1747 
Q 2956 2369 2687 2733 
Q 2419 3097 1959 3097 
z
M 1959 3584 
Q 2709 3584 3137 3096 
Q 3566 2609 3566 1747 
Q 3566 888 3137 398 
Q 2709 -91 1959 -91 
Q 1206 -91 779 398 
Q 353 888 353 1747 
Q 353 2609 779 3096 
Q 1206 3584 1959 3584 
z
" transform="scale(0.015625)"/>
       <path id="DejaVuSans-6c" d="M 603 4863 
L 1178 4863 
L 1178 0 
L 603 0 
L 603 4863 
z
" transform="scale(0.015625)"/>
       <path id="DejaVuSans-65" d="M 3597 1894 
L 3597 1613 
L 953 1613 
Q 991 1019 1311 708 
Q 1631 397 2203 397 
Q 2534 397 2845 478 
Q 3156 559 3463 722 
L 3463 178 
Q 3153 47 2828 -22 
Q 2503 -91 2169 -91 
Q 1331 -91 842 396 
Q 353 884 353 1716 
Q 353 2575 817 3079 
Q 1281 3584 2069 3584 
Q 2775 3584 3186 3129 
Q 3597 2675 3597 1894 
z
M 3022 2063 
Q 3016 2534 2758 2815 
Q 2500 3097 2075 3097 
Q 1594 3097 1305 2825 
Q 1016 2553 972 2059 
L 3022 2063 
z
" transform="scale(0.015625)"/>
       <path id="DejaVuSans-63" d="M 3122 3366 
L 3122 2828 
Q 2878 2963 2633 3030 
Q 2388 3097 2138 3097 
Q 1578 3097 1268 2742 
Q 959 2388 959 1747 
Q 959 1106 1268 751 
Q 1578 397 2138 397 
Q 2388 397 2633 464 
Q 2878 531 3122 666 
L 3122 134 
Q 2881 22 2623 -34 
Q 2366 -91 2075 -91 
Q 1284 -91 818 406 
Q 353 903 353 1747 
Q 353 2603 823 3093 
Q 1294 3584 2113 3584 
Q 2378 3584 2631 3529 
Q 2884 3475 3122 3366 
z
" transform="scale(0.015625)"/>
       <path id="DejaVuSans-74" d="M 1172 4494 
L 1172 3500 
L 2356 3500 
L 2356 3053 
L 1172 3053 
L 1172 1153 
Q 1172 725 1289 603 
Q 1406 481 1766 481 
L 2356 481 
L 2356 0 
L 1766 0 
Q 1100 0 847 248 
Q 594 497 594 1153 
L 594 3053 
L 172 3053 
L 172 3500 
L 594 3500 
L 594 4494 
L 1172 4494 
z
" transform="scale(0.015625)"/>
       <path id="DejaVuSans-69" d="M 603 3500 
L 1178 3500 
L 1178 0 
L 603 0 
L 603 3500 
z
M 603 4863 
L 1178 4863 
L 1178 4134 
L 603 4134 
L 603 4863 
z
" transform="scale(0.015625)"/>
       <path id="DejaVuSans-6e" d="M 3513 2113 
L 3513 0 
L 2938 0 
L 2938 2094 
Q 2938 2591 2744 2837 
Q 2550 3084 2163 3084 
Q 1697 3084 1428 2787 
Q 1159 2491 1159 1978 
L 1159 0 
L 581 0 
L 581 3500 
L 1159 3500 
L 1159 2956 
Q 1366 3272 1645 3428 
Q 1925 3584 2291 3584 
Q 2894 3584 3203 3211 
Q 3513 2838 3513 2113 
z
" transform="scale(0.015625)"/>
       <path id="DejaVuSans-20" transform="scale(0.015625)"/>
       <path id="DejaVuSans-79" d="M 2059 -325 
Q 1816 -950 1584 -1140 
Q 1353 -1331 966 -1331 
L 506 -1331 
L 506 -850 
L 844 -850 
Q 1081 -850 1212 -737 
Q 1344 -625 1503 -206 
L 1606 56 
L 191 3500 
L 800 3500 
L 1894 763 
L 2988 3500 
L 3597 3500 
L 2059 -325 
z
" transform="scale(0.015625)"/>
       <path id="DejaVuSans-61" d="M 2194 1759 
Q 1497 1759 1228 1600 
Q 959 1441 959 1056 
Q 959 750 1161 570 
Q 1363 391 1709 391 
Q 2188 391 2477 730 
Q 2766 1069 2766 1631 
L 2766 1759 
L 2194 1759 
z
M 3341 1997 
L 3341 0 
L 2766 0 
L 2766 531 
Q 2569 213 2275 61 
Q 1981 -91 1556 -91 
Q 1019 -91 701 211 
Q 384 513 384 1019 
Q 384 1609 779 1909 
Q 1175 2209 1959 2209 
L 2766 2209 
L 2766 2266 
Q 2766 2663 2505 2880 
Q 2244 3097 1772 3097 
Q 1472 3097 1187 3025 
Q 903 2953 641 2809 
L 641 3341 
Q 956 3463 1253 3523 
Q 1550 3584 1831 3584 
Q 2591 3584 2966 3190 
Q 3341 2797 3341 1997 
z
" transform="scale(0.015625)"/>
       <path id="DejaVuSans-72" d="M 2631 2963 
Q 2534 3019 2420 3045 
Q 2306 3072 2169 3072 
Q 1681 3072 1420 2755 
Q 1159 2438 1159 1844 
L 1159 0 
L 581 0 
L 581 3500 
L 1159 3500 
L 1159 2956 
Q 1341 3275 1631 3429 
Q 1922 3584 2338 3584 
Q 2397 3584 2469 3576 
Q 2541 3569 2628 3553 
L 2631 2963 
z
" transform="scale(0.015625)"/>
      </defs>
      <use xlink:href="#DejaVuSans-43"/>
      <use xlink:href="#DejaVuSans-6f" transform="translate(69.824219 0)"/>
      <use xlink:href="#DejaVuSans-6c" transform="translate(131.005859 0)"/>
      <use xlink:href="#DejaVuSans-6c" transform="translate(158.789062 0)"/>
      <use xlink:href="#DejaVuSans-65" transform="translate(186.572266 0)"/>
      <use xlink:href="#DejaVuSans-63" transform="translate(248.095703 0)"/>
      <use xlink:href="#DejaVuSans-74" transform="translate(303.076172 0)"/>
      <use xlink:href="#DejaVuSans-69" transform="translate(342.285156 0)"/>
      <use xlink:href="#DejaVuSans-6f" transform="translate(370.068359 0)"/>
      <use xlink:href="#DejaVuSans-6e" transform="translate(431.25 0)"/>
      <use xlink:href="#DejaVuSans-20" transform="translate(494.628906 0)"/>
      <use xlink:href="#DejaVuSans-79" transform="translate(526.416016 0)"/>
      <use xlink:href="#DejaVuSans-65" transform="translate(585.595703 0)"/>
      <use xlink:href="#DejaVuSans-61" transform="translate(647.119141 0)"/>
      <use xlink:href="#DejaVuSans-72" transform="translate(708.398438 0)"/>
     </g>
    </g>
   </g>
   <g id="matplotlib.axis_2">
    <g id="ytick_1">
     <g id="line2d_6">
      <defs>
       <path id="m8d9ded0119" d="M 0 0 
L -3.5 0 
" style="stroke: #000000; stroke-width: 0.8"/>
      </defs>
      <g>
       <use xlink:href="#m8d9ded0119" x="46.73" y="136.652727" style="stroke: #000000; stroke-width: 0.8"/>
      </g>
     </g>
     <g id="text_7">
      <!-- 0.00 -->
      <g transform="translate(24.144062 139.31218) scale(0.07 -0.07)">
       <defs>
        <path id="DejaVuSans-2e" d="M 684 794 
L 1344 794 
L 1344 0 
L 684 0 
L 684 794 
z
" transform="scale(0.015625)"/>
       </defs>
       <use xlink:href="#DejaVuSans-30"/>
       <use xlink:href="#DejaVuSans-2e" transform="translate(63.623047 0)"/>
       <use xlink:href="#DejaVuSans-30" transform="translate(95.410156 0)"/>
       <use xlink:href="#DejaVuSans-30" transform="translate(159.033203 0)"/>
      </g>
     </g>
    </g>
    <g id="ytick_2">
     <g id="line2d_7">
      <g>
       <use xlink:href="#m8d9ded0119" x="46.73" y="115.953702" style="stroke: #000000; stroke-width: 0.8"/>
      </g>
     </g>
     <g id="text_8">
      <!-- 0.05 -->
      <g transform="translate(24.144062 118.613155) scale(0.07 -0.07)">
       <defs>
        <path id="DejaVuSans-35" d="M 691 4666 
L 3169 4666 
L 3169 4134 
L 1269 4134 
L 1269 2991 
Q 1406 3038 1543 3061 
Q 1681 3084 1819 3084 
Q 2600 3084 3056 2656 
Q 3513 2228 3513 1497 
Q 3513 744 3044 326 
Q 2575 -91 1722 -91 
Q 1428 -91 1123 -41 
Q 819 9 494 109 
L 494 744 
Q 775 591 1075 516 
Q 1375 441 1709 441 
Q 2250 441 2565 725 
Q 2881 1009 2881 1497 
Q 2881 1984 2565 2268 
Q 2250 2553 1709 2553 
Q 1456 2553 1204 2497 
Q 953 2441 691 2322 
L 691 4666 
z
" transform="scale(0.015625)"/>
       </defs>
       <use xlink:href="#DejaVuSans-30"/>
       <use xlink:href="#DejaVuSans-2e" transform="translate(63.623047 0)"/>
       <use xlink:href="#DejaVuSans-30" transform="translate(95.410156 0)"/>
       <use xlink:href="#DejaVuSans-35" transform="translate(159.033203 0)"/>
      </g>
     </g>
    </g>
    <g id="ytick_3">
     <g id="line2d_8">
      <g>
       <use xlink:href="#m8d9ded0119" x="46.73" y="95.254677" style="stroke: #000000; stroke-width: 0.8"/>
      </g>
     </g>
     <g id="text_9">
      <!-- 0.10 -->
      <g transform="translate(24.144062 97.91413) scale(0.07 -0.07)">
       <use xlink:href="#DejaVuSans-30"/>
       <use xlink:href="#DejaVuSans-2e" transform="translate(63.623047 0)"/>
       <use xlink:href="#DejaVuSans-31" transform="translate(95.410156 0)"/>
       <use xlink:href="#DejaVuSans-30" transform="translate(159.033203 0)"/>
      </g>
     </g>
    </g>
    <g id="ytick_4">
     <g id="line2d_9">
      <g>
       <use xlink:href="#m8d9ded0119" x="46.73" y="74.555652" style="stroke: #000000; stroke-width: 0.8"/>
      </g>
     </g>
     <g id="text_10">
      <!-- 0.15 -->
      <g transform="translate(24.144062 77.215105) scale(0.07 -0.07)">
       <use xlink:href="#DejaVuSans-30"/>
       <use xlink:href="#DejaVuSans-2e" transform="translate(63.623047 0)"/>
       <use xlink:href="#DejaVuSans-31" transform="translate(95.410156 0)"/>
       <use xlink:href="#DejaVuSans-35" transform="translate(159.033203 0)"/>
      </g>
     </g>
    </g>
    <g id="ytick_5">
     <g id="line2d_10">
      <g>
       <use xlink:href="#m8d9ded0119" x="46.73" y="53.856626" style="stroke: #000000; stroke-width: 0.8"/>
      </g>
     </g>
     <g id="text_11">
      <!-- 0.20 -->
      <g transform="translate(24.144062 56.516079) scale(0.07 -0.07)">
       <use xlink:href="#DejaVuSans-30"/>
       <use xlink:href="#DejaVuSans-2e" transform="translate(63.623047 0)"/>
       <use xlink:href="#DejaVuSans-32" transform="translate(95.410156 0)"/>
       <use xlink:href="#DejaVuSans-30" transform="translate(159.033203 0)"/>
      </g>
     </g>
    </g>
    <g id="ytick_6">
     <g id="line2d_11">
      <g>
       <use xlink:href="#m8d9ded0119" x="46.73" y="33.157601" style="stroke: #000000; stroke-width: 0.8"/>
      </g>
     </g>
     <g id="text_12">
      <!-- 0.25 -->
      <g transform="translate(24.144062 35.817054) scale(0.07 -0.07)">
       <use xlink:href="#DejaVuSans-30"/>
       <use xlink:href="#DejaVuSans-2e" transform="translate(63.623047 0)"/>
       <use xlink:href="#DejaVuSans-32" transform="translate(95.410156 0)"/>
       <use xlink:href="#DejaVuSans-35" transform="translate(159.033203 0)"/>
      </g>
     </g>
    </g>
    <g id="text_13">
     <!-- Root-to-tip distance -->
     <g transform="translate(18.272344 131.193594) rotate(-90) scale(0.09 -0.09)">
      <defs>
       <path id="DejaVuSans-52" d="M 2841 2188 
Q 3044 2119 3236 1894 
Q 3428 1669 3622 1275 
L 4263 0 
L 3584 0 
L 2988 1197 
Q 2756 1666 2539 1819 
Q 2322 1972 1947 1972 
L 1259 1972 
L 1259 0 
L 628 0 
L 628 4666 
L 2053 4666 
Q 2853 4666 3247 4331 
Q 3641 3997 3641 3322 
Q 3641 2881 3436 2590 
Q 3231 2300 2841 2188 
z
M 1259 4147 
L 1259 2491 
L 2053 2491 
Q 2509 2491 2742 2702 
Q 2975 2913 2975 3322 
Q 2975 3731 2742 3939 
Q 2509 4147 2053 4147 
L 1259 4147 
z
" transform="scale(0.015625)"/>
       <path id="DejaVuSans-2d" d="M 313 2009 
L 1997 2009 
L 1997 1497 
L 313 1497 
L 313 2009 
z
" transform="scale(0.015625)"/>
       <path id="DejaVuSans-70" d="M 1159 525 
L 1159 -1331 
L 581 -1331 
L 581 3500 
L 1159 3500 
L 1159 2969 
Q 1341 3281 1617 3432 
Q 1894 3584 2278 3584 
Q 2916 3584 3314 3078 
Q 3713 2572 3713 1747 
Q 3713 922 3314 415 
Q 2916 -91 2278 -91 
Q 1894 -91 1617 61 
Q 1341 213 1159 525 
z
M 3116 1747 
Q 3116 2381 2855 2742 
Q 2594 3103 2138 3103 
Q 1681 3103 1420 2742 
Q 1159 2381 1159 1747 
Q 1159 1113 1420 752 
Q 1681 391 2138 391 
Q 2594 391 2855 752 
Q 3116 1113 3116 1747 
z
" transform="scale(0.015625)"/>
       <path id="DejaVuSans-64" d="M 2906 2969 
L 2906 4863 
L 3481 4863 
L 3481 0 
L 2906 0 
L 2906 525 
Q 2725 213 2448 61 
Q 2172 -91 1784 -91 
Q 1150 -91 751 415 
Q 353 922 353 1747 
Q 353 2572 751 3078 
Q 1150 3584 1784 3584 
Q 2172 3584 2448 3432 
Q 2725 3281 2906 2969 
z
M 947 1747 
Q 947 1113 1208 752 
Q 1469 391 1925 391 
Q 2381 391 2643 752 
Q 2906 1113 2906 1747 
Q 2906 2381 2643 2742 
Q 2381 3103 1925 3103 
Q 1469 3103 1208 2742 
Q 947 2381 947 1747 
z
" transform="scale(0.015625)"/>
       <path id="DejaVuSans-73" d="M 2834 3397 
L 2834 2853 
Q 2591 2978 2328 3040 
Q 2066 3103 1784 3103 
Q 1356 3103 1142 2972 
Q 928 2841 928 2578 
Q 928 2378 1081 2264 
Q 1234 2150 1697 2047 
L 1894 2003 
Q 2506 1872 2764 1633 
Q 3022 1394 3022 966 
Q 3022 478 2636 193 
Q 2250 -91 1575 -91 
Q 1294 -91 989 -36 
Q 684 19 347 128 
L 347 722 
Q 666 556 975 473 
Q 1284 391 1588 391 
Q 1994 391 2212 530 
Q 2431 669 2431 922 
Q 2431 1156 2273 1281 
Q 2116 1406 1581 1522 
L 1381 1569 
Q 847 1681 609 1914 
Q 372 2147 372 2553 
Q 372 3047 722 3315 
Q 1072 3584 1716 3584 
Q 2034 3584 2315 3537 
Q 2597 3491 2834 3397 
z
" transform="scale(0.015625)"/>
      </defs>
      <use xlink:href="#DejaVuSans-52"/>
      <use xlink:href="#DejaVuSans-6f" transform="translate(64.982422 0)"/>
      <use xlink:href="#DejaVuSans-6f" transform="translate(126.164062 0)"/>
      <use xlink:href="#DejaVuSans-74" transform="translate(187.345703 0)"/>
      <use xlink:href="#DejaVuSans-2d" transform="translate(226.554688 0)"/>
      <use xlink:href="#DejaVuSans-74" transform="translate(262.638672 0)"/>
      <use xlink:href="#DejaVuSans-6f" transform="translate(301.847656 0)"/>
      <use xlink:href="#DejaVuSans-2d" transform="translate(364.904297 0)"/>
      <use xlink:href="#DejaVuSans-74" transform="translate(400.988281 0)"/>
      <use xlink:href="#DejaVuSans-69" transform="translate(440.197266 0)"/>
      <use xlink:href="#DejaVuSans-70" transform="translate(467.980469 0)"/>
      <use xlink:href="#DejaVuSans-20" transform="translate(531.457031 0)"/>
      <use xlink:href="#DejaVuSans-64" transform="translate(563.244141 0)"/>
      <use xlink:href="#DejaVuSans-69" transform="translate(626.720703 0)"/>
      <use xlink:href="#DejaVuSans-73" transform="translate(654.503906 0)"/>
      <use xlink:href="#DejaVuSans-74" transform="translate(706.603516 0)"/>
      <use xlink:href="#DejaVuSans-61" transform="translate(745.8125 0)"/>
      <use xlink:href="#DejaVuSans-6e" transform="translate(807.091797 0)"/>
      <use xlink:href="#DejaVuSans-63" transform="translate(870.470703 0)"/>
      <use xlink:href="#DejaVuSans-65" transform="translate(925.451172 0)"/>
     </g>
    </g>
   </g>
   <g id="line2d_12"/>
   <g id="line2d_13">
    <path d="M 57.205909 95.730348 
L 59.322254 95.324326 
L 61.4386 94.918303 
L 63.554945 94.512281 
L 65.67129 94.106258 
L 67.787635 93.700236 
L 69.903981 93.294213 
L 72.020326 92.888191 
L 74.136671 92.482168 
L 76.253017 92.076146 
L 78.369362 91.670123 
L 80.485707 91.264101 
L 82.602052 90.858078 
L 84.718398 90.452056 
L 86.834743 90.046033 
L 88.951088 89.640011 
L 91.067433 89.233988 
L 93.183779 88.827966 
L 95.300124 88.421943 
L 97.416469 88.01592 
L 99.532815 87.609898 
L 101.64916 87.203875 
L 103.765505 86.797853 
L 105.88185 86.39183 
L 107.998196 85.985808 
L 110.114541 85.579785 
L 112.230886 85.173763 
L 114.347231 84.76774 
L 116.463577 84.361718 
L 118.579922 83.955695 
L 120.696267 83.549673 
L 122.812612 83.14365 
L 124.928958 82.737628 
L 127.045303 82.331605 
L 129.161648 81.925583 
L 131.277994 81.51956 
L 133.394339 81.113537 
L 135.510684 80.707515 
L 137.627029 80.301492 
L 139.743375 79.89547 
L 141.85972 79.489447 
L 143.976065 79.083425 
L 146.09241 78.677402 
L 148.208756 78.27138 
L 150.325101 77.865357 
L 152.441446 77.459335 
L 154.557792 77.053312 
L 156.674137 76.64729 
L 158.790482 76.241267 
L 160.906827 75.835245 
L 163.023173 75.429222 
L 165.139518 75.0232 
L 167.255863 74.617177 
L 169.372208 74.211155 
L 171.488554 73.805132 
L 173.604899 73.399109 
L 175.721244 72.993087 
L 177.83759 72.587064 
L 179.953935 72.181042 
L 182.07028 71.775019 
L 184.186625 71.368997 
L 186.302971 70.962974 
L 188.419316 70.556952 
L 190.535661 70.150929 
L 192.652006 69.744907 
L 194.768352 69.338884 
L 196.884697 68.932862 
L 199.001042 68.526839 
L 201.117388 68.120817 
L 203.233733 67.714794 
L 205.350078 67.308772 
L 207.466423 66.902749 
L 209.582769 66.496726 
L 211.699114 66.090704 
L 213.815459 65.684681 
L 215.931804 65.278659 
L 218.04815 64.872636 
L 220.164495 64.466614 
L 222.28084 64.060591 
L 224.397185 63.654569 
L 226.513531 63.248546 
L 228.629876 62.842524 
L 230.746221 62.436501 
L 232.862567 62.030479 
L 234.978912 61.624456 
L 237.095257 61.218434 
L 239.211602 60.812411 
L 241.327948 60.406389 
L 243.444293 60.000366 
L 245.560638 59.594344 
L 247.676983 59.188321 
L 249.793329 58.782298 
L 251.909674 58.376276 
L 254.026019 57.970253 
L 256.142365 57.564231 
L 258.25871 57.158208 
L 260.375055 56.752186 
L 262.4914 56.346163 
L 264.607746 55.940141 
L 266.724091 55.534118 
" clip-path="url(#p7bf478719b)" style="fill: none; stroke: #ff0000; stroke-linecap: square"/>
   </g>
   <g id="patch_3">
    <path d="M 46.73 141.64 
L 46.73 31.92 
" style="fill: none; stroke: #000000; stroke-width: 0.8; stroke-linejoin: miter; stroke-linecap: square"/>
   </g>
   <g id="patch_4">
    <path d="M 277.2 141.64 
L 277.2 31.92 
" style="fill: none; stroke: #000000; stroke-width: 0.8; stroke-linejoin: miter; stroke-linecap: square"/>
   </g>
   <g id="patch_5">
    <path d="M 46.73 141.64 
L 277.2 141.64 
" style="fill: none; stroke: #000000; stroke-width: 0.8; stroke-linejoin: miter; stroke-linecap: square"/>
   </g>
   <g id="patch_6">
    <path d="M 46.73 31.92 
L 277.2 31.92 
" style="fill: none; stroke: #000000; stroke-width: 0.8; stroke-linejoin: miter; stroke-linecap: square"/>
   </g>
   <g id="text_14">
    <!-- C_976-2742_no_probang -->
    <g transform="translate(99.915 25.92) scale(0.1 -0.1)">
     <defs>
      <path id="DejaVuSans-5f" d="M 3263 -1063 
L 3263 -1509 
L -63 -1509 
L -63 -1063 
L 3263 -1063 
z
" transform="scale(0.015625)"/>
      <path id="DejaVuSans-34" d="M 2419 4116 
L 825 1625 
L 2419 1625 
L 2419 4116 
z
M 2253 4666 
L 3047 4666 
L 3047 1625 
L 3713 1625 
L 3713 1100 
L 3047 1100 
L 3047 0 
L 2419 0 
L 2419 1100 
L 313 1100 
L 313 1709 
L 2253 4666 
z
" transform="scale(0.015625)"/>
      <path id="DejaVuSans-62" d="M 3116 1747 
Q 3116 2381 2855 2742 
Q 2594 3103 2138 3103 
Q 1681 3103 1420 2742 
Q 1159 2381 1159 1747 
Q 1159 1113 1420 752 
Q 1681 391 2138 391 
Q 2594 391 2855 752 
Q 3116 1113 3116 1747 
z
M 1159 2969 
Q 1341 3281 1617 3432 
Q 1894 3584 2278 3584 
Q 2916 3584 3314 3078 
Q 3713 2572 3713 1747 
Q 3713 922 3314 415 
Q 2916 -91 2278 -91 
Q 1894 -91 1617 61 
Q 1341 213 1159 525 
L 1159 0 
L 581 0 
L 581 4863 
L 1159 4863 
L 1159 2969 
z
" transform="scale(0.015625)"/>
      <path id="DejaVuSans-67" d="M 2906 1791 
Q 2906 2416 2648 2759 
Q 2391 3103 1925 3103 
Q 1463 3103 1205 2759 
Q 947 2416 947 1791 
Q 947 1169 1205 825 
Q 1463 481 1925 481 
Q 2391 481 2648 825 
Q 2906 1169 2906 1791 
z
M 3481 434 
Q 3481 -459 3084 -895 
Q 2688 -1331 1869 -1331 
Q 1566 -1331 1297 -1286 
Q 1028 -1241 775 -1147 
L 775 -588 
Q 1028 -725 1275 -790 
Q 1522 -856 1778 -856 
Q 2344 -856 2625 -561 
Q 2906 -266 2906 331 
L 2906 616 
Q 2728 306 2450 153 
Q 2172 0 1784 0 
Q 1141 0 747 490 
Q 353 981 353 1791 
Q 353 2603 747 3093 
Q 1141 3584 1784 3584 
Q 2172 3584 2450 3431 
Q 2728 3278 2906 2969 
L 2906 3500 
L 3481 3500 
L 3481 434 
z
" transform="scale(0.015625)"/>
     </defs>
     <use xlink:href="#DejaVuSans-43"/>
     <use xlink:href="#DejaVuSans-5f" transform="translate(69.824219 0)"/>
     <use xlink:href="#DejaVuSans-39" transform="translate(119.824219 0)"/>
     <use xlink:href="#DejaVuSans-37" transform="translate(183.447266 0)"/>
     <use xlink:href="#DejaVuSans-36" transform="translate(247.070312 0)"/>
     <use xlink:href="#DejaVuSans-2d" transform="translate(310.693359 0)"/>
     <use xlink:href="#DejaVuSans-32" transform="translate(346.777344 0)"/>
     <use xlink:href="#DejaVuSans-37" transform="translate(410.400391 0)"/>
     <use xlink:href="#DejaVuSans-34" transform="translate(474.023438 0)"/>
     <use xlink:href="#DejaVuSans-32" transform="translate(537.646484 0)"/>
     <use xlink:href="#DejaVuSans-5f" transform="translate(601.269531 0)"/>
     <use xlink:href="#DejaVuSans-6e" transform="translate(651.269531 0)"/>
     <use xlink:href="#DejaVuSans-6f" transform="translate(714.648438 0)"/>
     <use xlink:href="#DejaVuSans-5f" transform="translate(775.830078 0)"/>
     <use xlink:href="#DejaVuSans-70" transform="translate(825.830078 0)"/>
     <use xlink:href="#DejaVuSans-72" transform="translate(889.306641 0)"/>
     <use xlink:href="#DejaVuSans-6f" transform="translate(928.169922 0)"/>
     <use xlink:href="#DejaVuSans-62" transform="translate(989.351562 0)"/>
     <use xlink:href="#DejaVuSans-61" transform="translate(1052.828125 0)"/>
     <use xlink:href="#DejaVuSans-6e" transform="translate(1114.107422 0)"/>
     <use xlink:href="#DejaVuSans-67" transform="translate(1177.486328 0)"/>
    </g>
   </g>
   <g id="legend_1">
    <g id="patch_7">
     <path d="M 191.411719 138.14 
L 272.3 138.14 
Q 273.7 138.14 273.7 136.74 
L 273.7 72.296031 
Q 273.7 70.896031 272.3 70.896031 
L 191.411719 70.896031 
Q 190.011719 70.896031 190.011719 72.296031 
L 190.011719 136.74 
Q 190.011719 138.14 191.411719 138.14 
z
" style="fill: #ffffff; opacity: 0.8; stroke: #cccccc; stroke-linejoin: miter"/>
    </g>
    <g id="PathCollection_2">
     <defs>
      <path id="mc162686520" d="M 0 2.12132 
C 0.562581 2.12132 1.102195 1.897805 1.5 1.5 
C 1.897805 1.102195 2.12132 0.562581 2.12132 0 
C 2.12132 -0.562581 1.897805 -1.102195 1.5 -1.5 
C 1.102195 -1.897805 0.562581 -2.12132 0 -2.12132 
C -0.562581 -2.12132 -1.102195 -1.897805 -1.5 -1.5 
C -1.897805 -1.102195 -2.12132 -0.562581 -2.12132 0 
C -2.12132 0.562581 -1.897805 1.102195 -1.5 1.5 
C -1.102195 1.897805 -0.562581 2.12132 0 2.12132 
z
" style="stroke: #ffffff; stroke-width: 0.339411"/>
     </defs>
     <g>
      <use xlink:href="#mc162686520" x="192.811719" y="105.339969" style="fill: #0000ff; stroke: #ffffff; stroke-width: 0.339411"/>
     </g>
    </g>
    <g id="text_15">
     <!-- Pearson r: 0.40 -->
     <g transform="translate(198.411719 79.014937) scale(0.07 -0.07)">
      <defs>
       <path id="DejaVuSans-50" d="M 1259 4147 
L 1259 2394 
L 2053 2394 
Q 2494 2394 2734 2622 
Q 2975 2850 2975 3272 
Q 2975 3691 2734 3919 
Q 2494 4147 2053 4147 
L 1259 4147 
z
M 628 4666 
L 2053 4666 
Q 2838 4666 3239 4311 
Q 3641 3956 3641 3272 
Q 3641 2581 3239 2228 
Q 2838 1875 2053 1875 
L 1259 1875 
L 1259 0 
L 628 0 
L 628 4666 
z
" transform="scale(0.015625)"/>
       <path id="DejaVuSans-3a" d="M 750 794 
L 1409 794 
L 1409 0 
L 750 0 
L 750 794 
z
M 750 3309 
L 1409 3309 
L 1409 2516 
L 750 2516 
L 750 3309 
z
" transform="scale(0.015625)"/>
      </defs>
      <use xlink:href="#DejaVuSans-50"/>
      <use xlink:href="#DejaVuSans-65" transform="translate(56.677734 0)"/>
      <use xlink:href="#DejaVuSans-61" transform="translate(118.201172 0)"/>
      <use xlink:href="#DejaVuSans-72" transform="translate(179.480469 0)"/>
      <use xlink:href="#DejaVuSans-73" transform="translate(220.59375 0)"/>
      <use xlink:href="#DejaVuSans-6f" transform="translate(272.693359 0)"/>
      <use xlink:href="#DejaVuSans-6e" transform="translate(333.875 0)"/>
      <use xlink:href="#DejaVuSans-20" transform="translate(397.253906 0)"/>
      <use xlink:href="#DejaVuSans-72" transform="translate(429.041016 0)"/>
      <use xlink:href="#DejaVuSans-3a" transform="translate(468.404297 0)"/>
      <use xlink:href="#DejaVuSans-20" transform="translate(502.095703 0)"/>
      <use xlink:href="#DejaVuSans-30" transform="translate(533.882812 0)"/>
      <use xlink:href="#DejaVuSans-2e" transform="translate(597.505859 0)"/>
      <use xlink:href="#DejaVuSans-34" transform="translate(629.292969 0)"/>
      <use xlink:href="#DejaVuSans-30" transform="translate(692.916016 0)"/>
     </g>
     <!-- p-value: 1.24e-01 -->
     <g transform="translate(198.411719 86.853406) scale(0.07 -0.07)">
      <defs>
       <path id="DejaVuSans-76" d="M 191 3500 
L 800 3500 
L 1894 563 
L 2988 3500 
L 3597 3500 
L 2284 0 
L 1503 0 
L 191 3500 
z
" transform="scale(0.015625)"/>
       <path id="DejaVuSans-75" d="M 544 1381 
L 544 3500 
L 1119 3500 
L 1119 1403 
Q 1119 906 1312 657 
Q 1506 409 1894 409 
Q 2359 409 2629 706 
Q 2900 1003 2900 1516 
L 2900 3500 
L 3475 3500 
L 3475 0 
L 2900 0 
L 2900 538 
Q 2691 219 2414 64 
Q 2138 -91 1772 -91 
Q 1169 -91 856 284 
Q 544 659 544 1381 
z
M 1991 3584 
L 1991 3584 
z
" transform="scale(0.015625)"/>
      </defs>
      <use xlink:href="#DejaVuSans-70"/>
      <use xlink:href="#DejaVuSans-2d" transform="translate(63.476562 0)"/>
      <use xlink:href="#DejaVuSans-76" transform="translate(96.935547 0)"/>
      <use xlink:href="#DejaVuSans-61" transform="translate(156.115234 0)"/>
      <use xlink:href="#DejaVuSans-6c" transform="translate(217.394531 0)"/>
      <use xlink:href="#DejaVuSans-75" transform="translate(245.177734 0)"/>
      <use xlink:href="#DejaVuSans-65" transform="translate(308.556641 0)"/>
      <use xlink:href="#DejaVuSans-3a" transform="translate(370.080078 0)"/>
      <use xlink:href="#DejaVuSans-20" transform="translate(403.771484 0)"/>
      <use xlink:href="#DejaVuSans-31" transform="translate(435.558594 0)"/>
      <use xlink:href="#DejaVuSans-2e" transform="translate(499.181641 0)"/>
      <use xlink:href="#DejaVuSans-32" transform="translate(530.96875 0)"/>
      <use xlink:href="#DejaVuSans-34" transform="translate(594.591797 0)"/>
      <use xlink:href="#DejaVuSans-65" transform="translate(658.214844 0)"/>
      <use xlink:href="#DejaVuSans-2d" transform="translate(719.738281 0)"/>
      <use xlink:href="#DejaVuSans-30" transform="translate(755.822266 0)"/>
      <use xlink:href="#DejaVuSans-31" transform="translate(819.445312 0)"/>
     </g>
     <!-- Spearman r: 0.64 -->
     <g transform="translate(198.411719 94.691875) scale(0.07 -0.07)">
      <defs>
       <path id="DejaVuSans-53" d="M 3425 4513 
L 3425 3897 
Q 3066 4069 2747 4153 
Q 2428 4238 2131 4238 
Q 1616 4238 1336 4038 
Q 1056 3838 1056 3469 
Q 1056 3159 1242 3001 
Q 1428 2844 1947 2747 
L 2328 2669 
Q 3034 2534 3370 2195 
Q 3706 1856 3706 1288 
Q 3706 609 3251 259 
Q 2797 -91 1919 -91 
Q 1588 -91 1214 -16 
Q 841 59 441 206 
L 441 856 
Q 825 641 1194 531 
Q 1563 422 1919 422 
Q 2459 422 2753 634 
Q 3047 847 3047 1241 
Q 3047 1584 2836 1778 
Q 2625 1972 2144 2069 
L 1759 2144 
Q 1053 2284 737 2584 
Q 422 2884 422 3419 
Q 422 4038 858 4394 
Q 1294 4750 2059 4750 
Q 2388 4750 2728 4690 
Q 3069 4631 3425 4513 
z
" transform="scale(0.015625)"/>
       <path id="DejaVuSans-6d" d="M 3328 2828 
Q 3544 3216 3844 3400 
Q 4144 3584 4550 3584 
Q 5097 3584 5394 3201 
Q 5691 2819 5691 2113 
L 5691 0 
L 5113 0 
L 5113 2094 
Q 5113 2597 4934 2840 
Q 4756 3084 4391 3084 
Q 3944 3084 3684 2787 
Q 3425 2491 3425 1978 
L 3425 0 
L 2847 0 
L 2847 2094 
Q 2847 2600 2669 2842 
Q 2491 3084 2119 3084 
Q 1678 3084 1418 2786 
Q 1159 2488 1159 1978 
L 1159 0 
L 581 0 
L 581 3500 
L 1159 3500 
L 1159 2956 
Q 1356 3278 1631 3431 
Q 1906 3584 2284 3584 
Q 2666 3584 2933 3390 
Q 3200 3197 3328 2828 
z
" transform="scale(0.015625)"/>
      </defs>
      <use xlink:href="#DejaVuSans-53"/>
      <use xlink:href="#DejaVuSans-70" transform="translate(63.476562 0)"/>
      <use xlink:href="#DejaVuSans-65" transform="translate(126.953125 0)"/>
      <use xlink:href="#DejaVuSans-61" transform="translate(188.476562 0)"/>
      <use xlink:href="#DejaVuSans-72" transform="translate(249.755859 0)"/>
      <use xlink:href="#DejaVuSans-6d" transform="translate(289.119141 0)"/>
      <use xlink:href="#DejaVuSans-61" transform="translate(386.53125 0)"/>
      <use xlink:href="#DejaVuSans-6e" transform="translate(447.810547 0)"/>
      <use xlink:href="#DejaVuSans-20" transform="translate(511.189453 0)"/>
      <use xlink:href="#DejaVuSans-72" transform="translate(542.976562 0)"/>
      <use xlink:href="#DejaVuSans-3a" transform="translate(582.339844 0)"/>
      <use xlink:href="#DejaVuSans-20" transform="translate(616.03125 0)"/>
      <use xlink:href="#DejaVuSans-30" transform="translate(647.818359 0)"/>
      <use xlink:href="#DejaVuSans-2e" transform="translate(711.441406 0)"/>
      <use xlink:href="#DejaVuSans-36" transform="translate(743.228516 0)"/>
      <use xlink:href="#DejaVuSans-34" transform="translate(806.851562 0)"/>
     </g>
     <!-- p-value: 7.47e-03 -->
     <g transform="translate(198.411719 102.530344) scale(0.07 -0.07)">
      <defs>
       <path id="DejaVuSans-33" d="M 2597 2516 
Q 3050 2419 3304 2112 
Q 3559 1806 3559 1356 
Q 3559 666 3084 287 
Q 2609 -91 1734 -91 
Q 1441 -91 1130 -33 
Q 819 25 488 141 
L 488 750 
Q 750 597 1062 519 
Q 1375 441 1716 441 
Q 2309 441 2620 675 
Q 2931 909 2931 1356 
Q 2931 1769 2642 2001 
Q 2353 2234 1838 2234 
L 1294 2234 
L 1294 2753 
L 1863 2753 
Q 2328 2753 2575 2939 
Q 2822 3125 2822 3475 
Q 2822 3834 2567 4026 
Q 2313 4219 1838 4219 
Q 1578 4219 1281 4162 
Q 984 4106 628 3988 
L 628 4550 
Q 988 4650 1302 4700 
Q 1616 4750 1894 4750 
Q 2613 4750 3031 4423 
Q 3450 4097 3450 3541 
Q 3450 3153 3228 2886 
Q 3006 2619 2597 2516 
z
" transform="scale(0.015625)"/>
      </defs>
      <use xlink:href="#DejaVuSans-70"/>
      <use xlink:href="#DejaVuSans-2d" transform="translate(63.476562 0)"/>
      <use xlink:href="#DejaVuSans-76" transform="translate(96.935547 0)"/>
      <use xlink:href="#DejaVuSans-61" transform="translate(156.115234 0)"/>
      <use xlink:href="#DejaVuSans-6c" transform="translate(217.394531 0)"/>
      <use xlink:href="#DejaVuSans-75" transform="translate(245.177734 0)"/>
      <use xlink:href="#DejaVuSans-65" transform="translate(308.556641 0)"/>
      <use xlink:href="#DejaVuSans-3a" transform="translate(370.080078 0)"/>
      <use xlink:href="#DejaVuSans-20" transform="translate(403.771484 0)"/>
      <use xlink:href="#DejaVuSans-37" transform="translate(435.558594 0)"/>
      <use xlink:href="#DejaVuSans-2e" transform="translate(499.181641 0)"/>
      <use xlink:href="#DejaVuSans-34" transform="translate(530.96875 0)"/>
      <use xlink:href="#DejaVuSans-37" transform="translate(594.591797 0)"/>
      <use xlink:href="#DejaVuSans-65" transform="translate(658.214844 0)"/>
      <use xlink:href="#DejaVuSans-2d" transform="translate(719.738281 0)"/>
      <use xlink:href="#DejaVuSans-30" transform="translate(755.822266 0)"/>
      <use xlink:href="#DejaVuSans-33" transform="translate(819.445312 0)"/>
     </g>
     <!-- Linear regression: -->
     <g transform="translate(198.411719 110.368812) scale(0.07 -0.07)">
      <defs>
       <path id="DejaVuSans-4c" d="M 628 4666 
L 1259 4666 
L 1259 531 
L 3531 531 
L 3531 0 
L 628 0 
L 628 4666 
z
" transform="scale(0.015625)"/>
      </defs>
      <use xlink:href="#DejaVuSans-4c"/>
      <use xlink:href="#DejaVuSans-69" transform="translate(55.712891 0)"/>
      <use xlink:href="#DejaVuSans-6e" transform="translate(83.496094 0)"/>
      <use xlink:href="#DejaVuSans-65" transform="translate(146.875 0)"/>
      <use xlink:href="#DejaVuSans-61" transform="translate(208.398438 0)"/>
      <use xlink:href="#DejaVuSans-72" transform="translate(269.677734 0)"/>
      <use xlink:href="#DejaVuSans-20" transform="translate(310.791016 0)"/>
      <use xlink:href="#DejaVuSans-72" transform="translate(342.578125 0)"/>
      <use xlink:href="#DejaVuSans-65" transform="translate(381.441406 0)"/>
      <use xlink:href="#DejaVuSans-67" transform="translate(442.964844 0)"/>
      <use xlink:href="#DejaVuSans-72" transform="translate(506.441406 0)"/>
      <use xlink:href="#DejaVuSans-65" transform="translate(545.304688 0)"/>
      <use xlink:href="#DejaVuSans-73" transform="translate(606.828125 0)"/>
      <use xlink:href="#DejaVuSans-73" transform="translate(658.927734 0)"/>
      <use xlink:href="#DejaVuSans-69" transform="translate(711.027344 0)"/>
      <use xlink:href="#DejaVuSans-6f" transform="translate(738.810547 0)"/>
      <use xlink:href="#DejaVuSans-6e" transform="translate(799.992188 0)"/>
      <use xlink:href="#DejaVuSans-3a" transform="translate(863.371094 0)"/>
     </g>
     <!-- y = 1.98e-03x - 3.78 -->
     <g transform="translate(198.411719 118.207281) scale(0.07 -0.07)">
      <defs>
       <path id="DejaVuSans-3d" d="M 678 2906 
L 4684 2906 
L 4684 2381 
L 678 2381 
L 678 2906 
z
M 678 1631 
L 4684 1631 
L 4684 1100 
L 678 1100 
L 678 1631 
z
" transform="scale(0.015625)"/>
       <path id="DejaVuSans-78" d="M 3513 3500 
L 2247 1797 
L 3578 0 
L 2900 0 
L 1881 1375 
L 863 0 
L 184 0 
L 1544 1831 
L 300 3500 
L 978 3500 
L 1906 2253 
L 2834 3500 
L 3513 3500 
z
" transform="scale(0.015625)"/>
      </defs>
      <use xlink:href="#DejaVuSans-79"/>
      <use xlink:href="#DejaVuSans-20" transform="translate(59.179688 0)"/>
      <use xlink:href="#DejaVuSans-3d" transform="translate(90.966797 0)"/>
      <use xlink:href="#DejaVuSans-20" transform="translate(174.755859 0)"/>
      <use xlink:href="#DejaVuSans-31" transform="translate(206.542969 0)"/>
      <use xlink:href="#DejaVuSans-2e" transform="translate(270.166016 0)"/>
      <use xlink:href="#DejaVuSans-39" transform="translate(301.953125 0)"/>
      <use xlink:href="#DejaVuSans-38" transform="translate(365.576172 0)"/>
      <use xlink:href="#DejaVuSans-65" transform="translate(429.199219 0)"/>
      <use xlink:href="#DejaVuSans-2d" transform="translate(490.722656 0)"/>
      <use xlink:href="#DejaVuSans-30" transform="translate(526.806641 0)"/>
      <use xlink:href="#DejaVuSans-33" transform="translate(590.429688 0)"/>
      <use xlink:href="#DejaVuSans-78" transform="translate(654.052734 0)"/>
      <use xlink:href="#DejaVuSans-20" transform="translate(713.232422 0)"/>
      <use xlink:href="#DejaVuSans-2d" transform="translate(745.019531 0)"/>
      <use xlink:href="#DejaVuSans-20" transform="translate(781.103516 0)"/>
      <use xlink:href="#DejaVuSans-33" transform="translate(812.890625 0)"/>
      <use xlink:href="#DejaVuSans-2e" transform="translate(876.513672 0)"/>
      <use xlink:href="#DejaVuSans-37" transform="translate(908.300781 0)"/>
      <use xlink:href="#DejaVuSans-38" transform="translate(971.923828 0)"/>
     </g>
     <!-- p-value: 1.24e-01 -->
     <g transform="translate(198.411719 126.04575) scale(0.07 -0.07)">
      <use xlink:href="#DejaVuSans-70"/>
      <use xlink:href="#DejaVuSans-2d" transform="translate(63.476562 0)"/>
      <use xlink:href="#DejaVuSans-76" transform="translate(96.935547 0)"/>
      <use xlink:href="#DejaVuSans-61" transform="translate(156.115234 0)"/>
      <use xlink:href="#DejaVuSans-6c" transform="translate(217.394531 0)"/>
      <use xlink:href="#DejaVuSans-75" transform="translate(245.177734 0)"/>
      <use xlink:href="#DejaVuSans-65" transform="translate(308.556641 0)"/>
      <use xlink:href="#DejaVuSans-3a" transform="translate(370.080078 0)"/>
      <use xlink:href="#DejaVuSans-20" transform="translate(403.771484 0)"/>
      <use xlink:href="#DejaVuSans-31" transform="translate(435.558594 0)"/>
      <use xlink:href="#DejaVuSans-2e" transform="translate(499.181641 0)"/>
      <use xlink:href="#DejaVuSans-32" transform="translate(530.96875 0)"/>
      <use xlink:href="#DejaVuSans-34" transform="translate(594.591797 0)"/>
      <use xlink:href="#DejaVuSans-65" transform="translate(658.214844 0)"/>
      <use xlink:href="#DejaVuSans-2d" transform="translate(719.738281 0)"/>
      <use xlink:href="#DejaVuSans-30" transform="translate(755.822266 0)"/>
      <use xlink:href="#DejaVuSans-31" transform="translate(819.445312 0)"/>
     </g>
     <!-- R: 0.16 -->
     <g transform="translate(198.411719 133.884219) scale(0.07 -0.07)">
      <defs>
       <path id="DejaVuSans-b2" d="M 838 2444 
L 2163 2444 
L 2163 2088 
L 294 2088 
L 294 2431 
Q 400 2528 597 2703 
Q 1672 3656 1672 3950 
Q 1672 4156 1509 4282 
Q 1347 4409 1081 4409 
Q 919 4409 728 4354 
Q 538 4300 313 4191 
L 313 4575 
Q 553 4663 761 4706 
Q 969 4750 1147 4750 
Q 1600 4750 1872 4544 
Q 2144 4338 2144 4000 
Q 2144 3566 1109 2678 
Q 934 2528 838 2444 
z
" transform="scale(0.015625)"/>
      </defs>
      <use xlink:href="#DejaVuSans-52"/>
      <use xlink:href="#DejaVuSans-b2" transform="translate(69.482422 0)"/>
      <use xlink:href="#DejaVuSans-3a" transform="translate(109.570312 0)"/>
      <use xlink:href="#DejaVuSans-20" transform="translate(143.261719 0)"/>
      <use xlink:href="#DejaVuSans-30" transform="translate(175.048828 0)"/>
      <use xlink:href="#DejaVuSans-2e" transform="translate(238.671875 0)"/>
      <use xlink:href="#DejaVuSans-31" transform="translate(270.458984 0)"/>
      <use xlink:href="#DejaVuSans-36" transform="translate(334.082031 0)"/>
     </g>
    </g>
   </g>
  </g>
 </g>
 <defs>
  <clipPath id="p7bf478719b">
   <rect x="46.73" y="31.92" width="230.47" height="109.72"/>
  </clipPath>
 </defs>
</svg>
