<?xml version="1.0" encoding="utf-8" standalone="no"?>
<!DOCTYPE svg PUBLIC "-//W3C//DTD SVG 1.1//EN"
  "http://www.w3.org/Graphics/SVG/1.1/DTD/svg11.dtd">
<svg xmlns:xlink="http://www.w3.org/1999/xlink" width="288pt" height="180pt" viewBox="0 0 288 180" xmlns="http://www.w3.org/2000/svg" version="1.1">
 <metadata>
  <rdf:RDF xmlns:dc="http://purl.org/dc/elements/1.1/" xmlns:cc="http://creativecommons.org/ns#" xmlns:rdf="http://www.w3.org/1999/02/22-rdf-syntax-ns#">
   <cc:Work>
    <dc:type rdf:resource="http://purl.org/dc/dcmitype/StillImage"/>
    <dc:date>2026-01-15T16:51:01.838853</dc:date>
    <dc:format>image/svg+xml</dc:format>
    <dc:creator>
     <cc:Agent>
      <dc:title>Matplotlib v3.10.8, https://matplotlib.org/</dc:title>
     </cc:Agent>
    </dc:creator>
   </cc:Work>
  </rdf:RDF>
 </metadata>
 <defs>
  <style type="text/css">*{stroke-linejoin: round; stroke-linecap: butt}</style>
 </defs>
 <g id="figure_1">
  <g id="patch_1">
   <path d="M 0 180 
L 288 180 
L 288 0 
L 0 0 
z
" style="fill: #ffffff"/>
  </g>
  <g id="axes_1">
   <g id="patch_2">
    <path d="M 42.23 141.64 
L 277.2 141.64 
L 277.2 31.92 
L 42.23 31.92 
z
" style="fill: #ffffff"/>
   </g>
   <g id="PathCollection_1">
    <path d="M 121.476336 100.971934 
C 122.038916 100.971934 122.578531 100.748418 122.976336 100.350613 
C 123.37414 99.952809 123.597656 99.413194 123.597656 98.850613 
C 123.597656 98.288033 123.37414 97.748418 122.976336 97.350613 
C 122.578531 96.952809 122.038916 96.729293 121.476336 96.729293 
C 120.913755 96.729293 120.37414 96.952809 119.976336 97.350613 
C 119.578531 97.748418 119.355015 98.288033 119.355015 98.850613 
C 119.355015 99.413194 119.578531 99.952809 119.976336 100.350613 
C 120.37414 100.748418 120.913755 100.971934 121.476336 100.971934 
z
" clip-path="url(#p307a7227fb)" style="fill: #0000ff; stroke: #ffffff; stroke-width: 0.339411"/>
    <path d="M 124.113485 100.834713 
C 124.676066 100.834713 125.21568 100.611198 125.613485 100.213393 
C 126.011289 99.815589 126.234805 99.275974 126.234805 98.713393 
C 126.234805 98.150812 126.011289 97.611198 125.613485 97.213393 
C 125.21568 96.815589 124.676066 96.592073 124.113485 96.592073 
C 123.550904 96.592073 123.011289 96.815589 122.613485 97.213393 
C 122.21568 97.611198 121.992165 98.150812 121.992165 98.713393 
C 121.992165 99.275974 122.21568 99.815589 122.613485 100.213393 
C 123.011289 100.611198 123.550904 100.834713 124.113485 100.834713 
z
" clip-path="url(#p307a7227fb)" style="fill: #0000ff; stroke: #ffffff; stroke-width: 0.339411"/>
    <path d="M 266.519545 101.786645 
C 267.082126 101.786645 267.621741 101.563129 268.019545 101.165324 
C 268.41735 100.76752 268.640866 100.227905 268.640866 99.665324 
C 268.640866 99.102744 268.41735 98.563129 268.019545 98.165324 
C 267.621741 97.76752 267.082126 97.544004 266.519545 97.544004 
C 265.956965 97.544004 265.41735 97.76752 265.019545 98.165324 
C 264.621741 98.563129 264.398225 99.102744 264.398225 99.665324 
C 264.398225 100.227905 264.621741 100.76752 265.019545 101.165324 
C 265.41735 101.563129 265.956965 101.786645 266.519545 101.786645 
z
" clip-path="url(#p307a7227fb)" style="fill: #0000ff; stroke: #ffffff; stroke-width: 0.339411"/>
    <path d="M 171.582172 107.26882 
C 172.144752 107.26882 172.684367 107.045305 173.082172 106.6475 
C 173.479976 106.249695 173.703492 105.710081 173.703492 105.1475 
C 173.703492 104.584919 173.479976 104.045305 173.082172 103.6475 
C 172.684367 103.249695 172.144752 103.02618 171.582172 103.02618 
C 171.019591 103.02618 170.479976 103.249695 170.082172 103.6475 
C 169.684367 104.045305 169.460851 104.584919 169.460851 105.1475 
C 169.460851 105.710081 169.684367 106.249695 170.082172 106.6475 
C 170.479976 107.045305 171.019591 107.26882 171.582172 107.26882 
z
" clip-path="url(#p307a7227fb)" style="fill: #0000ff; stroke: #ffffff; stroke-width: 0.339411"/>
    <path d="M 182.130769 106.913199 
C 182.69335 106.913199 183.232964 106.689683 183.630769 106.291879 
C 184.028573 105.894074 184.252089 105.354459 184.252089 104.791879 
C 184.252089 104.229298 184.028573 103.689683 183.630769 103.291879 
C 183.232964 102.894074 182.69335 102.670558 182.130769 102.670558 
C 181.568188 102.670558 181.028573 102.894074 180.630769 103.291879 
C 180.232964 103.689683 180.009448 104.229298 180.009448 104.791879 
C 180.009448 105.354459 180.232964 105.894074 180.630769 106.291879 
C 181.028573 106.689683 181.568188 106.913199 182.130769 106.913199 
z
" clip-path="url(#p307a7227fb)" style="fill: #0000ff; stroke: #ffffff; stroke-width: 0.339411"/>
    <path d="M 163.670724 107.193738 
C 164.233305 107.193738 164.772919 106.970222 165.170724 106.572417 
C 165.568529 106.174613 165.792044 105.634998 165.792044 105.072417 
C 165.792044 104.509836 165.568529 103.970222 165.170724 103.572417 
C 164.772919 103.174613 164.233305 102.951097 163.670724 102.951097 
C 163.108143 102.951097 162.568529 103.174613 162.170724 103.572417 
C 161.772919 103.970222 161.549404 104.509836 161.549404 105.072417 
C 161.549404 105.634998 161.772919 106.174613 162.170724 106.572417 
C 162.568529 106.970222 163.108143 107.193738 163.670724 107.193738 
z
" clip-path="url(#p307a7227fb)" style="fill: #0000ff; stroke: #ffffff; stroke-width: 0.339411"/>
    <path d="M 203.227963 106.44685 
C 203.790544 106.44685 204.330158 106.223335 204.727963 105.82553 
C 205.125768 105.427725 205.349283 104.888111 205.349283 104.32553 
C 205.349283 103.762949 205.125768 103.223335 204.727963 102.82553 
C 204.330158 102.427725 203.790544 102.20421 203.227963 102.20421 
C 202.665382 102.20421 202.125768 102.427725 201.727963 102.82553 
C 201.330158 103.223335 201.106643 103.762949 201.106643 104.32553 
C 201.106643 104.888111 201.330158 105.427725 201.727963 105.82553 
C 202.125768 106.223335 202.665382 106.44685 203.227963 106.44685 
z
" clip-path="url(#p307a7227fb)" style="fill: #0000ff; stroke: #ffffff; stroke-width: 0.339411"/>
    <path d="M 163.670724 103.921368 
C 164.233305 103.921368 164.772919 103.697852 165.170724 103.300048 
C 165.568529 102.902243 165.792044 102.362628 165.792044 101.800048 
C 165.792044 101.237467 165.568529 100.697852 165.170724 100.300048 
C 164.772919 99.902243 164.233305 99.678727 163.670724 99.678727 
C 163.108143 99.678727 162.568529 99.902243 162.170724 100.300048 
C 161.772919 100.697852 161.549404 101.237467 161.549404 101.800048 
C 161.549404 102.362628 161.772919 102.902243 162.170724 103.300048 
C 162.568529 103.697852 163.108143 103.921368 163.670724 103.921368 
z
" clip-path="url(#p307a7227fb)" style="fill: #0000ff; stroke: #ffffff; stroke-width: 0.339411"/>
    <path d="M 163.670724 103.8749 
C 164.233305 103.8749 164.772919 103.651385 165.170724 103.25358 
C 165.568529 102.855775 165.792044 102.316161 165.792044 101.75358 
C 165.792044 101.190999 165.568529 100.651385 165.170724 100.25358 
C 164.772919 99.855775 164.233305 99.63226 163.670724 99.63226 
C 163.108143 99.63226 162.568529 99.855775 162.170724 100.25358 
C 161.772919 100.651385 161.549404 101.190999 161.549404 101.75358 
C 161.549404 102.316161 161.772919 102.855775 162.170724 103.25358 
C 162.568529 103.651385 163.108143 103.8749 163.670724 103.8749 
z
" clip-path="url(#p307a7227fb)" style="fill: #0000ff; stroke: #ffffff; stroke-width: 0.339411"/>
    <path d="M 166.307873 103.596203 
C 166.870454 103.596203 167.410069 103.372687 167.807873 102.974883 
C 168.205678 102.577078 168.429194 102.037463 168.429194 101.474883 
C 168.429194 100.912302 168.205678 100.372687 167.807873 99.974883 
C 167.410069 99.577078 166.870454 99.353562 166.307873 99.353562 
C 165.745292 99.353562 165.205678 99.577078 164.807873 99.974883 
C 164.410069 100.372687 164.186553 100.912302 164.186553 101.474883 
C 164.186553 102.037463 164.410069 102.577078 164.807873 102.974883 
C 165.205678 103.372687 165.745292 103.596203 166.307873 103.596203 
z
" clip-path="url(#p307a7227fb)" style="fill: #0000ff; stroke: #ffffff; stroke-width: 0.339411"/>
    <path d="M 158.396425 101.584826 
C 158.959006 101.584826 159.498621 101.36131 159.896425 100.963506 
C 160.29423 100.565701 160.517746 100.026086 160.517746 99.463506 
C 160.517746 98.900925 160.29423 98.36131 159.896425 97.963506 
C 159.498621 97.565701 158.959006 97.342185 158.396425 97.342185 
C 157.833845 97.342185 157.29423 97.565701 156.896425 97.963506 
C 156.498621 98.36131 156.275105 98.900925 156.275105 99.463506 
C 156.275105 100.026086 156.498621 100.565701 156.896425 100.963506 
C 157.29423 101.36131 157.833845 101.584826 158.396425 101.584826 
z
" clip-path="url(#p307a7227fb)" style="fill: #0000ff; stroke: #ffffff; stroke-width: 0.339411"/>
    <path d="M 118.839186 106.337578 
C 119.401767 106.337578 119.941382 106.114062 120.339186 105.716258 
C 120.736991 105.318453 120.960507 104.778839 120.960507 104.216258 
C 120.960507 103.653677 120.736991 103.114062 120.339186 102.716258 
C 119.941382 102.318453 119.401767 102.094937 118.839186 102.094937 
C 118.276606 102.094937 117.736991 102.318453 117.339186 102.716258 
C 116.941382 103.114062 116.717866 103.653677 116.717866 104.216258 
C 116.717866 104.778839 116.941382 105.318453 117.339186 105.716258 
C 117.736991 106.114062 118.276606 106.337578 118.839186 106.337578 
z
" clip-path="url(#p307a7227fb)" style="fill: #0000ff; stroke: #ffffff; stroke-width: 0.339411"/>
    <path d="M 200.590814 97.588209 
C 201.153394 97.588209 201.693009 97.364694 202.090814 96.966889 
C 202.488618 96.569084 202.712134 96.02947 202.712134 95.466889 
C 202.712134 94.904308 202.488618 94.364694 202.090814 93.966889 
C 201.693009 93.569084 201.153394 93.345569 200.590814 93.345569 
C 200.028233 93.345569 199.488618 93.569084 199.090814 93.966889 
C 198.693009 94.364694 198.469493 94.904308 198.469493 95.466889 
C 198.469493 96.02947 198.693009 96.569084 199.090814 96.966889 
C 199.488618 97.364694 200.028233 97.588209 200.590814 97.588209 
z
" clip-path="url(#p307a7227fb)" style="fill: #0000ff; stroke: #ffffff; stroke-width: 0.339411"/>
    <path d="M 52.910455 138.774048 
C 53.473035 138.774048 54.01265 138.550532 54.410455 138.152727 
C 54.808259 137.754923 55.031775 137.215308 55.031775 136.652727 
C 55.031775 136.090147 54.808259 135.550532 54.410455 135.152727 
C 54.01265 134.754923 53.473035 134.531407 52.910455 134.531407 
C 52.347874 134.531407 51.808259 134.754923 51.410455 135.152727 
C 51.01265 135.550532 50.789134 136.090147 50.789134 136.652727 
C 50.789134 137.215308 51.01265 137.754923 51.410455 138.152727 
C 51.808259 138.550532 52.347874 138.774048 52.910455 138.774048 
z
" clip-path="url(#p307a7227fb)" style="fill: #0000ff; stroke: #ffffff; stroke-width: 0.339411"/>
    <path d="M 261.245247 39.028593 
C 261.807828 39.028593 262.347442 38.805077 262.745247 38.407273 
C 263.143052 38.009468 263.366567 37.469853 263.366567 36.907273 
C 263.366567 36.344692 263.143052 35.805077 262.745247 35.407273 
C 262.347442 35.009468 261.807828 34.785952 261.245247 34.785952 
C 260.682666 34.785952 260.143052 35.009468 259.745247 35.407273 
C 259.347442 35.805077 259.123927 36.344692 259.123927 36.907273 
C 259.123927 37.469853 259.347442 38.009468 259.745247 38.407273 
C 260.143052 38.805077 260.682666 39.028593 261.245247 39.028593 
z
" clip-path="url(#p307a7227fb)" style="fill: #0000ff; stroke: #ffffff; stroke-width: 0.339411"/>
    <path d="M 184.767918 106.409204 
C 185.330499 106.409204 185.870113 106.185688 186.267918 105.787884 
C 186.665723 105.390079 186.889238 104.850464 186.889238 104.287884 
C 186.889238 103.725303 186.665723 103.185688 186.267918 102.787884 
C 185.870113 102.390079 185.330499 102.166563 184.767918 102.166563 
C 184.205337 102.166563 183.665723 102.390079 183.267918 102.787884 
C 182.870113 103.185688 182.646598 103.725303 182.646598 104.287884 
C 182.646598 104.850464 182.870113 105.390079 183.267918 105.787884 
C 183.665723 106.185688 184.205337 106.409204 184.767918 106.409204 
z
" clip-path="url(#p307a7227fb)" style="fill: #0000ff; stroke: #ffffff; stroke-width: 0.339411"/>
    <path d="M 137.299231 102.131844 
C 137.861812 102.131844 138.401427 101.908328 138.799231 101.510523 
C 139.197036 101.112719 139.420552 100.573104 139.420552 100.010523 
C 139.420552 99.447943 139.197036 98.908328 138.799231 98.510523 
C 138.401427 98.112719 137.861812 97.889203 137.299231 97.889203 
C 136.73665 97.889203 136.197036 98.112719 135.799231 98.510523 
C 135.401427 98.908328 135.177911 99.447943 135.177911 100.010523 
C 135.177911 100.573104 135.401427 101.112719 135.799231 101.510523 
C 136.197036 101.908328 136.73665 102.131844 137.299231 102.131844 
z
" clip-path="url(#p307a7227fb)" style="fill: #0000ff; stroke: #ffffff; stroke-width: 0.339411"/>
    <path d="M 134.662082 102.710683 
C 135.224663 102.710683 135.764277 102.487168 136.162082 102.089363 
C 136.559887 101.691559 136.783402 101.151944 136.783402 100.589363 
C 136.783402 100.026782 136.559887 99.487168 136.162082 99.089363 
C 135.764277 98.691559 135.224663 98.468043 134.662082 98.468043 
C 134.099501 98.468043 133.559887 98.691559 133.162082 99.089363 
C 132.764277 99.487168 132.540762 100.026782 132.540762 100.589363 
C 132.540762 101.151944 132.764277 101.691559 133.162082 102.089363 
C 133.559887 102.487168 134.099501 102.710683 134.662082 102.710683 
z
" clip-path="url(#p307a7227fb)" style="fill: #0000ff; stroke: #ffffff; stroke-width: 0.339411"/>
   </g>
   <g id="matplotlib.axis_1">
    <g id="xtick_1">
     <g id="line2d_1">
      <defs>
       <path id="m0af43683e1" d="M 0 0 
L 0 3.5 
" style="stroke: #000000; stroke-width: 0.8"/>
      </defs>
      <g>
       <use xlink:href="#m0af43683e1" x="42.361857" y="141.64" style="stroke: #000000; stroke-width: 0.8"/>
      </g>
     </g>
     <g id="text_1">
      <!-- 1930 -->
      <g transform="translate(33.454357 153.958906) scale(0.07 -0.07)">
       <defs>
        <path id="DejaVuSans-31" d="M 794 531 
L 1825 531 
L 1825 4091 
L 703 3866 
L 703 4441 
L 1819 4666 
L 2450 4666 
L 2450 531 
L 3481 531 
L 3481 0 
L 794 0 
L 794 531 
z
" transform="scale(0.015625)"/>
        <path id="DejaVuSans-39" d="M 703 97 
L 703 672 
Q 941 559 1184 500 
Q 1428 441 1663 441 
Q 2288 441 2617 861 
Q 2947 1281 2994 2138 
Q 2813 1869 2534 1725 
Q 2256 1581 1919 1581 
Q 1219 1581 811 2004 
Q 403 2428 403 3163 
Q 403 3881 828 4315 
Q 1253 4750 1959 4750 
Q 2769 4750 3195 4129 
Q 3622 3509 3622 2328 
Q 3622 1225 3098 567 
Q 2575 -91 1691 -91 
Q 1453 -91 1209 -44 
Q 966 3 703 97 
z
M 1959 2075 
Q 2384 2075 2632 2365 
Q 2881 2656 2881 3163 
Q 2881 3666 2632 3958 
Q 2384 4250 1959 4250 
Q 1534 4250 1286 3958 
Q 1038 3666 1038 3163 
Q 1038 2656 1286 2365 
Q 1534 2075 1959 2075 
z
" transform="scale(0.015625)"/>
        <path id="DejaVuSans-33" d="M 2597 2516 
Q 3050 2419 3304 2112 
Q 3559 1806 3559 1356 
Q 3559 666 3084 287 
Q 2609 -91 1734 -91 
Q 1441 -91 1130 -33 
Q 819 25 488 141 
L 488 750 
Q 750 597 1062 519 
Q 1375 441 1716 441 
Q 2309 441 2620 675 
Q 2931 909 2931 1356 
Q 2931 1769 2642 2001 
Q 2353 2234 1838 2234 
L 1294 2234 
L 1294 2753 
L 1863 2753 
Q 2328 2753 2575 2939 
Q 2822 3125 2822 3475 
Q 2822 3834 2567 4026 
Q 2313 4219 1838 4219 
Q 1578 4219 1281 4162 
Q 984 4106 628 3988 
L 628 4550 
Q 988 4650 1302 4700 
Q 1616 4750 1894 4750 
Q 2613 4750 3031 4423 
Q 3450 4097 3450 3541 
Q 3450 3153 3228 2886 
Q 3006 2619 2597 2516 
z
" transform="scale(0.015625)"/>
        <path id="DejaVuSans-30" d="M 2034 4250 
Q 1547 4250 1301 3770 
Q 1056 3291 1056 2328 
Q 1056 1369 1301 889 
Q 1547 409 2034 409 
Q 2525 409 2770 889 
Q 3016 1369 3016 2328 
Q 3016 3291 2770 3770 
Q 2525 4250 2034 4250 
z
M 2034 4750 
Q 2819 4750 3233 4129 
Q 3647 3509 3647 2328 
Q 3647 1150 3233 529 
Q 2819 -91 2034 -91 
Q 1250 -91 836 529 
Q 422 1150 422 2328 
Q 422 3509 836 4129 
Q 1250 4750 2034 4750 
z
" transform="scale(0.015625)"/>
       </defs>
       <use xlink:href="#DejaVuSans-31"/>
       <use xlink:href="#DejaVuSans-39" transform="translate(63.623047 0)"/>
       <use xlink:href="#DejaVuSans-33" transform="translate(127.246094 0)"/>
       <use xlink:href="#DejaVuSans-30" transform="translate(190.869141 0)"/>
      </g>
     </g>
    </g>
    <g id="xtick_2">
     <g id="line2d_2">
      <g>
       <use xlink:href="#m0af43683e1" x="68.73335" y="141.64" style="stroke: #000000; stroke-width: 0.8"/>
      </g>
     </g>
     <g id="text_2">
      <!-- 1940 -->
      <g transform="translate(59.82585 153.958906) scale(0.07 -0.07)">
       <defs>
        <path id="DejaVuSans-34" d="M 2419 4116 
L 825 1625 
L 2419 1625 
L 2419 4116 
z
M 2253 4666 
L 3047 4666 
L 3047 1625 
L 3713 1625 
L 3713 1100 
L 3047 1100 
L 3047 0 
L 2419 0 
L 2419 1100 
L 313 1100 
L 313 1709 
L 2253 4666 
z
" transform="scale(0.015625)"/>
       </defs>
       <use xlink:href="#DejaVuSans-31"/>
       <use xlink:href="#DejaVuSans-39" transform="translate(63.623047 0)"/>
       <use xlink:href="#DejaVuSans-34" transform="translate(127.246094 0)"/>
       <use xlink:href="#DejaVuSans-30" transform="translate(190.869141 0)"/>
      </g>
     </g>
    </g>
    <g id="xtick_3">
     <g id="line2d_3">
      <g>
       <use xlink:href="#m0af43683e1" x="95.104843" y="141.64" style="stroke: #000000; stroke-width: 0.8"/>
      </g>
     </g>
     <g id="text_3">
      <!-- 1950 -->
      <g transform="translate(86.197343 153.958906) scale(0.07 -0.07)">
       <defs>
        <path id="DejaVuSans-35" d="M 691 4666 
L 3169 4666 
L 3169 4134 
L 1269 4134 
L 1269 2991 
Q 1406 3038 1543 3061 
Q 1681 3084 1819 3084 
Q 2600 3084 3056 2656 
Q 3513 2228 3513 1497 
Q 3513 744 3044 326 
Q 2575 -91 1722 -91 
Q 1428 -91 1123 -41 
Q 819 9 494 109 
L 494 744 
Q 775 591 1075 516 
Q 1375 441 1709 441 
Q 2250 441 2565 725 
Q 2881 1009 2881 1497 
Q 2881 1984 2565 2268 
Q 2250 2553 1709 2553 
Q 1456 2553 1204 2497 
Q 953 2441 691 2322 
L 691 4666 
z
" transform="scale(0.015625)"/>
       </defs>
       <use xlink:href="#DejaVuSans-31"/>
       <use xlink:href="#DejaVuSans-39" transform="translate(63.623047 0)"/>
       <use xlink:href="#DejaVuSans-35" transform="translate(127.246094 0)"/>
       <use xlink:href="#DejaVuSans-30" transform="translate(190.869141 0)"/>
      </g>
     </g>
    </g>
    <g id="xtick_4">
     <g id="line2d_4">
      <g>
       <use xlink:href="#m0af43683e1" x="121.476336" y="141.64" style="stroke: #000000; stroke-width: 0.8"/>
      </g>
     </g>
     <g id="text_4">
      <!-- 1960 -->
      <g transform="translate(112.568836 153.958906) scale(0.07 -0.07)">
       <defs>
        <path id="DejaVuSans-36" d="M 2113 2584 
Q 1688 2584 1439 2293 
Q 1191 2003 1191 1497 
Q 1191 994 1439 701 
Q 1688 409 2113 409 
Q 2538 409 2786 701 
Q 3034 994 3034 1497 
Q 3034 2003 2786 2293 
Q 2538 2584 2113 2584 
z
M 3366 4563 
L 3366 3988 
Q 3128 4100 2886 4159 
Q 2644 4219 2406 4219 
Q 1781 4219 1451 3797 
Q 1122 3375 1075 2522 
Q 1259 2794 1537 2939 
Q 1816 3084 2150 3084 
Q 2853 3084 3261 2657 
Q 3669 2231 3669 1497 
Q 3669 778 3244 343 
Q 2819 -91 2113 -91 
Q 1303 -91 875 529 
Q 447 1150 447 2328 
Q 447 3434 972 4092 
Q 1497 4750 2381 4750 
Q 2619 4750 2861 4703 
Q 3103 4656 3366 4563 
z
" transform="scale(0.015625)"/>
       </defs>
       <use xlink:href="#DejaVuSans-31"/>
       <use xlink:href="#DejaVuSans-39" transform="translate(63.623047 0)"/>
       <use xlink:href="#DejaVuSans-36" transform="translate(127.246094 0)"/>
       <use xlink:href="#DejaVuSans-30" transform="translate(190.869141 0)"/>
      </g>
     </g>
    </g>
    <g id="xtick_5">
     <g id="line2d_5">
      <g>
       <use xlink:href="#m0af43683e1" x="147.847828" y="141.64" style="stroke: #000000; stroke-width: 0.8"/>
      </g>
     </g>
     <g id="text_5">
      <!-- 1970 -->
      <g transform="translate(138.940328 153.958906) scale(0.07 -0.07)">
       <defs>
        <path id="DejaVuSans-37" d="M 525 4666 
L 3525 4666 
L 3525 4397 
L 1831 0 
L 1172 0 
L 2766 4134 
L 525 4134 
L 525 4666 
z
" transform="scale(0.015625)"/>
       </defs>
       <use xlink:href="#DejaVuSans-31"/>
       <use xlink:href="#DejaVuSans-39" transform="translate(63.623047 0)"/>
       <use xlink:href="#DejaVuSans-37" transform="translate(127.246094 0)"/>
       <use xlink:href="#DejaVuSans-30" transform="translate(190.869141 0)"/>
      </g>
     </g>
    </g>
    <g id="xtick_6">
     <g id="line2d_6">
      <g>
       <use xlink:href="#m0af43683e1" x="174.219321" y="141.64" style="stroke: #000000; stroke-width: 0.8"/>
      </g>
     </g>
     <g id="text_6">
      <!-- 1980 -->
      <g transform="translate(165.311821 153.958906) scale(0.07 -0.07)">
       <defs>
        <path id="DejaVuSans-38" d="M 2034 2216 
Q 1584 2216 1326 1975 
Q 1069 1734 1069 1313 
Q 1069 891 1326 650 
Q 1584 409 2034 409 
Q 2484 409 2743 651 
Q 3003 894 3003 1313 
Q 3003 1734 2745 1975 
Q 2488 2216 2034 2216 
z
M 1403 2484 
Q 997 2584 770 2862 
Q 544 3141 544 3541 
Q 544 4100 942 4425 
Q 1341 4750 2034 4750 
Q 2731 4750 3128 4425 
Q 3525 4100 3525 3541 
Q 3525 3141 3298 2862 
Q 3072 2584 2669 2484 
Q 3125 2378 3379 2068 
Q 3634 1759 3634 1313 
Q 3634 634 3220 271 
Q 2806 -91 2034 -91 
Q 1263 -91 848 271 
Q 434 634 434 1313 
Q 434 1759 690 2068 
Q 947 2378 1403 2484 
z
M 1172 3481 
Q 1172 3119 1398 2916 
Q 1625 2713 2034 2713 
Q 2441 2713 2670 2916 
Q 2900 3119 2900 3481 
Q 2900 3844 2670 4047 
Q 2441 4250 2034 4250 
Q 1625 4250 1398 4047 
Q 1172 3844 1172 3481 
z
" transform="scale(0.015625)"/>
       </defs>
       <use xlink:href="#DejaVuSans-31"/>
       <use xlink:href="#DejaVuSans-39" transform="translate(63.623047 0)"/>
       <use xlink:href="#DejaVuSans-38" transform="translate(127.246094 0)"/>
       <use xlink:href="#DejaVuSans-30" transform="translate(190.869141 0)"/>
      </g>
     </g>
    </g>
    <g id="xtick_7">
     <g id="line2d_7">
      <g>
       <use xlink:href="#m0af43683e1" x="200.590814" y="141.64" style="stroke: #000000; stroke-width: 0.8"/>
      </g>
     </g>
     <g id="text_7">
      <!-- 1990 -->
      <g transform="translate(191.683314 153.958906) scale(0.07 -0.07)">
       <use xlink:href="#DejaVuSans-31"/>
       <use xlink:href="#DejaVuSans-39" transform="translate(63.623047 0)"/>
       <use xlink:href="#DejaVuSans-39" transform="translate(127.246094 0)"/>
       <use xlink:href="#DejaVuSans-30" transform="translate(190.869141 0)"/>
      </g>
     </g>
    </g>
    <g id="xtick_8">
     <g id="line2d_8">
      <g>
       <use xlink:href="#m0af43683e1" x="226.962306" y="141.64" style="stroke: #000000; stroke-width: 0.8"/>
      </g>
     </g>
     <g id="text_8">
      <!-- 2000 -->
      <g transform="translate(218.054806 153.958906) scale(0.07 -0.07)">
       <defs>
        <path id="DejaVuSans-32" d="M 1228 531 
L 3431 531 
L 3431 0 
L 469 0 
L 469 531 
Q 828 903 1448 1529 
Q 2069 2156 2228 2338 
Q 2531 2678 2651 2914 
Q 2772 3150 2772 3378 
Q 2772 3750 2511 3984 
Q 2250 4219 1831 4219 
Q 1534 4219 1204 4116 
Q 875 4013 500 3803 
L 500 4441 
Q 881 4594 1212 4672 
Q 1544 4750 1819 4750 
Q 2544 4750 2975 4387 
Q 3406 4025 3406 3419 
Q 3406 3131 3298 2873 
Q 3191 2616 2906 2266 
Q 2828 2175 2409 1742 
Q 1991 1309 1228 531 
z
" transform="scale(0.015625)"/>
       </defs>
       <use xlink:href="#DejaVuSans-32"/>
       <use xlink:href="#DejaVuSans-30" transform="translate(63.623047 0)"/>
       <use xlink:href="#DejaVuSans-30" transform="translate(127.246094 0)"/>
       <use xlink:href="#DejaVuSans-30" transform="translate(190.869141 0)"/>
      </g>
     </g>
    </g>
    <g id="xtick_9">
     <g id="line2d_9">
      <g>
       <use xlink:href="#m0af43683e1" x="253.333799" y="141.64" style="stroke: #000000; stroke-width: 0.8"/>
      </g>
     </g>
     <g id="text_9">
      <!-- 2010 -->
      <g transform="translate(244.426299 153.958906) scale(0.07 -0.07)">
       <use xlink:href="#DejaVuSans-32"/>
       <use xlink:href="#DejaVuSans-30" transform="translate(63.623047 0)"/>
       <use xlink:href="#DejaVuSans-31" transform="translate(127.246094 0)"/>
       <use xlink:href="#DejaVuSans-30" transform="translate(190.869141 0)"/>
      </g>
     </g>
    </g>
    <g id="text_10">
     <!-- Collection year -->
     <g transform="translate(125.986094 166.253281) scale(0.09 -0.09)">
      <defs>
       <path id="DejaVuSans-43" d="M 4122 4306 
L 4122 3641 
Q 3803 3938 3442 4084 
Q 3081 4231 2675 4231 
Q 1875 4231 1450 3742 
Q 1025 3253 1025 2328 
Q 1025 1406 1450 917 
Q 1875 428 2675 428 
Q 3081 428 3442 575 
Q 3803 722 4122 1019 
L 4122 359 
Q 3791 134 3420 21 
Q 3050 -91 2638 -91 
Q 1578 -91 968 557 
Q 359 1206 359 2328 
Q 359 3453 968 4101 
Q 1578 4750 2638 4750 
Q 3056 4750 3426 4639 
Q 3797 4528 4122 4306 
z
" transform="scale(0.015625)"/>
       <path id="DejaVuSans-6f" d="M 1959 3097 
Q 1497 3097 1228 2736 
Q 959 2375 959 1747 
Q 959 1119 1226 758 
Q 1494 397 1959 397 
Q 2419 397 2687 759 
Q 2956 1122 2956 1747 
Q 2956 2369 2687 2733 
Q 2419 3097 1959 3097 
z
M 1959 3584 
Q 2709 3584 3137 3096 
Q 3566 2609 3566 1747 
Q 3566 888 3137 398 
Q 2709 -91 1959 -91 
Q 1206 -91 779 398 
Q 353 888 353 1747 
Q 353 2609 779 3096 
Q 1206 3584 1959 3584 
z
" transform="scale(0.015625)"/>
       <path id="DejaVuSans-6c" d="M 603 4863 
L 1178 4863 
L 1178 0 
L 603 0 
L 603 4863 
z
" transform="scale(0.015625)"/>
       <path id="DejaVuSans-65" d="M 3597 1894 
L 3597 1613 
L 953 1613 
Q 991 1019 1311 708 
Q 1631 397 2203 397 
Q 2534 397 2845 478 
Q 3156 559 3463 722 
L 3463 178 
Q 3153 47 2828 -22 
Q 2503 -91 2169 -91 
Q 1331 -91 842 396 
Q 353 884 353 1716 
Q 353 2575 817 3079 
Q 1281 3584 2069 3584 
Q 2775 3584 3186 3129 
Q 3597 2675 3597 1894 
z
M 3022 2063 
Q 3016 2534 2758 2815 
Q 2500 3097 2075 3097 
Q 1594 3097 1305 2825 
Q 1016 2553 972 2059 
L 3022 2063 
z
" transform="scale(0.015625)"/>
       <path id="DejaVuSans-63" d="M 3122 3366 
L 3122 2828 
Q 2878 2963 2633 3030 
Q 2388 3097 2138 3097 
Q 1578 3097 1268 2742 
Q 959 2388 959 1747 
Q 959 1106 1268 751 
Q 1578 397 2138 397 
Q 2388 397 2633 464 
Q 2878 531 3122 666 
L 3122 134 
Q 2881 22 2623 -34 
Q 2366 -91 2075 -91 
Q 1284 -91 818 406 
Q 353 903 353 1747 
Q 353 2603 823 3093 
Q 1294 3584 2113 3584 
Q 2378 3584 2631 3529 
Q 2884 3475 3122 3366 
z
" transform="scale(0.015625)"/>
       <path id="DejaVuSans-74" d="M 1172 4494 
L 1172 3500 
L 2356 3500 
L 2356 3053 
L 1172 3053 
L 1172 1153 
Q 1172 725 1289 603 
Q 1406 481 1766 481 
L 2356 481 
L 2356 0 
L 1766 0 
Q 1100 0 847 248 
Q 594 497 594 1153 
L 594 3053 
L 172 3053 
L 172 3500 
L 594 3500 
L 594 4494 
L 1172 4494 
z
" transform="scale(0.015625)"/>
       <path id="DejaVuSans-69" d="M 603 3500 
L 1178 3500 
L 1178 0 
L 603 0 
L 603 3500 
z
M 603 4863 
L 1178 4863 
L 1178 4134 
L 603 4134 
L 603 4863 
z
" transform="scale(0.015625)"/>
       <path id="DejaVuSans-6e" d="M 3513 2113 
L 3513 0 
L 2938 0 
L 2938 2094 
Q 2938 2591 2744 2837 
Q 2550 3084 2163 3084 
Q 1697 3084 1428 2787 
Q 1159 2491 1159 1978 
L 1159 0 
L 581 0 
L 581 3500 
L 1159 3500 
L 1159 2956 
Q 1366 3272 1645 3428 
Q 1925 3584 2291 3584 
Q 2894 3584 3203 3211 
Q 3513 2838 3513 2113 
z
" transform="scale(0.015625)"/>
       <path id="DejaVuSans-20" transform="scale(0.015625)"/>
       <path id="DejaVuSans-79" d="M 2059 -325 
Q 1816 -950 1584 -1140 
Q 1353 -1331 966 -1331 
L 506 -1331 
L 506 -850 
L 844 -850 
Q 1081 -850 1212 -737 
Q 1344 -625 1503 -206 
L 1606 56 
L 191 3500 
L 800 3500 
L 1894 763 
L 2988 3500 
L 3597 3500 
L 2059 -325 
z
" transform="scale(0.015625)"/>
       <path id="DejaVuSans-61" d="M 2194 1759 
Q 1497 1759 1228 1600 
Q 959 1441 959 1056 
Q 959 750 1161 570 
Q 1363 391 1709 391 
Q 2188 391 2477 730 
Q 2766 1069 2766 1631 
L 2766 1759 
L 2194 1759 
z
M 3341 1997 
L 3341 0 
L 2766 0 
L 2766 531 
Q 2569 213 2275 61 
Q 1981 -91 1556 -91 
Q 1019 -91 701 211 
Q 384 513 384 1019 
Q 384 1609 779 1909 
Q 1175 2209 1959 2209 
L 2766 2209 
L 2766 2266 
Q 2766 2663 2505 2880 
Q 2244 3097 1772 3097 
Q 1472 3097 1187 3025 
Q 903 2953 641 2809 
L 641 3341 
Q 956 3463 1253 3523 
Q 1550 3584 1831 3584 
Q 2591 3584 2966 3190 
Q 3341 2797 3341 1997 
z
" transform="scale(0.015625)"/>
       <path id="DejaVuSans-72" d="M 2631 2963 
Q 2534 3019 2420 3045 
Q 2306 3072 2169 3072 
Q 1681 3072 1420 2755 
Q 1159 2438 1159 1844 
L 1159 0 
L 581 0 
L 581 3500 
L 1159 3500 
L 1159 2956 
Q 1341 3275 1631 3429 
Q 1922 3584 2338 3584 
Q 2397 3584 2469 3576 
Q 2541 3569 2628 3553 
L 2631 2963 
z
" transform="scale(0.015625)"/>
      </defs>
      <use xlink:href="#DejaVuSans-43"/>
      <use xlink:href="#DejaVuSans-6f" transform="translate(69.824219 0)"/>
      <use xlink:href="#DejaVuSans-6c" transform="translate(131.005859 0)"/>
      <use xlink:href="#DejaVuSans-6c" transform="translate(158.789062 0)"/>
      <use xlink:href="#DejaVuSans-65" transform="translate(186.572266 0)"/>
      <use xlink:href="#DejaVuSans-63" transform="translate(248.095703 0)"/>
      <use xlink:href="#DejaVuSans-74" transform="translate(303.076172 0)"/>
      <use xlink:href="#DejaVuSans-69" transform="translate(342.285156 0)"/>
      <use xlink:href="#DejaVuSans-6f" transform="translate(370.068359 0)"/>
      <use xlink:href="#DejaVuSans-6e" transform="translate(431.25 0)"/>
      <use xlink:href="#DejaVuSans-20" transform="translate(494.628906 0)"/>
      <use xlink:href="#DejaVuSans-79" transform="translate(526.416016 0)"/>
      <use xlink:href="#DejaVuSans-65" transform="translate(585.595703 0)"/>
      <use xlink:href="#DejaVuSans-61" transform="translate(647.119141 0)"/>
      <use xlink:href="#DejaVuSans-72" transform="translate(708.398438 0)"/>
     </g>
    </g>
   </g>
   <g id="matplotlib.axis_2">
    <g id="ytick_1">
     <g id="line2d_10">
      <defs>
       <path id="md538f0245c" d="M 0 0 
L -3.5 0 
" style="stroke: #000000; stroke-width: 0.8"/>
      </defs>
      <g>
       <use xlink:href="#md538f0245c" x="42.23" y="136.652727" style="stroke: #000000; stroke-width: 0.8"/>
      </g>
     </g>
     <g id="text_11">
      <!-- 0.0 -->
      <g transform="translate(24.097813 139.31218) scale(0.07 -0.07)">
       <defs>
        <path id="DejaVuSans-2e" d="M 684 794 
L 1344 794 
L 1344 0 
L 684 0 
L 684 794 
z
" transform="scale(0.015625)"/>
       </defs>
       <use xlink:href="#DejaVuSans-30"/>
       <use xlink:href="#DejaVuSans-2e" transform="translate(63.623047 0)"/>
       <use xlink:href="#DejaVuSans-30" transform="translate(95.410156 0)"/>
      </g>
     </g>
    </g>
    <g id="ytick_2">
     <g id="line2d_11">
      <g>
       <use xlink:href="#md538f0245c" x="42.23" y="120.642338" style="stroke: #000000; stroke-width: 0.8"/>
      </g>
     </g>
     <g id="text_12">
      <!-- 0.2 -->
      <g transform="translate(24.097813 123.301791) scale(0.07 -0.07)">
       <use xlink:href="#DejaVuSans-30"/>
       <use xlink:href="#DejaVuSans-2e" transform="translate(63.623047 0)"/>
       <use xlink:href="#DejaVuSans-32" transform="translate(95.410156 0)"/>
      </g>
     </g>
    </g>
    <g id="ytick_3">
     <g id="line2d_12">
      <g>
       <use xlink:href="#md538f0245c" x="42.23" y="104.631948" style="stroke: #000000; stroke-width: 0.8"/>
      </g>
     </g>
     <g id="text_13">
      <!-- 0.4 -->
      <g transform="translate(24.097813 107.291402) scale(0.07 -0.07)">
       <use xlink:href="#DejaVuSans-30"/>
       <use xlink:href="#DejaVuSans-2e" transform="translate(63.623047 0)"/>
       <use xlink:href="#DejaVuSans-34" transform="translate(95.410156 0)"/>
      </g>
     </g>
    </g>
    <g id="ytick_4">
     <g id="line2d_13">
      <g>
       <use xlink:href="#md538f0245c" x="42.23" y="88.621559" style="stroke: #000000; stroke-width: 0.8"/>
      </g>
     </g>
     <g id="text_14">
      <!-- 0.6 -->
      <g transform="translate(24.097813 91.281012) scale(0.07 -0.07)">
       <use xlink:href="#DejaVuSans-30"/>
       <use xlink:href="#DejaVuSans-2e" transform="translate(63.623047 0)"/>
       <use xlink:href="#DejaVuSans-36" transform="translate(95.410156 0)"/>
      </g>
     </g>
    </g>
    <g id="ytick_5">
     <g id="line2d_14">
      <g>
       <use xlink:href="#md538f0245c" x="42.23" y="72.61117" style="stroke: #000000; stroke-width: 0.8"/>
      </g>
     </g>
     <g id="text_15">
      <!-- 0.8 -->
      <g transform="translate(24.097813 75.270623) scale(0.07 -0.07)">
       <use xlink:href="#DejaVuSans-30"/>
       <use xlink:href="#DejaVuSans-2e" transform="translate(63.623047 0)"/>
       <use xlink:href="#DejaVuSans-38" transform="translate(95.410156 0)"/>
      </g>
     </g>
    </g>
    <g id="ytick_6">
     <g id="line2d_15">
      <g>
       <use xlink:href="#md538f0245c" x="42.23" y="56.60078" style="stroke: #000000; stroke-width: 0.8"/>
      </g>
     </g>
     <g id="text_16">
      <!-- 1.0 -->
      <g transform="translate(24.097813 59.260233) scale(0.07 -0.07)">
       <use xlink:href="#DejaVuSans-31"/>
       <use xlink:href="#DejaVuSans-2e" transform="translate(63.623047 0)"/>
       <use xlink:href="#DejaVuSans-30" transform="translate(95.410156 0)"/>
      </g>
     </g>
    </g>
    <g id="ytick_7">
     <g id="line2d_16">
      <g>
       <use xlink:href="#md538f0245c" x="42.23" y="40.590391" style="stroke: #000000; stroke-width: 0.8"/>
      </g>
     </g>
     <g id="text_17">
      <!-- 1.2 -->
      <g transform="translate(24.097813 43.249844) scale(0.07 -0.07)">
       <use xlink:href="#DejaVuSans-31"/>
       <use xlink:href="#DejaVuSans-2e" transform="translate(63.623047 0)"/>
       <use xlink:href="#DejaVuSans-32" transform="translate(95.410156 0)"/>
      </g>
     </g>
    </g>
    <g id="text_18">
     <!-- Root-to-tip distance -->
     <g transform="translate(18.226094 131.193594) rotate(-90) scale(0.09 -0.09)">
      <defs>
       <path id="DejaVuSans-52" d="M 2841 2188 
Q 3044 2119 3236 1894 
Q 3428 1669 3622 1275 
L 4263 0 
L 3584 0 
L 2988 1197 
Q 2756 1666 2539 1819 
Q 2322 1972 1947 1972 
L 1259 1972 
L 1259 0 
L 628 0 
L 628 4666 
L 2053 4666 
Q 2853 4666 3247 4331 
Q 3641 3997 3641 3322 
Q 3641 2881 3436 2590 
Q 3231 2300 2841 2188 
z
M 1259 4147 
L 1259 2491 
L 2053 2491 
Q 2509 2491 2742 2702 
Q 2975 2913 2975 3322 
Q 2975 3731 2742 3939 
Q 2509 4147 2053 4147 
L 1259 4147 
z
" transform="scale(0.015625)"/>
       <path id="DejaVuSans-2d" d="M 313 2009 
L 1997 2009 
L 1997 1497 
L 313 1497 
L 313 2009 
z
" transform="scale(0.015625)"/>
       <path id="DejaVuSans-70" d="M 1159 525 
L 1159 -1331 
L 581 -1331 
L 581 3500 
L 1159 3500 
L 1159 2969 
Q 1341 3281 1617 3432 
Q 1894 3584 2278 3584 
Q 2916 3584 3314 3078 
Q 3713 2572 3713 1747 
Q 3713 922 3314 415 
Q 2916 -91 2278 -91 
Q 1894 -91 1617 61 
Q 1341 213 1159 525 
z
M 3116 1747 
Q 3116 2381 2855 2742 
Q 2594 3103 2138 3103 
Q 1681 3103 1420 2742 
Q 1159 2381 1159 1747 
Q 1159 1113 1420 752 
Q 1681 391 2138 391 
Q 2594 391 2855 752 
Q 3116 1113 3116 1747 
z
" transform="scale(0.015625)"/>
       <path id="DejaVuSans-64" d="M 2906 2969 
L 2906 4863 
L 3481 4863 
L 3481 0 
L 2906 0 
L 2906 525 
Q 2725 213 2448 61 
Q 2172 -91 1784 -91 
Q 1150 -91 751 415 
Q 353 922 353 1747 
Q 353 2572 751 3078 
Q 1150 3584 1784 3584 
Q 2172 3584 2448 3432 
Q 2725 3281 2906 2969 
z
M 947 1747 
Q 947 1113 1208 752 
Q 1469 391 1925 391 
Q 2381 391 2643 752 
Q 2906 1113 2906 1747 
Q 2906 2381 2643 2742 
Q 2381 3103 1925 3103 
Q 1469 3103 1208 2742 
Q 947 2381 947 1747 
z
" transform="scale(0.015625)"/>
       <path id="DejaVuSans-73" d="M 2834 3397 
L 2834 2853 
Q 2591 2978 2328 3040 
Q 2066 3103 1784 3103 
Q 1356 3103 1142 2972 
Q 928 2841 928 2578 
Q 928 2378 1081 2264 
Q 1234 2150 1697 2047 
L 1894 2003 
Q 2506 1872 2764 1633 
Q 3022 1394 3022 966 
Q 3022 478 2636 193 
Q 2250 -91 1575 -91 
Q 1294 -91 989 -36 
Q 684 19 347 128 
L 347 722 
Q 666 556 975 473 
Q 1284 391 1588 391 
Q 1994 391 2212 530 
Q 2431 669 2431 922 
Q 2431 1156 2273 1281 
Q 2116 1406 1581 1522 
L 1381 1569 
Q 847 1681 609 1914 
Q 372 2147 372 2553 
Q 372 3047 722 3315 
Q 1072 3584 1716 3584 
Q 2034 3584 2315 3537 
Q 2597 3491 2834 3397 
z
" transform="scale(0.015625)"/>
      </defs>
      <use xlink:href="#DejaVuSans-52"/>
      <use xlink:href="#DejaVuSans-6f" transform="translate(64.982422 0)"/>
      <use xlink:href="#DejaVuSans-6f" transform="translate(126.164062 0)"/>
      <use xlink:href="#DejaVuSans-74" transform="translate(187.345703 0)"/>
      <use xlink:href="#DejaVuSans-2d" transform="translate(226.554688 0)"/>
      <use xlink:href="#DejaVuSans-74" transform="translate(262.638672 0)"/>
      <use xlink:href="#DejaVuSans-6f" transform="translate(301.847656 0)"/>
      <use xlink:href="#DejaVuSans-2d" transform="translate(364.904297 0)"/>
      <use xlink:href="#DejaVuSans-74" transform="translate(400.988281 0)"/>
      <use xlink:href="#DejaVuSans-69" transform="translate(440.197266 0)"/>
      <use xlink:href="#DejaVuSans-70" transform="translate(467.980469 0)"/>
      <use xlink:href="#DejaVuSans-20" transform="translate(531.457031 0)"/>
      <use xlink:href="#DejaVuSans-64" transform="translate(563.244141 0)"/>
      <use xlink:href="#DejaVuSans-69" transform="translate(626.720703 0)"/>
      <use xlink:href="#DejaVuSans-73" transform="translate(654.503906 0)"/>
      <use xlink:href="#DejaVuSans-74" transform="translate(706.603516 0)"/>
      <use xlink:href="#DejaVuSans-61" transform="translate(745.8125 0)"/>
      <use xlink:href="#DejaVuSans-6e" transform="translate(807.091797 0)"/>
      <use xlink:href="#DejaVuSans-63" transform="translate(870.470703 0)"/>
      <use xlink:href="#DejaVuSans-65" transform="translate(925.451172 0)"/>
     </g>
    </g>
   </g>
   <g id="line2d_17"/>
   <g id="line2d_18">
    <path d="M 52.910455 126.403 
L 55.068122 125.895168 
L 57.22579 125.387336 
L 59.383457 124.879504 
L 61.541125 124.371672 
L 63.698792 123.863839 
L 65.85646 123.356007 
L 68.014128 122.848175 
L 70.171795 122.340343 
L 72.329463 121.832511 
L 74.48713 121.324679 
L 76.644798 120.816847 
L 78.802466 120.309014 
L 80.960133 119.801182 
L 83.117801 119.29335 
L 85.275468 118.785518 
L 87.433136 118.277686 
L 89.590803 117.769854 
L 91.748471 117.262022 
L 93.906139 116.75419 
L 96.063806 116.246357 
L 98.221474 115.738525 
L 100.379141 115.230693 
L 102.536809 114.722861 
L 104.694477 114.215029 
L 106.852144 113.707197 
L 109.009812 113.199365 
L 111.167479 112.691532 
L 113.325147 112.1837 
L 115.482815 111.675868 
L 117.640482 111.168036 
L 119.79815 110.660204 
L 121.955817 110.152372 
L 124.113485 109.64454 
L 126.271152 109.136708 
L 128.42882 108.628875 
L 130.586488 108.121043 
L 132.744155 107.613211 
L 134.901823 107.105379 
L 137.05949 106.597547 
L 139.217158 106.089715 
L 141.374826 105.581883 
L 143.532493 105.07405 
L 145.690161 104.566218 
L 147.847828 104.058386 
L 150.005496 103.550554 
L 152.163163 103.042722 
L 154.320831 102.53489 
L 156.478499 102.027058 
L 158.636166 101.519226 
L 160.793834 101.011393 
L 162.951501 100.503561 
L 165.109169 99.995729 
L 167.266837 99.487897 
L 169.424504 98.980065 
L 171.582172 98.472233 
L 173.739839 97.964401 
L 175.897507 97.456569 
L 178.055174 96.948736 
L 180.212842 96.440904 
L 182.37051 95.933072 
L 184.528177 95.42524 
L 186.685845 94.917408 
L 188.843512 94.409576 
L 191.00118 93.901744 
L 193.158848 93.393911 
L 195.316515 92.886079 
L 197.474183 92.378247 
L 199.63185 91.870415 
L 201.789518 91.362583 
L 203.947185 90.854751 
L 206.104853 90.346919 
L 208.262521 89.839087 
L 210.420188 89.331254 
L 212.577856 88.823422 
L 214.735523 88.31559 
L 216.893191 87.807758 
L 219.050859 87.299926 
L 221.208526 86.792094 
L 223.366194 86.284262 
L 225.523861 85.776429 
L 227.681529 85.268597 
L 229.839197 84.760765 
L 231.996864 84.252933 
L 234.154532 83.745101 
L 236.312199 83.237269 
L 238.469867 82.729437 
L 240.627534 82.221605 
L 242.785202 81.713772 
L 244.94287 81.20594 
L 247.100537 80.698108 
L 249.258205 80.190276 
L 251.415872 79.682444 
L 253.57354 79.174612 
L 255.731208 78.66678 
L 257.888875 78.158947 
L 260.046543 77.651115 
L 262.20421 77.143283 
L 264.361878 76.635451 
L 266.519545 76.127619 
" clip-path="url(#p307a7227fb)" style="fill: none; stroke: #ff0000; stroke-linecap: square"/>
   </g>
   <g id="patch_3">
    <path d="M 42.23 141.64 
L 42.23 31.92 
" style="fill: none; stroke: #000000; stroke-width: 0.8; stroke-linejoin: miter; stroke-linecap: square"/>
   </g>
   <g id="patch_4">
    <path d="M 277.2 141.64 
L 277.2 31.92 
" style="fill: none; stroke: #000000; stroke-width: 0.8; stroke-linejoin: miter; stroke-linecap: square"/>
   </g>
   <g id="patch_5">
    <path d="M 42.23 141.64 
L 277.2 141.64 
" style="fill: none; stroke: #000000; stroke-width: 0.8; stroke-linejoin: miter; stroke-linecap: square"/>
   </g>
   <g id="patch_6">
    <path d="M 42.23 31.92 
L 277.2 31.92 
" style="fill: none; stroke: #000000; stroke-width: 0.8; stroke-linejoin: miter; stroke-linecap: square"/>
   </g>
   <g id="text_19">
    <!-- SAT3_976-2742_no_probang -->
    <g transform="translate(88.620469 25.92) scale(0.1 -0.1)">
     <defs>
      <path id="DejaVuSans-53" d="M 3425 4513 
L 3425 3897 
Q 3066 4069 2747 4153 
Q 2428 4238 2131 4238 
Q 1616 4238 1336 4038 
Q 1056 3838 1056 3469 
Q 1056 3159 1242 3001 
Q 1428 2844 1947 2747 
L 2328 2669 
Q 3034 2534 3370 2195 
Q 3706 1856 3706 1288 
Q 3706 609 3251 259 
Q 2797 -91 1919 -91 
Q 1588 -91 1214 -16 
Q 841 59 441 206 
L 441 856 
Q 825 641 1194 531 
Q 1563 422 1919 422 
Q 2459 422 2753 634 
Q 3047 847 3047 1241 
Q 3047 1584 2836 1778 
Q 2625 1972 2144 2069 
L 1759 2144 
Q 1053 2284 737 2584 
Q 422 2884 422 3419 
Q 422 4038 858 4394 
Q 1294 4750 2059 4750 
Q 2388 4750 2728 4690 
Q 3069 4631 3425 4513 
z
" transform="scale(0.015625)"/>
      <path id="DejaVuSans-41" d="M 2188 4044 
L 1331 1722 
L 3047 1722 
L 2188 4044 
z
M 1831 4666 
L 2547 4666 
L 4325 0 
L 3669 0 
L 3244 1197 
L 1141 1197 
L 716 0 
L 50 0 
L 1831 4666 
z
" transform="scale(0.015625)"/>
      <path id="DejaVuSans-54" d="M -19 4666 
L 3928 4666 
L 3928 4134 
L 2272 4134 
L 2272 0 
L 1638 0 
L 1638 4134 
L -19 4134 
L -19 4666 
z
" transform="scale(0.015625)"/>
      <path id="DejaVuSans-5f" d="M 3263 -1063 
L 3263 -1509 
L -63 -1509 
L -63 -1063 
L 3263 -1063 
z
" transform="scale(0.015625)"/>
      <path id="DejaVuSans-62" d="M 3116 1747 
Q 3116 2381 2855 2742 
Q 2594 3103 2138 3103 
Q 1681 3103 1420 2742 
Q 1159 2381 1159 1747 
Q 1159 1113 1420 752 
Q 1681 391 2138 391 
Q 2594 391 2855 752 
Q 3116 1113 3116 1747 
z
M 1159 2969 
Q 1341 3281 1617 3432 
Q 1894 3584 2278 3584 
Q 2916 3584 3314 3078 
Q 3713 2572 3713 1747 
Q 3713 922 3314 415 
Q 2916 -91 2278 -91 
Q 1894 -91 1617 61 
Q 1341 213 1159 525 
L 1159 0 
L 581 0 
L 581 4863 
L 1159 4863 
L 1159 2969 
z
" transform="scale(0.015625)"/>
      <path id="DejaVuSans-67" d="M 2906 1791 
Q 2906 2416 2648 2759 
Q 2391 3103 1925 3103 
Q 1463 3103 1205 2759 
Q 947 2416 947 1791 
Q 947 1169 1205 825 
Q 1463 481 1925 481 
Q 2391 481 2648 825 
Q 2906 1169 2906 1791 
z
M 3481 434 
Q 3481 -459 3084 -895 
Q 2688 -1331 1869 -1331 
Q 1566 -1331 1297 -1286 
Q 1028 -1241 775 -1147 
L 775 -588 
Q 1028 -725 1275 -790 
Q 1522 -856 1778 -856 
Q 2344 -856 2625 -561 
Q 2906 -266 2906 331 
L 2906 616 
Q 2728 306 2450 153 
Q 2172 0 1784 0 
Q 1141 0 747 490 
Q 353 981 353 1791 
Q 353 2603 747 3093 
Q 1141 3584 1784 3584 
Q 2172 3584 2450 3431 
Q 2728 3278 2906 2969 
L 2906 3500 
L 3481 3500 
L 3481 434 
z
" transform="scale(0.015625)"/>
     </defs>
     <use xlink:href="#DejaVuSans-53"/>
     <use xlink:href="#DejaVuSans-41" transform="translate(65.351562 0)"/>
     <use xlink:href="#DejaVuSans-54" transform="translate(126.009766 0)"/>
     <use xlink:href="#DejaVuSans-33" transform="translate(187.09375 0)"/>
     <use xlink:href="#DejaVuSans-5f" transform="translate(250.716797 0)"/>
     <use xlink:href="#DejaVuSans-39" transform="translate(300.716797 0)"/>
     <use xlink:href="#DejaVuSans-37" transform="translate(364.339844 0)"/>
     <use xlink:href="#DejaVuSans-36" transform="translate(427.962891 0)"/>
     <use xlink:href="#DejaVuSans-2d" transform="translate(491.585938 0)"/>
     <use xlink:href="#DejaVuSans-32" transform="translate(527.669922 0)"/>
     <use xlink:href="#DejaVuSans-37" transform="translate(591.292969 0)"/>
     <use xlink:href="#DejaVuSans-34" transform="translate(654.916016 0)"/>
     <use xlink:href="#DejaVuSans-32" transform="translate(718.539062 0)"/>
     <use xlink:href="#DejaVuSans-5f" transform="translate(782.162109 0)"/>
     <use xlink:href="#DejaVuSans-6e" transform="translate(832.162109 0)"/>
     <use xlink:href="#DejaVuSans-6f" transform="translate(895.541016 0)"/>
     <use xlink:href="#DejaVuSans-5f" transform="translate(956.722656 0)"/>
     <use xlink:href="#DejaVuSans-70" transform="translate(1006.722656 0)"/>
     <use xlink:href="#DejaVuSans-72" transform="translate(1070.199219 0)"/>
     <use xlink:href="#DejaVuSans-6f" transform="translate(1109.0625 0)"/>
     <use xlink:href="#DejaVuSans-62" transform="translate(1170.244141 0)"/>
     <use xlink:href="#DejaVuSans-61" transform="translate(1233.720703 0)"/>
     <use xlink:href="#DejaVuSans-6e" transform="translate(1295 0)"/>
     <use xlink:href="#DejaVuSans-67" transform="translate(1358.378906 0)"/>
    </g>
   </g>
   <g id="legend_1">
    <g id="patch_7">
     <path d="M 47.13 102.663969 
L 132.472031 102.663969 
Q 133.872031 102.663969 133.872031 101.263969 
L 133.872031 36.82 
Q 133.872031 35.42 132.472031 35.42 
L 47.13 35.42 
Q 45.73 35.42 45.73 36.82 
L 45.73 101.263969 
Q 45.73 102.663969 47.13 102.663969 
z
" style="fill: #ffffff; opacity: 0.8; stroke: #cccccc; stroke-linejoin: miter"/>
    </g>
    <g id="PathCollection_2">
     <defs>
      <path id="mf7e5f78933" d="M 0 2.12132 
C 0.562581 2.12132 1.102195 1.897805 1.5 1.5 
C 1.897805 1.102195 2.12132 0.562581 2.12132 0 
C 2.12132 -0.562581 1.897805 -1.102195 1.5 -1.5 
C 1.102195 -1.897805 0.562581 -2.12132 0 -2.12132 
C -0.562581 -2.12132 -1.102195 -1.897805 -1.5 -1.5 
C -1.897805 -1.102195 -2.12132 -0.562581 -2.12132 0 
C -2.12132 0.562581 -1.897805 1.102195 -1.5 1.5 
C -1.102195 1.897805 -0.562581 2.12132 0 2.12132 
z
" style="stroke: #ffffff; stroke-width: 0.339411"/>
     </defs>
     <g>
      <use xlink:href="#mf7e5f78933" x="48.53" y="69.863938" style="fill: #0000ff; stroke: #ffffff; stroke-width: 0.339411"/>
     </g>
    </g>
    <g id="text_20">
     <!-- Pearson r: 0.66 -->
     <g transform="translate(54.13 43.538906) scale(0.07 -0.07)">
      <defs>
       <path id="DejaVuSans-50" d="M 1259 4147 
L 1259 2394 
L 2053 2394 
Q 2494 2394 2734 2622 
Q 2975 2850 2975 3272 
Q 2975 3691 2734 3919 
Q 2494 4147 2053 4147 
L 1259 4147 
z
M 628 4666 
L 2053 4666 
Q 2838 4666 3239 4311 
Q 3641 3956 3641 3272 
Q 3641 2581 3239 2228 
Q 2838 1875 2053 1875 
L 1259 1875 
L 1259 0 
L 628 0 
L 628 4666 
z
" transform="scale(0.015625)"/>
       <path id="DejaVuSans-3a" d="M 750 794 
L 1409 794 
L 1409 0 
L 750 0 
L 750 794 
z
M 750 3309 
L 1409 3309 
L 1409 2516 
L 750 2516 
L 750 3309 
z
" transform="scale(0.015625)"/>
      </defs>
      <use xlink:href="#DejaVuSans-50"/>
      <use xlink:href="#DejaVuSans-65" transform="translate(56.677734 0)"/>
      <use xlink:href="#DejaVuSans-61" transform="translate(118.201172 0)"/>
      <use xlink:href="#DejaVuSans-72" transform="translate(179.480469 0)"/>
      <use xlink:href="#DejaVuSans-73" transform="translate(220.59375 0)"/>
      <use xlink:href="#DejaVuSans-6f" transform="translate(272.693359 0)"/>
      <use xlink:href="#DejaVuSans-6e" transform="translate(333.875 0)"/>
      <use xlink:href="#DejaVuSans-20" transform="translate(397.253906 0)"/>
      <use xlink:href="#DejaVuSans-72" transform="translate(429.041016 0)"/>
      <use xlink:href="#DejaVuSans-3a" transform="translate(468.404297 0)"/>
      <use xlink:href="#DejaVuSans-20" transform="translate(502.095703 0)"/>
      <use xlink:href="#DejaVuSans-30" transform="translate(533.882812 0)"/>
      <use xlink:href="#DejaVuSans-2e" transform="translate(597.505859 0)"/>
      <use xlink:href="#DejaVuSans-36" transform="translate(629.292969 0)"/>
      <use xlink:href="#DejaVuSans-36" transform="translate(692.916016 0)"/>
     </g>
     <!-- p-value: 2.93e-03 -->
     <g transform="translate(54.13 51.377375) scale(0.07 -0.07)">
      <defs>
       <path id="DejaVuSans-76" d="M 191 3500 
L 800 3500 
L 1894 563 
L 2988 3500 
L 3597 3500 
L 2284 0 
L 1503 0 
L 191 3500 
z
" transform="scale(0.015625)"/>
       <path id="DejaVuSans-75" d="M 544 1381 
L 544 3500 
L 1119 3500 
L 1119 1403 
Q 1119 906 1312 657 
Q 1506 409 1894 409 
Q 2359 409 2629 706 
Q 2900 1003 2900 1516 
L 2900 3500 
L 3475 3500 
L 3475 0 
L 2900 0 
L 2900 538 
Q 2691 219 2414 64 
Q 2138 -91 1772 -91 
Q 1169 -91 856 284 
Q 544 659 544 1381 
z
M 1991 3584 
L 1991 3584 
z
" transform="scale(0.015625)"/>
      </defs>
      <use xlink:href="#DejaVuSans-70"/>
      <use xlink:href="#DejaVuSans-2d" transform="translate(63.476562 0)"/>
      <use xlink:href="#DejaVuSans-76" transform="translate(96.935547 0)"/>
      <use xlink:href="#DejaVuSans-61" transform="translate(156.115234 0)"/>
      <use xlink:href="#DejaVuSans-6c" transform="translate(217.394531 0)"/>
      <use xlink:href="#DejaVuSans-75" transform="translate(245.177734 0)"/>
      <use xlink:href="#DejaVuSans-65" transform="translate(308.556641 0)"/>
      <use xlink:href="#DejaVuSans-3a" transform="translate(370.080078 0)"/>
      <use xlink:href="#DejaVuSans-20" transform="translate(403.771484 0)"/>
      <use xlink:href="#DejaVuSans-32" transform="translate(435.558594 0)"/>
      <use xlink:href="#DejaVuSans-2e" transform="translate(499.181641 0)"/>
      <use xlink:href="#DejaVuSans-39" transform="translate(530.96875 0)"/>
      <use xlink:href="#DejaVuSans-33" transform="translate(594.591797 0)"/>
      <use xlink:href="#DejaVuSans-65" transform="translate(658.214844 0)"/>
      <use xlink:href="#DejaVuSans-2d" transform="translate(719.738281 0)"/>
      <use xlink:href="#DejaVuSans-30" transform="translate(755.822266 0)"/>
      <use xlink:href="#DejaVuSans-33" transform="translate(819.445312 0)"/>
     </g>
     <!-- Spearman r: 0.10 -->
     <g transform="translate(54.13 59.215844) scale(0.07 -0.07)">
      <defs>
       <path id="DejaVuSans-6d" d="M 3328 2828 
Q 3544 3216 3844 3400 
Q 4144 3584 4550 3584 
Q 5097 3584 5394 3201 
Q 5691 2819 5691 2113 
L 5691 0 
L 5113 0 
L 5113 2094 
Q 5113 2597 4934 2840 
Q 4756 3084 4391 3084 
Q 3944 3084 3684 2787 
Q 3425 2491 3425 1978 
L 3425 0 
L 2847 0 
L 2847 2094 
Q 2847 2600 2669 2842 
Q 2491 3084 2119 3084 
Q 1678 3084 1418 2786 
Q 1159 2488 1159 1978 
L 1159 0 
L 581 0 
L 581 3500 
L 1159 3500 
L 1159 2956 
Q 1356 3278 1631 3431 
Q 1906 3584 2284 3584 
Q 2666 3584 2933 3390 
Q 3200 3197 3328 2828 
z
" transform="scale(0.015625)"/>
      </defs>
      <use xlink:href="#DejaVuSans-53"/>
      <use xlink:href="#DejaVuSans-70" transform="translate(63.476562 0)"/>
      <use xlink:href="#DejaVuSans-65" transform="translate(126.953125 0)"/>
      <use xlink:href="#DejaVuSans-61" transform="translate(188.476562 0)"/>
      <use xlink:href="#DejaVuSans-72" transform="translate(249.755859 0)"/>
      <use xlink:href="#DejaVuSans-6d" transform="translate(289.119141 0)"/>
      <use xlink:href="#DejaVuSans-61" transform="translate(386.53125 0)"/>
      <use xlink:href="#DejaVuSans-6e" transform="translate(447.810547 0)"/>
      <use xlink:href="#DejaVuSans-20" transform="translate(511.189453 0)"/>
      <use xlink:href="#DejaVuSans-72" transform="translate(542.976562 0)"/>
      <use xlink:href="#DejaVuSans-3a" transform="translate(582.339844 0)"/>
      <use xlink:href="#DejaVuSans-20" transform="translate(616.03125 0)"/>
      <use xlink:href="#DejaVuSans-30" transform="translate(647.818359 0)"/>
      <use xlink:href="#DejaVuSans-2e" transform="translate(711.441406 0)"/>
      <use xlink:href="#DejaVuSans-31" transform="translate(743.228516 0)"/>
      <use xlink:href="#DejaVuSans-30" transform="translate(806.851562 0)"/>
     </g>
     <!-- p-value: 6.86e-01 -->
     <g transform="translate(54.13 67.054313) scale(0.07 -0.07)">
      <use xlink:href="#DejaVuSans-70"/>
      <use xlink:href="#DejaVuSans-2d" transform="translate(63.476562 0)"/>
      <use xlink:href="#DejaVuSans-76" transform="translate(96.935547 0)"/>
      <use xlink:href="#DejaVuSans-61" transform="translate(156.115234 0)"/>
      <use xlink:href="#DejaVuSans-6c" transform="translate(217.394531 0)"/>
      <use xlink:href="#DejaVuSans-75" transform="translate(245.177734 0)"/>
      <use xlink:href="#DejaVuSans-65" transform="translate(308.556641 0)"/>
      <use xlink:href="#DejaVuSans-3a" transform="translate(370.080078 0)"/>
      <use xlink:href="#DejaVuSans-20" transform="translate(403.771484 0)"/>
      <use xlink:href="#DejaVuSans-36" transform="translate(435.558594 0)"/>
      <use xlink:href="#DejaVuSans-2e" transform="translate(499.181641 0)"/>
      <use xlink:href="#DejaVuSans-38" transform="translate(530.96875 0)"/>
      <use xlink:href="#DejaVuSans-36" transform="translate(594.591797 0)"/>
      <use xlink:href="#DejaVuSans-65" transform="translate(658.214844 0)"/>
      <use xlink:href="#DejaVuSans-2d" transform="translate(719.738281 0)"/>
      <use xlink:href="#DejaVuSans-30" transform="translate(755.822266 0)"/>
      <use xlink:href="#DejaVuSans-31" transform="translate(819.445312 0)"/>
     </g>
     <!-- Linear regression: -->
     <g transform="translate(54.13 74.892781) scale(0.07 -0.07)">
      <defs>
       <path id="DejaVuSans-4c" d="M 628 4666 
L 1259 4666 
L 1259 531 
L 3531 531 
L 3531 0 
L 628 0 
L 628 4666 
z
" transform="scale(0.015625)"/>
      </defs>
      <use xlink:href="#DejaVuSans-4c"/>
      <use xlink:href="#DejaVuSans-69" transform="translate(55.712891 0)"/>
      <use xlink:href="#DejaVuSans-6e" transform="translate(83.496094 0)"/>
      <use xlink:href="#DejaVuSans-65" transform="translate(146.875 0)"/>
      <use xlink:href="#DejaVuSans-61" transform="translate(208.398438 0)"/>
      <use xlink:href="#DejaVuSans-72" transform="translate(269.677734 0)"/>
      <use xlink:href="#DejaVuSans-20" transform="translate(310.791016 0)"/>
      <use xlink:href="#DejaVuSans-72" transform="translate(342.578125 0)"/>
      <use xlink:href="#DejaVuSans-65" transform="translate(381.441406 0)"/>
      <use xlink:href="#DejaVuSans-67" transform="translate(442.964844 0)"/>
      <use xlink:href="#DejaVuSans-72" transform="translate(506.441406 0)"/>
      <use xlink:href="#DejaVuSans-65" transform="translate(545.304688 0)"/>
      <use xlink:href="#DejaVuSans-73" transform="translate(606.828125 0)"/>
      <use xlink:href="#DejaVuSans-73" transform="translate(658.927734 0)"/>
      <use xlink:href="#DejaVuSans-69" transform="translate(711.027344 0)"/>
      <use xlink:href="#DejaVuSans-6f" transform="translate(738.810547 0)"/>
      <use xlink:href="#DejaVuSans-6e" transform="translate(799.992188 0)"/>
      <use xlink:href="#DejaVuSans-3a" transform="translate(863.371094 0)"/>
     </g>
     <!-- y = 7.75e-03x - 14.87 -->
     <g transform="translate(54.13 82.73125) scale(0.07 -0.07)">
      <defs>
       <path id="DejaVuSans-3d" d="M 678 2906 
L 4684 2906 
L 4684 2381 
L 678 2381 
L 678 2906 
z
M 678 1631 
L 4684 1631 
L 4684 1100 
L 678 1100 
L 678 1631 
z
" transform="scale(0.015625)"/>
       <path id="DejaVuSans-78" d="M 3513 3500 
L 2247 1797 
L 3578 0 
L 2900 0 
L 1881 1375 
L 863 0 
L 184 0 
L 1544 1831 
L 300 3500 
L 978 3500 
L 1906 2253 
L 2834 3500 
L 3513 3500 
z
" transform="scale(0.015625)"/>
      </defs>
      <use xlink:href="#DejaVuSans-79"/>
      <use xlink:href="#DejaVuSans-20" transform="translate(59.179688 0)"/>
      <use xlink:href="#DejaVuSans-3d" transform="translate(90.966797 0)"/>
      <use xlink:href="#DejaVuSans-20" transform="translate(174.755859 0)"/>
      <use xlink:href="#DejaVuSans-37" transform="translate(206.542969 0)"/>
      <use xlink:href="#DejaVuSans-2e" transform="translate(270.166016 0)"/>
      <use xlink:href="#DejaVuSans-37" transform="translate(301.953125 0)"/>
      <use xlink:href="#DejaVuSans-35" transform="translate(365.576172 0)"/>
      <use xlink:href="#DejaVuSans-65" transform="translate(429.199219 0)"/>
      <use xlink:href="#DejaVuSans-2d" transform="translate(490.722656 0)"/>
      <use xlink:href="#DejaVuSans-30" transform="translate(526.806641 0)"/>
      <use xlink:href="#DejaVuSans-33" transform="translate(590.429688 0)"/>
      <use xlink:href="#DejaVuSans-78" transform="translate(654.052734 0)"/>
      <use xlink:href="#DejaVuSans-20" transform="translate(713.232422 0)"/>
      <use xlink:href="#DejaVuSans-2d" transform="translate(745.019531 0)"/>
      <use xlink:href="#DejaVuSans-20" transform="translate(781.103516 0)"/>
      <use xlink:href="#DejaVuSans-31" transform="translate(812.890625 0)"/>
      <use xlink:href="#DejaVuSans-34" transform="translate(876.513672 0)"/>
      <use xlink:href="#DejaVuSans-2e" transform="translate(940.136719 0)"/>
      <use xlink:href="#DejaVuSans-38" transform="translate(971.923828 0)"/>
      <use xlink:href="#DejaVuSans-37" transform="translate(1035.546875 0)"/>
     </g>
     <!-- p-value: 2.93e-03 -->
     <g transform="translate(54.13 90.569719) scale(0.07 -0.07)">
      <use xlink:href="#DejaVuSans-70"/>
      <use xlink:href="#DejaVuSans-2d" transform="translate(63.476562 0)"/>
      <use xlink:href="#DejaVuSans-76" transform="translate(96.935547 0)"/>
      <use xlink:href="#DejaVuSans-61" transform="translate(156.115234 0)"/>
      <use xlink:href="#DejaVuSans-6c" transform="translate(217.394531 0)"/>
      <use xlink:href="#DejaVuSans-75" transform="translate(245.177734 0)"/>
      <use xlink:href="#DejaVuSans-65" transform="translate(308.556641 0)"/>
      <use xlink:href="#DejaVuSans-3a" transform="translate(370.080078 0)"/>
      <use xlink:href="#DejaVuSans-20" transform="translate(403.771484 0)"/>
      <use xlink:href="#DejaVuSans-32" transform="translate(435.558594 0)"/>
      <use xlink:href="#DejaVuSans-2e" transform="translate(499.181641 0)"/>
      <use xlink:href="#DejaVuSans-39" transform="translate(530.96875 0)"/>
      <use xlink:href="#DejaVuSans-33" transform="translate(594.591797 0)"/>
      <use xlink:href="#DejaVuSans-65" transform="translate(658.214844 0)"/>
      <use xlink:href="#DejaVuSans-2d" transform="translate(719.738281 0)"/>
      <use xlink:href="#DejaVuSans-30" transform="translate(755.822266 0)"/>
      <use xlink:href="#DejaVuSans-33" transform="translate(819.445312 0)"/>
     </g>
     <!-- R: 0.43 -->
     <g transform="translate(54.13 98.408188) scale(0.07 -0.07)">
      <defs>
       <path id="DejaVuSans-b2" d="M 838 2444 
L 2163 2444 
L 2163 2088 
L 294 2088 
L 294 2431 
Q 400 2528 597 2703 
Q 1672 3656 1672 3950 
Q 1672 4156 1509 4282 
Q 1347 4409 1081 4409 
Q 919 4409 728 4354 
Q 538 4300 313 4191 
L 313 4575 
Q 553 4663 761 4706 
Q 969 4750 1147 4750 
Q 1600 4750 1872 4544 
Q 2144 4338 2144 4000 
Q 2144 3566 1109 2678 
Q 934 2528 838 2444 
z
" transform="scale(0.015625)"/>
      </defs>
      <use xlink:href="#DejaVuSans-52"/>
      <use xlink:href="#DejaVuSans-b2" transform="translate(69.482422 0)"/>
      <use xlink:href="#DejaVuSans-3a" transform="translate(109.570312 0)"/>
      <use xlink:href="#DejaVuSans-20" transform="translate(143.261719 0)"/>
      <use xlink:href="#DejaVuSans-30" transform="translate(175.048828 0)"/>
      <use xlink:href="#DejaVuSans-2e" transform="translate(238.671875 0)"/>
      <use xlink:href="#DejaVuSans-34" transform="translate(270.458984 0)"/>
      <use xlink:href="#DejaVuSans-33" transform="translate(334.082031 0)"/>
     </g>
    </g>
   </g>
  </g>
 </g>
 <defs>
  <clipPath id="p307a7227fb">
   <rect x="42.23" y="31.92" width="234.97" height="109.72"/>
  </clipPath>
 </defs>
</svg>
