<?xml version="1.0" encoding="utf-8" standalone="no"?>
<!DOCTYPE svg PUBLIC "-//W3C//DTD SVG 1.1//EN"
  "http://www.w3.org/Graphics/SVG/1.1/DTD/svg11.dtd">
<svg xmlns:xlink="http://www.w3.org/1999/xlink" width="720pt" height="1080pt" viewBox="0 0 720 1080" xmlns="http://www.w3.org/2000/svg" version="1.1">
 <metadata>
  <rdf:RDF xmlns:dc="http://purl.org/dc/elements/1.1/" xmlns:cc="http://creativecommons.org/ns#" xmlns:rdf="http://www.w3.org/1999/02/22-rdf-syntax-ns#">
   <cc:Work>
    <dc:type rdf:resource="http://purl.org/dc/dcmitype/StillImage"/>
    <dc:date>2024-12-19T17:51:42.355009</dc:date>
    <dc:format>image/svg+xml</dc:format>
    <dc:creator>
     <cc:Agent>
      <dc:title>Matplotlib v3.8.0, https://matplotlib.org/</dc:title>
     </cc:Agent>
    </dc:creator>
   </cc:Work>
  </rdf:RDF>
 </metadata>
 <defs>
  <style type="text/css">*{stroke-linejoin: round; stroke-linecap: butt}</style>
 </defs>
 <g id="figure_1">
  <g id="patch_1">
   <path d="M 0 1080 
L 720 1080 
L 720 0 
L 0 0 
z
" style="fill: #ffffff"/>
  </g>
  <g id="axes_1">
   <g id="patch_2">
    <path d="M 62.57 374.68 
L 709.2 374.68 
L 709.2 101.76 
L 62.57 101.76 
z
" style="fill: #ffffff"/>
   </g>
   <g id="PathCollection_1">
    <defs>
     <path id="m6f39daf162" d="M 0 3 
C 0.795609 3 1.55874 2.683901 2.12132 2.12132 
C 2.683901 1.55874 3 0.795609 3 0 
C 3 -0.795609 2.683901 -1.55874 2.12132 -2.12132 
C 1.55874 -2.683901 0.795609 -3 0 -3 
C -0.795609 -3 -1.55874 -2.683901 -2.12132 -2.12132 
C -2.683901 -1.55874 -3 -0.795609 -3 0 
C -3 0.795609 -2.683901 1.55874 -2.12132 2.12132 
C -1.55874 2.683901 -0.795609 3 0 3 
z
" style="stroke: #ffffff; stroke-width: 0.48"/>
    </defs>
    <g clip-path="url(#p828e927dcd)">
     <use xlink:href="#m6f39daf162" x="331.454865" y="268.611618" style="fill: #0000ff; stroke: #ffffff; stroke-width: 0.48"/>
     <use xlink:href="#m6f39daf162" x="324.197514" y="268.706927" style="fill: #0000ff; stroke: #ffffff; stroke-width: 0.48"/>
     <use xlink:href="#m6f39daf162" x="316.940163" y="270.232891" style="fill: #0000ff; stroke: #ffffff; stroke-width: 0.48"/>
     <use xlink:href="#m6f39daf162" x="454.829837" y="270.037732" style="fill: #0000ff; stroke: #ffffff; stroke-width: 0.48"/>
     <use xlink:href="#m6f39daf162" x="679.807727" y="270.301764" style="fill: #0000ff; stroke: #ffffff; stroke-width: 0.48"/>
     <use xlink:href="#m6f39daf162" x="498.373945" y="271.890914" style="fill: #0000ff; stroke: #ffffff; stroke-width: 0.48"/>
     <use xlink:href="#m6f39daf162" x="382.256324" y="274.173103" style="fill: #0000ff; stroke: #ffffff; stroke-width: 0.48"/>
     <use xlink:href="#m6f39daf162" x="396.771027" y="277.274177" style="fill: #0000ff; stroke: #ffffff; stroke-width: 0.48"/>
     <use xlink:href="#m6f39daf162" x="396.771027" y="277.142104" style="fill: #0000ff; stroke: #ffffff; stroke-width: 0.48"/>
     <use xlink:href="#m6f39daf162" x="404.028378" y="276.8813" style="fill: #0000ff; stroke: #ffffff; stroke-width: 0.48"/>
     <use xlink:href="#m6f39daf162" x="418.543081" y="276.490608" style="fill: #0000ff; stroke: #ffffff; stroke-width: 0.48"/>
     <use xlink:href="#m6f39daf162" x="447.572486" y="277.101488" style="fill: #0000ff; stroke: #ffffff; stroke-width: 0.48"/>
     <use xlink:href="#m6f39daf162" x="396.771027" y="276.647363" style="fill: #0000ff; stroke: #ffffff; stroke-width: 0.48"/>
     <use xlink:href="#m6f39daf162" x="505.631296" y="274.350377" style="fill: #0000ff; stroke: #ffffff; stroke-width: 0.48"/>
     <use xlink:href="#m6f39daf162" x="273.396055" y="278.556387" style="fill: #0000ff; stroke: #ffffff; stroke-width: 0.48"/>
     <use xlink:href="#m6f39daf162" x="636.26362" y="276.732532" style="fill: #0000ff; stroke: #ffffff; stroke-width: 0.48"/>
     <use xlink:href="#m6f39daf162" x="665.293025" y="114.165455" style="fill: #0000ff; stroke: #ffffff; stroke-width: 0.48"/>
     <use xlink:href="#m6f39daf162" x="91.962273" y="319.660592" style="fill: #0000ff; stroke: #ffffff; stroke-width: 0.48"/>
     <use xlink:href="#m6f39daf162" x="541.918053" y="267.543546" style="fill: #0000ff; stroke: #ffffff; stroke-width: 0.48"/>
     <use xlink:href="#m6f39daf162" x="498.373945" y="267.17862" style="fill: #0000ff; stroke: #ffffff; stroke-width: 0.48"/>
     <use xlink:href="#m6f39daf162" x="280.653406" y="272.650919" style="fill: #0000ff; stroke: #ffffff; stroke-width: 0.48"/>
     <use xlink:href="#m6f39daf162" x="287.910758" y="272.477185" style="fill: #0000ff; stroke: #ffffff; stroke-width: 0.48"/>
    </g>
   </g>
   <g id="PolyCollection_1">
    <path d="M 91.962273 272.743626 
L 91.962273 362.274545 
L 97.900106 360.347101 
L 103.837938 358.273486 
L 109.775771 356.199871 
L 115.713604 354.126257 
L 121.651437 352.052642 
L 127.58927 350.22052 
L 133.527103 348.408245 
L 139.464936 346.769002 
L 145.402769 344.838688 
L 151.340601 342.992392 
L 157.278434 341.180929 
L 163.216267 339.363345 
L 169.1541 337.513972 
L 175.091933 335.369894 
L 181.029766 333.225815 
L 186.967599 331.354568 
L 192.905432 329.657254 
L 198.843264 327.95994 
L 204.781097 326.262626 
L 210.71893 324.565311 
L 216.656763 322.867997 
L 222.594596 321.170683 
L 228.532429 319.457101 
L 234.470262 317.650972 
L 240.408095 315.844843 
L 246.345927 314.213902 
L 252.28376 312.254833 
L 258.221593 310.413808 
L 264.159426 308.516728 
L 270.097259 306.778734 
L 276.035092 305.037998 
L 281.972925 303.179523 
L 287.910758 301.372615 
L 293.84859 299.564532 
L 299.786423 297.966591 
L 305.724256 296.108336 
L 311.662089 294.324186 
L 317.599922 292.97606 
L 323.537755 291.345602 
L 329.475588 290.038595 
L 335.413421 288.54688 
L 341.351253 286.707507 
L 347.289086 285.218554 
L 353.226919 284.064525 
L 359.164752 282.930218 
L 365.102585 281.838642 
L 371.040418 281.071964 
L 376.978251 280.483678 
L 382.916084 279.845901 
L 388.853916 279.302491 
L 394.791749 278.847921 
L 400.729582 278.399723 
L 406.667415 277.989002 
L 412.605248 277.652784 
L 418.543081 277.322272 
L 424.480914 276.968939 
L 430.418747 276.631712 
L 436.356579 276.280579 
L 442.294412 275.799977 
L 448.232245 275.439492 
L 454.170078 275.09436 
L 460.107911 274.772619 
L 466.045744 274.634753 
L 471.983577 274.469862 
L 477.92141 274.38702 
L 483.859242 274.266285 
L 489.797075 274.213754 
L 495.734908 274.154596 
L 501.672741 274.144719 
L 507.610574 273.977701 
L 513.548407 273.94943 
L 519.48624 273.933985 
L 525.424073 273.91854 
L 531.361905 273.901977 
L 537.299738 273.885243 
L 543.237571 273.86851 
L 549.175404 273.851776 
L 555.113237 273.852853 
L 561.05107 273.820675 
L 566.988903 273.803972 
L 572.926736 273.787201 
L 578.864568 273.796866 
L 584.802401 273.771681 
L 590.740234 273.739555 
L 596.678067 273.72554 
L 602.6159 273.740388 
L 608.553733 273.754546 
L 614.491566 273.768703 
L 620.429399 273.782145 
L 626.367231 273.756045 
L 632.305064 273.729393 
L 638.242897 273.707563 
L 644.18073 273.714942 
L 650.118563 273.715865 
L 656.056396 273.703863 
L 661.994229 273.706801 
L 667.932062 273.70712 
L 673.869894 273.712051 
L 679.807727 273.725982 
L 679.807727 173.69235 
L 679.807727 173.69235 
L 673.869894 175.412995 
L 667.932062 177.334392 
L 661.994229 179.255789 
L 656.056396 181.184468 
L 650.118563 183.114035 
L 644.18073 185.043601 
L 638.242897 186.893019 
L 632.305064 188.679676 
L 626.367231 190.672649 
L 620.429399 192.665623 
L 614.491566 194.564249 
L 608.553733 196.319581 
L 602.6159 198.079029 
L 596.678067 199.842049 
L 590.740234 201.60507 
L 584.802401 203.482174 
L 578.864568 205.253069 
L 572.926736 206.876062 
L 566.988903 208.628742 
L 561.05107 210.387529 
L 555.113237 212.19823 
L 549.175404 214.129857 
L 543.237571 216.144082 
L 537.299738 218.117459 
L 531.361905 220.093789 
L 525.424073 222.331905 
L 519.48624 224.820681 
L 513.548407 226.780865 
L 507.610574 228.293085 
L 501.672741 229.97241 
L 495.734908 231.935821 
L 489.797075 233.904473 
L 483.859242 235.88076 
L 477.92141 237.744855 
L 471.983577 239.429329 
L 466.045744 241.142114 
L 460.107911 242.882163 
L 454.170078 244.66413 
L 448.232245 246.588129 
L 442.294412 248.202869 
L 436.356579 250.176822 
L 430.418747 252.037649 
L 424.480914 253.673311 
L 418.543081 255.511793 
L 412.605248 257.060621 
L 406.667415 258.665 
L 400.729582 260.099287 
L 394.791749 261.462501 
L 388.853916 262.954497 
L 382.916084 264.259765 
L 376.978251 265.82934 
L 371.040418 267.345082 
L 365.102585 268.673471 
L 359.164752 270.11573 
L 353.226919 271.271947 
L 347.289086 272.124298 
L 341.351253 272.448162 
L 335.413421 272.67674 
L 329.475588 272.822237 
L 323.537755 272.876593 
L 317.599922 272.923734 
L 311.662089 272.917601 
L 305.724256 272.904367 
L 299.786423 272.820853 
L 293.84859 272.841241 
L 287.910758 272.86389 
L 281.972925 272.866543 
L 276.035092 272.875624 
L 270.097259 272.869609 
L 264.159426 272.869709 
L 258.221593 272.857043 
L 252.28376 272.885343 
L 246.345927 272.913643 
L 240.408095 272.941943 
L 234.470262 272.932256 
L 228.532429 272.907235 
L 222.594596 272.882213 
L 216.656763 272.857192 
L 210.71893 272.832171 
L 204.781097 272.80715 
L 198.843264 272.787662 
L 192.905432 272.781076 
L 186.967599 272.80553 
L 181.029766 272.830307 
L 175.091933 272.855267 
L 169.1541 272.815197 
L 163.216267 272.818971 
L 157.278434 272.831479 
L 151.340601 272.837306 
L 145.402769 272.807738 
L 139.464936 272.778169 
L 133.527103 272.748601 
L 127.58927 272.737003 
L 121.651437 272.737634 
L 115.713604 272.738595 
L 109.775771 272.739773 
L 103.837938 272.741057 
L 97.900106 272.742342 
L 91.962273 272.743626 
z
" clip-path="url(#p828e927dcd)" style="fill: #ff0000; fill-opacity: 0.15"/>
   </g>
   <g id="matplotlib.axis_1">
    <g id="xtick_1">
     <g id="line2d_1">
      <defs>
       <path id="m1cbf264a51" d="M 0 0 
L 0 3.5 
" style="stroke: #000000; stroke-width: 0.8"/>
      </defs>
      <g>
       <use xlink:href="#m1cbf264a51" x="62.932868" y="374.68" style="stroke: #000000; stroke-width: 0.8"/>
      </g>
     </g>
     <g id="text_1">
      <!-- 1930 -->
      <g transform="translate(50.207868 389.278438) scale(0.1 -0.1)">
       <defs>
        <path id="DejaVuSans-31" d="M 794 531 
L 1825 531 
L 1825 4091 
L 703 3866 
L 703 4441 
L 1819 4666 
L 2450 4666 
L 2450 531 
L 3481 531 
L 3481 0 
L 794 0 
L 794 531 
z
" transform="scale(0.015625)"/>
        <path id="DejaVuSans-39" d="M 703 97 
L 703 672 
Q 941 559 1184 500 
Q 1428 441 1663 441 
Q 2288 441 2617 861 
Q 2947 1281 2994 2138 
Q 2813 1869 2534 1725 
Q 2256 1581 1919 1581 
Q 1219 1581 811 2004 
Q 403 2428 403 3163 
Q 403 3881 828 4315 
Q 1253 4750 1959 4750 
Q 2769 4750 3195 4129 
Q 3622 3509 3622 2328 
Q 3622 1225 3098 567 
Q 2575 -91 1691 -91 
Q 1453 -91 1209 -44 
Q 966 3 703 97 
z
M 1959 2075 
Q 2384 2075 2632 2365 
Q 2881 2656 2881 3163 
Q 2881 3666 2632 3958 
Q 2384 4250 1959 4250 
Q 1534 4250 1286 3958 
Q 1038 3666 1038 3163 
Q 1038 2656 1286 2365 
Q 1534 2075 1959 2075 
z
" transform="scale(0.015625)"/>
        <path id="DejaVuSans-33" d="M 2597 2516 
Q 3050 2419 3304 2112 
Q 3559 1806 3559 1356 
Q 3559 666 3084 287 
Q 2609 -91 1734 -91 
Q 1441 -91 1130 -33 
Q 819 25 488 141 
L 488 750 
Q 750 597 1062 519 
Q 1375 441 1716 441 
Q 2309 441 2620 675 
Q 2931 909 2931 1356 
Q 2931 1769 2642 2001 
Q 2353 2234 1838 2234 
L 1294 2234 
L 1294 2753 
L 1863 2753 
Q 2328 2753 2575 2939 
Q 2822 3125 2822 3475 
Q 2822 3834 2567 4026 
Q 2313 4219 1838 4219 
Q 1578 4219 1281 4162 
Q 984 4106 628 3988 
L 628 4550 
Q 988 4650 1302 4700 
Q 1616 4750 1894 4750 
Q 2613 4750 3031 4423 
Q 3450 4097 3450 3541 
Q 3450 3153 3228 2886 
Q 3006 2619 2597 2516 
z
" transform="scale(0.015625)"/>
        <path id="DejaVuSans-30" d="M 2034 4250 
Q 1547 4250 1301 3770 
Q 1056 3291 1056 2328 
Q 1056 1369 1301 889 
Q 1547 409 2034 409 
Q 2525 409 2770 889 
Q 3016 1369 3016 2328 
Q 3016 3291 2770 3770 
Q 2525 4250 2034 4250 
z
M 2034 4750 
Q 2819 4750 3233 4129 
Q 3647 3509 3647 2328 
Q 3647 1150 3233 529 
Q 2819 -91 2034 -91 
Q 1250 -91 836 529 
Q 422 1150 422 2328 
Q 422 3509 836 4129 
Q 1250 4750 2034 4750 
z
" transform="scale(0.015625)"/>
       </defs>
       <use xlink:href="#DejaVuSans-31"/>
       <use xlink:href="#DejaVuSans-39" x="63.623047"/>
       <use xlink:href="#DejaVuSans-33" x="127.246094"/>
       <use xlink:href="#DejaVuSans-30" x="190.869141"/>
      </g>
     </g>
    </g>
    <g id="xtick_2">
     <g id="line2d_2">
      <g>
       <use xlink:href="#m1cbf264a51" x="135.50638" y="374.68" style="stroke: #000000; stroke-width: 0.8"/>
      </g>
     </g>
     <g id="text_2">
      <!-- 1940 -->
      <g transform="translate(122.78138 389.278438) scale(0.1 -0.1)">
       <defs>
        <path id="DejaVuSans-34" d="M 2419 4116 
L 825 1625 
L 2419 1625 
L 2419 4116 
z
M 2253 4666 
L 3047 4666 
L 3047 1625 
L 3713 1625 
L 3713 1100 
L 3047 1100 
L 3047 0 
L 2419 0 
L 2419 1100 
L 313 1100 
L 313 1709 
L 2253 4666 
z
" transform="scale(0.015625)"/>
       </defs>
       <use xlink:href="#DejaVuSans-31"/>
       <use xlink:href="#DejaVuSans-39" x="63.623047"/>
       <use xlink:href="#DejaVuSans-34" x="127.246094"/>
       <use xlink:href="#DejaVuSans-30" x="190.869141"/>
      </g>
     </g>
    </g>
    <g id="xtick_3">
     <g id="line2d_3">
      <g>
       <use xlink:href="#m1cbf264a51" x="208.079893" y="374.68" style="stroke: #000000; stroke-width: 0.8"/>
      </g>
     </g>
     <g id="text_3">
      <!-- 1950 -->
      <g transform="translate(195.354893 389.278438) scale(0.1 -0.1)">
       <defs>
        <path id="DejaVuSans-35" d="M 691 4666 
L 3169 4666 
L 3169 4134 
L 1269 4134 
L 1269 2991 
Q 1406 3038 1543 3061 
Q 1681 3084 1819 3084 
Q 2600 3084 3056 2656 
Q 3513 2228 3513 1497 
Q 3513 744 3044 326 
Q 2575 -91 1722 -91 
Q 1428 -91 1123 -41 
Q 819 9 494 109 
L 494 744 
Q 775 591 1075 516 
Q 1375 441 1709 441 
Q 2250 441 2565 725 
Q 2881 1009 2881 1497 
Q 2881 1984 2565 2268 
Q 2250 2553 1709 2553 
Q 1456 2553 1204 2497 
Q 953 2441 691 2322 
L 691 4666 
z
" transform="scale(0.015625)"/>
       </defs>
       <use xlink:href="#DejaVuSans-31"/>
       <use xlink:href="#DejaVuSans-39" x="63.623047"/>
       <use xlink:href="#DejaVuSans-35" x="127.246094"/>
       <use xlink:href="#DejaVuSans-30" x="190.869141"/>
      </g>
     </g>
    </g>
    <g id="xtick_4">
     <g id="line2d_4">
      <g>
       <use xlink:href="#m1cbf264a51" x="280.653406" y="374.68" style="stroke: #000000; stroke-width: 0.8"/>
      </g>
     </g>
     <g id="text_4">
      <!-- 1960 -->
      <g transform="translate(267.928406 389.278438) scale(0.1 -0.1)">
       <defs>
        <path id="DejaVuSans-36" d="M 2113 2584 
Q 1688 2584 1439 2293 
Q 1191 2003 1191 1497 
Q 1191 994 1439 701 
Q 1688 409 2113 409 
Q 2538 409 2786 701 
Q 3034 994 3034 1497 
Q 3034 2003 2786 2293 
Q 2538 2584 2113 2584 
z
M 3366 4563 
L 3366 3988 
Q 3128 4100 2886 4159 
Q 2644 4219 2406 4219 
Q 1781 4219 1451 3797 
Q 1122 3375 1075 2522 
Q 1259 2794 1537 2939 
Q 1816 3084 2150 3084 
Q 2853 3084 3261 2657 
Q 3669 2231 3669 1497 
Q 3669 778 3244 343 
Q 2819 -91 2113 -91 
Q 1303 -91 875 529 
Q 447 1150 447 2328 
Q 447 3434 972 4092 
Q 1497 4750 2381 4750 
Q 2619 4750 2861 4703 
Q 3103 4656 3366 4563 
z
" transform="scale(0.015625)"/>
       </defs>
       <use xlink:href="#DejaVuSans-31"/>
       <use xlink:href="#DejaVuSans-39" x="63.623047"/>
       <use xlink:href="#DejaVuSans-36" x="127.246094"/>
       <use xlink:href="#DejaVuSans-30" x="190.869141"/>
      </g>
     </g>
    </g>
    <g id="xtick_5">
     <g id="line2d_5">
      <g>
       <use xlink:href="#m1cbf264a51" x="353.226919" y="374.68" style="stroke: #000000; stroke-width: 0.8"/>
      </g>
     </g>
     <g id="text_5">
      <!-- 1970 -->
      <g transform="translate(340.501919 389.278438) scale(0.1 -0.1)">
       <defs>
        <path id="DejaVuSans-37" d="M 525 4666 
L 3525 4666 
L 3525 4397 
L 1831 0 
L 1172 0 
L 2766 4134 
L 525 4134 
L 525 4666 
z
" transform="scale(0.015625)"/>
       </defs>
       <use xlink:href="#DejaVuSans-31"/>
       <use xlink:href="#DejaVuSans-39" x="63.623047"/>
       <use xlink:href="#DejaVuSans-37" x="127.246094"/>
       <use xlink:href="#DejaVuSans-30" x="190.869141"/>
      </g>
     </g>
    </g>
    <g id="xtick_6">
     <g id="line2d_6">
      <g>
       <use xlink:href="#m1cbf264a51" x="425.800432" y="374.68" style="stroke: #000000; stroke-width: 0.8"/>
      </g>
     </g>
     <g id="text_6">
      <!-- 1980 -->
      <g transform="translate(413.075432 389.278438) scale(0.1 -0.1)">
       <defs>
        <path id="DejaVuSans-38" d="M 2034 2216 
Q 1584 2216 1326 1975 
Q 1069 1734 1069 1313 
Q 1069 891 1326 650 
Q 1584 409 2034 409 
Q 2484 409 2743 651 
Q 3003 894 3003 1313 
Q 3003 1734 2745 1975 
Q 2488 2216 2034 2216 
z
M 1403 2484 
Q 997 2584 770 2862 
Q 544 3141 544 3541 
Q 544 4100 942 4425 
Q 1341 4750 2034 4750 
Q 2731 4750 3128 4425 
Q 3525 4100 3525 3541 
Q 3525 3141 3298 2862 
Q 3072 2584 2669 2484 
Q 3125 2378 3379 2068 
Q 3634 1759 3634 1313 
Q 3634 634 3220 271 
Q 2806 -91 2034 -91 
Q 1263 -91 848 271 
Q 434 634 434 1313 
Q 434 1759 690 2068 
Q 947 2378 1403 2484 
z
M 1172 3481 
Q 1172 3119 1398 2916 
Q 1625 2713 2034 2713 
Q 2441 2713 2670 2916 
Q 2900 3119 2900 3481 
Q 2900 3844 2670 4047 
Q 2441 4250 2034 4250 
Q 1625 4250 1398 4047 
Q 1172 3844 1172 3481 
z
" transform="scale(0.015625)"/>
       </defs>
       <use xlink:href="#DejaVuSans-31"/>
       <use xlink:href="#DejaVuSans-39" x="63.623047"/>
       <use xlink:href="#DejaVuSans-38" x="127.246094"/>
       <use xlink:href="#DejaVuSans-30" x="190.869141"/>
      </g>
     </g>
    </g>
    <g id="xtick_7">
     <g id="line2d_7">
      <g>
       <use xlink:href="#m1cbf264a51" x="498.373945" y="374.68" style="stroke: #000000; stroke-width: 0.8"/>
      </g>
     </g>
     <g id="text_7">
      <!-- 1990 -->
      <g transform="translate(485.648945 389.278438) scale(0.1 -0.1)">
       <use xlink:href="#DejaVuSans-31"/>
       <use xlink:href="#DejaVuSans-39" x="63.623047"/>
       <use xlink:href="#DejaVuSans-39" x="127.246094"/>
       <use xlink:href="#DejaVuSans-30" x="190.869141"/>
      </g>
     </g>
    </g>
    <g id="xtick_8">
     <g id="line2d_8">
      <g>
       <use xlink:href="#m1cbf264a51" x="570.947458" y="374.68" style="stroke: #000000; stroke-width: 0.8"/>
      </g>
     </g>
     <g id="text_8">
      <!-- 2000 -->
      <g transform="translate(558.222458 389.278438) scale(0.1 -0.1)">
       <defs>
        <path id="DejaVuSans-32" d="M 1228 531 
L 3431 531 
L 3431 0 
L 469 0 
L 469 531 
Q 828 903 1448 1529 
Q 2069 2156 2228 2338 
Q 2531 2678 2651 2914 
Q 2772 3150 2772 3378 
Q 2772 3750 2511 3984 
Q 2250 4219 1831 4219 
Q 1534 4219 1204 4116 
Q 875 4013 500 3803 
L 500 4441 
Q 881 4594 1212 4672 
Q 1544 4750 1819 4750 
Q 2544 4750 2975 4387 
Q 3406 4025 3406 3419 
Q 3406 3131 3298 2873 
Q 3191 2616 2906 2266 
Q 2828 2175 2409 1742 
Q 1991 1309 1228 531 
z
" transform="scale(0.015625)"/>
       </defs>
       <use xlink:href="#DejaVuSans-32"/>
       <use xlink:href="#DejaVuSans-30" x="63.623047"/>
       <use xlink:href="#DejaVuSans-30" x="127.246094"/>
       <use xlink:href="#DejaVuSans-30" x="190.869141"/>
      </g>
     </g>
    </g>
    <g id="xtick_9">
     <g id="line2d_9">
      <g>
       <use xlink:href="#m1cbf264a51" x="643.520971" y="374.68" style="stroke: #000000; stroke-width: 0.8"/>
      </g>
     </g>
     <g id="text_9">
      <!-- 2010 -->
      <g transform="translate(630.795971 389.278438) scale(0.1 -0.1)">
       <use xlink:href="#DejaVuSans-32"/>
       <use xlink:href="#DejaVuSans-30" x="63.623047"/>
       <use xlink:href="#DejaVuSans-31" x="127.246094"/>
       <use xlink:href="#DejaVuSans-30" x="190.869141"/>
      </g>
     </g>
    </g>
    <g id="text_10">
     <!-- date -->
     <g transform="translate(374.61 402.956563) scale(0.1 -0.1)">
      <defs>
       <path id="DejaVuSans-64" d="M 2906 2969 
L 2906 4863 
L 3481 4863 
L 3481 0 
L 2906 0 
L 2906 525 
Q 2725 213 2448 61 
Q 2172 -91 1784 -91 
Q 1150 -91 751 415 
Q 353 922 353 1747 
Q 353 2572 751 3078 
Q 1150 3584 1784 3584 
Q 2172 3584 2448 3432 
Q 2725 3281 2906 2969 
z
M 947 1747 
Q 947 1113 1208 752 
Q 1469 391 1925 391 
Q 2381 391 2643 752 
Q 2906 1113 2906 1747 
Q 2906 2381 2643 2742 
Q 2381 3103 1925 3103 
Q 1469 3103 1208 2742 
Q 947 2381 947 1747 
z
" transform="scale(0.015625)"/>
       <path id="DejaVuSans-61" d="M 2194 1759 
Q 1497 1759 1228 1600 
Q 959 1441 959 1056 
Q 959 750 1161 570 
Q 1363 391 1709 391 
Q 2188 391 2477 730 
Q 2766 1069 2766 1631 
L 2766 1759 
L 2194 1759 
z
M 3341 1997 
L 3341 0 
L 2766 0 
L 2766 531 
Q 2569 213 2275 61 
Q 1981 -91 1556 -91 
Q 1019 -91 701 211 
Q 384 513 384 1019 
Q 384 1609 779 1909 
Q 1175 2209 1959 2209 
L 2766 2209 
L 2766 2266 
Q 2766 2663 2505 2880 
Q 2244 3097 1772 3097 
Q 1472 3097 1187 3025 
Q 903 2953 641 2809 
L 641 3341 
Q 956 3463 1253 3523 
Q 1550 3584 1831 3584 
Q 2591 3584 2966 3190 
Q 3341 2797 3341 1997 
z
" transform="scale(0.015625)"/>
       <path id="DejaVuSans-74" d="M 1172 4494 
L 1172 3500 
L 2356 3500 
L 2356 3053 
L 1172 3053 
L 1172 1153 
Q 1172 725 1289 603 
Q 1406 481 1766 481 
L 2356 481 
L 2356 0 
L 1766 0 
Q 1100 0 847 248 
Q 594 497 594 1153 
L 594 3053 
L 172 3053 
L 172 3500 
L 594 3500 
L 594 4494 
L 1172 4494 
z
" transform="scale(0.015625)"/>
       <path id="DejaVuSans-65" d="M 3597 1894 
L 3597 1613 
L 953 1613 
Q 991 1019 1311 708 
Q 1631 397 2203 397 
Q 2534 397 2845 478 
Q 3156 559 3463 722 
L 3463 178 
Q 3153 47 2828 -22 
Q 2503 -91 2169 -91 
Q 1331 -91 842 396 
Q 353 884 353 1716 
Q 353 2575 817 3079 
Q 1281 3584 2069 3584 
Q 2775 3584 3186 3129 
Q 3597 2675 3597 1894 
z
M 3022 2063 
Q 3016 2534 2758 2815 
Q 2500 3097 2075 3097 
Q 1594 3097 1305 2825 
Q 1016 2553 972 2059 
L 3022 2063 
z
" transform="scale(0.015625)"/>
      </defs>
      <use xlink:href="#DejaVuSans-64"/>
      <use xlink:href="#DejaVuSans-61" x="63.476562"/>
      <use xlink:href="#DejaVuSans-74" x="124.755859"/>
      <use xlink:href="#DejaVuSans-65" x="163.964844"/>
     </g>
    </g>
   </g>
   <g id="matplotlib.axis_2">
    <g id="ytick_1">
     <g id="line2d_10">
      <defs>
       <path id="m02af04977b" d="M 0 0 
L -3.5 0 
" style="stroke: #000000; stroke-width: 0.8"/>
      </defs>
      <g>
       <use xlink:href="#m02af04977b" x="62.57" y="350.993384" style="stroke: #000000; stroke-width: 0.8"/>
      </g>
     </g>
     <g id="text_11">
      <!-- −0.25 -->
      <g transform="translate(24.924688 354.792603) scale(0.1 -0.1)">
       <defs>
        <path id="DejaVuSans-2212" d="M 678 2272 
L 4684 2272 
L 4684 1741 
L 678 1741 
L 678 2272 
z
" transform="scale(0.015625)"/>
        <path id="DejaVuSans-2e" d="M 684 794 
L 1344 794 
L 1344 0 
L 684 0 
L 684 794 
z
" transform="scale(0.015625)"/>
       </defs>
       <use xlink:href="#DejaVuSans-2212"/>
       <use xlink:href="#DejaVuSans-30" x="83.789062"/>
       <use xlink:href="#DejaVuSans-2e" x="147.412109"/>
       <use xlink:href="#DejaVuSans-32" x="179.199219"/>
       <use xlink:href="#DejaVuSans-35" x="242.822266"/>
      </g>
     </g>
    </g>
    <g id="ytick_2">
     <g id="line2d_11">
      <g>
       <use xlink:href="#m02af04977b" x="62.57" y="319.660592" style="stroke: #000000; stroke-width: 0.8"/>
      </g>
     </g>
     <g id="text_12">
      <!-- 0.00 -->
      <g transform="translate(33.304375 323.459811) scale(0.1 -0.1)">
       <use xlink:href="#DejaVuSans-30"/>
       <use xlink:href="#DejaVuSans-2e" x="63.623047"/>
       <use xlink:href="#DejaVuSans-30" x="95.410156"/>
       <use xlink:href="#DejaVuSans-30" x="159.033203"/>
      </g>
     </g>
    </g>
    <g id="ytick_3">
     <g id="line2d_12">
      <g>
       <use xlink:href="#m02af04977b" x="62.57" y="288.327799" style="stroke: #000000; stroke-width: 0.8"/>
      </g>
     </g>
     <g id="text_13">
      <!-- 0.25 -->
      <g transform="translate(33.304375 292.127018) scale(0.1 -0.1)">
       <use xlink:href="#DejaVuSans-30"/>
       <use xlink:href="#DejaVuSans-2e" x="63.623047"/>
       <use xlink:href="#DejaVuSans-32" x="95.410156"/>
       <use xlink:href="#DejaVuSans-35" x="159.033203"/>
      </g>
     </g>
    </g>
    <g id="ytick_4">
     <g id="line2d_13">
      <g>
       <use xlink:href="#m02af04977b" x="62.57" y="256.995006" style="stroke: #000000; stroke-width: 0.8"/>
      </g>
     </g>
     <g id="text_14">
      <!-- 0.50 -->
      <g transform="translate(33.304375 260.794225) scale(0.1 -0.1)">
       <use xlink:href="#DejaVuSans-30"/>
       <use xlink:href="#DejaVuSans-2e" x="63.623047"/>
       <use xlink:href="#DejaVuSans-35" x="95.410156"/>
       <use xlink:href="#DejaVuSans-30" x="159.033203"/>
      </g>
     </g>
    </g>
    <g id="ytick_5">
     <g id="line2d_14">
      <g>
       <use xlink:href="#m02af04977b" x="62.57" y="225.662214" style="stroke: #000000; stroke-width: 0.8"/>
      </g>
     </g>
     <g id="text_15">
      <!-- 0.75 -->
      <g transform="translate(33.304375 229.461432) scale(0.1 -0.1)">
       <use xlink:href="#DejaVuSans-30"/>
       <use xlink:href="#DejaVuSans-2e" x="63.623047"/>
       <use xlink:href="#DejaVuSans-37" x="95.410156"/>
       <use xlink:href="#DejaVuSans-35" x="159.033203"/>
      </g>
     </g>
    </g>
    <g id="ytick_6">
     <g id="line2d_15">
      <g>
       <use xlink:href="#m02af04977b" x="62.57" y="194.329421" style="stroke: #000000; stroke-width: 0.8"/>
      </g>
     </g>
     <g id="text_16">
      <!-- 1.00 -->
      <g transform="translate(33.304375 198.12864) scale(0.1 -0.1)">
       <use xlink:href="#DejaVuSans-31"/>
       <use xlink:href="#DejaVuSans-2e" x="63.623047"/>
       <use xlink:href="#DejaVuSans-30" x="95.410156"/>
       <use xlink:href="#DejaVuSans-30" x="159.033203"/>
      </g>
     </g>
    </g>
    <g id="ytick_7">
     <g id="line2d_16">
      <g>
       <use xlink:href="#m02af04977b" x="62.57" y="162.996628" style="stroke: #000000; stroke-width: 0.8"/>
      </g>
     </g>
     <g id="text_17">
      <!-- 1.25 -->
      <g transform="translate(33.304375 166.795847) scale(0.1 -0.1)">
       <use xlink:href="#DejaVuSans-31"/>
       <use xlink:href="#DejaVuSans-2e" x="63.623047"/>
       <use xlink:href="#DejaVuSans-32" x="95.410156"/>
       <use xlink:href="#DejaVuSans-35" x="159.033203"/>
      </g>
     </g>
    </g>
    <g id="ytick_8">
     <g id="line2d_17">
      <g>
       <use xlink:href="#m02af04977b" x="62.57" y="131.663836" style="stroke: #000000; stroke-width: 0.8"/>
      </g>
     </g>
     <g id="text_18">
      <!-- 1.50 -->
      <g transform="translate(33.304375 135.463054) scale(0.1 -0.1)">
       <use xlink:href="#DejaVuSans-31"/>
       <use xlink:href="#DejaVuSans-2e" x="63.623047"/>
       <use xlink:href="#DejaVuSans-35" x="95.410156"/>
       <use xlink:href="#DejaVuSans-30" x="159.033203"/>
      </g>
     </g>
    </g>
    <g id="text_19">
     <!-- distance -->
     <g transform="translate(18.845 259.406719) rotate(-90) scale(0.1 -0.1)">
      <defs>
       <path id="DejaVuSans-69" d="M 603 3500 
L 1178 3500 
L 1178 0 
L 603 0 
L 603 3500 
z
M 603 4863 
L 1178 4863 
L 1178 4134 
L 603 4134 
L 603 4863 
z
" transform="scale(0.015625)"/>
       <path id="DejaVuSans-73" d="M 2834 3397 
L 2834 2853 
Q 2591 2978 2328 3040 
Q 2066 3103 1784 3103 
Q 1356 3103 1142 2972 
Q 928 2841 928 2578 
Q 928 2378 1081 2264 
Q 1234 2150 1697 2047 
L 1894 2003 
Q 2506 1872 2764 1633 
Q 3022 1394 3022 966 
Q 3022 478 2636 193 
Q 2250 -91 1575 -91 
Q 1294 -91 989 -36 
Q 684 19 347 128 
L 347 722 
Q 666 556 975 473 
Q 1284 391 1588 391 
Q 1994 391 2212 530 
Q 2431 669 2431 922 
Q 2431 1156 2273 1281 
Q 2116 1406 1581 1522 
L 1381 1569 
Q 847 1681 609 1914 
Q 372 2147 372 2553 
Q 372 3047 722 3315 
Q 1072 3584 1716 3584 
Q 2034 3584 2315 3537 
Q 2597 3491 2834 3397 
z
" transform="scale(0.015625)"/>
       <path id="DejaVuSans-6e" d="M 3513 2113 
L 3513 0 
L 2938 0 
L 2938 2094 
Q 2938 2591 2744 2837 
Q 2550 3084 2163 3084 
Q 1697 3084 1428 2787 
Q 1159 2491 1159 1978 
L 1159 0 
L 581 0 
L 581 3500 
L 1159 3500 
L 1159 2956 
Q 1366 3272 1645 3428 
Q 1925 3584 2291 3584 
Q 2894 3584 3203 3211 
Q 3513 2838 3513 2113 
z
" transform="scale(0.015625)"/>
       <path id="DejaVuSans-63" d="M 3122 3366 
L 3122 2828 
Q 2878 2963 2633 3030 
Q 2388 3097 2138 3097 
Q 1578 3097 1268 2742 
Q 959 2388 959 1747 
Q 959 1106 1268 751 
Q 1578 397 2138 397 
Q 2388 397 2633 464 
Q 2878 531 3122 666 
L 3122 134 
Q 2881 22 2623 -34 
Q 2366 -91 2075 -91 
Q 1284 -91 818 406 
Q 353 903 353 1747 
Q 353 2603 823 3093 
Q 1294 3584 2113 3584 
Q 2378 3584 2631 3529 
Q 2884 3475 3122 3366 
z
" transform="scale(0.015625)"/>
      </defs>
      <use xlink:href="#DejaVuSans-64"/>
      <use xlink:href="#DejaVuSans-69" x="63.476562"/>
      <use xlink:href="#DejaVuSans-73" x="91.259766"/>
      <use xlink:href="#DejaVuSans-74" x="143.359375"/>
      <use xlink:href="#DejaVuSans-61" x="182.568359"/>
      <use xlink:href="#DejaVuSans-6e" x="243.847656"/>
      <use xlink:href="#DejaVuSans-63" x="307.226562"/>
      <use xlink:href="#DejaVuSans-65" x="362.207031"/>
     </g>
    </g>
   </g>
   <g id="line2d_18">
    <path d="M 91.962273 312.546605 
L 97.900106 311.741427 
L 103.837938 310.936249 
L 109.775771 310.131071 
L 115.713604 309.325893 
L 121.651437 308.520715 
L 127.58927 307.715537 
L 133.527103 306.910359 
L 139.464936 306.105181 
L 145.402769 305.300003 
L 151.340601 304.494825 
L 157.278434 303.689647 
L 163.216267 302.884469 
L 169.1541 302.079291 
L 175.091933 301.274113 
L 181.029766 300.468935 
L 186.967599 299.663757 
L 192.905432 298.858579 
L 198.843264 298.053401 
L 204.781097 297.248223 
L 210.71893 296.443045 
L 216.656763 295.637867 
L 222.594596 294.832689 
L 228.532429 294.027511 
L 234.470262 293.222333 
L 240.408095 292.417155 
L 246.345927 291.611977 
L 252.28376 290.806799 
L 258.221593 290.001621 
L 264.159426 289.196443 
L 270.097259 288.391265 
L 276.035092 287.586087 
L 281.972925 286.780909 
L 287.910758 285.975731 
L 293.84859 285.170553 
L 299.786423 284.365375 
L 305.724256 283.560197 
L 311.662089 282.755019 
L 317.599922 281.949841 
L 323.537755 281.144663 
L 329.475588 280.339485 
L 335.413421 279.534307 
L 341.351253 278.729129 
L 347.289086 277.923951 
L 353.226919 277.118773 
L 359.164752 276.313595 
L 365.102585 275.508417 
L 371.040418 274.703239 
L 376.978251 273.898061 
L 382.916084 273.092883 
L 388.853916 272.287705 
L 394.791749 271.482527 
L 400.729582 270.677349 
L 406.667415 269.872171 
L 412.605248 269.066992 
L 418.543081 268.261814 
L 424.480914 267.456636 
L 430.418747 266.651458 
L 436.356579 265.84628 
L 442.294412 265.041102 
L 448.232245 264.235924 
L 454.170078 263.430746 
L 460.107911 262.625568 
L 466.045744 261.82039 
L 471.983577 261.015212 
L 477.92141 260.210034 
L 483.859242 259.404856 
L 489.797075 258.599678 
L 495.734908 257.7945 
L 501.672741 256.989322 
L 507.610574 256.184144 
L 513.548407 255.378966 
L 519.48624 254.573788 
L 525.424073 253.76861 
L 531.361905 252.963432 
L 537.299738 252.158254 
L 543.237571 251.353076 
L 549.175404 250.547898 
L 555.113237 249.74272 
L 561.05107 248.937542 
L 566.988903 248.132364 
L 572.926736 247.327186 
L 578.864568 246.522008 
L 584.802401 245.71683 
L 590.740234 244.911652 
L 596.678067 244.106474 
L 602.6159 243.301296 
L 608.553733 242.496118 
L 614.491566 241.69094 
L 620.429399 240.885762 
L 626.367231 240.080584 
L 632.305064 239.275406 
L 638.242897 238.470228 
L 644.18073 237.66505 
L 650.118563 236.859872 
L 656.056396 236.054694 
L 661.994229 235.249516 
L 667.932062 234.444338 
L 673.869894 233.63916 
L 679.807727 232.833982 
" clip-path="url(#p828e927dcd)" style="fill: none; stroke: #ff0000; stroke-width: 2.25; stroke-linecap: square"/>
   </g>
   <g id="patch_3">
    <path d="M 62.57 374.68 
L 62.57 101.76 
" style="fill: none; stroke: #000000; stroke-width: 0.8; stroke-linejoin: miter; stroke-linecap: square"/>
   </g>
   <g id="patch_4">
    <path d="M 709.2 374.68 
L 709.2 101.76 
" style="fill: none; stroke: #000000; stroke-width: 0.8; stroke-linejoin: miter; stroke-linecap: square"/>
   </g>
   <g id="patch_5">
    <path d="M 62.57 374.68 
L 709.2 374.68 
" style="fill: none; stroke: #000000; stroke-width: 0.8; stroke-linejoin: miter; stroke-linecap: square"/>
   </g>
   <g id="patch_6">
    <path d="M 62.57 101.76 
L 709.2 101.76 
" style="fill: none; stroke: #000000; stroke-width: 0.8; stroke-linejoin: miter; stroke-linecap: square"/>
   </g>
   <g id="text_20">
    <!-- Graph for coordinates: 0-3100 -->
    <g transform="translate(279.979375 95.76) scale(0.14 -0.14)">
     <defs>
      <path id="DejaVuSans-47" d="M 3809 666 
L 3809 1919 
L 2778 1919 
L 2778 2438 
L 4434 2438 
L 4434 434 
Q 4069 175 3628 42 
Q 3188 -91 2688 -91 
Q 1594 -91 976 548 
Q 359 1188 359 2328 
Q 359 3472 976 4111 
Q 1594 4750 2688 4750 
Q 3144 4750 3555 4637 
Q 3966 4525 4313 4306 
L 4313 3634 
Q 3963 3931 3569 4081 
Q 3175 4231 2741 4231 
Q 1884 4231 1454 3753 
Q 1025 3275 1025 2328 
Q 1025 1384 1454 906 
Q 1884 428 2741 428 
Q 3075 428 3337 486 
Q 3600 544 3809 666 
z
" transform="scale(0.015625)"/>
      <path id="DejaVuSans-72" d="M 2631 2963 
Q 2534 3019 2420 3045 
Q 2306 3072 2169 3072 
Q 1681 3072 1420 2755 
Q 1159 2438 1159 1844 
L 1159 0 
L 581 0 
L 581 3500 
L 1159 3500 
L 1159 2956 
Q 1341 3275 1631 3429 
Q 1922 3584 2338 3584 
Q 2397 3584 2469 3576 
Q 2541 3569 2628 3553 
L 2631 2963 
z
" transform="scale(0.015625)"/>
      <path id="DejaVuSans-70" d="M 1159 525 
L 1159 -1331 
L 581 -1331 
L 581 3500 
L 1159 3500 
L 1159 2969 
Q 1341 3281 1617 3432 
Q 1894 3584 2278 3584 
Q 2916 3584 3314 3078 
Q 3713 2572 3713 1747 
Q 3713 922 3314 415 
Q 2916 -91 2278 -91 
Q 1894 -91 1617 61 
Q 1341 213 1159 525 
z
M 3116 1747 
Q 3116 2381 2855 2742 
Q 2594 3103 2138 3103 
Q 1681 3103 1420 2742 
Q 1159 2381 1159 1747 
Q 1159 1113 1420 752 
Q 1681 391 2138 391 
Q 2594 391 2855 752 
Q 3116 1113 3116 1747 
z
" transform="scale(0.015625)"/>
      <path id="DejaVuSans-68" d="M 3513 2113 
L 3513 0 
L 2938 0 
L 2938 2094 
Q 2938 2591 2744 2837 
Q 2550 3084 2163 3084 
Q 1697 3084 1428 2787 
Q 1159 2491 1159 1978 
L 1159 0 
L 581 0 
L 581 4863 
L 1159 4863 
L 1159 2956 
Q 1366 3272 1645 3428 
Q 1925 3584 2291 3584 
Q 2894 3584 3203 3211 
Q 3513 2838 3513 2113 
z
" transform="scale(0.015625)"/>
      <path id="DejaVuSans-20" transform="scale(0.015625)"/>
      <path id="DejaVuSans-66" d="M 2375 4863 
L 2375 4384 
L 1825 4384 
Q 1516 4384 1395 4259 
Q 1275 4134 1275 3809 
L 1275 3500 
L 2222 3500 
L 2222 3053 
L 1275 3053 
L 1275 0 
L 697 0 
L 697 3053 
L 147 3053 
L 147 3500 
L 697 3500 
L 697 3744 
Q 697 4328 969 4595 
Q 1241 4863 1831 4863 
L 2375 4863 
z
" transform="scale(0.015625)"/>
      <path id="DejaVuSans-6f" d="M 1959 3097 
Q 1497 3097 1228 2736 
Q 959 2375 959 1747 
Q 959 1119 1226 758 
Q 1494 397 1959 397 
Q 2419 397 2687 759 
Q 2956 1122 2956 1747 
Q 2956 2369 2687 2733 
Q 2419 3097 1959 3097 
z
M 1959 3584 
Q 2709 3584 3137 3096 
Q 3566 2609 3566 1747 
Q 3566 888 3137 398 
Q 2709 -91 1959 -91 
Q 1206 -91 779 398 
Q 353 888 353 1747 
Q 353 2609 779 3096 
Q 1206 3584 1959 3584 
z
" transform="scale(0.015625)"/>
      <path id="DejaVuSans-3a" d="M 750 794 
L 1409 794 
L 1409 0 
L 750 0 
L 750 794 
z
M 750 3309 
L 1409 3309 
L 1409 2516 
L 750 2516 
L 750 3309 
z
" transform="scale(0.015625)"/>
      <path id="DejaVuSans-2d" d="M 313 2009 
L 1997 2009 
L 1997 1497 
L 313 1497 
L 313 2009 
z
" transform="scale(0.015625)"/>
     </defs>
     <use xlink:href="#DejaVuSans-47"/>
     <use xlink:href="#DejaVuSans-72" x="77.490234"/>
     <use xlink:href="#DejaVuSans-61" x="118.603516"/>
     <use xlink:href="#DejaVuSans-70" x="179.882812"/>
     <use xlink:href="#DejaVuSans-68" x="243.359375"/>
     <use xlink:href="#DejaVuSans-20" x="306.738281"/>
     <use xlink:href="#DejaVuSans-66" x="338.525391"/>
     <use xlink:href="#DejaVuSans-6f" x="373.730469"/>
     <use xlink:href="#DejaVuSans-72" x="434.912109"/>
     <use xlink:href="#DejaVuSans-20" x="476.025391"/>
     <use xlink:href="#DejaVuSans-63" x="507.8125"/>
     <use xlink:href="#DejaVuSans-6f" x="562.792969"/>
     <use xlink:href="#DejaVuSans-6f" x="623.974609"/>
     <use xlink:href="#DejaVuSans-72" x="685.15625"/>
     <use xlink:href="#DejaVuSans-64" x="724.519531"/>
     <use xlink:href="#DejaVuSans-69" x="787.996094"/>
     <use xlink:href="#DejaVuSans-6e" x="815.779297"/>
     <use xlink:href="#DejaVuSans-61" x="879.158203"/>
     <use xlink:href="#DejaVuSans-74" x="940.4375"/>
     <use xlink:href="#DejaVuSans-65" x="979.646484"/>
     <use xlink:href="#DejaVuSans-73" x="1041.169922"/>
     <use xlink:href="#DejaVuSans-3a" x="1093.269531"/>
     <use xlink:href="#DejaVuSans-20" x="1126.960938"/>
     <use xlink:href="#DejaVuSans-30" x="1158.748047"/>
     <use xlink:href="#DejaVuSans-2d" x="1222.371094"/>
     <use xlink:href="#DejaVuSans-33" x="1258.455078"/>
     <use xlink:href="#DejaVuSans-31" x="1322.078125"/>
     <use xlink:href="#DejaVuSans-30" x="1385.701172"/>
     <use xlink:href="#DejaVuSans-30" x="1449.324219"/>
    </g>
   </g>
   <g id="legend_1">
    <g id="patch_7">
     <path d="M 70.97 142.411125 
L 210.11 142.411125 
Q 212.51 142.411125 212.51 140.011125 
L 212.51 110.16 
Q 212.51 107.76 210.11 107.76 
L 70.97 107.76 
Q 68.57 107.76 68.57 110.16 
L 68.57 140.011125 
Q 68.57 142.411125 70.97 142.411125 
z
" style="fill: #ffffff; opacity: 0.8; stroke: #cccccc; stroke-linejoin: miter"/>
    </g>
    <g id="line2d_19">
     <path d="M 73.37 125.444625 
L 85.37 125.444625 
L 97.37 125.444625 
" style="fill: none; stroke: #ff0000; stroke-width: 2.25; stroke-linecap: square"/>
    </g>
    <g id="text_21">
     <!-- Correlation: 0.53 -->
     <g transform="translate(106.97 121.678125) scale(0.12 -0.12)">
      <defs>
       <path id="DejaVuSans-43" d="M 4122 4306 
L 4122 3641 
Q 3803 3938 3442 4084 
Q 3081 4231 2675 4231 
Q 1875 4231 1450 3742 
Q 1025 3253 1025 2328 
Q 1025 1406 1450 917 
Q 1875 428 2675 428 
Q 3081 428 3442 575 
Q 3803 722 4122 1019 
L 4122 359 
Q 3791 134 3420 21 
Q 3050 -91 2638 -91 
Q 1578 -91 968 557 
Q 359 1206 359 2328 
Q 359 3453 968 4101 
Q 1578 4750 2638 4750 
Q 3056 4750 3426 4639 
Q 3797 4528 4122 4306 
z
" transform="scale(0.015625)"/>
       <path id="DejaVuSans-6c" d="M 603 4863 
L 1178 4863 
L 1178 0 
L 603 0 
L 603 4863 
z
" transform="scale(0.015625)"/>
      </defs>
      <use xlink:href="#DejaVuSans-43"/>
      <use xlink:href="#DejaVuSans-6f" x="69.824219"/>
      <use xlink:href="#DejaVuSans-72" x="131.005859"/>
      <use xlink:href="#DejaVuSans-72" x="170.369141"/>
      <use xlink:href="#DejaVuSans-65" x="209.232422"/>
      <use xlink:href="#DejaVuSans-6c" x="270.755859"/>
      <use xlink:href="#DejaVuSans-61" x="298.539062"/>
      <use xlink:href="#DejaVuSans-74" x="359.818359"/>
      <use xlink:href="#DejaVuSans-69" x="399.027344"/>
      <use xlink:href="#DejaVuSans-6f" x="426.810547"/>
      <use xlink:href="#DejaVuSans-6e" x="487.992188"/>
      <use xlink:href="#DejaVuSans-3a" x="551.371094"/>
      <use xlink:href="#DejaVuSans-20" x="585.0625"/>
      <use xlink:href="#DejaVuSans-30" x="616.849609"/>
      <use xlink:href="#DejaVuSans-2e" x="680.472656"/>
      <use xlink:href="#DejaVuSans-35" x="712.259766"/>
      <use xlink:href="#DejaVuSans-33" x="775.882812"/>
     </g>
     <!-- R²: 0.28 -->
     <g transform="translate(106.97 135.1155) scale(0.12 -0.12)">
      <defs>
       <path id="DejaVuSans-52" d="M 2841 2188 
Q 3044 2119 3236 1894 
Q 3428 1669 3622 1275 
L 4263 0 
L 3584 0 
L 2988 1197 
Q 2756 1666 2539 1819 
Q 2322 1972 1947 1972 
L 1259 1972 
L 1259 0 
L 628 0 
L 628 4666 
L 2053 4666 
Q 2853 4666 3247 4331 
Q 3641 3997 3641 3322 
Q 3641 2881 3436 2590 
Q 3231 2300 2841 2188 
z
M 1259 4147 
L 1259 2491 
L 2053 2491 
Q 2509 2491 2742 2702 
Q 2975 2913 2975 3322 
Q 2975 3731 2742 3939 
Q 2509 4147 2053 4147 
L 1259 4147 
z
" transform="scale(0.015625)"/>
       <path id="DejaVuSans-b2" d="M 838 2444 
L 2163 2444 
L 2163 2088 
L 294 2088 
L 294 2431 
Q 400 2528 597 2703 
Q 1672 3656 1672 3950 
Q 1672 4156 1509 4282 
Q 1347 4409 1081 4409 
Q 919 4409 728 4354 
Q 538 4300 313 4191 
L 313 4575 
Q 553 4663 761 4706 
Q 969 4750 1147 4750 
Q 1600 4750 1872 4544 
Q 2144 4338 2144 4000 
Q 2144 3566 1109 2678 
Q 934 2528 838 2444 
z
" transform="scale(0.015625)"/>
      </defs>
      <use xlink:href="#DejaVuSans-52"/>
      <use xlink:href="#DejaVuSans-b2" x="69.482422"/>
      <use xlink:href="#DejaVuSans-3a" x="109.570312"/>
      <use xlink:href="#DejaVuSans-20" x="143.261719"/>
      <use xlink:href="#DejaVuSans-30" x="175.048828"/>
      <use xlink:href="#DejaVuSans-2e" x="238.671875"/>
      <use xlink:href="#DejaVuSans-32" x="270.458984"/>
      <use xlink:href="#DejaVuSans-38" x="334.082031"/>
     </g>
    </g>
   </g>
  </g>
  <g id="axes_2">
   <g id="patch_8">
    <path d="M 62.57 706.36 
L 709.2 706.36 
L 709.2 433.44 
L 62.57 433.44 
z
" style="fill: #ffffff"/>
   </g>
   <g id="PathCollection_2">
    <g clip-path="url(#p2fa4aa688e)">
     <use xlink:href="#m6f39daf162" x="454.829837" y="609.543299" style="fill: #0000ff; stroke: #ffffff; stroke-width: 0.48"/>
     <use xlink:href="#m6f39daf162" x="679.807727" y="605.868648" style="fill: #0000ff; stroke: #ffffff; stroke-width: 0.48"/>
     <use xlink:href="#m6f39daf162" x="498.373945" y="617.48785" style="fill: #0000ff; stroke: #ffffff; stroke-width: 0.48"/>
     <use xlink:href="#m6f39daf162" x="396.771027" y="616.314849" style="fill: #0000ff; stroke: #ffffff; stroke-width: 0.48"/>
     <use xlink:href="#m6f39daf162" x="396.771027" y="615.241761" style="fill: #0000ff; stroke: #ffffff; stroke-width: 0.48"/>
     <use xlink:href="#m6f39daf162" x="404.028378" y="614.963138" style="fill: #0000ff; stroke: #ffffff; stroke-width: 0.48"/>
     <use xlink:href="#m6f39daf162" x="447.572486" y="618.068671" style="fill: #0000ff; stroke: #ffffff; stroke-width: 0.48"/>
     <use xlink:href="#m6f39daf162" x="396.771027" y="613.625289" style="fill: #0000ff; stroke: #ffffff; stroke-width: 0.48"/>
     <use xlink:href="#m6f39daf162" x="665.293025" y="445.845455" style="fill: #0000ff; stroke: #ffffff; stroke-width: 0.48"/>
     <use xlink:href="#m6f39daf162" x="498.373945" y="612.47935" style="fill: #0000ff; stroke: #ffffff; stroke-width: 0.48"/>
     <use xlink:href="#m6f39daf162" x="418.543081" y="620.353206" style="fill: #0000ff; stroke: #ffffff; stroke-width: 0.48"/>
     <use xlink:href="#m6f39daf162" x="382.256324" y="615.05167" style="fill: #0000ff; stroke: #ffffff; stroke-width: 0.48"/>
     <use xlink:href="#m6f39daf162" x="636.26362" y="623.193527" style="fill: #0000ff; stroke: #ffffff; stroke-width: 0.48"/>
     <use xlink:href="#m6f39daf162" x="91.962273" y="654.047005" style="fill: #0000ff; stroke: #ffffff; stroke-width: 0.48"/>
     <use xlink:href="#m6f39daf162" x="273.396055" y="617.772027" style="fill: #0000ff; stroke: #ffffff; stroke-width: 0.48"/>
     <use xlink:href="#m6f39daf162" x="505.631296" y="610.867993" style="fill: #0000ff; stroke: #ffffff; stroke-width: 0.48"/>
     <use xlink:href="#m6f39daf162" x="541.918053" y="611.976415" style="fill: #0000ff; stroke: #ffffff; stroke-width: 0.48"/>
     <use xlink:href="#m6f39daf162" x="331.454865" y="600.348598" style="fill: #0000ff; stroke: #ffffff; stroke-width: 0.48"/>
     <use xlink:href="#m6f39daf162" x="324.197514" y="600.783227" style="fill: #0000ff; stroke: #ffffff; stroke-width: 0.48"/>
     <use xlink:href="#m6f39daf162" x="316.940163" y="602.275906" style="fill: #0000ff; stroke: #ffffff; stroke-width: 0.48"/>
     <use xlink:href="#m6f39daf162" x="280.653406" y="603.614755" style="fill: #0000ff; stroke: #ffffff; stroke-width: 0.48"/>
     <use xlink:href="#m6f39daf162" x="287.910758" y="603.260546" style="fill: #0000ff; stroke: #ffffff; stroke-width: 0.48"/>
    </g>
   </g>
   <g id="PolyCollection_2">
    <path d="M 91.962273 599.090701 
L 91.962273 693.954545 
L 97.900106 692.146662 
L 103.837938 690.338523 
L 109.775771 688.625582 
L 115.713604 687.021349 
L 121.651437 685.417116 
L 127.58927 683.812883 
L 133.527103 682.20865 
L 139.464936 680.554001 
L 145.402769 678.790244 
L 151.340601 676.847671 
L 157.278434 674.904804 
L 163.216267 673.241472 
L 169.1541 671.74642 
L 175.091933 670.103856 
L 181.029766 668.356087 
L 186.967599 666.544029 
L 192.905432 664.764996 
L 198.843264 662.983882 
L 204.781097 661.487139 
L 210.71893 659.996286 
L 216.656763 658.340757 
L 222.594596 656.583619 
L 228.532429 654.823547 
L 234.470262 653.023297 
L 240.408095 651.063392 
L 246.345927 649.408253 
L 252.28376 647.877004 
L 258.221593 646.370944 
L 264.159426 644.830483 
L 270.097259 643.16194 
L 276.035092 641.391048 
L 281.972925 639.837597 
L 287.910758 638.142344 
L 293.84859 636.57471 
L 299.786423 634.957362 
L 305.724256 633.311536 
L 311.662089 631.720503 
L 317.599922 630.478028 
L 323.537755 629.239486 
L 329.475588 627.648026 
L 335.413421 626.259288 
L 341.351253 625.041811 
L 347.289086 623.828236 
L 353.226919 622.647528 
L 359.164752 621.731229 
L 365.102585 620.942413 
L 371.040418 620.01794 
L 376.978251 619.300083 
L 382.916084 618.852853 
L 388.853916 618.34612 
L 394.791749 617.940323 
L 400.729582 617.402829 
L 406.667415 617.050197 
L 412.605248 616.719639 
L 418.543081 616.395686 
L 424.480914 616.057713 
L 430.418747 615.823998 
L 436.356579 615.759913 
L 442.294412 615.711564 
L 448.232245 615.590581 
L 454.170078 615.535332 
L 460.107911 615.367145 
L 466.045744 615.306656 
L 471.983577 615.2628 
L 477.92141 615.283617 
L 483.859242 615.437035 
L 489.797075 615.597142 
L 495.734908 615.689009 
L 501.672741 615.875221 
L 507.610574 616.002424 
L 513.548407 616.148055 
L 519.48624 616.30326 
L 525.424073 616.495101 
L 531.361905 616.705951 
L 537.299738 616.960342 
L 543.237571 617.214733 
L 549.175404 617.511733 
L 555.113237 617.815834 
L 561.05107 618.119278 
L 566.988903 618.393569 
L 572.926736 618.596526 
L 578.864568 618.799483 
L 584.802401 619.026495 
L 590.740234 619.316807 
L 596.678067 619.60712 
L 602.6159 619.89734 
L 608.553733 620.184782 
L 614.491566 620.471386 
L 620.429399 620.75799 
L 626.367231 620.924007 
L 632.305064 621.085057 
L 638.242897 621.270142 
L 644.18073 621.524354 
L 650.118563 621.777337 
L 656.056396 622.030245 
L 661.994229 622.283153 
L 667.932062 622.536061 
L 673.869894 622.788969 
L 679.807727 623.041877 
L 679.807727 518.718806 
L 679.807727 518.718806 
L 673.869894 520.415452 
L 667.932062 522.125954 
L 661.994229 523.869039 
L 656.056396 525.653625 
L 650.118563 527.357475 
L 644.18073 529.011769 
L 638.242897 530.666064 
L 632.305064 532.320359 
L 626.367231 533.974654 
L 620.429399 535.628949 
L 614.491566 537.283244 
L 608.553733 538.937538 
L 602.6159 540.592524 
L 596.678067 542.246128 
L 590.740234 543.900423 
L 584.802401 545.555027 
L 578.864568 547.209966 
L 572.926736 548.864905 
L 566.988903 550.490805 
L 561.05107 552.16228 
L 555.113237 553.826192 
L 549.175404 555.480487 
L 543.237571 557.134782 
L 537.299738 558.789077 
L 531.361905 560.443371 
L 525.424073 562.097666 
L 519.48624 563.573711 
L 513.548407 565.357074 
L 507.610574 567.169182 
L 501.672741 568.782473 
L 495.734908 570.370792 
L 489.797075 572.023435 
L 483.859242 573.67773 
L 477.92141 575.334217 
L 471.983577 576.982847 
L 466.045744 578.640615 
L 460.107911 580.29491 
L 454.170078 581.949204 
L 448.232245 583.603499 
L 442.294412 585.260207 
L 436.356579 586.912089 
L 430.418747 588.566384 
L 424.480914 590.134453 
L 418.543081 591.874973 
L 412.605248 593.531232 
L 406.667415 594.854608 
L 400.729582 596.134651 
L 394.791749 597.37039 
L 388.853916 599.060485 
L 382.916084 600.537632 
L 376.978251 601.876706 
L 371.040418 603.306012 
L 365.102585 604.765955 
L 359.164752 605.885448 
L 353.226919 606.983201 
L 347.289086 607.583647 
L 341.351253 607.802334 
L 335.413421 607.85299 
L 329.475588 607.699132 
L 323.537755 607.522706 
L 317.599922 607.262111 
L 311.662089 607.124873 
L 305.724256 606.989491 
L 299.786423 606.820833 
L 293.84859 606.573714 
L 287.910758 606.308235 
L 281.972925 606.008106 
L 276.035092 605.791166 
L 270.097259 605.589857 
L 264.159426 605.388957 
L 258.221593 605.193091 
L 252.28376 604.987327 
L 246.345927 604.786741 
L 240.408095 604.586367 
L 234.470262 604.393985 
L 228.532429 604.210638 
L 222.594596 604.027292 
L 216.656763 603.782292 
L 210.71893 603.561986 
L 204.781097 603.304308 
L 198.843264 603.047623 
L 192.905432 602.792774 
L 186.967599 602.554221 
L 181.029766 602.374708 
L 175.091933 602.19362 
L 169.1541 601.962969 
L 163.216267 601.734039 
L 157.278434 601.50511 
L 151.340601 601.286242 
L 145.402769 601.117533 
L 139.464936 600.938661 
L 133.527103 600.647648 
L 127.58927 600.356635 
L 121.651437 600.121863 
L 115.713604 599.891636 
L 109.775771 599.662221 
L 103.837938 599.471046 
L 97.900106 599.283418 
L 91.962273 599.090701 
z
" clip-path="url(#p2fa4aa688e)" style="fill: #ff0000; fill-opacity: 0.15"/>
   </g>
   <g id="matplotlib.axis_3">
    <g id="xtick_10">
     <g id="line2d_20">
      <g>
       <use xlink:href="#m1cbf264a51" x="62.932868" y="706.36" style="stroke: #000000; stroke-width: 0.8"/>
      </g>
     </g>
     <g id="text_22">
      <!-- 1930 -->
      <g transform="translate(50.207868 720.958438) scale(0.1 -0.1)">
       <use xlink:href="#DejaVuSans-31"/>
       <use xlink:href="#DejaVuSans-39" x="63.623047"/>
       <use xlink:href="#DejaVuSans-33" x="127.246094"/>
       <use xlink:href="#DejaVuSans-30" x="190.869141"/>
      </g>
     </g>
    </g>
    <g id="xtick_11">
     <g id="line2d_21">
      <g>
       <use xlink:href="#m1cbf264a51" x="135.50638" y="706.36" style="stroke: #000000; stroke-width: 0.8"/>
      </g>
     </g>
     <g id="text_23">
      <!-- 1940 -->
      <g transform="translate(122.78138 720.958438) scale(0.1 -0.1)">
       <use xlink:href="#DejaVuSans-31"/>
       <use xlink:href="#DejaVuSans-39" x="63.623047"/>
       <use xlink:href="#DejaVuSans-34" x="127.246094"/>
       <use xlink:href="#DejaVuSans-30" x="190.869141"/>
      </g>
     </g>
    </g>
    <g id="xtick_12">
     <g id="line2d_22">
      <g>
       <use xlink:href="#m1cbf264a51" x="208.079893" y="706.36" style="stroke: #000000; stroke-width: 0.8"/>
      </g>
     </g>
     <g id="text_24">
      <!-- 1950 -->
      <g transform="translate(195.354893 720.958438) scale(0.1 -0.1)">
       <use xlink:href="#DejaVuSans-31"/>
       <use xlink:href="#DejaVuSans-39" x="63.623047"/>
       <use xlink:href="#DejaVuSans-35" x="127.246094"/>
       <use xlink:href="#DejaVuSans-30" x="190.869141"/>
      </g>
     </g>
    </g>
    <g id="xtick_13">
     <g id="line2d_23">
      <g>
       <use xlink:href="#m1cbf264a51" x="280.653406" y="706.36" style="stroke: #000000; stroke-width: 0.8"/>
      </g>
     </g>
     <g id="text_25">
      <!-- 1960 -->
      <g transform="translate(267.928406 720.958438) scale(0.1 -0.1)">
       <use xlink:href="#DejaVuSans-31"/>
       <use xlink:href="#DejaVuSans-39" x="63.623047"/>
       <use xlink:href="#DejaVuSans-36" x="127.246094"/>
       <use xlink:href="#DejaVuSans-30" x="190.869141"/>
      </g>
     </g>
    </g>
    <g id="xtick_14">
     <g id="line2d_24">
      <g>
       <use xlink:href="#m1cbf264a51" x="353.226919" y="706.36" style="stroke: #000000; stroke-width: 0.8"/>
      </g>
     </g>
     <g id="text_26">
      <!-- 1970 -->
      <g transform="translate(340.501919 720.958438) scale(0.1 -0.1)">
       <use xlink:href="#DejaVuSans-31"/>
       <use xlink:href="#DejaVuSans-39" x="63.623047"/>
       <use xlink:href="#DejaVuSans-37" x="127.246094"/>
       <use xlink:href="#DejaVuSans-30" x="190.869141"/>
      </g>
     </g>
    </g>
    <g id="xtick_15">
     <g id="line2d_25">
      <g>
       <use xlink:href="#m1cbf264a51" x="425.800432" y="706.36" style="stroke: #000000; stroke-width: 0.8"/>
      </g>
     </g>
     <g id="text_27">
      <!-- 1980 -->
      <g transform="translate(413.075432 720.958438) scale(0.1 -0.1)">
       <use xlink:href="#DejaVuSans-31"/>
       <use xlink:href="#DejaVuSans-39" x="63.623047"/>
       <use xlink:href="#DejaVuSans-38" x="127.246094"/>
       <use xlink:href="#DejaVuSans-30" x="190.869141"/>
      </g>
     </g>
    </g>
    <g id="xtick_16">
     <g id="line2d_26">
      <g>
       <use xlink:href="#m1cbf264a51" x="498.373945" y="706.36" style="stroke: #000000; stroke-width: 0.8"/>
      </g>
     </g>
     <g id="text_28">
      <!-- 1990 -->
      <g transform="translate(485.648945 720.958438) scale(0.1 -0.1)">
       <use xlink:href="#DejaVuSans-31"/>
       <use xlink:href="#DejaVuSans-39" x="63.623047"/>
       <use xlink:href="#DejaVuSans-39" x="127.246094"/>
       <use xlink:href="#DejaVuSans-30" x="190.869141"/>
      </g>
     </g>
    </g>
    <g id="xtick_17">
     <g id="line2d_27">
      <g>
       <use xlink:href="#m1cbf264a51" x="570.947458" y="706.36" style="stroke: #000000; stroke-width: 0.8"/>
      </g>
     </g>
     <g id="text_29">
      <!-- 2000 -->
      <g transform="translate(558.222458 720.958438) scale(0.1 -0.1)">
       <use xlink:href="#DejaVuSans-32"/>
       <use xlink:href="#DejaVuSans-30" x="63.623047"/>
       <use xlink:href="#DejaVuSans-30" x="127.246094"/>
       <use xlink:href="#DejaVuSans-30" x="190.869141"/>
      </g>
     </g>
    </g>
    <g id="xtick_18">
     <g id="line2d_28">
      <g>
       <use xlink:href="#m1cbf264a51" x="643.520971" y="706.36" style="stroke: #000000; stroke-width: 0.8"/>
      </g>
     </g>
     <g id="text_30">
      <!-- 2010 -->
      <g transform="translate(630.795971 720.958438) scale(0.1 -0.1)">
       <use xlink:href="#DejaVuSans-32"/>
       <use xlink:href="#DejaVuSans-30" x="63.623047"/>
       <use xlink:href="#DejaVuSans-31" x="127.246094"/>
       <use xlink:href="#DejaVuSans-30" x="190.869141"/>
      </g>
     </g>
    </g>
    <g id="text_31">
     <!-- date -->
     <g transform="translate(374.61 734.636563) scale(0.1 -0.1)">
      <use xlink:href="#DejaVuSans-64"/>
      <use xlink:href="#DejaVuSans-61" x="63.476562"/>
      <use xlink:href="#DejaVuSans-74" x="124.755859"/>
      <use xlink:href="#DejaVuSans-65" x="163.964844"/>
     </g>
    </g>
   </g>
   <g id="matplotlib.axis_4">
    <g id="ytick_9">
     <g id="line2d_29">
      <g>
       <use xlink:href="#m02af04977b" x="62.57" y="693.276144" style="stroke: #000000; stroke-width: 0.8"/>
      </g>
     </g>
     <g id="text_32">
      <!-- −0.1 -->
      <g transform="translate(31.287188 697.075363) scale(0.1 -0.1)">
       <use xlink:href="#DejaVuSans-2212"/>
       <use xlink:href="#DejaVuSans-30" x="83.789062"/>
       <use xlink:href="#DejaVuSans-2e" x="147.412109"/>
       <use xlink:href="#DejaVuSans-31" x="179.199219"/>
      </g>
     </g>
    </g>
    <g id="ytick_10">
     <g id="line2d_30">
      <g>
       <use xlink:href="#m02af04977b" x="62.57" y="654.047005" style="stroke: #000000; stroke-width: 0.8"/>
      </g>
     </g>
     <g id="text_33">
      <!-- 0.0 -->
      <g transform="translate(39.666875 657.846223) scale(0.1 -0.1)">
       <use xlink:href="#DejaVuSans-30"/>
       <use xlink:href="#DejaVuSans-2e" x="63.623047"/>
       <use xlink:href="#DejaVuSans-30" x="95.410156"/>
      </g>
     </g>
    </g>
    <g id="ytick_11">
     <g id="line2d_31">
      <g>
       <use xlink:href="#m02af04977b" x="62.57" y="614.817865" style="stroke: #000000; stroke-width: 0.8"/>
      </g>
     </g>
     <g id="text_34">
      <!-- 0.1 -->
      <g transform="translate(39.666875 618.617084) scale(0.1 -0.1)">
       <use xlink:href="#DejaVuSans-30"/>
       <use xlink:href="#DejaVuSans-2e" x="63.623047"/>
       <use xlink:href="#DejaVuSans-31" x="95.410156"/>
      </g>
     </g>
    </g>
    <g id="ytick_12">
     <g id="line2d_32">
      <g>
       <use xlink:href="#m02af04977b" x="62.57" y="575.588726" style="stroke: #000000; stroke-width: 0.8"/>
      </g>
     </g>
     <g id="text_35">
      <!-- 0.2 -->
      <g transform="translate(39.666875 579.387945) scale(0.1 -0.1)">
       <use xlink:href="#DejaVuSans-30"/>
       <use xlink:href="#DejaVuSans-2e" x="63.623047"/>
       <use xlink:href="#DejaVuSans-32" x="95.410156"/>
      </g>
     </g>
    </g>
    <g id="ytick_13">
     <g id="line2d_33">
      <g>
       <use xlink:href="#m02af04977b" x="62.57" y="536.359586" style="stroke: #000000; stroke-width: 0.8"/>
      </g>
     </g>
     <g id="text_36">
      <!-- 0.3 -->
      <g transform="translate(39.666875 540.158805) scale(0.1 -0.1)">
       <use xlink:href="#DejaVuSans-30"/>
       <use xlink:href="#DejaVuSans-2e" x="63.623047"/>
       <use xlink:href="#DejaVuSans-33" x="95.410156"/>
      </g>
     </g>
    </g>
    <g id="ytick_14">
     <g id="line2d_34">
      <g>
       <use xlink:href="#m02af04977b" x="62.57" y="497.130447" style="stroke: #000000; stroke-width: 0.8"/>
      </g>
     </g>
     <g id="text_37">
      <!-- 0.4 -->
      <g transform="translate(39.666875 500.929666) scale(0.1 -0.1)">
       <use xlink:href="#DejaVuSans-30"/>
       <use xlink:href="#DejaVuSans-2e" x="63.623047"/>
       <use xlink:href="#DejaVuSans-34" x="95.410156"/>
      </g>
     </g>
    </g>
    <g id="ytick_15">
     <g id="line2d_35">
      <g>
       <use xlink:href="#m02af04977b" x="62.57" y="457.901308" style="stroke: #000000; stroke-width: 0.8"/>
      </g>
     </g>
     <g id="text_38">
      <!-- 0.5 -->
      <g transform="translate(39.666875 461.700526) scale(0.1 -0.1)">
       <use xlink:href="#DejaVuSans-30"/>
       <use xlink:href="#DejaVuSans-2e" x="63.623047"/>
       <use xlink:href="#DejaVuSans-35" x="95.410156"/>
      </g>
     </g>
    </g>
    <g id="text_39">
     <!-- distance -->
     <g transform="translate(25.2075 591.086719) rotate(-90) scale(0.1 -0.1)">
      <use xlink:href="#DejaVuSans-64"/>
      <use xlink:href="#DejaVuSans-69" x="63.476562"/>
      <use xlink:href="#DejaVuSans-73" x="91.259766"/>
      <use xlink:href="#DejaVuSans-74" x="143.359375"/>
      <use xlink:href="#DejaVuSans-61" x="182.568359"/>
      <use xlink:href="#DejaVuSans-6e" x="243.847656"/>
      <use xlink:href="#DejaVuSans-63" x="307.226562"/>
      <use xlink:href="#DejaVuSans-65" x="362.207031"/>
     </g>
    </g>
   </g>
   <g id="line2d_36">
    <path d="M 91.962273 645.514426 
L 97.900106 644.798962 
L 103.837938 644.083499 
L 109.775771 643.368035 
L 115.713604 642.652572 
L 121.651437 641.937108 
L 127.58927 641.221645 
L 133.527103 640.506181 
L 139.464936 639.790718 
L 145.402769 639.075254 
L 151.340601 638.359791 
L 157.278434 637.644327 
L 163.216267 636.928864 
L 169.1541 636.2134 
L 175.091933 635.497937 
L 181.029766 634.782473 
L 186.967599 634.06701 
L 192.905432 633.351547 
L 198.843264 632.636083 
L 204.781097 631.92062 
L 210.71893 631.205156 
L 216.656763 630.489693 
L 222.594596 629.774229 
L 228.532429 629.058766 
L 234.470262 628.343302 
L 240.408095 627.627839 
L 246.345927 626.912375 
L 252.28376 626.196912 
L 258.221593 625.481448 
L 264.159426 624.765985 
L 270.097259 624.050521 
L 276.035092 623.335058 
L 281.972925 622.619594 
L 287.910758 621.904131 
L 293.84859 621.188667 
L 299.786423 620.473204 
L 305.724256 619.75774 
L 311.662089 619.042277 
L 317.599922 618.326813 
L 323.537755 617.61135 
L 329.475588 616.895886 
L 335.413421 616.180423 
L 341.351253 615.464959 
L 347.289086 614.749496 
L 353.226919 614.034032 
L 359.164752 613.318569 
L 365.102585 612.603105 
L 371.040418 611.887642 
L 376.978251 611.172179 
L 382.916084 610.456715 
L 388.853916 609.741252 
L 394.791749 609.025788 
L 400.729582 608.310325 
L 406.667415 607.594861 
L 412.605248 606.879398 
L 418.543081 606.163934 
L 424.480914 605.448471 
L 430.418747 604.733007 
L 436.356579 604.017544 
L 442.294412 603.30208 
L 448.232245 602.586617 
L 454.170078 601.871153 
L 460.107911 601.15569 
L 466.045744 600.440226 
L 471.983577 599.724763 
L 477.92141 599.009299 
L 483.859242 598.293836 
L 489.797075 597.578372 
L 495.734908 596.862909 
L 501.672741 596.147445 
L 507.610574 595.431982 
L 513.548407 594.716518 
L 519.48624 594.001055 
L 525.424073 593.285591 
L 531.361905 592.570128 
L 537.299738 591.854664 
L 543.237571 591.139201 
L 549.175404 590.423737 
L 555.113237 589.708274 
L 561.05107 588.992811 
L 566.988903 588.277347 
L 572.926736 587.561884 
L 578.864568 586.84642 
L 584.802401 586.130957 
L 590.740234 585.415493 
L 596.678067 584.70003 
L 602.6159 583.984566 
L 608.553733 583.269103 
L 614.491566 582.553639 
L 620.429399 581.838176 
L 626.367231 581.122712 
L 632.305064 580.407249 
L 638.242897 579.691785 
L 644.18073 578.976322 
L 650.118563 578.260858 
L 656.056396 577.545395 
L 661.994229 576.829931 
L 667.932062 576.114468 
L 673.869894 575.399004 
L 679.807727 574.683541 
" clip-path="url(#p2fa4aa688e)" style="fill: none; stroke: #ff0000; stroke-width: 2.25; stroke-linecap: square"/>
   </g>
   <g id="patch_9">
    <path d="M 62.57 706.36 
L 62.57 433.44 
" style="fill: none; stroke: #000000; stroke-width: 0.8; stroke-linejoin: miter; stroke-linecap: square"/>
   </g>
   <g id="patch_10">
    <path d="M 709.2 706.36 
L 709.2 433.44 
" style="fill: none; stroke: #000000; stroke-width: 0.8; stroke-linejoin: miter; stroke-linecap: square"/>
   </g>
   <g id="patch_11">
    <path d="M 62.57 706.36 
L 709.2 706.36 
" style="fill: none; stroke: #000000; stroke-width: 0.8; stroke-linejoin: miter; stroke-linecap: square"/>
   </g>
   <g id="patch_12">
    <path d="M 62.57 433.44 
L 709.2 433.44 
" style="fill: none; stroke: #000000; stroke-width: 0.8; stroke-linejoin: miter; stroke-linecap: square"/>
   </g>
   <g id="text_40">
    <!-- Graph for coordinates: 3101-5516 -->
    <g transform="translate(266.618125 427.44) scale(0.14 -0.14)">
     <use xlink:href="#DejaVuSans-47"/>
     <use xlink:href="#DejaVuSans-72" x="77.490234"/>
     <use xlink:href="#DejaVuSans-61" x="118.603516"/>
     <use xlink:href="#DejaVuSans-70" x="179.882812"/>
     <use xlink:href="#DejaVuSans-68" x="243.359375"/>
     <use xlink:href="#DejaVuSans-20" x="306.738281"/>
     <use xlink:href="#DejaVuSans-66" x="338.525391"/>
     <use xlink:href="#DejaVuSans-6f" x="373.730469"/>
     <use xlink:href="#DejaVuSans-72" x="434.912109"/>
     <use xlink:href="#DejaVuSans-20" x="476.025391"/>
     <use xlink:href="#DejaVuSans-63" x="507.8125"/>
     <use xlink:href="#DejaVuSans-6f" x="562.792969"/>
     <use xlink:href="#DejaVuSans-6f" x="623.974609"/>
     <use xlink:href="#DejaVuSans-72" x="685.15625"/>
     <use xlink:href="#DejaVuSans-64" x="724.519531"/>
     <use xlink:href="#DejaVuSans-69" x="787.996094"/>
     <use xlink:href="#DejaVuSans-6e" x="815.779297"/>
     <use xlink:href="#DejaVuSans-61" x="879.158203"/>
     <use xlink:href="#DejaVuSans-74" x="940.4375"/>
     <use xlink:href="#DejaVuSans-65" x="979.646484"/>
     <use xlink:href="#DejaVuSans-73" x="1041.169922"/>
     <use xlink:href="#DejaVuSans-3a" x="1093.269531"/>
     <use xlink:href="#DejaVuSans-20" x="1126.960938"/>
     <use xlink:href="#DejaVuSans-33" x="1158.748047"/>
     <use xlink:href="#DejaVuSans-31" x="1222.371094"/>
     <use xlink:href="#DejaVuSans-30" x="1285.994141"/>
     <use xlink:href="#DejaVuSans-31" x="1349.617188"/>
     <use xlink:href="#DejaVuSans-2d" x="1413.240234"/>
     <use xlink:href="#DejaVuSans-35" x="1449.324219"/>
     <use xlink:href="#DejaVuSans-35" x="1512.947266"/>
     <use xlink:href="#DejaVuSans-31" x="1576.570312"/>
     <use xlink:href="#DejaVuSans-36" x="1640.193359"/>
    </g>
   </g>
   <g id="legend_2">
    <g id="patch_13">
     <path d="M 70.97 474.091125 
L 210.11 474.091125 
Q 212.51 474.091125 212.51 471.691125 
L 212.51 441.84 
Q 212.51 439.44 210.11 439.44 
L 70.97 439.44 
Q 68.57 439.44 68.57 441.84 
L 68.57 471.691125 
Q 68.57 474.091125 70.97 474.091125 
z
" style="fill: #ffffff; opacity: 0.8; stroke: #cccccc; stroke-linejoin: miter"/>
    </g>
    <g id="line2d_37">
     <path d="M 73.37 457.124625 
L 85.37 457.124625 
L 97.37 457.124625 
" style="fill: none; stroke: #ff0000; stroke-width: 2.25; stroke-linecap: square"/>
    </g>
    <g id="text_41">
     <!-- Correlation: 0.45 -->
     <g transform="translate(106.97 453.358125) scale(0.12 -0.12)">
      <use xlink:href="#DejaVuSans-43"/>
      <use xlink:href="#DejaVuSans-6f" x="69.824219"/>
      <use xlink:href="#DejaVuSans-72" x="131.005859"/>
      <use xlink:href="#DejaVuSans-72" x="170.369141"/>
      <use xlink:href="#DejaVuSans-65" x="209.232422"/>
      <use xlink:href="#DejaVuSans-6c" x="270.755859"/>
      <use xlink:href="#DejaVuSans-61" x="298.539062"/>
      <use xlink:href="#DejaVuSans-74" x="359.818359"/>
      <use xlink:href="#DejaVuSans-69" x="399.027344"/>
      <use xlink:href="#DejaVuSans-6f" x="426.810547"/>
      <use xlink:href="#DejaVuSans-6e" x="487.992188"/>
      <use xlink:href="#DejaVuSans-3a" x="551.371094"/>
      <use xlink:href="#DejaVuSans-20" x="585.0625"/>
      <use xlink:href="#DejaVuSans-30" x="616.849609"/>
      <use xlink:href="#DejaVuSans-2e" x="680.472656"/>
      <use xlink:href="#DejaVuSans-34" x="712.259766"/>
      <use xlink:href="#DejaVuSans-35" x="775.882812"/>
     </g>
     <!-- R²: 0.20 -->
     <g transform="translate(106.97 466.7955) scale(0.12 -0.12)">
      <use xlink:href="#DejaVuSans-52"/>
      <use xlink:href="#DejaVuSans-b2" x="69.482422"/>
      <use xlink:href="#DejaVuSans-3a" x="109.570312"/>
      <use xlink:href="#DejaVuSans-20" x="143.261719"/>
      <use xlink:href="#DejaVuSans-30" x="175.048828"/>
      <use xlink:href="#DejaVuSans-2e" x="238.671875"/>
      <use xlink:href="#DejaVuSans-32" x="270.458984"/>
      <use xlink:href="#DejaVuSans-30" x="334.082031"/>
     </g>
    </g>
   </g>
  </g>
  <g id="axes_3">
   <g id="patch_14">
    <path d="M 62.57 1038.04 
L 709.2 1038.04 
L 709.2 765.12 
L 62.57 765.12 
z
" style="fill: #ffffff"/>
   </g>
   <g id="PathCollection_3">
    <g clip-path="url(#pd93ca7da56)">
     <use xlink:href="#m6f39daf162" x="454.829837" y="940.296119" style="fill: #0000ff; stroke: #ffffff; stroke-width: 0.48"/>
     <use xlink:href="#m6f39daf162" x="679.807727" y="938.742643" style="fill: #0000ff; stroke: #ffffff; stroke-width: 0.48"/>
     <use xlink:href="#m6f39daf162" x="498.373945" y="945.078466" style="fill: #0000ff; stroke: #ffffff; stroke-width: 0.48"/>
     <use xlink:href="#m6f39daf162" x="418.543081" y="952.10128" style="fill: #0000ff; stroke: #ffffff; stroke-width: 0.48"/>
     <use xlink:href="#m6f39daf162" x="91.962273" y="984.161966" style="fill: #0000ff; stroke: #ffffff; stroke-width: 0.48"/>
     <use xlink:href="#m6f39daf162" x="636.26362" y="954.618765" style="fill: #0000ff; stroke: #ffffff; stroke-width: 0.48"/>
     <use xlink:href="#m6f39daf162" x="505.631296" y="949.124089" style="fill: #0000ff; stroke: #ffffff; stroke-width: 0.48"/>
     <use xlink:href="#m6f39daf162" x="396.771027" y="939.475159" style="fill: #0000ff; stroke: #ffffff; stroke-width: 0.48"/>
     <use xlink:href="#m6f39daf162" x="396.771027" y="939.475159" style="fill: #0000ff; stroke: #ffffff; stroke-width: 0.48"/>
     <use xlink:href="#m6f39daf162" x="404.028378" y="939.475159" style="fill: #0000ff; stroke: #ffffff; stroke-width: 0.48"/>
     <use xlink:href="#m6f39daf162" x="447.572486" y="946.003998" style="fill: #0000ff; stroke: #ffffff; stroke-width: 0.48"/>
     <use xlink:href="#m6f39daf162" x="665.293025" y="777.525455" style="fill: #0000ff; stroke: #ffffff; stroke-width: 0.48"/>
     <use xlink:href="#m6f39daf162" x="396.771027" y="942.226546" style="fill: #0000ff; stroke: #ffffff; stroke-width: 0.48"/>
     <use xlink:href="#m6f39daf162" x="382.256324" y="938.99606" style="fill: #0000ff; stroke: #ffffff; stroke-width: 0.48"/>
     <use xlink:href="#m6f39daf162" x="273.396055" y="948.900343" style="fill: #0000ff; stroke: #ffffff; stroke-width: 0.48"/>
     <use xlink:href="#m6f39daf162" x="498.373945" y="936.013278" style="fill: #0000ff; stroke: #ffffff; stroke-width: 0.48"/>
     <use xlink:href="#m6f39daf162" x="541.918053" y="936.070488" style="fill: #0000ff; stroke: #ffffff; stroke-width: 0.48"/>
     <use xlink:href="#m6f39daf162" x="280.653406" y="936.815966" style="fill: #0000ff; stroke: #ffffff; stroke-width: 0.48"/>
     <use xlink:href="#m6f39daf162" x="287.910758" y="936.46961" style="fill: #0000ff; stroke: #ffffff; stroke-width: 0.48"/>
     <use xlink:href="#m6f39daf162" x="331.454865" y="929.801186" style="fill: #0000ff; stroke: #ffffff; stroke-width: 0.48"/>
     <use xlink:href="#m6f39daf162" x="324.197514" y="935.977436" style="fill: #0000ff; stroke: #ffffff; stroke-width: 0.48"/>
     <use xlink:href="#m6f39daf162" x="316.940163" y="939.000346" style="fill: #0000ff; stroke: #ffffff; stroke-width: 0.48"/>
    </g>
   </g>
   <g id="PolyCollection_3">
    <path d="M 91.962273 931.000428 
L 91.962273 1025.634545 
L 97.900106 1023.862016 
L 103.837938 1022.0563 
L 109.775771 1020.240677 
L 115.713604 1018.42371 
L 121.651437 1016.600615 
L 127.58927 1014.709198 
L 133.527103 1012.817782 
L 139.464936 1011.014609 
L 145.402769 1009.340502 
L 151.340601 1007.524752 
L 157.278434 1005.705044 
L 163.216267 1003.789679 
L 169.1541 1001.857149 
L 175.091933 999.923508 
L 181.029766 998.096122 
L 186.967599 996.38621 
L 192.905432 994.499956 
L 198.843264 992.879708 
L 204.781097 991.281817 
L 210.71893 989.461178 
L 216.656763 987.852404 
L 222.594596 986.498922 
L 228.532429 984.891358 
L 234.470262 983.124378 
L 240.408095 981.355792 
L 246.345927 979.732587 
L 252.28376 977.949737 
L 258.221593 976.222634 
L 264.159426 974.592574 
L 270.097259 972.743536 
L 276.035092 971.119483 
L 281.972925 969.700223 
L 287.910758 968.074396 
L 293.84859 966.414652 
L 299.786423 964.585013 
L 305.724256 962.753287 
L 311.662089 960.921561 
L 317.599922 959.3041 
L 323.537755 957.975366 
L 329.475588 956.666064 
L 335.413421 955.454313 
L 341.351253 954.007126 
L 347.289086 953.009731 
L 353.226919 951.852724 
L 359.164752 950.697198 
L 365.102585 949.98114 
L 371.040418 949.457375 
L 376.978251 948.859759 
L 382.916084 948.177766 
L 388.853916 947.84937 
L 394.791749 947.366135 
L 400.729582 946.955621 
L 406.667415 946.630236 
L 412.605248 946.209071 
L 418.543081 945.924667 
L 424.480914 945.644031 
L 430.418747 945.376939 
L 436.356579 945.1507 
L 442.294412 944.906596 
L 448.232245 944.864025 
L 454.170078 944.577225 
L 460.107911 944.502513 
L 466.045744 944.270666 
L 471.983577 944.233357 
L 477.92141 944.246993 
L 483.859242 944.270032 
L 489.797075 944.209834 
L 495.734908 944.281371 
L 501.672741 944.312062 
L 507.610574 944.363286 
L 513.548407 944.516103 
L 519.48624 944.696004 
L 525.424073 944.848182 
L 531.361905 944.925897 
L 537.299738 945.043022 
L 543.237571 945.179801 
L 549.175404 945.316579 
L 555.113237 945.453357 
L 561.05107 945.590136 
L 566.988903 945.740475 
L 572.926736 945.909079 
L 578.864568 946.077465 
L 584.802401 946.24585 
L 590.740234 946.456958 
L 596.678067 946.586115 
L 602.6159 946.758334 
L 608.553733 946.929457 
L 614.491566 947.09911 
L 620.429399 947.268764 
L 626.367231 947.438418 
L 632.305064 947.61092 
L 638.242897 947.809879 
L 644.18073 947.983312 
L 650.118563 948.125046 
L 656.056396 948.290371 
L 661.994229 948.461531 
L 667.932062 948.632691 
L 673.869894 948.803851 
L 679.807727 948.97501 
L 679.807727 844.37354 
L 679.807727 844.37354 
L 673.869894 846.012751 
L 667.932062 847.651963 
L 661.994229 849.291174 
L 656.056396 850.930386 
L 650.118563 852.569597 
L 644.18073 854.303039 
L 638.242897 856.085754 
L 632.305064 857.967229 
L 626.367231 860.170228 
L 620.429399 862.399904 
L 614.491566 864.356224 
L 608.553733 865.957542 
L 602.6159 867.55886 
L 596.678067 869.253381 
L 590.740234 871.135926 
L 584.802401 873.096807 
L 578.864568 874.919715 
L 572.926736 876.773635 
L 566.988903 878.647939 
L 561.05107 880.354695 
L 555.113237 881.79315 
L 549.175404 883.446448 
L 543.237571 884.940083 
L 537.299738 886.477638 
L 531.361905 888.38746 
L 525.424073 890.301988 
L 519.48624 892.220618 
L 513.548407 893.879946 
L 507.610574 895.497404 
L 501.672741 897.114862 
L 495.734908 898.839046 
L 489.797075 900.519411 
L 483.859242 902.146283 
L 477.92141 903.954088 
L 471.983577 905.599294 
L 466.045744 907.129777 
L 460.107911 908.680151 
L 454.170078 910.492124 
L 448.232245 912.086863 
L 442.294412 913.692656 
L 436.356579 915.435502 
L 430.418747 917.178347 
L 424.480914 918.926018 
L 418.543081 920.677408 
L 412.605248 922.343388 
L 406.667415 923.833346 
L 400.729582 925.34486 
L 394.791749 926.722541 
L 388.853916 928.172376 
L 382.916084 929.742818 
L 376.978251 931.203213 
L 371.040418 932.571657 
L 365.102585 934.173983 
L 359.164752 935.45896 
L 353.226919 936.720816 
L 347.289086 937.311888 
L 341.351253 937.651154 
L 335.413421 937.802296 
L 329.475588 937.773051 
L 323.537755 937.619248 
L 317.599922 937.409515 
L 311.662089 937.344813 
L 305.724256 937.432232 
L 299.786423 937.232659 
L 293.84859 937.027206 
L 287.910758 936.866446 
L 281.972925 936.788701 
L 276.035092 936.615128 
L 270.097259 936.372764 
L 264.159426 936.120614 
L 258.221593 935.957107 
L 252.28376 935.828547 
L 246.345927 935.700042 
L 240.408095 935.494909 
L 234.470262 935.287823 
L 228.532429 935.081616 
L 222.594596 934.875502 
L 216.656763 934.669387 
L 210.71893 934.463273 
L 204.781097 934.257566 
L 198.843264 934.052452 
L 192.905432 933.847338 
L 186.967599 933.70921 
L 181.029766 933.57716 
L 175.091933 933.445309 
L 169.1541 933.314317 
L 163.216267 933.182391 
L 157.278434 932.967481 
L 151.340601 932.752572 
L 145.402769 932.537662 
L 139.464936 932.322753 
L 133.527103 932.141718 
L 127.58927 931.9871 
L 121.651437 931.832483 
L 115.713604 931.661839 
L 109.775771 931.477076 
L 103.837938 931.317009 
L 97.900106 931.15826 
L 91.962273 931.000428 
z
" clip-path="url(#pd93ca7da56)" style="fill: #ff0000; fill-opacity: 0.15"/>
   </g>
   <g id="matplotlib.axis_5">
    <g id="xtick_19">
     <g id="line2d_38">
      <g>
       <use xlink:href="#m1cbf264a51" x="62.932868" y="1038.04" style="stroke: #000000; stroke-width: 0.8"/>
      </g>
     </g>
     <g id="text_42">
      <!-- 1930 -->
      <g transform="translate(50.207868 1052.638438) scale(0.1 -0.1)">
       <use xlink:href="#DejaVuSans-31"/>
       <use xlink:href="#DejaVuSans-39" x="63.623047"/>
       <use xlink:href="#DejaVuSans-33" x="127.246094"/>
       <use xlink:href="#DejaVuSans-30" x="190.869141"/>
      </g>
     </g>
    </g>
    <g id="xtick_20">
     <g id="line2d_39">
      <g>
       <use xlink:href="#m1cbf264a51" x="135.50638" y="1038.04" style="stroke: #000000; stroke-width: 0.8"/>
      </g>
     </g>
     <g id="text_43">
      <!-- 1940 -->
      <g transform="translate(122.78138 1052.638438) scale(0.1 -0.1)">
       <use xlink:href="#DejaVuSans-31"/>
       <use xlink:href="#DejaVuSans-39" x="63.623047"/>
       <use xlink:href="#DejaVuSans-34" x="127.246094"/>
       <use xlink:href="#DejaVuSans-30" x="190.869141"/>
      </g>
     </g>
    </g>
    <g id="xtick_21">
     <g id="line2d_40">
      <g>
       <use xlink:href="#m1cbf264a51" x="208.079893" y="1038.04" style="stroke: #000000; stroke-width: 0.8"/>
      </g>
     </g>
     <g id="text_44">
      <!-- 1950 -->
      <g transform="translate(195.354893 1052.638438) scale(0.1 -0.1)">
       <use xlink:href="#DejaVuSans-31"/>
       <use xlink:href="#DejaVuSans-39" x="63.623047"/>
       <use xlink:href="#DejaVuSans-35" x="127.246094"/>
       <use xlink:href="#DejaVuSans-30" x="190.869141"/>
      </g>
     </g>
    </g>
    <g id="xtick_22">
     <g id="line2d_41">
      <g>
       <use xlink:href="#m1cbf264a51" x="280.653406" y="1038.04" style="stroke: #000000; stroke-width: 0.8"/>
      </g>
     </g>
     <g id="text_45">
      <!-- 1960 -->
      <g transform="translate(267.928406 1052.638438) scale(0.1 -0.1)">
       <use xlink:href="#DejaVuSans-31"/>
       <use xlink:href="#DejaVuSans-39" x="63.623047"/>
       <use xlink:href="#DejaVuSans-36" x="127.246094"/>
       <use xlink:href="#DejaVuSans-30" x="190.869141"/>
      </g>
     </g>
    </g>
    <g id="xtick_23">
     <g id="line2d_42">
      <g>
       <use xlink:href="#m1cbf264a51" x="353.226919" y="1038.04" style="stroke: #000000; stroke-width: 0.8"/>
      </g>
     </g>
     <g id="text_46">
      <!-- 1970 -->
      <g transform="translate(340.501919 1052.638438) scale(0.1 -0.1)">
       <use xlink:href="#DejaVuSans-31"/>
       <use xlink:href="#DejaVuSans-39" x="63.623047"/>
       <use xlink:href="#DejaVuSans-37" x="127.246094"/>
       <use xlink:href="#DejaVuSans-30" x="190.869141"/>
      </g>
     </g>
    </g>
    <g id="xtick_24">
     <g id="line2d_43">
      <g>
       <use xlink:href="#m1cbf264a51" x="425.800432" y="1038.04" style="stroke: #000000; stroke-width: 0.8"/>
      </g>
     </g>
     <g id="text_47">
      <!-- 1980 -->
      <g transform="translate(413.075432 1052.638438) scale(0.1 -0.1)">
       <use xlink:href="#DejaVuSans-31"/>
       <use xlink:href="#DejaVuSans-39" x="63.623047"/>
       <use xlink:href="#DejaVuSans-38" x="127.246094"/>
       <use xlink:href="#DejaVuSans-30" x="190.869141"/>
      </g>
     </g>
    </g>
    <g id="xtick_25">
     <g id="line2d_44">
      <g>
       <use xlink:href="#m1cbf264a51" x="498.373945" y="1038.04" style="stroke: #000000; stroke-width: 0.8"/>
      </g>
     </g>
     <g id="text_48">
      <!-- 1990 -->
      <g transform="translate(485.648945 1052.638438) scale(0.1 -0.1)">
       <use xlink:href="#DejaVuSans-31"/>
       <use xlink:href="#DejaVuSans-39" x="63.623047"/>
       <use xlink:href="#DejaVuSans-39" x="127.246094"/>
       <use xlink:href="#DejaVuSans-30" x="190.869141"/>
      </g>
     </g>
    </g>
    <g id="xtick_26">
     <g id="line2d_45">
      <g>
       <use xlink:href="#m1cbf264a51" x="570.947458" y="1038.04" style="stroke: #000000; stroke-width: 0.8"/>
      </g>
     </g>
     <g id="text_49">
      <!-- 2000 -->
      <g transform="translate(558.222458 1052.638438) scale(0.1 -0.1)">
       <use xlink:href="#DejaVuSans-32"/>
       <use xlink:href="#DejaVuSans-30" x="63.623047"/>
       <use xlink:href="#DejaVuSans-30" x="127.246094"/>
       <use xlink:href="#DejaVuSans-30" x="190.869141"/>
      </g>
     </g>
    </g>
    <g id="xtick_27">
     <g id="line2d_46">
      <g>
       <use xlink:href="#m1cbf264a51" x="643.520971" y="1038.04" style="stroke: #000000; stroke-width: 0.8"/>
      </g>
     </g>
     <g id="text_50">
      <!-- 2010 -->
      <g transform="translate(630.795971 1052.638438) scale(0.1 -0.1)">
       <use xlink:href="#DejaVuSans-32"/>
       <use xlink:href="#DejaVuSans-30" x="63.623047"/>
       <use xlink:href="#DejaVuSans-31" x="127.246094"/>
       <use xlink:href="#DejaVuSans-30" x="190.869141"/>
      </g>
     </g>
    </g>
    <g id="text_51">
     <!-- date -->
     <g transform="translate(374.61 1066.316563) scale(0.1 -0.1)">
      <use xlink:href="#DejaVuSans-64"/>
      <use xlink:href="#DejaVuSans-61" x="63.476562"/>
      <use xlink:href="#DejaVuSans-74" x="124.755859"/>
      <use xlink:href="#DejaVuSans-65" x="163.964844"/>
     </g>
    </g>
   </g>
   <g id="matplotlib.axis_6">
    <g id="ytick_16">
     <g id="line2d_47">
      <g>
       <use xlink:href="#m02af04977b" x="62.57" y="1015.023586" style="stroke: #000000; stroke-width: 0.8"/>
      </g>
     </g>
     <g id="text_52">
      <!-- −0.05 -->
      <g transform="translate(24.924688 1018.822805) scale(0.1 -0.1)">
       <use xlink:href="#DejaVuSans-2212"/>
       <use xlink:href="#DejaVuSans-30" x="83.789062"/>
       <use xlink:href="#DejaVuSans-2e" x="147.412109"/>
       <use xlink:href="#DejaVuSans-30" x="179.199219"/>
       <use xlink:href="#DejaVuSans-35" x="242.822266"/>
      </g>
     </g>
    </g>
    <g id="ytick_17">
     <g id="line2d_48">
      <g>
       <use xlink:href="#m02af04977b" x="62.57" y="984.161966" style="stroke: #000000; stroke-width: 0.8"/>
      </g>
     </g>
     <g id="text_53">
      <!-- 0.00 -->
      <g transform="translate(33.304375 987.961184) scale(0.1 -0.1)">
       <use xlink:href="#DejaVuSans-30"/>
       <use xlink:href="#DejaVuSans-2e" x="63.623047"/>
       <use xlink:href="#DejaVuSans-30" x="95.410156"/>
       <use xlink:href="#DejaVuSans-30" x="159.033203"/>
      </g>
     </g>
    </g>
    <g id="ytick_18">
     <g id="line2d_49">
      <g>
       <use xlink:href="#m02af04977b" x="62.57" y="953.300345" style="stroke: #000000; stroke-width: 0.8"/>
      </g>
     </g>
     <g id="text_54">
      <!-- 0.05 -->
      <g transform="translate(33.304375 957.099564) scale(0.1 -0.1)">
       <use xlink:href="#DejaVuSans-30"/>
       <use xlink:href="#DejaVuSans-2e" x="63.623047"/>
       <use xlink:href="#DejaVuSans-30" x="95.410156"/>
       <use xlink:href="#DejaVuSans-35" x="159.033203"/>
      </g>
     </g>
    </g>
    <g id="ytick_19">
     <g id="line2d_50">
      <g>
       <use xlink:href="#m02af04977b" x="62.57" y="922.438725" style="stroke: #000000; stroke-width: 0.8"/>
      </g>
     </g>
     <g id="text_55">
      <!-- 0.10 -->
      <g transform="translate(33.304375 926.237943) scale(0.1 -0.1)">
       <use xlink:href="#DejaVuSans-30"/>
       <use xlink:href="#DejaVuSans-2e" x="63.623047"/>
       <use xlink:href="#DejaVuSans-31" x="95.410156"/>
       <use xlink:href="#DejaVuSans-30" x="159.033203"/>
      </g>
     </g>
    </g>
    <g id="ytick_20">
     <g id="line2d_51">
      <g>
       <use xlink:href="#m02af04977b" x="62.57" y="891.577104" style="stroke: #000000; stroke-width: 0.8"/>
      </g>
     </g>
     <g id="text_56">
      <!-- 0.15 -->
      <g transform="translate(33.304375 895.376323) scale(0.1 -0.1)">
       <use xlink:href="#DejaVuSans-30"/>
       <use xlink:href="#DejaVuSans-2e" x="63.623047"/>
       <use xlink:href="#DejaVuSans-31" x="95.410156"/>
       <use xlink:href="#DejaVuSans-35" x="159.033203"/>
      </g>
     </g>
    </g>
    <g id="ytick_21">
     <g id="line2d_52">
      <g>
       <use xlink:href="#m02af04977b" x="62.57" y="860.715484" style="stroke: #000000; stroke-width: 0.8"/>
      </g>
     </g>
     <g id="text_57">
      <!-- 0.20 -->
      <g transform="translate(33.304375 864.514703) scale(0.1 -0.1)">
       <use xlink:href="#DejaVuSans-30"/>
       <use xlink:href="#DejaVuSans-2e" x="63.623047"/>
       <use xlink:href="#DejaVuSans-32" x="95.410156"/>
       <use xlink:href="#DejaVuSans-30" x="159.033203"/>
      </g>
     </g>
    </g>
    <g id="ytick_22">
     <g id="line2d_53">
      <g>
       <use xlink:href="#m02af04977b" x="62.57" y="829.853863" style="stroke: #000000; stroke-width: 0.8"/>
      </g>
     </g>
     <g id="text_58">
      <!-- 0.25 -->
      <g transform="translate(33.304375 833.653082) scale(0.1 -0.1)">
       <use xlink:href="#DejaVuSans-30"/>
       <use xlink:href="#DejaVuSans-2e" x="63.623047"/>
       <use xlink:href="#DejaVuSans-32" x="95.410156"/>
       <use xlink:href="#DejaVuSans-35" x="159.033203"/>
      </g>
     </g>
    </g>
    <g id="ytick_23">
     <g id="line2d_54">
      <g>
       <use xlink:href="#m02af04977b" x="62.57" y="798.992243" style="stroke: #000000; stroke-width: 0.8"/>
      </g>
     </g>
     <g id="text_59">
      <!-- 0.30 -->
      <g transform="translate(33.304375 802.791462) scale(0.1 -0.1)">
       <use xlink:href="#DejaVuSans-30"/>
       <use xlink:href="#DejaVuSans-2e" x="63.623047"/>
       <use xlink:href="#DejaVuSans-33" x="95.410156"/>
       <use xlink:href="#DejaVuSans-30" x="159.033203"/>
      </g>
     </g>
    </g>
    <g id="ytick_24">
     <g id="line2d_55">
      <g>
       <use xlink:href="#m02af04977b" x="62.57" y="768.130622" style="stroke: #000000; stroke-width: 0.8"/>
      </g>
     </g>
     <g id="text_60">
      <!-- 0.35 -->
      <g transform="translate(33.304375 771.929841) scale(0.1 -0.1)">
       <use xlink:href="#DejaVuSans-30"/>
       <use xlink:href="#DejaVuSans-2e" x="63.623047"/>
       <use xlink:href="#DejaVuSans-33" x="95.410156"/>
       <use xlink:href="#DejaVuSans-35" x="159.033203"/>
      </g>
     </g>
    </g>
    <g id="text_61">
     <!-- distance -->
     <g transform="translate(18.845 922.766719) rotate(-90) scale(0.1 -0.1)">
      <use xlink:href="#DejaVuSans-64"/>
      <use xlink:href="#DejaVuSans-69" x="63.476562"/>
      <use xlink:href="#DejaVuSans-73" x="91.259766"/>
      <use xlink:href="#DejaVuSans-74" x="143.359375"/>
      <use xlink:href="#DejaVuSans-61" x="182.568359"/>
      <use xlink:href="#DejaVuSans-6e" x="243.847656"/>
      <use xlink:href="#DejaVuSans-63" x="307.226562"/>
      <use xlink:href="#DejaVuSans-65" x="362.207031"/>
     </g>
    </g>
   </g>
   <g id="line2d_56">
    <path d="M 91.962273 975.897066 
L 97.900106 975.169201 
L 103.837938 974.441336 
L 109.775771 973.71347 
L 115.713604 972.985605 
L 121.651437 972.25774 
L 127.58927 971.529874 
L 133.527103 970.802009 
L 139.464936 970.074143 
L 145.402769 969.346278 
L 151.340601 968.618413 
L 157.278434 967.890547 
L 163.216267 967.162682 
L 169.1541 966.434817 
L 175.091933 965.706951 
L 181.029766 964.979086 
L 186.967599 964.25122 
L 192.905432 963.523355 
L 198.843264 962.79549 
L 204.781097 962.067624 
L 210.71893 961.339759 
L 216.656763 960.611894 
L 222.594596 959.884028 
L 228.532429 959.156163 
L 234.470262 958.428297 
L 240.408095 957.700432 
L 246.345927 956.972567 
L 252.28376 956.244701 
L 258.221593 955.516836 
L 264.159426 954.788971 
L 270.097259 954.061105 
L 276.035092 953.33324 
L 281.972925 952.605374 
L 287.910758 951.877509 
L 293.84859 951.149644 
L 299.786423 950.421778 
L 305.724256 949.693913 
L 311.662089 948.966048 
L 317.599922 948.238182 
L 323.537755 947.510317 
L 329.475588 946.782451 
L 335.413421 946.054586 
L 341.351253 945.326721 
L 347.289086 944.598855 
L 353.226919 943.87099 
L 359.164752 943.143125 
L 365.102585 942.415259 
L 371.040418 941.687394 
L 376.978251 940.959528 
L 382.916084 940.231663 
L 388.853916 939.503798 
L 394.791749 938.775932 
L 400.729582 938.048067 
L 406.667415 937.320202 
L 412.605248 936.592336 
L 418.543081 935.864471 
L 424.480914 935.136605 
L 430.418747 934.40874 
L 436.356579 933.680875 
L 442.294412 932.953009 
L 448.232245 932.225144 
L 454.170078 931.497279 
L 460.107911 930.769413 
L 466.045744 930.041548 
L 471.983577 929.313682 
L 477.92141 928.585817 
L 483.859242 927.857952 
L 489.797075 927.130086 
L 495.734908 926.402221 
L 501.672741 925.674356 
L 507.610574 924.94649 
L 513.548407 924.218625 
L 519.48624 923.490759 
L 525.424073 922.762894 
L 531.361905 922.035029 
L 537.299738 921.307163 
L 543.237571 920.579298 
L 549.175404 919.851433 
L 555.113237 919.123567 
L 561.05107 918.395702 
L 566.988903 917.667836 
L 572.926736 916.939971 
L 578.864568 916.212106 
L 584.802401 915.48424 
L 590.740234 914.756375 
L 596.678067 914.02851 
L 602.6159 913.300644 
L 608.553733 912.572779 
L 614.491566 911.844913 
L 620.429399 911.117048 
L 626.367231 910.389183 
L 632.305064 909.661317 
L 638.242897 908.933452 
L 644.18073 908.205587 
L 650.118563 907.477721 
L 656.056396 906.749856 
L 661.994229 906.02199 
L 667.932062 905.294125 
L 673.869894 904.56626 
L 679.807727 903.838394 
" clip-path="url(#pd93ca7da56)" style="fill: none; stroke: #ff0000; stroke-width: 2.25; stroke-linecap: square"/>
   </g>
   <g id="patch_15">
    <path d="M 62.57 1038.04 
L 62.57 765.12 
" style="fill: none; stroke: #000000; stroke-width: 0.8; stroke-linejoin: miter; stroke-linecap: square"/>
   </g>
   <g id="patch_16">
    <path d="M 709.2 1038.04 
L 709.2 765.12 
" style="fill: none; stroke: #000000; stroke-width: 0.8; stroke-linejoin: miter; stroke-linecap: square"/>
   </g>
   <g id="patch_17">
    <path d="M 62.57 1038.04 
L 709.2 1038.04 
" style="fill: none; stroke: #000000; stroke-width: 0.8; stroke-linejoin: miter; stroke-linecap: square"/>
   </g>
   <g id="patch_18">
    <path d="M 62.57 765.12 
L 709.2 765.12 
" style="fill: none; stroke: #000000; stroke-width: 0.8; stroke-linejoin: miter; stroke-linecap: square"/>
   </g>
   <g id="text_62">
    <!-- Graph for coordinates: 5517-7291 -->
    <g transform="translate(266.618125 759.12) scale(0.14 -0.14)">
     <use xlink:href="#DejaVuSans-47"/>
     <use xlink:href="#DejaVuSans-72" x="77.490234"/>
     <use xlink:href="#DejaVuSans-61" x="118.603516"/>
     <use xlink:href="#DejaVuSans-70" x="179.882812"/>
     <use xlink:href="#DejaVuSans-68" x="243.359375"/>
     <use xlink:href="#DejaVuSans-20" x="306.738281"/>
     <use xlink:href="#DejaVuSans-66" x="338.525391"/>
     <use xlink:href="#DejaVuSans-6f" x="373.730469"/>
     <use xlink:href="#DejaVuSans-72" x="434.912109"/>
     <use xlink:href="#DejaVuSans-20" x="476.025391"/>
     <use xlink:href="#DejaVuSans-63" x="507.8125"/>
     <use xlink:href="#DejaVuSans-6f" x="562.792969"/>
     <use xlink:href="#DejaVuSans-6f" x="623.974609"/>
     <use xlink:href="#DejaVuSans-72" x="685.15625"/>
     <use xlink:href="#DejaVuSans-64" x="724.519531"/>
     <use xlink:href="#DejaVuSans-69" x="787.996094"/>
     <use xlink:href="#DejaVuSans-6e" x="815.779297"/>
     <use xlink:href="#DejaVuSans-61" x="879.158203"/>
     <use xlink:href="#DejaVuSans-74" x="940.4375"/>
     <use xlink:href="#DejaVuSans-65" x="979.646484"/>
     <use xlink:href="#DejaVuSans-73" x="1041.169922"/>
     <use xlink:href="#DejaVuSans-3a" x="1093.269531"/>
     <use xlink:href="#DejaVuSans-20" x="1126.960938"/>
     <use xlink:href="#DejaVuSans-35" x="1158.748047"/>
     <use xlink:href="#DejaVuSans-35" x="1222.371094"/>
     <use xlink:href="#DejaVuSans-31" x="1285.994141"/>
     <use xlink:href="#DejaVuSans-37" x="1349.617188"/>
     <use xlink:href="#DejaVuSans-2d" x="1413.240234"/>
     <use xlink:href="#DejaVuSans-37" x="1449.324219"/>
     <use xlink:href="#DejaVuSans-32" x="1512.947266"/>
     <use xlink:href="#DejaVuSans-39" x="1576.570312"/>
     <use xlink:href="#DejaVuSans-31" x="1640.193359"/>
    </g>
   </g>
   <g id="legend_3">
    <g id="patch_19">
     <path d="M 70.97 805.771125 
L 210.11 805.771125 
Q 212.51 805.771125 212.51 803.371125 
L 212.51 773.52 
Q 212.51 771.12 210.11 771.12 
L 70.97 771.12 
Q 68.57 771.12 68.57 773.52 
L 68.57 803.371125 
Q 68.57 805.771125 70.97 805.771125 
z
" style="fill: #ffffff; opacity: 0.8; stroke: #cccccc; stroke-linejoin: miter"/>
    </g>
    <g id="line2d_57">
     <path d="M 73.37 788.804625 
L 85.37 788.804625 
L 97.37 788.804625 
" style="fill: none; stroke: #ff0000; stroke-width: 2.25; stroke-linecap: square"/>
    </g>
    <g id="text_63">
     <!-- Correlation: 0.46 -->
     <g transform="translate(106.97 785.038125) scale(0.12 -0.12)">
      <use xlink:href="#DejaVuSans-43"/>
      <use xlink:href="#DejaVuSans-6f" x="69.824219"/>
      <use xlink:href="#DejaVuSans-72" x="131.005859"/>
      <use xlink:href="#DejaVuSans-72" x="170.369141"/>
      <use xlink:href="#DejaVuSans-65" x="209.232422"/>
      <use xlink:href="#DejaVuSans-6c" x="270.755859"/>
      <use xlink:href="#DejaVuSans-61" x="298.539062"/>
      <use xlink:href="#DejaVuSans-74" x="359.818359"/>
      <use xlink:href="#DejaVuSans-69" x="399.027344"/>
      <use xlink:href="#DejaVuSans-6f" x="426.810547"/>
      <use xlink:href="#DejaVuSans-6e" x="487.992188"/>
      <use xlink:href="#DejaVuSans-3a" x="551.371094"/>
      <use xlink:href="#DejaVuSans-20" x="585.0625"/>
      <use xlink:href="#DejaVuSans-30" x="616.849609"/>
      <use xlink:href="#DejaVuSans-2e" x="680.472656"/>
      <use xlink:href="#DejaVuSans-34" x="712.259766"/>
      <use xlink:href="#DejaVuSans-36" x="775.882812"/>
     </g>
     <!-- R²: 0.21 -->
     <g transform="translate(106.97 798.4755) scale(0.12 -0.12)">
      <use xlink:href="#DejaVuSans-52"/>
      <use xlink:href="#DejaVuSans-b2" x="69.482422"/>
      <use xlink:href="#DejaVuSans-3a" x="109.570312"/>
      <use xlink:href="#DejaVuSans-20" x="143.261719"/>
      <use xlink:href="#DejaVuSans-30" x="175.048828"/>
      <use xlink:href="#DejaVuSans-2e" x="238.671875"/>
      <use xlink:href="#DejaVuSans-32" x="270.458984"/>
      <use xlink:href="#DejaVuSans-31" x="334.082031"/>
     </g>
    </g>
   </g>
  </g>
  <g id="text_64">
   <!-- Serotype: SAT3 -->
   <g transform="translate(283.534375 47.596875) scale(0.2 -0.2)">
    <defs>
     <path id="DejaVuSans-53" d="M 3425 4513 
L 3425 3897 
Q 3066 4069 2747 4153 
Q 2428 4238 2131 4238 
Q 1616 4238 1336 4038 
Q 1056 3838 1056 3469 
Q 1056 3159 1242 3001 
Q 1428 2844 1947 2747 
L 2328 2669 
Q 3034 2534 3370 2195 
Q 3706 1856 3706 1288 
Q 3706 609 3251 259 
Q 2797 -91 1919 -91 
Q 1588 -91 1214 -16 
Q 841 59 441 206 
L 441 856 
Q 825 641 1194 531 
Q 1563 422 1919 422 
Q 2459 422 2753 634 
Q 3047 847 3047 1241 
Q 3047 1584 2836 1778 
Q 2625 1972 2144 2069 
L 1759 2144 
Q 1053 2284 737 2584 
Q 422 2884 422 3419 
Q 422 4038 858 4394 
Q 1294 4750 2059 4750 
Q 2388 4750 2728 4690 
Q 3069 4631 3425 4513 
z
" transform="scale(0.015625)"/>
     <path id="DejaVuSans-79" d="M 2059 -325 
Q 1816 -950 1584 -1140 
Q 1353 -1331 966 -1331 
L 506 -1331 
L 506 -850 
L 844 -850 
Q 1081 -850 1212 -737 
Q 1344 -625 1503 -206 
L 1606 56 
L 191 3500 
L 800 3500 
L 1894 763 
L 2988 3500 
L 3597 3500 
L 2059 -325 
z
" transform="scale(0.015625)"/>
     <path id="DejaVuSans-41" d="M 2188 4044 
L 1331 1722 
L 3047 1722 
L 2188 4044 
z
M 1831 4666 
L 2547 4666 
L 4325 0 
L 3669 0 
L 3244 1197 
L 1141 1197 
L 716 0 
L 50 0 
L 1831 4666 
z
" transform="scale(0.015625)"/>
     <path id="DejaVuSans-54" d="M -19 4666 
L 3928 4666 
L 3928 4134 
L 2272 4134 
L 2272 0 
L 1638 0 
L 1638 4134 
L -19 4134 
L -19 4666 
z
" transform="scale(0.015625)"/>
    </defs>
    <use xlink:href="#DejaVuSans-53"/>
    <use xlink:href="#DejaVuSans-65" x="63.476562"/>
    <use xlink:href="#DejaVuSans-72" x="125"/>
    <use xlink:href="#DejaVuSans-6f" x="163.863281"/>
    <use xlink:href="#DejaVuSans-74" x="225.044922"/>
    <use xlink:href="#DejaVuSans-79" x="264.253906"/>
    <use xlink:href="#DejaVuSans-70" x="323.433594"/>
    <use xlink:href="#DejaVuSans-65" x="386.910156"/>
    <use xlink:href="#DejaVuSans-3a" x="448.433594"/>
    <use xlink:href="#DejaVuSans-20" x="482.125"/>
    <use xlink:href="#DejaVuSans-53" x="513.912109"/>
    <use xlink:href="#DejaVuSans-41" x="579.263672"/>
    <use xlink:href="#DejaVuSans-54" x="639.921875"/>
    <use xlink:href="#DejaVuSans-33" x="701.005859"/>
   </g>
  </g>
 </g>
 <defs>
  <clipPath id="p828e927dcd">
   <rect x="62.57" y="101.76" width="646.63" height="272.92"/>
  </clipPath>
  <clipPath id="p2fa4aa688e">
   <rect x="62.57" y="433.44" width="646.63" height="272.92"/>
  </clipPath>
  <clipPath id="pd93ca7da56">
   <rect x="62.57" y="765.12" width="646.63" height="272.92"/>
  </clipPath>
 </defs>
</svg>
